G04 #@! TF.GenerationSoftware,KiCad,Pcbnew,(6.0.1-0)*
G04 #@! TF.CreationDate,2022-06-20T19:50:09-07:00*
G04 #@! TF.ProjectId,bottom,626f7474-6f6d-42e6-9b69-6361645f7063,rev?*
G04 #@! TF.SameCoordinates,Original*
G04 #@! TF.FileFunction,Soldermask,Top*
G04 #@! TF.FilePolarity,Negative*
%FSLAX46Y46*%
G04 Gerber Fmt 4.6, Leading zero omitted, Abs format (unit mm)*
G04 Created by KiCad (PCBNEW (6.0.1-0)) date 2022-06-20 19:50:09*
%MOMM*%
%LPD*%
G01*
G04 APERTURE LIST*
%ADD10C,4.400000*%
%ADD11C,8.600000*%
G04 APERTURE END LIST*
G36*
X311077866Y-272772342D02*
G01*
X311108496Y-272836486D01*
X311156421Y-272941366D01*
X311220306Y-273083941D01*
X311298817Y-273261165D01*
X311390620Y-273469996D01*
X311494379Y-273707390D01*
X311608762Y-273970304D01*
X311732433Y-274255695D01*
X311864059Y-274560519D01*
X312002304Y-274881733D01*
X312125015Y-275167698D01*
X313168056Y-277601679D01*
X313422565Y-277684846D01*
X313519714Y-277716555D01*
X313654902Y-277760630D01*
X313817760Y-277813693D01*
X313997921Y-277872365D01*
X314185018Y-277933270D01*
X314300621Y-277970888D01*
X314462074Y-278023764D01*
X314652864Y-278086834D01*
X314868751Y-278158657D01*
X315105494Y-278237792D01*
X315358852Y-278322796D01*
X315624586Y-278412228D01*
X315898453Y-278504646D01*
X316176214Y-278598608D01*
X316453629Y-278692672D01*
X316726456Y-278785398D01*
X316990456Y-278875342D01*
X317241386Y-278961064D01*
X317475008Y-279041122D01*
X317687080Y-279114073D01*
X317873362Y-279178476D01*
X318029613Y-279232889D01*
X318151593Y-279275871D01*
X318235061Y-279305980D01*
X318275776Y-279321774D01*
X318279015Y-279323500D01*
X318261877Y-279340868D01*
X318208053Y-279386885D01*
X318120959Y-279458846D01*
X318004006Y-279554046D01*
X317860608Y-279669779D01*
X317694179Y-279803340D01*
X317508133Y-279952024D01*
X317305882Y-280113125D01*
X317090839Y-280283938D01*
X316866420Y-280461758D01*
X316636036Y-280643879D01*
X316403101Y-280827596D01*
X316171029Y-281010203D01*
X315943233Y-281188997D01*
X315723126Y-281361270D01*
X315514123Y-281524317D01*
X315319636Y-281675435D01*
X315143078Y-281811916D01*
X315018991Y-281907249D01*
X315027299Y-281930963D01*
X315053826Y-281996840D01*
X315096643Y-282100300D01*
X315153823Y-282236761D01*
X315223439Y-282401640D01*
X315303562Y-282590356D01*
X315392264Y-282798328D01*
X315485900Y-283016969D01*
X315735500Y-283605497D01*
X315986245Y-284210666D01*
X316240187Y-284837664D01*
X316499376Y-285491681D01*
X316765865Y-286177904D01*
X317041703Y-286901521D01*
X317328943Y-287667722D01*
X317396608Y-287849900D01*
X317471342Y-288051315D01*
X317541873Y-288241159D01*
X317605900Y-288413257D01*
X317661123Y-288561436D01*
X317705241Y-288679524D01*
X317735955Y-288761346D01*
X317749873Y-288797946D01*
X317768792Y-288856765D01*
X317771540Y-288889277D01*
X317768101Y-288891643D01*
X317748225Y-288872378D01*
X317699298Y-288818084D01*
X317624835Y-288732854D01*
X317528351Y-288620780D01*
X317413360Y-288485955D01*
X317283378Y-288332471D01*
X317141919Y-288164421D01*
X317074770Y-288084319D01*
X316916565Y-287895590D01*
X316739298Y-287684536D01*
X316545565Y-287454224D01*
X316337965Y-287207724D01*
X316119095Y-286948103D01*
X315891553Y-286678430D01*
X315657936Y-286401771D01*
X315420843Y-286121196D01*
X315182871Y-285839771D01*
X314946619Y-285560566D01*
X314714682Y-285286647D01*
X314489660Y-285021084D01*
X314274151Y-284766943D01*
X314070751Y-284527294D01*
X313882058Y-284305203D01*
X313710671Y-284103740D01*
X313559187Y-283925971D01*
X313430204Y-283774966D01*
X313326319Y-283653791D01*
X313250131Y-283565515D01*
X313205321Y-283514416D01*
X313183737Y-283527682D01*
X313125435Y-283571654D01*
X313032769Y-283644411D01*
X312908091Y-283744033D01*
X312753753Y-283868597D01*
X312572108Y-284016183D01*
X312365509Y-284184869D01*
X312136308Y-284372736D01*
X311886858Y-284577861D01*
X311619512Y-284798324D01*
X311336622Y-285032204D01*
X311040541Y-285277579D01*
X310733621Y-285532529D01*
X310721029Y-285543000D01*
X310413904Y-285798240D01*
X310117700Y-286044017D01*
X309834756Y-286278411D01*
X309567412Y-286499500D01*
X309318006Y-286705364D01*
X309088876Y-286894080D01*
X308882363Y-287063729D01*
X308700804Y-287212388D01*
X308546539Y-287338136D01*
X308421907Y-287439052D01*
X308329246Y-287513215D01*
X308270895Y-287558704D01*
X308249193Y-287573597D01*
X308249117Y-287573519D01*
X308253236Y-287546492D01*
X308267015Y-287472947D01*
X308289772Y-287356207D01*
X308320823Y-287199593D01*
X308359486Y-287006428D01*
X308405080Y-286780034D01*
X308456922Y-286523733D01*
X308514329Y-286240847D01*
X308576619Y-285934699D01*
X308643109Y-285608611D01*
X308713119Y-285265905D01*
X308785964Y-284909904D01*
X308860962Y-284543929D01*
X308937432Y-284171302D01*
X309014691Y-283795347D01*
X309092057Y-283419385D01*
X309168847Y-283046738D01*
X309244378Y-282680730D01*
X309317969Y-282324681D01*
X309388938Y-281981914D01*
X309456601Y-281655751D01*
X309520276Y-281349515D01*
X309579282Y-281066528D01*
X309632935Y-280810112D01*
X309680553Y-280583589D01*
X309721455Y-280390281D01*
X309754957Y-280233511D01*
X309780378Y-280116601D01*
X309784848Y-280096426D01*
X309853652Y-279787341D01*
X309230868Y-279040214D01*
X309130420Y-278919088D01*
X309009131Y-278771787D01*
X308869648Y-278601592D01*
X308714619Y-278411783D01*
X308546688Y-278205642D01*
X308368504Y-277986450D01*
X308182713Y-277757488D01*
X307991961Y-277522037D01*
X307798896Y-277283378D01*
X307606163Y-277044792D01*
X307416411Y-276809560D01*
X307232284Y-276580964D01*
X307056431Y-276362285D01*
X306891498Y-276156803D01*
X306740132Y-275967799D01*
X306604978Y-275798555D01*
X306488685Y-275652352D01*
X306393898Y-275532471D01*
X306323265Y-275442193D01*
X306279432Y-275384799D01*
X306265046Y-275363570D01*
X306265062Y-275363549D01*
X306289760Y-275369775D01*
X306358968Y-275389754D01*
X306468557Y-275422237D01*
X306614395Y-275465975D01*
X306792352Y-275519721D01*
X306998297Y-275582226D01*
X307228100Y-275652242D01*
X307477630Y-275728521D01*
X307742756Y-275809814D01*
X307797987Y-275826779D01*
X308130074Y-275928109D01*
X308455274Y-276025983D01*
X308769697Y-276119309D01*
X309069455Y-276206996D01*
X309350657Y-276287953D01*
X309609413Y-276361090D01*
X309841834Y-276425314D01*
X310044031Y-276479535D01*
X310212113Y-276522661D01*
X310342190Y-276553602D01*
X310430374Y-276571266D01*
X310465814Y-276575151D01*
X310473465Y-276574565D01*
X310480639Y-276570714D01*
X310487845Y-276560459D01*
X310495590Y-276540658D01*
X310504384Y-276508173D01*
X310514736Y-276459861D01*
X310527154Y-276392585D01*
X310542148Y-276303203D01*
X310560227Y-276188575D01*
X310581900Y-276045561D01*
X310607675Y-275871021D01*
X310638061Y-275661815D01*
X310673568Y-275414802D01*
X310714703Y-275126843D01*
X310761977Y-274794798D01*
X310815898Y-274415525D01*
X310816425Y-274411824D01*
X310856877Y-274128650D01*
X310895591Y-273860386D01*
X310931929Y-273611277D01*
X310965254Y-273385565D01*
X310994929Y-273187494D01*
X311020314Y-273021307D01*
X311040773Y-272891248D01*
X311055668Y-272801559D01*
X311064361Y-272756485D01*
X311065865Y-272751979D01*
X311077866Y-272772342D01*
G37*
D10*
X234156250Y-233362500D03*
X376237500Y-251618750D03*
X151606250Y-233362500D03*
D11*
X42068750Y-251618750D03*
D10*
X100012500Y-337343750D03*
X481806250Y-328612500D03*
X192881250Y-355600000D03*
X281781250Y-337343750D03*
X481806250Y-251618750D03*
X19050000Y-328612500D03*
D11*
X458787500Y-251618750D03*
D10*
X19050000Y-251618750D03*
X377825000Y-327818750D03*
M02*
