%FSLAX45Y45*%
G04 Gerber Fmt 4.5, Leading zero omitted, Abs format (unit mm)*
G04 Created by KiCad (PCBNEW (6.0.1-0)) date 2022-06-20 19:50:14*
%MOMM*%
%LPD*%
G01*
G04 APERTURE LIST*
%TA.AperFunction,Profile*%
%ADD10C,0.100000*%
%TD*%
%ADD11C,0.200000*%
G04 APERTURE END LIST*
D10*
X50035625Y-22701250D02*
X50035625Y-34607500D01*
X18494375Y-36591875D02*
X20002500Y-36591875D01*
X28575000Y-34766250D02*
X20002500Y-36591875D01*
X208750Y-22463125D02*
X49797500Y-22463125D01*
X49876875Y-34766250D02*
G75*
G03*
X50035625Y-34607500I0J158750D01*
G01*
X50035625Y-22701250D02*
G75*
G03*
X49797500Y-22463125I-238125J0D01*
G01*
X49876875Y-34766250D02*
X28575000Y-34766250D01*
X50000Y-34607500D02*
X50000Y-22621875D01*
X208750Y-34766250D02*
X10001250Y-34766250D01*
X208750Y-22463125D02*
G75*
G03*
X50000Y-22621875I0J-158750D01*
G01*
X50000Y-34607500D02*
G75*
G03*
X208750Y-34766250I158750J0D01*
G01*
X10001250Y-34766250D02*
X18494375Y-36591875D01*
D11*
X302619Y-36907351D02*
X302619Y-36707351D01*
X350238Y-36707351D01*
X378809Y-36716875D01*
X397857Y-36735923D01*
X407381Y-36754970D01*
X416905Y-36793065D01*
X416905Y-36821637D01*
X407381Y-36859732D01*
X397857Y-36878780D01*
X378809Y-36897827D01*
X350238Y-36907351D01*
X302619Y-36907351D01*
X502619Y-36907351D02*
X502619Y-36774018D01*
X502619Y-36812113D02*
X512143Y-36793065D01*
X521667Y-36783542D01*
X540714Y-36774018D01*
X559762Y-36774018D01*
X626429Y-36907351D02*
X626429Y-36774018D01*
X626429Y-36707351D02*
X616905Y-36716875D01*
X626429Y-36726399D01*
X635952Y-36716875D01*
X626429Y-36707351D01*
X626429Y-36726399D01*
X750238Y-36907351D02*
X731190Y-36897827D01*
X721667Y-36878780D01*
X721667Y-36707351D01*
X855000Y-36907351D02*
X835952Y-36897827D01*
X826428Y-36878780D01*
X826428Y-36707351D01*
X1083571Y-36907351D02*
X1083571Y-36707351D01*
X1150238Y-36850208D01*
X1216905Y-36707351D01*
X1216905Y-36907351D01*
X1397857Y-36907351D02*
X1397857Y-36802589D01*
X1388333Y-36783542D01*
X1369286Y-36774018D01*
X1331190Y-36774018D01*
X1312143Y-36783542D01*
X1397857Y-36897827D02*
X1378810Y-36907351D01*
X1331190Y-36907351D01*
X1312143Y-36897827D01*
X1302619Y-36878780D01*
X1302619Y-36859732D01*
X1312143Y-36840685D01*
X1331190Y-36831161D01*
X1378810Y-36831161D01*
X1397857Y-36821637D01*
X1493095Y-36774018D02*
X1493095Y-36974018D01*
X1493095Y-36783542D02*
X1512143Y-36774018D01*
X1550238Y-36774018D01*
X1569286Y-36783542D01*
X1578809Y-36793065D01*
X1588333Y-36812113D01*
X1588333Y-36869256D01*
X1578809Y-36888304D01*
X1569286Y-36897827D01*
X1550238Y-36907351D01*
X1512143Y-36907351D01*
X1493095Y-36897827D01*
X1674048Y-36888304D02*
X1683571Y-36897827D01*
X1674048Y-36907351D01*
X1664524Y-36897827D01*
X1674048Y-36888304D01*
X1674048Y-36907351D01*
X1674048Y-36783542D02*
X1683571Y-36793065D01*
X1674048Y-36802589D01*
X1664524Y-36793065D01*
X1674048Y-36783542D01*
X1674048Y-36802589D01*
M02*
