G04 #@! TF.GenerationSoftware,KiCad,Pcbnew,(6.0.1-0)*
G04 #@! TF.CreationDate,2022-07-20T07:33:23-07:00*
G04 #@! TF.ProjectId,plate,706c6174-652e-46b6-9963-61645f706362,rev?*
G04 #@! TF.SameCoordinates,Original*
G04 #@! TF.FileFunction,Profile,NP*
%FSLAX46Y46*%
G04 Gerber Fmt 4.6, Leading zero omitted, Abs format (unit mm)*
G04 Created by KiCad (PCBNEW (6.0.1-0)) date 2022-07-20 07:33:23*
%MOMM*%
%LPD*%
G01*
G04 APERTURE LIST*
G04 #@! TA.AperFunction,Profile*
%ADD10C,0.100000*%
G04 #@! TD*
G04 #@! TA.AperFunction,Profile*
%ADD11C,0.010007*%
G04 #@! TD*
G04 #@! TA.AperFunction,Profile*
%ADD12C,0.010000*%
G04 #@! TD*
G04 APERTURE END LIST*
D10*
X2087500Y-224631250D02*
X497975000Y-224631250D01*
X498768750Y-347662500D02*
G75*
G03*
X500356250Y-346075000I0J1587500D01*
G01*
X498768750Y-347662500D02*
X285750000Y-347662500D01*
X500000Y-346075000D02*
X500000Y-226218750D01*
X500000Y-346075000D02*
G75*
G03*
X2087500Y-347662500I1587500J0D01*
G01*
X500356250Y-227012500D02*
X500356250Y-346075000D01*
X184943750Y-365918750D02*
X200025000Y-365918750D01*
X2087500Y-347662500D02*
X100012500Y-347662500D01*
X2087500Y-224631250D02*
G75*
G03*
X500000Y-226218750I0J-1587500D01*
G01*
X285750000Y-347662500D02*
X200025000Y-365918750D01*
X500356250Y-227012500D02*
G75*
G03*
X497975000Y-224631250I-2381250J0D01*
G01*
X100012500Y-347662500D02*
X184943750Y-365918750D01*
D11*
X82134950Y-274487500D02*
X82134950Y-287478424D01*
X96134950Y-274487500D02*
X96134950Y-287487500D01*
X82634950Y-287978424D02*
X95634950Y-287987500D01*
X82634950Y-273987500D02*
X95634950Y-273987500D01*
X96134950Y-274487500D02*
G75*
G03*
X95634950Y-273987500I-500001J-1D01*
G01*
X82634950Y-273987500D02*
G75*
G03*
X82134950Y-274487500I1J-500001D01*
G01*
X95634950Y-287987500D02*
G75*
G03*
X96134950Y-287487500I-1J500001D01*
G01*
X82134950Y-287478424D02*
G75*
G03*
X82634950Y-287978424I500001J1D01*
G01*
X205688687Y-328563308D02*
X208391539Y-341279227D01*
X195288615Y-344566231D02*
X208006421Y-341872256D01*
X191994621Y-331474071D02*
X194695586Y-344181113D01*
X192379739Y-330881042D02*
X205095658Y-328178190D01*
X192379739Y-330881042D02*
G75*
G03*
X191994621Y-331474071I103956J-489074D01*
G01*
X194695585Y-344181113D02*
G75*
G03*
X195288615Y-344566231I489075J103957D01*
G01*
X205688687Y-328563308D02*
G75*
G03*
X205095658Y-328178190I-489074J-103956D01*
G01*
X208006421Y-341872256D02*
G75*
G03*
X208391539Y-341279227I-103956J489074D01*
G01*
X299131850Y-307028424D02*
X312131850Y-307037500D01*
X299131850Y-293037500D02*
X312131850Y-293037500D01*
X298631850Y-293537500D02*
X298631850Y-306528424D01*
X312631850Y-293537500D02*
X312631850Y-306537500D01*
X298631850Y-306528424D02*
G75*
G03*
X299131850Y-307028424I500001J1D01*
G01*
X312631850Y-293537500D02*
G75*
G03*
X312131850Y-293037500I-500001J-1D01*
G01*
X299131850Y-293037500D02*
G75*
G03*
X298631850Y-293537500I1J-500001D01*
G01*
X312131850Y-307037500D02*
G75*
G03*
X312631850Y-306537500I-1J500001D01*
G01*
X403868750Y-268928424D02*
X416868750Y-268937500D01*
X403868750Y-254937500D02*
X416868750Y-254937500D01*
X403368750Y-255437500D02*
X403368750Y-268428424D01*
X417368750Y-255437500D02*
X417368750Y-268437500D01*
X416868750Y-268937500D02*
G75*
G03*
X417368750Y-268437500I-1J500001D01*
G01*
X417368750Y-255437500D02*
G75*
G03*
X416868750Y-254937500I-500001J-1D01*
G01*
X403868750Y-254937500D02*
G75*
G03*
X403368750Y-255437500I1J-500001D01*
G01*
X403368750Y-268428424D02*
G75*
G03*
X403868750Y-268928424I500001J1D01*
G01*
X145390209Y-238429422D02*
X142687357Y-251145341D01*
X132289172Y-235133541D02*
X145005091Y-237836393D01*
X131696143Y-235518659D02*
X128995178Y-248225700D01*
X129380296Y-248818730D02*
X142094328Y-251530459D01*
X132289172Y-235133541D02*
G75*
G03*
X131696143Y-235518659I-103955J-489074D01*
G01*
X145390209Y-238429422D02*
G75*
G03*
X145005091Y-237836393I-489074J103955D01*
G01*
X128995178Y-248225700D02*
G75*
G03*
X129380296Y-248818730I489075J-103955D01*
G01*
X142094328Y-251530459D02*
G75*
G03*
X142687357Y-251145341I103955J489074D01*
G01*
X163746496Y-338887130D02*
X176460528Y-341598859D01*
X166062343Y-325587059D02*
X163361378Y-338294100D01*
X179756409Y-328497822D02*
X177053557Y-341213741D01*
X166655372Y-325201941D02*
X179371291Y-327904793D01*
X166655372Y-325201941D02*
G75*
G03*
X166062343Y-325587059I-103955J-489074D01*
G01*
X176460528Y-341598859D02*
G75*
G03*
X177053557Y-341213741I103955J489074D01*
G01*
X163361378Y-338294100D02*
G75*
G03*
X163746496Y-338887130I489075J-103955D01*
G01*
X179756409Y-328497822D02*
G75*
G03*
X179371291Y-327904793I-489074J103955D01*
G01*
X379268750Y-231625000D02*
X379268750Y-244625000D01*
X365268750Y-231625000D02*
X365268750Y-244615924D01*
X365768750Y-231125000D02*
X378768750Y-231125000D01*
X365768750Y-245115924D02*
X378768750Y-245125000D01*
X379268750Y-231625000D02*
G75*
G03*
X378768750Y-231125000I-500001J-1D01*
G01*
X365768750Y-231125000D02*
G75*
G03*
X365268750Y-231625000I1J-500001D01*
G01*
X378768750Y-245125000D02*
G75*
G03*
X379268750Y-244625000I-1J500001D01*
G01*
X365268750Y-244615924D02*
G75*
G03*
X365768750Y-245115924I500001J1D01*
G01*
X104835643Y-293125859D02*
X102134678Y-305832900D01*
X105428672Y-292740741D02*
X118144591Y-295443593D01*
X102519796Y-306425930D02*
X115233828Y-309137659D01*
X118529709Y-296036622D02*
X115826857Y-308752541D01*
X118529709Y-296036622D02*
G75*
G03*
X118144591Y-295443593I-489074J103955D01*
G01*
X105428672Y-292740741D02*
G75*
G03*
X104835643Y-293125859I-103955J-489074D01*
G01*
X115233828Y-309137659D02*
G75*
G03*
X115826857Y-308752541I103955J489074D01*
G01*
X102134678Y-305832900D02*
G75*
G03*
X102519796Y-306425930I489075J-103955D01*
G01*
X384818750Y-312087500D02*
X397818750Y-312087500D01*
X398318750Y-312587500D02*
X398318750Y-325587500D01*
X384318750Y-312587500D02*
X384318750Y-325578424D01*
X384818750Y-326078424D02*
X397818750Y-326087500D01*
X384818750Y-312087500D02*
G75*
G03*
X384318750Y-312587500I1J-500001D01*
G01*
X397818750Y-326087500D02*
G75*
G03*
X398318750Y-325587500I-1J500001D01*
G01*
X384318750Y-325578424D02*
G75*
G03*
X384818750Y-326078424I500001J1D01*
G01*
X398318750Y-312587500D02*
G75*
G03*
X397818750Y-312087500I-500001J-1D01*
G01*
X446231250Y-312587500D02*
X446231250Y-325578424D01*
X446731250Y-312087500D02*
X459731250Y-312087500D01*
X460231250Y-312587500D02*
X460231250Y-325587500D01*
X446731250Y-326078424D02*
X459731250Y-326087500D01*
X446231250Y-325578424D02*
G75*
G03*
X446731250Y-326078424I500001J1D01*
G01*
X460231250Y-312587500D02*
G75*
G03*
X459731250Y-312087500I-500001J-1D01*
G01*
X446731250Y-312087500D02*
G75*
G03*
X446231250Y-312587500I1J-500001D01*
G01*
X459731250Y-326087500D02*
G75*
G03*
X460231250Y-325587500I-1J500001D01*
G01*
X271199885Y-289481882D02*
X283917691Y-286787907D01*
X268291009Y-275796693D02*
X281006928Y-273093841D01*
X281599957Y-273478959D02*
X284302809Y-286194878D01*
X267905891Y-276389722D02*
X270606856Y-289096764D01*
X268291009Y-275796693D02*
G75*
G03*
X267905891Y-276389722I103956J-489074D01*
G01*
X283917691Y-286787907D02*
G75*
G03*
X284302809Y-286194878I-103956J489074D01*
G01*
X270606855Y-289096764D02*
G75*
G03*
X271199885Y-289481882I489075J103957D01*
G01*
X281599957Y-273478959D02*
G75*
G03*
X281006928Y-273093841I-489074J-103956D01*
G01*
X198754391Y-271614522D02*
X201455356Y-284321564D01*
X199139509Y-271021493D02*
X211855428Y-268318641D01*
X212448457Y-268703759D02*
X215151309Y-281419678D01*
X202048385Y-284706682D02*
X214766191Y-282012707D01*
X201455355Y-284321564D02*
G75*
G03*
X202048385Y-284706682I489075J103957D01*
G01*
X199139509Y-271021493D02*
G75*
G03*
X198754391Y-271614522I103956J-489074D01*
G01*
X214766191Y-282012707D02*
G75*
G03*
X215151309Y-281419678I-103956J489074D01*
G01*
X212448457Y-268703759D02*
G75*
G03*
X211855428Y-268318641I-489074J-103956D01*
G01*
X230644091Y-284301822D02*
X233345056Y-297008864D01*
X233938085Y-297393982D02*
X246655891Y-294700007D01*
X244338157Y-281391059D02*
X247041009Y-294106978D01*
X231029209Y-283708793D02*
X243745128Y-281005941D01*
X231029209Y-283708793D02*
G75*
G03*
X230644091Y-284301822I103956J-489074D01*
G01*
X246655891Y-294700007D02*
G75*
G03*
X247041009Y-294106978I-103956J489074D01*
G01*
X244338157Y-281391059D02*
G75*
G03*
X243745128Y-281005941I-489074J-103956D01*
G01*
X233345055Y-297008864D02*
G75*
G03*
X233938085Y-297393982I489075J103957D01*
G01*
X403868750Y-287978424D02*
X416868750Y-287987500D01*
X403368750Y-274487500D02*
X403368750Y-287478424D01*
X417368750Y-274487500D02*
X417368750Y-287487500D01*
X403868750Y-273987500D02*
X416868750Y-273987500D01*
X403868750Y-273987500D02*
G75*
G03*
X403368750Y-274487500I1J-500001D01*
G01*
X403368750Y-287478424D02*
G75*
G03*
X403868750Y-287978424I500001J1D01*
G01*
X416868750Y-287987500D02*
G75*
G03*
X417368750Y-287487500I-1J500001D01*
G01*
X417368750Y-274487500D02*
G75*
G03*
X416868750Y-273987500I-500001J-1D01*
G01*
X57793750Y-312087500D02*
X70793750Y-312087500D01*
X48887500Y-313587508D02*
X48887500Y-326587508D01*
X49387500Y-313087500D02*
X55387500Y-313087508D01*
X73200000Y-327087508D02*
X79200000Y-327087508D01*
X72700000Y-313587508D02*
X72700000Y-326587500D01*
X73200000Y-313087508D02*
X79200000Y-313087508D01*
X71293750Y-312587500D02*
X71293750Y-325587500D01*
X57293750Y-312587500D02*
X57293750Y-325587500D01*
X79700000Y-313587508D02*
X79700000Y-326587508D01*
X57793750Y-326087500D02*
X70793750Y-326087500D01*
X49387500Y-327087508D02*
X55387500Y-327087508D01*
X55887500Y-313587508D02*
X55887500Y-326587500D01*
X55387500Y-327087508D02*
G75*
G03*
X55887500Y-326587508I-1J500001D01*
G01*
X55887500Y-313587500D02*
G75*
G03*
X55387500Y-313087500I-500001J-1D01*
G01*
X72700000Y-326587508D02*
G75*
G03*
X73200000Y-327087508I500001J1D01*
G01*
X70793750Y-326087500D02*
G75*
G03*
X71293750Y-325587500I-1J500001D01*
G01*
X73200000Y-313087500D02*
G75*
G03*
X72700000Y-313587500I1J-500001D01*
G01*
X57793750Y-312087500D02*
G75*
G03*
X57293750Y-312587500I1J-500001D01*
G01*
X71293750Y-312587500D02*
G75*
G03*
X70793750Y-312087500I-500001J-1D01*
G01*
X79700000Y-313587500D02*
G75*
G03*
X79200000Y-313087500I-500001J-1D01*
G01*
X79200000Y-327087508D02*
G75*
G03*
X79700000Y-326587508I-1J500001D01*
G01*
X48887500Y-326587508D02*
G75*
G03*
X49387500Y-327087508I500001J1D01*
G01*
X57293750Y-325587500D02*
G75*
G03*
X57793750Y-326087500I500001J1D01*
G01*
X49387500Y-313087500D02*
G75*
G03*
X48887500Y-313587500I1J-500001D01*
G01*
X3025000Y-254937500D02*
X16025000Y-254937500D01*
X16525000Y-255437500D02*
X16525000Y-268437500D01*
X2525000Y-255437500D02*
X2525000Y-268428424D01*
X3025000Y-268928424D02*
X16025000Y-268937500D01*
X3025000Y-254937500D02*
G75*
G03*
X2525000Y-255437500I1J-500001D01*
G01*
X16525000Y-255437500D02*
G75*
G03*
X16025000Y-254937500I-500001J-1D01*
G01*
X2525000Y-268428424D02*
G75*
G03*
X3025000Y-268928424I500001J1D01*
G01*
X16025000Y-268937500D02*
G75*
G03*
X16525000Y-268437500I-1J500001D01*
G01*
X213922885Y-340612082D02*
X226640691Y-337918107D01*
X211014009Y-326926893D02*
X223729928Y-324224041D01*
X224322957Y-324609159D02*
X227025809Y-337325078D01*
X210628891Y-327519922D02*
X213329856Y-340226964D01*
X224322957Y-324609159D02*
G75*
G03*
X223729928Y-324224041I-489074J-103956D01*
G01*
X211014009Y-326926893D02*
G75*
G03*
X210628891Y-327519922I103956J-489074D01*
G01*
X226640691Y-337918107D02*
G75*
G03*
X227025809Y-337325078I-103956J489074D01*
G01*
X213329855Y-340226964D02*
G75*
G03*
X213922885Y-340612082I489075J103957D01*
G01*
X126471996Y-330975030D02*
X139186028Y-333686759D01*
X142481909Y-320585722D02*
X139779057Y-333301641D01*
X129380872Y-317289841D02*
X142096791Y-319992693D01*
X128787843Y-317674959D02*
X126086878Y-330382000D01*
X139186028Y-333686759D02*
G75*
G03*
X139779057Y-333301641I103955J489074D01*
G01*
X129380872Y-317289841D02*
G75*
G03*
X128787843Y-317674959I-103955J-489074D01*
G01*
X126086878Y-330382000D02*
G75*
G03*
X126471996Y-330975030I489075J-103955D01*
G01*
X142481909Y-320585722D02*
G75*
G03*
X142096791Y-319992693I-489074J103955D01*
G01*
X465781250Y-273987500D02*
X478781250Y-273987500D01*
X479281250Y-274487500D02*
X479281250Y-287487500D01*
X465781250Y-287978424D02*
X478781250Y-287987500D01*
X465281250Y-274487500D02*
X465281250Y-287478424D01*
X465281250Y-287478424D02*
G75*
G03*
X465781250Y-287978424I500001J1D01*
G01*
X465781250Y-273987500D02*
G75*
G03*
X465281250Y-274487500I1J-500001D01*
G01*
X479281250Y-274487500D02*
G75*
G03*
X478781250Y-273987500I-500001J-1D01*
G01*
X478781250Y-287987500D02*
G75*
G03*
X479281250Y-287487500I-1J500001D01*
G01*
X379268750Y-331637500D02*
X379268750Y-344637500D01*
X365768750Y-345128424D02*
X378768750Y-345137500D01*
X365268750Y-331637500D02*
X365268750Y-344628424D01*
X365768750Y-331137500D02*
X378768750Y-331137500D01*
X378768750Y-345137500D02*
G75*
G03*
X379268750Y-344637500I-1J500001D01*
G01*
X365768750Y-331137500D02*
G75*
G03*
X365268750Y-331637500I1J-500001D01*
G01*
X379268750Y-331637500D02*
G75*
G03*
X378768750Y-331137500I-500001J-1D01*
G01*
X365268750Y-344628424D02*
G75*
G03*
X365768750Y-345128424I500001J1D01*
G01*
X171264896Y-257746830D02*
X183978928Y-260458559D01*
X174173772Y-244061641D02*
X186889691Y-246764493D01*
X173580743Y-244446759D02*
X170879778Y-257153800D01*
X187274809Y-247357522D02*
X184571957Y-260073441D01*
X170879778Y-257153800D02*
G75*
G03*
X171264896Y-257746830I489075J-103955D01*
G01*
X174173772Y-244061641D02*
G75*
G03*
X173580743Y-244446759I-103955J-489074D01*
G01*
X183978928Y-260458559D02*
G75*
G03*
X184571957Y-260073441I103955J489074D01*
G01*
X187274809Y-247357522D02*
G75*
G03*
X186889691Y-246764493I-489074J103955D01*
G01*
X280228357Y-312709259D02*
X282931209Y-325425178D01*
X266534291Y-315620022D02*
X269235256Y-328327064D01*
X266919409Y-315026993D02*
X279635328Y-312324141D01*
X269828285Y-328712182D02*
X282546091Y-326018207D01*
X266919409Y-315026993D02*
G75*
G03*
X266534291Y-315620022I103956J-489074D01*
G01*
X269235255Y-328327064D02*
G75*
G03*
X269828285Y-328712182I489075J103957D01*
G01*
X280228357Y-312709259D02*
G75*
G03*
X279635328Y-312324141I-489074J-103956D01*
G01*
X282546091Y-326018207D02*
G75*
G03*
X282931209Y-325425178I-103956J489074D01*
G01*
X252568985Y-293431582D02*
X265286791Y-290737607D01*
X262969057Y-277428659D02*
X265671909Y-290144578D01*
X249660109Y-279746393D02*
X262376028Y-277043541D01*
X249274991Y-280339422D02*
X251975956Y-293046464D01*
X251975955Y-293046464D02*
G75*
G03*
X252568985Y-293431582I489075J103957D01*
G01*
X249660109Y-279746393D02*
G75*
G03*
X249274991Y-280339422I103956J-489074D01*
G01*
X265286791Y-290737607D02*
G75*
G03*
X265671909Y-290144578I-103956J489074D01*
G01*
X262969057Y-277428659D02*
G75*
G03*
X262376028Y-277043541I-489074J-103956D01*
G01*
X460231250Y-255437500D02*
X460231250Y-268437500D01*
X446731250Y-254937500D02*
X459731250Y-254937500D01*
X446231250Y-255437500D02*
X446231250Y-268428424D01*
X446731250Y-268928424D02*
X459731250Y-268937500D01*
X460231250Y-255437500D02*
G75*
G03*
X459731250Y-254937500I-500001J-1D01*
G01*
X446731250Y-254937500D02*
G75*
G03*
X446231250Y-255437500I1J-500001D01*
G01*
X459731250Y-268937500D02*
G75*
G03*
X460231250Y-268437500I-1J500001D01*
G01*
X446231250Y-268428424D02*
G75*
G03*
X446731250Y-268928424I500001J1D01*
G01*
X280043750Y-307028424D02*
X293043750Y-307037500D01*
X280043750Y-293037500D02*
X293043750Y-293037500D01*
X279543750Y-293537500D02*
X279543750Y-306528424D01*
X293543750Y-293537500D02*
X293543750Y-306537500D01*
X293043750Y-307037500D02*
G75*
G03*
X293543750Y-306537500I-1J500001D01*
G01*
X280043750Y-293037500D02*
G75*
G03*
X279543750Y-293537500I1J-500001D01*
G01*
X293543750Y-293537500D02*
G75*
G03*
X293043750Y-293037500I-500001J-1D01*
G01*
X279543750Y-306528424D02*
G75*
G03*
X280043750Y-307028424I500001J1D01*
G01*
X212156357Y-244434059D02*
X214859209Y-257149978D01*
X198847409Y-246751793D02*
X211563328Y-244048941D01*
X198462291Y-247344822D02*
X201163256Y-260051864D01*
X201756285Y-260436982D02*
X214474091Y-257743007D01*
X214474091Y-257743007D02*
G75*
G03*
X214859209Y-257149978I-103956J489074D01*
G01*
X212156357Y-244434059D02*
G75*
G03*
X211563328Y-244048941I-489074J-103956D01*
G01*
X198847409Y-246751793D02*
G75*
G03*
X198462291Y-247344822I103956J-489074D01*
G01*
X201163255Y-260051864D02*
G75*
G03*
X201756285Y-260436982I489075J103957D01*
G01*
X117831209Y-276402422D02*
X115128357Y-289118341D01*
X101821296Y-286791730D02*
X114535328Y-289503459D01*
X104730172Y-273106541D02*
X117446091Y-275809393D01*
X104137143Y-273491659D02*
X101436178Y-286198700D01*
X104730172Y-273106541D02*
G75*
G03*
X104137143Y-273491659I-103955J-489074D01*
G01*
X101436178Y-286198700D02*
G75*
G03*
X101821296Y-286791730I489075J-103955D01*
G01*
X117831209Y-276402422D02*
G75*
G03*
X117446091Y-275809393I-489074J103955D01*
G01*
X114535328Y-289503459D02*
G75*
G03*
X115128357Y-289118341I103955J489074D01*
G01*
X446231250Y-274487500D02*
X446231250Y-287478424D01*
X446731250Y-273987500D02*
X459731250Y-273987500D01*
X460231250Y-274487500D02*
X460231250Y-287487500D01*
X446731250Y-287978424D02*
X459731250Y-287987500D01*
X460231250Y-274487500D02*
G75*
G03*
X459731250Y-273987500I-500001J-1D01*
G01*
X446731250Y-273987500D02*
G75*
G03*
X446231250Y-274487500I1J-500001D01*
G01*
X446231250Y-287478424D02*
G75*
G03*
X446731250Y-287978424I500001J1D01*
G01*
X459731250Y-287987500D02*
G75*
G03*
X460231250Y-287487500I-1J500001D01*
G01*
X136462109Y-280364822D02*
X133759257Y-293080741D01*
X120452196Y-290754130D02*
X133166228Y-293465859D01*
X123361072Y-277068941D02*
X136076991Y-279771793D01*
X122768043Y-277454059D02*
X120067078Y-290161100D01*
X136462109Y-280364822D02*
G75*
G03*
X136076991Y-279771793I-489074J103955D01*
G01*
X123361072Y-277068941D02*
G75*
G03*
X122768043Y-277454059I-103955J-489074D01*
G01*
X120067078Y-290161100D02*
G75*
G03*
X120452196Y-290754130I489075J-103955D01*
G01*
X133166228Y-293465859D02*
G75*
G03*
X133759257Y-293080741I103955J489074D01*
G01*
X231092057Y-264754059D02*
X233794909Y-277469978D01*
X217397991Y-267664822D02*
X220098956Y-280371864D01*
X220691985Y-280756982D02*
X233409791Y-278063007D01*
X217783109Y-267071793D02*
X230499028Y-264368941D01*
X231092057Y-264754059D02*
G75*
G03*
X230499028Y-264368941I-489074J-103956D01*
G01*
X233409791Y-278063007D02*
G75*
G03*
X233794909Y-277469978I-103956J489074D01*
G01*
X217783109Y-267071793D02*
G75*
G03*
X217397991Y-267664822I103956J-489074D01*
G01*
X220098955Y-280371864D02*
G75*
G03*
X220691985Y-280756982I489075J103957D01*
G01*
X110169643Y-313725259D02*
X107468678Y-326432300D01*
X123863709Y-316636022D02*
X121160857Y-329351941D01*
X110762672Y-313340141D02*
X123478591Y-316042993D01*
X107853796Y-327025330D02*
X120567828Y-329737059D01*
X123863709Y-316636022D02*
G75*
G03*
X123478591Y-316042993I-489074J103955D01*
G01*
X120567828Y-329737059D02*
G75*
G03*
X121160857Y-329351941I103955J489074D01*
G01*
X110762672Y-313340141D02*
G75*
G03*
X110169643Y-313725259I-103955J-489074D01*
G01*
X107468678Y-326432300D02*
G75*
G03*
X107853796Y-327025330I489075J-103955D01*
G01*
X365768750Y-287978424D02*
X378768750Y-287987500D01*
X365768750Y-273987500D02*
X378768750Y-273987500D01*
X365268750Y-274487500D02*
X365268750Y-287478424D01*
X379268750Y-274487500D02*
X379268750Y-287487500D01*
X378768750Y-287987500D02*
G75*
G03*
X379268750Y-287487500I-1J500001D01*
G01*
X379268750Y-274487500D02*
G75*
G03*
X378768750Y-273987500I-500001J-1D01*
G01*
X365268750Y-287478424D02*
G75*
G03*
X365768750Y-287978424I500001J1D01*
G01*
X365768750Y-273987500D02*
G75*
G03*
X365268750Y-274487500I1J-500001D01*
G01*
X22075000Y-287978424D02*
X35075000Y-287987500D01*
X35575000Y-274487500D02*
X35575000Y-287487500D01*
X21575000Y-274487500D02*
X21575000Y-287478424D01*
X22075000Y-273987500D02*
X35075000Y-273987500D01*
X21575000Y-287478424D02*
G75*
G03*
X22075000Y-287978424I500001J1D01*
G01*
X22075000Y-273987500D02*
G75*
G03*
X21575000Y-274487500I1J-500001D01*
G01*
X35075000Y-287987500D02*
G75*
G03*
X35575000Y-287487500I-1J500001D01*
G01*
X35575000Y-274487500D02*
G75*
G03*
X35075000Y-273987500I-500001J-1D01*
G01*
X479281250Y-231625000D02*
X479281250Y-244625000D01*
X465781250Y-245115924D02*
X478781250Y-245125000D01*
X465281250Y-231625000D02*
X465281250Y-244615924D01*
X465781250Y-231125000D02*
X478781250Y-231125000D01*
X465281250Y-244615924D02*
G75*
G03*
X465781250Y-245115924I500001J1D01*
G01*
X465781250Y-231125000D02*
G75*
G03*
X465281250Y-231625000I1J-500001D01*
G01*
X478781250Y-245125000D02*
G75*
G03*
X479281250Y-244625000I-1J500001D01*
G01*
X479281250Y-231625000D02*
G75*
G03*
X478781250Y-231125000I-500001J-1D01*
G01*
X384318750Y-231625000D02*
X384318750Y-244615924D01*
X384818750Y-245115924D02*
X397818750Y-245125000D01*
X398318750Y-231625000D02*
X398318750Y-244625000D01*
X384818750Y-231125000D02*
X397818750Y-231125000D01*
X384318750Y-244615924D02*
G75*
G03*
X384818750Y-245115924I500001J1D01*
G01*
X397818750Y-245125000D02*
G75*
G03*
X398318750Y-244625000I-1J500001D01*
G01*
X384818750Y-231125000D02*
G75*
G03*
X384318750Y-231625000I1J-500001D01*
G01*
X398318750Y-231625000D02*
G75*
G03*
X397818750Y-231125000I-500001J-1D01*
G01*
X308639450Y-274487500D02*
X308639450Y-287478424D01*
X322639450Y-274487500D02*
X322639450Y-287487500D01*
X309139450Y-273987500D02*
X322139450Y-273987500D01*
X309139450Y-287978424D02*
X322139450Y-287987500D01*
X308639450Y-287478424D02*
G75*
G03*
X309139450Y-287978424I500001J1D01*
G01*
X322639450Y-274487500D02*
G75*
G03*
X322139450Y-273987500I-500001J-1D01*
G01*
X309139450Y-273987500D02*
G75*
G03*
X308639450Y-274487500I1J-500001D01*
G01*
X322139450Y-287987500D02*
G75*
G03*
X322639450Y-287487500I-1J500001D01*
G01*
X173723909Y-288251522D02*
X171021057Y-300967441D01*
X160029843Y-285340759D02*
X157328878Y-298047800D01*
X160622872Y-284955641D02*
X173338791Y-287658493D01*
X157713996Y-298640830D02*
X170428028Y-301352559D01*
X160622872Y-284955641D02*
G75*
G03*
X160029843Y-285340759I-103955J-489074D01*
G01*
X157328878Y-298047800D02*
G75*
G03*
X157713996Y-298640830I489075J-103955D01*
G01*
X173723909Y-288251522D02*
G75*
G03*
X173338791Y-287658493I-489074J103955D01*
G01*
X170428028Y-301352559D02*
G75*
G03*
X171021057Y-300967441I103955J489074D01*
G01*
X35575000Y-293537500D02*
X35575000Y-306537500D01*
X22075000Y-307028424D02*
X35075000Y-307037500D01*
X21575000Y-293537500D02*
X21575000Y-306528424D01*
X22075000Y-293037500D02*
X35075000Y-293037500D01*
X35575000Y-293537500D02*
G75*
G03*
X35075000Y-293037500I-500001J-1D01*
G01*
X35075000Y-307037500D02*
G75*
G03*
X35575000Y-306537500I-1J500001D01*
G01*
X22075000Y-293037500D02*
G75*
G03*
X21575000Y-293537500I1J-500001D01*
G01*
X21575000Y-306528424D02*
G75*
G03*
X22075000Y-307028424I500001J1D01*
G01*
X484831250Y-231125000D02*
X497831250Y-231125000D01*
X498331250Y-231625000D02*
X498331250Y-244625000D01*
X484831250Y-245115924D02*
X497831250Y-245125000D01*
X484331250Y-231625000D02*
X484331250Y-244615924D01*
X484331250Y-244615924D02*
G75*
G03*
X484831250Y-245115924I500001J1D01*
G01*
X498331250Y-231625000D02*
G75*
G03*
X497831250Y-231125000I-500001J-1D01*
G01*
X497831250Y-245125000D02*
G75*
G03*
X498331250Y-244625000I-1J500001D01*
G01*
X484831250Y-231125000D02*
G75*
G03*
X484331250Y-231625000I1J-500001D01*
G01*
X77280218Y-268928424D02*
X90280218Y-268937500D01*
X77280218Y-254937500D02*
X90280218Y-254937500D01*
X76780218Y-255437500D02*
X76780218Y-268428424D01*
X90780218Y-255437500D02*
X90780218Y-268437500D01*
X90780218Y-255437500D02*
G75*
G03*
X90280218Y-254937500I-500001J-1D01*
G01*
X77280218Y-254937500D02*
G75*
G03*
X76780218Y-255437500I1J-500001D01*
G01*
X76780218Y-268428424D02*
G75*
G03*
X77280218Y-268928424I500001J1D01*
G01*
X90280218Y-268937500D02*
G75*
G03*
X90780218Y-268437500I-1J500001D01*
G01*
X58322450Y-274474800D02*
X58322450Y-287465724D01*
X58822450Y-287965724D02*
X71822450Y-287974800D01*
X58822450Y-273974800D02*
X71822450Y-273974800D01*
X72322450Y-274474800D02*
X72322450Y-287474800D01*
X58322450Y-287465724D02*
G75*
G03*
X58822450Y-287965724I500001J1D01*
G01*
X72322450Y-274474800D02*
G75*
G03*
X71822450Y-273974800I-500001J-1D01*
G01*
X71822450Y-287974800D02*
G75*
G03*
X72322450Y-287474800I-1J500001D01*
G01*
X58822450Y-273974800D02*
G75*
G03*
X58322450Y-274474800I1J-500001D01*
G01*
X35575000Y-312587500D02*
X35575000Y-325587500D01*
X21575000Y-312587500D02*
X21575000Y-325578424D01*
X22075000Y-326078424D02*
X35075000Y-326087500D01*
X22075000Y-312087500D02*
X35075000Y-312087500D01*
X21575000Y-325578424D02*
G75*
G03*
X22075000Y-326078424I500001J1D01*
G01*
X35575000Y-312587500D02*
G75*
G03*
X35075000Y-312087500I-500001J-1D01*
G01*
X22075000Y-312087500D02*
G75*
G03*
X21575000Y-312587500I1J-500001D01*
G01*
X35075000Y-326087500D02*
G75*
G03*
X35575000Y-325587500I-1J500001D01*
G01*
X220387185Y-256474582D02*
X233104991Y-253780607D01*
X217093191Y-243382422D02*
X219794156Y-256089464D01*
X230787257Y-240471659D02*
X233490109Y-253187578D01*
X217478309Y-242789393D02*
X230194228Y-240086541D01*
X217478309Y-242789393D02*
G75*
G03*
X217093191Y-243382422I103956J-489074D01*
G01*
X233104991Y-253780607D02*
G75*
G03*
X233490109Y-253187578I-103956J489074D01*
G01*
X230787257Y-240471659D02*
G75*
G03*
X230194228Y-240086541I-489074J-103956D01*
G01*
X219794155Y-256089464D02*
G75*
G03*
X220387185Y-256474582I489075J103957D01*
G01*
X91131250Y-229537500D02*
X104131250Y-229537500D01*
X90631250Y-230037500D02*
X90631250Y-243028424D01*
X91131250Y-243528424D02*
X104131250Y-243537500D01*
X104631250Y-230037500D02*
X104631250Y-243037500D01*
X104131250Y-243537500D02*
G75*
G03*
X104631250Y-243037500I-1J500001D01*
G01*
X90631250Y-243028424D02*
G75*
G03*
X91131250Y-243528424I500001J1D01*
G01*
X104631250Y-230037500D02*
G75*
G03*
X104131250Y-229537500I-500001J-1D01*
G01*
X91131250Y-229537500D02*
G75*
G03*
X90631250Y-230037500I1J-500001D01*
G01*
X173932472Y-268318641D02*
X186648391Y-271021493D01*
X171023596Y-282003830D02*
X183737628Y-284715559D01*
X187033509Y-271614522D02*
X184330657Y-284330441D01*
X173339443Y-268703759D02*
X170638478Y-281410800D01*
X173932472Y-268318641D02*
G75*
G03*
X173339443Y-268703759I-103955J-489074D01*
G01*
X183737628Y-284715559D02*
G75*
G03*
X184330657Y-284330441I103955J489074D01*
G01*
X187033509Y-271614522D02*
G75*
G03*
X186648391Y-271021493I-489074J103955D01*
G01*
X170638478Y-281410800D02*
G75*
G03*
X171023596Y-282003830I489075J-103955D01*
G01*
X446731250Y-231125000D02*
X459731250Y-231125000D01*
X446731250Y-245115924D02*
X459731250Y-245125000D01*
X446231250Y-231625000D02*
X446231250Y-244615924D01*
X460231250Y-231625000D02*
X460231250Y-244625000D01*
X459731250Y-245125000D02*
G75*
G03*
X460231250Y-244625000I-1J500001D01*
G01*
X446731250Y-231125000D02*
G75*
G03*
X446231250Y-231625000I1J-500001D01*
G01*
X460231250Y-231625000D02*
G75*
G03*
X459731250Y-231125000I-500001J-1D01*
G01*
X446231250Y-244615924D02*
G75*
G03*
X446731250Y-245115924I500001J1D01*
G01*
X239297485Y-276781882D02*
X252015291Y-274087907D01*
X236388609Y-263096693D02*
X249104528Y-260393841D01*
X236003491Y-263689722D02*
X238704456Y-276396764D01*
X249697557Y-260778959D02*
X252400409Y-273494878D01*
X236388609Y-263096693D02*
G75*
G03*
X236003491Y-263689722I103956J-489074D01*
G01*
X249697557Y-260778959D02*
G75*
G03*
X249104528Y-260393841I-489074J-103956D01*
G01*
X252015291Y-274087907D02*
G75*
G03*
X252400409Y-273494878I-103956J489074D01*
G01*
X238704455Y-276396764D02*
G75*
G03*
X239297485Y-276781882I489075J103957D01*
G01*
X398318750Y-331637500D02*
X398318750Y-344637500D01*
X384818750Y-345128424D02*
X397818750Y-345137500D01*
X384318750Y-331637500D02*
X384318750Y-344628424D01*
X384818750Y-331137500D02*
X397818750Y-331137500D01*
X398318750Y-331637500D02*
G75*
G03*
X397818750Y-331137500I-500001J-1D01*
G01*
X384818750Y-331137500D02*
G75*
G03*
X384318750Y-331637500I1J-500001D01*
G01*
X384318750Y-344628424D02*
G75*
G03*
X384818750Y-345128424I500001J1D01*
G01*
X397818750Y-345137500D02*
G75*
G03*
X398318750Y-344637500I-1J500001D01*
G01*
X171434443Y-346211859D02*
X168733478Y-358918900D01*
X169118596Y-359511930D02*
X181832628Y-362223659D01*
X172027472Y-345826741D02*
X184743391Y-348529593D01*
X185128509Y-349122622D02*
X182425657Y-361838541D01*
X181832628Y-362223659D02*
G75*
G03*
X182425657Y-361838541I103955J489074D01*
G01*
X172027472Y-345826741D02*
G75*
G03*
X171434443Y-346211859I-103955J-489074D01*
G01*
X185128509Y-349122622D02*
G75*
G03*
X184743391Y-348529593I-489074J103955D01*
G01*
X168733478Y-358918900D02*
G75*
G03*
X169118596Y-359511930I489075J-103955D01*
G01*
X115105496Y-270129330D02*
X127819528Y-272841059D01*
X131115409Y-259740022D02*
X128412557Y-272455941D01*
X118014372Y-256444141D02*
X130730291Y-259146993D01*
X117421343Y-256829259D02*
X114720378Y-269536300D01*
X131115409Y-259740022D02*
G75*
G03*
X130730291Y-259146993I-489074J103955D01*
G01*
X114720378Y-269536300D02*
G75*
G03*
X115105496Y-270129330I489075J-103955D01*
G01*
X118014372Y-256444141D02*
G75*
G03*
X117421343Y-256829259I-103955J-489074D01*
G01*
X127819528Y-272841059D02*
G75*
G03*
X128412557Y-272455941I103955J489074D01*
G01*
X212411009Y-287658493D02*
X225126928Y-284955641D01*
X212025891Y-288251522D02*
X214726856Y-300958564D01*
X215319885Y-301343682D02*
X228037691Y-298649707D01*
X225719957Y-285340759D02*
X228422809Y-298056678D01*
X228037691Y-298649707D02*
G75*
G03*
X228422809Y-298056678I-103956J489074D01*
G01*
X225719957Y-285340759D02*
G75*
G03*
X225126928Y-284955641I-489074J-103956D01*
G01*
X212411009Y-287658493D02*
G75*
G03*
X212025891Y-288251522I103956J-489074D01*
G01*
X214726855Y-300958564D02*
G75*
G03*
X215319885Y-301343682I489075J103957D01*
G01*
X427181250Y-312587500D02*
X427181250Y-325578424D01*
X427681250Y-312087500D02*
X440681250Y-312087500D01*
X427681250Y-326078424D02*
X440681250Y-326087500D01*
X441181250Y-312587500D02*
X441181250Y-325587500D01*
X441181250Y-312587500D02*
G75*
G03*
X440681250Y-312087500I-500001J-1D01*
G01*
X427181250Y-325578424D02*
G75*
G03*
X427681250Y-326078424I500001J1D01*
G01*
X427681250Y-312087500D02*
G75*
G03*
X427181250Y-312587500I1J-500001D01*
G01*
X440681250Y-326087500D02*
G75*
G03*
X441181250Y-325587500I-1J500001D01*
G01*
X441181250Y-231625000D02*
X441181250Y-244625000D01*
X427681250Y-231125000D02*
X440681250Y-231125000D01*
X427181250Y-231625000D02*
X427181250Y-244615924D01*
X427681250Y-245115924D02*
X440681250Y-245125000D01*
X441181250Y-231625000D02*
G75*
G03*
X440681250Y-231125000I-500001J-1D01*
G01*
X440681250Y-245125000D02*
G75*
G03*
X441181250Y-244625000I-1J500001D01*
G01*
X427681250Y-231125000D02*
G75*
G03*
X427181250Y-231625000I1J-500001D01*
G01*
X427181250Y-244615924D02*
G75*
G03*
X427681250Y-245115924I500001J1D01*
G01*
X254066357Y-235518659D02*
X256769209Y-248234578D01*
X240372291Y-238429422D02*
X243073256Y-251136464D01*
X243666285Y-251521582D02*
X256384091Y-248827607D01*
X240757409Y-237836393D02*
X253473328Y-235133541D01*
X240757409Y-237836393D02*
G75*
G03*
X240372291Y-238429422I103956J-489074D01*
G01*
X243073255Y-251136464D02*
G75*
G03*
X243666285Y-251521582I489075J103957D01*
G01*
X254066357Y-235518659D02*
G75*
G03*
X253473328Y-235133541I-489074J-103956D01*
G01*
X256384091Y-248827607D02*
G75*
G03*
X256769209Y-248234578I-103956J489074D01*
G01*
X57725550Y-255437500D02*
X57725550Y-268428424D01*
X58225550Y-254937500D02*
X71225550Y-254937500D01*
X58225550Y-268928424D02*
X71225550Y-268937500D01*
X71725550Y-255437500D02*
X71725550Y-268437500D01*
X71225550Y-268937500D02*
G75*
G03*
X71725550Y-268437500I-1J500001D01*
G01*
X58225550Y-254937500D02*
G75*
G03*
X57725550Y-255437500I1J-500001D01*
G01*
X71725550Y-255437500D02*
G75*
G03*
X71225550Y-254937500I-500001J-1D01*
G01*
X57725550Y-268428424D02*
G75*
G03*
X58225550Y-268928424I500001J1D01*
G01*
X479281250Y-255437500D02*
X479281250Y-268437500D01*
X465281250Y-255437500D02*
X465281250Y-268428424D01*
X465781250Y-254937500D02*
X478781250Y-254937500D01*
X465781250Y-268928424D02*
X478781250Y-268937500D01*
X478781250Y-268937500D02*
G75*
G03*
X479281250Y-268437500I-1J500001D01*
G01*
X465281250Y-268428424D02*
G75*
G03*
X465781250Y-268928424I500001J1D01*
G01*
X479281250Y-255437500D02*
G75*
G03*
X478781250Y-254937500I-500001J-1D01*
G01*
X465781250Y-254937500D02*
G75*
G03*
X465281250Y-255437500I1J-500001D01*
G01*
X154962543Y-240484359D02*
X152261578Y-253191400D01*
X168656609Y-243395122D02*
X165953757Y-256111041D01*
X155555572Y-240099241D02*
X168271491Y-242802093D01*
X152646696Y-253784430D02*
X165360728Y-256496159D01*
X168656609Y-243395122D02*
G75*
G03*
X168271491Y-242802093I-489074J103955D01*
G01*
X155555572Y-240099241D02*
G75*
G03*
X154962543Y-240484359I-103955J-489074D01*
G01*
X152261578Y-253191400D02*
G75*
G03*
X152646696Y-253784430I489075J-103955D01*
G01*
X165360728Y-256496159D02*
G75*
G03*
X165953757Y-256111041I103955J489074D01*
G01*
X259388309Y-233873993D02*
X272104228Y-231171141D01*
X262297185Y-247559182D02*
X275014991Y-244865207D01*
X259003191Y-234467022D02*
X261704156Y-247174064D01*
X272697257Y-231556259D02*
X275400109Y-244272178D01*
X275014991Y-244865207D02*
G75*
G03*
X275400109Y-244272178I-103956J489074D01*
G01*
X272697257Y-231556259D02*
G75*
G03*
X272104228Y-231171141I-489074J-103956D01*
G01*
X259388309Y-233873993D02*
G75*
G03*
X259003191Y-234467022I103956J-489074D01*
G01*
X261704155Y-247174064D02*
G75*
G03*
X262297185Y-247559182I489075J103957D01*
G01*
X271579657Y-295068959D02*
X274282509Y-307784878D01*
X258270709Y-297386693D02*
X270986628Y-294683841D01*
X257885591Y-297979722D02*
X260586556Y-310686764D01*
X261179585Y-311071882D02*
X273897391Y-308377907D01*
X273897391Y-308377907D02*
G75*
G03*
X274282509Y-307784878I-103956J489074D01*
G01*
X271579657Y-295068959D02*
G75*
G03*
X270986628Y-294683841I-489074J-103956D01*
G01*
X260586555Y-310686764D02*
G75*
G03*
X261179585Y-311071882I489075J103957D01*
G01*
X258270709Y-297386693D02*
G75*
G03*
X257885591Y-297979722I103956J-489074D01*
G01*
D12*
X484331250Y-320206250D02*
X483831242Y-320206250D01*
D11*
X483331242Y-313706250D02*
X483331242Y-319706250D01*
D12*
X484331250Y-337018750D02*
X484331250Y-320206250D01*
D11*
X483331242Y-337518750D02*
X483331242Y-343518750D01*
D12*
X497831250Y-312087500D02*
X484840326Y-312087500D01*
X484331250Y-337018750D02*
X483831242Y-337018750D01*
X498331250Y-312587500D02*
X498331250Y-344637500D01*
X484331250Y-344637500D02*
X484331250Y-344018750D01*
X497831250Y-345137500D02*
X484831250Y-345137500D01*
X484331250Y-313206250D02*
X483831242Y-313206250D01*
X484331250Y-313206250D02*
X484331250Y-312587500D01*
X484331250Y-344018750D02*
X483831242Y-344018750D01*
D11*
X483831242Y-313206250D02*
G75*
G03*
X483331242Y-313706250I1J-500001D01*
G01*
X483831242Y-337018750D02*
G75*
G03*
X483331242Y-337518750I1J-500001D01*
G01*
X498331250Y-312587500D02*
G75*
G03*
X497831250Y-312087500I-500001J-1D01*
G01*
X484331250Y-344637500D02*
G75*
G03*
X484831250Y-345137500I500001J1D01*
G01*
X483331242Y-343518750D02*
G75*
G03*
X483831242Y-344018750I500001J1D01*
G01*
X483331242Y-319706250D02*
G75*
G03*
X483831242Y-320206250I500001J1D01*
G01*
X484840326Y-312087500D02*
G75*
G03*
X484331250Y-312587500I-4535J-504541D01*
G01*
X497831250Y-345137500D02*
G75*
G03*
X498331250Y-344637500I-1J500001D01*
G01*
X384318750Y-255437500D02*
X384318750Y-268428424D01*
X398318750Y-255437500D02*
X398318750Y-268437500D01*
X384818750Y-254937500D02*
X397818750Y-254937500D01*
X384818750Y-268928424D02*
X397818750Y-268937500D01*
X384818750Y-254937500D02*
G75*
G03*
X384318750Y-255437500I1J-500001D01*
G01*
X384318750Y-268428424D02*
G75*
G03*
X384818750Y-268928424I500001J1D01*
G01*
X397818750Y-268937500D02*
G75*
G03*
X398318750Y-268437500I-1J500001D01*
G01*
X398318750Y-255437500D02*
G75*
G03*
X397818750Y-254937500I-500001J-1D01*
G01*
X82693750Y-293537500D02*
X82693750Y-306528424D01*
X96693750Y-293537500D02*
X96693750Y-306537500D01*
X83193750Y-307028424D02*
X96193750Y-307037500D01*
X83193750Y-293037500D02*
X96193750Y-293037500D01*
X96693750Y-293537500D02*
G75*
G03*
X96193750Y-293037500I-500001J-1D01*
G01*
X82693750Y-306528424D02*
G75*
G03*
X83193750Y-307028424I500001J1D01*
G01*
X83193750Y-293037500D02*
G75*
G03*
X82693750Y-293537500I1J-500001D01*
G01*
X96193750Y-307037500D02*
G75*
G03*
X96693750Y-306537500I-1J500001D01*
G01*
X261174891Y-336232122D02*
X263875856Y-348939164D01*
X261560009Y-335639093D02*
X274275928Y-332936241D01*
X264468885Y-349324282D02*
X277186691Y-346630307D01*
X274868957Y-333321359D02*
X277571809Y-346037278D01*
X261560009Y-335639092D02*
G75*
G03*
X261174891Y-336232122I103957J-489075D01*
G01*
X277186691Y-346630308D02*
G75*
G03*
X277571809Y-346037278I-103957J489075D01*
G01*
X263875855Y-348939164D02*
G75*
G03*
X264468885Y-349324282I489075J103957D01*
G01*
X274868958Y-333321359D02*
G75*
G03*
X274275928Y-332936241I-489075J-103957D01*
G01*
X168389909Y-267677522D02*
X165687057Y-280393441D01*
X154695843Y-264766759D02*
X151994878Y-277473800D01*
X155288872Y-264381641D02*
X168004791Y-267084493D01*
X152379996Y-278066830D02*
X165094028Y-280778559D01*
X151994878Y-277473800D02*
G75*
G03*
X152379996Y-278066830I489075J-103955D01*
G01*
X165094028Y-280778559D02*
G75*
G03*
X165687057Y-280393441I103955J489074D01*
G01*
X155288872Y-264381641D02*
G75*
G03*
X154695843Y-264766759I-103955J-489074D01*
G01*
X168389909Y-267677522D02*
G75*
G03*
X168004791Y-267084493I-489074J103955D01*
G01*
X314028850Y-230037500D02*
X314028850Y-243037500D01*
X300028850Y-230037500D02*
X300028850Y-243028424D01*
X300528850Y-229537500D02*
X313528850Y-229537500D01*
X300528850Y-243528424D02*
X313528850Y-243537500D01*
X300528850Y-229537500D02*
G75*
G03*
X300028850Y-230037500I1J-500001D01*
G01*
X314028850Y-230037500D02*
G75*
G03*
X313528850Y-229537500I-500001J-1D01*
G01*
X313528850Y-243537500D02*
G75*
G03*
X314028850Y-243037500I-1J500001D01*
G01*
X300028850Y-243028424D02*
G75*
G03*
X300528850Y-243528424I500001J1D01*
G01*
X247890691Y-319582422D02*
X250591656Y-332289464D01*
X261584757Y-316671659D02*
X264287609Y-329387578D01*
X251184685Y-332674582D02*
X263902491Y-329980607D01*
X248275809Y-318989393D02*
X260991728Y-316286541D01*
X248275809Y-318989393D02*
G75*
G03*
X247890691Y-319582422I103956J-489074D01*
G01*
X250591655Y-332289464D02*
G75*
G03*
X251184685Y-332674582I489075J103957D01*
G01*
X263902491Y-329980607D02*
G75*
G03*
X264287609Y-329387578I-103956J489074D01*
G01*
X261584757Y-316671659D02*
G75*
G03*
X260991728Y-316286541I-489074J-103956D01*
G01*
X332451950Y-274487500D02*
X332451950Y-287478424D01*
X332951950Y-287978424D02*
X345951950Y-287987500D01*
X332951950Y-273987500D02*
X345951950Y-273987500D01*
X346451950Y-274487500D02*
X346451950Y-287487500D01*
X332951950Y-273987500D02*
G75*
G03*
X332451950Y-274487500I1J-500001D01*
G01*
X346451950Y-274487500D02*
G75*
G03*
X345951950Y-273987500I-500001J-1D01*
G01*
X332451950Y-287478424D02*
G75*
G03*
X332951950Y-287978424I500001J1D01*
G01*
X345951950Y-287987500D02*
G75*
G03*
X346451950Y-287487500I-1J500001D01*
G01*
X141979272Y-281044041D02*
X154695191Y-283746893D01*
X155080309Y-284339922D02*
X152377457Y-297055841D01*
X139070396Y-294729230D02*
X151784428Y-297440959D01*
X141386243Y-281429159D02*
X138685278Y-294136200D01*
X138685278Y-294136200D02*
G75*
G03*
X139070396Y-294729230I489075J-103955D01*
G01*
X155080309Y-284339922D02*
G75*
G03*
X154695191Y-283746893I-489074J103955D01*
G01*
X141979272Y-281044041D02*
G75*
G03*
X141386243Y-281429159I-103955J-489074D01*
G01*
X151784428Y-297440959D02*
G75*
G03*
X152377457Y-297055841I103955J489074D01*
G01*
X193407691Y-292226622D02*
X196108656Y-304933664D01*
X193792809Y-291633593D02*
X206508728Y-288930741D01*
X196701685Y-305318782D02*
X209419491Y-302624807D01*
X207101757Y-289315859D02*
X209804609Y-302031778D01*
X196108655Y-304933664D02*
G75*
G03*
X196701685Y-305318782I489075J103957D01*
G01*
X207101757Y-289315859D02*
G75*
G03*
X206508728Y-288930741I-489074J-103956D01*
G01*
X209419491Y-302624807D02*
G75*
G03*
X209804609Y-302031778I-103956J489074D01*
G01*
X193792809Y-291633593D02*
G75*
G03*
X193407691Y-292226622I103956J-489074D01*
G01*
X2525000Y-312587500D02*
X2525000Y-325578424D01*
X3025000Y-312087500D02*
X16025000Y-312087500D01*
X16525000Y-312587500D02*
X16525000Y-325587500D01*
X3025000Y-326078424D02*
X16025000Y-326087500D01*
X16525000Y-312587500D02*
G75*
G03*
X16025000Y-312087500I-500001J-1D01*
G01*
X3025000Y-312087500D02*
G75*
G03*
X2525000Y-312587500I1J-500001D01*
G01*
X2525000Y-325578424D02*
G75*
G03*
X3025000Y-326078424I500001J1D01*
G01*
X16025000Y-326087500D02*
G75*
G03*
X16525000Y-325587500I-1J500001D01*
G01*
X213158526Y-345409132D02*
X215861378Y-358125051D01*
X236450666Y-340458235D02*
X239153518Y-353174154D01*
X213543644Y-344816103D02*
X219412529Y-343568633D01*
X239746547Y-353559272D02*
X245615433Y-352311802D01*
X216454407Y-358510169D02*
X222323293Y-357262699D01*
X220005559Y-343953751D02*
X222708411Y-356669669D01*
X224884872Y-357740559D02*
X237600791Y-355037707D01*
X236835784Y-339865206D02*
X242704669Y-338617736D01*
X235283057Y-341728759D02*
X237985909Y-354444678D01*
X221588991Y-344639522D02*
X224291843Y-357355441D01*
X221974109Y-344046493D02*
X234690028Y-341343641D01*
X243297699Y-339002854D02*
X246000551Y-351718772D01*
X221974109Y-344046492D02*
G75*
G03*
X221588991Y-344639522I103957J-489075D01*
G01*
X239153517Y-353174154D02*
G75*
G03*
X239746547Y-353559272I489075J103957D01*
G01*
X243297699Y-339002854D02*
G75*
G03*
X242704669Y-338617736I-489075J-103957D01*
G01*
X224291842Y-357355441D02*
G75*
G03*
X224884872Y-357740559I489075J103957D01*
G01*
X213543644Y-344816102D02*
G75*
G03*
X213158526Y-345409132I103957J-489075D01*
G01*
X236835784Y-339865205D02*
G75*
G03*
X236450666Y-340458235I103957J-489075D01*
G01*
X235283058Y-341728759D02*
G75*
G03*
X234690028Y-341343641I-489075J-103957D01*
G01*
X215861377Y-358125051D02*
G75*
G03*
X216454407Y-358510169I489075J103957D01*
G01*
X237600791Y-355037708D02*
G75*
G03*
X237985909Y-354444678I-103957J489075D01*
G01*
X222323293Y-357262700D02*
G75*
G03*
X222708411Y-356669669I-103957J489075D01*
G01*
X220005559Y-343953751D02*
G75*
G03*
X219412529Y-343568633I-489075J-103957D01*
G01*
X245615433Y-352311802D02*
G75*
G03*
X246000551Y-351718772I-103957J489075D01*
G01*
X427181250Y-255437500D02*
X427181250Y-268428424D01*
X441181250Y-255437500D02*
X441181250Y-268437500D01*
X427681250Y-254937500D02*
X440681250Y-254937500D01*
X427681250Y-268928424D02*
X440681250Y-268937500D01*
X440681250Y-268937500D02*
G75*
G03*
X441181250Y-268437500I-1J500001D01*
G01*
X427681250Y-254937500D02*
G75*
G03*
X427181250Y-255437500I1J-500001D01*
G01*
X441181250Y-255437500D02*
G75*
G03*
X440681250Y-254937500I-500001J-1D01*
G01*
X427181250Y-268428424D02*
G75*
G03*
X427681250Y-268928424I500001J1D01*
G01*
X384818750Y-287978424D02*
X397818750Y-287987500D01*
X384318750Y-274487500D02*
X384318750Y-287478424D01*
X384818750Y-273987500D02*
X397818750Y-273987500D01*
X398318750Y-274487500D02*
X398318750Y-287487500D01*
X397818750Y-287987500D02*
G75*
G03*
X398318750Y-287487500I-1J500001D01*
G01*
X384818750Y-273987500D02*
G75*
G03*
X384318750Y-274487500I1J-500001D01*
G01*
X398318750Y-274487500D02*
G75*
G03*
X397818750Y-273987500I-500001J-1D01*
G01*
X384318750Y-287478424D02*
G75*
G03*
X384818750Y-287978424I500001J1D01*
G01*
D10*
X209385750Y-239237500D02*
X211885750Y-239237500D01*
X212385750Y-238737500D02*
X212385750Y-227987500D01*
X211885750Y-227487500D02*
X209385750Y-227487500D01*
X208885750Y-227987500D02*
X208885750Y-238737500D01*
X208885750Y-238737500D02*
G75*
G03*
X209385750Y-239237500I500001J1D01*
G01*
X212385750Y-227987500D02*
G75*
G03*
X211885750Y-227487500I-500001J-1D01*
G01*
X209385750Y-227487500D02*
G75*
G03*
X208885750Y-227987500I1J-500001D01*
G01*
X211885750Y-239237500D02*
G75*
G03*
X212385750Y-238737500I-1J500001D01*
G01*
D11*
X427181250Y-293537500D02*
X427181250Y-306528424D01*
X441181250Y-293537500D02*
X441181250Y-306537500D01*
X427681250Y-293037500D02*
X440681250Y-293037500D01*
X427681250Y-307028424D02*
X440681250Y-307037500D01*
X440681250Y-307037500D02*
G75*
G03*
X441181250Y-306537500I-1J500001D01*
G01*
X441181250Y-293537500D02*
G75*
G03*
X440681250Y-293037500I-500001J-1D01*
G01*
X427681250Y-293037500D02*
G75*
G03*
X427181250Y-293537500I1J-500001D01*
G01*
X427181250Y-306528424D02*
G75*
G03*
X427681250Y-307028424I500001J1D01*
G01*
D12*
X27456250Y-245125000D02*
X10643750Y-245125000D01*
X3643750Y-245125000D02*
X3643750Y-245625008D01*
X2525000Y-231625000D02*
X2525000Y-244615924D01*
D11*
X4143750Y-246125008D02*
X10143750Y-246125008D01*
X27956250Y-246125008D02*
X33956250Y-246125008D01*
D12*
X35575000Y-231625000D02*
X35575000Y-244625000D01*
X27456250Y-245125000D02*
X27456250Y-245625008D01*
X35075000Y-245125000D02*
X34456250Y-245125000D01*
X34456250Y-245125000D02*
X34456250Y-245625008D01*
X3643750Y-245125000D02*
X3025000Y-245125000D01*
X3025000Y-231125000D02*
X35075000Y-231125000D01*
X10643750Y-245125000D02*
X10643750Y-245625008D01*
D11*
X3025000Y-231125000D02*
G75*
G03*
X2525000Y-231625000I1J-500001D01*
G01*
X35575000Y-231625000D02*
G75*
G03*
X35075000Y-231125000I-500001J-1D01*
G01*
X27456250Y-245625008D02*
G75*
G03*
X27956250Y-246125008I500001J1D01*
G01*
X10143750Y-246125008D02*
G75*
G03*
X10643750Y-245625008I-1J500001D01*
G01*
X33956250Y-246125008D02*
G75*
G03*
X34456250Y-245625008I-1J500001D01*
G01*
X3643750Y-245625008D02*
G75*
G03*
X4143750Y-246125008I500001J1D01*
G01*
X35075000Y-245125000D02*
G75*
G03*
X35575000Y-244625000I-1J500001D01*
G01*
X2525000Y-244615924D02*
G75*
G03*
X3025000Y-245125000I504541J-4535D01*
G01*
X72081250Y-229537500D02*
X85081250Y-229537500D01*
X72081250Y-243528424D02*
X85081250Y-243537500D01*
X71581250Y-230037500D02*
X71581250Y-243028424D01*
X85581250Y-230037500D02*
X85581250Y-243037500D01*
X85081250Y-243537500D02*
G75*
G03*
X85581250Y-243037500I-1J500001D01*
G01*
X72081250Y-229537500D02*
G75*
G03*
X71581250Y-230037500I1J-500001D01*
G01*
X85581250Y-230037500D02*
G75*
G03*
X85081250Y-229537500I-500001J-1D01*
G01*
X71581250Y-243028424D02*
G75*
G03*
X72081250Y-243528424I500001J1D01*
G01*
X215712357Y-306956159D02*
X218415209Y-319672078D01*
X205312285Y-322959082D02*
X218030091Y-320265107D01*
X202018291Y-309866922D02*
X204719256Y-322573964D01*
X202403409Y-309273893D02*
X215119328Y-306571041D01*
X218030091Y-320265107D02*
G75*
G03*
X218415209Y-319672078I-103956J489074D01*
G01*
X215712357Y-306956159D02*
G75*
G03*
X215119328Y-306571041I-489074J-103956D01*
G01*
X202403409Y-309273893D02*
G75*
G03*
X202018291Y-309866922I103956J-489074D01*
G01*
X204719255Y-322573964D02*
G75*
G03*
X205312285Y-322959082I489075J103957D01*
G01*
D12*
X435300000Y-331137500D02*
X452112500Y-331137500D01*
X460231250Y-344637500D02*
X460231250Y-331646576D01*
X427181250Y-344637500D02*
X427181250Y-331637500D01*
D11*
X434800000Y-330137492D02*
X428800000Y-330137492D01*
D12*
X428300000Y-331137500D02*
X428300000Y-330637492D01*
X459112500Y-331137500D02*
X459112500Y-330637492D01*
X452112500Y-331137500D02*
X452112500Y-330637492D01*
X459731250Y-345137500D02*
X427681250Y-345137500D01*
X459112500Y-331137500D02*
X459731250Y-331137500D01*
X435300000Y-331137500D02*
X435300000Y-330637492D01*
D11*
X458612500Y-330137492D02*
X452612500Y-330137492D01*
D12*
X427681250Y-331137500D02*
X428300000Y-331137500D01*
D11*
X459731250Y-345137500D02*
G75*
G03*
X460231250Y-344637500I-1J500001D01*
G01*
X452612500Y-330137492D02*
G75*
G03*
X452112500Y-330637492I1J-500001D01*
G01*
X428800000Y-330137492D02*
G75*
G03*
X428300000Y-330637492I1J-500001D01*
G01*
X460231250Y-331646576D02*
G75*
G03*
X459731250Y-331137500I-504541J4535D01*
G01*
X459112500Y-330637492D02*
G75*
G03*
X458612500Y-330137492I-500001J-1D01*
G01*
X427681250Y-331137500D02*
G75*
G03*
X427181250Y-331637500I1J-500001D01*
G01*
X427181250Y-344637500D02*
G75*
G03*
X427681250Y-345137500I500001J1D01*
G01*
X435300000Y-330637492D02*
G75*
G03*
X434800000Y-330137492I-500001J-1D01*
G01*
X102250000Y-312587500D02*
X102250000Y-325587500D01*
X88750000Y-312087500D02*
X101750000Y-312087500D01*
X88750000Y-326078424D02*
X101750000Y-326087500D01*
X88250000Y-312587500D02*
X88250000Y-325578424D01*
X88250000Y-325578424D02*
G75*
G03*
X88750000Y-326078424I500001J1D01*
G01*
X102250000Y-312587500D02*
G75*
G03*
X101750000Y-312087500I-500001J-1D01*
G01*
X88750000Y-312087500D02*
G75*
G03*
X88250000Y-312587500I1J-500001D01*
G01*
X101750000Y-326087500D02*
G75*
G03*
X102250000Y-325587500I-1J500001D01*
G01*
X465281250Y-293537500D02*
X465281250Y-306528424D01*
X465781250Y-293037500D02*
X478781250Y-293037500D01*
X465781250Y-307028424D02*
X478781250Y-307037500D01*
X479281250Y-293537500D02*
X479281250Y-306537500D01*
X479281250Y-293537500D02*
G75*
G03*
X478781250Y-293037500I-500001J-1D01*
G01*
X478781250Y-307037500D02*
G75*
G03*
X479281250Y-306537500I-1J500001D01*
G01*
X465281250Y-306528424D02*
G75*
G03*
X465781250Y-307028424I500001J1D01*
G01*
X465781250Y-293037500D02*
G75*
G03*
X465281250Y-293537500I1J-500001D01*
G01*
X50150000Y-331637500D02*
X50150000Y-344628424D01*
X64150000Y-331637500D02*
X64150000Y-344637500D01*
X50650000Y-331137500D02*
X63650000Y-331137500D01*
X50650000Y-345128424D02*
X63650000Y-345137500D01*
X64150000Y-331637500D02*
G75*
G03*
X63650000Y-331137500I-500001J-1D01*
G01*
X50650000Y-331137500D02*
G75*
G03*
X50150000Y-331637500I1J-500001D01*
G01*
X50150000Y-344628424D02*
G75*
G03*
X50650000Y-345128424I500001J1D01*
G01*
X63650000Y-345137500D02*
G75*
G03*
X64150000Y-344637500I-1J500001D01*
G01*
D12*
X497831250Y-307037500D02*
X484831250Y-307037500D01*
X498331250Y-274487500D02*
X498331250Y-306537500D01*
X484331250Y-298918750D02*
X484331250Y-282106250D01*
D11*
X483331242Y-299418750D02*
X483331242Y-305418750D01*
D12*
X484331250Y-306537500D02*
X484331250Y-305918750D01*
X484331250Y-298918750D02*
X483831242Y-298918750D01*
X484331250Y-282106250D02*
X483831242Y-282106250D01*
X497831250Y-273987500D02*
X484840326Y-273987500D01*
X484331250Y-275106250D02*
X483831242Y-275106250D01*
D11*
X483331242Y-275606250D02*
X483331242Y-281606250D01*
D12*
X484331250Y-305918750D02*
X483831242Y-305918750D01*
X484331250Y-275106250D02*
X484331250Y-274487500D01*
D11*
X483831242Y-298918750D02*
G75*
G03*
X483331242Y-299418750I1J-500001D01*
G01*
X484331250Y-306537500D02*
G75*
G03*
X484831250Y-307037500I500001J1D01*
G01*
X483831242Y-275106250D02*
G75*
G03*
X483331242Y-275606250I1J-500001D01*
G01*
X483331242Y-305418750D02*
G75*
G03*
X483831242Y-305918750I500001J1D01*
G01*
X484840326Y-273987500D02*
G75*
G03*
X484331250Y-274487500I-4535J-504541D01*
G01*
X498331250Y-274487500D02*
G75*
G03*
X497831250Y-273987500I-500001J-1D01*
G01*
X497831250Y-307037500D02*
G75*
G03*
X498331250Y-306537500I-1J500001D01*
G01*
X483331242Y-281606250D02*
G75*
G03*
X483831242Y-282106250I500001J1D01*
G01*
X95825550Y-253850000D02*
X95825550Y-266840924D01*
X109825550Y-253850000D02*
X109825550Y-266850000D01*
X96325550Y-267340924D02*
X109325550Y-267350000D01*
X96325550Y-253350000D02*
X109325550Y-253350000D01*
X109825550Y-253850000D02*
G75*
G03*
X109325550Y-253350000I-500001J-1D01*
G01*
X95825550Y-266840924D02*
G75*
G03*
X96325550Y-267340924I500001J1D01*
G01*
X96325550Y-253350000D02*
G75*
G03*
X95825550Y-253850000I1J-500001D01*
G01*
X109325550Y-267350000D02*
G75*
G03*
X109825550Y-266850000I-1J500001D01*
G01*
X220649191Y-305891822D02*
X223350156Y-318598864D01*
X221034309Y-305298793D02*
X233750228Y-302595941D01*
X223943185Y-318983982D02*
X236660991Y-316290007D01*
X234343257Y-302981059D02*
X237046109Y-315696978D01*
X223350155Y-318598864D02*
G75*
G03*
X223943185Y-318983982I489075J103957D01*
G01*
X221034309Y-305298793D02*
G75*
G03*
X220649191Y-305891822I103956J-489074D01*
G01*
X236660991Y-316290007D02*
G75*
G03*
X237046109Y-315696978I-103956J489074D01*
G01*
X234343257Y-302981059D02*
G75*
G03*
X233750228Y-302595941I-489074J-103956D01*
G01*
X21575000Y-255437500D02*
X21575000Y-268428424D01*
X22075000Y-254937500D02*
X35075000Y-254937500D01*
X22075000Y-268928424D02*
X35075000Y-268937500D01*
X35575000Y-255437500D02*
X35575000Y-268437500D01*
X35075000Y-268937500D02*
G75*
G03*
X35575000Y-268437500I-1J500001D01*
G01*
X21575000Y-268428424D02*
G75*
G03*
X22075000Y-268928424I500001J1D01*
G01*
X22075000Y-254937500D02*
G75*
G03*
X21575000Y-255437500I1J-500001D01*
G01*
X35575000Y-255437500D02*
G75*
G03*
X35075000Y-254937500I-500001J-1D01*
G01*
X289602150Y-274487500D02*
X289602150Y-287478424D01*
X290102150Y-273987500D02*
X303102150Y-273987500D01*
X303602150Y-274487500D02*
X303602150Y-287487500D01*
X290102150Y-287978424D02*
X303102150Y-287987500D01*
X303102150Y-287987500D02*
G75*
G03*
X303602150Y-287487500I-1J500001D01*
G01*
X290102150Y-273987500D02*
G75*
G03*
X289602150Y-274487500I1J-500001D01*
G01*
X289602150Y-287478424D02*
G75*
G03*
X290102150Y-287978424I500001J1D01*
G01*
X303602150Y-274487500D02*
G75*
G03*
X303102150Y-273987500I-500001J-1D01*
G01*
X35575000Y-331637500D02*
X35575000Y-344637500D01*
X22075000Y-331137500D02*
X35075000Y-331137500D01*
X21575000Y-331637500D02*
X21575000Y-344628424D01*
X22075000Y-345128424D02*
X35075000Y-345137500D01*
X22075000Y-331137500D02*
G75*
G03*
X21575000Y-331637500I1J-500001D01*
G01*
X35075000Y-345137500D02*
G75*
G03*
X35575000Y-344637500I-1J500001D01*
G01*
X21575000Y-344628424D02*
G75*
G03*
X22075000Y-345128424I500001J1D01*
G01*
X35575000Y-331637500D02*
G75*
G03*
X35075000Y-331137500I-500001J-1D01*
G01*
X281466150Y-243528424D02*
X294466150Y-243537500D01*
X281466150Y-229537500D02*
X294466150Y-229537500D01*
X294966150Y-230037500D02*
X294966150Y-243037500D01*
X280966150Y-230037500D02*
X280966150Y-243028424D01*
X294466150Y-243537500D02*
G75*
G03*
X294966150Y-243037500I-1J500001D01*
G01*
X280966150Y-243028424D02*
G75*
G03*
X281466150Y-243528424I500001J1D01*
G01*
X281466150Y-229537500D02*
G75*
G03*
X280966150Y-230037500I1J-500001D01*
G01*
X294966150Y-230037500D02*
G75*
G03*
X294466150Y-229537500I-500001J-1D01*
G01*
X302275000Y-312587500D02*
X302275000Y-325587500D01*
X288775000Y-326078424D02*
X301775000Y-326087500D01*
X288275000Y-312587500D02*
X288275000Y-325578424D01*
X288775000Y-312087500D02*
X301775000Y-312087500D01*
X288775000Y-312087500D02*
G75*
G03*
X288275000Y-312587500I1J-500001D01*
G01*
X301775000Y-326087500D02*
G75*
G03*
X302275000Y-325587500I-1J500001D01*
G01*
X302275000Y-312587500D02*
G75*
G03*
X301775000Y-312087500I-500001J-1D01*
G01*
X288275000Y-325578424D02*
G75*
G03*
X288775000Y-326078424I500001J1D01*
G01*
D12*
X313998850Y-255437500D02*
X313998850Y-268428424D01*
X315117600Y-268937500D02*
X315117600Y-269437508D01*
X315117600Y-268937500D02*
X314498850Y-268937500D01*
X347048850Y-255437500D02*
X347048850Y-268437500D01*
X314498850Y-254937500D02*
X346548850Y-254937500D01*
X346548850Y-268937500D02*
X345930100Y-268937500D01*
X322117600Y-268937500D02*
X322117600Y-269437508D01*
X338930100Y-268937500D02*
X322117600Y-268937500D01*
D11*
X339430100Y-269937508D02*
X345430100Y-269937508D01*
D12*
X338930100Y-268937500D02*
X338930100Y-269437508D01*
D11*
X315617600Y-269937508D02*
X321617600Y-269937508D01*
D12*
X345930100Y-268937500D02*
X345930100Y-269437508D01*
D11*
X345430100Y-269937508D02*
G75*
G03*
X345930100Y-269437508I-1J500001D01*
G01*
X338930100Y-269437508D02*
G75*
G03*
X339430100Y-269937508I500001J1D01*
G01*
X321617600Y-269937508D02*
G75*
G03*
X322117600Y-269437508I-1J500001D01*
G01*
X314498850Y-254937500D02*
G75*
G03*
X313998850Y-255437500I1J-500001D01*
G01*
X315117600Y-269437508D02*
G75*
G03*
X315617600Y-269937508I500001J1D01*
G01*
X347048850Y-255437500D02*
G75*
G03*
X346548850Y-254937500I-500001J-1D01*
G01*
X346548850Y-268937500D02*
G75*
G03*
X347048850Y-268437500I-1J500001D01*
G01*
X313998850Y-268428424D02*
G75*
G03*
X314498850Y-268937500I504541J-4535D01*
G01*
X465781250Y-312087500D02*
X478781250Y-312087500D01*
X479281250Y-312587500D02*
X479281250Y-325587500D01*
X465781250Y-326078424D02*
X478781250Y-326087500D01*
X465281250Y-312587500D02*
X465281250Y-325578424D01*
X478781250Y-326087500D02*
G75*
G03*
X479281250Y-325587500I-1J500001D01*
G01*
X465781250Y-312087500D02*
G75*
G03*
X465281250Y-312587500I1J-500001D01*
G01*
X479281250Y-312587500D02*
G75*
G03*
X478781250Y-312087500I-500001J-1D01*
G01*
X465281250Y-325578424D02*
G75*
G03*
X465781250Y-326078424I500001J1D01*
G01*
X308948850Y-255437500D02*
X308948850Y-268437500D01*
X294948850Y-255437500D02*
X294948850Y-268428424D01*
X295448850Y-268928424D02*
X308448850Y-268937500D01*
X295448850Y-254937500D02*
X308448850Y-254937500D01*
X308948850Y-255437500D02*
G75*
G03*
X308448850Y-254937500I-500001J-1D01*
G01*
X294948850Y-268428424D02*
G75*
G03*
X295448850Y-268928424I500001J1D01*
G01*
X308448850Y-268937500D02*
G75*
G03*
X308948850Y-268437500I-1J500001D01*
G01*
X295448850Y-254937500D02*
G75*
G03*
X294948850Y-255437500I1J-500001D01*
G01*
X2525000Y-331637500D02*
X2525000Y-344628424D01*
X16525000Y-331637500D02*
X16525000Y-344637500D01*
X3025000Y-345128424D02*
X16025000Y-345137500D01*
X3025000Y-331137500D02*
X16025000Y-331137500D01*
X2525000Y-344628424D02*
G75*
G03*
X3025000Y-345128424I500001J1D01*
G01*
X3025000Y-331137500D02*
G75*
G03*
X2525000Y-331637500I1J-500001D01*
G01*
X16525000Y-331637500D02*
G75*
G03*
X16025000Y-331137500I-500001J-1D01*
G01*
X16025000Y-345137500D02*
G75*
G03*
X16525000Y-344637500I-1J500001D01*
G01*
X339400000Y-313587508D02*
X339400000Y-326587500D01*
X346400000Y-313587508D02*
X346400000Y-326587508D01*
X339900000Y-327087508D02*
X345900000Y-327087508D01*
X323993750Y-312587500D02*
X323993750Y-325587500D01*
X316087500Y-313087500D02*
X322087500Y-313087508D01*
X337993750Y-312587500D02*
X337993750Y-325587500D01*
X316087500Y-327087508D02*
X322087500Y-327087508D01*
X324493750Y-326087500D02*
X337493750Y-326087500D01*
X324493750Y-312087500D02*
X337493750Y-312087500D01*
X322587500Y-313587508D02*
X322587500Y-326587500D01*
X339900000Y-313087508D02*
X345900000Y-313087508D01*
X315587500Y-313587508D02*
X315587500Y-326587508D01*
X316087500Y-313087500D02*
G75*
G03*
X315587500Y-313587500I1J-500001D01*
G01*
X322587500Y-313587500D02*
G75*
G03*
X322087500Y-313087500I-500001J-1D01*
G01*
X337993750Y-312587500D02*
G75*
G03*
X337493750Y-312087500I-500001J-1D01*
G01*
X339900000Y-313087500D02*
G75*
G03*
X339400000Y-313587500I1J-500001D01*
G01*
X339400000Y-326587508D02*
G75*
G03*
X339900000Y-327087508I500001J1D01*
G01*
X324493750Y-312087500D02*
G75*
G03*
X323993750Y-312587500I1J-500001D01*
G01*
X345900000Y-327087508D02*
G75*
G03*
X346400000Y-326587508I-1J500001D01*
G01*
X323993750Y-325587500D02*
G75*
G03*
X324493750Y-326087500I500001J1D01*
G01*
X315587500Y-326587508D02*
G75*
G03*
X316087500Y-327087508I500001J1D01*
G01*
X337493750Y-326087500D02*
G75*
G03*
X337993750Y-325587500I-1J500001D01*
G01*
X346400000Y-313587500D02*
G75*
G03*
X345900000Y-313087500I-500001J-1D01*
G01*
X322087500Y-327087508D02*
G75*
G03*
X322587500Y-326587508I-1J500001D01*
G01*
X479281250Y-331637500D02*
X479281250Y-344637500D01*
X465781250Y-345128424D02*
X478781250Y-345137500D01*
X465281250Y-331637500D02*
X465281250Y-344628424D01*
X465781250Y-331137500D02*
X478781250Y-331137500D01*
X478781250Y-345137500D02*
G75*
G03*
X479281250Y-344637500I-1J500001D01*
G01*
X479281250Y-331637500D02*
G75*
G03*
X478781250Y-331137500I-500001J-1D01*
G01*
X465281250Y-344628424D02*
G75*
G03*
X465781250Y-345128424I500001J1D01*
G01*
X465781250Y-331137500D02*
G75*
G03*
X465281250Y-331637500I1J-500001D01*
G01*
X332725000Y-231625000D02*
X332725000Y-244615924D01*
X333225000Y-245115924D02*
X346225000Y-245125000D01*
X346725000Y-231625000D02*
X346725000Y-244625000D01*
X333225000Y-231125000D02*
X346225000Y-231125000D01*
X332725000Y-244615924D02*
G75*
G03*
X333225000Y-245115924I500001J1D01*
G01*
X346225000Y-245125000D02*
G75*
G03*
X346725000Y-244625000I-1J500001D01*
G01*
X333225000Y-231125000D02*
G75*
G03*
X332725000Y-231625000I1J-500001D01*
G01*
X346725000Y-231625000D02*
G75*
G03*
X346225000Y-231125000I-500001J-1D01*
G01*
X110762096Y-244869030D02*
X123476128Y-247580759D01*
X126772009Y-234479722D02*
X124069157Y-247195641D01*
X113670972Y-231183841D02*
X126386891Y-233886693D01*
X113077943Y-231568959D02*
X110376978Y-244276000D01*
X110376978Y-244276000D02*
G75*
G03*
X110762096Y-244869030I489075J-103955D01*
G01*
X126772009Y-234479722D02*
G75*
G03*
X126386891Y-233886693I-489074J103955D01*
G01*
X113670972Y-231183841D02*
G75*
G03*
X113077943Y-231568959I-103955J-489074D01*
G01*
X123476128Y-247580759D02*
G75*
G03*
X124069157Y-247195641I103955J489074D01*
G01*
X417368750Y-331637500D02*
X417368750Y-344637500D01*
X403368750Y-331637500D02*
X403368750Y-344628424D01*
X403868750Y-331137500D02*
X416868750Y-331137500D01*
X403868750Y-345128424D02*
X416868750Y-345137500D01*
X416868750Y-345137500D02*
G75*
G03*
X417368750Y-344637500I-1J500001D01*
G01*
X403868750Y-331137500D02*
G75*
G03*
X403368750Y-331637500I1J-500001D01*
G01*
X417368750Y-331637500D02*
G75*
G03*
X416868750Y-331137500I-500001J-1D01*
G01*
X403368750Y-344628424D02*
G75*
G03*
X403868750Y-345128424I500001J1D01*
G01*
X403368750Y-231625000D02*
X403368750Y-244615924D01*
X417368750Y-231625000D02*
X417368750Y-244625000D01*
X403868750Y-231125000D02*
X416868750Y-231125000D01*
X403868750Y-245115924D02*
X416868750Y-245125000D01*
X416868750Y-245125000D02*
G75*
G03*
X417368750Y-244625000I-1J500001D01*
G01*
X403368750Y-244615924D02*
G75*
G03*
X403868750Y-245115924I500001J1D01*
G01*
X417368750Y-231625000D02*
G75*
G03*
X416868750Y-231125000I-500001J-1D01*
G01*
X403868750Y-231125000D02*
G75*
G03*
X403368750Y-231625000I1J-500001D01*
G01*
X289911550Y-253926200D02*
X289911550Y-266926200D01*
X276411550Y-267417124D02*
X289411550Y-267426200D01*
X275911550Y-253926200D02*
X275911550Y-266917124D01*
X276411550Y-253426200D02*
X289411550Y-253426200D01*
X289911550Y-253926200D02*
G75*
G03*
X289411550Y-253426200I-500001J-1D01*
G01*
X275911550Y-266917124D02*
G75*
G03*
X276411550Y-267417124I500001J1D01*
G01*
X276411550Y-253426200D02*
G75*
G03*
X275911550Y-253926200I1J-500001D01*
G01*
X289411550Y-267426200D02*
G75*
G03*
X289911550Y-266926200I-1J500001D01*
G01*
X2525000Y-274487500D02*
X2525000Y-287478424D01*
X3025000Y-287978424D02*
X16025000Y-287987500D01*
X3025000Y-273987500D02*
X16025000Y-273987500D01*
X16525000Y-274487500D02*
X16525000Y-287487500D01*
X2525000Y-287478424D02*
G75*
G03*
X3025000Y-287978424I500001J1D01*
G01*
X3025000Y-273987500D02*
G75*
G03*
X2525000Y-274487500I1J-500001D01*
G01*
X16025000Y-287987500D02*
G75*
G03*
X16525000Y-287487500I-1J500001D01*
G01*
X16525000Y-274487500D02*
G75*
G03*
X16025000Y-273987500I-500001J-1D01*
G01*
X147431443Y-321637359D02*
X144730478Y-334344400D01*
X161125509Y-324548122D02*
X158422657Y-337264041D01*
X145115596Y-334937430D02*
X157829628Y-337649159D01*
X148024472Y-321252241D02*
X160740391Y-323955093D01*
X148024472Y-321252241D02*
G75*
G03*
X147431443Y-321637359I-103955J-489074D01*
G01*
X157829628Y-337649159D02*
G75*
G03*
X158422657Y-337264041I103955J489074D01*
G01*
X144730478Y-334344400D02*
G75*
G03*
X145115596Y-334937430I489075J-103955D01*
G01*
X161125509Y-324548122D02*
G75*
G03*
X160740391Y-323955093I-489074J103955D01*
G01*
X252974157Y-299005959D02*
X255677009Y-311721878D01*
X242574085Y-315008882D02*
X255291891Y-312314907D01*
X239665209Y-301323693D02*
X252381128Y-298620841D01*
X239280091Y-301916722D02*
X241981056Y-314623764D01*
X239665209Y-301323693D02*
G75*
G03*
X239280091Y-301916722I103956J-489074D01*
G01*
X255291891Y-312314907D02*
G75*
G03*
X255677009Y-311721878I-103956J489074D01*
G01*
X241981055Y-314623764D02*
G75*
G03*
X242574085Y-315008882I489075J103957D01*
G01*
X252974157Y-299005959D02*
G75*
G03*
X252381128Y-298620841I-489074J-103956D01*
G01*
D12*
X109144658Y-332466551D02*
X124189791Y-335664493D01*
D11*
X108551629Y-332851669D02*
X105850664Y-345558710D01*
X124574909Y-336257522D02*
X121872057Y-348973441D01*
D12*
X106235782Y-346151740D02*
X121279028Y-349358559D01*
D11*
X109144658Y-332466552D02*
G75*
G03*
X108551629Y-332851669I-103955J-489074D01*
G01*
X121279028Y-349358559D02*
G75*
G03*
X121872057Y-348973441I103955J489074D01*
G01*
X124574909Y-336257522D02*
G75*
G03*
X124189791Y-335664493I-489074J103955D01*
G01*
X105850664Y-345558710D02*
G75*
G03*
X106235782Y-346151740I489075J-103955D01*
G01*
X61768750Y-231625000D02*
X61768750Y-244625000D01*
X47768750Y-231625000D02*
X47768750Y-244615924D01*
X48268750Y-231125000D02*
X61268750Y-231125000D01*
X48268750Y-245115924D02*
X61268750Y-245125000D01*
X47768750Y-244615924D02*
G75*
G03*
X48268750Y-245115924I500001J1D01*
G01*
X61768750Y-231625000D02*
G75*
G03*
X61268750Y-231125000I-500001J-1D01*
G01*
X48268750Y-231125000D02*
G75*
G03*
X47768750Y-231625000I1J-500001D01*
G01*
X61268750Y-245125000D02*
G75*
G03*
X61768750Y-244625000I-1J500001D01*
G01*
D12*
X52237500Y-293037500D02*
X70000000Y-293037500D01*
D11*
X70500000Y-293537500D02*
X70500000Y-306537500D01*
X51737500Y-293537500D02*
X51737500Y-306528424D01*
D12*
X52237500Y-307028424D02*
X70000000Y-307037500D01*
D11*
X70500000Y-293537500D02*
G75*
G03*
X70000000Y-293037500I-500001J-1D01*
G01*
X70000000Y-307037500D02*
G75*
G03*
X70500000Y-306537500I-1J500001D01*
G01*
X51737500Y-306528424D02*
G75*
G03*
X52237500Y-307028424I500001J1D01*
G01*
X52237500Y-293037500D02*
G75*
G03*
X51737500Y-293537500I1J-500001D01*
G01*
X345456250Y-294037508D02*
X351456250Y-294037508D01*
X351956250Y-294537508D02*
X351956250Y-307537508D01*
X328143750Y-294537508D02*
X328143750Y-307537500D01*
X321143750Y-294537508D02*
X321143750Y-307537508D01*
X330050000Y-293037500D02*
X343050000Y-293037500D01*
X321643750Y-308037508D02*
X327643750Y-308037508D01*
X321643750Y-294037500D02*
X327643750Y-294037508D01*
X329550000Y-293537500D02*
X329550000Y-306537500D01*
X330050000Y-307037500D02*
X343050000Y-307037500D01*
X344956250Y-294537508D02*
X344956250Y-307537500D01*
X345456250Y-308037508D02*
X351456250Y-308037508D01*
X343550000Y-293537500D02*
X343550000Y-306537500D01*
X329550000Y-306537500D02*
G75*
G03*
X330050000Y-307037500I500001J1D01*
G01*
X328143750Y-294537500D02*
G75*
G03*
X327643750Y-294037500I-500001J-1D01*
G01*
X351956250Y-294537500D02*
G75*
G03*
X351456250Y-294037500I-500001J-1D01*
G01*
X330050000Y-293037500D02*
G75*
G03*
X329550000Y-293537500I1J-500001D01*
G01*
X351456250Y-308037508D02*
G75*
G03*
X351956250Y-307537508I-1J500001D01*
G01*
X327643750Y-308037508D02*
G75*
G03*
X328143750Y-307537508I-1J500001D01*
G01*
X343550000Y-293537500D02*
G75*
G03*
X343050000Y-293037500I-500001J-1D01*
G01*
X345456250Y-294037500D02*
G75*
G03*
X344956250Y-294537500I1J-500001D01*
G01*
X321143750Y-307537508D02*
G75*
G03*
X321643750Y-308037508I500001J1D01*
G01*
X321643750Y-294037500D02*
G75*
G03*
X321143750Y-294537500I1J-500001D01*
G01*
X344956250Y-307537508D02*
G75*
G03*
X345456250Y-308037508I500001J1D01*
G01*
X343050000Y-307037500D02*
G75*
G03*
X343550000Y-306537500I-1J500001D01*
G01*
X336400000Y-345128424D02*
X349400000Y-345137500D01*
X335900000Y-331637500D02*
X335900000Y-344628424D01*
X336400000Y-331137500D02*
X349400000Y-331137500D01*
X349900000Y-331637500D02*
X349900000Y-344637500D01*
X349400000Y-345137500D02*
G75*
G03*
X349900000Y-344637500I-1J500001D01*
G01*
X335900000Y-344628424D02*
G75*
G03*
X336400000Y-345128424I500001J1D01*
G01*
X349900000Y-331637500D02*
G75*
G03*
X349400000Y-331137500I-500001J-1D01*
G01*
X336400000Y-331137500D02*
G75*
G03*
X335900000Y-331637500I1J-500001D01*
G01*
X121150696Y-310388330D02*
X133864728Y-313100059D01*
X123466543Y-297088259D02*
X120765578Y-309795300D01*
X137160609Y-299999022D02*
X134457757Y-312714941D01*
X124059572Y-296703141D02*
X136775491Y-299405993D01*
X133864728Y-313100059D02*
G75*
G03*
X134457757Y-312714941I103955J489074D01*
G01*
X137160609Y-299999022D02*
G75*
G03*
X136775491Y-299405993I-489074J103955D01*
G01*
X120765578Y-309795300D02*
G75*
G03*
X121150696Y-310388330I489075J-103955D01*
G01*
X124059572Y-296703141D02*
G75*
G03*
X123466543Y-297088259I-103955J-489074D01*
G01*
X365268750Y-255437500D02*
X365268750Y-268428424D01*
X365768750Y-268928424D02*
X378768750Y-268937500D01*
X379268750Y-255437500D02*
X379268750Y-268437500D01*
X365768750Y-254937500D02*
X378768750Y-254937500D01*
X379268750Y-255437500D02*
G75*
G03*
X378768750Y-254937500I-500001J-1D01*
G01*
X365268750Y-268428424D02*
G75*
G03*
X365768750Y-268928424I500001J1D01*
G01*
X378768750Y-268937500D02*
G75*
G03*
X379268750Y-268437500I-1J500001D01*
G01*
X365768750Y-254937500D02*
G75*
G03*
X365268750Y-255437500I1J-500001D01*
G01*
X174397009Y-307885722D02*
X171694157Y-320601641D01*
X161295972Y-304589841D02*
X174011891Y-307292693D01*
X158387096Y-318275030D02*
X171101128Y-320986759D01*
X160702943Y-304974959D02*
X158001978Y-317682000D01*
X158001978Y-317682000D02*
G75*
G03*
X158387096Y-318275030I489075J-103955D01*
G01*
X174397009Y-307885722D02*
G75*
G03*
X174011891Y-307292693I-489074J103955D01*
G01*
X171101128Y-320986759D02*
G75*
G03*
X171694157Y-320601641I103955J489074D01*
G01*
X161295972Y-304589841D02*
G75*
G03*
X160702943Y-304974959I-103955J-489074D01*
G01*
X16525000Y-293537500D02*
X16525000Y-306537500D01*
X3025000Y-307028424D02*
X16025000Y-307037500D01*
X2525000Y-293537500D02*
X2525000Y-306528424D01*
X3025000Y-293037500D02*
X16025000Y-293037500D01*
X2525000Y-306528424D02*
G75*
G03*
X3025000Y-307028424I500001J1D01*
G01*
X3025000Y-293037500D02*
G75*
G03*
X2525000Y-293537500I1J-500001D01*
G01*
X16025000Y-307037500D02*
G75*
G03*
X16525000Y-306537500I-1J500001D01*
G01*
X16525000Y-293537500D02*
G75*
G03*
X16025000Y-293037500I-500001J-1D01*
G01*
X136052243Y-260804359D02*
X133351278Y-273511400D01*
X136645272Y-260419241D02*
X149361191Y-263122093D01*
X133736396Y-274104430D02*
X146450428Y-276816159D01*
X149746309Y-263715122D02*
X147043457Y-276431041D01*
X149746309Y-263715122D02*
G75*
G03*
X149361191Y-263122093I-489074J103955D01*
G01*
X133351278Y-273511400D02*
G75*
G03*
X133736396Y-274104430I489075J-103955D01*
G01*
X146450428Y-276816159D02*
G75*
G03*
X147043457Y-276431041I103955J489074D01*
G01*
X136645272Y-260419241D02*
G75*
G03*
X136052243Y-260804359I-103955J-489074D01*
G01*
X229657609Y-322951793D02*
X242373528Y-320248941D01*
X242966557Y-320634059D02*
X245669409Y-333349978D01*
X229272491Y-323544822D02*
X231973456Y-336251864D01*
X232566485Y-336636982D02*
X245284291Y-333943007D01*
X245284291Y-333943007D02*
G75*
G03*
X245669409Y-333349978I-103956J489074D01*
G01*
X231973455Y-336251864D02*
G75*
G03*
X232566485Y-336636982I489075J103957D01*
G01*
X229657609Y-322951793D02*
G75*
G03*
X229272491Y-323544822I103956J-489074D01*
G01*
X242966557Y-320634059D02*
G75*
G03*
X242373528Y-320248941I-489074J-103956D01*
G01*
X460231250Y-293537500D02*
X460231250Y-306537500D01*
X446231250Y-293537500D02*
X446231250Y-306528424D01*
X446731250Y-307028424D02*
X459731250Y-307037500D01*
X446731250Y-293037500D02*
X459731250Y-293037500D01*
X446231250Y-306528424D02*
G75*
G03*
X446731250Y-307028424I500001J1D01*
G01*
X460231250Y-293537500D02*
G75*
G03*
X459731250Y-293037500I-500001J-1D01*
G01*
X446731250Y-293037500D02*
G75*
G03*
X446231250Y-293537500I1J-500001D01*
G01*
X459731250Y-307037500D02*
G75*
G03*
X460231250Y-306537500I-1J500001D01*
G01*
X484831250Y-254937500D02*
X497831250Y-254937500D01*
X484331250Y-255437500D02*
X484331250Y-268428424D01*
X498331250Y-255437500D02*
X498331250Y-268437500D01*
X484831250Y-268928424D02*
X497831250Y-268937500D01*
X484331250Y-268428424D02*
G75*
G03*
X484831250Y-268928424I500001J1D01*
G01*
X497831250Y-268937500D02*
G75*
G03*
X498331250Y-268437500I-1J500001D01*
G01*
X484831250Y-254937500D02*
G75*
G03*
X484331250Y-255437500I1J-500001D01*
G01*
X498331250Y-255437500D02*
G75*
G03*
X497831250Y-254937500I-500001J-1D01*
G01*
X427681250Y-287978424D02*
X440681250Y-287987500D01*
X427181250Y-274487500D02*
X427181250Y-287478424D01*
X427681250Y-273987500D02*
X440681250Y-273987500D01*
X441181250Y-274487500D02*
X441181250Y-287487500D01*
X427681250Y-273987500D02*
G75*
G03*
X427181250Y-274487500I1J-500001D01*
G01*
X441181250Y-274487500D02*
G75*
G03*
X440681250Y-273987500I-500001J-1D01*
G01*
X427181250Y-287478424D02*
G75*
G03*
X427681250Y-287978424I500001J1D01*
G01*
X440681250Y-287987500D02*
G75*
G03*
X441181250Y-287487500I-1J500001D01*
G01*
X255044909Y-259159693D02*
X267760828Y-256456841D01*
X257953785Y-272844882D02*
X270671591Y-270150907D01*
X254659791Y-259752722D02*
X257360756Y-272459764D01*
X268353857Y-256841959D02*
X271056709Y-269557878D01*
X255044909Y-259159693D02*
G75*
G03*
X254659791Y-259752722I103956J-489074D01*
G01*
X270671591Y-270150907D02*
G75*
G03*
X271056709Y-269557878I-103956J489074D01*
G01*
X268353857Y-256841959D02*
G75*
G03*
X267760828Y-256456841I-489074J-103956D01*
G01*
X257360755Y-272459764D02*
G75*
G03*
X257953785Y-272844882I489075J103957D01*
G01*
X139743496Y-314312630D02*
X152457528Y-317024359D01*
X142059343Y-301012559D02*
X139358378Y-313719600D01*
X155753409Y-303923322D02*
X153050557Y-316639241D01*
X142652372Y-300627441D02*
X155368291Y-303330293D01*
X155753409Y-303923322D02*
G75*
G03*
X155368291Y-303330293I-489074J103955D01*
G01*
X142652372Y-300627441D02*
G75*
G03*
X142059343Y-301012559I-103955J-489074D01*
G01*
X152457528Y-317024359D02*
G75*
G03*
X153050557Y-316639241I103955J489074D01*
G01*
X139358378Y-313719600D02*
G75*
G03*
X139743496Y-314312630I489075J-103955D01*
G01*
X142217833Y-339499299D02*
X142321788Y-339010225D01*
D12*
X165228812Y-343368085D02*
X157030712Y-341625525D01*
D11*
X130442691Y-349775664D02*
X133145543Y-337059746D01*
X156333725Y-342499724D02*
X142217833Y-339499299D01*
X156333725Y-342499724D02*
X156437683Y-342010643D01*
X154480611Y-355907431D02*
X154584567Y-355418357D01*
X162911078Y-356677033D02*
X165613930Y-343961114D01*
X138457331Y-352501578D02*
X138561287Y-352012504D01*
D12*
X162318047Y-357062159D02*
X154584567Y-355418357D01*
D11*
X153887582Y-356292549D02*
X138842449Y-353094607D01*
D12*
X141936672Y-338417188D02*
X133738573Y-336674628D01*
X130827807Y-350368702D02*
X138561287Y-352012504D01*
D11*
X138457332Y-352501578D02*
G75*
G03*
X138842449Y-353094607I489074J-103955D01*
G01*
X130442689Y-349775672D02*
G75*
G03*
X130827807Y-350368702I489075J-103955D01*
G01*
X142321789Y-339010217D02*
G75*
G03*
X141936672Y-338417188I-489074J103955D01*
G01*
X157030712Y-341625526D02*
G75*
G03*
X156437683Y-342010643I-103955J-489074D01*
G01*
X133738573Y-336674629D02*
G75*
G03*
X133145543Y-337059746I-103956J-489074D01*
G01*
X153887582Y-356292548D02*
G75*
G03*
X154480611Y-355907431I103955J489074D01*
G01*
X165613929Y-343961114D02*
G75*
G03*
X165228812Y-343368085I-489074J103955D01*
G01*
X162318047Y-357062158D02*
G75*
G03*
X162911076Y-356677041I103955J489074D01*
G01*
M02*
