G04 #@! TF.GenerationSoftware,KiCad,Pcbnew,(6.0.1-0)*
G04 #@! TF.CreationDate,2022-06-20T18:56:02-07:00*
G04 #@! TF.ProjectId,plate,706c6174-652e-46b6-9963-61645f706362,rev?*
G04 #@! TF.SameCoordinates,Original*
G04 #@! TF.FileFunction,Legend,Bot*
G04 #@! TF.FilePolarity,Positive*
%FSLAX46Y46*%
G04 Gerber Fmt 4.6, Leading zero omitted, Abs format (unit mm)*
G04 Created by KiCad (PCBNEW (6.0.1-0)) date 2022-06-20 18:56:02*
%MOMM*%
%LPD*%
G01*
G04 APERTURE LIST*
%ADD10C,0.300000*%
%ADD11C,0.500000*%
G04 APERTURE END LIST*
D10*
X324098214Y-342260071D02*
X323526785Y-342260071D01*
X323883928Y-343260071D02*
X323883928Y-341974357D01*
X323812500Y-341831500D01*
X323669642Y-341760071D01*
X323526785Y-341760071D01*
X322812500Y-343260071D02*
X322955357Y-343188642D01*
X323026785Y-343117214D01*
X323098214Y-342974357D01*
X323098214Y-342545785D01*
X323026785Y-342402928D01*
X322955357Y-342331500D01*
X322812500Y-342260071D01*
X322598214Y-342260071D01*
X322455357Y-342331500D01*
X322383928Y-342402928D01*
X322312500Y-342545785D01*
X322312500Y-342974357D01*
X322383928Y-343117214D01*
X322455357Y-343188642D01*
X322598214Y-343260071D01*
X322812500Y-343260071D01*
X321669642Y-343260071D02*
X321669642Y-342260071D01*
X321669642Y-342545785D02*
X321598214Y-342402928D01*
X321526785Y-342331500D01*
X321383928Y-342260071D01*
X321241071Y-342260071D01*
X320741071Y-343260071D02*
X320741071Y-341760071D01*
X320598214Y-342688642D02*
X320169642Y-343260071D01*
X320169642Y-342260071D02*
X320741071Y-342831500D01*
X318169642Y-343260071D02*
X318312500Y-343188642D01*
X318383928Y-343117214D01*
X318455357Y-342974357D01*
X318455357Y-342545785D01*
X318383928Y-342402928D01*
X318312500Y-342331500D01*
X318169642Y-342260071D01*
X317955357Y-342260071D01*
X317812500Y-342331500D01*
X317741071Y-342402928D01*
X317669642Y-342545785D01*
X317669642Y-342974357D01*
X317741071Y-343117214D01*
X317812500Y-343188642D01*
X317955357Y-343260071D01*
X318169642Y-343260071D01*
X317241071Y-342260071D02*
X316669642Y-342260071D01*
X317026785Y-343260071D02*
X317026785Y-341974357D01*
X316955357Y-341831500D01*
X316812500Y-341760071D01*
X316669642Y-341760071D01*
X315241071Y-342260071D02*
X314669642Y-342260071D01*
X315026785Y-343260071D02*
X315026785Y-341974357D01*
X314955357Y-341831500D01*
X314812500Y-341760071D01*
X314669642Y-341760071D01*
X313955357Y-343260071D02*
X314098214Y-343188642D01*
X314169642Y-343045785D01*
X314169642Y-341760071D01*
X313169642Y-343260071D02*
X313312500Y-343188642D01*
X313383928Y-343117214D01*
X313455357Y-342974357D01*
X313455357Y-342545785D01*
X313383928Y-342402928D01*
X313312500Y-342331500D01*
X313169642Y-342260071D01*
X312955357Y-342260071D01*
X312812500Y-342331500D01*
X312741071Y-342402928D01*
X312669642Y-342545785D01*
X312669642Y-342974357D01*
X312741071Y-343117214D01*
X312812500Y-343188642D01*
X312955357Y-343260071D01*
X313169642Y-343260071D01*
X311812500Y-343260071D02*
X311955357Y-343188642D01*
X312026785Y-343117214D01*
X312098214Y-342974357D01*
X312098214Y-342545785D01*
X312026785Y-342402928D01*
X311955357Y-342331500D01*
X311812500Y-342260071D01*
X311598214Y-342260071D01*
X311455357Y-342331500D01*
X311383928Y-342402928D01*
X311312500Y-342545785D01*
X311312500Y-342974357D01*
X311383928Y-343117214D01*
X311455357Y-343188642D01*
X311598214Y-343260071D01*
X311812500Y-343260071D01*
X310455357Y-343260071D02*
X310598214Y-343188642D01*
X310669642Y-343117214D01*
X310741071Y-342974357D01*
X310741071Y-342545785D01*
X310669642Y-342402928D01*
X310598214Y-342331500D01*
X310455357Y-342260071D01*
X310241071Y-342260071D01*
X310098214Y-342331500D01*
X310026785Y-342402928D01*
X309955357Y-342545785D01*
X309955357Y-342974357D01*
X310026785Y-343117214D01*
X310098214Y-343188642D01*
X310241071Y-343260071D01*
X310455357Y-343260071D01*
X309312500Y-343260071D02*
X309312500Y-341760071D01*
X309169642Y-342688642D02*
X308741071Y-343260071D01*
X308741071Y-342260071D02*
X309312500Y-342831500D01*
X307455357Y-343260071D02*
X307455357Y-342474357D01*
X307526785Y-342331500D01*
X307669642Y-342260071D01*
X307955357Y-342260071D01*
X308098214Y-342331500D01*
X307455357Y-343188642D02*
X307598214Y-343260071D01*
X307955357Y-343260071D01*
X308098214Y-343188642D01*
X308169642Y-343045785D01*
X308169642Y-342902928D01*
X308098214Y-342760071D01*
X307955357Y-342688642D01*
X307598214Y-342688642D01*
X307455357Y-342617214D01*
X306883928Y-342260071D02*
X306526785Y-343260071D01*
X306169642Y-342260071D02*
X306526785Y-343260071D01*
X306669642Y-343617214D01*
X306741071Y-343688642D01*
X306883928Y-343760071D01*
X304526785Y-341688642D02*
X305812500Y-343617214D01*
X303383928Y-343260071D02*
X303383928Y-342474357D01*
X303455357Y-342331500D01*
X303598214Y-342260071D01*
X303883928Y-342260071D01*
X304026785Y-342331500D01*
X303383928Y-343188642D02*
X303526785Y-343260071D01*
X303883928Y-343260071D01*
X304026785Y-343188642D01*
X304098214Y-343045785D01*
X304098214Y-342902928D01*
X304026785Y-342760071D01*
X303883928Y-342688642D01*
X303526785Y-342688642D01*
X303383928Y-342617214D01*
X302026785Y-343260071D02*
X302026785Y-341760071D01*
X302026785Y-343188642D02*
X302169642Y-343260071D01*
X302455357Y-343260071D01*
X302598214Y-343188642D01*
X302669642Y-343117214D01*
X302741071Y-342974357D01*
X302741071Y-342545785D01*
X302669642Y-342402928D01*
X302598214Y-342331500D01*
X302455357Y-342260071D01*
X302169642Y-342260071D01*
X302026785Y-342331500D01*
X300741071Y-343188642D02*
X300883928Y-343260071D01*
X301169642Y-343260071D01*
X301312500Y-343188642D01*
X301383928Y-343045785D01*
X301383928Y-342474357D01*
X301312500Y-342331500D01*
X301169642Y-342260071D01*
X300883928Y-342260071D01*
X300741071Y-342331500D01*
X300669642Y-342474357D01*
X300669642Y-342617214D01*
X301383928Y-342760071D01*
X299812500Y-343260071D02*
X299955357Y-343188642D01*
X300026785Y-343045785D01*
X300026785Y-341760071D01*
X299241071Y-343260071D02*
X299241071Y-341760071D01*
X298598214Y-343260071D02*
X298598214Y-342474357D01*
X298669642Y-342331500D01*
X298812500Y-342260071D01*
X299026785Y-342260071D01*
X299169642Y-342331500D01*
X299241071Y-342402928D01*
X297312500Y-343188642D02*
X297455357Y-343260071D01*
X297741071Y-343260071D01*
X297883928Y-343188642D01*
X297955357Y-343045785D01*
X297955357Y-342474357D01*
X297883928Y-342331500D01*
X297741071Y-342260071D01*
X297455357Y-342260071D01*
X297312500Y-342331500D01*
X297241071Y-342474357D01*
X297241071Y-342617214D01*
X297955357Y-342760071D01*
X296598214Y-343260071D02*
X296598214Y-342260071D01*
X296598214Y-341760071D02*
X296669642Y-341831500D01*
X296598214Y-341902928D01*
X296526785Y-341831500D01*
X296598214Y-341760071D01*
X296598214Y-341902928D01*
X295241071Y-343260071D02*
X295241071Y-341760071D01*
X295241071Y-343188642D02*
X295383928Y-343260071D01*
X295669642Y-343260071D01*
X295812500Y-343188642D01*
X295883928Y-343117214D01*
X295955357Y-342974357D01*
X295955357Y-342545785D01*
X295883928Y-342402928D01*
X295812500Y-342331500D01*
X295669642Y-342260071D01*
X295383928Y-342260071D01*
X295241071Y-342331500D01*
X320455357Y-345675071D02*
X320455357Y-344175071D01*
X320455357Y-344746500D02*
X320312500Y-344675071D01*
X320026785Y-344675071D01*
X319883928Y-344746500D01*
X319812500Y-344817928D01*
X319741071Y-344960785D01*
X319741071Y-345389357D01*
X319812500Y-345532214D01*
X319883928Y-345603642D01*
X320026785Y-345675071D01*
X320312500Y-345675071D01*
X320455357Y-345603642D01*
X319241071Y-344675071D02*
X318883928Y-345675071D01*
X318526785Y-344675071D02*
X318883928Y-345675071D01*
X319026785Y-346032214D01*
X319098214Y-346103642D01*
X319241071Y-346175071D01*
X316169642Y-345675071D02*
X316169642Y-344175071D01*
X316169642Y-345603642D02*
X316312500Y-345675071D01*
X316598214Y-345675071D01*
X316741071Y-345603642D01*
X316812500Y-345532214D01*
X316883928Y-345389357D01*
X316883928Y-344960785D01*
X316812500Y-344817928D01*
X316741071Y-344746500D01*
X316598214Y-344675071D01*
X316312500Y-344675071D01*
X316169642Y-344746500D01*
X314812500Y-345603642D02*
X314955357Y-345675071D01*
X315241071Y-345675071D01*
X315383928Y-345603642D01*
X315455357Y-345532214D01*
X315526785Y-345389357D01*
X315526785Y-344960785D01*
X315455357Y-344817928D01*
X315383928Y-344746500D01*
X315241071Y-344675071D01*
X314955357Y-344675071D01*
X314812500Y-344746500D01*
X314169642Y-344675071D02*
X314169642Y-346175071D01*
X314169642Y-344746500D02*
X314026785Y-344675071D01*
X313741071Y-344675071D01*
X313598214Y-344746500D01*
X313526785Y-344817928D01*
X313455357Y-344960785D01*
X313455357Y-345389357D01*
X313526785Y-345532214D01*
X313598214Y-345603642D01*
X313741071Y-345675071D01*
X314026785Y-345675071D01*
X314169642Y-345603642D01*
X312241071Y-345603642D02*
X312383928Y-345675071D01*
X312669642Y-345675071D01*
X312812500Y-345603642D01*
X312883928Y-345460785D01*
X312883928Y-344889357D01*
X312812500Y-344746500D01*
X312669642Y-344675071D01*
X312383928Y-344675071D01*
X312241071Y-344746500D01*
X312169642Y-344889357D01*
X312169642Y-345032214D01*
X312883928Y-345175071D01*
X310883928Y-345675071D02*
X310883928Y-344175071D01*
X310883928Y-345603642D02*
X311026785Y-345675071D01*
X311312500Y-345675071D01*
X311455357Y-345603642D01*
X311526785Y-345532214D01*
X311598214Y-345389357D01*
X311598214Y-344960785D01*
X311526785Y-344817928D01*
X311455357Y-344746500D01*
X311312500Y-344675071D01*
X311026785Y-344675071D01*
X310883928Y-344746500D01*
X310169642Y-345675071D02*
X310169642Y-344675071D01*
X310169642Y-344175071D02*
X310241071Y-344246500D01*
X310169642Y-344317928D01*
X310098214Y-344246500D01*
X310169642Y-344175071D01*
X310169642Y-344317928D01*
X309669642Y-344675071D02*
X309098214Y-344675071D01*
X309455357Y-344175071D02*
X309455357Y-345460785D01*
X309383928Y-345603642D01*
X309241071Y-345675071D01*
X309098214Y-345675071D01*
X307026785Y-346175071D02*
X307383928Y-346175071D01*
X307383928Y-344032214D01*
X307026785Y-344032214D01*
X305598214Y-345675071D02*
X306098214Y-344960785D01*
X306455357Y-345675071D02*
X306455357Y-344175071D01*
X305883928Y-344175071D01*
X305741071Y-344246500D01*
X305669642Y-344317928D01*
X305598214Y-344460785D01*
X305598214Y-344675071D01*
X305669642Y-344817928D01*
X305741071Y-344889357D01*
X305883928Y-344960785D01*
X306455357Y-344960785D01*
X304383928Y-345603642D02*
X304526785Y-345675071D01*
X304812500Y-345675071D01*
X304955357Y-345603642D01*
X305026785Y-345460785D01*
X305026785Y-344889357D01*
X304955357Y-344746500D01*
X304812500Y-344675071D01*
X304526785Y-344675071D01*
X304383928Y-344746500D01*
X304312500Y-344889357D01*
X304312500Y-345032214D01*
X305026785Y-345175071D01*
X303812500Y-344675071D02*
X303455357Y-345675071D01*
X303098214Y-344675071D01*
X301741071Y-345675071D02*
X302598214Y-345675071D01*
X302169642Y-345675071D02*
X302169642Y-344175071D01*
X302312500Y-344389357D01*
X302455357Y-344532214D01*
X302598214Y-344603642D01*
X301098214Y-345532214D02*
X301026785Y-345603642D01*
X301098214Y-345675071D01*
X301169642Y-345603642D01*
X301098214Y-345532214D01*
X301098214Y-345675071D01*
X300098214Y-344175071D02*
X299955357Y-344175071D01*
X299812500Y-344246500D01*
X299741071Y-344317928D01*
X299669642Y-344460785D01*
X299598214Y-344746500D01*
X299598214Y-345103642D01*
X299669642Y-345389357D01*
X299741071Y-345532214D01*
X299812500Y-345603642D01*
X299955357Y-345675071D01*
X300098214Y-345675071D01*
X300241071Y-345603642D01*
X300312500Y-345532214D01*
X300383928Y-345389357D01*
X300455357Y-345103642D01*
X300455357Y-344746500D01*
X300383928Y-344460785D01*
X300312500Y-344317928D01*
X300241071Y-344246500D01*
X300098214Y-344175071D01*
X299098214Y-346175071D02*
X298741071Y-346175071D01*
X298741071Y-344032214D01*
X299098214Y-344032214D01*
G36*
X304355764Y-331219476D02*
G01*
X304835536Y-331281606D01*
X305282754Y-331408939D01*
X305681524Y-331593076D01*
X306015947Y-331825620D01*
X306270129Y-332098173D01*
X306428172Y-332402335D01*
X306493676Y-332600814D01*
X306650042Y-332314876D01*
X306800601Y-332053897D01*
X306939834Y-331845811D01*
X307046506Y-331726357D01*
X307114344Y-331703793D01*
X307123155Y-331720109D01*
X307098033Y-331806367D01*
X307018734Y-331931505D01*
X307004375Y-331951203D01*
X306906307Y-332113868D01*
X306794193Y-332334614D01*
X306689564Y-332571569D01*
X306509065Y-333016714D01*
X306491887Y-335398152D01*
X306488022Y-335936089D01*
X306485147Y-336452462D01*
X306485157Y-336872892D01*
X306489340Y-337207232D01*
X306498987Y-337465336D01*
X306515386Y-337657057D01*
X306539827Y-337792249D01*
X306573600Y-337880765D01*
X306617993Y-337932458D01*
X306674297Y-337957182D01*
X306743799Y-337964791D01*
X306827791Y-337965138D01*
X306881063Y-337967176D01*
X306977518Y-337999207D01*
X306968531Y-338068310D01*
X306855387Y-338172148D01*
X306639368Y-338308381D01*
X306444803Y-338431248D01*
X306191496Y-338616002D01*
X305971522Y-338800510D01*
X305656232Y-339092414D01*
X305289512Y-338781315D01*
X305274713Y-338768812D01*
X305050789Y-338588437D01*
X304814523Y-338410966D01*
X304614690Y-338273126D01*
X304579499Y-338250421D01*
X304398445Y-338122622D01*
X304319895Y-338040942D01*
X304342787Y-338003485D01*
X304466056Y-338008358D01*
X304580678Y-338005753D01*
X304766394Y-337917773D01*
X304907263Y-337803782D01*
X304924877Y-336233035D01*
X304942490Y-334662289D01*
X304671938Y-334483082D01*
X304502984Y-334380486D01*
X304334060Y-334315911D01*
X304202056Y-334327908D01*
X304082463Y-334413587D01*
X304059088Y-334439527D01*
X304019070Y-334503013D01*
X303986266Y-334591556D01*
X303960126Y-334715082D01*
X303940100Y-334883515D01*
X303925639Y-335106784D01*
X303916194Y-335394814D01*
X303911216Y-335757530D01*
X303910155Y-336204861D01*
X303912463Y-336746730D01*
X303917589Y-337393066D01*
X303920635Y-337724452D01*
X303925817Y-338234909D01*
X303931259Y-338649818D01*
X303937668Y-338981281D01*
X303945753Y-339241399D01*
X303956224Y-339442271D01*
X303969787Y-339596001D01*
X303987153Y-339714687D01*
X304009029Y-339810432D01*
X304036123Y-339895336D01*
X304069146Y-339981501D01*
X304184154Y-340215566D01*
X304443465Y-340572390D01*
X304771605Y-340883105D01*
X305140572Y-341118008D01*
X305157973Y-341126633D01*
X305334952Y-341221814D01*
X305460331Y-341302518D01*
X305507939Y-341352071D01*
X305499734Y-341372720D01*
X305437308Y-341377313D01*
X305305230Y-341335230D01*
X305093682Y-341242971D01*
X304792849Y-341097035D01*
X304287569Y-340817730D01*
X303775890Y-340472472D01*
X303328131Y-340101597D01*
X302960761Y-339718884D01*
X302690251Y-339338111D01*
X302679941Y-339320159D01*
X302601700Y-339174631D01*
X302537494Y-339029626D01*
X302485901Y-338872374D01*
X302445503Y-338690104D01*
X302414878Y-338470047D01*
X302392607Y-338199433D01*
X302377270Y-337865492D01*
X302367448Y-337455453D01*
X302361720Y-336956547D01*
X302358666Y-336356003D01*
X302351863Y-334319175D01*
X302506480Y-334011188D01*
X302526776Y-333971596D01*
X302658305Y-333744694D01*
X302801231Y-333537642D01*
X302939142Y-333370660D01*
X303055625Y-333263969D01*
X303134265Y-333237790D01*
X303158102Y-333250637D01*
X303266823Y-333320863D01*
X303441133Y-333439821D01*
X303662936Y-333595065D01*
X303914135Y-333774149D01*
X304024941Y-333853700D01*
X304279564Y-334035588D01*
X304504770Y-334195253D01*
X304679452Y-334317769D01*
X304782500Y-334388209D01*
X304943772Y-334493837D01*
X304925518Y-333174784D01*
X304921194Y-332879835D01*
X304914448Y-332523321D01*
X304906149Y-332256035D01*
X304894912Y-332062873D01*
X304879350Y-331928729D01*
X304858076Y-331838496D01*
X304829705Y-331777071D01*
X304792849Y-331729347D01*
X304616631Y-331582681D01*
X304331877Y-331441318D01*
X304004907Y-331356658D01*
X303958592Y-331349295D01*
X303796433Y-331311746D01*
X303742560Y-331275419D01*
X303791922Y-331244406D01*
X303939470Y-331222799D01*
X304180154Y-331214687D01*
X304355764Y-331219476D01*
G37*
G36*
X314624146Y-335799417D02*
G01*
X314640172Y-336308405D01*
X314605103Y-336805531D01*
X314520013Y-337260111D01*
X314385973Y-337641461D01*
X314182359Y-338002443D01*
X313855139Y-338395198D01*
X313445628Y-338716161D01*
X312944876Y-338973606D01*
X312802807Y-339032342D01*
X312672273Y-339085454D01*
X312616671Y-339106864D01*
X312607025Y-339101043D01*
X312525658Y-339041774D01*
X312372641Y-338926635D01*
X312161159Y-338765645D01*
X311904398Y-338568823D01*
X311615545Y-338346189D01*
X311514963Y-338268006D01*
X311228041Y-338039523D01*
X310980896Y-337834634D01*
X310786495Y-337664562D01*
X310657804Y-337540535D01*
X310607792Y-337473779D01*
X310607702Y-337473291D01*
X310606052Y-337413870D01*
X310647665Y-337425957D01*
X310750810Y-337514792D01*
X310909928Y-337641057D01*
X311239314Y-337803112D01*
X311589098Y-337867025D01*
X311939666Y-337835798D01*
X312271404Y-337712430D01*
X312564699Y-337499923D01*
X312799937Y-337201278D01*
X312840951Y-337126884D01*
X312926829Y-336940349D01*
X312975912Y-336788465D01*
X312978735Y-336773144D01*
X312982669Y-336720279D01*
X312967598Y-336668641D01*
X312922460Y-336609257D01*
X312836196Y-336533155D01*
X312697744Y-336431361D01*
X312496046Y-336294904D01*
X312220039Y-336114811D01*
X311858665Y-335882109D01*
X311641640Y-335742267D01*
X311610885Y-335722306D01*
X312021738Y-335722306D01*
X312039606Y-335764217D01*
X312073734Y-335791382D01*
X312197109Y-335876695D01*
X312378400Y-335994576D01*
X312591862Y-336128062D01*
X312721978Y-336207375D01*
X312905659Y-336317152D01*
X313036543Y-336392533D01*
X313092425Y-336420543D01*
X313095379Y-336411190D01*
X313102130Y-336314736D01*
X313107936Y-336127042D01*
X313112480Y-335864561D01*
X313115440Y-335543747D01*
X313116498Y-335181053D01*
X313116279Y-335024685D01*
X313114131Y-334680544D01*
X313109983Y-334386924D01*
X313104196Y-334159798D01*
X313097128Y-334015138D01*
X313089142Y-333968919D01*
X313059191Y-334011005D01*
X312975646Y-334135821D01*
X312849717Y-334327014D01*
X312691932Y-334568592D01*
X312512814Y-334844564D01*
X312345605Y-335105144D01*
X312192019Y-335352746D01*
X312091286Y-335529512D01*
X312036745Y-335648385D01*
X312021738Y-335722306D01*
X311610885Y-335722306D01*
X311339610Y-335546238D01*
X311080003Y-335376048D01*
X310876324Y-335240626D01*
X310742078Y-335148904D01*
X310690769Y-335109812D01*
X310693218Y-335096566D01*
X310739065Y-335005359D01*
X310831865Y-334845251D01*
X310959797Y-334634731D01*
X311111040Y-334392290D01*
X311273773Y-334136417D01*
X311436175Y-333885604D01*
X311586424Y-333658341D01*
X311712700Y-333473117D01*
X311803182Y-333348424D01*
X311846048Y-333302750D01*
X311846771Y-333302799D01*
X311914104Y-333326307D01*
X312068645Y-333387974D01*
X312293402Y-333480787D01*
X312571387Y-333597735D01*
X312885608Y-333731804D01*
X313049862Y-333802932D01*
X313451116Y-333984971D01*
X313763225Y-334144662D01*
X314000236Y-334293184D01*
X314176198Y-334441717D01*
X314305158Y-334601438D01*
X314401165Y-334783526D01*
X314478265Y-334999161D01*
X314523836Y-335181053D01*
X314555955Y-335309254D01*
X314624146Y-335799417D01*
G37*
G36*
X293322881Y-336096156D02*
G01*
X293325274Y-336571118D01*
X293332145Y-336946493D01*
X293345009Y-337234242D01*
X293365384Y-337446321D01*
X293394787Y-337594690D01*
X293434732Y-337691307D01*
X293486739Y-337748131D01*
X293552322Y-337777120D01*
X293576239Y-337783970D01*
X293658778Y-337835291D01*
X293629826Y-337900964D01*
X293490926Y-337979531D01*
X293243621Y-338069528D01*
X293193656Y-338086157D01*
X292905982Y-338205471D01*
X292593509Y-338366244D01*
X292289483Y-338548796D01*
X292027147Y-338733449D01*
X291839746Y-338900525D01*
X291820787Y-338920990D01*
X291727102Y-339014195D01*
X291675732Y-339052075D01*
X291646386Y-339032435D01*
X291555727Y-338950182D01*
X291430632Y-338825613D01*
X291261975Y-338671842D01*
X291020873Y-338509286D01*
X290717661Y-338361843D01*
X290326578Y-338215274D01*
X290047065Y-338111371D01*
X289717974Y-337952073D01*
X289493859Y-337786071D01*
X289369051Y-337609779D01*
X289355290Y-337570113D01*
X289333003Y-337459563D01*
X289315977Y-337294395D01*
X289303671Y-337062655D01*
X289295548Y-336752390D01*
X289291614Y-336400399D01*
X290862894Y-336400399D01*
X290862897Y-336433291D01*
X290863473Y-336840274D01*
X290864950Y-337205924D01*
X290867195Y-337515625D01*
X290870073Y-337754759D01*
X290873452Y-337908712D01*
X290877196Y-337962866D01*
X290918889Y-337929792D01*
X291022421Y-337838530D01*
X291163911Y-337709830D01*
X291303524Y-337593978D01*
X291474427Y-337480109D01*
X291607267Y-337421520D01*
X291778209Y-337383975D01*
X291778209Y-335786718D01*
X291778128Y-335549959D01*
X291777146Y-335130021D01*
X291774423Y-334806250D01*
X291769185Y-334566275D01*
X291760654Y-334397727D01*
X291748056Y-334288236D01*
X291730614Y-334225431D01*
X291707553Y-334196944D01*
X291678097Y-334190403D01*
X291665625Y-334190921D01*
X291504373Y-334239070D01*
X291312723Y-334347374D01*
X291129443Y-334490259D01*
X290993302Y-334642149D01*
X290959267Y-334694914D01*
X290928056Y-334756812D01*
X290904432Y-334833460D01*
X290887340Y-334939094D01*
X290875723Y-335087954D01*
X290868527Y-335294276D01*
X290864693Y-335572299D01*
X290863168Y-335936261D01*
X290862894Y-336400399D01*
X289291614Y-336400399D01*
X289291069Y-336351647D01*
X289289696Y-335848471D01*
X289289696Y-334275273D01*
X289452250Y-333944233D01*
X289573422Y-333743172D01*
X289802770Y-333488049D01*
X290115003Y-333246766D01*
X290517961Y-333014317D01*
X291019486Y-332785700D01*
X291627418Y-332555908D01*
X291923994Y-332447603D01*
X292225452Y-332320452D01*
X292441171Y-332202470D01*
X292585975Y-332085225D01*
X292674687Y-331960287D01*
X292701041Y-331889242D01*
X292687897Y-331730447D01*
X292573249Y-331595495D01*
X292365692Y-331492007D01*
X292073823Y-331427603D01*
X292008569Y-331418269D01*
X291865330Y-331389670D01*
X291792554Y-331362515D01*
X291769477Y-331315897D01*
X291823051Y-331284038D01*
X291948064Y-331278296D01*
X292123190Y-331295460D01*
X292327104Y-331332321D01*
X292538479Y-331385667D01*
X292735990Y-331452288D01*
X292898310Y-331528975D01*
X293178479Y-331749992D01*
X293376272Y-332031166D01*
X293479077Y-332349920D01*
X293480924Y-332687543D01*
X293375842Y-333025326D01*
X293345153Y-333083278D01*
X293156433Y-333339119D01*
X292894291Y-333593512D01*
X292588472Y-333820436D01*
X292268720Y-333993869D01*
X292250641Y-334001819D01*
X292069580Y-334090431D01*
X291941322Y-334169209D01*
X291892624Y-334221929D01*
X291931714Y-334321101D01*
X292062711Y-334423766D01*
X292262258Y-334505171D01*
X292505775Y-334558190D01*
X292768679Y-334575698D01*
X293026389Y-334550569D01*
X293322804Y-334491961D01*
X293322804Y-335967393D01*
X293322881Y-336096156D01*
G37*
G36*
X307238457Y-331239889D02*
G01*
X307254882Y-331243335D01*
X307389966Y-331270678D01*
X307592343Y-331310798D01*
X307824831Y-331356312D01*
X308130881Y-331421490D01*
X308585963Y-331548937D01*
X308944237Y-331697996D01*
X309216530Y-331874830D01*
X309413668Y-332085605D01*
X309546477Y-332336483D01*
X309644402Y-332592896D01*
X309794676Y-332318544D01*
X309816961Y-332278252D01*
X309965583Y-332029845D01*
X310097641Y-331842783D01*
X310202268Y-331731054D01*
X310268593Y-331708646D01*
X310279721Y-331763129D01*
X310230948Y-331863720D01*
X310133590Y-332014047D01*
X309986238Y-332284141D01*
X309845288Y-332583933D01*
X309733713Y-332867064D01*
X309713201Y-332930817D01*
X309689669Y-333023493D01*
X309670805Y-333133793D01*
X309656102Y-333273815D01*
X309645053Y-333455659D01*
X309637150Y-333691422D01*
X309631886Y-333993203D01*
X309628755Y-334373102D01*
X309627248Y-334843216D01*
X309626858Y-335415644D01*
X309626875Y-335637629D01*
X309627534Y-336198435D01*
X309630187Y-336658336D01*
X309636225Y-337027340D01*
X309647040Y-337315453D01*
X309664022Y-337532684D01*
X309688563Y-337689039D01*
X309722054Y-337794526D01*
X309765887Y-337859151D01*
X309821452Y-337892922D01*
X309890141Y-337905846D01*
X309973345Y-337907930D01*
X310091645Y-337919811D01*
X310132584Y-337962996D01*
X310066470Y-338034736D01*
X309894425Y-338131853D01*
X309824522Y-338171060D01*
X309644497Y-338295613D01*
X309432911Y-338463293D01*
X309222240Y-338649111D01*
X309095977Y-338765373D01*
X308930899Y-338911084D01*
X308808475Y-339011374D01*
X308748676Y-339049365D01*
X308719057Y-339036837D01*
X308612833Y-338966856D01*
X308453425Y-338849001D01*
X308262415Y-338698830D01*
X308188534Y-338639994D01*
X307935993Y-338447588D01*
X307679766Y-338262946D01*
X307465353Y-338119156D01*
X307433504Y-338098943D01*
X307271137Y-337990414D01*
X307162424Y-337908336D01*
X307129453Y-337869149D01*
X307147497Y-337865028D01*
X307249239Y-337875707D01*
X307404436Y-337908876D01*
X307559509Y-337938365D01*
X307778305Y-337926255D01*
X307929342Y-337827706D01*
X308021296Y-337638920D01*
X308027328Y-337608867D01*
X308042020Y-337455412D01*
X308054475Y-337207769D01*
X308064703Y-336880668D01*
X308072714Y-336488839D01*
X308078519Y-336047013D01*
X308082127Y-335569918D01*
X308083550Y-335072286D01*
X308082796Y-334568847D01*
X308079877Y-334074331D01*
X308074803Y-333603467D01*
X308067584Y-333170987D01*
X308058229Y-332791620D01*
X308046750Y-332480097D01*
X308033157Y-332251147D01*
X308017460Y-332119501D01*
X307996323Y-332036315D01*
X307856204Y-331742487D01*
X307636551Y-331522400D01*
X307349416Y-331389229D01*
X307279076Y-331367174D01*
X307162539Y-331311839D01*
X307108544Y-331260903D01*
X307129661Y-331231281D01*
X307238457Y-331239889D01*
G37*
G36*
X301466488Y-335799417D02*
G01*
X301482514Y-336308405D01*
X301447446Y-336805531D01*
X301362356Y-337260111D01*
X301228315Y-337641461D01*
X301024701Y-338002443D01*
X300697481Y-338395198D01*
X300287971Y-338716161D01*
X299787218Y-338973606D01*
X299645149Y-339032342D01*
X299514616Y-339085454D01*
X299459013Y-339106864D01*
X299449367Y-339101043D01*
X299368001Y-339041774D01*
X299214983Y-338926635D01*
X299003501Y-338765645D01*
X298746740Y-338568823D01*
X298457887Y-338346189D01*
X298357305Y-338268006D01*
X298070384Y-338039523D01*
X297823239Y-337834634D01*
X297628837Y-337664562D01*
X297500147Y-337540535D01*
X297450135Y-337473779D01*
X297450045Y-337473291D01*
X297448395Y-337413870D01*
X297490007Y-337425957D01*
X297593153Y-337514792D01*
X297752271Y-337641057D01*
X298081656Y-337803112D01*
X298431440Y-337867025D01*
X298782008Y-337835798D01*
X299113747Y-337712430D01*
X299407042Y-337499923D01*
X299642280Y-337201278D01*
X299683294Y-337126884D01*
X299769171Y-336940349D01*
X299818254Y-336788465D01*
X299821077Y-336773144D01*
X299825012Y-336720279D01*
X299809940Y-336668641D01*
X299764803Y-336609257D01*
X299678538Y-336533155D01*
X299540087Y-336431361D01*
X299338388Y-336294904D01*
X299062382Y-336114811D01*
X298701007Y-335882109D01*
X298483982Y-335742267D01*
X298453227Y-335722306D01*
X298864081Y-335722306D01*
X298881948Y-335764217D01*
X298916076Y-335791382D01*
X299039451Y-335876695D01*
X299220743Y-335994576D01*
X299434205Y-336128062D01*
X299564321Y-336207375D01*
X299748001Y-336317152D01*
X299878885Y-336392533D01*
X299934768Y-336420543D01*
X299937722Y-336411190D01*
X299944472Y-336314736D01*
X299950279Y-336127042D01*
X299954822Y-335864561D01*
X299957782Y-335543747D01*
X299958840Y-335181053D01*
X299958621Y-335024685D01*
X299956474Y-334680544D01*
X299952326Y-334386924D01*
X299946538Y-334159798D01*
X299939471Y-334015138D01*
X299931485Y-333968919D01*
X299901534Y-334011005D01*
X299817988Y-334135821D01*
X299692060Y-334327014D01*
X299534274Y-334568592D01*
X299355156Y-334844564D01*
X299187947Y-335105144D01*
X299034361Y-335352746D01*
X298933628Y-335529512D01*
X298879087Y-335648385D01*
X298864081Y-335722306D01*
X298453227Y-335722306D01*
X298181952Y-335546238D01*
X297922345Y-335376048D01*
X297718667Y-335240626D01*
X297584420Y-335148904D01*
X297533111Y-335109812D01*
X297535561Y-335096566D01*
X297581408Y-335005359D01*
X297674208Y-334845251D01*
X297802140Y-334634731D01*
X297953383Y-334392290D01*
X298116115Y-334136417D01*
X298278517Y-333885604D01*
X298428766Y-333658341D01*
X298555043Y-333473117D01*
X298645524Y-333348424D01*
X298688391Y-333302750D01*
X298689113Y-333302799D01*
X298756447Y-333326307D01*
X298910987Y-333387974D01*
X299135745Y-333480787D01*
X299413729Y-333597735D01*
X299727950Y-333731804D01*
X299892204Y-333802932D01*
X300293458Y-333984971D01*
X300605567Y-334144662D01*
X300842578Y-334293184D01*
X301018540Y-334441717D01*
X301147500Y-334601438D01*
X301243507Y-334783526D01*
X301320608Y-334999161D01*
X301366179Y-335181053D01*
X301398297Y-335309254D01*
X301466488Y-335799417D01*
G37*
G36*
X295868047Y-333439549D02*
G01*
X295898200Y-333468124D01*
X296163888Y-333702545D01*
X296448505Y-333928396D01*
X296719420Y-334120934D01*
X296944004Y-334255416D01*
X296979160Y-334274150D01*
X297099208Y-334362384D01*
X297113798Y-334423477D01*
X297029894Y-334445043D01*
X296854460Y-334414694D01*
X296679947Y-334384934D01*
X296527241Y-334417845D01*
X296499832Y-334434870D01*
X296471783Y-334466344D01*
X296450412Y-334520969D01*
X296434799Y-334611784D01*
X296424021Y-334751826D01*
X296417158Y-334954132D01*
X296413288Y-335231740D01*
X296411490Y-335597687D01*
X296410843Y-336065011D01*
X296408813Y-336597921D01*
X296401174Y-337120026D01*
X296385819Y-337549410D01*
X296360609Y-337897693D01*
X296323405Y-338176498D01*
X296272069Y-338397445D01*
X296204461Y-338572157D01*
X296118442Y-338712255D01*
X296011873Y-338829360D01*
X295882616Y-338935095D01*
X295828791Y-338973837D01*
X295739762Y-339027034D01*
X295653425Y-339050874D01*
X295557093Y-339038788D01*
X295438082Y-338984206D01*
X295283706Y-338880560D01*
X295081280Y-338721279D01*
X294818118Y-338499795D01*
X294481535Y-338209539D01*
X294290921Y-338039825D01*
X294165751Y-337915156D01*
X294132542Y-337858401D01*
X294191271Y-337869513D01*
X294341910Y-337948445D01*
X294404808Y-337981970D01*
X294530586Y-338015206D01*
X294658296Y-337979591D01*
X294664698Y-337976610D01*
X294742555Y-337925125D01*
X294803755Y-337845089D01*
X294849942Y-337724251D01*
X294882758Y-337550363D01*
X294903847Y-337311174D01*
X294914851Y-336994435D01*
X294917413Y-336587898D01*
X294913178Y-336079311D01*
X294910840Y-335895112D01*
X294905279Y-335506879D01*
X294898911Y-335212080D01*
X294890194Y-334995724D01*
X294877582Y-334842816D01*
X294859532Y-334738363D01*
X294834500Y-334667372D01*
X294800942Y-334614850D01*
X294757314Y-334565803D01*
X294634404Y-334469430D01*
X294456976Y-334418291D01*
X294401441Y-334416594D01*
X294315122Y-334393495D01*
X294322614Y-334338875D01*
X294427171Y-334247041D01*
X294632051Y-334112300D01*
X294641122Y-334106654D01*
X294855244Y-333954833D01*
X295092707Y-333759823D01*
X295303759Y-333562357D01*
X295638741Y-333220253D01*
X295868047Y-333439549D01*
G37*
G36*
X295796256Y-331232003D02*
G01*
X296059332Y-331308943D01*
X296273109Y-331453683D01*
X296416696Y-331651457D01*
X296469200Y-331887501D01*
X296462181Y-331983597D01*
X296383303Y-332257892D01*
X296233628Y-332529680D01*
X296034270Y-332756768D01*
X295974822Y-332806232D01*
X295846324Y-332895523D01*
X295760703Y-332930903D01*
X295694539Y-332912964D01*
X295553423Y-332832438D01*
X295390104Y-332710165D01*
X295237472Y-332571571D01*
X295128413Y-332442080D01*
X295019534Y-332227102D01*
X294963180Y-331951817D01*
X294993945Y-331694933D01*
X295105092Y-331476177D01*
X295289887Y-331315278D01*
X295541592Y-331231963D01*
X295796256Y-331232003D01*
G37*
G36*
X319638196Y-336096156D02*
G01*
X319640590Y-336571118D01*
X319647460Y-336946493D01*
X319660325Y-337234242D01*
X319680700Y-337446321D01*
X319710102Y-337594690D01*
X319750048Y-337691307D01*
X319802054Y-337748131D01*
X319867637Y-337777120D01*
X319891554Y-337783970D01*
X319974093Y-337835291D01*
X319945141Y-337900964D01*
X319806242Y-337979531D01*
X319558936Y-338069528D01*
X319508972Y-338086157D01*
X319221297Y-338205471D01*
X318908825Y-338366244D01*
X318604798Y-338548796D01*
X318342463Y-338733449D01*
X318155062Y-338900525D01*
X318136102Y-338920990D01*
X318042418Y-339014195D01*
X317991047Y-339052075D01*
X317961701Y-339032435D01*
X317871042Y-338950182D01*
X317745948Y-338825613D01*
X317577290Y-338671842D01*
X317336188Y-338509286D01*
X317032976Y-338361843D01*
X316641893Y-338215274D01*
X316362380Y-338111371D01*
X316033289Y-337952073D01*
X315809174Y-337786071D01*
X315684366Y-337609779D01*
X315670605Y-337570113D01*
X315648319Y-337459563D01*
X315631292Y-337294395D01*
X315618986Y-337062655D01*
X315610863Y-336752390D01*
X315606929Y-336400399D01*
X317178209Y-336400399D01*
X317178213Y-336433291D01*
X317178789Y-336840274D01*
X317180266Y-337205924D01*
X317182510Y-337515625D01*
X317185389Y-337754759D01*
X317188767Y-337908712D01*
X317192511Y-337962866D01*
X317234205Y-337929792D01*
X317337736Y-337838530D01*
X317479226Y-337709830D01*
X317618839Y-337593978D01*
X317789742Y-337480109D01*
X317922582Y-337421520D01*
X318093525Y-337383975D01*
X318093525Y-335786718D01*
X318093444Y-335549959D01*
X318092461Y-335130021D01*
X318089739Y-334806250D01*
X318084500Y-334566275D01*
X318075969Y-334397727D01*
X318063371Y-334288236D01*
X318045929Y-334225431D01*
X318022868Y-334196944D01*
X317993412Y-334190403D01*
X317980940Y-334190921D01*
X317819688Y-334239070D01*
X317628038Y-334347374D01*
X317444758Y-334490259D01*
X317308617Y-334642149D01*
X317274583Y-334694914D01*
X317243371Y-334756812D01*
X317219747Y-334833460D01*
X317202655Y-334939094D01*
X317191039Y-335087954D01*
X317183842Y-335294276D01*
X317180009Y-335572299D01*
X317178483Y-335936261D01*
X317178209Y-336400399D01*
X315606929Y-336400399D01*
X315606384Y-336351647D01*
X315605011Y-335848471D01*
X315605011Y-334275273D01*
X315767565Y-333944233D01*
X315888737Y-333743172D01*
X316118085Y-333488049D01*
X316430318Y-333246766D01*
X316833277Y-333014317D01*
X317334802Y-332785700D01*
X317942733Y-332555908D01*
X318239310Y-332447603D01*
X318540768Y-332320452D01*
X318756487Y-332202470D01*
X318901290Y-332085225D01*
X318990002Y-331960287D01*
X319016356Y-331889242D01*
X319003213Y-331730447D01*
X318888564Y-331595495D01*
X318681007Y-331492007D01*
X318389138Y-331427603D01*
X318323884Y-331418269D01*
X318180646Y-331389670D01*
X318107869Y-331362515D01*
X318084793Y-331315897D01*
X318138367Y-331284038D01*
X318263380Y-331278296D01*
X318438506Y-331295460D01*
X318642419Y-331332321D01*
X318853794Y-331385667D01*
X319051305Y-331452288D01*
X319213626Y-331528975D01*
X319493794Y-331749992D01*
X319691587Y-332031166D01*
X319794392Y-332349920D01*
X319796240Y-332687543D01*
X319691158Y-333025326D01*
X319660469Y-333083278D01*
X319471748Y-333339119D01*
X319209606Y-333593512D01*
X318903788Y-333820436D01*
X318584036Y-333993869D01*
X318565956Y-334001819D01*
X318384895Y-334090431D01*
X318256637Y-334169209D01*
X318207939Y-334221929D01*
X318247029Y-334321101D01*
X318378026Y-334423766D01*
X318577573Y-334505171D01*
X318821090Y-334558190D01*
X319083994Y-334575698D01*
X319341705Y-334550569D01*
X319638119Y-334491961D01*
X319638119Y-335967393D01*
X319638196Y-336096156D01*
G37*
G36*
X326330094Y-331307314D02*
G01*
X326651775Y-331322278D01*
X326907505Y-331363087D01*
X327140990Y-331436489D01*
X327437512Y-331576473D01*
X327831356Y-331852987D01*
X328158390Y-332196719D01*
X328406715Y-332591327D01*
X328564434Y-333020466D01*
X328619651Y-333467793D01*
X328618321Y-333542862D01*
X328548756Y-333998011D01*
X328378150Y-334406356D01*
X328112862Y-334759091D01*
X327759250Y-335047411D01*
X327323673Y-335262510D01*
X327263342Y-335285460D01*
X327122658Y-335353507D01*
X327054461Y-335429067D01*
X327029245Y-335539943D01*
X327055389Y-335694129D01*
X327174758Y-335874222D01*
X327371924Y-336039298D01*
X327628405Y-336169924D01*
X327710502Y-336205014D01*
X327825111Y-336271761D01*
X327877155Y-336325808D01*
X327855057Y-336351322D01*
X327747241Y-336332467D01*
X327585837Y-336278732D01*
X327172688Y-336076446D01*
X326850296Y-335806785D01*
X326615885Y-335467624D01*
X326584816Y-335404214D01*
X326517225Y-335223043D01*
X326484168Y-335024878D01*
X326476104Y-334761534D01*
X326485518Y-334560675D01*
X326575556Y-334130843D01*
X326760048Y-333764830D01*
X327037985Y-333464291D01*
X327408360Y-333230882D01*
X327694703Y-333066321D01*
X327929001Y-332858482D01*
X328060600Y-332636071D01*
X328085648Y-332405960D01*
X328000294Y-332175019D01*
X327974782Y-332136141D01*
X327759533Y-331919051D01*
X327487609Y-331787526D01*
X327183819Y-331749532D01*
X326872969Y-331813033D01*
X326782482Y-331852204D01*
X326539586Y-332016079D01*
X326339249Y-332253742D01*
X326179479Y-332571268D01*
X326058284Y-332974734D01*
X325973672Y-333470216D01*
X325923650Y-334063791D01*
X325906227Y-334761534D01*
X325906232Y-334942724D01*
X325914166Y-335376509D01*
X325941850Y-335726327D01*
X325999588Y-336013914D01*
X326097685Y-336261007D01*
X326246444Y-336489340D01*
X326456170Y-336720650D01*
X326737167Y-336976671D01*
X327099738Y-337279140D01*
X327311478Y-337467307D01*
X327526316Y-337686043D01*
X327722936Y-337911573D01*
X327888300Y-338126877D01*
X328009368Y-338314932D01*
X328073102Y-338458717D01*
X328066463Y-338541208D01*
X328042625Y-338556295D01*
X327973532Y-338526799D01*
X327878232Y-338397873D01*
X327816888Y-338311467D01*
X327587182Y-338101926D01*
X327304427Y-337960091D01*
X327007658Y-337907930D01*
X326707704Y-337957143D01*
X326375232Y-338098573D01*
X326030444Y-338321851D01*
X325692582Y-338616608D01*
X325527373Y-338779085D01*
X325409817Y-338883302D01*
X325331991Y-338928153D01*
X325273203Y-338925269D01*
X325212763Y-338886276D01*
X325211644Y-338885399D01*
X325131312Y-338817030D01*
X324982442Y-338685601D01*
X324780459Y-338504912D01*
X324540792Y-338288761D01*
X324278867Y-338050948D01*
X324257159Y-338031183D01*
X324003286Y-337801346D01*
X323778562Y-337600220D01*
X323596775Y-337439967D01*
X323471711Y-337332750D01*
X323417157Y-337290732D01*
X323390186Y-337327768D01*
X323358582Y-337451297D01*
X323331203Y-337633649D01*
X323238413Y-338078793D01*
X323066998Y-338446291D01*
X322816154Y-338733117D01*
X322484500Y-338941406D01*
X322465827Y-338949521D01*
X322411239Y-338963972D01*
X322349943Y-338956068D01*
X322268689Y-338916999D01*
X322154225Y-338837953D01*
X321993302Y-338710120D01*
X321772668Y-338524687D01*
X321479073Y-338272845D01*
X321436164Y-338235818D01*
X321180149Y-338011176D01*
X320960821Y-337812487D01*
X320790873Y-337651709D01*
X320682995Y-337540795D01*
X320649877Y-337491702D01*
X320660673Y-337485458D01*
X320736461Y-337512517D01*
X320851649Y-337594759D01*
X320934700Y-337656780D01*
X321102474Y-337718598D01*
X321248055Y-337669305D01*
X321380042Y-337507480D01*
X321382300Y-337503613D01*
X321409925Y-337451670D01*
X321432863Y-337392379D01*
X321451639Y-337315034D01*
X321466783Y-337208928D01*
X321478822Y-337063354D01*
X321488284Y-336867607D01*
X321495696Y-336610979D01*
X321501586Y-336282764D01*
X321506482Y-335872256D01*
X321510912Y-335368748D01*
X321515404Y-334761534D01*
X321518029Y-334321821D01*
X321519581Y-333661316D01*
X321517419Y-333112639D01*
X321511517Y-332674198D01*
X321501851Y-332344399D01*
X321488395Y-332121649D01*
X321471122Y-332004355D01*
X321467890Y-331993672D01*
X321341962Y-331761788D01*
X321130819Y-331605246D01*
X320833204Y-331523096D01*
X320715320Y-331504440D01*
X320580060Y-331467751D01*
X320546764Y-331433658D01*
X320607476Y-331408375D01*
X320754242Y-331398118D01*
X320979107Y-331409101D01*
X320999126Y-331410967D01*
X321503464Y-331492291D01*
X321976107Y-331631892D01*
X322396929Y-331820802D01*
X322745804Y-332050055D01*
X323002606Y-332310682D01*
X323206935Y-332584374D01*
X323326904Y-332168435D01*
X323330850Y-332154878D01*
X323417268Y-331903285D01*
X323514926Y-331685990D01*
X323612720Y-331521793D01*
X323699546Y-331429494D01*
X323764299Y-331427894D01*
X323774049Y-331448899D01*
X323761402Y-331557143D01*
X323700042Y-331715606D01*
X323647713Y-331826025D01*
X323582306Y-331976819D01*
X323528913Y-332126372D01*
X323486168Y-332287534D01*
X323452707Y-332473157D01*
X323427168Y-332696090D01*
X323408186Y-332969185D01*
X323394398Y-333305291D01*
X323384439Y-333717260D01*
X323376945Y-334217941D01*
X323370554Y-334820186D01*
X323349447Y-337024109D01*
X323785811Y-337416203D01*
X323893329Y-337512623D01*
X324054439Y-337653198D01*
X324158179Y-337731226D01*
X324222941Y-337756124D01*
X324267115Y-337737312D01*
X324309090Y-337684208D01*
X324459825Y-337499589D01*
X324651932Y-337332913D01*
X324898382Y-337181621D01*
X325218601Y-337033869D01*
X325632019Y-336877816D01*
X326237272Y-336664836D01*
X325668500Y-336372677D01*
X325370226Y-336212956D01*
X324955972Y-335956766D01*
X324634358Y-335700009D01*
X324393260Y-335427855D01*
X324220552Y-335125475D01*
X324104109Y-334778036D01*
X324031809Y-334370710D01*
X324007881Y-334131869D01*
X324003616Y-333524515D01*
X324089704Y-332986792D01*
X324266603Y-332517706D01*
X324534771Y-332116261D01*
X324894665Y-331781463D01*
X325346743Y-331512317D01*
X325499275Y-331441418D01*
X325686382Y-331366331D01*
X325852565Y-331325362D01*
X326042900Y-331308828D01*
X326302461Y-331307049D01*
X326330094Y-331307314D01*
G37*
%LPC*%
D11*
X287972321Y-336597761D02*
X286638988Y-338597761D01*
X286638988Y-336597761D02*
X287972321Y-338597761D01*
X286162797Y-336597761D02*
X285019940Y-336597761D01*
X285591369Y-338597761D02*
X285591369Y-336597761D01*
M02*
