G04 #@! TF.GenerationSoftware,KiCad,Pcbnew,(6.0.1-0)*
G04 #@! TF.CreationDate,2022-06-13T17:24:51-07:00*
G04 #@! TF.ProjectId,adelheid-xt,6164656c-6865-4696-942d-78742e6b6963,rev?*
G04 #@! TF.SameCoordinates,Original*
G04 #@! TF.FileFunction,Legend,Top*
G04 #@! TF.FilePolarity,Positive*
%FSLAX46Y46*%
G04 Gerber Fmt 4.6, Leading zero omitted, Abs format (unit mm)*
G04 Created by KiCad (PCBNEW (6.0.1-0)) date 2022-06-13 17:24:51*
%MOMM*%
%LPD*%
G01*
G04 APERTURE LIST*
%ADD10C,0.150000*%
%ADD11C,0.120000*%
%ADD12R,1.700000X1.700000*%
%ADD13C,1.700000*%
%ADD14C,3.987800*%
%ADD15C,1.750000*%
%ADD16C,3.000000*%
%ADD17C,3.048000*%
%ADD18O,1.700000X1.700000*%
%ADD19C,2.000000*%
%ADD20R,2.000000X2.000000*%
%ADD21R,2.000000X3.200000*%
G04 APERTURE END LIST*
D10*
X284248433Y-374416580D02*
X284248433Y-373416580D01*
X284629385Y-373416580D01*
X284724623Y-373464200D01*
X284772242Y-373511819D01*
X284819861Y-373607057D01*
X284819861Y-373749914D01*
X284772242Y-373845152D01*
X284724623Y-373892771D01*
X284629385Y-373940390D01*
X284248433Y-373940390D01*
X285724623Y-374416580D02*
X285248433Y-374416580D01*
X285248433Y-373416580D01*
X286057957Y-373416580D02*
X286057957Y-374226104D01*
X286105576Y-374321342D01*
X286153195Y-374368961D01*
X286248433Y-374416580D01*
X286438909Y-374416580D01*
X286534147Y-374368961D01*
X286581766Y-374321342D01*
X286629385Y-374226104D01*
X286629385Y-373416580D01*
X287057957Y-374368961D02*
X287200814Y-374416580D01*
X287438909Y-374416580D01*
X287534147Y-374368961D01*
X287581766Y-374321342D01*
X287629385Y-374226104D01*
X287629385Y-374130866D01*
X287581766Y-374035628D01*
X287534147Y-373988009D01*
X287438909Y-373940390D01*
X287248433Y-373892771D01*
X287153195Y-373845152D01*
X287105576Y-373797533D01*
X287057957Y-373702295D01*
X287057957Y-373607057D01*
X287105576Y-373511819D01*
X287153195Y-373464200D01*
X287248433Y-373416580D01*
X287486528Y-373416580D01*
X287629385Y-373464200D01*
X171186523Y-263612261D02*
X171329380Y-263659880D01*
X171567476Y-263659880D01*
X171662714Y-263612261D01*
X171710333Y-263564642D01*
X171757952Y-263469404D01*
X171757952Y-263374166D01*
X171710333Y-263278928D01*
X171662714Y-263231309D01*
X171567476Y-263183690D01*
X171377000Y-263136071D01*
X171281761Y-263088452D01*
X171234142Y-263040833D01*
X171186523Y-262945595D01*
X171186523Y-262850357D01*
X171234142Y-262755119D01*
X171281761Y-262707500D01*
X171377000Y-262659880D01*
X171615095Y-262659880D01*
X171757952Y-262707500D01*
X172757952Y-263564642D02*
X172710333Y-263612261D01*
X172567476Y-263659880D01*
X172472238Y-263659880D01*
X172329380Y-263612261D01*
X172234142Y-263517023D01*
X172186523Y-263421785D01*
X172138904Y-263231309D01*
X172138904Y-263088452D01*
X172186523Y-262897976D01*
X172234142Y-262802738D01*
X172329380Y-262707500D01*
X172472238Y-262659880D01*
X172567476Y-262659880D01*
X172710333Y-262707500D01*
X172757952Y-262755119D01*
X173662714Y-263659880D02*
X173186523Y-263659880D01*
X173186523Y-262659880D01*
X171043666Y-260119880D02*
X171377000Y-261119880D01*
X171710333Y-260119880D01*
X172615095Y-261024642D02*
X172567476Y-261072261D01*
X172424619Y-261119880D01*
X172329380Y-261119880D01*
X172186523Y-261072261D01*
X172091285Y-260977023D01*
X172043666Y-260881785D01*
X171996047Y-260691309D01*
X171996047Y-260548452D01*
X172043666Y-260357976D01*
X172091285Y-260262738D01*
X172186523Y-260167500D01*
X172329380Y-260119880D01*
X172424619Y-260119880D01*
X172567476Y-260167500D01*
X172615095Y-260215119D01*
X173615095Y-261024642D02*
X173567476Y-261072261D01*
X173424619Y-261119880D01*
X173329380Y-261119880D01*
X173186523Y-261072261D01*
X173091285Y-260977023D01*
X173043666Y-260881785D01*
X172996047Y-260691309D01*
X172996047Y-260548452D01*
X173043666Y-260357976D01*
X173091285Y-260262738D01*
X173186523Y-260167500D01*
X173329380Y-260119880D01*
X173424619Y-260119880D01*
X173567476Y-260167500D01*
X173615095Y-260215119D01*
X171615095Y-257627500D02*
X171519857Y-257579880D01*
X171377000Y-257579880D01*
X171234142Y-257627500D01*
X171138904Y-257722738D01*
X171091285Y-257817976D01*
X171043666Y-258008452D01*
X171043666Y-258151309D01*
X171091285Y-258341785D01*
X171138904Y-258437023D01*
X171234142Y-258532261D01*
X171377000Y-258579880D01*
X171472238Y-258579880D01*
X171615095Y-258532261D01*
X171662714Y-258484642D01*
X171662714Y-258151309D01*
X171472238Y-258151309D01*
X172091285Y-258579880D02*
X172091285Y-257579880D01*
X172662714Y-258579880D01*
X172662714Y-257579880D01*
X173138904Y-258579880D02*
X173138904Y-257579880D01*
X173377000Y-257579880D01*
X173519857Y-257627500D01*
X173615095Y-257722738D01*
X173662714Y-257817976D01*
X173710333Y-258008452D01*
X173710333Y-258151309D01*
X173662714Y-258341785D01*
X173615095Y-258437023D01*
X173519857Y-258532261D01*
X173377000Y-258579880D01*
X173138904Y-258579880D01*
X171162714Y-266152261D02*
X171305571Y-266199880D01*
X171543666Y-266199880D01*
X171638904Y-266152261D01*
X171686523Y-266104642D01*
X171734142Y-266009404D01*
X171734142Y-265914166D01*
X171686523Y-265818928D01*
X171638904Y-265771309D01*
X171543666Y-265723690D01*
X171353190Y-265676071D01*
X171257952Y-265628452D01*
X171210333Y-265580833D01*
X171162714Y-265485595D01*
X171162714Y-265390357D01*
X171210333Y-265295119D01*
X171257952Y-265247500D01*
X171353190Y-265199880D01*
X171591285Y-265199880D01*
X171734142Y-265247500D01*
X172162714Y-266199880D02*
X172162714Y-265199880D01*
X172400809Y-265199880D01*
X172543666Y-265247500D01*
X172638904Y-265342738D01*
X172686523Y-265437976D01*
X172734142Y-265628452D01*
X172734142Y-265771309D01*
X172686523Y-265961785D01*
X172638904Y-266057023D01*
X172543666Y-266152261D01*
X172400809Y-266199880D01*
X172162714Y-266199880D01*
X173115095Y-265914166D02*
X173591285Y-265914166D01*
X173019857Y-266199880D02*
X173353190Y-265199880D01*
X173686523Y-266199880D01*
G36*
X251114950Y-364858278D02*
G01*
X251305285Y-364874812D01*
X251471468Y-364915781D01*
X251658575Y-364990868D01*
X251811107Y-365061767D01*
X252263185Y-365330913D01*
X252623079Y-365665711D01*
X252891247Y-366067156D01*
X253068146Y-366536242D01*
X253154234Y-367073965D01*
X253149969Y-367681319D01*
X253126041Y-367920160D01*
X253053741Y-368327486D01*
X252937298Y-368674925D01*
X252764590Y-368977305D01*
X252523492Y-369249459D01*
X252201878Y-369506216D01*
X251787624Y-369762406D01*
X251489350Y-369922127D01*
X250920578Y-370214286D01*
X251525831Y-370427266D01*
X251939249Y-370583319D01*
X252259468Y-370731071D01*
X252505918Y-370882363D01*
X252698025Y-371049039D01*
X252848760Y-371233658D01*
X252890735Y-371286762D01*
X252934909Y-371305574D01*
X252999671Y-371280676D01*
X253103411Y-371202648D01*
X253264521Y-371062073D01*
X253372039Y-370965653D01*
X253808403Y-370573559D01*
X253787296Y-368369636D01*
X253780905Y-367767391D01*
X253773411Y-367266710D01*
X253763452Y-366854741D01*
X253749664Y-366518635D01*
X253730682Y-366245540D01*
X253705143Y-366022607D01*
X253671682Y-365836984D01*
X253628937Y-365675822D01*
X253575544Y-365526269D01*
X253510137Y-365375475D01*
X253457808Y-365265056D01*
X253396448Y-365106593D01*
X253383801Y-364998349D01*
X253393551Y-364977344D01*
X253458304Y-364978944D01*
X253545130Y-365071243D01*
X253642924Y-365235440D01*
X253740582Y-365452735D01*
X253827000Y-365704328D01*
X253830946Y-365717885D01*
X253950915Y-366133824D01*
X254155244Y-365860132D01*
X254412046Y-365599505D01*
X254760921Y-365370252D01*
X255181743Y-365181342D01*
X255654386Y-365041741D01*
X256158724Y-364960417D01*
X256178743Y-364958551D01*
X256403608Y-364947568D01*
X256550374Y-364957825D01*
X256611086Y-364983108D01*
X256577790Y-365017201D01*
X256442530Y-365053890D01*
X256324646Y-365072546D01*
X256027031Y-365154696D01*
X255815888Y-365311238D01*
X255689960Y-365543122D01*
X255686728Y-365553805D01*
X255669455Y-365671099D01*
X255655999Y-365893849D01*
X255646333Y-366223648D01*
X255640431Y-366662089D01*
X255638269Y-367210766D01*
X255639821Y-367871271D01*
X255642446Y-368310984D01*
X255646938Y-368918198D01*
X255651368Y-369421706D01*
X255656264Y-369832214D01*
X255662154Y-370160429D01*
X255669566Y-370417057D01*
X255679028Y-370612804D01*
X255691067Y-370758378D01*
X255706211Y-370864484D01*
X255724987Y-370941829D01*
X255747925Y-371001120D01*
X255775550Y-371053063D01*
X255777808Y-371056930D01*
X255909795Y-371218755D01*
X256055376Y-371268048D01*
X256223150Y-371206230D01*
X256306201Y-371144209D01*
X256421389Y-371061967D01*
X256497177Y-371034908D01*
X256507973Y-371041152D01*
X256474855Y-371090245D01*
X256366977Y-371201159D01*
X256197029Y-371361937D01*
X255977701Y-371560626D01*
X255721686Y-371785268D01*
X255678777Y-371822295D01*
X255385182Y-372074137D01*
X255164548Y-372259570D01*
X255003625Y-372387403D01*
X254889161Y-372466449D01*
X254807907Y-372505518D01*
X254746611Y-372513422D01*
X254692023Y-372498971D01*
X254673350Y-372490856D01*
X254341696Y-372282567D01*
X254090852Y-371995741D01*
X253919437Y-371628243D01*
X253826647Y-371183099D01*
X253799268Y-371000747D01*
X253767664Y-370877218D01*
X253740693Y-370840182D01*
X253686139Y-370882200D01*
X253561075Y-370989417D01*
X253379288Y-371149670D01*
X253154564Y-371350796D01*
X252900691Y-371580633D01*
X252878983Y-371600398D01*
X252617058Y-371838211D01*
X252377391Y-372054362D01*
X252175408Y-372235051D01*
X252026538Y-372366480D01*
X251946206Y-372434849D01*
X251945087Y-372435726D01*
X251884647Y-372474719D01*
X251825859Y-372477603D01*
X251748033Y-372432752D01*
X251630477Y-372328535D01*
X251465268Y-372166058D01*
X251127406Y-371871301D01*
X250782618Y-371648023D01*
X250450146Y-371506593D01*
X250150192Y-371457380D01*
X249853423Y-371509541D01*
X249570668Y-371651376D01*
X249340962Y-371860917D01*
X249279618Y-371947323D01*
X249184318Y-372076249D01*
X249115225Y-372105745D01*
X249091387Y-372090658D01*
X249084748Y-372008167D01*
X249148482Y-371864382D01*
X249269550Y-371676327D01*
X249434914Y-371461023D01*
X249631534Y-371235493D01*
X249846372Y-371016757D01*
X250058112Y-370828590D01*
X250420683Y-370526121D01*
X250701680Y-370270100D01*
X250911406Y-370038790D01*
X251060165Y-369810457D01*
X251158262Y-369563364D01*
X251216000Y-369275777D01*
X251243684Y-368925959D01*
X251251618Y-368492174D01*
X251251623Y-368310984D01*
X251234200Y-367613241D01*
X251184178Y-367019666D01*
X251099566Y-366524184D01*
X250978371Y-366120718D01*
X250818601Y-365803192D01*
X250618264Y-365565529D01*
X250375368Y-365401654D01*
X250284881Y-365362483D01*
X249974031Y-365298982D01*
X249670241Y-365336976D01*
X249398317Y-365468501D01*
X249183068Y-365685591D01*
X249157556Y-365724469D01*
X249072202Y-365955410D01*
X249097250Y-366185521D01*
X249228849Y-366407932D01*
X249463147Y-366615771D01*
X249749490Y-366780332D01*
X250119865Y-367013741D01*
X250397802Y-367314280D01*
X250582294Y-367680293D01*
X250672332Y-368110125D01*
X250681746Y-368310984D01*
X250673682Y-368574328D01*
X250640625Y-368772493D01*
X250573034Y-368953664D01*
X250541965Y-369017074D01*
X250307554Y-369356235D01*
X249985162Y-369625896D01*
X249572013Y-369828182D01*
X249410609Y-369881917D01*
X249302793Y-369900772D01*
X249280695Y-369875258D01*
X249332739Y-369821211D01*
X249447348Y-369754464D01*
X249529445Y-369719374D01*
X249785926Y-369588748D01*
X249983092Y-369423672D01*
X250102461Y-369243579D01*
X250128605Y-369089393D01*
X250103389Y-368978517D01*
X250035192Y-368902957D01*
X249894508Y-368834910D01*
X249834177Y-368811960D01*
X249398600Y-368596861D01*
X249044988Y-368308541D01*
X248779700Y-367955806D01*
X248609094Y-367547461D01*
X248539529Y-367092312D01*
X248538199Y-367017243D01*
X248593416Y-366569916D01*
X248751135Y-366140777D01*
X248999460Y-365746169D01*
X249326494Y-365402437D01*
X249720338Y-365125923D01*
X250016860Y-364985939D01*
X250250345Y-364912537D01*
X250506075Y-364871728D01*
X250827756Y-364856764D01*
X250855389Y-364856499D01*
X251114950Y-364858278D01*
G37*
G36*
X270049306Y-364810353D02*
G01*
X269995311Y-364861289D01*
X269878774Y-364916624D01*
X269808434Y-364938679D01*
X269521299Y-365071850D01*
X269301646Y-365291937D01*
X269161527Y-365585765D01*
X269140390Y-365668951D01*
X269124693Y-365800597D01*
X269111100Y-366029547D01*
X269099621Y-366341070D01*
X269090266Y-366720437D01*
X269083047Y-367152917D01*
X269077973Y-367623781D01*
X269075054Y-368118297D01*
X269074300Y-368621736D01*
X269075723Y-369119368D01*
X269079331Y-369596463D01*
X269085136Y-370038289D01*
X269093147Y-370430118D01*
X269103375Y-370757219D01*
X269115830Y-371004862D01*
X269130522Y-371158317D01*
X269136554Y-371188370D01*
X269228508Y-371377156D01*
X269379545Y-371475705D01*
X269598341Y-371487815D01*
X269753414Y-371458326D01*
X269908611Y-371425157D01*
X270010353Y-371414478D01*
X270028397Y-371418599D01*
X269995426Y-371457786D01*
X269886713Y-371539864D01*
X269724346Y-371648393D01*
X269692497Y-371668606D01*
X269478084Y-371812396D01*
X269221857Y-371997038D01*
X268969316Y-372189444D01*
X268895435Y-372248280D01*
X268704425Y-372398451D01*
X268545017Y-372516306D01*
X268438793Y-372586287D01*
X268409174Y-372598815D01*
X268349375Y-372560824D01*
X268226951Y-372460534D01*
X268061873Y-372314823D01*
X267935610Y-372198561D01*
X267724939Y-372012743D01*
X267513353Y-371845063D01*
X267333328Y-371720510D01*
X267263425Y-371681303D01*
X267091380Y-371584186D01*
X267025266Y-371512446D01*
X267066205Y-371469261D01*
X267184505Y-371457380D01*
X267267709Y-371455296D01*
X267336398Y-371442372D01*
X267391963Y-371408601D01*
X267435796Y-371343976D01*
X267469287Y-371238489D01*
X267493828Y-371082134D01*
X267510810Y-370864903D01*
X267521625Y-370576790D01*
X267527663Y-370207786D01*
X267530316Y-369747885D01*
X267530975Y-369187079D01*
X267530992Y-368965094D01*
X267530602Y-368392666D01*
X267529095Y-367922552D01*
X267525964Y-367542653D01*
X267520700Y-367240872D01*
X267512797Y-367005109D01*
X267501748Y-366823265D01*
X267487045Y-366683243D01*
X267468181Y-366572943D01*
X267444649Y-366480267D01*
X267424137Y-366416514D01*
X267312562Y-366133383D01*
X267171612Y-365833591D01*
X267024260Y-365563497D01*
X266926902Y-365413170D01*
X266878129Y-365312579D01*
X266889257Y-365258096D01*
X266955582Y-365280504D01*
X267060209Y-365392233D01*
X267192267Y-365579295D01*
X267340889Y-365827702D01*
X267363174Y-365867994D01*
X267513448Y-366142346D01*
X267611373Y-365885933D01*
X267744182Y-365635055D01*
X267941320Y-365424280D01*
X268213613Y-365247446D01*
X268571887Y-365098387D01*
X269026969Y-364970940D01*
X269333019Y-364905762D01*
X269565507Y-364860248D01*
X269767884Y-364820128D01*
X269902968Y-364792785D01*
X269919393Y-364789339D01*
X270028189Y-364780731D01*
X270049306Y-364810353D01*
G37*
G36*
X273218380Y-364772249D02*
G01*
X273365928Y-364793856D01*
X273415290Y-364824869D01*
X273361417Y-364861196D01*
X273199258Y-364898745D01*
X273152943Y-364906108D01*
X272825973Y-364990768D01*
X272541219Y-365132131D01*
X272365001Y-365278797D01*
X272328145Y-365326521D01*
X272299774Y-365387946D01*
X272278500Y-365478179D01*
X272262938Y-365612323D01*
X272251701Y-365805485D01*
X272243402Y-366072771D01*
X272236656Y-366429285D01*
X272232332Y-366724234D01*
X272214078Y-368043287D01*
X272375350Y-367937659D01*
X272478398Y-367867219D01*
X272653080Y-367744703D01*
X272878286Y-367585038D01*
X273132909Y-367403150D01*
X273243715Y-367323599D01*
X273494914Y-367144515D01*
X273716717Y-366989271D01*
X273891027Y-366870313D01*
X273999748Y-366800087D01*
X274023585Y-366787240D01*
X274102225Y-366813419D01*
X274218708Y-366920110D01*
X274356619Y-367087092D01*
X274499545Y-367294144D01*
X274631074Y-367521046D01*
X274651370Y-367560638D01*
X274805987Y-367868625D01*
X274799184Y-369905453D01*
X274796130Y-370505997D01*
X274790402Y-371004903D01*
X274780580Y-371414942D01*
X274765243Y-371748883D01*
X274742972Y-372019497D01*
X274712347Y-372239554D01*
X274671949Y-372421824D01*
X274620356Y-372579076D01*
X274556150Y-372724081D01*
X274477909Y-372869609D01*
X274467599Y-372887561D01*
X274197089Y-373268334D01*
X273829719Y-373651047D01*
X273381960Y-374021922D01*
X272870281Y-374367180D01*
X272365001Y-374646485D01*
X272064168Y-374792421D01*
X271852620Y-374884680D01*
X271720542Y-374926763D01*
X271658116Y-374922170D01*
X271649911Y-374901521D01*
X271697519Y-374851968D01*
X271822898Y-374771264D01*
X271999877Y-374676083D01*
X272017278Y-374667458D01*
X272386245Y-374432555D01*
X272714385Y-374121840D01*
X272973696Y-373765016D01*
X273088704Y-373530951D01*
X273121727Y-373444786D01*
X273148821Y-373359882D01*
X273170697Y-373264137D01*
X273188063Y-373145451D01*
X273201626Y-372991721D01*
X273212097Y-372790849D01*
X273220182Y-372530731D01*
X273226591Y-372199268D01*
X273232033Y-371784359D01*
X273237215Y-371273902D01*
X273240261Y-370942516D01*
X273245387Y-370296180D01*
X273247695Y-369754311D01*
X273246634Y-369306980D01*
X273241656Y-368944264D01*
X273232211Y-368656234D01*
X273217750Y-368432965D01*
X273197724Y-368264532D01*
X273171584Y-368141006D01*
X273138780Y-368052463D01*
X273098762Y-367988977D01*
X273075387Y-367963037D01*
X272955794Y-367877358D01*
X272823790Y-367865361D01*
X272654866Y-367929936D01*
X272485912Y-368032532D01*
X272215360Y-368211739D01*
X272232973Y-369782485D01*
X272250587Y-371353232D01*
X272391456Y-371467223D01*
X272577172Y-371555203D01*
X272691794Y-371557808D01*
X272815063Y-371552935D01*
X272837955Y-371590392D01*
X272759405Y-371672072D01*
X272578351Y-371799871D01*
X272543160Y-371822576D01*
X272343327Y-371960416D01*
X272107061Y-372137887D01*
X271883137Y-372318262D01*
X271868338Y-372330765D01*
X271501618Y-372641864D01*
X271186328Y-372349960D01*
X270966354Y-372165452D01*
X270713047Y-371980698D01*
X270518482Y-371857831D01*
X270302463Y-371721598D01*
X270189319Y-371617760D01*
X270180332Y-371548657D01*
X270276787Y-371516626D01*
X270330059Y-371514588D01*
X270414051Y-371514241D01*
X270483553Y-371506632D01*
X270539857Y-371481908D01*
X270584250Y-371430215D01*
X270618023Y-371341699D01*
X270642464Y-371206507D01*
X270658863Y-371014786D01*
X270668510Y-370756682D01*
X270672693Y-370422342D01*
X270672703Y-370001912D01*
X270669828Y-369485539D01*
X270665963Y-368947602D01*
X270648785Y-366566164D01*
X270468286Y-366121019D01*
X270363657Y-365884064D01*
X270251543Y-365663318D01*
X270153475Y-365500653D01*
X270139116Y-365480955D01*
X270059817Y-365355817D01*
X270034695Y-365269559D01*
X270043506Y-365253243D01*
X270111344Y-365275807D01*
X270218016Y-365395261D01*
X270357249Y-365603347D01*
X270507808Y-365864326D01*
X270664174Y-366150264D01*
X270729678Y-365951785D01*
X270887721Y-365647623D01*
X271141903Y-365375070D01*
X271476326Y-365142526D01*
X271875096Y-364958389D01*
X272322314Y-364831056D01*
X272802086Y-364768926D01*
X272977696Y-364764137D01*
X273218380Y-364772249D01*
G37*
G36*
X275914343Y-368332976D02*
G01*
X276010350Y-368150888D01*
X276139310Y-367991167D01*
X276315272Y-367842634D01*
X276552283Y-367694112D01*
X276864392Y-367534421D01*
X277265646Y-367352382D01*
X277429900Y-367281254D01*
X277744121Y-367147185D01*
X278022105Y-367030237D01*
X278246863Y-366937424D01*
X278401403Y-366875757D01*
X278468737Y-366852249D01*
X278469459Y-366852200D01*
X278512326Y-366897874D01*
X278602807Y-367022567D01*
X278729084Y-367207791D01*
X278879333Y-367435054D01*
X279041735Y-367685867D01*
X279204467Y-367941740D01*
X279355710Y-368184181D01*
X279483642Y-368394701D01*
X279576442Y-368554809D01*
X279622289Y-368646016D01*
X279624739Y-368659262D01*
X279573430Y-368698354D01*
X279439183Y-368790076D01*
X279235505Y-368925498D01*
X278975898Y-369095688D01*
X278673868Y-369291717D01*
X278456843Y-369431559D01*
X278095468Y-369664261D01*
X277819462Y-369844354D01*
X277617763Y-369980811D01*
X277479312Y-370082605D01*
X277393047Y-370158707D01*
X277347910Y-370218091D01*
X277332838Y-370269729D01*
X277336773Y-370322594D01*
X277339596Y-370337915D01*
X277388679Y-370489799D01*
X277474556Y-370676334D01*
X277515570Y-370750728D01*
X277750808Y-371049373D01*
X278044103Y-371261880D01*
X278375842Y-371385248D01*
X278726410Y-371416475D01*
X279076194Y-371352562D01*
X279405579Y-371190507D01*
X279564697Y-371064242D01*
X279667843Y-370975407D01*
X279709455Y-370963320D01*
X279707805Y-371022741D01*
X279707715Y-371023229D01*
X279657703Y-371089985D01*
X279529013Y-371214012D01*
X279334611Y-371384084D01*
X279087466Y-371588973D01*
X278800545Y-371817456D01*
X278699963Y-371895639D01*
X278411110Y-372118273D01*
X278154349Y-372315095D01*
X277942867Y-372476085D01*
X277789849Y-372591224D01*
X277708483Y-372650493D01*
X277698837Y-372656314D01*
X277643234Y-372634904D01*
X277512701Y-372581792D01*
X277370632Y-372523056D01*
X276869879Y-372265611D01*
X276460369Y-371944648D01*
X276133149Y-371551893D01*
X275929535Y-371190911D01*
X275795494Y-370809561D01*
X275710404Y-370354981D01*
X275675336Y-369857855D01*
X275691362Y-369348867D01*
X275759553Y-368858704D01*
X275791671Y-368730503D01*
X277199010Y-368730503D01*
X277200068Y-369093197D01*
X277203028Y-369414011D01*
X277207571Y-369676492D01*
X277213378Y-369864186D01*
X277220128Y-369960640D01*
X277223082Y-369969993D01*
X277278965Y-369941983D01*
X277409849Y-369866602D01*
X277593529Y-369756825D01*
X277723645Y-369677512D01*
X277937107Y-369544026D01*
X278118399Y-369426145D01*
X278241774Y-369340832D01*
X278275902Y-369313667D01*
X278293769Y-369271756D01*
X278278763Y-369197835D01*
X278224222Y-369078962D01*
X278123489Y-368902196D01*
X277969903Y-368654594D01*
X277802694Y-368394014D01*
X277623576Y-368118042D01*
X277465790Y-367876464D01*
X277339862Y-367685271D01*
X277256316Y-367560455D01*
X277226365Y-367518369D01*
X277218379Y-367564588D01*
X277211312Y-367709248D01*
X277205524Y-367936374D01*
X277201376Y-368229994D01*
X277199229Y-368574135D01*
X277199010Y-368730503D01*
X275791671Y-368730503D01*
X275837242Y-368548611D01*
X275914343Y-368332976D01*
G37*
G36*
X281854091Y-367111807D02*
G01*
X282065143Y-367309273D01*
X282302606Y-367504283D01*
X282516728Y-367656104D01*
X282525799Y-367661750D01*
X282730679Y-367796491D01*
X282835236Y-367888325D01*
X282842728Y-367942945D01*
X282756409Y-367966044D01*
X282700874Y-367967741D01*
X282523446Y-368018880D01*
X282400536Y-368115253D01*
X282356908Y-368164300D01*
X282323350Y-368216822D01*
X282298318Y-368287813D01*
X282280268Y-368392266D01*
X282267656Y-368545174D01*
X282258939Y-368761530D01*
X282252571Y-369056329D01*
X282247010Y-369444562D01*
X282244672Y-369628761D01*
X282240437Y-370137348D01*
X282242999Y-370543885D01*
X282254003Y-370860624D01*
X282275092Y-371099813D01*
X282307908Y-371273701D01*
X282354095Y-371394539D01*
X282415295Y-371474575D01*
X282493152Y-371526060D01*
X282499554Y-371529041D01*
X282627264Y-371564656D01*
X282753042Y-371531420D01*
X282815940Y-371497895D01*
X282966579Y-371418963D01*
X283025308Y-371407851D01*
X282992099Y-371464606D01*
X282866929Y-371589275D01*
X282676315Y-371758989D01*
X282339732Y-372049245D01*
X282076570Y-372270729D01*
X281874144Y-372430010D01*
X281719768Y-372533656D01*
X281600757Y-372588238D01*
X281504425Y-372600324D01*
X281418088Y-372576484D01*
X281329059Y-372523287D01*
X281275234Y-372484545D01*
X281145977Y-372378810D01*
X281039408Y-372261705D01*
X280953389Y-372121607D01*
X280885781Y-371946895D01*
X280834445Y-371725948D01*
X280797241Y-371447143D01*
X280772031Y-371098860D01*
X280756676Y-370669476D01*
X280749037Y-370147371D01*
X280747007Y-369614461D01*
X280746360Y-369147137D01*
X280744562Y-368781190D01*
X280740692Y-368503582D01*
X280733829Y-368301276D01*
X280723051Y-368161234D01*
X280707438Y-368070419D01*
X280686067Y-368015794D01*
X280658018Y-367984320D01*
X280630609Y-367967295D01*
X280477903Y-367934384D01*
X280303390Y-367964144D01*
X280127956Y-367994493D01*
X280044052Y-367972927D01*
X280058642Y-367911834D01*
X280178690Y-367823600D01*
X280213846Y-367804866D01*
X280438430Y-367670384D01*
X280709345Y-367477846D01*
X280993962Y-367251995D01*
X281259650Y-367017574D01*
X281289803Y-366988999D01*
X281519109Y-366769703D01*
X281854091Y-367111807D01*
G37*
G36*
X257816145Y-368100019D02*
G01*
X258073856Y-368125148D01*
X258336760Y-368107640D01*
X258580277Y-368054621D01*
X258779824Y-367973216D01*
X258910821Y-367870551D01*
X258949911Y-367771379D01*
X258901213Y-367718659D01*
X258772955Y-367639881D01*
X258591894Y-367551269D01*
X258573814Y-367543319D01*
X258254062Y-367369886D01*
X257948244Y-367142962D01*
X257686102Y-366888569D01*
X257497381Y-366632728D01*
X257466692Y-366574776D01*
X257361610Y-366236993D01*
X257363458Y-365899370D01*
X257466263Y-365580616D01*
X257664056Y-365299442D01*
X257944224Y-365078425D01*
X258106545Y-365001738D01*
X258304056Y-364935117D01*
X258515431Y-364881771D01*
X258719344Y-364844910D01*
X258894470Y-364827746D01*
X259019483Y-364833488D01*
X259073057Y-364865347D01*
X259049981Y-364911965D01*
X258977204Y-364939120D01*
X258833966Y-364967719D01*
X258768712Y-364977053D01*
X258476843Y-365041457D01*
X258269286Y-365144945D01*
X258154637Y-365279897D01*
X258141494Y-365438692D01*
X258167848Y-365509737D01*
X258256560Y-365634675D01*
X258401363Y-365751920D01*
X258617082Y-365869902D01*
X258918540Y-365997053D01*
X259215117Y-366105358D01*
X259823048Y-366335150D01*
X260324573Y-366563767D01*
X260727532Y-366796216D01*
X261039765Y-367037499D01*
X261269113Y-367292622D01*
X261390285Y-367493683D01*
X261552839Y-367824723D01*
X261552839Y-369397921D01*
X261551466Y-369901097D01*
X261546987Y-370301840D01*
X261538864Y-370612105D01*
X261526558Y-370843845D01*
X261509531Y-371009013D01*
X261487245Y-371119563D01*
X261473484Y-371159229D01*
X261348676Y-371335521D01*
X261124561Y-371501523D01*
X260795470Y-371660821D01*
X260515957Y-371764724D01*
X260124874Y-371911293D01*
X259821662Y-372058736D01*
X259580560Y-372221292D01*
X259411902Y-372375063D01*
X259286808Y-372499632D01*
X259196149Y-372581885D01*
X259166803Y-372601525D01*
X259115432Y-372563645D01*
X259021748Y-372470440D01*
X259002788Y-372449975D01*
X258815387Y-372282899D01*
X258553052Y-372098246D01*
X258249025Y-371915694D01*
X257936553Y-371754921D01*
X257648878Y-371635607D01*
X257598914Y-371618978D01*
X257351608Y-371528981D01*
X257212709Y-371450414D01*
X257183757Y-371384741D01*
X257266296Y-371333420D01*
X257290213Y-371326570D01*
X257355796Y-371297581D01*
X257407802Y-371240757D01*
X257447748Y-371144140D01*
X257477150Y-370995771D01*
X257483140Y-370933425D01*
X259064325Y-370933425D01*
X259235268Y-370970970D01*
X259368108Y-371029559D01*
X259539011Y-371143428D01*
X259678624Y-371259280D01*
X259820114Y-371387980D01*
X259923645Y-371479242D01*
X259965339Y-371512316D01*
X259969083Y-371458162D01*
X259972461Y-371304209D01*
X259975340Y-371065075D01*
X259977584Y-370755374D01*
X259979061Y-370389724D01*
X259979637Y-369982741D01*
X259979641Y-369949849D01*
X259979367Y-369485711D01*
X259977841Y-369121749D01*
X259974008Y-368843726D01*
X259966811Y-368637404D01*
X259955195Y-368488544D01*
X259938103Y-368382910D01*
X259914479Y-368306262D01*
X259883267Y-368244364D01*
X259849233Y-368191599D01*
X259713092Y-368039709D01*
X259529812Y-367896824D01*
X259338162Y-367788520D01*
X259176910Y-367740371D01*
X259164438Y-367739853D01*
X259134982Y-367746394D01*
X259111921Y-367774881D01*
X259094479Y-367837686D01*
X259081881Y-367947177D01*
X259073350Y-368115725D01*
X259068111Y-368355700D01*
X259065389Y-368679471D01*
X259064406Y-369099409D01*
X259064325Y-369336168D01*
X259064325Y-370933425D01*
X257483140Y-370933425D01*
X257497525Y-370783692D01*
X257510390Y-370495943D01*
X257517260Y-370120568D01*
X257519654Y-369645606D01*
X257519731Y-369516843D01*
X257519731Y-368041411D01*
X257816145Y-368100019D01*
G37*
G36*
X284131461Y-368100019D02*
G01*
X284389171Y-368125148D01*
X284652075Y-368107640D01*
X284895592Y-368054621D01*
X285095139Y-367973216D01*
X285226136Y-367870551D01*
X285265226Y-367771379D01*
X285216528Y-367718659D01*
X285088270Y-367639881D01*
X284907209Y-367551269D01*
X284889130Y-367543319D01*
X284569378Y-367369886D01*
X284263559Y-367142962D01*
X284001417Y-366888569D01*
X283812697Y-366632728D01*
X283782008Y-366574776D01*
X283676926Y-366236993D01*
X283678773Y-365899370D01*
X283781578Y-365580616D01*
X283979371Y-365299442D01*
X284259540Y-365078425D01*
X284421860Y-365001738D01*
X284619371Y-364935117D01*
X284830746Y-364881771D01*
X285034660Y-364844910D01*
X285209786Y-364827746D01*
X285334799Y-364833488D01*
X285388373Y-364865347D01*
X285365296Y-364911965D01*
X285292520Y-364939120D01*
X285149281Y-364967719D01*
X285084027Y-364977053D01*
X284792158Y-365041457D01*
X284584601Y-365144945D01*
X284469953Y-365279897D01*
X284456809Y-365438692D01*
X284483163Y-365509737D01*
X284571875Y-365634675D01*
X284716679Y-365751920D01*
X284932398Y-365869902D01*
X285233856Y-365997053D01*
X285530432Y-366105358D01*
X286138364Y-366335150D01*
X286639889Y-366563767D01*
X287042847Y-366796216D01*
X287355080Y-367037499D01*
X287584428Y-367292622D01*
X287705600Y-367493683D01*
X287868154Y-367824723D01*
X287868154Y-369397921D01*
X287866781Y-369901097D01*
X287862302Y-370301840D01*
X287854179Y-370612105D01*
X287841873Y-370843845D01*
X287824847Y-371009013D01*
X287802560Y-371119563D01*
X287788799Y-371159229D01*
X287663991Y-371335521D01*
X287439876Y-371501523D01*
X287110785Y-371660821D01*
X286831272Y-371764724D01*
X286440189Y-371911293D01*
X286136977Y-372058736D01*
X285895875Y-372221292D01*
X285727218Y-372375063D01*
X285602123Y-372499632D01*
X285511464Y-372581885D01*
X285482118Y-372601525D01*
X285430748Y-372563645D01*
X285337063Y-372470440D01*
X285318104Y-372449975D01*
X285130703Y-372282899D01*
X284868367Y-372098246D01*
X284564341Y-371915694D01*
X284251868Y-371754921D01*
X283964194Y-371635607D01*
X283914229Y-371618978D01*
X283666924Y-371528981D01*
X283528024Y-371450414D01*
X283499072Y-371384741D01*
X283581611Y-371333420D01*
X283605528Y-371326570D01*
X283671111Y-371297581D01*
X283723118Y-371240757D01*
X283763063Y-371144140D01*
X283792466Y-370995771D01*
X283798456Y-370933425D01*
X285379641Y-370933425D01*
X285550583Y-370970970D01*
X285683423Y-371029559D01*
X285854326Y-371143428D01*
X285993939Y-371259280D01*
X286135429Y-371387980D01*
X286238961Y-371479242D01*
X286280654Y-371512316D01*
X286284398Y-371458162D01*
X286287777Y-371304209D01*
X286290655Y-371065075D01*
X286292900Y-370755374D01*
X286294377Y-370389724D01*
X286294953Y-369982741D01*
X286294956Y-369949849D01*
X286294682Y-369485711D01*
X286293157Y-369121749D01*
X286289323Y-368843726D01*
X286282127Y-368637404D01*
X286270510Y-368488544D01*
X286253418Y-368382910D01*
X286229794Y-368306262D01*
X286198583Y-368244364D01*
X286164548Y-368191599D01*
X286028407Y-368039709D01*
X285845127Y-367896824D01*
X285653477Y-367788520D01*
X285492225Y-367740371D01*
X285479753Y-367739853D01*
X285450297Y-367746394D01*
X285427236Y-367774881D01*
X285409794Y-367837686D01*
X285397196Y-367947177D01*
X285388665Y-368115725D01*
X285383427Y-368355700D01*
X285380704Y-368679471D01*
X285379722Y-369099409D01*
X285379641Y-369336168D01*
X285379641Y-370933425D01*
X283798456Y-370933425D01*
X283812841Y-370783692D01*
X283825705Y-370495943D01*
X283832576Y-370120568D01*
X283834969Y-369645606D01*
X283835046Y-369516843D01*
X283835046Y-368041411D01*
X284131461Y-368100019D01*
G37*
G36*
X262756685Y-368332976D02*
G01*
X262852692Y-368150888D01*
X262981652Y-367991167D01*
X263157614Y-367842634D01*
X263394625Y-367694112D01*
X263706734Y-367534421D01*
X264107988Y-367352382D01*
X264272242Y-367281254D01*
X264586463Y-367147185D01*
X264864448Y-367030237D01*
X265089205Y-366937424D01*
X265243746Y-366875757D01*
X265311079Y-366852249D01*
X265311802Y-366852200D01*
X265354668Y-366897874D01*
X265445150Y-367022567D01*
X265571426Y-367207791D01*
X265721675Y-367435054D01*
X265884077Y-367685867D01*
X266046810Y-367941740D01*
X266198053Y-368184181D01*
X266325985Y-368394701D01*
X266418785Y-368554809D01*
X266464632Y-368646016D01*
X266467081Y-368659262D01*
X266415772Y-368698354D01*
X266281526Y-368790076D01*
X266077847Y-368925498D01*
X265818240Y-369095688D01*
X265516210Y-369291717D01*
X265299185Y-369431559D01*
X264937811Y-369664261D01*
X264661804Y-369844354D01*
X264460106Y-369980811D01*
X264321654Y-370082605D01*
X264235390Y-370158707D01*
X264190252Y-370218091D01*
X264175181Y-370269729D01*
X264179115Y-370322594D01*
X264181938Y-370337915D01*
X264231021Y-370489799D01*
X264316899Y-370676334D01*
X264357913Y-370750728D01*
X264593151Y-371049373D01*
X264886446Y-371261880D01*
X265218184Y-371385248D01*
X265568752Y-371416475D01*
X265918536Y-371352562D01*
X266247922Y-371190507D01*
X266407040Y-371064242D01*
X266510185Y-370975407D01*
X266551798Y-370963320D01*
X266550148Y-371022741D01*
X266550058Y-371023229D01*
X266500046Y-371089985D01*
X266371355Y-371214012D01*
X266176954Y-371384084D01*
X265929809Y-371588973D01*
X265642887Y-371817456D01*
X265542305Y-371895639D01*
X265253452Y-372118273D01*
X264996691Y-372315095D01*
X264785209Y-372476085D01*
X264632192Y-372591224D01*
X264550825Y-372650493D01*
X264541179Y-372656314D01*
X264485577Y-372634904D01*
X264355043Y-372581792D01*
X264212974Y-372523056D01*
X263712222Y-372265611D01*
X263302711Y-371944648D01*
X262975491Y-371551893D01*
X262771877Y-371190911D01*
X262637837Y-370809561D01*
X262552747Y-370354981D01*
X262517678Y-369857855D01*
X262533704Y-369348867D01*
X262601895Y-368858704D01*
X262634014Y-368730503D01*
X264041352Y-368730503D01*
X264042410Y-369093197D01*
X264045370Y-369414011D01*
X264049914Y-369676492D01*
X264055720Y-369864186D01*
X264062471Y-369960640D01*
X264065425Y-369969993D01*
X264121307Y-369941983D01*
X264252191Y-369866602D01*
X264435872Y-369756825D01*
X264565988Y-369677512D01*
X264779450Y-369544026D01*
X264960741Y-369426145D01*
X265084116Y-369340832D01*
X265118244Y-369313667D01*
X265136112Y-369271756D01*
X265121105Y-369197835D01*
X265066564Y-369078962D01*
X264965831Y-368902196D01*
X264812245Y-368654594D01*
X264645036Y-368394014D01*
X264465918Y-368118042D01*
X264308133Y-367876464D01*
X264182204Y-367685271D01*
X264098659Y-367560455D01*
X264068708Y-367518369D01*
X264060722Y-367564588D01*
X264053654Y-367709248D01*
X264047867Y-367936374D01*
X264043719Y-368229994D01*
X264041571Y-368574135D01*
X264041352Y-368730503D01*
X262634014Y-368730503D01*
X262679585Y-368548611D01*
X262756685Y-368332976D01*
G37*
G36*
X281867963Y-364864728D02*
G01*
X282052758Y-365025627D01*
X282163905Y-365244383D01*
X282194670Y-365501267D01*
X282138316Y-365776552D01*
X282029437Y-365991530D01*
X281920378Y-366121021D01*
X281767746Y-366259615D01*
X281604427Y-366381888D01*
X281463311Y-366462414D01*
X281397147Y-366480353D01*
X281311526Y-366444973D01*
X281183028Y-366355682D01*
X281123580Y-366306218D01*
X280924222Y-366079130D01*
X280774547Y-365807342D01*
X280695669Y-365533047D01*
X280688650Y-365436951D01*
X280741154Y-365200907D01*
X280884741Y-365003133D01*
X281098518Y-364858393D01*
X281361594Y-364781453D01*
X281616258Y-364781413D01*
X281867963Y-364864728D01*
G37*
D11*
X304006250Y-267200000D02*
X304006250Y-266200000D01*
X303506250Y-266700000D02*
X304506250Y-266700000D01*
X300206250Y-274200000D02*
X299906250Y-274500000D01*
X299906250Y-273900000D02*
X300206250Y-274200000D01*
X299906250Y-274500000D02*
X299906250Y-273900000D01*
%LPC*%
D12*
X328041000Y-255778000D03*
D13*
X328041000Y-258318000D03*
X328041000Y-260858000D03*
X328041000Y-263398000D03*
X328041000Y-265938000D03*
X328041000Y-268478000D03*
X328041000Y-271018000D03*
X328041000Y-273558000D03*
X328041000Y-276098000D03*
X328041000Y-278638000D03*
X328041000Y-281178000D03*
X328041000Y-283718000D03*
X328041000Y-286258000D03*
X328041000Y-288798000D03*
X328041000Y-291338000D03*
X328041000Y-293878000D03*
X328041000Y-296418000D03*
X328041000Y-298958000D03*
X328041000Y-301498000D03*
X328041000Y-304038000D03*
X312801000Y-304038000D03*
X312801000Y-301498000D03*
X312801000Y-298958000D03*
X312801000Y-296418000D03*
X312801000Y-293878000D03*
X312801000Y-291338000D03*
X312801000Y-288798000D03*
X312801000Y-286258000D03*
X312801000Y-283718000D03*
X312801000Y-281178000D03*
X312801000Y-278638000D03*
X312801000Y-276098000D03*
X312801000Y-273558000D03*
X312801000Y-271018000D03*
X312801000Y-268478000D03*
X312801000Y-265938000D03*
X312801000Y-263398000D03*
X312801000Y-260858000D03*
X312801000Y-258318000D03*
X312801000Y-255778000D03*
X316609000Y-300227000D03*
X319149000Y-300227000D03*
X321689000Y-300227000D03*
X324229000Y-300227000D03*
D14*
X455612500Y-266700000D03*
D15*
X450532500Y-266700000D03*
D16*
X458152500Y-261620000D03*
D15*
X460692500Y-266700000D03*
D16*
X451802500Y-264160000D03*
D14*
X455612500Y-366712500D03*
D16*
X458152500Y-362902500D03*
D15*
X455612500Y-371792500D03*
D16*
X460692500Y-369252500D03*
D15*
X455612500Y-361632500D03*
D16*
X394652500Y-307022500D03*
D15*
X403542500Y-309562500D03*
D16*
X401002500Y-304482500D03*
D14*
X398462500Y-309562500D03*
D15*
X393382500Y-309562500D03*
X455612500Y-352742500D03*
D14*
X455612500Y-347662500D03*
D15*
X455612500Y-342582500D03*
D16*
X460692500Y-350202500D03*
X458152500Y-343852500D03*
X432752500Y-287972500D03*
D15*
X431482500Y-290512500D03*
X441642500Y-290512500D03*
D14*
X436562500Y-290512500D03*
D16*
X439102500Y-285432500D03*
X439102500Y-361632500D03*
D15*
X431482500Y-366712500D03*
D14*
X436562500Y-366712500D03*
D16*
X432752500Y-364172500D03*
D15*
X441642500Y-366712500D03*
X403542500Y-328612500D03*
D16*
X401002500Y-323532500D03*
D14*
X398462500Y-328612500D03*
D16*
X394652500Y-326072500D03*
D15*
X393382500Y-328612500D03*
D14*
X417512500Y-347662500D03*
D16*
X420052500Y-342582500D03*
X413702500Y-345122500D03*
D15*
X422592500Y-347662500D03*
X412432500Y-347662500D03*
D16*
X439102500Y-323532500D03*
D14*
X436562500Y-328612500D03*
D15*
X441642500Y-328612500D03*
D16*
X432752500Y-326072500D03*
D15*
X431482500Y-328612500D03*
X413067500Y-366712500D03*
D14*
X407987500Y-366712500D03*
D15*
X402907500Y-366712500D03*
D17*
X396049500Y-373697500D03*
X419925500Y-373697500D03*
D14*
X396049500Y-358457500D03*
X419925500Y-358457500D03*
D16*
X410527500Y-361632500D03*
X404177500Y-364172500D03*
X432752500Y-307022500D03*
D15*
X431482500Y-309562500D03*
D14*
X436562500Y-309562500D03*
D16*
X439102500Y-304482500D03*
D15*
X441642500Y-309562500D03*
D16*
X413702500Y-326072500D03*
D15*
X422592500Y-328612500D03*
D14*
X417512500Y-328612500D03*
D16*
X420052500Y-323532500D03*
D15*
X412432500Y-328612500D03*
D16*
X458152500Y-285432500D03*
D15*
X460692500Y-290512500D03*
X450532500Y-290512500D03*
D14*
X455612500Y-290512500D03*
D16*
X451802500Y-287972500D03*
D15*
X393382500Y-347662500D03*
D16*
X394652500Y-345122500D03*
D14*
X398462500Y-347662500D03*
D16*
X401002500Y-342582500D03*
D15*
X403542500Y-347662500D03*
D16*
X460692500Y-312102500D03*
X458152500Y-305752500D03*
D15*
X455612500Y-314642500D03*
X455612500Y-304482500D03*
D14*
X455612500Y-309562500D03*
D15*
X412432500Y-266700000D03*
X422592500Y-266700000D03*
D16*
X420052500Y-261620000D03*
D14*
X417512500Y-266700000D03*
D16*
X413702500Y-264160000D03*
D15*
X455612500Y-352107500D03*
D16*
X453072500Y-360997500D03*
D15*
X455612500Y-362267500D03*
D14*
X447357500Y-345249500D03*
X455612500Y-357187500D03*
D17*
X462597500Y-345249500D03*
D14*
X447357500Y-369125500D03*
D16*
X450532500Y-354647500D03*
D17*
X462597500Y-369125500D03*
D16*
X414972500Y-371792500D03*
D14*
X417512500Y-366712500D03*
D16*
X421322500Y-369252500D03*
D15*
X422592500Y-366712500D03*
X412432500Y-366712500D03*
D16*
X432752500Y-264160000D03*
D14*
X436562500Y-266700000D03*
D16*
X439102500Y-261620000D03*
D15*
X431482500Y-266700000D03*
X441642500Y-266700000D03*
D14*
X447357500Y-307149500D03*
X447357500Y-331025500D03*
D17*
X462597500Y-307149500D03*
X462597500Y-331025500D03*
D14*
X455612500Y-319087500D03*
D15*
X455612500Y-324167500D03*
X455612500Y-314007500D03*
D16*
X450532500Y-316547500D03*
X453072500Y-322897500D03*
D14*
X417512500Y-309562500D03*
D15*
X412432500Y-309562500D03*
D16*
X420052500Y-304482500D03*
X413702500Y-307022500D03*
D15*
X422592500Y-309562500D03*
D14*
X398462500Y-290512500D03*
D16*
X394652500Y-287972500D03*
D15*
X393382500Y-290512500D03*
X403542500Y-290512500D03*
D16*
X401002500Y-285432500D03*
D14*
X455612500Y-328612500D03*
D16*
X458152500Y-324802500D03*
D15*
X455612500Y-323532500D03*
X455612500Y-333692500D03*
D16*
X460692500Y-331152500D03*
D15*
X393382500Y-366712500D03*
X403542500Y-366712500D03*
D16*
X402272500Y-369252500D03*
X395922500Y-371792500D03*
D14*
X398462500Y-366712500D03*
D15*
X441642500Y-347662500D03*
D14*
X436562500Y-347662500D03*
D16*
X432752500Y-345122500D03*
D15*
X431482500Y-347662500D03*
D16*
X439102500Y-342582500D03*
D15*
X412432500Y-290512500D03*
D14*
X417512500Y-290512500D03*
D15*
X422592500Y-290512500D03*
D16*
X413702500Y-287972500D03*
X420052500Y-285432500D03*
D15*
X403542500Y-266700000D03*
D14*
X398462500Y-266700000D03*
D16*
X401002500Y-261620000D03*
D15*
X393382500Y-266700000D03*
D16*
X394652500Y-264160000D03*
X339090000Y-361632500D03*
D14*
X336550000Y-366712500D03*
D15*
X341630000Y-366712500D03*
D16*
X332740000Y-364172500D03*
D15*
X331470000Y-366712500D03*
X261150100Y-290512500D03*
D16*
X268770100Y-285432500D03*
D15*
X271310100Y-290512500D03*
D14*
X266230100Y-290512500D03*
D16*
X262420100Y-287972500D03*
X306546250Y-261620000D03*
D15*
X298926250Y-266700000D03*
D14*
X304006250Y-266700000D03*
D16*
X300196250Y-264160000D03*
D15*
X309086250Y-266700000D03*
D14*
X67106800Y-288925000D03*
D15*
X62026800Y-288925000D03*
D16*
X69646800Y-283845000D03*
X63296800Y-286385000D03*
D15*
X72186800Y-288925000D03*
D16*
X26828750Y-331152500D03*
D14*
X23018750Y-328612500D03*
D15*
X17938750Y-328612500D03*
X28098750Y-328612500D03*
D16*
X20478750Y-333692500D03*
X235082904Y-364212614D03*
D15*
X228685610Y-370765891D03*
X238623590Y-368653509D03*
D14*
X233654600Y-369709700D03*
D16*
X229399762Y-368017349D03*
D15*
X119503710Y-300098909D03*
D16*
X128013386Y-296714206D03*
D14*
X124472700Y-301155100D03*
D16*
X121274053Y-297878462D03*
D15*
X129441690Y-302211291D03*
D16*
X109369786Y-292751806D03*
D15*
X100860110Y-296136509D03*
X110798090Y-298248891D03*
D16*
X102630453Y-293916062D03*
D14*
X105829100Y-297192700D03*
D15*
X299885100Y-290512500D03*
D14*
X306743100Y-298767500D03*
X294805100Y-290512500D03*
D17*
X282867100Y-283527500D03*
D16*
X292265100Y-295592500D03*
D14*
X282867100Y-298767500D03*
D15*
X289725100Y-290512500D03*
D16*
X298615100Y-293052500D03*
D17*
X306743100Y-283527500D03*
D15*
X116132090Y-318873691D03*
X106194110Y-316761309D03*
D16*
X107964453Y-314540862D03*
D14*
X111163100Y-317817500D03*
D16*
X114703786Y-313376606D03*
X334010000Y-271780000D03*
D15*
X331470000Y-266700000D03*
X341630000Y-266700000D03*
D14*
X336550000Y-266700000D03*
D16*
X340360000Y-269240000D03*
D15*
X125510810Y-340307109D03*
D14*
X130479800Y-341363300D03*
D15*
X135448790Y-342419491D03*
D16*
X127281153Y-338086662D03*
X134020486Y-336922406D03*
D15*
X106441990Y-272963191D03*
D16*
X98274353Y-268630362D03*
D14*
X101473000Y-271907000D03*
D15*
X96504010Y-270850809D03*
D16*
X105013686Y-267466106D03*
X84198386Y-365294206D03*
D15*
X85626690Y-370791291D03*
D16*
X77459053Y-366458462D03*
D14*
X80657700Y-369735100D03*
D15*
X75688710Y-368678909D03*
D16*
X358140000Y-361632500D03*
D14*
X355600000Y-366712500D03*
D16*
X351790000Y-364172500D03*
D15*
X360680000Y-366712500D03*
X350520000Y-366712500D03*
X266230100Y-265112500D03*
D16*
X273850100Y-260032500D03*
D15*
X276390100Y-265112500D03*
D16*
X267500100Y-262572500D03*
D14*
X271310100Y-265112500D03*
D15*
X176203090Y-304035909D03*
D14*
X171234100Y-305092100D03*
D16*
X172662404Y-299595014D03*
X166979262Y-303399749D03*
D15*
X166265110Y-306148291D03*
X252272800Y-289001200D03*
X242112800Y-289001200D03*
D16*
X249732800Y-283921200D03*
D14*
X247192800Y-289001200D03*
D16*
X243382800Y-286461200D03*
D15*
X206721190Y-355966209D03*
D16*
X197497362Y-355330049D03*
D14*
X201752200Y-357022400D03*
D16*
X203180504Y-351525314D03*
D15*
X196783210Y-358078591D03*
D16*
X306273200Y-304482500D03*
D14*
X303733200Y-309562500D03*
D15*
X308813200Y-309562500D03*
X298653200Y-309562500D03*
D16*
X299923200Y-307022500D03*
D15*
X255803400Y-309562500D03*
X265963400Y-309562500D03*
D16*
X257073400Y-307022500D03*
X263423400Y-304482500D03*
D14*
X260883400Y-309562500D03*
D16*
X-30003750Y-345122500D03*
D14*
X-26193750Y-347662500D03*
D15*
X-21113750Y-347662500D03*
D16*
X-23653750Y-342582500D03*
D15*
X-31273750Y-347662500D03*
X305911250Y-328612500D03*
X295751250Y-328612500D03*
D14*
X312769250Y-336867500D03*
D16*
X297021250Y-326072500D03*
X303371250Y-323532500D03*
D14*
X288893250Y-336867500D03*
D17*
X312769250Y-321627500D03*
D14*
X300831250Y-328612500D03*
D17*
X288893250Y-321627500D03*
D15*
X225396310Y-332513491D03*
X235334290Y-330401109D03*
D16*
X231793604Y-325960214D03*
X226110462Y-329764949D03*
D14*
X230365300Y-331457300D03*
X-26193750Y-366712500D03*
D16*
X-23653750Y-361632500D03*
D15*
X-21113750Y-366712500D03*
X-31273750Y-366712500D03*
D16*
X-30003750Y-364172500D03*
X209911504Y-291670214D03*
D14*
X208483200Y-297167300D03*
D16*
X204228362Y-295474949D03*
D15*
X203514210Y-298223491D03*
X213452190Y-296111109D03*
X-12223750Y-309562500D03*
D14*
X-7143750Y-309562500D03*
D15*
X-2063750Y-309562500D03*
D16*
X-4603750Y-304482500D03*
X-10953750Y-307022500D03*
D15*
X88274410Y-332420409D03*
D14*
X93243400Y-333476600D03*
D16*
X96784086Y-329035706D03*
D15*
X98212390Y-334532791D03*
D16*
X90044753Y-330199962D03*
D15*
X226513910Y-269000791D03*
X236451890Y-266888409D03*
D14*
X231482900Y-267944600D03*
D16*
X232911204Y-262447514D03*
X227228062Y-266252249D03*
X49606200Y-307022500D03*
D15*
X58496200Y-309562500D03*
D16*
X55956200Y-304482500D03*
D14*
X53416200Y-309562500D03*
D15*
X48336200Y-309562500D03*
D16*
X-30003750Y-326072500D03*
X-23653750Y-323532500D03*
D14*
X-26193750Y-328612500D03*
D15*
X-21113750Y-328612500D03*
X-31273750Y-328612500D03*
D12*
X174917000Y-258127500D03*
D18*
X174917000Y-260667500D03*
X174917000Y-263207500D03*
X174917000Y-265747500D03*
D15*
X369570000Y-366712500D03*
D14*
X374650000Y-366712500D03*
D15*
X379730000Y-366712500D03*
D16*
X377190000Y-361632500D03*
X370840000Y-364172500D03*
D15*
X189474590Y-320672909D03*
D16*
X180250762Y-320036749D03*
D14*
X184505600Y-321729100D03*
D15*
X179536610Y-322785291D03*
D16*
X185933904Y-316232014D03*
D14*
X111836200Y-337400900D03*
D16*
X115376886Y-332960006D03*
D15*
X116805190Y-338457091D03*
D16*
X108637553Y-334124262D03*
D15*
X106867210Y-336344709D03*
D17*
X207198089Y-382467411D03*
D14*
X204029515Y-367560442D03*
D16*
X195497004Y-372620014D03*
D14*
X194068700Y-378117100D03*
X180675263Y-372524541D03*
D16*
X189813862Y-376424749D03*
D15*
X199037690Y-377060909D03*
D17*
X183843837Y-387431511D03*
D15*
X189099710Y-379173291D03*
X159505340Y-366007840D03*
D14*
X164474330Y-364951649D03*
D16*
X165902634Y-359454563D03*
X160219492Y-363259298D03*
D15*
X169443320Y-363895458D03*
D14*
X250825000Y-328612500D03*
D16*
X247015000Y-326072500D03*
D15*
X245745000Y-328612500D03*
X255905000Y-328612500D03*
D16*
X253365000Y-323532500D03*
D14*
X113258600Y-376669300D03*
D17*
X123483463Y-385983711D03*
X100129211Y-381019611D03*
D15*
X108289610Y-375613109D03*
D14*
X126652037Y-371076741D03*
D15*
X118227590Y-377725491D03*
D14*
X103297785Y-366112642D03*
D16*
X110059953Y-373392662D03*
X116799286Y-372228406D03*
X114009653Y-354749062D03*
D15*
X122177290Y-359081891D03*
X112239310Y-356969509D03*
D14*
X117208300Y-358025700D03*
D16*
X120748986Y-353584806D03*
X25196800Y-287972500D03*
D15*
X34086800Y-290512500D03*
D16*
X31546800Y-285432500D03*
D15*
X23926800Y-290512500D03*
D14*
X29006800Y-290512500D03*
D15*
X274840700Y-309562500D03*
D16*
X276110700Y-307022500D03*
D14*
X279920700Y-309562500D03*
D16*
X282460700Y-304482500D03*
D15*
X285000700Y-309562500D03*
X165973010Y-281878591D03*
D14*
X170942000Y-280822400D03*
D16*
X172370304Y-275325314D03*
X166687162Y-279130049D03*
D15*
X175910990Y-279766209D03*
D16*
X64452500Y-260032500D03*
D15*
X66992500Y-265112500D03*
D16*
X58102500Y-262572500D03*
D14*
X61912500Y-265112500D03*
D15*
X56832500Y-265112500D03*
D16*
X144751986Y-378159306D03*
D15*
X146180290Y-383656391D03*
X136242310Y-381544009D03*
D14*
X141211300Y-382600200D03*
D16*
X138012653Y-379323562D03*
D15*
X140808190Y-363031591D03*
D16*
X139379886Y-357534506D03*
D15*
X130870210Y-360919209D03*
D14*
X135839200Y-361975400D03*
D16*
X132640553Y-358698762D03*
X221798704Y-347562914D03*
X216115562Y-351367649D03*
D15*
X215401410Y-354116191D03*
X225339390Y-352003809D03*
D14*
X220370400Y-353060000D03*
D16*
X217499862Y-312124649D03*
D14*
X221754700Y-313817000D03*
D16*
X223183004Y-308319914D03*
D15*
X226723690Y-312760809D03*
X216785710Y-314873191D03*
D16*
X50601468Y-285432500D03*
D15*
X53141468Y-290512500D03*
D14*
X48061468Y-290512500D03*
D16*
X44251468Y-287972500D03*
D15*
X42981468Y-290512500D03*
X194846690Y-300086209D03*
D14*
X189877700Y-301142400D03*
D15*
X184908710Y-302198591D03*
D16*
X185622862Y-299450049D03*
X191306004Y-295645314D03*
D17*
X-4730750Y-259715000D03*
X-28606750Y-259715000D03*
D15*
X-21748750Y-266700000D03*
X-11588750Y-266700000D03*
D14*
X-16668750Y-266700000D03*
D16*
X-19208750Y-271780000D03*
X-12858750Y-269240000D03*
D14*
X-4730750Y-274955000D03*
X-28606750Y-274955000D03*
D16*
X89346253Y-310565762D03*
X96085586Y-309401506D03*
D15*
X97513890Y-314898591D03*
X87575910Y-312786209D03*
D14*
X92544900Y-313842400D03*
D19*
X301506250Y-259700000D03*
X306506250Y-259700000D03*
X304006250Y-274200000D03*
X306506250Y-274200000D03*
D20*
X301506250Y-274200000D03*
D21*
X309606250Y-266700000D03*
X298406250Y-266700000D03*
D15*
X78882990Y-310936191D03*
D16*
X70715353Y-306603362D03*
D14*
X73914000Y-309880000D03*
D15*
X68945010Y-308823809D03*
D16*
X77454686Y-305439106D03*
X102105386Y-349622406D03*
X95366053Y-350786662D03*
D15*
X103533690Y-355119491D03*
D14*
X98564700Y-354063300D03*
D15*
X93595710Y-353007109D03*
X245354590Y-308811109D03*
D16*
X236130762Y-308174949D03*
D15*
X235416610Y-310923491D03*
D16*
X241813904Y-304370214D03*
D14*
X240385600Y-309867300D03*
D15*
X105968050Y-375117809D03*
D17*
X97807651Y-380524311D03*
X121161903Y-385488411D03*
D14*
X110937040Y-376174000D03*
X124330477Y-370581441D03*
D16*
X114135687Y-379450638D03*
X107396354Y-380614894D03*
D15*
X115906030Y-377230191D03*
D14*
X100976225Y-365617342D03*
D15*
X169529010Y-344400691D03*
X179466990Y-342288309D03*
D16*
X170243162Y-341652149D03*
X175926304Y-337847414D03*
D14*
X174498000Y-343344500D03*
D16*
X-4603750Y-285432500D03*
D15*
X-2063750Y-290512500D03*
D16*
X-10953750Y-287972500D03*
D15*
X-12223750Y-290512500D03*
D14*
X-7143750Y-290512500D03*
X211759800Y-335394300D03*
D15*
X206790810Y-336450491D03*
D16*
X207504962Y-333701949D03*
D15*
X216728790Y-334338109D03*
D16*
X213188104Y-329897214D03*
X-4603750Y-261620000D03*
D15*
X-12223750Y-266700000D03*
D16*
X-10953750Y-264160000D03*
D14*
X-7143750Y-266700000D03*
D15*
X-2063750Y-266700000D03*
X32861250Y-328612500D03*
D16*
X23971250Y-326072500D03*
D14*
X27781250Y-328612500D03*
D15*
X22701250Y-328612500D03*
D16*
X30321250Y-323532500D03*
X-10953750Y-345122500D03*
D14*
X-7143750Y-347662500D03*
D15*
X-2063750Y-347662500D03*
D16*
X-4603750Y-342582500D03*
D15*
X-12223750Y-347662500D03*
D14*
X21431250Y-366712500D03*
D15*
X26511250Y-366712500D03*
D16*
X17621250Y-364172500D03*
X23971250Y-361632500D03*
D15*
X16351250Y-366712500D03*
D16*
X185318062Y-275167649D03*
X191001204Y-271362914D03*
D15*
X184603910Y-277916191D03*
D14*
X189572900Y-276860000D03*
D15*
X194541890Y-275803809D03*
X188159910Y-340425591D03*
D16*
X194557204Y-333872314D03*
D15*
X198097890Y-338313209D03*
D14*
X193128900Y-339369400D03*
D16*
X188874062Y-337677049D03*
X50165000Y-326072500D03*
X56515000Y-323532500D03*
D15*
X48895000Y-328612500D03*
X59055000Y-328612500D03*
D14*
X53975000Y-328612500D03*
D16*
X228567804Y-287733214D03*
D15*
X232108490Y-292174109D03*
D16*
X222884662Y-291537949D03*
D14*
X227139500Y-293230300D03*
D15*
X222170510Y-294286491D03*
D16*
X39052500Y-262572500D03*
D15*
X37782500Y-265112500D03*
D16*
X45402500Y-260032500D03*
D14*
X42862500Y-265112500D03*
D15*
X47942500Y-265112500D03*
D16*
X240442304Y-343600514D03*
D15*
X243982990Y-348041409D03*
D16*
X234759162Y-347405249D03*
D14*
X239014000Y-349097600D03*
D15*
X234045010Y-350153791D03*
D16*
X377190000Y-261620000D03*
D14*
X374650000Y-266700000D03*
D16*
X370840000Y-264160000D03*
D15*
X369570000Y-266700000D03*
X379730000Y-266700000D03*
D16*
X55721250Y-345122500D03*
D14*
X59531250Y-347662500D03*
D15*
X64611250Y-347662500D03*
X54451250Y-347662500D03*
D16*
X62071250Y-342582500D03*
D15*
X13970000Y-266700000D03*
D14*
X19050000Y-266700000D03*
D15*
X24130000Y-266700000D03*
D16*
X21590000Y-261620000D03*
X15240000Y-264160000D03*
X377190000Y-304482500D03*
D15*
X369570000Y-309562500D03*
D14*
X374650000Y-309562500D03*
D16*
X370840000Y-307022500D03*
D15*
X379730000Y-309562500D03*
X302101250Y-366712500D03*
D14*
X307181250Y-366712500D03*
D16*
X309721250Y-361632500D03*
D15*
X312261250Y-366712500D03*
D16*
X303371250Y-364172500D03*
X377190000Y-285432500D03*
X370840000Y-287972500D03*
D15*
X379730000Y-290512500D03*
D14*
X374650000Y-290512500D03*
D15*
X369570000Y-290512500D03*
D14*
X165887400Y-325704200D03*
D15*
X170856390Y-324648009D03*
D16*
X167315704Y-320207114D03*
X161632562Y-324011849D03*
D15*
X160918410Y-326760391D03*
D16*
X-30003750Y-307022500D03*
D15*
X-21113750Y-309562500D03*
D16*
X-23653750Y-304482500D03*
D15*
X-31273750Y-309562500D03*
D14*
X-26193750Y-309562500D03*
D15*
X217820990Y-270850809D03*
D16*
X214280304Y-266409914D03*
D14*
X212852000Y-271907000D03*
D15*
X207883010Y-272963191D03*
D16*
X208597162Y-270214649D03*
D15*
X24523700Y-309549800D03*
D14*
X29603700Y-309549800D03*
D15*
X34683700Y-309549800D03*
D16*
X32143700Y-304469800D03*
X25793700Y-307009800D03*
D15*
X87823790Y-269013491D03*
D14*
X82854800Y-267957300D03*
D16*
X86395486Y-263516406D03*
X79656153Y-264680662D03*
D15*
X77885810Y-266901109D03*
D16*
X178853762Y-359305149D03*
D15*
X188077590Y-359941309D03*
D16*
X184536904Y-355500414D03*
D14*
X183108600Y-360997500D03*
D15*
X178139610Y-362053691D03*
X198154810Y-318835591D03*
D16*
X204552104Y-312282314D03*
X198868962Y-316087049D03*
D14*
X203123800Y-317779400D03*
D15*
X208092790Y-316723209D03*
X350520000Y-347662500D03*
D14*
X355600000Y-347662500D03*
D16*
X351790000Y-345122500D03*
D15*
X360680000Y-347662500D03*
D16*
X358140000Y-342582500D03*
X266103100Y-326072500D03*
D15*
X264833100Y-328612500D03*
D14*
X269913100Y-328612500D03*
D15*
X274993100Y-328612500D03*
D16*
X272453100Y-323532500D03*
X128280086Y-272431806D03*
D15*
X129708390Y-277928891D03*
D16*
X121540753Y-273596062D03*
D15*
X119770410Y-275816509D03*
D14*
X124739400Y-276872700D03*
D16*
X-4603750Y-323532500D03*
D15*
X-2063750Y-328612500D03*
X-12223750Y-328612500D03*
D16*
X-10953750Y-326072500D03*
D14*
X-7143750Y-328612500D03*
D15*
X138147310Y-304035909D03*
D14*
X143116300Y-305092100D03*
D16*
X146656986Y-300651206D03*
X139917653Y-301815462D03*
D15*
X148085290Y-306148291D03*
D16*
X90738886Y-288776706D03*
D15*
X92167190Y-294273791D03*
D14*
X87198200Y-293217600D03*
D15*
X82229210Y-292161409D03*
D16*
X83999553Y-289940962D03*
D15*
X69643510Y-328458009D03*
X79581490Y-330570391D03*
D16*
X71413853Y-326237562D03*
D14*
X74612500Y-329514200D03*
D16*
X78153186Y-325073306D03*
X287820100Y-285432500D03*
D14*
X285280100Y-290512500D03*
D15*
X290360100Y-290512500D03*
X280200100Y-290512500D03*
D16*
X281470100Y-287972500D03*
D15*
X-31273750Y-290512500D03*
X-21113750Y-290512500D03*
D16*
X-23653750Y-285432500D03*
X-30003750Y-287972500D03*
D14*
X-26193750Y-290512500D03*
D16*
X255746250Y-345122500D03*
X262096250Y-342582500D03*
D15*
X254476250Y-347662500D03*
X264636250Y-347662500D03*
D14*
X259556250Y-347662500D03*
X355600000Y-266700000D03*
D16*
X358140000Y-261620000D03*
D15*
X350520000Y-266700000D03*
D16*
X351790000Y-264160000D03*
D15*
X360680000Y-266700000D03*
D16*
X126608053Y-318452462D03*
D15*
X134775690Y-322785291D03*
D16*
X133347386Y-317288206D03*
D14*
X129806700Y-321729100D03*
D15*
X124837710Y-320672909D03*
X-21113750Y-266700000D03*
D16*
X-23653750Y-261620000D03*
D14*
X-26193750Y-266700000D03*
D16*
X-30003750Y-264160000D03*
D15*
X-31273750Y-266700000D03*
D14*
X-7143750Y-366712500D03*
D15*
X-12223750Y-366712500D03*
X-2063750Y-366712500D03*
D16*
X-4603750Y-361632500D03*
X-10953750Y-364172500D03*
D15*
X341630000Y-309562500D03*
X331470000Y-309562500D03*
D14*
X336550000Y-309562500D03*
D16*
X339090000Y-304482500D03*
X332740000Y-307022500D03*
D15*
X148326590Y-281891291D03*
D14*
X143357600Y-280835100D03*
D15*
X138388610Y-279778909D03*
D16*
X146898286Y-276394206D03*
X140158953Y-277558462D03*
D14*
X252247400Y-265112500D03*
D15*
X247167400Y-265112500D03*
D16*
X254787400Y-260032500D03*
D15*
X257327400Y-265112500D03*
D16*
X248437400Y-262572500D03*
X81519547Y-372511358D03*
D14*
X78320900Y-369234720D03*
D16*
X74780214Y-373675614D03*
D15*
X73351910Y-368178529D03*
X83289890Y-370290911D03*
X350520000Y-309562500D03*
X360680000Y-309562500D03*
D14*
X355600000Y-309562500D03*
D16*
X351790000Y-307022500D03*
X358140000Y-304482500D03*
D15*
X350520000Y-290512500D03*
D16*
X351790000Y-287972500D03*
D14*
X355600000Y-290512500D03*
D15*
X360680000Y-290512500D03*
D16*
X358140000Y-285432500D03*
X76747853Y-346836962D03*
D14*
X79946500Y-350113600D03*
D15*
X84915490Y-351169791D03*
D16*
X83487186Y-345672706D03*
D15*
X74977510Y-349057409D03*
D16*
X31115000Y-342582500D03*
D17*
X40513000Y-340677500D03*
D15*
X23495000Y-347662500D03*
D14*
X16637000Y-355917500D03*
X28575000Y-347662500D03*
X40513000Y-355917500D03*
D15*
X33655000Y-347662500D03*
D17*
X16637000Y-340677500D03*
D16*
X24765000Y-345122500D03*
D14*
X295275000Y-347662500D03*
D15*
X300355000Y-347662500D03*
D17*
X283337000Y-340677500D03*
D15*
X290195000Y-347662500D03*
D16*
X291465000Y-345122500D03*
D14*
X307213000Y-355917500D03*
D16*
X297815000Y-342582500D03*
D17*
X307213000Y-340677500D03*
D14*
X283337000Y-355917500D03*
D16*
X300507400Y-287972500D03*
D15*
X299237400Y-290512500D03*
D16*
X306857400Y-285432500D03*
D15*
X309397400Y-290512500D03*
D14*
X304317400Y-290512500D03*
D16*
X340360000Y-293052500D03*
X334010000Y-295592500D03*
D14*
X336550000Y-290512500D03*
D15*
X341630000Y-290512500D03*
X331470000Y-290512500D03*
M02*
