G04 #@! TF.GenerationSoftware,KiCad,Pcbnew,(6.0.1-0)*
G04 #@! TF.CreationDate,2022-06-13T17:24:51-07:00*
G04 #@! TF.ProjectId,adelheid-xt,6164656c-6865-4696-942d-78742e6b6963,rev?*
G04 #@! TF.SameCoordinates,Original*
G04 #@! TF.FileFunction,Legend,Bot*
G04 #@! TF.FilePolarity,Positive*
%FSLAX46Y46*%
G04 Gerber Fmt 4.6, Leading zero omitted, Abs format (unit mm)*
G04 Created by KiCad (PCBNEW (6.0.1-0)) date 2022-06-13 17:24:51*
%MOMM*%
%LPD*%
G01*
G04 APERTURE LIST*
G04 Aperture macros list*
%AMRotRect*
0 Rectangle, with rotation*
0 The origin of the aperture is its center*
0 $1 length*
0 $2 width*
0 $3 Rotation angle, in degrees counterclockwise*
0 Add horizontal line*
21,1,$1,$2,0,0,$3*%
G04 Aperture macros list end*
%ADD10C,0.300000*%
%ADD11C,0.150000*%
%ADD12C,0.120000*%
%ADD13R,1.700000X1.700000*%
%ADD14C,1.700000*%
%ADD15C,3.987800*%
%ADD16C,1.750000*%
%ADD17C,3.000000*%
%ADD18R,2.550000X2.500000*%
%ADD19R,2.500000X2.550000*%
%ADD20C,3.048000*%
%ADD21R,0.800000X1.900000*%
%ADD22RotRect,2.550000X2.500000X12.000000*%
%ADD23RotRect,2.550000X2.500000X348.000000*%
%ADD24O,1.700000X1.700000*%
%ADD25C,2.000000*%
%ADD26R,2.000000X2.000000*%
%ADD27R,2.000000X3.200000*%
%ADD28RotRect,2.550000X2.500000X168.000000*%
G04 APERTURE END LIST*
D10*
X283305814Y-372054271D02*
X282734385Y-372054271D01*
X283091528Y-373054271D02*
X283091528Y-371768557D01*
X283020100Y-371625700D01*
X282877242Y-371554271D01*
X282734385Y-371554271D01*
X282020100Y-373054271D02*
X282162957Y-372982842D01*
X282234385Y-372911414D01*
X282305814Y-372768557D01*
X282305814Y-372339985D01*
X282234385Y-372197128D01*
X282162957Y-372125700D01*
X282020100Y-372054271D01*
X281805814Y-372054271D01*
X281662957Y-372125700D01*
X281591528Y-372197128D01*
X281520100Y-372339985D01*
X281520100Y-372768557D01*
X281591528Y-372911414D01*
X281662957Y-372982842D01*
X281805814Y-373054271D01*
X282020100Y-373054271D01*
X280877242Y-373054271D02*
X280877242Y-372054271D01*
X280877242Y-372339985D02*
X280805814Y-372197128D01*
X280734385Y-372125700D01*
X280591528Y-372054271D01*
X280448671Y-372054271D01*
X279948671Y-373054271D02*
X279948671Y-371554271D01*
X279805814Y-372482842D02*
X279377242Y-373054271D01*
X279377242Y-372054271D02*
X279948671Y-372625700D01*
X277377242Y-373054271D02*
X277520100Y-372982842D01*
X277591528Y-372911414D01*
X277662957Y-372768557D01*
X277662957Y-372339985D01*
X277591528Y-372197128D01*
X277520100Y-372125700D01*
X277377242Y-372054271D01*
X277162957Y-372054271D01*
X277020100Y-372125700D01*
X276948671Y-372197128D01*
X276877242Y-372339985D01*
X276877242Y-372768557D01*
X276948671Y-372911414D01*
X277020100Y-372982842D01*
X277162957Y-373054271D01*
X277377242Y-373054271D01*
X276448671Y-372054271D02*
X275877242Y-372054271D01*
X276234385Y-373054271D02*
X276234385Y-371768557D01*
X276162957Y-371625700D01*
X276020100Y-371554271D01*
X275877242Y-371554271D01*
X274448671Y-372054271D02*
X273877242Y-372054271D01*
X274234385Y-373054271D02*
X274234385Y-371768557D01*
X274162957Y-371625700D01*
X274020100Y-371554271D01*
X273877242Y-371554271D01*
X273162957Y-373054271D02*
X273305814Y-372982842D01*
X273377242Y-372839985D01*
X273377242Y-371554271D01*
X272377242Y-373054271D02*
X272520100Y-372982842D01*
X272591528Y-372911414D01*
X272662957Y-372768557D01*
X272662957Y-372339985D01*
X272591528Y-372197128D01*
X272520100Y-372125700D01*
X272377242Y-372054271D01*
X272162957Y-372054271D01*
X272020100Y-372125700D01*
X271948671Y-372197128D01*
X271877242Y-372339985D01*
X271877242Y-372768557D01*
X271948671Y-372911414D01*
X272020100Y-372982842D01*
X272162957Y-373054271D01*
X272377242Y-373054271D01*
X271020100Y-373054271D02*
X271162957Y-372982842D01*
X271234385Y-372911414D01*
X271305814Y-372768557D01*
X271305814Y-372339985D01*
X271234385Y-372197128D01*
X271162957Y-372125700D01*
X271020100Y-372054271D01*
X270805814Y-372054271D01*
X270662957Y-372125700D01*
X270591528Y-372197128D01*
X270520100Y-372339985D01*
X270520100Y-372768557D01*
X270591528Y-372911414D01*
X270662957Y-372982842D01*
X270805814Y-373054271D01*
X271020100Y-373054271D01*
X269662957Y-373054271D02*
X269805814Y-372982842D01*
X269877242Y-372911414D01*
X269948671Y-372768557D01*
X269948671Y-372339985D01*
X269877242Y-372197128D01*
X269805814Y-372125700D01*
X269662957Y-372054271D01*
X269448671Y-372054271D01*
X269305814Y-372125700D01*
X269234385Y-372197128D01*
X269162957Y-372339985D01*
X269162957Y-372768557D01*
X269234385Y-372911414D01*
X269305814Y-372982842D01*
X269448671Y-373054271D01*
X269662957Y-373054271D01*
X268520100Y-373054271D02*
X268520100Y-371554271D01*
X268377242Y-372482842D02*
X267948671Y-373054271D01*
X267948671Y-372054271D02*
X268520100Y-372625700D01*
X266662957Y-373054271D02*
X266662957Y-372268557D01*
X266734385Y-372125700D01*
X266877242Y-372054271D01*
X267162957Y-372054271D01*
X267305814Y-372125700D01*
X266662957Y-372982842D02*
X266805814Y-373054271D01*
X267162957Y-373054271D01*
X267305814Y-372982842D01*
X267377242Y-372839985D01*
X267377242Y-372697128D01*
X267305814Y-372554271D01*
X267162957Y-372482842D01*
X266805814Y-372482842D01*
X266662957Y-372411414D01*
X266091528Y-372054271D02*
X265734385Y-373054271D01*
X265377242Y-372054271D02*
X265734385Y-373054271D01*
X265877242Y-373411414D01*
X265948671Y-373482842D01*
X266091528Y-373554271D01*
X263734385Y-371482842D02*
X265020100Y-373411414D01*
X262591528Y-373054271D02*
X262591528Y-372268557D01*
X262662957Y-372125700D01*
X262805814Y-372054271D01*
X263091528Y-372054271D01*
X263234385Y-372125700D01*
X262591528Y-372982842D02*
X262734385Y-373054271D01*
X263091528Y-373054271D01*
X263234385Y-372982842D01*
X263305814Y-372839985D01*
X263305814Y-372697128D01*
X263234385Y-372554271D01*
X263091528Y-372482842D01*
X262734385Y-372482842D01*
X262591528Y-372411414D01*
X261234385Y-373054271D02*
X261234385Y-371554271D01*
X261234385Y-372982842D02*
X261377242Y-373054271D01*
X261662957Y-373054271D01*
X261805814Y-372982842D01*
X261877242Y-372911414D01*
X261948671Y-372768557D01*
X261948671Y-372339985D01*
X261877242Y-372197128D01*
X261805814Y-372125700D01*
X261662957Y-372054271D01*
X261377242Y-372054271D01*
X261234385Y-372125700D01*
X259948671Y-372982842D02*
X260091528Y-373054271D01*
X260377242Y-373054271D01*
X260520100Y-372982842D01*
X260591528Y-372839985D01*
X260591528Y-372268557D01*
X260520100Y-372125700D01*
X260377242Y-372054271D01*
X260091528Y-372054271D01*
X259948671Y-372125700D01*
X259877242Y-372268557D01*
X259877242Y-372411414D01*
X260591528Y-372554271D01*
X259020100Y-373054271D02*
X259162957Y-372982842D01*
X259234385Y-372839985D01*
X259234385Y-371554271D01*
X258448671Y-373054271D02*
X258448671Y-371554271D01*
X257805814Y-373054271D02*
X257805814Y-372268557D01*
X257877242Y-372125700D01*
X258020100Y-372054271D01*
X258234385Y-372054271D01*
X258377242Y-372125700D01*
X258448671Y-372197128D01*
X256520100Y-372982842D02*
X256662957Y-373054271D01*
X256948671Y-373054271D01*
X257091528Y-372982842D01*
X257162957Y-372839985D01*
X257162957Y-372268557D01*
X257091528Y-372125700D01*
X256948671Y-372054271D01*
X256662957Y-372054271D01*
X256520100Y-372125700D01*
X256448671Y-372268557D01*
X256448671Y-372411414D01*
X257162957Y-372554271D01*
X255805814Y-373054271D02*
X255805814Y-372054271D01*
X255805814Y-371554271D02*
X255877242Y-371625700D01*
X255805814Y-371697128D01*
X255734385Y-371625700D01*
X255805814Y-371554271D01*
X255805814Y-371697128D01*
X254448671Y-373054271D02*
X254448671Y-371554271D01*
X254448671Y-372982842D02*
X254591528Y-373054271D01*
X254877242Y-373054271D01*
X255020100Y-372982842D01*
X255091528Y-372911414D01*
X255162957Y-372768557D01*
X255162957Y-372339985D01*
X255091528Y-372197128D01*
X255020100Y-372125700D01*
X254877242Y-372054271D01*
X254591528Y-372054271D01*
X254448671Y-372125700D01*
X279662957Y-375469271D02*
X279662957Y-373969271D01*
X279662957Y-374540700D02*
X279520100Y-374469271D01*
X279234385Y-374469271D01*
X279091528Y-374540700D01*
X279020100Y-374612128D01*
X278948671Y-374754985D01*
X278948671Y-375183557D01*
X279020100Y-375326414D01*
X279091528Y-375397842D01*
X279234385Y-375469271D01*
X279520100Y-375469271D01*
X279662957Y-375397842D01*
X278448671Y-374469271D02*
X278091528Y-375469271D01*
X277734385Y-374469271D02*
X278091528Y-375469271D01*
X278234385Y-375826414D01*
X278305814Y-375897842D01*
X278448671Y-375969271D01*
X275377242Y-375469271D02*
X275377242Y-373969271D01*
X275377242Y-375397842D02*
X275520100Y-375469271D01*
X275805814Y-375469271D01*
X275948671Y-375397842D01*
X276020100Y-375326414D01*
X276091528Y-375183557D01*
X276091528Y-374754985D01*
X276020100Y-374612128D01*
X275948671Y-374540700D01*
X275805814Y-374469271D01*
X275520100Y-374469271D01*
X275377242Y-374540700D01*
X274020100Y-375397842D02*
X274162957Y-375469271D01*
X274448671Y-375469271D01*
X274591528Y-375397842D01*
X274662957Y-375326414D01*
X274734385Y-375183557D01*
X274734385Y-374754985D01*
X274662957Y-374612128D01*
X274591528Y-374540700D01*
X274448671Y-374469271D01*
X274162957Y-374469271D01*
X274020100Y-374540700D01*
X273377242Y-374469271D02*
X273377242Y-375969271D01*
X273377242Y-374540700D02*
X273234385Y-374469271D01*
X272948671Y-374469271D01*
X272805814Y-374540700D01*
X272734385Y-374612128D01*
X272662957Y-374754985D01*
X272662957Y-375183557D01*
X272734385Y-375326414D01*
X272805814Y-375397842D01*
X272948671Y-375469271D01*
X273234385Y-375469271D01*
X273377242Y-375397842D01*
X271448671Y-375397842D02*
X271591528Y-375469271D01*
X271877242Y-375469271D01*
X272020100Y-375397842D01*
X272091528Y-375254985D01*
X272091528Y-374683557D01*
X272020100Y-374540700D01*
X271877242Y-374469271D01*
X271591528Y-374469271D01*
X271448671Y-374540700D01*
X271377242Y-374683557D01*
X271377242Y-374826414D01*
X272091528Y-374969271D01*
X270091528Y-375469271D02*
X270091528Y-373969271D01*
X270091528Y-375397842D02*
X270234385Y-375469271D01*
X270520100Y-375469271D01*
X270662957Y-375397842D01*
X270734385Y-375326414D01*
X270805814Y-375183557D01*
X270805814Y-374754985D01*
X270734385Y-374612128D01*
X270662957Y-374540700D01*
X270520100Y-374469271D01*
X270234385Y-374469271D01*
X270091528Y-374540700D01*
X269377242Y-375469271D02*
X269377242Y-374469271D01*
X269377242Y-373969271D02*
X269448671Y-374040700D01*
X269377242Y-374112128D01*
X269305814Y-374040700D01*
X269377242Y-373969271D01*
X269377242Y-374112128D01*
X268877242Y-374469271D02*
X268305814Y-374469271D01*
X268662957Y-373969271D02*
X268662957Y-375254985D01*
X268591528Y-375397842D01*
X268448671Y-375469271D01*
X268305814Y-375469271D01*
X266234385Y-375969271D02*
X266591528Y-375969271D01*
X266591528Y-373826414D01*
X266234385Y-373826414D01*
X264805814Y-375469271D02*
X265305814Y-374754985D01*
X265662957Y-375469271D02*
X265662957Y-373969271D01*
X265091528Y-373969271D01*
X264948671Y-374040700D01*
X264877242Y-374112128D01*
X264805814Y-374254985D01*
X264805814Y-374469271D01*
X264877242Y-374612128D01*
X264948671Y-374683557D01*
X265091528Y-374754985D01*
X265662957Y-374754985D01*
X263591528Y-375397842D02*
X263734385Y-375469271D01*
X264020100Y-375469271D01*
X264162957Y-375397842D01*
X264234385Y-375254985D01*
X264234385Y-374683557D01*
X264162957Y-374540700D01*
X264020100Y-374469271D01*
X263734385Y-374469271D01*
X263591528Y-374540700D01*
X263520100Y-374683557D01*
X263520100Y-374826414D01*
X264234385Y-374969271D01*
X263020100Y-374469271D02*
X262662957Y-375469271D01*
X262305814Y-374469271D01*
X261877242Y-373969271D02*
X260948671Y-373969271D01*
X261448671Y-374540700D01*
X261234385Y-374540700D01*
X261091528Y-374612128D01*
X261020100Y-374683557D01*
X260948671Y-374826414D01*
X260948671Y-375183557D01*
X261020100Y-375326414D01*
X261091528Y-375397842D01*
X261234385Y-375469271D01*
X261662957Y-375469271D01*
X261805814Y-375397842D01*
X261877242Y-375326414D01*
X260305814Y-375326414D02*
X260234385Y-375397842D01*
X260305814Y-375469271D01*
X260377242Y-375397842D01*
X260305814Y-375326414D01*
X260305814Y-375469271D01*
X259305814Y-373969271D02*
X259162957Y-373969271D01*
X259020100Y-374040700D01*
X258948671Y-374112128D01*
X258877242Y-374254985D01*
X258805814Y-374540700D01*
X258805814Y-374897842D01*
X258877242Y-375183557D01*
X258948671Y-375326414D01*
X259020100Y-375397842D01*
X259162957Y-375469271D01*
X259305814Y-375469271D01*
X259448671Y-375397842D01*
X259520100Y-375326414D01*
X259591528Y-375183557D01*
X259662957Y-374897842D01*
X259662957Y-374540700D01*
X259591528Y-374254985D01*
X259520100Y-374112128D01*
X259448671Y-374040700D01*
X259305814Y-373969271D01*
X258305814Y-375969271D02*
X257948671Y-375969271D01*
X257948671Y-373826414D01*
X258305814Y-373826414D01*
D11*
X321182904Y-251420380D02*
X321182904Y-252229904D01*
X321135285Y-252325142D01*
X321087666Y-252372761D01*
X320992428Y-252420380D01*
X320801952Y-252420380D01*
X320706714Y-252372761D01*
X320659095Y-252325142D01*
X320611476Y-252229904D01*
X320611476Y-251420380D01*
X319611476Y-252420380D02*
X320182904Y-252420380D01*
X319897190Y-252420380D02*
X319897190Y-251420380D01*
X319992428Y-251563238D01*
X320087666Y-251658476D01*
X320182904Y-251706095D01*
X424989880Y-333748214D02*
X423989880Y-333748214D01*
X423989880Y-333986309D01*
X424037500Y-334129166D01*
X424132738Y-334224404D01*
X424227976Y-334272023D01*
X424418452Y-334319642D01*
X424561309Y-334319642D01*
X424751785Y-334272023D01*
X424847023Y-334224404D01*
X424942261Y-334129166D01*
X424989880Y-333986309D01*
X424989880Y-333748214D01*
X423989880Y-335176785D02*
X423989880Y-334986309D01*
X424037500Y-334891071D01*
X424085119Y-334843452D01*
X424227976Y-334748214D01*
X424418452Y-334700595D01*
X424799404Y-334700595D01*
X424894642Y-334748214D01*
X424942261Y-334795833D01*
X424989880Y-334891071D01*
X424989880Y-335081547D01*
X424942261Y-335176785D01*
X424894642Y-335224404D01*
X424799404Y-335272023D01*
X424561309Y-335272023D01*
X424466071Y-335224404D01*
X424418452Y-335176785D01*
X424370833Y-335081547D01*
X424370833Y-334891071D01*
X424418452Y-334795833D01*
X424466071Y-334748214D01*
X424561309Y-334700595D01*
X424989880Y-336224404D02*
X424989880Y-335652976D01*
X424989880Y-335938690D02*
X423989880Y-335938690D01*
X424132738Y-335843452D01*
X424227976Y-335748214D01*
X424275595Y-335652976D01*
X405939880Y-332160714D02*
X404939880Y-332160714D01*
X404939880Y-332398809D01*
X404987500Y-332541666D01*
X405082738Y-332636904D01*
X405177976Y-332684523D01*
X405368452Y-332732142D01*
X405511309Y-332732142D01*
X405701785Y-332684523D01*
X405797023Y-332636904D01*
X405892261Y-332541666D01*
X405939880Y-332398809D01*
X405939880Y-332160714D01*
X404939880Y-333636904D02*
X404939880Y-333160714D01*
X405416071Y-333113095D01*
X405368452Y-333160714D01*
X405320833Y-333255952D01*
X405320833Y-333494047D01*
X405368452Y-333589285D01*
X405416071Y-333636904D01*
X405511309Y-333684523D01*
X405749404Y-333684523D01*
X405844642Y-333636904D01*
X405892261Y-333589285D01*
X405939880Y-333494047D01*
X405939880Y-333255952D01*
X405892261Y-333160714D01*
X405844642Y-333113095D01*
X404939880Y-334589285D02*
X404939880Y-334113095D01*
X405416071Y-334065476D01*
X405368452Y-334113095D01*
X405320833Y-334208333D01*
X405320833Y-334446428D01*
X405368452Y-334541666D01*
X405416071Y-334589285D01*
X405511309Y-334636904D01*
X405749404Y-334636904D01*
X405844642Y-334589285D01*
X405892261Y-334541666D01*
X405939880Y-334446428D01*
X405939880Y-334208333D01*
X405892261Y-334113095D01*
X405844642Y-334065476D01*
X424989880Y-352798214D02*
X423989880Y-352798214D01*
X423989880Y-353036309D01*
X424037500Y-353179166D01*
X424132738Y-353274404D01*
X424227976Y-353322023D01*
X424418452Y-353369642D01*
X424561309Y-353369642D01*
X424751785Y-353322023D01*
X424847023Y-353274404D01*
X424942261Y-353179166D01*
X424989880Y-353036309D01*
X424989880Y-352798214D01*
X423989880Y-354226785D02*
X423989880Y-354036309D01*
X424037500Y-353941071D01*
X424085119Y-353893452D01*
X424227976Y-353798214D01*
X424418452Y-353750595D01*
X424799404Y-353750595D01*
X424894642Y-353798214D01*
X424942261Y-353845833D01*
X424989880Y-353941071D01*
X424989880Y-354131547D01*
X424942261Y-354226785D01*
X424894642Y-354274404D01*
X424799404Y-354322023D01*
X424561309Y-354322023D01*
X424466071Y-354274404D01*
X424418452Y-354226785D01*
X424370833Y-354131547D01*
X424370833Y-353941071D01*
X424418452Y-353845833D01*
X424466071Y-353798214D01*
X424561309Y-353750595D01*
X424085119Y-354702976D02*
X424037500Y-354750595D01*
X423989880Y-354845833D01*
X423989880Y-355083928D01*
X424037500Y-355179166D01*
X424085119Y-355226785D01*
X424180357Y-355274404D01*
X424275595Y-355274404D01*
X424418452Y-355226785D01*
X424989880Y-354655357D01*
X424989880Y-355274404D01*
X444039880Y-362323214D02*
X443039880Y-362323214D01*
X443039880Y-362561309D01*
X443087500Y-362704166D01*
X443182738Y-362799404D01*
X443277976Y-362847023D01*
X443468452Y-362894642D01*
X443611309Y-362894642D01*
X443801785Y-362847023D01*
X443897023Y-362799404D01*
X443992261Y-362704166D01*
X444039880Y-362561309D01*
X444039880Y-362323214D01*
X443039880Y-363751785D02*
X443039880Y-363561309D01*
X443087500Y-363466071D01*
X443135119Y-363418452D01*
X443277976Y-363323214D01*
X443468452Y-363275595D01*
X443849404Y-363275595D01*
X443944642Y-363323214D01*
X443992261Y-363370833D01*
X444039880Y-363466071D01*
X444039880Y-363656547D01*
X443992261Y-363751785D01*
X443944642Y-363799404D01*
X443849404Y-363847023D01*
X443611309Y-363847023D01*
X443516071Y-363799404D01*
X443468452Y-363751785D01*
X443420833Y-363656547D01*
X443420833Y-363466071D01*
X443468452Y-363370833D01*
X443516071Y-363323214D01*
X443611309Y-363275595D01*
X443039880Y-364180357D02*
X443039880Y-364799404D01*
X443420833Y-364466071D01*
X443420833Y-364608928D01*
X443468452Y-364704166D01*
X443516071Y-364751785D01*
X443611309Y-364799404D01*
X443849404Y-364799404D01*
X443944642Y-364751785D01*
X443992261Y-364704166D01*
X444039880Y-364608928D01*
X444039880Y-364323214D01*
X443992261Y-364227976D01*
X443944642Y-364180357D01*
X424989880Y-295648214D02*
X423989880Y-295648214D01*
X423989880Y-295886309D01*
X424037500Y-296029166D01*
X424132738Y-296124404D01*
X424227976Y-296172023D01*
X424418452Y-296219642D01*
X424561309Y-296219642D01*
X424751785Y-296172023D01*
X424847023Y-296124404D01*
X424942261Y-296029166D01*
X424989880Y-295886309D01*
X424989880Y-295648214D01*
X423989880Y-297124404D02*
X423989880Y-296648214D01*
X424466071Y-296600595D01*
X424418452Y-296648214D01*
X424370833Y-296743452D01*
X424370833Y-296981547D01*
X424418452Y-297076785D01*
X424466071Y-297124404D01*
X424561309Y-297172023D01*
X424799404Y-297172023D01*
X424894642Y-297124404D01*
X424942261Y-297076785D01*
X424989880Y-296981547D01*
X424989880Y-296743452D01*
X424942261Y-296648214D01*
X424894642Y-296600595D01*
X424989880Y-297648214D02*
X424989880Y-297838690D01*
X424942261Y-297933928D01*
X424894642Y-297981547D01*
X424751785Y-298076785D01*
X424561309Y-298124404D01*
X424180357Y-298124404D01*
X424085119Y-298076785D01*
X424037500Y-298029166D01*
X423989880Y-297933928D01*
X423989880Y-297743452D01*
X424037500Y-297648214D01*
X424085119Y-297600595D01*
X424180357Y-297552976D01*
X424418452Y-297552976D01*
X424513690Y-297600595D01*
X424561309Y-297648214D01*
X424608928Y-297743452D01*
X424608928Y-297933928D01*
X424561309Y-298029166D01*
X424513690Y-298076785D01*
X424418452Y-298124404D01*
X405939880Y-270248214D02*
X404939880Y-270248214D01*
X404939880Y-270486309D01*
X404987500Y-270629166D01*
X405082738Y-270724404D01*
X405177976Y-270772023D01*
X405368452Y-270819642D01*
X405511309Y-270819642D01*
X405701785Y-270772023D01*
X405797023Y-270724404D01*
X405892261Y-270629166D01*
X405939880Y-270486309D01*
X405939880Y-270248214D01*
X404939880Y-271724404D02*
X404939880Y-271248214D01*
X405416071Y-271200595D01*
X405368452Y-271248214D01*
X405320833Y-271343452D01*
X405320833Y-271581547D01*
X405368452Y-271676785D01*
X405416071Y-271724404D01*
X405511309Y-271772023D01*
X405749404Y-271772023D01*
X405844642Y-271724404D01*
X405892261Y-271676785D01*
X405939880Y-271581547D01*
X405939880Y-271343452D01*
X405892261Y-271248214D01*
X405844642Y-271200595D01*
X405035119Y-272152976D02*
X404987500Y-272200595D01*
X404939880Y-272295833D01*
X404939880Y-272533928D01*
X404987500Y-272629166D01*
X405035119Y-272676785D01*
X405130357Y-272724404D01*
X405225595Y-272724404D01*
X405368452Y-272676785D01*
X405939880Y-272105357D01*
X405939880Y-272724404D01*
X426577380Y-370260714D02*
X425577380Y-370260714D01*
X425577380Y-370498809D01*
X425625000Y-370641666D01*
X425720238Y-370736904D01*
X425815476Y-370784523D01*
X426005952Y-370832142D01*
X426148809Y-370832142D01*
X426339285Y-370784523D01*
X426434523Y-370736904D01*
X426529761Y-370641666D01*
X426577380Y-370498809D01*
X426577380Y-370260714D01*
X425577380Y-371736904D02*
X425577380Y-371260714D01*
X426053571Y-371213095D01*
X426005952Y-371260714D01*
X425958333Y-371355952D01*
X425958333Y-371594047D01*
X426005952Y-371689285D01*
X426053571Y-371736904D01*
X426148809Y-371784523D01*
X426386904Y-371784523D01*
X426482142Y-371736904D01*
X426529761Y-371689285D01*
X426577380Y-371594047D01*
X426577380Y-371355952D01*
X426529761Y-371260714D01*
X426482142Y-371213095D01*
X425577380Y-372117857D02*
X425577380Y-372784523D01*
X426577380Y-372355952D01*
X405939880Y-351210714D02*
X404939880Y-351210714D01*
X404939880Y-351448809D01*
X404987500Y-351591666D01*
X405082738Y-351686904D01*
X405177976Y-351734523D01*
X405368452Y-351782142D01*
X405511309Y-351782142D01*
X405701785Y-351734523D01*
X405797023Y-351686904D01*
X405892261Y-351591666D01*
X405939880Y-351448809D01*
X405939880Y-351210714D01*
X404939880Y-352686904D02*
X404939880Y-352210714D01*
X405416071Y-352163095D01*
X405368452Y-352210714D01*
X405320833Y-352305952D01*
X405320833Y-352544047D01*
X405368452Y-352639285D01*
X405416071Y-352686904D01*
X405511309Y-352734523D01*
X405749404Y-352734523D01*
X405844642Y-352686904D01*
X405892261Y-352639285D01*
X405939880Y-352544047D01*
X405939880Y-352305952D01*
X405892261Y-352210714D01*
X405844642Y-352163095D01*
X404939880Y-353591666D02*
X404939880Y-353401190D01*
X404987500Y-353305952D01*
X405035119Y-353258333D01*
X405177976Y-353163095D01*
X405368452Y-353115476D01*
X405749404Y-353115476D01*
X405844642Y-353163095D01*
X405892261Y-353210714D01*
X405939880Y-353305952D01*
X405939880Y-353496428D01*
X405892261Y-353591666D01*
X405844642Y-353639285D01*
X405749404Y-353686904D01*
X405511309Y-353686904D01*
X405416071Y-353639285D01*
X405368452Y-353591666D01*
X405320833Y-353496428D01*
X405320833Y-353305952D01*
X405368452Y-353210714D01*
X405416071Y-353163095D01*
X405511309Y-353115476D01*
X405939880Y-313110714D02*
X404939880Y-313110714D01*
X404939880Y-313348809D01*
X404987500Y-313491666D01*
X405082738Y-313586904D01*
X405177976Y-313634523D01*
X405368452Y-313682142D01*
X405511309Y-313682142D01*
X405701785Y-313634523D01*
X405797023Y-313586904D01*
X405892261Y-313491666D01*
X405939880Y-313348809D01*
X405939880Y-313110714D01*
X404939880Y-314586904D02*
X404939880Y-314110714D01*
X405416071Y-314063095D01*
X405368452Y-314110714D01*
X405320833Y-314205952D01*
X405320833Y-314444047D01*
X405368452Y-314539285D01*
X405416071Y-314586904D01*
X405511309Y-314634523D01*
X405749404Y-314634523D01*
X405844642Y-314586904D01*
X405892261Y-314539285D01*
X405939880Y-314444047D01*
X405939880Y-314205952D01*
X405892261Y-314110714D01*
X405844642Y-314063095D01*
X405273214Y-315491666D02*
X405939880Y-315491666D01*
X404892261Y-315253571D02*
X405606547Y-315015476D01*
X405606547Y-315634523D01*
X424989880Y-271835714D02*
X423989880Y-271835714D01*
X423989880Y-272073809D01*
X424037500Y-272216666D01*
X424132738Y-272311904D01*
X424227976Y-272359523D01*
X424418452Y-272407142D01*
X424561309Y-272407142D01*
X424751785Y-272359523D01*
X424847023Y-272311904D01*
X424942261Y-272216666D01*
X424989880Y-272073809D01*
X424989880Y-271835714D01*
X423989880Y-273311904D02*
X423989880Y-272835714D01*
X424466071Y-272788095D01*
X424418452Y-272835714D01*
X424370833Y-272930952D01*
X424370833Y-273169047D01*
X424418452Y-273264285D01*
X424466071Y-273311904D01*
X424561309Y-273359523D01*
X424799404Y-273359523D01*
X424894642Y-273311904D01*
X424942261Y-273264285D01*
X424989880Y-273169047D01*
X424989880Y-272930952D01*
X424942261Y-272835714D01*
X424894642Y-272788095D01*
X424418452Y-273930952D02*
X424370833Y-273835714D01*
X424323214Y-273788095D01*
X424227976Y-273740476D01*
X424180357Y-273740476D01*
X424085119Y-273788095D01*
X424037500Y-273835714D01*
X423989880Y-273930952D01*
X423989880Y-274121428D01*
X424037500Y-274216666D01*
X424085119Y-274264285D01*
X424180357Y-274311904D01*
X424227976Y-274311904D01*
X424323214Y-274264285D01*
X424370833Y-274216666D01*
X424418452Y-274121428D01*
X424418452Y-273930952D01*
X424466071Y-273835714D01*
X424513690Y-273788095D01*
X424608928Y-273740476D01*
X424799404Y-273740476D01*
X424894642Y-273788095D01*
X424942261Y-273835714D01*
X424989880Y-273930952D01*
X424989880Y-274121428D01*
X424942261Y-274216666D01*
X424894642Y-274264285D01*
X424799404Y-274311904D01*
X424608928Y-274311904D01*
X424513690Y-274264285D01*
X424466071Y-274216666D01*
X424418452Y-274121428D01*
X424989880Y-314698214D02*
X423989880Y-314698214D01*
X423989880Y-314936309D01*
X424037500Y-315079166D01*
X424132738Y-315174404D01*
X424227976Y-315222023D01*
X424418452Y-315269642D01*
X424561309Y-315269642D01*
X424751785Y-315222023D01*
X424847023Y-315174404D01*
X424942261Y-315079166D01*
X424989880Y-314936309D01*
X424989880Y-314698214D01*
X423989880Y-316126785D02*
X423989880Y-315936309D01*
X424037500Y-315841071D01*
X424085119Y-315793452D01*
X424227976Y-315698214D01*
X424418452Y-315650595D01*
X424799404Y-315650595D01*
X424894642Y-315698214D01*
X424942261Y-315745833D01*
X424989880Y-315841071D01*
X424989880Y-316031547D01*
X424942261Y-316126785D01*
X424894642Y-316174404D01*
X424799404Y-316222023D01*
X424561309Y-316222023D01*
X424466071Y-316174404D01*
X424418452Y-316126785D01*
X424370833Y-316031547D01*
X424370833Y-315841071D01*
X424418452Y-315745833D01*
X424466071Y-315698214D01*
X424561309Y-315650595D01*
X423989880Y-316841071D02*
X423989880Y-316936309D01*
X424037500Y-317031547D01*
X424085119Y-317079166D01*
X424180357Y-317126785D01*
X424370833Y-317174404D01*
X424608928Y-317174404D01*
X424799404Y-317126785D01*
X424894642Y-317079166D01*
X424942261Y-317031547D01*
X424989880Y-316936309D01*
X424989880Y-316841071D01*
X424942261Y-316745833D01*
X424894642Y-316698214D01*
X424799404Y-316650595D01*
X424608928Y-316602976D01*
X424370833Y-316602976D01*
X424180357Y-316650595D01*
X424085119Y-316698214D01*
X424037500Y-316745833D01*
X423989880Y-316841071D01*
X405939880Y-294060714D02*
X404939880Y-294060714D01*
X404939880Y-294298809D01*
X404987500Y-294441666D01*
X405082738Y-294536904D01*
X405177976Y-294584523D01*
X405368452Y-294632142D01*
X405511309Y-294632142D01*
X405701785Y-294584523D01*
X405797023Y-294536904D01*
X405892261Y-294441666D01*
X405939880Y-294298809D01*
X405939880Y-294060714D01*
X404939880Y-295536904D02*
X404939880Y-295060714D01*
X405416071Y-295013095D01*
X405368452Y-295060714D01*
X405320833Y-295155952D01*
X405320833Y-295394047D01*
X405368452Y-295489285D01*
X405416071Y-295536904D01*
X405511309Y-295584523D01*
X405749404Y-295584523D01*
X405844642Y-295536904D01*
X405892261Y-295489285D01*
X405939880Y-295394047D01*
X405939880Y-295155952D01*
X405892261Y-295060714D01*
X405844642Y-295013095D01*
X404939880Y-295917857D02*
X404939880Y-296536904D01*
X405320833Y-296203571D01*
X405320833Y-296346428D01*
X405368452Y-296441666D01*
X405416071Y-296489285D01*
X405511309Y-296536904D01*
X405749404Y-296536904D01*
X405844642Y-296489285D01*
X405892261Y-296441666D01*
X405939880Y-296346428D01*
X405939880Y-296060714D01*
X405892261Y-295965476D01*
X405844642Y-295917857D01*
X98758630Y-338510714D02*
X97758630Y-338510714D01*
X97758630Y-338748809D01*
X97806250Y-338891666D01*
X97901488Y-338986904D01*
X97996726Y-339034523D01*
X98187202Y-339082142D01*
X98330059Y-339082142D01*
X98520535Y-339034523D01*
X98615773Y-338986904D01*
X98711011Y-338891666D01*
X98758630Y-338748809D01*
X98758630Y-338510714D01*
X97853869Y-339463095D02*
X97806250Y-339510714D01*
X97758630Y-339605952D01*
X97758630Y-339844047D01*
X97806250Y-339939285D01*
X97853869Y-339986904D01*
X97949107Y-340034523D01*
X98044345Y-340034523D01*
X98187202Y-339986904D01*
X98758630Y-339415476D01*
X98758630Y-340034523D01*
X97758630Y-340653571D02*
X97758630Y-340748809D01*
X97806250Y-340844047D01*
X97853869Y-340891666D01*
X97949107Y-340939285D01*
X98139583Y-340986904D01*
X98377678Y-340986904D01*
X98568154Y-340939285D01*
X98663392Y-340891666D01*
X98711011Y-340844047D01*
X98758630Y-340748809D01*
X98758630Y-340653571D01*
X98711011Y-340558333D01*
X98663392Y-340510714D01*
X98568154Y-340463095D01*
X98377678Y-340415476D01*
X98139583Y-340415476D01*
X97949107Y-340463095D01*
X97853869Y-340510714D01*
X97806250Y-340558333D01*
X97758630Y-340653571D01*
X333630Y-370260714D02*
X-666369Y-370260714D01*
X-666369Y-370498809D01*
X-618750Y-370641666D01*
X-523511Y-370736904D01*
X-428273Y-370784523D01*
X-237797Y-370832142D01*
X-94940Y-370832142D01*
X95535Y-370784523D01*
X190773Y-370736904D01*
X286011Y-370641666D01*
X333630Y-370498809D01*
X333630Y-370260714D01*
X333630Y-371784523D02*
X333630Y-371213095D01*
X333630Y-371498809D02*
X-666369Y-371498809D01*
X-523511Y-371403571D01*
X-428273Y-371308333D01*
X-380654Y-371213095D01*
X333630Y-372736904D02*
X333630Y-372165476D01*
X333630Y-372451190D02*
X-666369Y-372451190D01*
X-523511Y-372355952D01*
X-428273Y-372260714D01*
X-380654Y-372165476D01*
X80502380Y-334541964D02*
X79502380Y-334541964D01*
X79502380Y-334780059D01*
X79550000Y-334922916D01*
X79645238Y-335018154D01*
X79740476Y-335065773D01*
X79930952Y-335113392D01*
X80073809Y-335113392D01*
X80264285Y-335065773D01*
X80359523Y-335018154D01*
X80454761Y-334922916D01*
X80502380Y-334780059D01*
X80502380Y-334541964D01*
X80502380Y-336065773D02*
X80502380Y-335494345D01*
X80502380Y-335780059D02*
X79502380Y-335780059D01*
X79645238Y-335684821D01*
X79740476Y-335589583D01*
X79788095Y-335494345D01*
X79502380Y-336970535D02*
X79502380Y-336494345D01*
X79978571Y-336446726D01*
X79930952Y-336494345D01*
X79883333Y-336589583D01*
X79883333Y-336827678D01*
X79930952Y-336922916D01*
X79978571Y-336970535D01*
X80073809Y-337018154D01*
X80311904Y-337018154D01*
X80407142Y-336970535D01*
X80454761Y-336922916D01*
X80502380Y-336827678D01*
X80502380Y-336589583D01*
X80454761Y-336494345D01*
X80407142Y-336446726D01*
X182896130Y-344860714D02*
X181896130Y-344860714D01*
X181896130Y-345098809D01*
X181943750Y-345241666D01*
X182038988Y-345336904D01*
X182134226Y-345384523D01*
X182324702Y-345432142D01*
X182467559Y-345432142D01*
X182658035Y-345384523D01*
X182753273Y-345336904D01*
X182848511Y-345241666D01*
X182896130Y-345098809D01*
X182896130Y-344860714D01*
X181991369Y-345813095D02*
X181943750Y-345860714D01*
X181896130Y-345955952D01*
X181896130Y-346194047D01*
X181943750Y-346289285D01*
X181991369Y-346336904D01*
X182086607Y-346384523D01*
X182181845Y-346384523D01*
X182324702Y-346336904D01*
X182896130Y-345765476D01*
X182896130Y-346384523D01*
X181896130Y-347241666D02*
X181896130Y-347051190D01*
X181943750Y-346955952D01*
X181991369Y-346908333D01*
X182134226Y-346813095D01*
X182324702Y-346765476D01*
X182705654Y-346765476D01*
X182800892Y-346813095D01*
X182848511Y-346860714D01*
X182896130Y-346955952D01*
X182896130Y-347146428D01*
X182848511Y-347241666D01*
X182800892Y-347289285D01*
X182705654Y-347336904D01*
X182467559Y-347336904D01*
X182372321Y-347289285D01*
X182324702Y-347241666D01*
X182277083Y-347146428D01*
X182277083Y-346955952D01*
X182324702Y-346860714D01*
X182372321Y-346813095D01*
X182467559Y-346765476D01*
X277352380Y-332160714D02*
X276352380Y-332160714D01*
X276352380Y-332398809D01*
X276400000Y-332541666D01*
X276495238Y-332636904D01*
X276590476Y-332684523D01*
X276780952Y-332732142D01*
X276923809Y-332732142D01*
X277114285Y-332684523D01*
X277209523Y-332636904D01*
X277304761Y-332541666D01*
X277352380Y-332398809D01*
X277352380Y-332160714D01*
X276685714Y-333589285D02*
X277352380Y-333589285D01*
X276304761Y-333351190D02*
X277019047Y-333113095D01*
X277019047Y-333732142D01*
X276447619Y-334065476D02*
X276400000Y-334113095D01*
X276352380Y-334208333D01*
X276352380Y-334446428D01*
X276400000Y-334541666D01*
X276447619Y-334589285D01*
X276542857Y-334636904D01*
X276638095Y-334636904D01*
X276780952Y-334589285D01*
X277352380Y-334017857D01*
X277352380Y-334636904D01*
X79708630Y-314698214D02*
X78708630Y-314698214D01*
X78708630Y-314936309D01*
X78756250Y-315079166D01*
X78851488Y-315174404D01*
X78946726Y-315222023D01*
X79137202Y-315269642D01*
X79280059Y-315269642D01*
X79470535Y-315222023D01*
X79565773Y-315174404D01*
X79661011Y-315079166D01*
X79708630Y-314936309D01*
X79708630Y-314698214D01*
X79708630Y-316222023D02*
X79708630Y-315650595D01*
X79708630Y-315936309D02*
X78708630Y-315936309D01*
X78851488Y-315841071D01*
X78946726Y-315745833D01*
X78994345Y-315650595D01*
X79041964Y-317079166D02*
X79708630Y-317079166D01*
X78661011Y-316841071D02*
X79375297Y-316602976D01*
X79375297Y-317222023D01*
X-18716369Y-294536904D02*
X-19716369Y-294536904D01*
X-19716369Y-294775000D01*
X-19668750Y-294917857D01*
X-19573511Y-295013095D01*
X-19478273Y-295060714D01*
X-19287797Y-295108333D01*
X-19144940Y-295108333D01*
X-18954464Y-295060714D01*
X-18859226Y-295013095D01*
X-18763988Y-294917857D01*
X-18716369Y-294775000D01*
X-18716369Y-294536904D01*
X-18716369Y-296060714D02*
X-18716369Y-295489285D01*
X-18716369Y-295775000D02*
X-19716369Y-295775000D01*
X-19573511Y-295679761D01*
X-19478273Y-295584523D01*
X-19430654Y-295489285D01*
X333630Y-275486904D02*
X-666369Y-275486904D01*
X-666369Y-275725000D01*
X-618750Y-275867857D01*
X-523511Y-275963095D01*
X-428273Y-276010714D01*
X-237797Y-276058333D01*
X-94940Y-276058333D01*
X95535Y-276010714D01*
X190773Y-275963095D01*
X286011Y-275867857D01*
X333630Y-275725000D01*
X333630Y-275486904D01*
X-666369Y-276915476D02*
X-666369Y-276725000D01*
X-618750Y-276629761D01*
X-571130Y-276582142D01*
X-428273Y-276486904D01*
X-237797Y-276439285D01*
X143154Y-276439285D01*
X238392Y-276486904D01*
X286011Y-276534523D01*
X333630Y-276629761D01*
X333630Y-276820238D01*
X286011Y-276915476D01*
X238392Y-276963095D01*
X143154Y-277010714D01*
X-94940Y-277010714D01*
X-190178Y-276963095D01*
X-237797Y-276915476D01*
X-285416Y-276820238D01*
X-285416Y-276629761D01*
X-237797Y-276534523D01*
X-190178Y-276486904D01*
X-94940Y-276439285D01*
X-18716369Y-332636904D02*
X-19716369Y-332636904D01*
X-19716369Y-332875000D01*
X-19668750Y-333017857D01*
X-19573511Y-333113095D01*
X-19478273Y-333160714D01*
X-19287797Y-333208333D01*
X-19144940Y-333208333D01*
X-18954464Y-333160714D01*
X-18859226Y-333113095D01*
X-18763988Y-333017857D01*
X-18716369Y-332875000D01*
X-18716369Y-332636904D01*
X-19716369Y-333541666D02*
X-19716369Y-334160714D01*
X-19335416Y-333827380D01*
X-19335416Y-333970238D01*
X-19287797Y-334065476D01*
X-19240178Y-334113095D01*
X-19144940Y-334160714D01*
X-18906845Y-334160714D01*
X-18811607Y-334113095D01*
X-18763988Y-334065476D01*
X-18716369Y-333970238D01*
X-18716369Y-333684523D01*
X-18763988Y-333589285D01*
X-18811607Y-333541666D01*
X346408630Y-270248214D02*
X345408630Y-270248214D01*
X345408630Y-270486309D01*
X345456250Y-270629166D01*
X345551488Y-270724404D01*
X345646726Y-270772023D01*
X345837202Y-270819642D01*
X345980059Y-270819642D01*
X346170535Y-270772023D01*
X346265773Y-270724404D01*
X346361011Y-270629166D01*
X346408630Y-270486309D01*
X346408630Y-270248214D01*
X345741964Y-271676785D02*
X346408630Y-271676785D01*
X345361011Y-271438690D02*
X346075297Y-271200595D01*
X346075297Y-271819642D01*
X345408630Y-272105357D02*
X345408630Y-272724404D01*
X345789583Y-272391071D01*
X345789583Y-272533928D01*
X345837202Y-272629166D01*
X345884821Y-272676785D01*
X345980059Y-272724404D01*
X346218154Y-272724404D01*
X346313392Y-272676785D01*
X346361011Y-272629166D01*
X346408630Y-272533928D01*
X346408630Y-272248214D01*
X346361011Y-272152976D01*
X346313392Y-272105357D01*
X254333630Y-295735714D02*
X253333630Y-295735714D01*
X253333630Y-295973809D01*
X253381250Y-296116666D01*
X253476488Y-296211904D01*
X253571726Y-296259523D01*
X253762202Y-296307142D01*
X253905059Y-296307142D01*
X254095535Y-296259523D01*
X254190773Y-296211904D01*
X254286011Y-296116666D01*
X254333630Y-295973809D01*
X254333630Y-295735714D01*
X253333630Y-296640476D02*
X253333630Y-297259523D01*
X253714583Y-296926190D01*
X253714583Y-297069047D01*
X253762202Y-297164285D01*
X253809821Y-297211904D01*
X253905059Y-297259523D01*
X254143154Y-297259523D01*
X254238392Y-297211904D01*
X254286011Y-297164285D01*
X254333630Y-297069047D01*
X254333630Y-296783333D01*
X254286011Y-296688095D01*
X254238392Y-296640476D01*
X253333630Y-298164285D02*
X253333630Y-297688095D01*
X253809821Y-297640476D01*
X253762202Y-297688095D01*
X253714583Y-297783333D01*
X253714583Y-298021428D01*
X253762202Y-298116666D01*
X253809821Y-298164285D01*
X253905059Y-298211904D01*
X254143154Y-298211904D01*
X254238392Y-298164285D01*
X254286011Y-298116666D01*
X254333630Y-298021428D01*
X254333630Y-297783333D01*
X254286011Y-297688095D01*
X254238392Y-297640476D01*
X172577380Y-366291964D02*
X171577380Y-366291964D01*
X171577380Y-366530059D01*
X171625000Y-366672916D01*
X171720238Y-366768154D01*
X171815476Y-366815773D01*
X172005952Y-366863392D01*
X172148809Y-366863392D01*
X172339285Y-366815773D01*
X172434523Y-366768154D01*
X172529761Y-366672916D01*
X172577380Y-366530059D01*
X172577380Y-366291964D01*
X171672619Y-367244345D02*
X171625000Y-367291964D01*
X171577380Y-367387202D01*
X171577380Y-367625297D01*
X171625000Y-367720535D01*
X171672619Y-367768154D01*
X171767857Y-367815773D01*
X171863095Y-367815773D01*
X172005952Y-367768154D01*
X172577380Y-367196726D01*
X172577380Y-367815773D01*
X171577380Y-368149107D02*
X171577380Y-368815773D01*
X172577380Y-368387202D01*
X74152380Y-291679464D02*
X73152380Y-291679464D01*
X73152380Y-291917559D01*
X73200000Y-292060416D01*
X73295238Y-292155654D01*
X73390476Y-292203273D01*
X73580952Y-292250892D01*
X73723809Y-292250892D01*
X73914285Y-292203273D01*
X74009523Y-292155654D01*
X74104761Y-292060416D01*
X74152380Y-291917559D01*
X74152380Y-291679464D01*
X74152380Y-293203273D02*
X74152380Y-292631845D01*
X74152380Y-292917559D02*
X73152380Y-292917559D01*
X73295238Y-292822321D01*
X73390476Y-292727083D01*
X73438095Y-292631845D01*
X73152380Y-293536607D02*
X73152380Y-294155654D01*
X73533333Y-293822321D01*
X73533333Y-293965178D01*
X73580952Y-294060416D01*
X73628571Y-294108035D01*
X73723809Y-294155654D01*
X73961904Y-294155654D01*
X74057142Y-294108035D01*
X74104761Y-294060416D01*
X74152380Y-293965178D01*
X74152380Y-293679464D01*
X74104761Y-293584226D01*
X74057142Y-293536607D01*
X333630Y-296124404D02*
X-666369Y-296124404D01*
X-666369Y-296362500D01*
X-618750Y-296505357D01*
X-523511Y-296600595D01*
X-428273Y-296648214D01*
X-237797Y-296695833D01*
X-94940Y-296695833D01*
X95535Y-296648214D01*
X190773Y-296600595D01*
X286011Y-296505357D01*
X333630Y-296362500D01*
X333630Y-296124404D01*
X-666369Y-297029166D02*
X-666369Y-297695833D01*
X333630Y-297267261D01*
X69389880Y-268660714D02*
X68389880Y-268660714D01*
X68389880Y-268898809D01*
X68437500Y-269041666D01*
X68532738Y-269136904D01*
X68627976Y-269184523D01*
X68818452Y-269232142D01*
X68961309Y-269232142D01*
X69151785Y-269184523D01*
X69247023Y-269136904D01*
X69342261Y-269041666D01*
X69389880Y-268898809D01*
X69389880Y-268660714D01*
X69389880Y-270184523D02*
X69389880Y-269613095D01*
X69389880Y-269898809D02*
X68389880Y-269898809D01*
X68532738Y-269803571D01*
X68627976Y-269708333D01*
X68675595Y-269613095D01*
X68485119Y-270565476D02*
X68437500Y-270613095D01*
X68389880Y-270708333D01*
X68389880Y-270946428D01*
X68437500Y-271041666D01*
X68485119Y-271089285D01*
X68580357Y-271136904D01*
X68675595Y-271136904D01*
X68818452Y-271089285D01*
X69389880Y-270517857D01*
X69389880Y-271136904D01*
X97964880Y-318666964D02*
X96964880Y-318666964D01*
X96964880Y-318905059D01*
X97012500Y-319047916D01*
X97107738Y-319143154D01*
X97202976Y-319190773D01*
X97393452Y-319238392D01*
X97536309Y-319238392D01*
X97726785Y-319190773D01*
X97822023Y-319143154D01*
X97917261Y-319047916D01*
X97964880Y-318905059D01*
X97964880Y-318666964D01*
X97964880Y-320190773D02*
X97964880Y-319619345D01*
X97964880Y-319905059D02*
X96964880Y-319905059D01*
X97107738Y-319809821D01*
X97202976Y-319714583D01*
X97250595Y-319619345D01*
X97964880Y-320666964D02*
X97964880Y-320857440D01*
X97917261Y-320952678D01*
X97869642Y-321000297D01*
X97726785Y-321095535D01*
X97536309Y-321143154D01*
X97155357Y-321143154D01*
X97060119Y-321095535D01*
X97012500Y-321047916D01*
X96964880Y-320952678D01*
X96964880Y-320762202D01*
X97012500Y-320666964D01*
X97060119Y-320619345D01*
X97155357Y-320571726D01*
X97393452Y-320571726D01*
X97488690Y-320619345D01*
X97536309Y-320666964D01*
X97583928Y-320762202D01*
X97583928Y-320952678D01*
X97536309Y-321047916D01*
X97488690Y-321095535D01*
X97393452Y-321143154D01*
X363077380Y-271835714D02*
X362077380Y-271835714D01*
X362077380Y-272073809D01*
X362125000Y-272216666D01*
X362220238Y-272311904D01*
X362315476Y-272359523D01*
X362505952Y-272407142D01*
X362648809Y-272407142D01*
X362839285Y-272359523D01*
X362934523Y-272311904D01*
X363029761Y-272216666D01*
X363077380Y-272073809D01*
X363077380Y-271835714D01*
X362410714Y-273264285D02*
X363077380Y-273264285D01*
X362029761Y-273026190D02*
X362744047Y-272788095D01*
X362744047Y-273407142D01*
X362505952Y-273930952D02*
X362458333Y-273835714D01*
X362410714Y-273788095D01*
X362315476Y-273740476D01*
X362267857Y-273740476D01*
X362172619Y-273788095D01*
X362125000Y-273835714D01*
X362077380Y-273930952D01*
X362077380Y-274121428D01*
X362125000Y-274216666D01*
X362172619Y-274264285D01*
X362267857Y-274311904D01*
X362315476Y-274311904D01*
X362410714Y-274264285D01*
X362458333Y-274216666D01*
X362505952Y-274121428D01*
X362505952Y-273930952D01*
X362553571Y-273835714D01*
X362601190Y-273788095D01*
X362696428Y-273740476D01*
X362886904Y-273740476D01*
X362982142Y-273788095D01*
X363029761Y-273835714D01*
X363077380Y-273930952D01*
X363077380Y-274121428D01*
X363029761Y-274216666D01*
X362982142Y-274264285D01*
X362886904Y-274311904D01*
X362696428Y-274311904D01*
X362601190Y-274264285D01*
X362553571Y-274216666D01*
X362505952Y-274121428D01*
X104314880Y-359148214D02*
X103314880Y-359148214D01*
X103314880Y-359386309D01*
X103362500Y-359529166D01*
X103457738Y-359624404D01*
X103552976Y-359672023D01*
X103743452Y-359719642D01*
X103886309Y-359719642D01*
X104076785Y-359672023D01*
X104172023Y-359624404D01*
X104267261Y-359529166D01*
X104314880Y-359386309D01*
X104314880Y-359148214D01*
X103410119Y-360100595D02*
X103362500Y-360148214D01*
X103314880Y-360243452D01*
X103314880Y-360481547D01*
X103362500Y-360576785D01*
X103410119Y-360624404D01*
X103505357Y-360672023D01*
X103600595Y-360672023D01*
X103743452Y-360624404D01*
X104314880Y-360052976D01*
X104314880Y-360672023D01*
X104314880Y-361624404D02*
X104314880Y-361052976D01*
X104314880Y-361338690D02*
X103314880Y-361338690D01*
X103457738Y-361243452D01*
X103552976Y-361148214D01*
X103600595Y-361052976D01*
X197977380Y-278185714D02*
X196977380Y-278185714D01*
X196977380Y-278423809D01*
X197025000Y-278566666D01*
X197120238Y-278661904D01*
X197215476Y-278709523D01*
X197405952Y-278757142D01*
X197548809Y-278757142D01*
X197739285Y-278709523D01*
X197834523Y-278661904D01*
X197929761Y-278566666D01*
X197977380Y-278423809D01*
X197977380Y-278185714D01*
X197072619Y-279138095D02*
X197025000Y-279185714D01*
X196977380Y-279280952D01*
X196977380Y-279519047D01*
X197025000Y-279614285D01*
X197072619Y-279661904D01*
X197167857Y-279709523D01*
X197263095Y-279709523D01*
X197405952Y-279661904D01*
X197977380Y-279090476D01*
X197977380Y-279709523D01*
X197405952Y-280280952D02*
X197358333Y-280185714D01*
X197310714Y-280138095D01*
X197215476Y-280090476D01*
X197167857Y-280090476D01*
X197072619Y-280138095D01*
X197025000Y-280185714D01*
X196977380Y-280280952D01*
X196977380Y-280471428D01*
X197025000Y-280566666D01*
X197072619Y-280614285D01*
X197167857Y-280661904D01*
X197215476Y-280661904D01*
X197310714Y-280614285D01*
X197358333Y-280566666D01*
X197405952Y-280471428D01*
X197405952Y-280280952D01*
X197453571Y-280185714D01*
X197501190Y-280138095D01*
X197596428Y-280090476D01*
X197786904Y-280090476D01*
X197882142Y-280138095D01*
X197929761Y-280185714D01*
X197977380Y-280280952D01*
X197977380Y-280471428D01*
X197929761Y-280566666D01*
X197882142Y-280614285D01*
X197786904Y-280661904D01*
X197596428Y-280661904D01*
X197501190Y-280614285D01*
X197453571Y-280566666D01*
X197405952Y-280471428D01*
X346440380Y-352988714D02*
X345440380Y-352988714D01*
X345440380Y-353226809D01*
X345488000Y-353369666D01*
X345583238Y-353464904D01*
X345678476Y-353512523D01*
X345868952Y-353560142D01*
X346011809Y-353560142D01*
X346202285Y-353512523D01*
X346297523Y-353464904D01*
X346392761Y-353369666D01*
X346440380Y-353226809D01*
X346440380Y-352988714D01*
X345773714Y-354417285D02*
X346440380Y-354417285D01*
X345392761Y-354179190D02*
X346107047Y-353941095D01*
X346107047Y-354560142D01*
X345440380Y-355369666D02*
X345440380Y-355179190D01*
X345488000Y-355083952D01*
X345535619Y-355036333D01*
X345678476Y-354941095D01*
X345868952Y-354893476D01*
X346249904Y-354893476D01*
X346345142Y-354941095D01*
X346392761Y-354988714D01*
X346440380Y-355083952D01*
X346440380Y-355274428D01*
X346392761Y-355369666D01*
X346345142Y-355417285D01*
X346249904Y-355464904D01*
X346011809Y-355464904D01*
X345916571Y-355417285D01*
X345868952Y-355369666D01*
X345821333Y-355274428D01*
X345821333Y-355083952D01*
X345868952Y-354988714D01*
X345916571Y-354941095D01*
X346011809Y-354893476D01*
X258302380Y-333835714D02*
X257302380Y-333835714D01*
X257302380Y-334073809D01*
X257350000Y-334216666D01*
X257445238Y-334311904D01*
X257540476Y-334359523D01*
X257730952Y-334407142D01*
X257873809Y-334407142D01*
X258064285Y-334359523D01*
X258159523Y-334311904D01*
X258254761Y-334216666D01*
X258302380Y-334073809D01*
X258302380Y-333835714D01*
X257302380Y-334740476D02*
X257302380Y-335359523D01*
X257683333Y-335026190D01*
X257683333Y-335169047D01*
X257730952Y-335264285D01*
X257778571Y-335311904D01*
X257873809Y-335359523D01*
X258111904Y-335359523D01*
X258207142Y-335311904D01*
X258254761Y-335264285D01*
X258302380Y-335169047D01*
X258302380Y-334883333D01*
X258254761Y-334788095D01*
X258207142Y-334740476D01*
X257302380Y-335692857D02*
X257302380Y-336359523D01*
X258302380Y-335930952D01*
X247189880Y-350416964D02*
X246189880Y-350416964D01*
X246189880Y-350655059D01*
X246237500Y-350797916D01*
X246332738Y-350893154D01*
X246427976Y-350940773D01*
X246618452Y-350988392D01*
X246761309Y-350988392D01*
X246951785Y-350940773D01*
X247047023Y-350893154D01*
X247142261Y-350797916D01*
X247189880Y-350655059D01*
X247189880Y-350416964D01*
X246189880Y-351321726D02*
X246189880Y-351940773D01*
X246570833Y-351607440D01*
X246570833Y-351750297D01*
X246618452Y-351845535D01*
X246666071Y-351893154D01*
X246761309Y-351940773D01*
X246999404Y-351940773D01*
X247094642Y-351893154D01*
X247142261Y-351845535D01*
X247189880Y-351750297D01*
X247189880Y-351464583D01*
X247142261Y-351369345D01*
X247094642Y-351321726D01*
X246618452Y-352512202D02*
X246570833Y-352416964D01*
X246523214Y-352369345D01*
X246427976Y-352321726D01*
X246380357Y-352321726D01*
X246285119Y-352369345D01*
X246237500Y-352416964D01*
X246189880Y-352512202D01*
X246189880Y-352702678D01*
X246237500Y-352797916D01*
X246285119Y-352845535D01*
X246380357Y-352893154D01*
X246427976Y-352893154D01*
X246523214Y-352845535D01*
X246570833Y-352797916D01*
X246618452Y-352702678D01*
X246618452Y-352512202D01*
X246666071Y-352416964D01*
X246713690Y-352369345D01*
X246808928Y-352321726D01*
X246999404Y-352321726D01*
X247094642Y-352369345D01*
X247142261Y-352416964D01*
X247189880Y-352512202D01*
X247189880Y-352702678D01*
X247142261Y-352797916D01*
X247094642Y-352845535D01*
X246999404Y-352893154D01*
X246808928Y-352893154D01*
X246713690Y-352845535D01*
X246666071Y-352797916D01*
X246618452Y-352702678D01*
X363077380Y-314698214D02*
X362077380Y-314698214D01*
X362077380Y-314936309D01*
X362125000Y-315079166D01*
X362220238Y-315174404D01*
X362315476Y-315222023D01*
X362505952Y-315269642D01*
X362648809Y-315269642D01*
X362839285Y-315222023D01*
X362934523Y-315174404D01*
X363029761Y-315079166D01*
X363077380Y-314936309D01*
X363077380Y-314698214D01*
X362077380Y-316174404D02*
X362077380Y-315698214D01*
X362553571Y-315650595D01*
X362505952Y-315698214D01*
X362458333Y-315793452D01*
X362458333Y-316031547D01*
X362505952Y-316126785D01*
X362553571Y-316174404D01*
X362648809Y-316222023D01*
X362886904Y-316222023D01*
X362982142Y-316174404D01*
X363029761Y-316126785D01*
X363077380Y-316031547D01*
X363077380Y-315793452D01*
X363029761Y-315698214D01*
X362982142Y-315650595D01*
X362077380Y-316841071D02*
X362077380Y-316936309D01*
X362125000Y-317031547D01*
X362172619Y-317079166D01*
X362267857Y-317126785D01*
X362458333Y-317174404D01*
X362696428Y-317174404D01*
X362886904Y-317126785D01*
X362982142Y-317079166D01*
X363029761Y-317031547D01*
X363077380Y-316936309D01*
X363077380Y-316841071D01*
X363029761Y-316745833D01*
X362982142Y-316698214D01*
X362886904Y-316650595D01*
X362696428Y-316602976D01*
X362458333Y-316602976D01*
X362267857Y-316650595D01*
X362172619Y-316698214D01*
X362125000Y-316745833D01*
X362077380Y-316841071D01*
X179721130Y-306760714D02*
X178721130Y-306760714D01*
X178721130Y-306998809D01*
X178768750Y-307141666D01*
X178863988Y-307236904D01*
X178959226Y-307284523D01*
X179149702Y-307332142D01*
X179292559Y-307332142D01*
X179483035Y-307284523D01*
X179578273Y-307236904D01*
X179673511Y-307141666D01*
X179721130Y-306998809D01*
X179721130Y-306760714D01*
X178816369Y-307713095D02*
X178768750Y-307760714D01*
X178721130Y-307855952D01*
X178721130Y-308094047D01*
X178768750Y-308189285D01*
X178816369Y-308236904D01*
X178911607Y-308284523D01*
X179006845Y-308284523D01*
X179149702Y-308236904D01*
X179721130Y-307665476D01*
X179721130Y-308284523D01*
X179054464Y-309141666D02*
X179721130Y-309141666D01*
X178673511Y-308903571D02*
X179387797Y-308665476D01*
X179387797Y-309284523D01*
X278939880Y-268660714D02*
X277939880Y-268660714D01*
X277939880Y-268898809D01*
X277987500Y-269041666D01*
X278082738Y-269136904D01*
X278177976Y-269184523D01*
X278368452Y-269232142D01*
X278511309Y-269232142D01*
X278701785Y-269184523D01*
X278797023Y-269136904D01*
X278892261Y-269041666D01*
X278939880Y-268898809D01*
X278939880Y-268660714D01*
X277939880Y-269565476D02*
X277939880Y-270184523D01*
X278320833Y-269851190D01*
X278320833Y-269994047D01*
X278368452Y-270089285D01*
X278416071Y-270136904D01*
X278511309Y-270184523D01*
X278749404Y-270184523D01*
X278844642Y-270136904D01*
X278892261Y-270089285D01*
X278939880Y-269994047D01*
X278939880Y-269708333D01*
X278892261Y-269613095D01*
X278844642Y-269565476D01*
X278939880Y-270660714D02*
X278939880Y-270851190D01*
X278892261Y-270946428D01*
X278844642Y-270994047D01*
X278701785Y-271089285D01*
X278511309Y-271136904D01*
X278130357Y-271136904D01*
X278035119Y-271089285D01*
X277987500Y-271041666D01*
X277939880Y-270946428D01*
X277939880Y-270755952D01*
X277987500Y-270660714D01*
X278035119Y-270613095D01*
X278130357Y-270565476D01*
X278368452Y-270565476D01*
X278463690Y-270613095D01*
X278511309Y-270660714D01*
X278558928Y-270755952D01*
X278558928Y-270946428D01*
X278511309Y-271041666D01*
X278463690Y-271089285D01*
X278368452Y-271136904D01*
X201152380Y-340891964D02*
X200152380Y-340891964D01*
X200152380Y-341130059D01*
X200200000Y-341272916D01*
X200295238Y-341368154D01*
X200390476Y-341415773D01*
X200580952Y-341463392D01*
X200723809Y-341463392D01*
X200914285Y-341415773D01*
X201009523Y-341368154D01*
X201104761Y-341272916D01*
X201152380Y-341130059D01*
X201152380Y-340891964D01*
X200152380Y-341796726D02*
X200152380Y-342415773D01*
X200533333Y-342082440D01*
X200533333Y-342225297D01*
X200580952Y-342320535D01*
X200628571Y-342368154D01*
X200723809Y-342415773D01*
X200961904Y-342415773D01*
X201057142Y-342368154D01*
X201104761Y-342320535D01*
X201152380Y-342225297D01*
X201152380Y-341939583D01*
X201104761Y-341844345D01*
X201057142Y-341796726D01*
X201152380Y-343368154D02*
X201152380Y-342796726D01*
X201152380Y-343082440D02*
X200152380Y-343082440D01*
X200295238Y-342987202D01*
X200390476Y-342891964D01*
X200438095Y-342796726D01*
X333630Y-352798214D02*
X-666369Y-352798214D01*
X-666369Y-353036309D01*
X-618750Y-353179166D01*
X-523511Y-353274404D01*
X-428273Y-353322023D01*
X-237797Y-353369642D01*
X-94940Y-353369642D01*
X95535Y-353322023D01*
X190773Y-353274404D01*
X286011Y-353179166D01*
X333630Y-353036309D01*
X333630Y-352798214D01*
X333630Y-354322023D02*
X333630Y-353750595D01*
X333630Y-354036309D02*
X-666369Y-354036309D01*
X-523511Y-353941071D01*
X-428273Y-353845833D01*
X-380654Y-353750595D01*
X-666369Y-354941071D02*
X-666369Y-355036309D01*
X-618750Y-355131547D01*
X-571130Y-355179166D01*
X-475892Y-355226785D01*
X-285416Y-355274404D01*
X-47321Y-355274404D01*
X143154Y-355226785D01*
X238392Y-355179166D01*
X286011Y-355131547D01*
X333630Y-355036309D01*
X333630Y-354941071D01*
X286011Y-354845833D01*
X238392Y-354798214D01*
X143154Y-354750595D01*
X-47321Y-354702976D01*
X-285416Y-354702976D01*
X-475892Y-354750595D01*
X-571130Y-354798214D01*
X-618750Y-354845833D01*
X-666369Y-354941071D01*
X248777380Y-314698214D02*
X247777380Y-314698214D01*
X247777380Y-314936309D01*
X247825000Y-315079166D01*
X247920238Y-315174404D01*
X248015476Y-315222023D01*
X248205952Y-315269642D01*
X248348809Y-315269642D01*
X248539285Y-315222023D01*
X248634523Y-315174404D01*
X248729761Y-315079166D01*
X248777380Y-314936309D01*
X248777380Y-314698214D01*
X247777380Y-315602976D02*
X247777380Y-316222023D01*
X248158333Y-315888690D01*
X248158333Y-316031547D01*
X248205952Y-316126785D01*
X248253571Y-316174404D01*
X248348809Y-316222023D01*
X248586904Y-316222023D01*
X248682142Y-316174404D01*
X248729761Y-316126785D01*
X248777380Y-316031547D01*
X248777380Y-315745833D01*
X248729761Y-315650595D01*
X248682142Y-315602976D01*
X247777380Y-317079166D02*
X247777380Y-316888690D01*
X247825000Y-316793452D01*
X247872619Y-316745833D01*
X248015476Y-316650595D01*
X248205952Y-316602976D01*
X248586904Y-316602976D01*
X248682142Y-316650595D01*
X248729761Y-316698214D01*
X248777380Y-316793452D01*
X248777380Y-316983928D01*
X248729761Y-317079166D01*
X248682142Y-317126785D01*
X248586904Y-317174404D01*
X248348809Y-317174404D01*
X248253571Y-317126785D01*
X248205952Y-317079166D01*
X248158333Y-316983928D01*
X248158333Y-316793452D01*
X248205952Y-316698214D01*
X248253571Y-316650595D01*
X248348809Y-316602976D01*
X179721130Y-282154464D02*
X178721130Y-282154464D01*
X178721130Y-282392559D01*
X178768750Y-282535416D01*
X178863988Y-282630654D01*
X178959226Y-282678273D01*
X179149702Y-282725892D01*
X179292559Y-282725892D01*
X179483035Y-282678273D01*
X179578273Y-282630654D01*
X179673511Y-282535416D01*
X179721130Y-282392559D01*
X179721130Y-282154464D01*
X178816369Y-283106845D02*
X178768750Y-283154464D01*
X178721130Y-283249702D01*
X178721130Y-283487797D01*
X178768750Y-283583035D01*
X178816369Y-283630654D01*
X178911607Y-283678273D01*
X179006845Y-283678273D01*
X179149702Y-283630654D01*
X179721130Y-283059226D01*
X179721130Y-283678273D01*
X178721130Y-284011607D02*
X178721130Y-284630654D01*
X179102083Y-284297321D01*
X179102083Y-284440178D01*
X179149702Y-284535416D01*
X179197321Y-284583035D01*
X179292559Y-284630654D01*
X179530654Y-284630654D01*
X179625892Y-284583035D01*
X179673511Y-284535416D01*
X179721130Y-284440178D01*
X179721130Y-284154464D01*
X179673511Y-284059226D01*
X179625892Y-284011607D01*
X344027380Y-370260714D02*
X343027380Y-370260714D01*
X343027380Y-370498809D01*
X343075000Y-370641666D01*
X343170238Y-370736904D01*
X343265476Y-370784523D01*
X343455952Y-370832142D01*
X343598809Y-370832142D01*
X343789285Y-370784523D01*
X343884523Y-370736904D01*
X343979761Y-370641666D01*
X344027380Y-370498809D01*
X344027380Y-370260714D01*
X343360714Y-371689285D02*
X344027380Y-371689285D01*
X342979761Y-371451190D02*
X343694047Y-371213095D01*
X343694047Y-371832142D01*
X343027380Y-372117857D02*
X343027380Y-372784523D01*
X344027380Y-372355952D01*
X-17128869Y-273899404D02*
X-18128869Y-273899404D01*
X-18128869Y-274137500D01*
X-18081250Y-274280357D01*
X-17986011Y-274375595D01*
X-17890773Y-274423214D01*
X-17700297Y-274470833D01*
X-17557440Y-274470833D01*
X-17366964Y-274423214D01*
X-17271726Y-274375595D01*
X-17176488Y-274280357D01*
X-17128869Y-274137500D01*
X-17128869Y-273899404D01*
X-18128869Y-275089880D02*
X-18128869Y-275185119D01*
X-18081250Y-275280357D01*
X-18033630Y-275327976D01*
X-17938392Y-275375595D01*
X-17747916Y-275423214D01*
X-17509821Y-275423214D01*
X-17319345Y-275375595D01*
X-17224107Y-275327976D01*
X-17176488Y-275280357D01*
X-17128869Y-275185119D01*
X-17128869Y-275089880D01*
X-17176488Y-274994642D01*
X-17224107Y-274947023D01*
X-17319345Y-274899404D01*
X-17509821Y-274851785D01*
X-17747916Y-274851785D01*
X-17938392Y-274899404D01*
X-18033630Y-274947023D01*
X-18081250Y-274994642D01*
X-18128869Y-275089880D01*
X346408630Y-294060714D02*
X345408630Y-294060714D01*
X345408630Y-294298809D01*
X345456250Y-294441666D01*
X345551488Y-294536904D01*
X345646726Y-294584523D01*
X345837202Y-294632142D01*
X345980059Y-294632142D01*
X346170535Y-294584523D01*
X346265773Y-294536904D01*
X346361011Y-294441666D01*
X346408630Y-294298809D01*
X346408630Y-294060714D01*
X345741964Y-295489285D02*
X346408630Y-295489285D01*
X345361011Y-295251190D02*
X346075297Y-295013095D01*
X346075297Y-295632142D01*
X345741964Y-296441666D02*
X346408630Y-296441666D01*
X345361011Y-296203571D02*
X346075297Y-295965476D01*
X346075297Y-296584523D01*
X-18716369Y-351686904D02*
X-19716369Y-351686904D01*
X-19716369Y-351925000D01*
X-19668750Y-352067857D01*
X-19573511Y-352163095D01*
X-19478273Y-352210714D01*
X-19287797Y-352258333D01*
X-19144940Y-352258333D01*
X-18954464Y-352210714D01*
X-18859226Y-352163095D01*
X-18763988Y-352067857D01*
X-18716369Y-351925000D01*
X-18716369Y-351686904D01*
X-19383035Y-353115476D02*
X-18716369Y-353115476D01*
X-19763988Y-352877380D02*
X-19049702Y-352639285D01*
X-19049702Y-353258333D01*
X88439880Y-272629464D02*
X87439880Y-272629464D01*
X87439880Y-272867559D01*
X87487500Y-273010416D01*
X87582738Y-273105654D01*
X87677976Y-273153273D01*
X87868452Y-273200892D01*
X88011309Y-273200892D01*
X88201785Y-273153273D01*
X88297023Y-273105654D01*
X88392261Y-273010416D01*
X88439880Y-272867559D01*
X88439880Y-272629464D01*
X88439880Y-274153273D02*
X88439880Y-273581845D01*
X88439880Y-273867559D02*
X87439880Y-273867559D01*
X87582738Y-273772321D01*
X87677976Y-273677083D01*
X87725595Y-273581845D01*
X87439880Y-274486607D02*
X87439880Y-275153273D01*
X88439880Y-274724702D01*
X193214880Y-323429464D02*
X192214880Y-323429464D01*
X192214880Y-323667559D01*
X192262500Y-323810416D01*
X192357738Y-323905654D01*
X192452976Y-323953273D01*
X192643452Y-324000892D01*
X192786309Y-324000892D01*
X192976785Y-323953273D01*
X193072023Y-323905654D01*
X193167261Y-323810416D01*
X193214880Y-323667559D01*
X193214880Y-323429464D01*
X192214880Y-324334226D02*
X192214880Y-324953273D01*
X192595833Y-324619940D01*
X192595833Y-324762797D01*
X192643452Y-324858035D01*
X192691071Y-324905654D01*
X192786309Y-324953273D01*
X193024404Y-324953273D01*
X193119642Y-324905654D01*
X193167261Y-324858035D01*
X193214880Y-324762797D01*
X193214880Y-324477083D01*
X193167261Y-324381845D01*
X193119642Y-324334226D01*
X192214880Y-325572321D02*
X192214880Y-325667559D01*
X192262500Y-325762797D01*
X192310119Y-325810416D01*
X192405357Y-325858035D01*
X192595833Y-325905654D01*
X192833928Y-325905654D01*
X193024404Y-325858035D01*
X193119642Y-325810416D01*
X193167261Y-325762797D01*
X193214880Y-325667559D01*
X193214880Y-325572321D01*
X193167261Y-325477083D01*
X193119642Y-325429464D01*
X193024404Y-325381845D01*
X192833928Y-325334226D01*
X192595833Y-325334226D01*
X192405357Y-325381845D01*
X192310119Y-325429464D01*
X192262500Y-325477083D01*
X192214880Y-325572321D01*
X363077380Y-295735714D02*
X362077380Y-295735714D01*
X362077380Y-295973809D01*
X362125000Y-296116666D01*
X362220238Y-296211904D01*
X362315476Y-296259523D01*
X362505952Y-296307142D01*
X362648809Y-296307142D01*
X362839285Y-296259523D01*
X362934523Y-296211904D01*
X363029761Y-296116666D01*
X363077380Y-295973809D01*
X363077380Y-295735714D01*
X362410714Y-297164285D02*
X363077380Y-297164285D01*
X362029761Y-296926190D02*
X362744047Y-296688095D01*
X362744047Y-297307142D01*
X363077380Y-297735714D02*
X363077380Y-297926190D01*
X363029761Y-298021428D01*
X362982142Y-298069047D01*
X362839285Y-298164285D01*
X362648809Y-298211904D01*
X362267857Y-298211904D01*
X362172619Y-298164285D01*
X362125000Y-298116666D01*
X362077380Y-298021428D01*
X362077380Y-297830952D01*
X362125000Y-297735714D01*
X362172619Y-297688095D01*
X362267857Y-297640476D01*
X362505952Y-297640476D01*
X362601190Y-297688095D01*
X362648809Y-297735714D01*
X362696428Y-297830952D01*
X362696428Y-298021428D01*
X362648809Y-298116666D01*
X362601190Y-298164285D01*
X362505952Y-298211904D01*
X-18716369Y-313586904D02*
X-19716369Y-313586904D01*
X-19716369Y-313825000D01*
X-19668750Y-313967857D01*
X-19573511Y-314063095D01*
X-19478273Y-314110714D01*
X-19287797Y-314158333D01*
X-19144940Y-314158333D01*
X-18954464Y-314110714D01*
X-18859226Y-314063095D01*
X-18763988Y-313967857D01*
X-18716369Y-313825000D01*
X-18716369Y-313586904D01*
X-19621130Y-314539285D02*
X-19668750Y-314586904D01*
X-19716369Y-314682142D01*
X-19716369Y-314920238D01*
X-19668750Y-315015476D01*
X-19621130Y-315063095D01*
X-19525892Y-315110714D01*
X-19430654Y-315110714D01*
X-19287797Y-315063095D01*
X-18716369Y-314491666D01*
X-18716369Y-315110714D01*
X259889880Y-270248214D02*
X258889880Y-270248214D01*
X258889880Y-270486309D01*
X258937500Y-270629166D01*
X259032738Y-270724404D01*
X259127976Y-270772023D01*
X259318452Y-270819642D01*
X259461309Y-270819642D01*
X259651785Y-270772023D01*
X259747023Y-270724404D01*
X259842261Y-270629166D01*
X259889880Y-270486309D01*
X259889880Y-270248214D01*
X258889880Y-271152976D02*
X258889880Y-271772023D01*
X259270833Y-271438690D01*
X259270833Y-271581547D01*
X259318452Y-271676785D01*
X259366071Y-271724404D01*
X259461309Y-271772023D01*
X259699404Y-271772023D01*
X259794642Y-271724404D01*
X259842261Y-271676785D01*
X259889880Y-271581547D01*
X259889880Y-271295833D01*
X259842261Y-271200595D01*
X259794642Y-271152976D01*
X259223214Y-272629166D02*
X259889880Y-272629166D01*
X258842261Y-272391071D02*
X259556547Y-272152976D01*
X259556547Y-272772023D01*
X207502380Y-373435714D02*
X206502380Y-373435714D01*
X206502380Y-373673809D01*
X206550000Y-373816666D01*
X206645238Y-373911904D01*
X206740476Y-373959523D01*
X206930952Y-374007142D01*
X207073809Y-374007142D01*
X207264285Y-373959523D01*
X207359523Y-373911904D01*
X207454761Y-373816666D01*
X207502380Y-373673809D01*
X207502380Y-373435714D01*
X206502380Y-374340476D02*
X206502380Y-374959523D01*
X206883333Y-374626190D01*
X206883333Y-374769047D01*
X206930952Y-374864285D01*
X206978571Y-374911904D01*
X207073809Y-374959523D01*
X207311904Y-374959523D01*
X207407142Y-374911904D01*
X207454761Y-374864285D01*
X207502380Y-374769047D01*
X207502380Y-374483333D01*
X207454761Y-374388095D01*
X207407142Y-374340476D01*
X206502380Y-375292857D02*
X206502380Y-375911904D01*
X206883333Y-375578571D01*
X206883333Y-375721428D01*
X206930952Y-375816666D01*
X206978571Y-375864285D01*
X207073809Y-375911904D01*
X207311904Y-375911904D01*
X207407142Y-375864285D01*
X207454761Y-375816666D01*
X207502380Y-375721428D01*
X207502380Y-375435714D01*
X207454761Y-375340476D01*
X207407142Y-375292857D01*
X191627380Y-362323214D02*
X190627380Y-362323214D01*
X190627380Y-362561309D01*
X190675000Y-362704166D01*
X190770238Y-362799404D01*
X190865476Y-362847023D01*
X191055952Y-362894642D01*
X191198809Y-362894642D01*
X191389285Y-362847023D01*
X191484523Y-362799404D01*
X191579761Y-362704166D01*
X191627380Y-362561309D01*
X191627380Y-362323214D01*
X190627380Y-363227976D02*
X190627380Y-363847023D01*
X191008333Y-363513690D01*
X191008333Y-363656547D01*
X191055952Y-363751785D01*
X191103571Y-363799404D01*
X191198809Y-363847023D01*
X191436904Y-363847023D01*
X191532142Y-363799404D01*
X191579761Y-363751785D01*
X191627380Y-363656547D01*
X191627380Y-363370833D01*
X191579761Y-363275595D01*
X191532142Y-363227976D01*
X190722619Y-364227976D02*
X190675000Y-364275595D01*
X190627380Y-364370833D01*
X190627380Y-364608928D01*
X190675000Y-364704166D01*
X190722619Y-364751785D01*
X190817857Y-364799404D01*
X190913095Y-364799404D01*
X191055952Y-364751785D01*
X191627380Y-364180357D01*
X191627380Y-364799404D01*
X127333630Y-381373214D02*
X126333630Y-381373214D01*
X126333630Y-381611309D01*
X126381250Y-381754166D01*
X126476488Y-381849404D01*
X126571726Y-381897023D01*
X126762202Y-381944642D01*
X126905059Y-381944642D01*
X127095535Y-381897023D01*
X127190773Y-381849404D01*
X127286011Y-381754166D01*
X127333630Y-381611309D01*
X127333630Y-381373214D01*
X126428869Y-382325595D02*
X126381250Y-382373214D01*
X126333630Y-382468452D01*
X126333630Y-382706547D01*
X126381250Y-382801785D01*
X126428869Y-382849404D01*
X126524107Y-382897023D01*
X126619345Y-382897023D01*
X126762202Y-382849404D01*
X127333630Y-382277976D01*
X127333630Y-382897023D01*
X126428869Y-383277976D02*
X126381250Y-383325595D01*
X126333630Y-383420833D01*
X126333630Y-383658928D01*
X126381250Y-383754166D01*
X126428869Y-383801785D01*
X126524107Y-383849404D01*
X126619345Y-383849404D01*
X126762202Y-383801785D01*
X127333630Y-383230357D01*
X127333630Y-383849404D01*
X85264880Y-355179464D02*
X84264880Y-355179464D01*
X84264880Y-355417559D01*
X84312500Y-355560416D01*
X84407738Y-355655654D01*
X84502976Y-355703273D01*
X84693452Y-355750892D01*
X84836309Y-355750892D01*
X85026785Y-355703273D01*
X85122023Y-355655654D01*
X85217261Y-355560416D01*
X85264880Y-355417559D01*
X85264880Y-355179464D01*
X85264880Y-356703273D02*
X85264880Y-356131845D01*
X85264880Y-356417559D02*
X84264880Y-356417559D01*
X84407738Y-356322321D01*
X84502976Y-356227083D01*
X84550595Y-356131845D01*
X84264880Y-357560416D02*
X84264880Y-357369940D01*
X84312500Y-357274702D01*
X84360119Y-357227083D01*
X84502976Y-357131845D01*
X84693452Y-357084226D01*
X85074404Y-357084226D01*
X85169642Y-357131845D01*
X85217261Y-357179464D01*
X85264880Y-357274702D01*
X85264880Y-357465178D01*
X85217261Y-357560416D01*
X85169642Y-357608035D01*
X85074404Y-357655654D01*
X84836309Y-357655654D01*
X84741071Y-357608035D01*
X84693452Y-357560416D01*
X84645833Y-357465178D01*
X84645833Y-357274702D01*
X84693452Y-357179464D01*
X84741071Y-357131845D01*
X84836309Y-357084226D01*
X273383630Y-294060714D02*
X272383630Y-294060714D01*
X272383630Y-294298809D01*
X272431250Y-294441666D01*
X272526488Y-294536904D01*
X272621726Y-294584523D01*
X272812202Y-294632142D01*
X272955059Y-294632142D01*
X273145535Y-294584523D01*
X273240773Y-294536904D01*
X273336011Y-294441666D01*
X273383630Y-294298809D01*
X273383630Y-294060714D01*
X272716964Y-295489285D02*
X273383630Y-295489285D01*
X272336011Y-295251190D02*
X273050297Y-295013095D01*
X273050297Y-295632142D01*
X272383630Y-296203571D02*
X272383630Y-296298809D01*
X272431250Y-296394047D01*
X272478869Y-296441666D01*
X272574107Y-296489285D01*
X272764583Y-296536904D01*
X273002678Y-296536904D01*
X273193154Y-296489285D01*
X273288392Y-296441666D01*
X273336011Y-296394047D01*
X273383630Y-296298809D01*
X273383630Y-296203571D01*
X273336011Y-296108333D01*
X273288392Y-296060714D01*
X273193154Y-296013095D01*
X273002678Y-295965476D01*
X272764583Y-295965476D01*
X272574107Y-296013095D01*
X272478869Y-296060714D01*
X272431250Y-296108333D01*
X272383630Y-296203571D01*
X174164880Y-327398214D02*
X173164880Y-327398214D01*
X173164880Y-327636309D01*
X173212500Y-327779166D01*
X173307738Y-327874404D01*
X173402976Y-327922023D01*
X173593452Y-327969642D01*
X173736309Y-327969642D01*
X173926785Y-327922023D01*
X174022023Y-327874404D01*
X174117261Y-327779166D01*
X174164880Y-327636309D01*
X174164880Y-327398214D01*
X173260119Y-328350595D02*
X173212500Y-328398214D01*
X173164880Y-328493452D01*
X173164880Y-328731547D01*
X173212500Y-328826785D01*
X173260119Y-328874404D01*
X173355357Y-328922023D01*
X173450595Y-328922023D01*
X173593452Y-328874404D01*
X174164880Y-328302976D01*
X174164880Y-328922023D01*
X173164880Y-329826785D02*
X173164880Y-329350595D01*
X173641071Y-329302976D01*
X173593452Y-329350595D01*
X173545833Y-329445833D01*
X173545833Y-329683928D01*
X173593452Y-329779166D01*
X173641071Y-329826785D01*
X173736309Y-329874404D01*
X173974404Y-329874404D01*
X174069642Y-329826785D01*
X174117261Y-329779166D01*
X174164880Y-329683928D01*
X174164880Y-329445833D01*
X174117261Y-329350595D01*
X174069642Y-329302976D01*
X93202380Y-298029464D02*
X92202380Y-298029464D01*
X92202380Y-298267559D01*
X92250000Y-298410416D01*
X92345238Y-298505654D01*
X92440476Y-298553273D01*
X92630952Y-298600892D01*
X92773809Y-298600892D01*
X92964285Y-298553273D01*
X93059523Y-298505654D01*
X93154761Y-298410416D01*
X93202380Y-298267559D01*
X93202380Y-298029464D01*
X93202380Y-299553273D02*
X93202380Y-298981845D01*
X93202380Y-299267559D02*
X92202380Y-299267559D01*
X92345238Y-299172321D01*
X92440476Y-299077083D01*
X92488095Y-298981845D01*
X92630952Y-300124702D02*
X92583333Y-300029464D01*
X92535714Y-299981845D01*
X92440476Y-299934226D01*
X92392857Y-299934226D01*
X92297619Y-299981845D01*
X92250000Y-300029464D01*
X92202380Y-300124702D01*
X92202380Y-300315178D01*
X92250000Y-300410416D01*
X92297619Y-300458035D01*
X92392857Y-300505654D01*
X92440476Y-300505654D01*
X92535714Y-300458035D01*
X92583333Y-300410416D01*
X92630952Y-300315178D01*
X92630952Y-300124702D01*
X92678571Y-300029464D01*
X92726190Y-299981845D01*
X92821428Y-299934226D01*
X93011904Y-299934226D01*
X93107142Y-299981845D01*
X93154761Y-300029464D01*
X93202380Y-300124702D01*
X93202380Y-300315178D01*
X93154761Y-300410416D01*
X93107142Y-300458035D01*
X93011904Y-300505654D01*
X92821428Y-300505654D01*
X92726190Y-300458035D01*
X92678571Y-300410416D01*
X92630952Y-300315178D01*
X333630Y-334224404D02*
X-666369Y-334224404D01*
X-666369Y-334462500D01*
X-618750Y-334605357D01*
X-523511Y-334700595D01*
X-428273Y-334748214D01*
X-237797Y-334795833D01*
X-94940Y-334795833D01*
X95535Y-334748214D01*
X190773Y-334700595D01*
X286011Y-334605357D01*
X333630Y-334462500D01*
X333630Y-334224404D01*
X333630Y-335272023D02*
X333630Y-335462500D01*
X286011Y-335557738D01*
X238392Y-335605357D01*
X95535Y-335700595D01*
X-94940Y-335748214D01*
X-475892Y-335748214D01*
X-571130Y-335700595D01*
X-618750Y-335652976D01*
X-666369Y-335557738D01*
X-666369Y-335367261D01*
X-618750Y-335272023D01*
X-571130Y-335224404D01*
X-475892Y-335176785D01*
X-237797Y-335176785D01*
X-142559Y-335224404D01*
X-94940Y-335272023D01*
X-47321Y-335367261D01*
X-47321Y-335557738D01*
X-94940Y-335652976D01*
X-142559Y-335700595D01*
X-237797Y-335748214D01*
X197977380Y-302791964D02*
X196977380Y-302791964D01*
X196977380Y-303030059D01*
X197025000Y-303172916D01*
X197120238Y-303268154D01*
X197215476Y-303315773D01*
X197405952Y-303363392D01*
X197548809Y-303363392D01*
X197739285Y-303315773D01*
X197834523Y-303268154D01*
X197929761Y-303172916D01*
X197977380Y-303030059D01*
X197977380Y-302791964D01*
X197072619Y-303744345D02*
X197025000Y-303791964D01*
X196977380Y-303887202D01*
X196977380Y-304125297D01*
X197025000Y-304220535D01*
X197072619Y-304268154D01*
X197167857Y-304315773D01*
X197263095Y-304315773D01*
X197405952Y-304268154D01*
X197977380Y-303696726D01*
X197977380Y-304315773D01*
X197977380Y-304791964D02*
X197977380Y-304982440D01*
X197929761Y-305077678D01*
X197882142Y-305125297D01*
X197739285Y-305220535D01*
X197548809Y-305268154D01*
X197167857Y-305268154D01*
X197072619Y-305220535D01*
X197025000Y-305172916D01*
X196977380Y-305077678D01*
X196977380Y-304887202D01*
X197025000Y-304791964D01*
X197072619Y-304744345D01*
X197167857Y-304696726D01*
X197405952Y-304696726D01*
X197501190Y-304744345D01*
X197548809Y-304791964D01*
X197596428Y-304887202D01*
X197596428Y-305077678D01*
X197548809Y-305172916D01*
X197501190Y-305220535D01*
X197405952Y-305268154D01*
X-18716369Y-369149404D02*
X-19716369Y-369149404D01*
X-19716369Y-369387500D01*
X-19668750Y-369530357D01*
X-19573511Y-369625595D01*
X-19478273Y-369673214D01*
X-19287797Y-369720833D01*
X-19144940Y-369720833D01*
X-18954464Y-369673214D01*
X-18859226Y-369625595D01*
X-18763988Y-369530357D01*
X-18716369Y-369387500D01*
X-18716369Y-369149404D01*
X-19716369Y-370625595D02*
X-19716369Y-370149404D01*
X-19240178Y-370101785D01*
X-19287797Y-370149404D01*
X-19335416Y-370244642D01*
X-19335416Y-370482738D01*
X-19287797Y-370577976D01*
X-19240178Y-370625595D01*
X-19144940Y-370673214D01*
X-18906845Y-370673214D01*
X-18811607Y-370625595D01*
X-18763988Y-370577976D01*
X-18716369Y-370482738D01*
X-18716369Y-370244642D01*
X-18763988Y-370149404D01*
X-18811607Y-370101785D01*
X363077380Y-370260714D02*
X362077380Y-370260714D01*
X362077380Y-370498809D01*
X362125000Y-370641666D01*
X362220238Y-370736904D01*
X362315476Y-370784523D01*
X362505952Y-370832142D01*
X362648809Y-370832142D01*
X362839285Y-370784523D01*
X362934523Y-370736904D01*
X363029761Y-370641666D01*
X363077380Y-370498809D01*
X363077380Y-370260714D01*
X362077380Y-371736904D02*
X362077380Y-371260714D01*
X362553571Y-371213095D01*
X362505952Y-371260714D01*
X362458333Y-371355952D01*
X362458333Y-371594047D01*
X362505952Y-371689285D01*
X362553571Y-371736904D01*
X362648809Y-371784523D01*
X362886904Y-371784523D01*
X362982142Y-371736904D01*
X363029761Y-371689285D01*
X363077380Y-371594047D01*
X363077380Y-371355952D01*
X363029761Y-371260714D01*
X362982142Y-371213095D01*
X363077380Y-372736904D02*
X363077380Y-372165476D01*
X363077380Y-372451190D02*
X362077380Y-372451190D01*
X362220238Y-372355952D01*
X362315476Y-372260714D01*
X362363095Y-372165476D01*
X346408630Y-313110714D02*
X345408630Y-313110714D01*
X345408630Y-313348809D01*
X345456250Y-313491666D01*
X345551488Y-313586904D01*
X345646726Y-313634523D01*
X345837202Y-313682142D01*
X345980059Y-313682142D01*
X346170535Y-313634523D01*
X346265773Y-313586904D01*
X346361011Y-313491666D01*
X346408630Y-313348809D01*
X346408630Y-313110714D01*
X345741964Y-314539285D02*
X346408630Y-314539285D01*
X345361011Y-314301190D02*
X346075297Y-314063095D01*
X346075297Y-314682142D01*
X345408630Y-315539285D02*
X345408630Y-315063095D01*
X345884821Y-315015476D01*
X345837202Y-315063095D01*
X345789583Y-315158333D01*
X345789583Y-315396428D01*
X345837202Y-315491666D01*
X345884821Y-315539285D01*
X345980059Y-315586904D01*
X346218154Y-315586904D01*
X346313392Y-315539285D01*
X346361011Y-315491666D01*
X346408630Y-315396428D01*
X346408630Y-315158333D01*
X346361011Y-315063095D01*
X346313392Y-315015476D01*
X333630Y-315174404D02*
X-666369Y-315174404D01*
X-666369Y-315412500D01*
X-618750Y-315555357D01*
X-523511Y-315650595D01*
X-428273Y-315698214D01*
X-237797Y-315745833D01*
X-94940Y-315745833D01*
X95535Y-315698214D01*
X190773Y-315650595D01*
X286011Y-315555357D01*
X333630Y-315412500D01*
X333630Y-315174404D01*
X-237797Y-316317261D02*
X-285416Y-316222023D01*
X-333035Y-316174404D01*
X-428273Y-316126785D01*
X-475892Y-316126785D01*
X-571130Y-316174404D01*
X-618750Y-316222023D01*
X-666369Y-316317261D01*
X-666369Y-316507738D01*
X-618750Y-316602976D01*
X-571130Y-316650595D01*
X-475892Y-316698214D01*
X-428273Y-316698214D01*
X-333035Y-316650595D01*
X-285416Y-316602976D01*
X-237797Y-316507738D01*
X-237797Y-316317261D01*
X-190178Y-316222023D01*
X-142559Y-316174404D01*
X-47321Y-316126785D01*
X143154Y-316126785D01*
X238392Y-316174404D01*
X286011Y-316222023D01*
X333630Y-316317261D01*
X333630Y-316507738D01*
X286011Y-316602976D01*
X238392Y-316650595D01*
X143154Y-316698214D01*
X-47321Y-316698214D01*
X-142559Y-316650595D01*
X-190178Y-316602976D01*
X-237797Y-316507738D01*
X267827380Y-313110714D02*
X266827380Y-313110714D01*
X266827380Y-313348809D01*
X266875000Y-313491666D01*
X266970238Y-313586904D01*
X267065476Y-313634523D01*
X267255952Y-313682142D01*
X267398809Y-313682142D01*
X267589285Y-313634523D01*
X267684523Y-313586904D01*
X267779761Y-313491666D01*
X267827380Y-313348809D01*
X267827380Y-313110714D01*
X267160714Y-314539285D02*
X267827380Y-314539285D01*
X266779761Y-314301190D02*
X267494047Y-314063095D01*
X267494047Y-314682142D01*
X267827380Y-315586904D02*
X267827380Y-315015476D01*
X267827380Y-315301190D02*
X266827380Y-315301190D01*
X266970238Y-315205952D01*
X267065476Y-315110714D01*
X267113095Y-315015476D01*
D12*
X326711000Y-257048000D02*
X326711000Y-305368000D01*
X331796000Y-306483000D02*
X331796000Y-253333000D01*
X311531000Y-254508000D02*
X311531000Y-305308000D01*
X315279000Y-298897000D02*
X325559000Y-298897000D01*
X331796000Y-253333000D02*
X309046000Y-253333000D01*
X325559000Y-298897000D02*
X325559000Y-301557000D01*
X329371000Y-255778000D02*
X329371000Y-254448000D01*
X329371000Y-254448000D02*
X328041000Y-254448000D01*
X314071000Y-305308000D02*
X314071000Y-254508000D01*
X325559000Y-301557000D02*
X315279000Y-301557000D01*
X329371000Y-257048000D02*
X326711000Y-257048000D01*
X315279000Y-301557000D02*
X315279000Y-298897000D01*
X314071000Y-254508000D02*
X311531000Y-254508000D01*
X326711000Y-305368000D02*
X329371000Y-305368000D01*
X309046000Y-306483000D02*
X331796000Y-306483000D01*
X309046000Y-253333000D02*
X309046000Y-306483000D01*
X311531000Y-305308000D02*
X314071000Y-305308000D01*
X329371000Y-305368000D02*
X329371000Y-257048000D01*
X428617500Y-335722500D02*
X428617500Y-334262500D01*
X428617500Y-335722500D02*
X427687500Y-335722500D01*
X425457500Y-335722500D02*
X426387500Y-335722500D01*
X425457500Y-335722500D02*
X425457500Y-332562500D01*
X406407500Y-334135000D02*
X406407500Y-330975000D01*
X409567500Y-334135000D02*
X408637500Y-334135000D01*
X409567500Y-334135000D02*
X409567500Y-332675000D01*
X406407500Y-334135000D02*
X407337500Y-334135000D01*
X428617500Y-354772500D02*
X428617500Y-353312500D01*
X425457500Y-354772500D02*
X426387500Y-354772500D01*
X428617500Y-354772500D02*
X427687500Y-354772500D01*
X425457500Y-354772500D02*
X425457500Y-351612500D01*
X447667500Y-364297500D02*
X447667500Y-362837500D01*
X444507500Y-364297500D02*
X444507500Y-361137500D01*
X444507500Y-364297500D02*
X445437500Y-364297500D01*
X447667500Y-364297500D02*
X446737500Y-364297500D01*
X428617500Y-297622500D02*
X427687500Y-297622500D01*
X428617500Y-297622500D02*
X428617500Y-296162500D01*
X425457500Y-297622500D02*
X426387500Y-297622500D01*
X425457500Y-297622500D02*
X425457500Y-294462500D01*
X406407500Y-272222500D02*
X407337500Y-272222500D01*
X409567500Y-272222500D02*
X409567500Y-270762500D01*
X409567500Y-272222500D02*
X408637500Y-272222500D01*
X406407500Y-272222500D02*
X406407500Y-269062500D01*
X430205000Y-372235000D02*
X429275000Y-372235000D01*
X427045000Y-372235000D02*
X427975000Y-372235000D01*
X430205000Y-372235000D02*
X430205000Y-370775000D01*
X427045000Y-372235000D02*
X427045000Y-369075000D01*
X406407500Y-353185000D02*
X407337500Y-353185000D01*
X409567500Y-353185000D02*
X409567500Y-351725000D01*
X409567500Y-353185000D02*
X408637500Y-353185000D01*
X406407500Y-353185000D02*
X406407500Y-350025000D01*
X406407500Y-315085000D02*
X407337500Y-315085000D01*
X409567500Y-315085000D02*
X408637500Y-315085000D01*
X406407500Y-315085000D02*
X406407500Y-311925000D01*
X409567500Y-315085000D02*
X409567500Y-313625000D01*
X428617500Y-273810000D02*
X427687500Y-273810000D01*
X425457500Y-273810000D02*
X426387500Y-273810000D01*
X425457500Y-273810000D02*
X425457500Y-270650000D01*
X428617500Y-273810000D02*
X428617500Y-272350000D01*
X428617500Y-316672500D02*
X428617500Y-315212500D01*
X425457500Y-316672500D02*
X425457500Y-313512500D01*
X425457500Y-316672500D02*
X426387500Y-316672500D01*
X428617500Y-316672500D02*
X427687500Y-316672500D01*
X409567500Y-296035000D02*
X408637500Y-296035000D01*
X409567500Y-296035000D02*
X409567500Y-294575000D01*
X406407500Y-296035000D02*
X407337500Y-296035000D01*
X406407500Y-296035000D02*
X406407500Y-292875000D01*
G36*
X263976114Y-361212926D02*
G01*
X264455886Y-361275056D01*
X264903104Y-361402389D01*
X265301874Y-361586526D01*
X265636297Y-361819070D01*
X265890479Y-362091623D01*
X266048522Y-362395785D01*
X266114026Y-362594264D01*
X266270392Y-362308326D01*
X266420951Y-362047347D01*
X266560184Y-361839261D01*
X266666856Y-361719807D01*
X266734694Y-361697243D01*
X266743505Y-361713559D01*
X266718383Y-361799817D01*
X266639084Y-361924955D01*
X266624725Y-361944653D01*
X266526657Y-362107318D01*
X266414543Y-362328064D01*
X266309914Y-362565019D01*
X266129415Y-363010164D01*
X266112237Y-365391602D01*
X266108372Y-365929539D01*
X266105497Y-366445912D01*
X266105507Y-366866342D01*
X266109690Y-367200682D01*
X266119337Y-367458786D01*
X266135736Y-367650507D01*
X266160177Y-367785699D01*
X266193950Y-367874215D01*
X266238343Y-367925908D01*
X266294647Y-367950632D01*
X266364149Y-367958241D01*
X266448141Y-367958588D01*
X266501413Y-367960626D01*
X266597868Y-367992657D01*
X266588881Y-368061760D01*
X266475737Y-368165598D01*
X266259718Y-368301831D01*
X266065153Y-368424698D01*
X265811846Y-368609452D01*
X265591872Y-368793960D01*
X265276582Y-369085864D01*
X264909862Y-368774765D01*
X264895063Y-368762262D01*
X264671139Y-368581887D01*
X264434873Y-368404416D01*
X264235040Y-368266576D01*
X264199849Y-368243871D01*
X264018795Y-368116072D01*
X263940245Y-368034392D01*
X263963137Y-367996935D01*
X264086406Y-368001808D01*
X264201028Y-367999203D01*
X264386744Y-367911223D01*
X264527613Y-367797232D01*
X264545227Y-366226485D01*
X264562840Y-364655739D01*
X264292288Y-364476532D01*
X264123334Y-364373936D01*
X263954410Y-364309361D01*
X263822406Y-364321358D01*
X263702813Y-364407037D01*
X263679438Y-364432977D01*
X263639420Y-364496463D01*
X263606616Y-364585006D01*
X263580476Y-364708532D01*
X263560450Y-364876965D01*
X263545989Y-365100234D01*
X263536544Y-365388264D01*
X263531566Y-365750980D01*
X263530505Y-366198311D01*
X263532813Y-366740180D01*
X263537939Y-367386516D01*
X263540985Y-367717902D01*
X263546167Y-368228359D01*
X263551609Y-368643268D01*
X263558018Y-368974731D01*
X263566103Y-369234849D01*
X263576574Y-369435721D01*
X263590137Y-369589451D01*
X263607503Y-369708137D01*
X263629379Y-369803882D01*
X263656473Y-369888786D01*
X263689496Y-369974951D01*
X263804504Y-370209016D01*
X264063815Y-370565840D01*
X264391955Y-370876555D01*
X264760922Y-371111458D01*
X264778323Y-371120083D01*
X264955302Y-371215264D01*
X265080681Y-371295968D01*
X265128289Y-371345521D01*
X265120084Y-371366170D01*
X265057658Y-371370763D01*
X264925580Y-371328680D01*
X264714032Y-371236421D01*
X264413199Y-371090485D01*
X263907919Y-370811180D01*
X263396240Y-370465922D01*
X262948481Y-370095047D01*
X262581111Y-369712334D01*
X262310601Y-369331561D01*
X262300291Y-369313609D01*
X262222050Y-369168081D01*
X262157844Y-369023076D01*
X262106251Y-368865824D01*
X262065853Y-368683554D01*
X262035228Y-368463497D01*
X262012957Y-368192883D01*
X261997620Y-367858942D01*
X261987798Y-367448903D01*
X261982070Y-366949997D01*
X261979016Y-366349453D01*
X261972213Y-364312625D01*
X262126830Y-364004638D01*
X262147126Y-363965046D01*
X262278655Y-363738144D01*
X262421581Y-363531092D01*
X262559492Y-363364110D01*
X262675975Y-363257419D01*
X262754615Y-363231240D01*
X262778452Y-363244087D01*
X262887173Y-363314313D01*
X263061483Y-363433271D01*
X263283286Y-363588515D01*
X263534485Y-363767599D01*
X263645291Y-363847150D01*
X263899914Y-364029038D01*
X264125120Y-364188703D01*
X264299802Y-364311219D01*
X264402850Y-364381659D01*
X264564122Y-364487287D01*
X264545868Y-363168234D01*
X264541544Y-362873285D01*
X264534798Y-362516771D01*
X264526499Y-362249485D01*
X264515262Y-362056323D01*
X264499700Y-361922179D01*
X264478426Y-361831946D01*
X264450055Y-361770521D01*
X264413199Y-361722797D01*
X264236981Y-361576131D01*
X263952227Y-361434768D01*
X263625257Y-361350108D01*
X263578942Y-361342745D01*
X263416783Y-361305196D01*
X263362910Y-361268869D01*
X263412272Y-361237856D01*
X263559820Y-361216249D01*
X263800504Y-361208137D01*
X263976114Y-361212926D01*
G37*
G36*
X274244496Y-365792867D02*
G01*
X274260522Y-366301855D01*
X274225453Y-366798981D01*
X274140363Y-367253561D01*
X274006323Y-367634911D01*
X273802709Y-367995893D01*
X273475489Y-368388648D01*
X273065978Y-368709611D01*
X272565226Y-368967056D01*
X272423157Y-369025792D01*
X272292623Y-369078904D01*
X272237021Y-369100314D01*
X272227375Y-369094493D01*
X272146008Y-369035224D01*
X271992991Y-368920085D01*
X271781509Y-368759095D01*
X271524748Y-368562273D01*
X271235895Y-368339639D01*
X271135313Y-368261456D01*
X270848391Y-368032973D01*
X270601246Y-367828084D01*
X270406845Y-367658012D01*
X270278154Y-367533985D01*
X270228142Y-367467229D01*
X270228052Y-367466741D01*
X270226402Y-367407320D01*
X270268015Y-367419407D01*
X270371160Y-367508242D01*
X270530278Y-367634507D01*
X270859664Y-367796562D01*
X271209448Y-367860475D01*
X271560016Y-367829248D01*
X271891754Y-367705880D01*
X272185049Y-367493373D01*
X272420287Y-367194728D01*
X272461301Y-367120334D01*
X272547179Y-366933799D01*
X272596262Y-366781915D01*
X272599085Y-366766594D01*
X272603019Y-366713729D01*
X272587948Y-366662091D01*
X272542810Y-366602707D01*
X272456546Y-366526605D01*
X272318094Y-366424811D01*
X272116396Y-366288354D01*
X271840389Y-366108261D01*
X271479015Y-365875559D01*
X271261990Y-365735717D01*
X271231235Y-365715756D01*
X271642088Y-365715756D01*
X271659956Y-365757667D01*
X271694084Y-365784832D01*
X271817459Y-365870145D01*
X271998750Y-365988026D01*
X272212212Y-366121512D01*
X272342328Y-366200825D01*
X272526009Y-366310602D01*
X272656893Y-366385983D01*
X272712775Y-366413993D01*
X272715729Y-366404640D01*
X272722480Y-366308186D01*
X272728286Y-366120492D01*
X272732830Y-365858011D01*
X272735790Y-365537197D01*
X272736848Y-365174503D01*
X272736629Y-365018135D01*
X272734481Y-364673994D01*
X272730333Y-364380374D01*
X272724546Y-364153248D01*
X272717478Y-364008588D01*
X272709492Y-363962369D01*
X272679541Y-364004455D01*
X272595996Y-364129271D01*
X272470067Y-364320464D01*
X272312282Y-364562042D01*
X272133164Y-364838014D01*
X271965955Y-365098594D01*
X271812369Y-365346196D01*
X271711636Y-365522962D01*
X271657095Y-365641835D01*
X271642088Y-365715756D01*
X271231235Y-365715756D01*
X270959960Y-365539688D01*
X270700353Y-365369498D01*
X270496674Y-365234076D01*
X270362428Y-365142354D01*
X270311119Y-365103262D01*
X270313568Y-365090016D01*
X270359415Y-364998809D01*
X270452215Y-364838701D01*
X270580147Y-364628181D01*
X270731390Y-364385740D01*
X270894123Y-364129867D01*
X271056525Y-363879054D01*
X271206774Y-363651791D01*
X271333050Y-363466567D01*
X271423532Y-363341874D01*
X271466398Y-363296200D01*
X271467121Y-363296249D01*
X271534454Y-363319757D01*
X271688995Y-363381424D01*
X271913752Y-363474237D01*
X272191737Y-363591185D01*
X272505958Y-363725254D01*
X272670212Y-363796382D01*
X273071466Y-363978421D01*
X273383575Y-364138112D01*
X273620586Y-364286634D01*
X273796548Y-364435167D01*
X273925508Y-364594888D01*
X274021515Y-364776976D01*
X274098615Y-364992611D01*
X274144186Y-365174503D01*
X274176305Y-365302704D01*
X274244496Y-365792867D01*
G37*
G36*
X252943231Y-366089606D02*
G01*
X252945624Y-366564568D01*
X252952495Y-366939943D01*
X252965359Y-367227692D01*
X252985734Y-367439771D01*
X253015137Y-367588140D01*
X253055082Y-367684757D01*
X253107089Y-367741581D01*
X253172672Y-367770570D01*
X253196589Y-367777420D01*
X253279128Y-367828741D01*
X253250176Y-367894414D01*
X253111276Y-367972981D01*
X252863971Y-368062978D01*
X252814006Y-368079607D01*
X252526332Y-368198921D01*
X252213859Y-368359694D01*
X251909833Y-368542246D01*
X251647497Y-368726899D01*
X251460096Y-368893975D01*
X251441137Y-368914440D01*
X251347452Y-369007645D01*
X251296082Y-369045525D01*
X251266736Y-369025885D01*
X251176077Y-368943632D01*
X251050982Y-368819063D01*
X250882325Y-368665292D01*
X250641223Y-368502736D01*
X250338011Y-368355293D01*
X249946928Y-368208724D01*
X249667415Y-368104821D01*
X249338324Y-367945523D01*
X249114209Y-367779521D01*
X248989401Y-367603229D01*
X248975640Y-367563563D01*
X248953353Y-367453013D01*
X248936327Y-367287845D01*
X248924021Y-367056105D01*
X248915898Y-366745840D01*
X248911964Y-366393849D01*
X250483244Y-366393849D01*
X250483247Y-366426741D01*
X250483823Y-366833724D01*
X250485300Y-367199374D01*
X250487545Y-367509075D01*
X250490423Y-367748209D01*
X250493802Y-367902162D01*
X250497546Y-367956316D01*
X250539239Y-367923242D01*
X250642771Y-367831980D01*
X250784261Y-367703280D01*
X250923874Y-367587428D01*
X251094777Y-367473559D01*
X251227617Y-367414970D01*
X251398559Y-367377425D01*
X251398559Y-365780168D01*
X251398478Y-365543409D01*
X251397496Y-365123471D01*
X251394773Y-364799700D01*
X251389535Y-364559725D01*
X251381004Y-364391177D01*
X251368406Y-364281686D01*
X251350964Y-364218881D01*
X251327903Y-364190394D01*
X251298447Y-364183853D01*
X251285975Y-364184371D01*
X251124723Y-364232520D01*
X250933073Y-364340824D01*
X250749793Y-364483709D01*
X250613652Y-364635599D01*
X250579617Y-364688364D01*
X250548406Y-364750262D01*
X250524782Y-364826910D01*
X250507690Y-364932544D01*
X250496073Y-365081404D01*
X250488877Y-365287726D01*
X250485043Y-365565749D01*
X250483518Y-365929711D01*
X250483244Y-366393849D01*
X248911964Y-366393849D01*
X248911419Y-366345097D01*
X248910046Y-365841921D01*
X248910046Y-364268723D01*
X249072600Y-363937683D01*
X249193772Y-363736622D01*
X249423120Y-363481499D01*
X249735353Y-363240216D01*
X250138311Y-363007767D01*
X250639836Y-362779150D01*
X251247768Y-362549358D01*
X251544344Y-362441053D01*
X251845802Y-362313902D01*
X252061521Y-362195920D01*
X252206325Y-362078675D01*
X252295037Y-361953737D01*
X252321391Y-361882692D01*
X252308247Y-361723897D01*
X252193599Y-361588945D01*
X251986042Y-361485457D01*
X251694173Y-361421053D01*
X251628919Y-361411719D01*
X251485680Y-361383120D01*
X251412904Y-361355965D01*
X251389827Y-361309347D01*
X251443401Y-361277488D01*
X251568414Y-361271746D01*
X251743540Y-361288910D01*
X251947454Y-361325771D01*
X252158829Y-361379117D01*
X252356340Y-361445738D01*
X252518660Y-361522425D01*
X252798829Y-361743442D01*
X252996622Y-362024616D01*
X253099427Y-362343370D01*
X253101274Y-362680993D01*
X252996192Y-363018776D01*
X252965503Y-363076728D01*
X252776783Y-363332569D01*
X252514641Y-363586962D01*
X252208822Y-363813886D01*
X251889070Y-363987319D01*
X251870991Y-363995269D01*
X251689930Y-364083881D01*
X251561672Y-364162659D01*
X251512974Y-364215379D01*
X251552064Y-364314551D01*
X251683061Y-364417216D01*
X251882608Y-364498621D01*
X252126125Y-364551640D01*
X252389029Y-364569148D01*
X252646739Y-364544019D01*
X252943154Y-364485411D01*
X252943154Y-365960843D01*
X252943231Y-366089606D01*
G37*
G36*
X266858807Y-361233339D02*
G01*
X266875232Y-361236785D01*
X267010316Y-361264128D01*
X267212693Y-361304248D01*
X267445181Y-361349762D01*
X267751231Y-361414940D01*
X268206313Y-361542387D01*
X268564587Y-361691446D01*
X268836880Y-361868280D01*
X269034018Y-362079055D01*
X269166827Y-362329933D01*
X269264752Y-362586346D01*
X269415026Y-362311994D01*
X269437311Y-362271702D01*
X269585933Y-362023295D01*
X269717991Y-361836233D01*
X269822618Y-361724504D01*
X269888943Y-361702096D01*
X269900071Y-361756579D01*
X269851298Y-361857170D01*
X269753940Y-362007497D01*
X269606588Y-362277591D01*
X269465638Y-362577383D01*
X269354063Y-362860514D01*
X269333551Y-362924267D01*
X269310019Y-363016943D01*
X269291155Y-363127243D01*
X269276452Y-363267265D01*
X269265403Y-363449109D01*
X269257500Y-363684872D01*
X269252236Y-363986653D01*
X269249105Y-364366552D01*
X269247598Y-364836666D01*
X269247208Y-365409094D01*
X269247225Y-365631079D01*
X269247884Y-366191885D01*
X269250537Y-366651786D01*
X269256575Y-367020790D01*
X269267390Y-367308903D01*
X269284372Y-367526134D01*
X269308913Y-367682489D01*
X269342404Y-367787976D01*
X269386237Y-367852601D01*
X269441802Y-367886372D01*
X269510491Y-367899296D01*
X269593695Y-367901380D01*
X269711995Y-367913261D01*
X269752934Y-367956446D01*
X269686820Y-368028186D01*
X269514775Y-368125303D01*
X269444872Y-368164510D01*
X269264847Y-368289063D01*
X269053261Y-368456743D01*
X268842590Y-368642561D01*
X268716327Y-368758823D01*
X268551249Y-368904534D01*
X268428825Y-369004824D01*
X268369026Y-369042815D01*
X268339407Y-369030287D01*
X268233183Y-368960306D01*
X268073775Y-368842451D01*
X267882765Y-368692280D01*
X267808884Y-368633444D01*
X267556343Y-368441038D01*
X267300116Y-368256396D01*
X267085703Y-368112606D01*
X267053854Y-368092393D01*
X266891487Y-367983864D01*
X266782774Y-367901786D01*
X266749803Y-367862599D01*
X266767847Y-367858478D01*
X266869589Y-367869157D01*
X267024786Y-367902326D01*
X267179859Y-367931815D01*
X267398655Y-367919705D01*
X267549692Y-367821156D01*
X267641646Y-367632370D01*
X267647678Y-367602317D01*
X267662370Y-367448862D01*
X267674825Y-367201219D01*
X267685053Y-366874118D01*
X267693064Y-366482289D01*
X267698869Y-366040463D01*
X267702477Y-365563368D01*
X267703900Y-365065736D01*
X267703146Y-364562297D01*
X267700227Y-364067781D01*
X267695153Y-363596917D01*
X267687934Y-363164437D01*
X267678579Y-362785070D01*
X267667100Y-362473547D01*
X267653507Y-362244597D01*
X267637810Y-362112951D01*
X267616673Y-362029765D01*
X267476554Y-361735937D01*
X267256901Y-361515850D01*
X266969766Y-361382679D01*
X266899426Y-361360624D01*
X266782889Y-361305289D01*
X266728894Y-361254353D01*
X266750011Y-361224731D01*
X266858807Y-361233339D01*
G37*
G36*
X261086838Y-365792867D02*
G01*
X261102864Y-366301855D01*
X261067796Y-366798981D01*
X260982706Y-367253561D01*
X260848665Y-367634911D01*
X260645051Y-367995893D01*
X260317831Y-368388648D01*
X259908321Y-368709611D01*
X259407568Y-368967056D01*
X259265499Y-369025792D01*
X259134966Y-369078904D01*
X259079363Y-369100314D01*
X259069717Y-369094493D01*
X258988351Y-369035224D01*
X258835333Y-368920085D01*
X258623851Y-368759095D01*
X258367090Y-368562273D01*
X258078237Y-368339639D01*
X257977655Y-368261456D01*
X257690734Y-368032973D01*
X257443589Y-367828084D01*
X257249187Y-367658012D01*
X257120497Y-367533985D01*
X257070485Y-367467229D01*
X257070395Y-367466741D01*
X257068745Y-367407320D01*
X257110357Y-367419407D01*
X257213503Y-367508242D01*
X257372621Y-367634507D01*
X257702006Y-367796562D01*
X258051790Y-367860475D01*
X258402358Y-367829248D01*
X258734097Y-367705880D01*
X259027392Y-367493373D01*
X259262630Y-367194728D01*
X259303644Y-367120334D01*
X259389521Y-366933799D01*
X259438604Y-366781915D01*
X259441427Y-366766594D01*
X259445362Y-366713729D01*
X259430290Y-366662091D01*
X259385153Y-366602707D01*
X259298888Y-366526605D01*
X259160437Y-366424811D01*
X258958738Y-366288354D01*
X258682732Y-366108261D01*
X258321357Y-365875559D01*
X258104332Y-365735717D01*
X258073577Y-365715756D01*
X258484431Y-365715756D01*
X258502298Y-365757667D01*
X258536426Y-365784832D01*
X258659801Y-365870145D01*
X258841093Y-365988026D01*
X259054555Y-366121512D01*
X259184671Y-366200825D01*
X259368351Y-366310602D01*
X259499235Y-366385983D01*
X259555118Y-366413993D01*
X259558072Y-366404640D01*
X259564822Y-366308186D01*
X259570629Y-366120492D01*
X259575172Y-365858011D01*
X259578132Y-365537197D01*
X259579190Y-365174503D01*
X259578971Y-365018135D01*
X259576824Y-364673994D01*
X259572676Y-364380374D01*
X259566888Y-364153248D01*
X259559821Y-364008588D01*
X259551835Y-363962369D01*
X259521884Y-364004455D01*
X259438338Y-364129271D01*
X259312410Y-364320464D01*
X259154624Y-364562042D01*
X258975506Y-364838014D01*
X258808297Y-365098594D01*
X258654711Y-365346196D01*
X258553978Y-365522962D01*
X258499437Y-365641835D01*
X258484431Y-365715756D01*
X258073577Y-365715756D01*
X257802302Y-365539688D01*
X257542695Y-365369498D01*
X257339017Y-365234076D01*
X257204770Y-365142354D01*
X257153461Y-365103262D01*
X257155911Y-365090016D01*
X257201758Y-364998809D01*
X257294558Y-364838701D01*
X257422490Y-364628181D01*
X257573733Y-364385740D01*
X257736465Y-364129867D01*
X257898867Y-363879054D01*
X258049116Y-363651791D01*
X258175393Y-363466567D01*
X258265874Y-363341874D01*
X258308741Y-363296200D01*
X258309463Y-363296249D01*
X258376797Y-363319757D01*
X258531337Y-363381424D01*
X258756095Y-363474237D01*
X259034079Y-363591185D01*
X259348300Y-363725254D01*
X259512554Y-363796382D01*
X259913808Y-363978421D01*
X260225917Y-364138112D01*
X260462928Y-364286634D01*
X260638890Y-364435167D01*
X260767850Y-364594888D01*
X260863857Y-364776976D01*
X260940958Y-364992611D01*
X260986529Y-365174503D01*
X261018647Y-365302704D01*
X261086838Y-365792867D01*
G37*
G36*
X255488397Y-363432999D02*
G01*
X255518550Y-363461574D01*
X255784238Y-363695995D01*
X256068855Y-363921846D01*
X256339770Y-364114384D01*
X256564354Y-364248866D01*
X256599510Y-364267600D01*
X256719558Y-364355834D01*
X256734148Y-364416927D01*
X256650244Y-364438493D01*
X256474810Y-364408144D01*
X256300297Y-364378384D01*
X256147591Y-364411295D01*
X256120182Y-364428320D01*
X256092133Y-364459794D01*
X256070762Y-364514419D01*
X256055149Y-364605234D01*
X256044371Y-364745276D01*
X256037508Y-364947582D01*
X256033638Y-365225190D01*
X256031840Y-365591137D01*
X256031193Y-366058461D01*
X256029163Y-366591371D01*
X256021524Y-367113476D01*
X256006169Y-367542860D01*
X255980959Y-367891143D01*
X255943755Y-368169948D01*
X255892419Y-368390895D01*
X255824811Y-368565607D01*
X255738792Y-368705705D01*
X255632223Y-368822810D01*
X255502966Y-368928545D01*
X255449141Y-368967287D01*
X255360112Y-369020484D01*
X255273775Y-369044324D01*
X255177443Y-369032238D01*
X255058432Y-368977656D01*
X254904056Y-368874010D01*
X254701630Y-368714729D01*
X254438468Y-368493245D01*
X254101885Y-368202989D01*
X253911271Y-368033275D01*
X253786101Y-367908606D01*
X253752892Y-367851851D01*
X253811621Y-367862963D01*
X253962260Y-367941895D01*
X254025158Y-367975420D01*
X254150936Y-368008656D01*
X254278646Y-367973041D01*
X254285048Y-367970060D01*
X254362905Y-367918575D01*
X254424105Y-367838539D01*
X254470292Y-367717701D01*
X254503108Y-367543813D01*
X254524197Y-367304624D01*
X254535201Y-366987885D01*
X254537763Y-366581348D01*
X254533528Y-366072761D01*
X254531190Y-365888562D01*
X254525629Y-365500329D01*
X254519261Y-365205530D01*
X254510544Y-364989174D01*
X254497932Y-364836266D01*
X254479882Y-364731813D01*
X254454850Y-364660822D01*
X254421292Y-364608300D01*
X254377664Y-364559253D01*
X254254754Y-364462880D01*
X254077326Y-364411741D01*
X254021791Y-364410044D01*
X253935472Y-364386945D01*
X253942964Y-364332325D01*
X254047521Y-364240491D01*
X254252401Y-364105750D01*
X254261472Y-364100104D01*
X254475594Y-363948283D01*
X254713057Y-363753273D01*
X254924109Y-363555807D01*
X255259091Y-363213703D01*
X255488397Y-363432999D01*
G37*
G36*
X255416606Y-361225453D02*
G01*
X255679682Y-361302393D01*
X255893459Y-361447133D01*
X256037046Y-361644907D01*
X256089550Y-361880951D01*
X256082531Y-361977047D01*
X256003653Y-362251342D01*
X255853978Y-362523130D01*
X255654620Y-362750218D01*
X255595172Y-362799682D01*
X255466674Y-362888973D01*
X255381053Y-362924353D01*
X255314889Y-362906414D01*
X255173773Y-362825888D01*
X255010454Y-362703615D01*
X254857822Y-362565021D01*
X254748763Y-362435530D01*
X254639884Y-362220552D01*
X254583530Y-361945267D01*
X254614295Y-361688383D01*
X254725442Y-361469627D01*
X254910237Y-361308728D01*
X255161942Y-361225413D01*
X255416606Y-361225453D01*
G37*
G36*
X279258546Y-366089606D02*
G01*
X279260940Y-366564568D01*
X279267810Y-366939943D01*
X279280675Y-367227692D01*
X279301050Y-367439771D01*
X279330452Y-367588140D01*
X279370398Y-367684757D01*
X279422404Y-367741581D01*
X279487987Y-367770570D01*
X279511904Y-367777420D01*
X279594443Y-367828741D01*
X279565491Y-367894414D01*
X279426592Y-367972981D01*
X279179286Y-368062978D01*
X279129322Y-368079607D01*
X278841647Y-368198921D01*
X278529175Y-368359694D01*
X278225148Y-368542246D01*
X277962813Y-368726899D01*
X277775412Y-368893975D01*
X277756452Y-368914440D01*
X277662768Y-369007645D01*
X277611397Y-369045525D01*
X277582051Y-369025885D01*
X277491392Y-368943632D01*
X277366298Y-368819063D01*
X277197640Y-368665292D01*
X276956538Y-368502736D01*
X276653326Y-368355293D01*
X276262243Y-368208724D01*
X275982730Y-368104821D01*
X275653639Y-367945523D01*
X275429524Y-367779521D01*
X275304716Y-367603229D01*
X275290955Y-367563563D01*
X275268669Y-367453013D01*
X275251642Y-367287845D01*
X275239336Y-367056105D01*
X275231213Y-366745840D01*
X275227279Y-366393849D01*
X276798559Y-366393849D01*
X276798563Y-366426741D01*
X276799139Y-366833724D01*
X276800616Y-367199374D01*
X276802860Y-367509075D01*
X276805739Y-367748209D01*
X276809117Y-367902162D01*
X276812861Y-367956316D01*
X276854555Y-367923242D01*
X276958086Y-367831980D01*
X277099576Y-367703280D01*
X277239189Y-367587428D01*
X277410092Y-367473559D01*
X277542932Y-367414970D01*
X277713875Y-367377425D01*
X277713875Y-365780168D01*
X277713794Y-365543409D01*
X277712811Y-365123471D01*
X277710089Y-364799700D01*
X277704850Y-364559725D01*
X277696319Y-364391177D01*
X277683721Y-364281686D01*
X277666279Y-364218881D01*
X277643218Y-364190394D01*
X277613762Y-364183853D01*
X277601290Y-364184371D01*
X277440038Y-364232520D01*
X277248388Y-364340824D01*
X277065108Y-364483709D01*
X276928967Y-364635599D01*
X276894933Y-364688364D01*
X276863721Y-364750262D01*
X276840097Y-364826910D01*
X276823005Y-364932544D01*
X276811389Y-365081404D01*
X276804192Y-365287726D01*
X276800359Y-365565749D01*
X276798833Y-365929711D01*
X276798559Y-366393849D01*
X275227279Y-366393849D01*
X275226734Y-366345097D01*
X275225361Y-365841921D01*
X275225361Y-364268723D01*
X275387915Y-363937683D01*
X275509087Y-363736622D01*
X275738435Y-363481499D01*
X276050668Y-363240216D01*
X276453627Y-363007767D01*
X276955152Y-362779150D01*
X277563083Y-362549358D01*
X277859660Y-362441053D01*
X278161118Y-362313902D01*
X278376837Y-362195920D01*
X278521640Y-362078675D01*
X278610352Y-361953737D01*
X278636706Y-361882692D01*
X278623563Y-361723897D01*
X278508914Y-361588945D01*
X278301357Y-361485457D01*
X278009488Y-361421053D01*
X277944234Y-361411719D01*
X277800996Y-361383120D01*
X277728219Y-361355965D01*
X277705143Y-361309347D01*
X277758717Y-361277488D01*
X277883730Y-361271746D01*
X278058856Y-361288910D01*
X278262769Y-361325771D01*
X278474144Y-361379117D01*
X278671655Y-361445738D01*
X278833976Y-361522425D01*
X279114144Y-361743442D01*
X279311937Y-362024616D01*
X279414742Y-362343370D01*
X279416590Y-362680993D01*
X279311508Y-363018776D01*
X279280819Y-363076728D01*
X279092098Y-363332569D01*
X278829956Y-363586962D01*
X278524138Y-363813886D01*
X278204386Y-363987319D01*
X278186306Y-363995269D01*
X278005245Y-364083881D01*
X277876987Y-364162659D01*
X277828289Y-364215379D01*
X277867379Y-364314551D01*
X277998376Y-364417216D01*
X278197923Y-364498621D01*
X278441440Y-364551640D01*
X278704344Y-364569148D01*
X278962055Y-364544019D01*
X279258469Y-364485411D01*
X279258469Y-365960843D01*
X279258546Y-366089606D01*
G37*
G36*
X285950444Y-361300764D02*
G01*
X286272125Y-361315728D01*
X286527855Y-361356537D01*
X286761340Y-361429939D01*
X287057862Y-361569923D01*
X287451706Y-361846437D01*
X287778740Y-362190169D01*
X288027065Y-362584777D01*
X288184784Y-363013916D01*
X288240001Y-363461243D01*
X288238671Y-363536312D01*
X288169106Y-363991461D01*
X287998500Y-364399806D01*
X287733212Y-364752541D01*
X287379600Y-365040861D01*
X286944023Y-365255960D01*
X286883692Y-365278910D01*
X286743008Y-365346957D01*
X286674811Y-365422517D01*
X286649595Y-365533393D01*
X286675739Y-365687579D01*
X286795108Y-365867672D01*
X286992274Y-366032748D01*
X287248755Y-366163374D01*
X287330852Y-366198464D01*
X287445461Y-366265211D01*
X287497505Y-366319258D01*
X287475407Y-366344772D01*
X287367591Y-366325917D01*
X287206187Y-366272182D01*
X286793038Y-366069896D01*
X286470646Y-365800235D01*
X286236235Y-365461074D01*
X286205166Y-365397664D01*
X286137575Y-365216493D01*
X286104518Y-365018328D01*
X286096454Y-364754984D01*
X286105868Y-364554125D01*
X286195906Y-364124293D01*
X286380398Y-363758280D01*
X286658335Y-363457741D01*
X287028710Y-363224332D01*
X287315053Y-363059771D01*
X287549351Y-362851932D01*
X287680950Y-362629521D01*
X287705998Y-362399410D01*
X287620644Y-362168469D01*
X287595132Y-362129591D01*
X287379883Y-361912501D01*
X287107959Y-361780976D01*
X286804169Y-361742982D01*
X286493319Y-361806483D01*
X286402832Y-361845654D01*
X286159936Y-362009529D01*
X285959599Y-362247192D01*
X285799829Y-362564718D01*
X285678634Y-362968184D01*
X285594022Y-363463666D01*
X285544000Y-364057241D01*
X285526577Y-364754984D01*
X285526582Y-364936174D01*
X285534516Y-365369959D01*
X285562200Y-365719777D01*
X285619938Y-366007364D01*
X285718035Y-366254457D01*
X285866794Y-366482790D01*
X286076520Y-366714100D01*
X286357517Y-366970121D01*
X286720088Y-367272590D01*
X286931828Y-367460757D01*
X287146666Y-367679493D01*
X287343286Y-367905023D01*
X287508650Y-368120327D01*
X287629718Y-368308382D01*
X287693452Y-368452167D01*
X287686813Y-368534658D01*
X287662975Y-368549745D01*
X287593882Y-368520249D01*
X287498582Y-368391323D01*
X287437238Y-368304917D01*
X287207532Y-368095376D01*
X286924777Y-367953541D01*
X286628008Y-367901380D01*
X286328054Y-367950593D01*
X285995582Y-368092023D01*
X285650794Y-368315301D01*
X285312932Y-368610058D01*
X285147723Y-368772535D01*
X285030167Y-368876752D01*
X284952341Y-368921603D01*
X284893553Y-368918719D01*
X284833113Y-368879726D01*
X284831994Y-368878849D01*
X284751662Y-368810480D01*
X284602792Y-368679051D01*
X284400809Y-368498362D01*
X284161142Y-368282211D01*
X283899217Y-368044398D01*
X283877509Y-368024633D01*
X283623636Y-367794796D01*
X283398912Y-367593670D01*
X283217125Y-367433417D01*
X283092061Y-367326200D01*
X283037507Y-367284182D01*
X283010536Y-367321218D01*
X282978932Y-367444747D01*
X282951553Y-367627099D01*
X282858763Y-368072243D01*
X282687348Y-368439741D01*
X282436504Y-368726567D01*
X282104850Y-368934856D01*
X282086177Y-368942971D01*
X282031589Y-368957422D01*
X281970293Y-368949518D01*
X281889039Y-368910449D01*
X281774575Y-368831403D01*
X281613652Y-368703570D01*
X281393018Y-368518137D01*
X281099423Y-368266295D01*
X281056514Y-368229268D01*
X280800499Y-368004626D01*
X280581171Y-367805937D01*
X280411223Y-367645159D01*
X280303345Y-367534245D01*
X280270227Y-367485152D01*
X280281023Y-367478908D01*
X280356811Y-367505967D01*
X280471999Y-367588209D01*
X280555050Y-367650230D01*
X280722824Y-367712048D01*
X280868405Y-367662755D01*
X281000392Y-367500930D01*
X281002650Y-367497063D01*
X281030275Y-367445120D01*
X281053213Y-367385829D01*
X281071989Y-367308484D01*
X281087133Y-367202378D01*
X281099172Y-367056804D01*
X281108634Y-366861057D01*
X281116046Y-366604429D01*
X281121936Y-366276214D01*
X281126832Y-365865706D01*
X281131262Y-365362198D01*
X281135754Y-364754984D01*
X281138379Y-364315271D01*
X281139931Y-363654766D01*
X281137769Y-363106089D01*
X281131867Y-362667648D01*
X281122201Y-362337849D01*
X281108745Y-362115099D01*
X281091472Y-361997805D01*
X281088240Y-361987122D01*
X280962312Y-361755238D01*
X280751169Y-361598696D01*
X280453554Y-361516546D01*
X280335670Y-361497890D01*
X280200410Y-361461201D01*
X280167114Y-361427108D01*
X280227826Y-361401825D01*
X280374592Y-361391568D01*
X280599457Y-361402551D01*
X280619476Y-361404417D01*
X281123814Y-361485741D01*
X281596457Y-361625342D01*
X282017279Y-361814252D01*
X282366154Y-362043505D01*
X282622956Y-362304132D01*
X282827285Y-362577824D01*
X282947254Y-362161885D01*
X282951200Y-362148328D01*
X283037618Y-361896735D01*
X283135276Y-361679440D01*
X283233070Y-361515243D01*
X283319896Y-361422944D01*
X283384649Y-361421344D01*
X283394399Y-361442349D01*
X283381752Y-361550593D01*
X283320392Y-361709056D01*
X283268063Y-361819475D01*
X283202656Y-361970269D01*
X283149263Y-362119822D01*
X283106518Y-362280984D01*
X283073057Y-362466607D01*
X283047518Y-362689540D01*
X283028536Y-362962635D01*
X283014748Y-363298741D01*
X283004789Y-363710710D01*
X282997295Y-364211391D01*
X282990904Y-364813636D01*
X282969797Y-367017559D01*
X283406161Y-367409653D01*
X283513679Y-367506073D01*
X283674789Y-367646648D01*
X283778529Y-367724676D01*
X283843291Y-367749574D01*
X283887465Y-367730762D01*
X283929440Y-367677658D01*
X284080175Y-367493039D01*
X284272282Y-367326363D01*
X284518732Y-367175071D01*
X284838951Y-367027319D01*
X285252369Y-366871266D01*
X285857622Y-366658286D01*
X285288850Y-366366127D01*
X284990576Y-366206406D01*
X284576322Y-365950216D01*
X284254708Y-365693459D01*
X284013610Y-365421305D01*
X283840902Y-365118925D01*
X283724459Y-364771486D01*
X283652159Y-364364160D01*
X283628231Y-364125319D01*
X283623966Y-363517965D01*
X283710054Y-362980242D01*
X283886953Y-362511156D01*
X284155121Y-362109711D01*
X284515015Y-361774913D01*
X284967093Y-361505767D01*
X285119625Y-361434868D01*
X285306732Y-361359781D01*
X285472915Y-361318812D01*
X285663250Y-361302278D01*
X285922811Y-361300499D01*
X285950444Y-361300764D01*
G37*
X102386250Y-340485000D02*
X101456250Y-340485000D01*
X102386250Y-340485000D02*
X102386250Y-339025000D01*
X99226250Y-340485000D02*
X100156250Y-340485000D01*
X99226250Y-340485000D02*
X99226250Y-337325000D01*
X801250Y-372235000D02*
X801250Y-369075000D01*
X801250Y-372235000D02*
X1731250Y-372235000D01*
X3961250Y-372235000D02*
X3961250Y-370775000D01*
X3961250Y-372235000D02*
X3031250Y-372235000D01*
X84130000Y-336516250D02*
X83200000Y-336516250D01*
X84130000Y-336516250D02*
X84130000Y-335056250D01*
X80970000Y-336516250D02*
X81900000Y-336516250D01*
X80970000Y-336516250D02*
X80970000Y-333356250D01*
X186523750Y-346835000D02*
X185593750Y-346835000D01*
X186523750Y-346835000D02*
X186523750Y-345375000D01*
X183363750Y-346835000D02*
X184293750Y-346835000D01*
X183363750Y-346835000D02*
X183363750Y-343675000D01*
X277820000Y-334135000D02*
X277820000Y-330975000D01*
X277820000Y-334135000D02*
X278750000Y-334135000D01*
X280980000Y-334135000D02*
X280980000Y-332675000D01*
X280980000Y-334135000D02*
X280050000Y-334135000D01*
X83336250Y-316672500D02*
X82406250Y-316672500D01*
X83336250Y-316672500D02*
X83336250Y-315212500D01*
X80176250Y-316672500D02*
X81106250Y-316672500D01*
X80176250Y-316672500D02*
X80176250Y-313512500D01*
X-18248750Y-296035000D02*
X-18248750Y-292875000D01*
X-18248750Y-296035000D02*
X-17318750Y-296035000D01*
X-15088750Y-296035000D02*
X-15088750Y-294575000D01*
X-15088750Y-296035000D02*
X-16018750Y-296035000D01*
X801250Y-276985000D02*
X801250Y-273825000D01*
X801250Y-276985000D02*
X1731250Y-276985000D01*
X3961250Y-276985000D02*
X3961250Y-275525000D01*
X3961250Y-276985000D02*
X3031250Y-276985000D01*
X-18248750Y-334135000D02*
X-18248750Y-330975000D01*
X-18248750Y-334135000D02*
X-17318750Y-334135000D01*
X-15088750Y-334135000D02*
X-15088750Y-332675000D01*
X-15088750Y-334135000D02*
X-16018750Y-334135000D01*
X350036250Y-272222500D02*
X349106250Y-272222500D01*
X350036250Y-272222500D02*
X350036250Y-270762500D01*
X346876250Y-272222500D02*
X347806250Y-272222500D01*
X346876250Y-272222500D02*
X346876250Y-269062500D01*
X257961250Y-297710000D02*
X257031250Y-297710000D01*
X257961250Y-297710000D02*
X257961250Y-296250000D01*
X254801250Y-297710000D02*
X255731250Y-297710000D01*
X254801250Y-297710000D02*
X254801250Y-294550000D01*
X176205000Y-368266250D02*
X175275000Y-368266250D01*
X176205000Y-368266250D02*
X176205000Y-366806250D01*
X173045000Y-368266250D02*
X173975000Y-368266250D01*
X173045000Y-368266250D02*
X173045000Y-365106250D01*
X77780000Y-293653750D02*
X76850000Y-293653750D01*
X77780000Y-293653750D02*
X77780000Y-292193750D01*
X74620000Y-293653750D02*
X75550000Y-293653750D01*
X74620000Y-293653750D02*
X74620000Y-290493750D01*
X801250Y-297622500D02*
X801250Y-294462500D01*
X801250Y-297622500D02*
X1731250Y-297622500D01*
X3961250Y-297622500D02*
X3961250Y-296162500D01*
X3961250Y-297622500D02*
X3031250Y-297622500D01*
X73017500Y-270635000D02*
X72087500Y-270635000D01*
X73017500Y-270635000D02*
X73017500Y-269175000D01*
X69857500Y-270635000D02*
X70787500Y-270635000D01*
X69857500Y-270635000D02*
X69857500Y-267475000D01*
X101592500Y-320641250D02*
X100662500Y-320641250D01*
X101592500Y-320641250D02*
X101592500Y-319181250D01*
X98432500Y-320641250D02*
X99362500Y-320641250D01*
X98432500Y-320641250D02*
X98432500Y-317481250D01*
X366705000Y-273810000D02*
X365775000Y-273810000D01*
X366705000Y-273810000D02*
X366705000Y-272350000D01*
X363545000Y-273810000D02*
X364475000Y-273810000D01*
X363545000Y-273810000D02*
X363545000Y-270650000D01*
X107942500Y-361122500D02*
X107012500Y-361122500D01*
X107942500Y-361122500D02*
X107942500Y-359662500D01*
X104782500Y-361122500D02*
X105712500Y-361122500D01*
X104782500Y-361122500D02*
X104782500Y-357962500D01*
X201605000Y-280160000D02*
X200675000Y-280160000D01*
X201605000Y-280160000D02*
X201605000Y-278700000D01*
X198445000Y-280160000D02*
X199375000Y-280160000D01*
X198445000Y-280160000D02*
X198445000Y-277000000D01*
X350068000Y-354963000D02*
X349138000Y-354963000D01*
X350068000Y-354963000D02*
X350068000Y-353503000D01*
X346908000Y-354963000D02*
X347838000Y-354963000D01*
X346908000Y-354963000D02*
X346908000Y-351803000D01*
X258770000Y-335810000D02*
X258770000Y-332650000D01*
X258770000Y-335810000D02*
X259700000Y-335810000D01*
X261930000Y-335810000D02*
X261930000Y-334350000D01*
X261930000Y-335810000D02*
X261000000Y-335810000D01*
X250817500Y-352391250D02*
X249887500Y-352391250D01*
X250817500Y-352391250D02*
X250817500Y-350931250D01*
X247657500Y-352391250D02*
X248587500Y-352391250D01*
X247657500Y-352391250D02*
X247657500Y-349231250D01*
X363545000Y-316672500D02*
X363545000Y-313512500D01*
X363545000Y-316672500D02*
X364475000Y-316672500D01*
X366705000Y-316672500D02*
X366705000Y-315212500D01*
X366705000Y-316672500D02*
X365775000Y-316672500D01*
X183348750Y-308735000D02*
X182418750Y-308735000D01*
X183348750Y-308735000D02*
X183348750Y-307275000D01*
X180188750Y-308735000D02*
X181118750Y-308735000D01*
X180188750Y-308735000D02*
X180188750Y-305575000D01*
X282567500Y-270635000D02*
X281637500Y-270635000D01*
X282567500Y-270635000D02*
X282567500Y-269175000D01*
X279407500Y-270635000D02*
X280337500Y-270635000D01*
X279407500Y-270635000D02*
X279407500Y-267475000D01*
X204780000Y-342866250D02*
X203850000Y-342866250D01*
X204780000Y-342866250D02*
X204780000Y-341406250D01*
X201620000Y-342866250D02*
X202550000Y-342866250D01*
X201620000Y-342866250D02*
X201620000Y-339706250D01*
X801250Y-354772500D02*
X801250Y-351612500D01*
X801250Y-354772500D02*
X1731250Y-354772500D01*
X3961250Y-354772500D02*
X3961250Y-353312500D01*
X3961250Y-354772500D02*
X3031250Y-354772500D01*
X252405000Y-316672500D02*
X251475000Y-316672500D01*
X252405000Y-316672500D02*
X252405000Y-315212500D01*
X249245000Y-316672500D02*
X250175000Y-316672500D01*
X249245000Y-316672500D02*
X249245000Y-313512500D01*
X180188750Y-284128750D02*
X180188750Y-280968750D01*
X180188750Y-284128750D02*
X181118750Y-284128750D01*
X183348750Y-284128750D02*
X183348750Y-282668750D01*
X183348750Y-284128750D02*
X182418750Y-284128750D01*
X344495000Y-372235000D02*
X344495000Y-369075000D01*
X344495000Y-372235000D02*
X345425000Y-372235000D01*
X347655000Y-372235000D02*
X347655000Y-370775000D01*
X347655000Y-372235000D02*
X346725000Y-372235000D01*
X-16661250Y-275397500D02*
X-16661250Y-272237500D01*
X-16661250Y-275397500D02*
X-15731250Y-275397500D01*
X-13501250Y-275397500D02*
X-13501250Y-273937500D01*
X-13501250Y-275397500D02*
X-14431250Y-275397500D01*
X350036250Y-296035000D02*
X349106250Y-296035000D01*
X350036250Y-296035000D02*
X350036250Y-294575000D01*
X346876250Y-296035000D02*
X347806250Y-296035000D01*
X346876250Y-296035000D02*
X346876250Y-292875000D01*
X-18248750Y-353185000D02*
X-18248750Y-350025000D01*
X-18248750Y-353185000D02*
X-17318750Y-353185000D01*
X-15088750Y-353185000D02*
X-15088750Y-351725000D01*
X-15088750Y-353185000D02*
X-16018750Y-353185000D01*
X92067500Y-274603750D02*
X91137500Y-274603750D01*
X92067500Y-274603750D02*
X92067500Y-273143750D01*
X88907500Y-274603750D02*
X89837500Y-274603750D01*
X88907500Y-274603750D02*
X88907500Y-271443750D01*
X196842500Y-325403750D02*
X195912500Y-325403750D01*
X196842500Y-325403750D02*
X196842500Y-323943750D01*
X193682500Y-325403750D02*
X194612500Y-325403750D01*
X193682500Y-325403750D02*
X193682500Y-322243750D01*
X366705000Y-297710000D02*
X365775000Y-297710000D01*
X366705000Y-297710000D02*
X366705000Y-296250000D01*
X363545000Y-297710000D02*
X364475000Y-297710000D01*
X363545000Y-297710000D02*
X363545000Y-294550000D01*
X-18248750Y-315085000D02*
X-18248750Y-311925000D01*
X-18248750Y-315085000D02*
X-17318750Y-315085000D01*
X-15088750Y-315085000D02*
X-15088750Y-313625000D01*
X-15088750Y-315085000D02*
X-16018750Y-315085000D01*
X263517500Y-272222500D02*
X262587500Y-272222500D01*
X263517500Y-272222500D02*
X263517500Y-270762500D01*
X260357500Y-272222500D02*
X261287500Y-272222500D01*
X260357500Y-272222500D02*
X260357500Y-269062500D01*
X211130000Y-375410000D02*
X210200000Y-375410000D01*
X211130000Y-375410000D02*
X211130000Y-373950000D01*
X207970000Y-375410000D02*
X208900000Y-375410000D01*
X207970000Y-375410000D02*
X207970000Y-372250000D01*
X195255000Y-364297500D02*
X194325000Y-364297500D01*
X195255000Y-364297500D02*
X195255000Y-362837500D01*
X192095000Y-364297500D02*
X193025000Y-364297500D01*
X192095000Y-364297500D02*
X192095000Y-361137500D01*
X130961250Y-383347500D02*
X130031250Y-383347500D01*
X130961250Y-383347500D02*
X130961250Y-381887500D01*
X127801250Y-383347500D02*
X128731250Y-383347500D01*
X127801250Y-383347500D02*
X127801250Y-380187500D01*
X88892500Y-357153750D02*
X87962500Y-357153750D01*
X88892500Y-357153750D02*
X88892500Y-355693750D01*
X85732500Y-357153750D02*
X86662500Y-357153750D01*
X85732500Y-357153750D02*
X85732500Y-353993750D01*
X277011250Y-296035000D02*
X276081250Y-296035000D01*
X277011250Y-296035000D02*
X277011250Y-294575000D01*
X273851250Y-296035000D02*
X274781250Y-296035000D01*
X273851250Y-296035000D02*
X273851250Y-292875000D01*
X177792500Y-329372500D02*
X176862500Y-329372500D01*
X177792500Y-329372500D02*
X177792500Y-327912500D01*
X174632500Y-329372500D02*
X175562500Y-329372500D01*
X174632500Y-329372500D02*
X174632500Y-326212500D01*
X96830000Y-300003750D02*
X95900000Y-300003750D01*
X96830000Y-300003750D02*
X96830000Y-298543750D01*
X93670000Y-300003750D02*
X94600000Y-300003750D01*
X93670000Y-300003750D02*
X93670000Y-296843750D01*
X801250Y-335722500D02*
X801250Y-332562500D01*
X801250Y-335722500D02*
X1731250Y-335722500D01*
X3961250Y-335722500D02*
X3961250Y-334262500D01*
X3961250Y-335722500D02*
X3031250Y-335722500D01*
X201605000Y-304766250D02*
X200675000Y-304766250D01*
X201605000Y-304766250D02*
X201605000Y-303306250D01*
X198445000Y-304766250D02*
X199375000Y-304766250D01*
X198445000Y-304766250D02*
X198445000Y-301606250D01*
X-18248750Y-370647500D02*
X-18248750Y-367487500D01*
X-18248750Y-370647500D02*
X-17318750Y-370647500D01*
X-15088750Y-370647500D02*
X-15088750Y-369187500D01*
X-15088750Y-370647500D02*
X-16018750Y-370647500D01*
X363545000Y-372235000D02*
X363545000Y-369075000D01*
X363545000Y-372235000D02*
X364475000Y-372235000D01*
X366705000Y-372235000D02*
X366705000Y-370775000D01*
X366705000Y-372235000D02*
X365775000Y-372235000D01*
X346876250Y-315085000D02*
X346876250Y-311925000D01*
X346876250Y-315085000D02*
X347806250Y-315085000D01*
X350036250Y-315085000D02*
X350036250Y-313625000D01*
X350036250Y-315085000D02*
X349106250Y-315085000D01*
X801250Y-316672500D02*
X801250Y-313512500D01*
X801250Y-316672500D02*
X1731250Y-316672500D01*
X3961250Y-316672500D02*
X3961250Y-315212500D01*
X3961250Y-316672500D02*
X3031250Y-316672500D01*
X271455000Y-315085000D02*
X270525000Y-315085000D01*
X271455000Y-315085000D02*
X271455000Y-313625000D01*
X268295000Y-315085000D02*
X269225000Y-315085000D01*
X268295000Y-315085000D02*
X268295000Y-311925000D01*
%LPC*%
D13*
X328041000Y-255778000D03*
D14*
X328041000Y-258318000D03*
X328041000Y-260858000D03*
X328041000Y-263398000D03*
X328041000Y-265938000D03*
X328041000Y-268478000D03*
X328041000Y-271018000D03*
X328041000Y-273558000D03*
X328041000Y-276098000D03*
X328041000Y-278638000D03*
X328041000Y-281178000D03*
X328041000Y-283718000D03*
X328041000Y-286258000D03*
X328041000Y-288798000D03*
X328041000Y-291338000D03*
X328041000Y-293878000D03*
X328041000Y-296418000D03*
X328041000Y-298958000D03*
X328041000Y-301498000D03*
X328041000Y-304038000D03*
X312801000Y-304038000D03*
X312801000Y-301498000D03*
X312801000Y-298958000D03*
X312801000Y-296418000D03*
X312801000Y-293878000D03*
X312801000Y-291338000D03*
X312801000Y-288798000D03*
X312801000Y-286258000D03*
X312801000Y-283718000D03*
X312801000Y-281178000D03*
X312801000Y-278638000D03*
X312801000Y-276098000D03*
X312801000Y-273558000D03*
X312801000Y-271018000D03*
X312801000Y-268478000D03*
X312801000Y-265938000D03*
X312801000Y-263398000D03*
X312801000Y-260858000D03*
X312801000Y-258318000D03*
X312801000Y-255778000D03*
X316609000Y-300227000D03*
X319149000Y-300227000D03*
X321689000Y-300227000D03*
X324229000Y-300227000D03*
D15*
X455612500Y-266700000D03*
D16*
X450532500Y-266700000D03*
D17*
X458152500Y-261620000D03*
D16*
X460692500Y-266700000D03*
D17*
X451802500Y-264160000D03*
D18*
X448527500Y-264160000D03*
X461454500Y-261620000D03*
D15*
X455612500Y-366712500D03*
D17*
X458152500Y-362902500D03*
D16*
X455612500Y-371792500D03*
D17*
X460692500Y-369252500D03*
D16*
X455612500Y-361632500D03*
D19*
X458152500Y-359627500D03*
X460692500Y-372554500D03*
D17*
X394652500Y-307022500D03*
D16*
X403542500Y-309562500D03*
D17*
X401002500Y-304482500D03*
D15*
X398462500Y-309562500D03*
D16*
X393382500Y-309562500D03*
D18*
X391377500Y-307022500D03*
X404304500Y-304482500D03*
D16*
X455612500Y-352742500D03*
D15*
X455612500Y-347662500D03*
D16*
X455612500Y-342582500D03*
D17*
X460692500Y-350202500D03*
X458152500Y-343852500D03*
D19*
X458152500Y-340577500D03*
X460692500Y-353504500D03*
D17*
X432752500Y-287972500D03*
D16*
X431482500Y-290512500D03*
X441642500Y-290512500D03*
D15*
X436562500Y-290512500D03*
D17*
X439102500Y-285432500D03*
D18*
X429477500Y-287972500D03*
X442404500Y-285432500D03*
D17*
X439102500Y-361632500D03*
D16*
X431482500Y-366712500D03*
D15*
X436562500Y-366712500D03*
D17*
X432752500Y-364172500D03*
D16*
X441642500Y-366712500D03*
D18*
X429477500Y-364172500D03*
X442404500Y-361632500D03*
D16*
X403542500Y-328612500D03*
D17*
X401002500Y-323532500D03*
D15*
X398462500Y-328612500D03*
D17*
X394652500Y-326072500D03*
D16*
X393382500Y-328612500D03*
D18*
X391377500Y-326072500D03*
X404304500Y-323532500D03*
D15*
X417512500Y-347662500D03*
D17*
X420052500Y-342582500D03*
X413702500Y-345122500D03*
D16*
X422592500Y-347662500D03*
X412432500Y-347662500D03*
D18*
X410427500Y-345122500D03*
X423354500Y-342582500D03*
D17*
X439102500Y-323532500D03*
D15*
X436562500Y-328612500D03*
D16*
X441642500Y-328612500D03*
D17*
X432752500Y-326072500D03*
D16*
X431482500Y-328612500D03*
D18*
X429477500Y-326072500D03*
X442404500Y-323532500D03*
D16*
X413067500Y-366712500D03*
D15*
X407987500Y-366712500D03*
D16*
X402907500Y-366712500D03*
D20*
X396049500Y-373697500D03*
X419925500Y-373697500D03*
D15*
X396049500Y-358457500D03*
X419925500Y-358457500D03*
D17*
X410527500Y-361632500D03*
X404177500Y-364172500D03*
D18*
X400902500Y-364172500D03*
X413829500Y-361632500D03*
D17*
X432752500Y-307022500D03*
D16*
X431482500Y-309562500D03*
D15*
X436562500Y-309562500D03*
D17*
X439102500Y-304482500D03*
D16*
X441642500Y-309562500D03*
D18*
X429477500Y-307022500D03*
X442404500Y-304482500D03*
D17*
X413702500Y-326072500D03*
D16*
X422592500Y-328612500D03*
D15*
X417512500Y-328612500D03*
D17*
X420052500Y-323532500D03*
D16*
X412432500Y-328612500D03*
D18*
X410427500Y-326072500D03*
X423354500Y-323532500D03*
D17*
X458152500Y-285432500D03*
D16*
X460692500Y-290512500D03*
X450532500Y-290512500D03*
D15*
X455612500Y-290512500D03*
D17*
X451802500Y-287972500D03*
D18*
X448527500Y-287972500D03*
X461454500Y-285432500D03*
D16*
X393382500Y-347662500D03*
D17*
X394652500Y-345122500D03*
D15*
X398462500Y-347662500D03*
D17*
X401002500Y-342582500D03*
D16*
X403542500Y-347662500D03*
D18*
X391377500Y-345122500D03*
X404304500Y-342582500D03*
D17*
X460692500Y-312102500D03*
X458152500Y-305752500D03*
D16*
X455612500Y-314642500D03*
X455612500Y-304482500D03*
D15*
X455612500Y-309562500D03*
D19*
X458152500Y-302477500D03*
X460692500Y-315404500D03*
D16*
X412432500Y-266700000D03*
X422592500Y-266700000D03*
D17*
X420052500Y-261620000D03*
D15*
X417512500Y-266700000D03*
D17*
X413702500Y-264160000D03*
D18*
X410427500Y-264160000D03*
X423354500Y-261620000D03*
D16*
X455612500Y-352107500D03*
D17*
X453072500Y-360997500D03*
D16*
X455612500Y-362267500D03*
D15*
X447357500Y-345249500D03*
X455612500Y-357187500D03*
D20*
X462597500Y-345249500D03*
D15*
X447357500Y-369125500D03*
D17*
X450532500Y-354647500D03*
D20*
X462597500Y-369125500D03*
D19*
X453072500Y-364272500D03*
X450532500Y-351345500D03*
D17*
X414972500Y-371792500D03*
D15*
X417512500Y-366712500D03*
D17*
X421322500Y-369252500D03*
D16*
X422592500Y-366712500D03*
X412432500Y-366712500D03*
D18*
X424597500Y-369252500D03*
X411670500Y-371792500D03*
D17*
X432752500Y-264160000D03*
D15*
X436562500Y-266700000D03*
D17*
X439102500Y-261620000D03*
D16*
X431482500Y-266700000D03*
X441642500Y-266700000D03*
D18*
X429477500Y-264160000D03*
X442404500Y-261620000D03*
D15*
X447357500Y-307149500D03*
X447357500Y-331025500D03*
D20*
X462597500Y-307149500D03*
X462597500Y-331025500D03*
D15*
X455612500Y-319087500D03*
D16*
X455612500Y-324167500D03*
X455612500Y-314007500D03*
D17*
X450532500Y-316547500D03*
X453072500Y-322897500D03*
D19*
X453072500Y-326172500D03*
X450532500Y-313245500D03*
D15*
X417512500Y-309562500D03*
D16*
X412432500Y-309562500D03*
D17*
X420052500Y-304482500D03*
X413702500Y-307022500D03*
D16*
X422592500Y-309562500D03*
D18*
X410427500Y-307022500D03*
X423354500Y-304482500D03*
D15*
X398462500Y-290512500D03*
D17*
X394652500Y-287972500D03*
D16*
X393382500Y-290512500D03*
X403542500Y-290512500D03*
D17*
X401002500Y-285432500D03*
D18*
X391377500Y-287972500D03*
X404304500Y-285432500D03*
D15*
X455612500Y-328612500D03*
D17*
X458152500Y-324802500D03*
D16*
X455612500Y-323532500D03*
X455612500Y-333692500D03*
D17*
X460692500Y-331152500D03*
D19*
X458152500Y-321527500D03*
X460692500Y-334454500D03*
D16*
X393382500Y-366712500D03*
X403542500Y-366712500D03*
D17*
X402272500Y-369252500D03*
X395922500Y-371792500D03*
D15*
X398462500Y-366712500D03*
D18*
X405547500Y-369252500D03*
X392620500Y-371792500D03*
D21*
X426087500Y-333462500D03*
X427987500Y-333462500D03*
X427037500Y-336462500D03*
X407037500Y-331875000D03*
X408937500Y-331875000D03*
X407987500Y-334875000D03*
X426087500Y-352512500D03*
X427987500Y-352512500D03*
X427037500Y-355512500D03*
X446087500Y-365037500D03*
X447037500Y-362037500D03*
X445137500Y-362037500D03*
X426087500Y-295362500D03*
X427987500Y-295362500D03*
X427037500Y-298362500D03*
X407037500Y-269962500D03*
X408937500Y-269962500D03*
X407987500Y-272962500D03*
X427675000Y-369975000D03*
X429575000Y-369975000D03*
X428625000Y-372975000D03*
X407037500Y-350925000D03*
X408937500Y-350925000D03*
X407987500Y-353925000D03*
X407037500Y-312825000D03*
X408937500Y-312825000D03*
X407987500Y-315825000D03*
X426087500Y-271550000D03*
X427987500Y-271550000D03*
X427037500Y-274550000D03*
X426087500Y-314412500D03*
X427987500Y-314412500D03*
X427037500Y-317412500D03*
X407037500Y-293775000D03*
X408937500Y-293775000D03*
X407987500Y-296775000D03*
D16*
X441642500Y-347662500D03*
D15*
X436562500Y-347662500D03*
D17*
X432752500Y-345122500D03*
D16*
X431482500Y-347662500D03*
D17*
X439102500Y-342582500D03*
D18*
X429477500Y-345122500D03*
X442404500Y-342582500D03*
D16*
X412432500Y-290512500D03*
D15*
X417512500Y-290512500D03*
D16*
X422592500Y-290512500D03*
D17*
X413702500Y-287972500D03*
X420052500Y-285432500D03*
D18*
X410427500Y-287972500D03*
X423354500Y-285432500D03*
D16*
X403542500Y-266700000D03*
D15*
X398462500Y-266700000D03*
D17*
X401002500Y-261620000D03*
D16*
X393382500Y-266700000D03*
D17*
X394652500Y-264160000D03*
D18*
X391377500Y-264160000D03*
X404304500Y-261620000D03*
X342392000Y-361632500D03*
X329465000Y-364172500D03*
D17*
X339090000Y-361632500D03*
D15*
X336550000Y-366712500D03*
D16*
X341630000Y-366712500D03*
D17*
X332740000Y-364172500D03*
D16*
X331470000Y-366712500D03*
D18*
X272072100Y-285432500D03*
X259145100Y-287972500D03*
D16*
X261150100Y-290512500D03*
D17*
X268770100Y-285432500D03*
D16*
X271310100Y-290512500D03*
D15*
X266230100Y-290512500D03*
D17*
X262420100Y-287972500D03*
D18*
X309848250Y-261620000D03*
X296921250Y-264160000D03*
D17*
X306546250Y-261620000D03*
D16*
X298926250Y-266700000D03*
D15*
X304006250Y-266700000D03*
D17*
X300196250Y-264160000D03*
D16*
X309086250Y-266700000D03*
D18*
X72948800Y-283845000D03*
X60021800Y-286385000D03*
D15*
X67106800Y-288925000D03*
D16*
X62026800Y-288925000D03*
D17*
X69646800Y-283845000D03*
X63296800Y-286385000D03*
D16*
X72186800Y-288925000D03*
D18*
X17176750Y-333692500D03*
X30103750Y-331152500D03*
D17*
X26828750Y-331152500D03*
D15*
X23018750Y-328612500D03*
D16*
X17938750Y-328612500D03*
X28098750Y-328612500D03*
D17*
X20478750Y-333692500D03*
D22*
X238312747Y-363526090D03*
X226196329Y-368698259D03*
D17*
X235082904Y-364212614D03*
D16*
X228685610Y-370765891D03*
X238623590Y-368653509D03*
D15*
X233654600Y-369709700D03*
D17*
X229399762Y-368017349D03*
D23*
X131243230Y-297400730D03*
X118070620Y-297197551D03*
D16*
X119503710Y-300098909D03*
D17*
X128013386Y-296714206D03*
D15*
X124472700Y-301155100D03*
D17*
X121274053Y-297878462D03*
D16*
X129441690Y-302211291D03*
D23*
X112599630Y-293438330D03*
X99427020Y-293235151D03*
D17*
X109369786Y-292751806D03*
D16*
X100860110Y-296136509D03*
X110798090Y-298248891D03*
D17*
X102630453Y-293916062D03*
D15*
X105829100Y-297192700D03*
D18*
X288963100Y-295592500D03*
X301890100Y-293052500D03*
D16*
X299885100Y-290512500D03*
D15*
X306743100Y-298767500D03*
X294805100Y-290512500D03*
D20*
X282867100Y-283527500D03*
D17*
X292265100Y-295592500D03*
D15*
X282867100Y-298767500D03*
D16*
X289725100Y-290512500D03*
D17*
X298615100Y-293052500D03*
D20*
X306743100Y-283527500D03*
D23*
X117933630Y-314063130D03*
X104761020Y-313859951D03*
D16*
X116132090Y-318873691D03*
X106194110Y-316761309D03*
D17*
X107964453Y-314540862D03*
D15*
X111163100Y-317817500D03*
D17*
X114703786Y-313376606D03*
D18*
X330708000Y-271780000D03*
X343635000Y-269240000D03*
D17*
X334010000Y-271780000D03*
D16*
X331470000Y-266700000D03*
X341630000Y-266700000D03*
D15*
X336550000Y-266700000D03*
D17*
X340360000Y-269240000D03*
D23*
X137250330Y-337608930D03*
X124077720Y-337405751D03*
D16*
X125510810Y-340307109D03*
D15*
X130479800Y-341363300D03*
D16*
X135448790Y-342419491D03*
D17*
X127281153Y-338086662D03*
X134020486Y-336922406D03*
D23*
X108243530Y-268152630D03*
X95070920Y-267949451D03*
D16*
X106441990Y-272963191D03*
D17*
X98274353Y-268630362D03*
D15*
X101473000Y-271907000D03*
D16*
X96504010Y-270850809D03*
D17*
X105013686Y-267466106D03*
D23*
X87428230Y-365980730D03*
X74255620Y-365777551D03*
D17*
X84198386Y-365294206D03*
D16*
X85626690Y-370791291D03*
D17*
X77459053Y-366458462D03*
D15*
X80657700Y-369735100D03*
D16*
X75688710Y-368678909D03*
D18*
X361442000Y-361632500D03*
X348515000Y-364172500D03*
D17*
X358140000Y-361632500D03*
D15*
X355600000Y-366712500D03*
D17*
X351790000Y-364172500D03*
D16*
X360680000Y-366712500D03*
X350520000Y-366712500D03*
D18*
X277152100Y-260032500D03*
X264225100Y-262572500D03*
D16*
X266230100Y-265112500D03*
D17*
X273850100Y-260032500D03*
D16*
X276390100Y-265112500D03*
D17*
X267500100Y-262572500D03*
D15*
X271310100Y-265112500D03*
D22*
X175892247Y-298908490D03*
X163775829Y-304080659D03*
D16*
X176203090Y-304035909D03*
D15*
X171234100Y-305092100D03*
D17*
X172662404Y-299595014D03*
X166979262Y-303399749D03*
D16*
X166265110Y-306148291D03*
D18*
X253034800Y-283921200D03*
X240107800Y-286461200D03*
D16*
X252272800Y-289001200D03*
X242112800Y-289001200D03*
D17*
X249732800Y-283921200D03*
D15*
X247192800Y-289001200D03*
D17*
X243382800Y-286461200D03*
D22*
X206410347Y-350838790D03*
X194293929Y-356010959D03*
D16*
X206721190Y-355966209D03*
D17*
X197497362Y-355330049D03*
D15*
X201752200Y-357022400D03*
D17*
X203180504Y-351525314D03*
D16*
X196783210Y-358078591D03*
D18*
X309575200Y-304482500D03*
X296648200Y-307022500D03*
D17*
X306273200Y-304482500D03*
D15*
X303733200Y-309562500D03*
D16*
X308813200Y-309562500D03*
X298653200Y-309562500D03*
D17*
X299923200Y-307022500D03*
D18*
X266725400Y-304482500D03*
X253798400Y-307022500D03*
D16*
X255803400Y-309562500D03*
X265963400Y-309562500D03*
D17*
X257073400Y-307022500D03*
X263423400Y-304482500D03*
D15*
X260883400Y-309562500D03*
D17*
X-30003750Y-345122500D03*
D15*
X-26193750Y-347662500D03*
D16*
X-21113750Y-347662500D03*
D17*
X-23653750Y-342582500D03*
D16*
X-31273750Y-347662500D03*
D18*
X-33278750Y-345122500D03*
X-20351750Y-342582500D03*
X306673250Y-323532500D03*
X293746250Y-326072500D03*
D16*
X305911250Y-328612500D03*
X295751250Y-328612500D03*
D15*
X312769250Y-336867500D03*
D17*
X297021250Y-326072500D03*
X303371250Y-323532500D03*
D15*
X288893250Y-336867500D03*
D20*
X312769250Y-321627500D03*
D15*
X300831250Y-328612500D03*
D20*
X288893250Y-321627500D03*
D22*
X235023447Y-325273690D03*
X222907029Y-330445859D03*
D16*
X225396310Y-332513491D03*
X235334290Y-330401109D03*
D17*
X231793604Y-325960214D03*
X226110462Y-329764949D03*
D15*
X230365300Y-331457300D03*
X-26193750Y-366712500D03*
D17*
X-23653750Y-361632500D03*
D16*
X-21113750Y-366712500D03*
X-31273750Y-366712500D03*
D17*
X-30003750Y-364172500D03*
D18*
X-33278750Y-364172500D03*
X-20351750Y-361632500D03*
D22*
X213141347Y-290983690D03*
X201024929Y-296155859D03*
D17*
X209911504Y-291670214D03*
D15*
X208483200Y-297167300D03*
D17*
X204228362Y-295474949D03*
D16*
X203514210Y-298223491D03*
X213452190Y-296111109D03*
X-12223750Y-309562500D03*
D15*
X-7143750Y-309562500D03*
D16*
X-2063750Y-309562500D03*
D17*
X-4603750Y-304482500D03*
X-10953750Y-307022500D03*
D18*
X-14228750Y-307022500D03*
X-1301750Y-304482500D03*
D23*
X100013930Y-329722230D03*
X86841320Y-329519051D03*
D16*
X88274410Y-332420409D03*
D15*
X93243400Y-333476600D03*
D17*
X96784086Y-329035706D03*
D16*
X98212390Y-334532791D03*
D17*
X90044753Y-330199962D03*
D22*
X236141047Y-261760990D03*
X224024629Y-266933159D03*
D16*
X226513910Y-269000791D03*
X236451890Y-266888409D03*
D15*
X231482900Y-267944600D03*
D17*
X232911204Y-262447514D03*
X227228062Y-266252249D03*
D18*
X59258200Y-304482500D03*
X46331200Y-307022500D03*
D17*
X49606200Y-307022500D03*
D16*
X58496200Y-309562500D03*
D17*
X55956200Y-304482500D03*
D15*
X53416200Y-309562500D03*
D16*
X48336200Y-309562500D03*
D17*
X-30003750Y-326072500D03*
X-23653750Y-323532500D03*
D15*
X-26193750Y-328612500D03*
D16*
X-21113750Y-328612500D03*
X-31273750Y-328612500D03*
D18*
X-33278750Y-326072500D03*
X-20351750Y-323532500D03*
D13*
X174917000Y-258127500D03*
D24*
X174917000Y-260667500D03*
X174917000Y-263207500D03*
X174917000Y-265747500D03*
D18*
X380492000Y-361632500D03*
X367565000Y-364172500D03*
D16*
X369570000Y-366712500D03*
D15*
X374650000Y-366712500D03*
D16*
X379730000Y-366712500D03*
D17*
X377190000Y-361632500D03*
X370840000Y-364172500D03*
D22*
X189163747Y-315545490D03*
X177047329Y-320717659D03*
D16*
X189474590Y-320672909D03*
D17*
X180250762Y-320036749D03*
D15*
X184505600Y-321729100D03*
D16*
X179536610Y-322785291D03*
D17*
X185933904Y-316232014D03*
D23*
X118606730Y-333646530D03*
X105434120Y-333443351D03*
D15*
X111836200Y-337400900D03*
D17*
X115376886Y-332960006D03*
D16*
X116805190Y-338457091D03*
D17*
X108637553Y-334124262D03*
D16*
X106867210Y-336344709D03*
D22*
X198726847Y-371933490D03*
X186610429Y-377105659D03*
D20*
X207198089Y-382467411D03*
D15*
X204029515Y-367560442D03*
D17*
X195497004Y-372620014D03*
D15*
X194068700Y-378117100D03*
X180675263Y-372524541D03*
D17*
X189813862Y-376424749D03*
D16*
X199037690Y-377060909D03*
D20*
X183843837Y-387431511D03*
D16*
X189099710Y-379173291D03*
D22*
X169132477Y-358768039D03*
X157016059Y-363940208D03*
D16*
X159505340Y-366007840D03*
D15*
X164474330Y-364951649D03*
D17*
X165902634Y-359454563D03*
X160219492Y-363259298D03*
D16*
X169443320Y-363895458D03*
D18*
X256667000Y-323532500D03*
X243740000Y-326072500D03*
D15*
X250825000Y-328612500D03*
D17*
X247015000Y-326072500D03*
D16*
X245745000Y-328612500D03*
X255905000Y-328612500D03*
D17*
X253365000Y-323532500D03*
D23*
X120029130Y-372914930D03*
X106856520Y-372711751D03*
D15*
X113258600Y-376669300D03*
D20*
X123483463Y-385983711D03*
X100129211Y-381019611D03*
D16*
X108289610Y-375613109D03*
D15*
X126652037Y-371076741D03*
D16*
X118227590Y-377725491D03*
D15*
X103297785Y-366112642D03*
D17*
X110059953Y-373392662D03*
X116799286Y-372228406D03*
D23*
X123978830Y-354271330D03*
X110806220Y-354068151D03*
D17*
X114009653Y-354749062D03*
D16*
X122177290Y-359081891D03*
X112239310Y-356969509D03*
D15*
X117208300Y-358025700D03*
D17*
X120748986Y-353584806D03*
D18*
X34848800Y-285432500D03*
X21921800Y-287972500D03*
D17*
X25196800Y-287972500D03*
D16*
X34086800Y-290512500D03*
D17*
X31546800Y-285432500D03*
D16*
X23926800Y-290512500D03*
D15*
X29006800Y-290512500D03*
D18*
X285762700Y-304482500D03*
X272835700Y-307022500D03*
D16*
X274840700Y-309562500D03*
D17*
X276110700Y-307022500D03*
D15*
X279920700Y-309562500D03*
D17*
X282460700Y-304482500D03*
D16*
X285000700Y-309562500D03*
D22*
X175600147Y-274638790D03*
X163483729Y-279810959D03*
D16*
X165973010Y-281878591D03*
D15*
X170942000Y-280822400D03*
D17*
X172370304Y-275325314D03*
X166687162Y-279130049D03*
D16*
X175910990Y-279766209D03*
D18*
X67754500Y-260032500D03*
X54827500Y-262572500D03*
D17*
X64452500Y-260032500D03*
D16*
X66992500Y-265112500D03*
D17*
X58102500Y-262572500D03*
D15*
X61912500Y-265112500D03*
D16*
X56832500Y-265112500D03*
D23*
X147981830Y-378845830D03*
X134809220Y-378642651D03*
D17*
X144751986Y-378159306D03*
D16*
X146180290Y-383656391D03*
X136242310Y-381544009D03*
D15*
X141211300Y-382600200D03*
D17*
X138012653Y-379323562D03*
D23*
X142609730Y-358221030D03*
X129437120Y-358017851D03*
D16*
X140808190Y-363031591D03*
D17*
X139379886Y-357534506D03*
D16*
X130870210Y-360919209D03*
D15*
X135839200Y-361975400D03*
D17*
X132640553Y-358698762D03*
D22*
X225028547Y-346876390D03*
X212912129Y-352048559D03*
D17*
X221798704Y-347562914D03*
X216115562Y-351367649D03*
D16*
X215401410Y-354116191D03*
X225339390Y-352003809D03*
D15*
X220370400Y-353060000D03*
D22*
X226412847Y-307633390D03*
X214296429Y-312805559D03*
D17*
X217499862Y-312124649D03*
D15*
X221754700Y-313817000D03*
D17*
X223183004Y-308319914D03*
D16*
X226723690Y-312760809D03*
X216785710Y-314873191D03*
D18*
X53903468Y-285432500D03*
X40976468Y-287972500D03*
D17*
X50601468Y-285432500D03*
D16*
X53141468Y-290512500D03*
D15*
X48061468Y-290512500D03*
D17*
X44251468Y-287972500D03*
D16*
X42981468Y-290512500D03*
D22*
X194535847Y-294958790D03*
X182419429Y-300130959D03*
D16*
X194846690Y-300086209D03*
D15*
X189877700Y-301142400D03*
D16*
X184908710Y-302198591D03*
D17*
X185622862Y-299450049D03*
X191306004Y-295645314D03*
D20*
X-4730750Y-259715000D03*
X-28606750Y-259715000D03*
D16*
X-21748750Y-266700000D03*
X-11588750Y-266700000D03*
D15*
X-16668750Y-266700000D03*
D17*
X-19208750Y-271780000D03*
X-12858750Y-269240000D03*
D15*
X-4730750Y-274955000D03*
X-28606750Y-274955000D03*
D18*
X-9583750Y-269240000D03*
X-22510750Y-271780000D03*
D23*
X99315430Y-310088030D03*
X86142820Y-309884851D03*
D17*
X89346253Y-310565762D03*
X96085586Y-309401506D03*
D16*
X97513890Y-314898591D03*
X87575910Y-312786209D03*
D15*
X92544900Y-313842400D03*
D25*
X301506250Y-259700000D03*
X306506250Y-259700000D03*
X304006250Y-274200000D03*
X306506250Y-274200000D03*
D26*
X301506250Y-274200000D03*
D27*
X309606250Y-266700000D03*
X298406250Y-266700000D03*
D23*
X80684530Y-306125630D03*
X67511920Y-305922451D03*
D16*
X78882990Y-310936191D03*
D17*
X70715353Y-306603362D03*
D15*
X73914000Y-309880000D03*
D16*
X68945010Y-308823809D03*
D17*
X77454686Y-305439106D03*
D23*
X105335230Y-350308930D03*
X92162620Y-350105751D03*
D17*
X102105386Y-349622406D03*
X95366053Y-350786662D03*
D16*
X103533690Y-355119491D03*
D15*
X98564700Y-354063300D03*
D16*
X93595710Y-353007109D03*
D22*
X245043747Y-303683690D03*
X232927329Y-308855859D03*
D16*
X245354590Y-308811109D03*
D17*
X236130762Y-308174949D03*
D16*
X235416610Y-310923491D03*
D17*
X241813904Y-304370214D03*
D15*
X240385600Y-309867300D03*
D28*
X104166510Y-379928370D03*
X117339120Y-380131549D03*
D16*
X105968050Y-375117809D03*
D20*
X97807651Y-380524311D03*
X121161903Y-385488411D03*
D15*
X110937040Y-376174000D03*
X124330477Y-370581441D03*
D17*
X114135687Y-379450638D03*
X107396354Y-380614894D03*
D16*
X115906030Y-377230191D03*
D15*
X100976225Y-365617342D03*
D22*
X179156147Y-337160890D03*
X167039729Y-342333059D03*
D16*
X169529010Y-344400691D03*
X179466990Y-342288309D03*
D17*
X170243162Y-341652149D03*
X175926304Y-337847414D03*
D15*
X174498000Y-343344500D03*
D17*
X-4603750Y-285432500D03*
D16*
X-2063750Y-290512500D03*
D17*
X-10953750Y-287972500D03*
D16*
X-12223750Y-290512500D03*
D15*
X-7143750Y-290512500D03*
D18*
X-14228750Y-287972500D03*
X-1301750Y-285432500D03*
D22*
X216417947Y-329210690D03*
X204301529Y-334382859D03*
D15*
X211759800Y-335394300D03*
D16*
X206790810Y-336450491D03*
D17*
X207504962Y-333701949D03*
D16*
X216728790Y-334338109D03*
D17*
X213188104Y-329897214D03*
X-4603750Y-261620000D03*
D16*
X-12223750Y-266700000D03*
D17*
X-10953750Y-264160000D03*
D15*
X-7143750Y-266700000D03*
D16*
X-2063750Y-266700000D03*
D18*
X-14228750Y-264160000D03*
X-1301750Y-261620000D03*
X33623250Y-323532500D03*
X20696250Y-326072500D03*
D16*
X32861250Y-328612500D03*
D17*
X23971250Y-326072500D03*
D15*
X27781250Y-328612500D03*
D16*
X22701250Y-328612500D03*
D17*
X30321250Y-323532500D03*
X-10953750Y-345122500D03*
D15*
X-7143750Y-347662500D03*
D16*
X-2063750Y-347662500D03*
D17*
X-4603750Y-342582500D03*
D16*
X-12223750Y-347662500D03*
D18*
X-14228750Y-345122500D03*
X-1301750Y-342582500D03*
X27273250Y-361632500D03*
X14346250Y-364172500D03*
D15*
X21431250Y-366712500D03*
D16*
X26511250Y-366712500D03*
D17*
X17621250Y-364172500D03*
X23971250Y-361632500D03*
D16*
X16351250Y-366712500D03*
D22*
X194231047Y-270676390D03*
X182114629Y-275848559D03*
D17*
X185318062Y-275167649D03*
X191001204Y-271362914D03*
D16*
X184603910Y-277916191D03*
D15*
X189572900Y-276860000D03*
D16*
X194541890Y-275803809D03*
D22*
X197787047Y-333185790D03*
X185670629Y-338357959D03*
D16*
X188159910Y-340425591D03*
D17*
X194557204Y-333872314D03*
D16*
X198097890Y-338313209D03*
D15*
X193128900Y-339369400D03*
D17*
X188874062Y-337677049D03*
D18*
X59817000Y-323532500D03*
X46890000Y-326072500D03*
D17*
X50165000Y-326072500D03*
X56515000Y-323532500D03*
D16*
X48895000Y-328612500D03*
X59055000Y-328612500D03*
D15*
X53975000Y-328612500D03*
D22*
X231797647Y-287046690D03*
X219681229Y-292218859D03*
D17*
X228567804Y-287733214D03*
D16*
X232108490Y-292174109D03*
D17*
X222884662Y-291537949D03*
D15*
X227139500Y-293230300D03*
D16*
X222170510Y-294286491D03*
D18*
X48704500Y-260032500D03*
X35777500Y-262572500D03*
D17*
X39052500Y-262572500D03*
D16*
X37782500Y-265112500D03*
D17*
X45402500Y-260032500D03*
D15*
X42862500Y-265112500D03*
D16*
X47942500Y-265112500D03*
D22*
X243672147Y-342913990D03*
X231555729Y-348086159D03*
D17*
X240442304Y-343600514D03*
D16*
X243982990Y-348041409D03*
D17*
X234759162Y-347405249D03*
D15*
X239014000Y-349097600D03*
D16*
X234045010Y-350153791D03*
D18*
X380492000Y-261620000D03*
X367565000Y-264160000D03*
D17*
X377190000Y-261620000D03*
D15*
X374650000Y-266700000D03*
D17*
X370840000Y-264160000D03*
D16*
X369570000Y-266700000D03*
X379730000Y-266700000D03*
D18*
X65373250Y-342582500D03*
X52446250Y-345122500D03*
D17*
X55721250Y-345122500D03*
D15*
X59531250Y-347662500D03*
D16*
X64611250Y-347662500D03*
X54451250Y-347662500D03*
D17*
X62071250Y-342582500D03*
D18*
X24892000Y-261620000D03*
X11965000Y-264160000D03*
D16*
X13970000Y-266700000D03*
D15*
X19050000Y-266700000D03*
D16*
X24130000Y-266700000D03*
D17*
X21590000Y-261620000D03*
X15240000Y-264160000D03*
D18*
X380492000Y-304482500D03*
X367565000Y-307022500D03*
D17*
X377190000Y-304482500D03*
D16*
X369570000Y-309562500D03*
D15*
X374650000Y-309562500D03*
D17*
X370840000Y-307022500D03*
D16*
X379730000Y-309562500D03*
D18*
X313023250Y-361632500D03*
X300096250Y-364172500D03*
D16*
X302101250Y-366712500D03*
D15*
X307181250Y-366712500D03*
D17*
X309721250Y-361632500D03*
D16*
X312261250Y-366712500D03*
D17*
X303371250Y-364172500D03*
D18*
X380492000Y-285432500D03*
X367565000Y-287972500D03*
D17*
X377190000Y-285432500D03*
X370840000Y-287972500D03*
D16*
X379730000Y-290512500D03*
D15*
X374650000Y-290512500D03*
D16*
X369570000Y-290512500D03*
D22*
X170545547Y-319520590D03*
X158429129Y-324692759D03*
D15*
X165887400Y-325704200D03*
D16*
X170856390Y-324648009D03*
D17*
X167315704Y-320207114D03*
X161632562Y-324011849D03*
D16*
X160918410Y-326760391D03*
D17*
X-30003750Y-307022500D03*
D16*
X-21113750Y-309562500D03*
D17*
X-23653750Y-304482500D03*
D16*
X-31273750Y-309562500D03*
D15*
X-26193750Y-309562500D03*
D18*
X-33278750Y-307022500D03*
X-20351750Y-304482500D03*
D22*
X217510147Y-265723390D03*
X205393729Y-270895559D03*
D16*
X217820990Y-270850809D03*
D17*
X214280304Y-266409914D03*
D15*
X212852000Y-271907000D03*
D16*
X207883010Y-272963191D03*
D17*
X208597162Y-270214649D03*
D18*
X35445700Y-304469800D03*
X22518700Y-307009800D03*
D16*
X24523700Y-309549800D03*
D15*
X29603700Y-309549800D03*
D16*
X34683700Y-309549800D03*
D17*
X32143700Y-304469800D03*
X25793700Y-307009800D03*
D23*
X89625330Y-264202930D03*
X76452720Y-263999751D03*
D16*
X87823790Y-269013491D03*
D15*
X82854800Y-267957300D03*
D17*
X86395486Y-263516406D03*
X79656153Y-264680662D03*
D16*
X77885810Y-266901109D03*
D22*
X187766747Y-354813890D03*
X175650329Y-359986059D03*
D17*
X178853762Y-359305149D03*
D16*
X188077590Y-359941309D03*
D17*
X184536904Y-355500414D03*
D15*
X183108600Y-360997500D03*
D16*
X178139610Y-362053691D03*
D22*
X207781947Y-311595790D03*
X195665529Y-316767959D03*
D16*
X198154810Y-318835591D03*
D17*
X204552104Y-312282314D03*
X198868962Y-316087049D03*
D15*
X203123800Y-317779400D03*
D16*
X208092790Y-316723209D03*
D18*
X361442000Y-342582500D03*
X348515000Y-345122500D03*
D16*
X350520000Y-347662500D03*
D15*
X355600000Y-347662500D03*
D17*
X351790000Y-345122500D03*
D16*
X360680000Y-347662500D03*
D17*
X358140000Y-342582500D03*
D18*
X275755100Y-323532500D03*
X262828100Y-326072500D03*
D17*
X266103100Y-326072500D03*
D16*
X264833100Y-328612500D03*
D15*
X269913100Y-328612500D03*
D16*
X274993100Y-328612500D03*
D17*
X272453100Y-323532500D03*
D23*
X131509930Y-273118330D03*
X118337320Y-272915151D03*
D17*
X128280086Y-272431806D03*
D16*
X129708390Y-277928891D03*
D17*
X121540753Y-273596062D03*
D16*
X119770410Y-275816509D03*
D15*
X124739400Y-276872700D03*
D17*
X-4603750Y-323532500D03*
D16*
X-2063750Y-328612500D03*
X-12223750Y-328612500D03*
D17*
X-10953750Y-326072500D03*
D15*
X-7143750Y-328612500D03*
D18*
X-14228750Y-326072500D03*
X-1301750Y-323532500D03*
D23*
X149886830Y-301337730D03*
X136714220Y-301134551D03*
D16*
X138147310Y-304035909D03*
D15*
X143116300Y-305092100D03*
D17*
X146656986Y-300651206D03*
X139917653Y-301815462D03*
D16*
X148085290Y-306148291D03*
D23*
X93968730Y-289463230D03*
X80796120Y-289260051D03*
D17*
X90738886Y-288776706D03*
D16*
X92167190Y-294273791D03*
D15*
X87198200Y-293217600D03*
D16*
X82229210Y-292161409D03*
D17*
X83999553Y-289940962D03*
D23*
X81383030Y-325759830D03*
X68210420Y-325556651D03*
D16*
X69643510Y-328458009D03*
X79581490Y-330570391D03*
D17*
X71413853Y-326237562D03*
D15*
X74612500Y-329514200D03*
D17*
X78153186Y-325073306D03*
D18*
X291122100Y-285432500D03*
X278195100Y-287972500D03*
D17*
X287820100Y-285432500D03*
D15*
X285280100Y-290512500D03*
D16*
X290360100Y-290512500D03*
X280200100Y-290512500D03*
D17*
X281470100Y-287972500D03*
D16*
X-31273750Y-290512500D03*
X-21113750Y-290512500D03*
D17*
X-23653750Y-285432500D03*
X-30003750Y-287972500D03*
D15*
X-26193750Y-290512500D03*
D18*
X-33278750Y-287972500D03*
X-20351750Y-285432500D03*
X265398250Y-342582500D03*
X252471250Y-345122500D03*
D17*
X255746250Y-345122500D03*
X262096250Y-342582500D03*
D16*
X254476250Y-347662500D03*
X264636250Y-347662500D03*
D15*
X259556250Y-347662500D03*
D18*
X361442000Y-261620000D03*
X348515000Y-264160000D03*
D15*
X355600000Y-266700000D03*
D17*
X358140000Y-261620000D03*
D16*
X350520000Y-266700000D03*
D17*
X351790000Y-264160000D03*
D16*
X360680000Y-266700000D03*
D23*
X136577230Y-317974730D03*
X123404620Y-317771551D03*
D17*
X126608053Y-318452462D03*
D16*
X134775690Y-322785291D03*
D17*
X133347386Y-317288206D03*
D15*
X129806700Y-321729100D03*
D16*
X124837710Y-320672909D03*
X-21113750Y-266700000D03*
D17*
X-23653750Y-261620000D03*
D15*
X-26193750Y-266700000D03*
D17*
X-30003750Y-264160000D03*
D16*
X-31273750Y-266700000D03*
D18*
X-33278750Y-264160000D03*
X-20351750Y-261620000D03*
D15*
X-7143750Y-366712500D03*
D16*
X-12223750Y-366712500D03*
X-2063750Y-366712500D03*
D17*
X-4603750Y-361632500D03*
X-10953750Y-364172500D03*
D18*
X-14228750Y-364172500D03*
X-1301750Y-361632500D03*
X342392000Y-304482500D03*
X329465000Y-307022500D03*
D16*
X341630000Y-309562500D03*
X331470000Y-309562500D03*
D15*
X336550000Y-309562500D03*
D17*
X339090000Y-304482500D03*
X332740000Y-307022500D03*
D23*
X150128130Y-277080730D03*
X136955520Y-276877551D03*
D16*
X148326590Y-281891291D03*
D15*
X143357600Y-280835100D03*
D16*
X138388610Y-279778909D03*
D17*
X146898286Y-276394206D03*
X140158953Y-277558462D03*
D18*
X258089400Y-260032500D03*
X245162400Y-262572500D03*
D15*
X252247400Y-265112500D03*
D16*
X247167400Y-265112500D03*
D17*
X254787400Y-260032500D03*
D16*
X257327400Y-265112500D03*
D17*
X248437400Y-262572500D03*
D28*
X71550370Y-372989090D03*
X84722980Y-373192269D03*
D17*
X81519547Y-372511358D03*
D15*
X78320900Y-369234720D03*
D17*
X74780214Y-373675614D03*
D16*
X73351910Y-368178529D03*
X83289890Y-370290911D03*
D18*
X361442000Y-304482500D03*
X348515000Y-307022500D03*
D16*
X350520000Y-309562500D03*
X360680000Y-309562500D03*
D15*
X355600000Y-309562500D03*
D17*
X351790000Y-307022500D03*
X358140000Y-304482500D03*
D18*
X361442000Y-285432500D03*
X348515000Y-287972500D03*
D16*
X350520000Y-290512500D03*
D17*
X351790000Y-287972500D03*
D15*
X355600000Y-290512500D03*
D16*
X360680000Y-290512500D03*
D17*
X358140000Y-285432500D03*
D23*
X86717030Y-346359230D03*
X73544420Y-346156051D03*
D17*
X76747853Y-346836962D03*
D15*
X79946500Y-350113600D03*
D16*
X84915490Y-351169791D03*
D17*
X83487186Y-345672706D03*
D16*
X74977510Y-349057409D03*
D18*
X34417000Y-342582500D03*
X21490000Y-345122500D03*
D17*
X31115000Y-342582500D03*
D20*
X40513000Y-340677500D03*
D16*
X23495000Y-347662500D03*
D15*
X16637000Y-355917500D03*
X28575000Y-347662500D03*
X40513000Y-355917500D03*
D16*
X33655000Y-347662500D03*
D20*
X16637000Y-340677500D03*
D17*
X24765000Y-345122500D03*
D18*
X301117000Y-342582500D03*
X288190000Y-345122500D03*
D15*
X295275000Y-347662500D03*
D16*
X300355000Y-347662500D03*
D20*
X283337000Y-340677500D03*
D16*
X290195000Y-347662500D03*
D17*
X291465000Y-345122500D03*
D15*
X307213000Y-355917500D03*
D17*
X297815000Y-342582500D03*
D20*
X307213000Y-340677500D03*
D15*
X283337000Y-355917500D03*
D18*
X310159400Y-285432500D03*
X297232400Y-287972500D03*
D17*
X300507400Y-287972500D03*
D16*
X299237400Y-290512500D03*
D17*
X306857400Y-285432500D03*
D16*
X309397400Y-290512500D03*
D15*
X304317400Y-290512500D03*
D18*
X330708000Y-295592500D03*
X343635000Y-293052500D03*
D17*
X340360000Y-293052500D03*
X334010000Y-295592500D03*
D15*
X336550000Y-290512500D03*
D16*
X341630000Y-290512500D03*
X331470000Y-290512500D03*
D21*
X99856250Y-338225000D03*
X101756250Y-338225000D03*
X100806250Y-341225000D03*
X2381250Y-372975000D03*
X3331250Y-369975000D03*
X1431250Y-369975000D03*
X81600000Y-334256250D03*
X83500000Y-334256250D03*
X82550000Y-337256250D03*
X183993750Y-344575000D03*
X185893750Y-344575000D03*
X184943750Y-347575000D03*
X279400000Y-334875000D03*
X280350000Y-331875000D03*
X278450000Y-331875000D03*
X80806250Y-314412500D03*
X82706250Y-314412500D03*
X81756250Y-317412500D03*
X-16668750Y-296775000D03*
X-15718750Y-293775000D03*
X-17618750Y-293775000D03*
X2381250Y-277725000D03*
X3331250Y-274725000D03*
X1431250Y-274725000D03*
X-16668750Y-334875000D03*
X-15718750Y-331875000D03*
X-17618750Y-331875000D03*
X347506250Y-269962500D03*
X349406250Y-269962500D03*
X348456250Y-272962500D03*
X255431250Y-295450000D03*
X257331250Y-295450000D03*
X256381250Y-298450000D03*
X173675000Y-366006250D03*
X175575000Y-366006250D03*
X174625000Y-369006250D03*
X75250000Y-291393750D03*
X77150000Y-291393750D03*
X76200000Y-294393750D03*
X2381250Y-298362500D03*
X3331250Y-295362500D03*
X1431250Y-295362500D03*
X70487500Y-268375000D03*
X72387500Y-268375000D03*
X71437500Y-271375000D03*
X99062500Y-318381250D03*
X100962500Y-318381250D03*
X100012500Y-321381250D03*
X364175000Y-271550000D03*
X366075000Y-271550000D03*
X365125000Y-274550000D03*
X105412500Y-358862500D03*
X107312500Y-358862500D03*
X106362500Y-361862500D03*
X199075000Y-277900000D03*
X200975000Y-277900000D03*
X200025000Y-280900000D03*
X347538000Y-352703000D03*
X349438000Y-352703000D03*
X348488000Y-355703000D03*
X260350000Y-336550000D03*
X261300000Y-333550000D03*
X259400000Y-333550000D03*
X248287500Y-350131250D03*
X250187500Y-350131250D03*
X249237500Y-353131250D03*
X365125000Y-317412500D03*
X366075000Y-314412500D03*
X364175000Y-314412500D03*
X180818750Y-306475000D03*
X182718750Y-306475000D03*
X181768750Y-309475000D03*
X280037500Y-268375000D03*
X281937500Y-268375000D03*
X280987500Y-271375000D03*
X202250000Y-340606250D03*
X204150000Y-340606250D03*
X203200000Y-343606250D03*
X2381250Y-355512500D03*
X3331250Y-352512500D03*
X1431250Y-352512500D03*
X249875000Y-314412500D03*
X251775000Y-314412500D03*
X250825000Y-317412500D03*
X181768750Y-284868750D03*
X182718750Y-281868750D03*
X180818750Y-281868750D03*
X346075000Y-372975000D03*
X347025000Y-369975000D03*
X345125000Y-369975000D03*
X-15081250Y-276137500D03*
X-14131250Y-273137500D03*
X-16031250Y-273137500D03*
X347506250Y-293775000D03*
X349406250Y-293775000D03*
X348456250Y-296775000D03*
X-16668750Y-353925000D03*
X-15718750Y-350925000D03*
X-17618750Y-350925000D03*
X89537500Y-272343750D03*
X91437500Y-272343750D03*
X90487500Y-275343750D03*
X194312500Y-323143750D03*
X196212500Y-323143750D03*
X195262500Y-326143750D03*
X364175000Y-295450000D03*
X366075000Y-295450000D03*
X365125000Y-298450000D03*
X-16668750Y-315825000D03*
X-15718750Y-312825000D03*
X-17618750Y-312825000D03*
X260987500Y-269962500D03*
X262887500Y-269962500D03*
X261937500Y-272962500D03*
X208600000Y-373150000D03*
X210500000Y-373150000D03*
X209550000Y-376150000D03*
X192725000Y-362037500D03*
X194625000Y-362037500D03*
X193675000Y-365037500D03*
X128431250Y-381087500D03*
X130331250Y-381087500D03*
X129381250Y-384087500D03*
X86362500Y-354893750D03*
X88262500Y-354893750D03*
X87312500Y-357893750D03*
X274481250Y-293775000D03*
X276381250Y-293775000D03*
X275431250Y-296775000D03*
X175262500Y-327112500D03*
X177162500Y-327112500D03*
X176212500Y-330112500D03*
X94300000Y-297743750D03*
X96200000Y-297743750D03*
X95250000Y-300743750D03*
X2381250Y-336462500D03*
X3331250Y-333462500D03*
X1431250Y-333462500D03*
X199075000Y-302506250D03*
X200975000Y-302506250D03*
X200025000Y-305506250D03*
X-16668750Y-371387500D03*
X-15718750Y-368387500D03*
X-17618750Y-368387500D03*
X365125000Y-372975000D03*
X366075000Y-369975000D03*
X364175000Y-369975000D03*
X348456250Y-315825000D03*
X349406250Y-312825000D03*
X347506250Y-312825000D03*
X2381250Y-317412500D03*
X3331250Y-314412500D03*
X1431250Y-314412500D03*
X268925000Y-312825000D03*
X270825000Y-312825000D03*
X269875000Y-315825000D03*
M02*
