M48
; DRILL file {KiCad (6.0.1-0)} date Monday, June 13, 2022 at 05:25:09 PM
; FORMAT={-:-/ absolute / metric / decimal}
; #@! TF.CreationDate,2022-06-13T17:25:09-07:00
; #@! TF.GenerationSoftware,Kicad,Pcbnew,(6.0.1-0)
; #@! TF.FileFunction,Plated,1,2,PTH
FMAT,2
METRIC
; #@! TA.AperFunction,Plated,PTH,ViaDrill
T1C0.400
; #@! TA.AperFunction,Plated,PTH,ComponentDrill
T2C1.000
%
G90
G05
T1
X-33.242Y-264.16
X-33.242Y-288.036
X-33.242Y-306.959
X-33.242Y-326.136
X-33.242Y-345.186
X-33.242Y-364.109
X-1.391Y-261.62
X-1.34Y-285.445
X-1.34Y-304.495
X-1.34Y-323.545
X-1.289Y-342.595
X-1.289Y-361.645
X1.403Y-295.351
X1.454Y-274.726
X1.454Y-314.452
X1.454Y-333.451
X1.454Y-352.603
X1.454Y-370.014
X5.715Y-267.843
X11.938Y-264.16
X14.351Y-364.236
X20.701Y-326.136
X21.463Y-345.186
X21.971Y-288.036
X22.479Y-306.959
X30.07Y-331.187
X34.835Y-329.057
X52.48Y-345.088
X54.864Y-262.509
X60.071Y-286.385
X67.437Y-305.943
X68.199Y-325.501
X73.66Y-346.202
X74.284Y-365.749
X89.535Y-272.415
X89.662Y-264.287
X92.163Y-350.106
X93.98Y-289.433
X94.361Y-297.688
X94.996Y-267.97
X99.06Y-318.389
X99.314Y-310.134
X99.441Y-293.243
X99.822Y-338.201
X100.076Y-329.819
X104.14Y-373.634
X104.14Y-379.984
X104.775Y-313.944
X105.283Y-350.393
X105.41Y-333.375
X105.41Y-358.902
X106.934Y-372.745
X110.871Y-354.076
X118.11Y-297.18
X118.364Y-272.923
X118.364Y-294.64
X123.444Y-317.754
X124.079Y-337.439
X129.54Y-358.013
X134.874Y-378.587
X149.098Y-316.738
X149.225Y-357.981
X150.019Y-261.938
X150.019Y-336.55
X154.781Y-375.444
X157.162Y-291.306
X157.162Y-387.35
X157.644Y-328.803
X157.644Y-329.803
X158.369Y-324.739
X163.449Y-279.781
X163.703Y-304.038
X167.005Y-342.392
X175.641Y-360.045
X177.165Y-327.152
X182.753Y-281.94
X182.753Y-306.578
X185.928Y-344.551
X186.563Y-377.063
X187.833Y-354.838
X189.103Y-315.595
X192.786Y-362.077
X194.31Y-270.637
X194.564Y-295.021
X195.666Y-316.768
X197.739Y-333.121
X200.965Y-296.215
X204.302Y-334.383
X205.379Y-270.911
X212.912Y-352.049
X214.249Y-312.928
X219.71Y-292.227
X222.885Y-330.581
X224.028Y-266.954
X226.314Y-368.681
X231.521Y-348.107
X251.841Y-314.452
X252.476Y-345.186
X253.746Y-307.086
X257.302Y-295.529
X259.08Y-288.036
X261.366Y-333.629
X262.763Y-326.136
X262.89Y-270.002
X264.287Y-262.636
X266.827Y-304.546
X272.034Y-285.496
X275.844Y-323.596
X277.114Y-260.096
X288.163Y-345.186
X296.672Y-307.086
X296.921Y-264.16
X300.101Y-364.236
X301.879Y-293.116
X302.768Y-264.287
X308.479Y-281.454
X309.703Y-280.555
X309.753Y-281.686
X310.452Y-279.781
X319.532Y-307.467
X320.294Y-287.782
X326.771Y-314.898
X327.152Y-333.049
X327.814Y-314.449
X328.714Y-332.05
X329.438Y-307.086
X329.438Y-364.109
X332.994Y-300.482
X343.662Y-269.24
X343.662Y-285.242
X343.662Y-292.989
X344.599Y-314.381
X345.075Y-373.7
X345.506Y-355.673
X345.635Y-314.003
X346.075Y-372.975
X346.198Y-266.323
X346.474Y-355.229
X347.015Y-370.027
X347.763Y-266.192
X348.488Y-264.16
X348.488Y-287.909
X348.488Y-306.959
X348.488Y-345.186
X348.488Y-364.109
X349.377Y-270.002
X349.377Y-293.751
X349.377Y-312.801
X361.442Y-261.62
X361.442Y-285.496
X361.442Y-304.546
X361.442Y-361.696
X387.223Y-267.335
X391.377Y-287.972
X391.377Y-307.022
X391.377Y-326.072
X391.377Y-345.123
X391.396Y-264.142
X392.62Y-371.792
X400.05Y-361.823
X400.939Y-364.109
X417.957Y-369.951
X422.275Y-362.712
X423.291Y-261.62
X423.291Y-285.496
X423.291Y-304.546
X423.291Y-323.596
X423.291Y-342.646
X426.085Y-271.526
X426.085Y-295.402
X426.085Y-314.452
X426.085Y-333.502
X426.085Y-352.552
X429.387Y-264.16
X429.387Y-287.909
X429.387Y-307.086
X429.387Y-345.186
X429.514Y-326.009
X429.514Y-364.109
X445.135Y-359.033
X445.137Y-362.037
X446.659Y-373.507
X447.037Y-362.037
X450.469Y-351.282
T2
X174.917Y-258.127
X174.917Y-260.667
X174.917Y-263.207
X174.917Y-265.748
X301.506Y-259.7
X301.506Y-274.2
X304.006Y-274.2
X306.506Y-259.7
X306.506Y-274.2
X312.801Y-255.778
X312.801Y-258.318
X312.801Y-260.858
X312.801Y-263.398
X312.801Y-265.938
X312.801Y-268.478
X312.801Y-271.018
X312.801Y-273.558
X312.801Y-276.098
X312.801Y-278.638
X312.801Y-281.178
X312.801Y-283.718
X312.801Y-286.258
X312.801Y-288.798
X312.801Y-291.338
X312.801Y-293.878
X312.801Y-296.418
X312.801Y-298.958
X312.801Y-301.498
X312.801Y-304.038
X316.609Y-300.227
X319.149Y-300.227
X321.689Y-300.227
X324.229Y-300.227
X328.041Y-255.778
X328.041Y-258.318
X328.041Y-260.858
X328.041Y-263.398
X328.041Y-265.938
X328.041Y-268.478
X328.041Y-271.018
X328.041Y-273.558
X328.041Y-276.098
X328.041Y-278.638
X328.041Y-281.178
X328.041Y-283.718
X328.041Y-286.258
X328.041Y-288.798
X328.041Y-291.338
X328.041Y-293.878
X328.041Y-296.418
X328.041Y-298.958
X328.041Y-301.498
X328.041Y-304.038
T0
M30
