G04 #@! TF.GenerationSoftware,KiCad,Pcbnew,(6.0.1-0)*
G04 #@! TF.CreationDate,2022-06-21T10:21:49-07:00*
G04 #@! TF.ProjectId,adelheid-xt,6164656c-6865-4696-942d-78742e6b6963,rev?*
G04 #@! TF.SameCoordinates,Original*
G04 #@! TF.FileFunction,Soldermask,Bot*
G04 #@! TF.FilePolarity,Negative*
%FSLAX46Y46*%
G04 Gerber Fmt 4.6, Leading zero omitted, Abs format (unit mm)*
G04 Created by KiCad (PCBNEW (6.0.1-0)) date 2022-06-21 10:21:49*
%MOMM*%
%LPD*%
G01*
G04 APERTURE LIST*
G04 Aperture macros list*
%AMRotRect*
0 Rectangle, with rotation*
0 The origin of the aperture is its center*
0 $1 length*
0 $2 width*
0 $3 Rotation angle, in degrees counterclockwise*
0 Add horizontal line*
21,1,$1,$2,0,0,$3*%
G04 Aperture macros list end*
%ADD10C,0.500000*%
%ADD11C,1.750000*%
%ADD12C,3.000000*%
%ADD13C,3.987800*%
%ADD14R,2.550000X2.500000*%
%ADD15C,4.400000*%
%ADD16RotRect,2.550000X2.500000X12.000000*%
%ADD17C,3.048000*%
%ADD18RotRect,2.550000X2.500000X348.000000*%
%ADD19R,2.500000X2.550000*%
%ADD20R,1.700000X1.700000*%
%ADD21O,1.700000X1.700000*%
%ADD22R,2.000000X3.200000*%
%ADD23R,2.000000X2.000000*%
%ADD24C,2.000000*%
%ADD25RotRect,2.550000X2.500000X168.000000*%
%ADD26R,0.800000X1.900000*%
%ADD27C,1.700000*%
G04 APERTURE END LIST*
D10*
X289686821Y-336216761D02*
X288353488Y-338216761D01*
X288353488Y-336216761D02*
X289686821Y-338216761D01*
X287877297Y-336216761D02*
X286734440Y-336216761D01*
X287305869Y-338216761D02*
X287305869Y-336216761D01*
D11*
X367188750Y-338137500D03*
D12*
X368458750Y-335597500D03*
D11*
X377348750Y-338137500D03*
D13*
X372268750Y-338137500D03*
D12*
X374808750Y-333057500D03*
D14*
X365183750Y-335597500D03*
X378110750Y-333057500D03*
D12*
X298138850Y-259397500D03*
D13*
X301948850Y-261937500D03*
D11*
X307028850Y-261937500D03*
D12*
X304488850Y-256857500D03*
D11*
X296868850Y-261937500D03*
D14*
X294863850Y-259397500D03*
X307790850Y-256857500D03*
D15*
X481806250Y-328612500D03*
D11*
X344805000Y-238125000D03*
D12*
X335915000Y-235585000D03*
D13*
X339725000Y-238125000D03*
D11*
X334645000Y-238125000D03*
D12*
X342265000Y-233045000D03*
D14*
X332640000Y-235585000D03*
X345567000Y-233045000D03*
D12*
X468471250Y-235585000D03*
D13*
X472281250Y-238125000D03*
D12*
X474821250Y-233045000D03*
D11*
X467201250Y-238125000D03*
X477361250Y-238125000D03*
D14*
X465196250Y-235585000D03*
X478123250Y-233045000D03*
D11*
X107905550Y-260350000D03*
D12*
X99015550Y-257810000D03*
X105365550Y-255270000D03*
D11*
X97745550Y-260350000D03*
D13*
X102825550Y-260350000D03*
D14*
X95740550Y-257810000D03*
X108667550Y-255270000D03*
D12*
X56197500Y-305117500D03*
D11*
X63817500Y-300037500D03*
X53657500Y-300037500D03*
D13*
X58737500Y-300037500D03*
D12*
X62547500Y-302577500D03*
D14*
X65822500Y-302577500D03*
X52895500Y-305117500D03*
D12*
X265118512Y-339442349D03*
D13*
X269373350Y-341134700D03*
D11*
X274342340Y-340078509D03*
X264404360Y-342190891D03*
D12*
X270801654Y-335637614D03*
D16*
X261915079Y-340123259D03*
X274031497Y-334951090D03*
D13*
X491331250Y-238125000D03*
D11*
X486251250Y-238125000D03*
D12*
X493871250Y-233045000D03*
D11*
X496411250Y-238125000D03*
D12*
X487521250Y-235585000D03*
D14*
X484246250Y-235585000D03*
X497173250Y-233045000D03*
D15*
X19050000Y-251618750D03*
D11*
X448786250Y-338137500D03*
D13*
X443706250Y-338137500D03*
D11*
X438626250Y-338137500D03*
D17*
X431768250Y-345122500D03*
X455644250Y-345122500D03*
D13*
X431768250Y-329882500D03*
X455644250Y-329882500D03*
D12*
X446246250Y-333057500D03*
X439896250Y-335597500D03*
D14*
X436621250Y-335597500D03*
X449548250Y-333057500D03*
D11*
X165160440Y-273636291D03*
D12*
X156992803Y-269303462D03*
D13*
X160191450Y-272580100D03*
D12*
X163732136Y-268139206D03*
D11*
X155222460Y-271523909D03*
D18*
X153789370Y-268622551D03*
X166961980Y-268825730D03*
D13*
X141547850Y-268617700D03*
D12*
X138349203Y-265341062D03*
D11*
X146516840Y-269673891D03*
X136578860Y-267561509D03*
D12*
X145088536Y-264176806D03*
D18*
X135145770Y-264660151D03*
X148318380Y-264863330D03*
D17*
X342461850Y-254952500D03*
D12*
X334333850Y-264477500D03*
D11*
X325443850Y-261937500D03*
D13*
X318585850Y-270192500D03*
D12*
X327983850Y-267017500D03*
D17*
X318585850Y-254952500D03*
D13*
X330523850Y-261937500D03*
X342461850Y-270192500D03*
D11*
X335603850Y-261937500D03*
D14*
X337608850Y-264477500D03*
X324681850Y-267017500D03*
D12*
X150422536Y-284801606D03*
D13*
X146881850Y-289242500D03*
D12*
X143683203Y-285965862D03*
D11*
X141912860Y-288186309D03*
X151850840Y-290298691D03*
D18*
X140479770Y-285284951D03*
X153652380Y-285488130D03*
D12*
X376078750Y-240665000D03*
D13*
X372268750Y-238125000D03*
D11*
X377348750Y-238125000D03*
X367188750Y-238125000D03*
D12*
X369728750Y-243205000D03*
D14*
X379353750Y-240665000D03*
X366426750Y-243205000D03*
D15*
X234156250Y-233362500D03*
D12*
X169739236Y-308347406D03*
X162999903Y-309511662D03*
D11*
X171167540Y-313844491D03*
D13*
X166198550Y-312788300D03*
D11*
X161229560Y-311732109D03*
D18*
X159796470Y-308830751D03*
X172969080Y-309033930D03*
D12*
X140732436Y-238891106D03*
D11*
X132222760Y-242275809D03*
D13*
X137191750Y-243332000D03*
D12*
X133993103Y-240055362D03*
D11*
X142160740Y-244388191D03*
D18*
X130789670Y-239374451D03*
X143962280Y-239577630D03*
D11*
X111407460Y-340103909D03*
D13*
X116376450Y-341160100D03*
D12*
X113177803Y-337883462D03*
D11*
X121345440Y-342216291D03*
D12*
X119917136Y-336719206D03*
D18*
X109974370Y-337202551D03*
X123146980Y-337405730D03*
D13*
X483076250Y-278574500D03*
X483076250Y-302450500D03*
D17*
X498316250Y-278574500D03*
X498316250Y-302450500D03*
D13*
X491331250Y-290512500D03*
D11*
X491331250Y-295592500D03*
X491331250Y-285432500D03*
D12*
X486251250Y-287972500D03*
X488791250Y-294322500D03*
D19*
X488791250Y-297597500D03*
X486251250Y-284670500D03*
D12*
X468471250Y-278447500D03*
D11*
X467201250Y-280987500D03*
D13*
X472281250Y-280987500D03*
D12*
X474821250Y-275907500D03*
D11*
X477361250Y-280987500D03*
D14*
X465196250Y-278447500D03*
X478123250Y-275907500D03*
D11*
X386238750Y-338137500D03*
X396398750Y-338137500D03*
D12*
X387508750Y-335597500D03*
D13*
X391318750Y-338137500D03*
D12*
X393858750Y-333057500D03*
D14*
X384233750Y-335597500D03*
X397160750Y-333057500D03*
D13*
X307028850Y-236537500D03*
D12*
X303218850Y-233997500D03*
D11*
X312108850Y-236537500D03*
D12*
X309568850Y-231457500D03*
D11*
X301948850Y-236537500D03*
D14*
X299943850Y-233997500D03*
X312870850Y-231457500D03*
D13*
X434181250Y-261937500D03*
D12*
X430371250Y-259397500D03*
D11*
X429101250Y-261937500D03*
X439261250Y-261937500D03*
D12*
X436721250Y-256857500D03*
D14*
X427096250Y-259397500D03*
X440023250Y-256857500D03*
D12*
X474821250Y-294957500D03*
D13*
X472281250Y-300037500D03*
D11*
X477361250Y-300037500D03*
D12*
X468471250Y-297497500D03*
D11*
X467201250Y-300037500D03*
D14*
X465196250Y-297497500D03*
X478123250Y-294957500D03*
D11*
X201983860Y-277573291D03*
D12*
X202698012Y-274824749D03*
X208381154Y-271020014D03*
D13*
X206952850Y-276517100D03*
D11*
X211921840Y-275460909D03*
D16*
X199494579Y-275505659D03*
X211610997Y-270333490D03*
D12*
X279101550Y-257886200D03*
D13*
X282911550Y-260426200D03*
D12*
X285451550Y-255346200D03*
D11*
X277831550Y-260426200D03*
X287991550Y-260426200D03*
D14*
X275826550Y-257886200D03*
X288753550Y-255346200D03*
D11*
X232501960Y-329503591D03*
D12*
X238899254Y-322950314D03*
D13*
X237470950Y-328447400D03*
D12*
X233216112Y-326755049D03*
D11*
X242439940Y-327391209D03*
D16*
X230012679Y-327435959D03*
X242129097Y-322263790D03*
D12*
X335641950Y-278447500D03*
D11*
X334371950Y-280987500D03*
X344531950Y-280987500D03*
D13*
X339451950Y-280987500D03*
D12*
X341991950Y-275907500D03*
D14*
X332366950Y-278447500D03*
X345293950Y-275907500D03*
D11*
X477361250Y-319087500D03*
D13*
X472281250Y-319087500D03*
D12*
X468471250Y-316547500D03*
D11*
X467201250Y-319087500D03*
D12*
X474821250Y-314007500D03*
D14*
X465196250Y-316547500D03*
X478123250Y-314007500D03*
D13*
X296602150Y-280987500D03*
D12*
X299142150Y-275907500D03*
X292792150Y-278447500D03*
D11*
X301682150Y-280987500D03*
X291522150Y-280987500D03*
D14*
X289517150Y-278447500D03*
X302444150Y-275907500D03*
D12*
X493871250Y-256857500D03*
D11*
X496411250Y-261937500D03*
X486251250Y-261937500D03*
D13*
X491331250Y-261937500D03*
D12*
X487521250Y-259397500D03*
D14*
X484246250Y-259397500D03*
X497173250Y-256857500D03*
D12*
X450691250Y-343217500D03*
D13*
X453231250Y-338137500D03*
D12*
X457041250Y-340677500D03*
D11*
X458311250Y-338137500D03*
X448151250Y-338137500D03*
D14*
X460316250Y-340677500D03*
X447389250Y-343217500D03*
D12*
X5715000Y-316547500D03*
D13*
X9525000Y-319087500D03*
D11*
X14605000Y-319087500D03*
D12*
X12065000Y-314007500D03*
D11*
X4445000Y-319087500D03*
D14*
X2440000Y-316547500D03*
X15367000Y-314007500D03*
D15*
X281781250Y-337343750D03*
D17*
X324612000Y-293052500D03*
D13*
X336550000Y-300037500D03*
D17*
X348488000Y-293052500D03*
D13*
X324612000Y-308292500D03*
D12*
X339090000Y-294957500D03*
X332740000Y-297497500D03*
D13*
X348488000Y-308292500D03*
D11*
X331470000Y-300037500D03*
X341630000Y-300037500D03*
D14*
X329465000Y-297497500D03*
X342392000Y-294957500D03*
D13*
X266084050Y-302882300D03*
D12*
X261829212Y-301189949D03*
X267512354Y-297385214D03*
D11*
X271053040Y-301826109D03*
X261115060Y-303938491D03*
D16*
X258625779Y-301870859D03*
X270742197Y-296698690D03*
D13*
X491331250Y-300037500D03*
D12*
X493871250Y-296227500D03*
D11*
X491331250Y-294957500D03*
X491331250Y-305117500D03*
D12*
X496411250Y-302577500D03*
D19*
X493871250Y-292952500D03*
X496411250Y-305879500D03*
D13*
X9525000Y-338137500D03*
D12*
X12065000Y-333057500D03*
D11*
X14605000Y-338137500D03*
X4445000Y-338137500D03*
D12*
X5715000Y-335597500D03*
D14*
X2440000Y-335597500D03*
X15367000Y-333057500D03*
D11*
X249170940Y-267536109D03*
X239232960Y-269648491D03*
D12*
X239947112Y-266899949D03*
D13*
X244201950Y-268592300D03*
D12*
X245630254Y-263095214D03*
D16*
X236743679Y-267580859D03*
X248860097Y-262408690D03*
D11*
X23495000Y-280987500D03*
D13*
X28575000Y-280987500D03*
D11*
X33655000Y-280987500D03*
D12*
X31115000Y-275907500D03*
X24765000Y-278447500D03*
D14*
X21490000Y-278447500D03*
X34417000Y-275907500D03*
D11*
X429101250Y-319087500D03*
D12*
X430371250Y-316547500D03*
D13*
X434181250Y-319087500D03*
D12*
X436721250Y-314007500D03*
D11*
X439261250Y-319087500D03*
D14*
X427096250Y-316547500D03*
X440023250Y-314007500D03*
D12*
X125763503Y-301624962D03*
D11*
X133931140Y-305957791D03*
D12*
X132502836Y-300460706D03*
D13*
X128962150Y-304901600D03*
D11*
X123993160Y-303845409D03*
D18*
X122560070Y-300944051D03*
X135732680Y-301147230D03*
D12*
X262946812Y-237677249D03*
X268629954Y-233872514D03*
D13*
X267201650Y-239369600D03*
D11*
X272170640Y-238313409D03*
X262232660Y-240425791D03*
D16*
X259743379Y-238358159D03*
X271859797Y-233185990D03*
D11*
X84054950Y-280987500D03*
D13*
X89134950Y-280987500D03*
D12*
X91674950Y-275907500D03*
D11*
X94214950Y-280987500D03*
D12*
X85324950Y-278447500D03*
D14*
X82049950Y-278447500D03*
X94976950Y-275907500D03*
D13*
X453231250Y-319087500D03*
D12*
X455771250Y-314007500D03*
X449421250Y-316547500D03*
D11*
X458311250Y-319087500D03*
X448151250Y-319087500D03*
D14*
X446146250Y-316547500D03*
X459073250Y-314007500D03*
D12*
X468471250Y-259397500D03*
D11*
X467201250Y-261937500D03*
X477361250Y-261937500D03*
D13*
X472281250Y-261937500D03*
D12*
X474821250Y-256857500D03*
D14*
X465196250Y-259397500D03*
X478123250Y-256857500D03*
D12*
X5715000Y-297497500D03*
X12065000Y-294957500D03*
D13*
X9525000Y-300037500D03*
D11*
X14605000Y-300037500D03*
X4445000Y-300037500D03*
D14*
X2440000Y-297497500D03*
X15367000Y-294957500D03*
D20*
X210635750Y-229552500D03*
D21*
X210635750Y-232092500D03*
X210635750Y-234632500D03*
X210635750Y-237172500D03*
D12*
X406558750Y-335597500D03*
X412908750Y-333057500D03*
D11*
X415448750Y-338137500D03*
D13*
X410368750Y-338137500D03*
D11*
X405288750Y-338137500D03*
D14*
X403283750Y-335597500D03*
X416210750Y-333057500D03*
D12*
X221652654Y-287657014D03*
D11*
X215255360Y-294210291D03*
D13*
X220224350Y-293154100D03*
D12*
X215969512Y-291461749D03*
D11*
X225193340Y-292097909D03*
D16*
X212766079Y-292142659D03*
X224882497Y-286970490D03*
D13*
X453231250Y-280987500D03*
D11*
X448151250Y-280987500D03*
D12*
X455771250Y-275907500D03*
X449421250Y-278447500D03*
D11*
X458311250Y-280987500D03*
D14*
X446146250Y-278447500D03*
X459073250Y-275907500D03*
D11*
X142585960Y-307769709D03*
D12*
X144356303Y-305549262D03*
D11*
X152523940Y-309882091D03*
D12*
X151095636Y-304385006D03*
D13*
X147554950Y-308825900D03*
D18*
X141152870Y-304868351D03*
X154325480Y-305071530D03*
D11*
X429101250Y-338137500D03*
X439261250Y-338137500D03*
D12*
X437991250Y-340677500D03*
X431641250Y-343217500D03*
D13*
X434181250Y-338137500D03*
D14*
X441266250Y-340677500D03*
X428339250Y-343217500D03*
D11*
X224818460Y-350598291D03*
D17*
X219562587Y-358856511D03*
D11*
X234756440Y-348485909D03*
D12*
X225532612Y-347849749D03*
D13*
X216394013Y-343949541D03*
X229787450Y-349542100D03*
D12*
X231215754Y-344045014D03*
D13*
X239748265Y-338985442D03*
D17*
X242916839Y-353892411D03*
D16*
X222329179Y-348530659D03*
X234445597Y-343358490D03*
D11*
X205162070Y-335320458D03*
D12*
X195938242Y-334684298D03*
X201621384Y-330879563D03*
D13*
X200193080Y-336376649D03*
D11*
X195224090Y-337432840D03*
D16*
X192734809Y-335365208D03*
X204851227Y-330193039D03*
D15*
X481806250Y-251618750D03*
D12*
X289083750Y-294957500D03*
D11*
X291623750Y-300037500D03*
X281463750Y-300037500D03*
D12*
X282733750Y-297497500D03*
D13*
X286543750Y-300037500D03*
D14*
X279458750Y-297497500D03*
X292385750Y-294957500D03*
D12*
X152518036Y-343653406D03*
X145778703Y-344817662D03*
D13*
X139016535Y-337537642D03*
D11*
X153946340Y-349150491D03*
D13*
X162370787Y-342501741D03*
D11*
X144008360Y-347038109D03*
D17*
X135847961Y-352444611D03*
X159202213Y-357408711D03*
D13*
X148977350Y-348094300D03*
D18*
X142575270Y-344136751D03*
X155747880Y-344339930D03*
D12*
X156467736Y-325009806D03*
D13*
X152927050Y-329450700D03*
D11*
X147958060Y-328394509D03*
X157896040Y-330506891D03*
D12*
X149728403Y-326174062D03*
D18*
X146524970Y-325493151D03*
X159697580Y-325696330D03*
D13*
X64725550Y-261937500D03*
D11*
X59645550Y-261937500D03*
D12*
X67265550Y-256857500D03*
D11*
X69805550Y-261937500D03*
D12*
X60915550Y-259397500D03*
D14*
X57640550Y-259397500D03*
X70567550Y-256857500D03*
D11*
X491331250Y-324167500D03*
D13*
X491331250Y-319087500D03*
D11*
X491331250Y-314007500D03*
D12*
X496411250Y-321627500D03*
X493871250Y-315277500D03*
D19*
X493871250Y-312002500D03*
X496411250Y-324929500D03*
D11*
X320719450Y-280987500D03*
D12*
X318179450Y-275907500D03*
D13*
X315639450Y-280987500D03*
D12*
X311829450Y-278447500D03*
D11*
X310559450Y-280987500D03*
D14*
X308554450Y-278447500D03*
X321481450Y-275907500D03*
D11*
X211629740Y-251191209D03*
D12*
X202405912Y-250555049D03*
X208089054Y-246750314D03*
D13*
X206660750Y-252247400D03*
D11*
X201691760Y-253303591D03*
D16*
X199202479Y-251235959D03*
X211318897Y-246063790D03*
D11*
X92551250Y-236537500D03*
D13*
X97631250Y-236537500D03*
D12*
X93821250Y-233997500D03*
D11*
X102711250Y-236537500D03*
D12*
X100171250Y-231457500D03*
D14*
X90546250Y-233997500D03*
X103473250Y-231457500D03*
D12*
X173731403Y-350748562D03*
D13*
X176930050Y-354025200D03*
D11*
X171961060Y-352969009D03*
X181899040Y-355081391D03*
D12*
X180470736Y-349584306D03*
D18*
X170527970Y-350067651D03*
X183700580Y-350270830D03*
D15*
X377825000Y-327818750D03*
X100012500Y-337343750D03*
D12*
X168359303Y-330123762D03*
D13*
X171557950Y-333400400D03*
D11*
X166588960Y-332344209D03*
D12*
X175098636Y-328959506D03*
D11*
X176526940Y-334456591D03*
D18*
X165155870Y-329442851D03*
X178328480Y-329646030D03*
D13*
X491331250Y-338137500D03*
D12*
X493871250Y-334327500D03*
D11*
X491331250Y-343217500D03*
D12*
X496411250Y-340677500D03*
D11*
X491331250Y-333057500D03*
D19*
X493871250Y-331052500D03*
X496411250Y-343979500D03*
D11*
X439261250Y-238125000D03*
D13*
X434181250Y-238125000D03*
D12*
X436721250Y-233045000D03*
D11*
X429101250Y-238125000D03*
D12*
X430371250Y-235585000D03*
D14*
X427096250Y-235585000D03*
X440023250Y-233045000D03*
D13*
X256089150Y-324485000D03*
D11*
X261058140Y-323428809D03*
X251120160Y-325541191D03*
D12*
X251834312Y-322792649D03*
X257517454Y-318987914D03*
D16*
X248630879Y-323473559D03*
X260747297Y-318301390D03*
D11*
X252504460Y-286298191D03*
X262442440Y-284185809D03*
D12*
X258901754Y-279744914D03*
D13*
X257473450Y-285242000D03*
D12*
X253218612Y-283549649D03*
D16*
X250015179Y-284230559D03*
X262131597Y-279058390D03*
D11*
X78700218Y-261937500D03*
D12*
X79970218Y-259397500D03*
D13*
X83780218Y-261937500D03*
D11*
X88860218Y-261937500D03*
D12*
X86320218Y-256857500D03*
D14*
X76695218Y-259397500D03*
X89622218Y-256857500D03*
D11*
X448151250Y-238125000D03*
X458311250Y-238125000D03*
D12*
X455771250Y-233045000D03*
D13*
X453231250Y-238125000D03*
D12*
X449421250Y-235585000D03*
D14*
X446146250Y-235585000D03*
X459073250Y-233045000D03*
D12*
X227024754Y-267070314D03*
X221341612Y-270875049D03*
D11*
X220627460Y-273623591D03*
D13*
X225596450Y-272567400D03*
D11*
X230565440Y-271511209D03*
D16*
X218138179Y-271555959D03*
X230254597Y-266383790D03*
D17*
X30988000Y-231140000D03*
X7112000Y-231140000D03*
D11*
X13970000Y-238125000D03*
X24130000Y-238125000D03*
D13*
X19050000Y-238125000D03*
D12*
X16510000Y-243205000D03*
X22860000Y-240665000D03*
D13*
X30988000Y-246380000D03*
X7112000Y-246380000D03*
D14*
X26135000Y-240665000D03*
X13208000Y-243205000D03*
D13*
X128263650Y-285267400D03*
D11*
X123294660Y-284211209D03*
X133232640Y-286323591D03*
D12*
X131804336Y-280826506D03*
X125065003Y-281990762D03*
D18*
X121861570Y-281309851D03*
X135034180Y-281513030D03*
D22*
X334125000Y-238125000D03*
X345325000Y-238125000D03*
D23*
X337225000Y-245625000D03*
D24*
X342225000Y-245625000D03*
X339725000Y-245625000D03*
X342225000Y-231125000D03*
X337225000Y-231125000D03*
D12*
X113173436Y-276864106D03*
D11*
X104663760Y-280248809D03*
D13*
X109632750Y-281305000D03*
D12*
X106434103Y-278028362D03*
D11*
X114601740Y-282361191D03*
D18*
X103230670Y-277347451D03*
X116403280Y-277550630D03*
D11*
X129314460Y-324432109D03*
D13*
X134283450Y-325488300D03*
D11*
X139252440Y-326544491D03*
D12*
X131084803Y-322211662D03*
X137824136Y-321047406D03*
D18*
X127881370Y-321530751D03*
X141053980Y-321733930D03*
D13*
X276104350Y-281292300D03*
D12*
X277532654Y-275795214D03*
D11*
X271135360Y-282348491D03*
D12*
X271849512Y-279599949D03*
D11*
X281073340Y-280236109D03*
D16*
X268646079Y-280280859D03*
X280762497Y-275108690D03*
D13*
X136694975Y-337042342D03*
D11*
X151624780Y-348655191D03*
D12*
X143115104Y-352039894D03*
X149854437Y-350875638D03*
D13*
X160049227Y-342006441D03*
X146655790Y-347599000D03*
D17*
X156880653Y-356913411D03*
X133526401Y-351949311D03*
D11*
X141686800Y-346542809D03*
D25*
X153057870Y-351556549D03*
X139885260Y-351353370D03*
D13*
X210216750Y-314769500D03*
D12*
X211645054Y-309272414D03*
X205961912Y-313077149D03*
D11*
X215185740Y-313713309D03*
X205247760Y-315825691D03*
D16*
X202758479Y-313758059D03*
X214874897Y-308585890D03*
D12*
X31115000Y-256857500D03*
D11*
X33655000Y-261937500D03*
D12*
X24765000Y-259397500D03*
D11*
X23495000Y-261937500D03*
D13*
X28575000Y-261937500D03*
D14*
X21490000Y-259397500D03*
X34417000Y-256857500D03*
D15*
X19050000Y-328612500D03*
D12*
X248906854Y-301322214D03*
D11*
X252447540Y-305763109D03*
D12*
X243223712Y-305126949D03*
D11*
X242509560Y-307875491D03*
D13*
X247478550Y-306819300D03*
D16*
X240020279Y-305807859D03*
X252136697Y-300635690D03*
D12*
X496411250Y-283527500D03*
X493871250Y-277177500D03*
D11*
X491331250Y-286067500D03*
X491331250Y-275907500D03*
D13*
X491331250Y-280987500D03*
D19*
X493871250Y-273902500D03*
X496411250Y-286829500D03*
D12*
X31115000Y-233045000D03*
D11*
X23495000Y-238125000D03*
D12*
X24765000Y-235585000D03*
D13*
X28575000Y-238125000D03*
D11*
X33655000Y-238125000D03*
D14*
X21490000Y-235585000D03*
X34417000Y-233045000D03*
D12*
X66040000Y-294957500D03*
D11*
X58420000Y-300037500D03*
D13*
X63500000Y-300037500D03*
D12*
X59690000Y-297497500D03*
D11*
X68580000Y-300037500D03*
D14*
X56415000Y-297497500D03*
X69342000Y-294957500D03*
D12*
X24765000Y-316547500D03*
D13*
X28575000Y-319087500D03*
D11*
X33655000Y-319087500D03*
D12*
X31115000Y-314007500D03*
D11*
X23495000Y-319087500D03*
D14*
X21490000Y-316547500D03*
X34417000Y-314007500D03*
D11*
X52070000Y-338137500D03*
D12*
X59690000Y-333057500D03*
X53340000Y-335597500D03*
D11*
X62230000Y-338137500D03*
D13*
X57150000Y-338137500D03*
D14*
X50065000Y-335597500D03*
X62992000Y-333057500D03*
D11*
X230260640Y-247228809D03*
D13*
X225291650Y-248285000D03*
D11*
X220322660Y-249341191D03*
D12*
X226719954Y-242787914D03*
X221036812Y-246592649D03*
D16*
X217833379Y-247273559D03*
X229949797Y-242101390D03*
D12*
X224592812Y-309102049D03*
D13*
X228847650Y-310794400D03*
D11*
X233816640Y-309738209D03*
D12*
X230275954Y-305297314D03*
D11*
X223878660Y-311850591D03*
D16*
X221389379Y-309782959D03*
X233505797Y-304610790D03*
D13*
X89693750Y-300037500D03*
D11*
X94773750Y-300037500D03*
X84613750Y-300037500D03*
D12*
X92233750Y-294957500D03*
X85883750Y-297497500D03*
D14*
X82608750Y-297497500D03*
X95535750Y-294957500D03*
D12*
X474821250Y-333057500D03*
D11*
X467201250Y-338137500D03*
D13*
X472281250Y-338137500D03*
D12*
X468471250Y-335597500D03*
D11*
X477361250Y-338137500D03*
D14*
X465196250Y-335597500D03*
X478123250Y-333057500D03*
D11*
X257889260Y-265711491D03*
D13*
X262858250Y-264655300D03*
D12*
X258603412Y-262962949D03*
D11*
X267827240Y-263599109D03*
D12*
X264286554Y-259158214D03*
D16*
X255399979Y-263643859D03*
X267516397Y-258471690D03*
D15*
X151606250Y-233362500D03*
D11*
X491331250Y-323532500D03*
D12*
X488791250Y-332422500D03*
D11*
X491331250Y-333692500D03*
D13*
X483076250Y-316674500D03*
X491331250Y-328612500D03*
D17*
X498316250Y-316674500D03*
D13*
X483076250Y-340550500D03*
D12*
X486251250Y-326072500D03*
D17*
X498316250Y-340550500D03*
D19*
X488791250Y-335697500D03*
X486251250Y-322770500D03*
D11*
X83661250Y-236537500D03*
D13*
X78581250Y-236537500D03*
D12*
X81121250Y-231457500D03*
D11*
X73501250Y-236537500D03*
D12*
X74771250Y-233997500D03*
D14*
X71496250Y-233997500D03*
X84423250Y-231457500D03*
D11*
X269763760Y-321578791D03*
D13*
X274732750Y-320522600D03*
D12*
X270477912Y-318830249D03*
D11*
X279701740Y-319466409D03*
D12*
X276161054Y-315025514D03*
D16*
X267274479Y-319511159D03*
X279390897Y-314338990D03*
D11*
X415448750Y-238125000D03*
X405288750Y-238125000D03*
D12*
X406558750Y-235585000D03*
D13*
X410368750Y-238125000D03*
D12*
X412908750Y-233045000D03*
D14*
X403283750Y-235585000D03*
X416210750Y-233045000D03*
D12*
X97790000Y-314007500D03*
D11*
X90170000Y-319087500D03*
X100330000Y-319087500D03*
D13*
X95250000Y-319087500D03*
D12*
X91440000Y-316547500D03*
D14*
X88165000Y-316547500D03*
X101092000Y-314007500D03*
D12*
X50958750Y-235585000D03*
X57308750Y-233045000D03*
D11*
X59848750Y-238125000D03*
D13*
X54768750Y-238125000D03*
D11*
X49688750Y-238125000D03*
D14*
X47683750Y-235585000D03*
X60610750Y-233045000D03*
D11*
X415448750Y-280987500D03*
D12*
X406558750Y-278447500D03*
D13*
X410368750Y-280987500D03*
D11*
X405288750Y-280987500D03*
D12*
X412908750Y-275907500D03*
D14*
X403283750Y-278447500D03*
X416210750Y-275907500D03*
D12*
X339090000Y-335597500D03*
D11*
X347980000Y-338137500D03*
D12*
X345440000Y-333057500D03*
D13*
X342900000Y-338137500D03*
D11*
X337820000Y-338137500D03*
D14*
X335815000Y-335597500D03*
X348742000Y-333057500D03*
D11*
X405288750Y-261937500D03*
D13*
X410368750Y-261937500D03*
D11*
X415448750Y-261937500D03*
D12*
X406558750Y-259397500D03*
X412908750Y-256857500D03*
D14*
X403283750Y-259397500D03*
X416210750Y-256857500D03*
D11*
X196637160Y-298185391D03*
D12*
X197351312Y-295436849D03*
X203034454Y-291632114D03*
D11*
X206575140Y-296073009D03*
D13*
X201606150Y-297129200D03*
D16*
X194147879Y-296117759D03*
X206264297Y-290945590D03*
D12*
X5715000Y-278447500D03*
D11*
X14605000Y-280987500D03*
D12*
X12065000Y-275907500D03*
D11*
X4445000Y-280987500D03*
D13*
X9525000Y-280987500D03*
D14*
X2440000Y-278447500D03*
X15367000Y-275907500D03*
D12*
X244315912Y-241639649D03*
D11*
X243601760Y-244388191D03*
D13*
X248570750Y-243332000D03*
D12*
X249999054Y-237834914D03*
D11*
X253539740Y-242275809D03*
D16*
X241112479Y-242320559D03*
X253228897Y-237148390D03*
D12*
X61512450Y-278434800D03*
X67862450Y-275894800D03*
D11*
X70402450Y-280974800D03*
D13*
X65322450Y-280974800D03*
D11*
X60242450Y-280974800D03*
D14*
X58237450Y-278434800D03*
X71164450Y-275894800D03*
D11*
X113604560Y-238326109D03*
D12*
X115374903Y-236105662D03*
X122114236Y-234941406D03*
D13*
X118573550Y-239382300D03*
D11*
X123542540Y-240438491D03*
D18*
X112171470Y-235424751D03*
X125344080Y-235627930D03*
D11*
X213858360Y-333478691D03*
D13*
X218827350Y-332422500D03*
D12*
X220255654Y-326925414D03*
D11*
X223796340Y-331366309D03*
D12*
X214572512Y-330730149D03*
D16*
X211369079Y-331411059D03*
X223485497Y-326238890D03*
D11*
X243811540Y-288148209D03*
D13*
X238842550Y-289204400D03*
D12*
X234587712Y-287512049D03*
X240270854Y-283707314D03*
D11*
X233873560Y-290260591D03*
D16*
X231384279Y-288192959D03*
X243500697Y-283020790D03*
D12*
X393858750Y-314007500D03*
D11*
X396398750Y-319087500D03*
D12*
X387508750Y-316547500D03*
D13*
X391318750Y-319087500D03*
D11*
X386238750Y-319087500D03*
D14*
X384233750Y-316547500D03*
X397160750Y-314007500D03*
D12*
X308171850Y-294957500D03*
D11*
X310711850Y-300037500D03*
D13*
X305631850Y-300037500D03*
D11*
X300551850Y-300037500D03*
D12*
X301821850Y-297497500D03*
D14*
X298546850Y-297497500D03*
X311473850Y-294957500D03*
D13*
X160458150Y-248297700D03*
D11*
X155489160Y-247241509D03*
D12*
X157259503Y-245021062D03*
D11*
X165427140Y-249353891D03*
D12*
X163998836Y-243856806D03*
D18*
X154056070Y-244340151D03*
X167228680Y-244543330D03*
D12*
X31115000Y-294957500D03*
D11*
X33655000Y-300037500D03*
X23495000Y-300037500D03*
D12*
X24765000Y-297497500D03*
D13*
X28575000Y-300037500D03*
D14*
X21490000Y-297497500D03*
X34417000Y-294957500D03*
D11*
X439261250Y-300037500D03*
D12*
X436721250Y-294957500D03*
D13*
X434181250Y-300037500D03*
D12*
X430371250Y-297497500D03*
D11*
X429101250Y-300037500D03*
D14*
X427096250Y-297497500D03*
X440023250Y-294957500D03*
D11*
X183804040Y-277573291D03*
D12*
X175636403Y-273240462D03*
X182375736Y-272076206D03*
D13*
X178835050Y-276517100D03*
D11*
X173866060Y-275460909D03*
D18*
X172432970Y-272559551D03*
X185605580Y-272762730D03*
D12*
X119718303Y-261365962D03*
D11*
X117947960Y-263586409D03*
D13*
X122916950Y-264642600D03*
D11*
X127885940Y-265698791D03*
D12*
X126457636Y-260201706D03*
D18*
X116514870Y-260685051D03*
X129687480Y-260888230D03*
D12*
X113871936Y-296498306D03*
D13*
X110331250Y-300939200D03*
D12*
X107132603Y-297662562D03*
D11*
X115300240Y-301995391D03*
X105362260Y-299883009D03*
D18*
X103929170Y-296981651D03*
X117101780Y-297184830D03*
D12*
X430371250Y-278447500D03*
D11*
X439261250Y-280987500D03*
D12*
X436721250Y-275907500D03*
D13*
X434181250Y-280987500D03*
D11*
X429101250Y-280987500D03*
D14*
X427096250Y-278447500D03*
X440023250Y-275907500D03*
D12*
X317188850Y-259397500D03*
D11*
X315918850Y-261937500D03*
X326078850Y-261937500D03*
D13*
X320998850Y-261937500D03*
D12*
X323538850Y-256857500D03*
D14*
X313913850Y-259397500D03*
X326840850Y-256857500D03*
D11*
X4445000Y-261937500D03*
X14605000Y-261937500D03*
D12*
X12065000Y-256857500D03*
X5715000Y-259397500D03*
D13*
X9525000Y-261937500D03*
D14*
X2440000Y-259397500D03*
X15367000Y-256857500D03*
D13*
X295275000Y-319087500D03*
D11*
X300355000Y-319087500D03*
X290195000Y-319087500D03*
D12*
X297815000Y-314007500D03*
X291465000Y-316547500D03*
D14*
X288190000Y-316547500D03*
X301117000Y-314007500D03*
D15*
X192881250Y-355600000D03*
D11*
X396398750Y-238125000D03*
D12*
X387508750Y-235585000D03*
D11*
X386238750Y-238125000D03*
D12*
X393858750Y-233045000D03*
D13*
X391318750Y-238125000D03*
D14*
X384233750Y-235585000D03*
X397160750Y-233045000D03*
D11*
X448151250Y-261937500D03*
D13*
X453231250Y-261937500D03*
D11*
X458311250Y-261937500D03*
D12*
X449421250Y-259397500D03*
X455771250Y-256857500D03*
D14*
X446146250Y-259397500D03*
X459073250Y-256857500D03*
D11*
X160556460Y-292097909D03*
D13*
X165525450Y-293154100D03*
D12*
X169066136Y-288713206D03*
D11*
X170494440Y-294210291D03*
D12*
X162326803Y-289877462D03*
D18*
X159123370Y-289196551D03*
X172295980Y-289399730D03*
D11*
X14605000Y-238125000D03*
D12*
X12065000Y-233045000D03*
D13*
X9525000Y-238125000D03*
D12*
X5715000Y-235585000D03*
D11*
X4445000Y-238125000D03*
D14*
X2440000Y-235585000D03*
X15367000Y-233045000D03*
D13*
X28575000Y-338137500D03*
D11*
X23495000Y-338137500D03*
X33655000Y-338137500D03*
D12*
X31115000Y-333057500D03*
X24765000Y-335597500D03*
D14*
X21490000Y-335597500D03*
X34417000Y-333057500D03*
D12*
X368458750Y-278447500D03*
X374808750Y-275907500D03*
D13*
X372268750Y-280987500D03*
D11*
X367188750Y-280987500D03*
X377348750Y-280987500D03*
D14*
X365183750Y-278447500D03*
X378110750Y-275907500D03*
D12*
X175877703Y-248983462D03*
X182617036Y-247819206D03*
D11*
X174107360Y-251203909D03*
D13*
X179076350Y-252260100D03*
D11*
X184045340Y-253316291D03*
D18*
X172674270Y-248302551D03*
X185846880Y-248505730D03*
D15*
X376237500Y-251618750D03*
D12*
X284156150Y-233997500D03*
D11*
X293046150Y-236537500D03*
D12*
X290506150Y-231457500D03*
D11*
X282886150Y-236537500D03*
D13*
X287966150Y-236537500D03*
D14*
X280881150Y-233997500D03*
X293808150Y-231457500D03*
D11*
X119008640Y-341715911D03*
X109070660Y-339603529D03*
D12*
X110498964Y-345100614D03*
D13*
X114039650Y-340659720D03*
D12*
X117238297Y-343936358D03*
D25*
X120441730Y-344617269D03*
X107269120Y-344414090D03*
D12*
X393858750Y-275907500D03*
X387508750Y-278447500D03*
D13*
X391318750Y-280987500D03*
D11*
X396398750Y-280987500D03*
X386238750Y-280987500D03*
D14*
X384233750Y-278447500D03*
X397160750Y-275907500D03*
D12*
X393858750Y-256857500D03*
D11*
X396398750Y-261937500D03*
D13*
X391318750Y-261937500D03*
D12*
X387508750Y-259397500D03*
D11*
X386238750Y-261937500D03*
D14*
X384233750Y-259397500D03*
X397160750Y-256857500D03*
D11*
X110696260Y-320482409D03*
D12*
X119205936Y-317097706D03*
D11*
X120634240Y-322594791D03*
D13*
X115665250Y-321538600D03*
D12*
X112466603Y-318261962D03*
D18*
X109263170Y-317581051D03*
X122435780Y-317784230D03*
D12*
X60483750Y-316547500D03*
D17*
X52355750Y-312102500D03*
D11*
X69373750Y-319087500D03*
D13*
X76231750Y-327342500D03*
X64293750Y-319087500D03*
X52355750Y-327342500D03*
D11*
X59213750Y-319087500D03*
D17*
X76231750Y-312102500D03*
D12*
X66833750Y-314007500D03*
D14*
X57208750Y-316547500D03*
X70135750Y-314007500D03*
D13*
X319055750Y-327342500D03*
D17*
X342931750Y-312102500D03*
D12*
X333533750Y-314007500D03*
D13*
X342931750Y-327342500D03*
D12*
X327183750Y-316547500D03*
D11*
X325913750Y-319087500D03*
D17*
X319055750Y-312102500D03*
D11*
X336073750Y-319087500D03*
D13*
X330993750Y-319087500D03*
D14*
X323908750Y-316547500D03*
X336835750Y-314007500D03*
D12*
X449421250Y-297497500D03*
D11*
X458311250Y-300037500D03*
D13*
X453231250Y-300037500D03*
D12*
X455771250Y-294957500D03*
D11*
X448151250Y-300037500D03*
D14*
X446146250Y-297497500D03*
X459073250Y-294957500D03*
D13*
X340036150Y-261937500D03*
D11*
X345116150Y-261937500D03*
D12*
X342576150Y-256857500D03*
D11*
X334956150Y-261937500D03*
D12*
X336226150Y-259397500D03*
D14*
X332951150Y-259397500D03*
X345878150Y-256857500D03*
D11*
X367188750Y-261937500D03*
X377348750Y-261937500D03*
D13*
X372268750Y-261937500D03*
D12*
X369728750Y-267017500D03*
X376078750Y-264477500D03*
D14*
X379353750Y-264477500D03*
X366426750Y-267017500D03*
D26*
X442756250Y-265200000D03*
X444656250Y-265200000D03*
X443706250Y-268200000D03*
X135575000Y-309650000D03*
X137475000Y-309650000D03*
X136525000Y-312650000D03*
X37150000Y-341400000D03*
X39050000Y-341400000D03*
X38100000Y-344400000D03*
X442756250Y-322350000D03*
X444656250Y-322350000D03*
X443706250Y-325350000D03*
X117318750Y-305681250D03*
X119218750Y-305681250D03*
X118268750Y-308681250D03*
X219712500Y-316000000D03*
X221612500Y-316000000D03*
X220662500Y-319000000D03*
X314168750Y-303300000D03*
X316068750Y-303300000D03*
X315118750Y-306300000D03*
X116525000Y-285837500D03*
X118425000Y-285837500D03*
X117475000Y-288837500D03*
X18100000Y-265200000D03*
X20000000Y-265200000D03*
X19050000Y-268200000D03*
X37150000Y-246150000D03*
X39050000Y-246150000D03*
X38100000Y-249150000D03*
X18100000Y-303300000D03*
X20000000Y-303300000D03*
X19050000Y-306300000D03*
X463393750Y-341400000D03*
X465293750Y-341400000D03*
X464343750Y-344400000D03*
X461806250Y-323937500D03*
X463706250Y-323937500D03*
X462756250Y-326937500D03*
X383225000Y-241387500D03*
X385125000Y-241387500D03*
X384175000Y-244387500D03*
X291150000Y-266875000D03*
X293050000Y-266875000D03*
X292100000Y-269875000D03*
X209393750Y-337431250D03*
X211293750Y-337431250D03*
X210343750Y-340431250D03*
X110968750Y-262818750D03*
X112868750Y-262818750D03*
X111918750Y-265818750D03*
X461806250Y-242975000D03*
X463706250Y-242975000D03*
X462756250Y-245975000D03*
X461806250Y-285837500D03*
X463706250Y-285837500D03*
X462756250Y-288837500D03*
X37150000Y-266787500D03*
X39050000Y-266787500D03*
X38100000Y-269787500D03*
X106206250Y-239800000D03*
X108106250Y-239800000D03*
X107156250Y-242800000D03*
X134781250Y-289806250D03*
X136681250Y-289806250D03*
X135731250Y-292806250D03*
X399893750Y-242975000D03*
X401793750Y-242975000D03*
X400843750Y-245975000D03*
X141131250Y-330287500D03*
X143031250Y-330287500D03*
X142081250Y-333287500D03*
X234793750Y-249325000D03*
X236693750Y-249325000D03*
X235743750Y-252325000D03*
X383256750Y-324128000D03*
X385156750Y-324128000D03*
X384206750Y-327128000D03*
X295118750Y-304975000D03*
X297018750Y-304975000D03*
X296068750Y-307975000D03*
X284006250Y-321556250D03*
X285906250Y-321556250D03*
X284956250Y-324556250D03*
X442756250Y-241387500D03*
X444656250Y-241387500D03*
X443706250Y-244387500D03*
X399893750Y-285837500D03*
X401793750Y-285837500D03*
X400843750Y-288837500D03*
X216537500Y-277900000D03*
X218437500Y-277900000D03*
X217487500Y-280900000D03*
X315756250Y-239800000D03*
X317656250Y-239800000D03*
X316706250Y-242800000D03*
X237968750Y-312031250D03*
X239868750Y-312031250D03*
X238918750Y-315031250D03*
X37150000Y-323937500D03*
X39050000Y-323937500D03*
X38100000Y-326937500D03*
X285593750Y-285837500D03*
X287493750Y-285837500D03*
X286543750Y-288837500D03*
X461806250Y-266787500D03*
X463706250Y-266787500D03*
X462756250Y-269787500D03*
X216537500Y-253293750D03*
X218437500Y-253293750D03*
X217487500Y-256293750D03*
X380843750Y-341400000D03*
X382743750Y-341400000D03*
X381793750Y-344400000D03*
X19687500Y-244562500D03*
X21587500Y-244562500D03*
X20637500Y-247562500D03*
X383225000Y-265200000D03*
X385125000Y-265200000D03*
X384175000Y-268200000D03*
X18100000Y-320762500D03*
X20000000Y-320762500D03*
X19050000Y-323762500D03*
X125256250Y-243768750D03*
X127156250Y-243768750D03*
X126206250Y-246768750D03*
X480856250Y-333462500D03*
X482756250Y-333462500D03*
X481806250Y-336462500D03*
X230031250Y-294568750D03*
X231931250Y-294568750D03*
X230981250Y-297568750D03*
X399893750Y-266875000D03*
X401793750Y-266875000D03*
X400843750Y-269875000D03*
X18100000Y-284250000D03*
X20000000Y-284250000D03*
X19050000Y-287250000D03*
X442756250Y-303300000D03*
X444656250Y-303300000D03*
X443706250Y-306300000D03*
X296706250Y-241387500D03*
X298606250Y-241387500D03*
X297656250Y-244387500D03*
X244318750Y-344575000D03*
X246218750Y-344575000D03*
X245268750Y-347575000D03*
X228443750Y-333462500D03*
X230343750Y-333462500D03*
X229393750Y-336462500D03*
X164150000Y-352512500D03*
X166050000Y-352512500D03*
X165100000Y-355512500D03*
X122081250Y-326318750D03*
X123981250Y-326318750D03*
X123031250Y-329318750D03*
X310200000Y-265200000D03*
X312100000Y-265200000D03*
X311150000Y-268200000D03*
X210981250Y-298537500D03*
X212881250Y-298537500D03*
X211931250Y-301537500D03*
X130018750Y-269168750D03*
X131918750Y-269168750D03*
X130968750Y-272168750D03*
X37150000Y-304887500D03*
X39050000Y-304887500D03*
X38100000Y-307887500D03*
X442756250Y-284250000D03*
X444656250Y-284250000D03*
X443706250Y-287250000D03*
D20*
X363759750Y-227203000D03*
D27*
X363759750Y-229743000D03*
X363759750Y-232283000D03*
X363759750Y-234823000D03*
X363759750Y-237363000D03*
X363759750Y-239903000D03*
X363759750Y-242443000D03*
X363759750Y-244983000D03*
X363759750Y-247523000D03*
X363759750Y-250063000D03*
X363759750Y-252603000D03*
X363759750Y-255143000D03*
X363759750Y-257683000D03*
X363759750Y-260223000D03*
X363759750Y-262763000D03*
X363759750Y-265303000D03*
X363759750Y-267843000D03*
X363759750Y-270383000D03*
X363759750Y-272923000D03*
X363759750Y-275463000D03*
X348519750Y-275463000D03*
X348519750Y-272923000D03*
X348519750Y-270383000D03*
X348519750Y-267843000D03*
X348519750Y-265303000D03*
X348519750Y-262763000D03*
X348519750Y-260223000D03*
X348519750Y-257683000D03*
X348519750Y-255143000D03*
X348519750Y-252603000D03*
X348519750Y-250063000D03*
X348519750Y-247523000D03*
X348519750Y-244983000D03*
X348519750Y-242443000D03*
X348519750Y-239903000D03*
X348519750Y-237363000D03*
X348519750Y-234823000D03*
X348519750Y-232283000D03*
X348519750Y-229743000D03*
X348519750Y-227203000D03*
X352327750Y-271652000D03*
X354867750Y-271652000D03*
X357407750Y-271652000D03*
X359947750Y-271652000D03*
D26*
X234793750Y-273931250D03*
X236693750Y-273931250D03*
X235743750Y-276931250D03*
X18100000Y-339812500D03*
X20000000Y-339812500D03*
X19050000Y-342812500D03*
X461806250Y-304887500D03*
X463706250Y-304887500D03*
X462756250Y-307887500D03*
X399893750Y-341400000D03*
X401793750Y-341400000D03*
X400843750Y-344400000D03*
X383225000Y-284250000D03*
X385125000Y-284250000D03*
X384175000Y-287250000D03*
X37150000Y-285837500D03*
X39050000Y-285837500D03*
X38100000Y-288837500D03*
X304643750Y-284250000D03*
X306543750Y-284250000D03*
X305593750Y-287250000D03*
M02*
