%FSLAX45Y45*%
G04 Gerber Fmt 4.5, Leading zero omitted, Abs format (unit mm)*
G04 Created by KiCad (PCBNEW (6.0.1-0)) date 2023-03-21 19:08:18*
%MOMM*%
%LPD*%
G01*
G04 APERTURE LIST*
%TA.AperFunction,Profile*%
%ADD10C,0.100000*%
%TD*%
%ADD11C,0.200000*%
%ADD12C,0.040000*%
%ADD13C,0.100000*%
%ADD14C,0.220000*%
G04 APERTURE END LIST*
D10*
X208750Y-34716250D02*
X10140000Y-34716250D01*
X36779200Y-22592500D02*
G75*
G03*
X36699825Y-22513125I-79375J0D01*
G01*
X50035625Y-22989375D02*
G75*
G03*
X49797500Y-22751250I-238125J0D01*
G01*
X34448750Y-22671875D02*
X34448750Y-22592500D01*
X18620000Y-36525000D02*
X19950000Y-36525000D01*
X10140000Y-34716250D02*
X18620000Y-36525000D01*
X50035625Y-22989375D02*
X50035625Y-34557500D01*
X49876875Y-34716250D02*
X28470000Y-34716250D01*
X36779200Y-22671875D02*
G75*
G03*
X36858575Y-22751250I79375J0D01*
G01*
X208750Y-22751250D02*
X34369375Y-22751250D01*
X49876875Y-34716250D02*
G75*
G03*
X50035625Y-34557500I0J158750D01*
G01*
X34528125Y-22513125D02*
G75*
G03*
X34448750Y-22592500I0J-79375D01*
G01*
X208750Y-22751250D02*
G75*
G03*
X50000Y-22910000I0J-158750D01*
G01*
X34528125Y-22513125D02*
X36699825Y-22513125D01*
X50000Y-34557500D02*
G75*
G03*
X208750Y-34716250I158750J0D01*
G01*
X28470000Y-34716250D02*
X19950000Y-36525000D01*
X34369375Y-22751250D02*
G75*
G03*
X34448750Y-22671875I0J79375D01*
G01*
X36779200Y-22592500D02*
X36779200Y-22671875D01*
X36858575Y-22751250D02*
X49797500Y-22751250D01*
X50000Y-34557500D02*
X50000Y-22910000D01*
D11*
D12*
X227650Y-23538500D02*
X267650Y-23578500D01*
X267650Y-23538500D02*
X227650Y-23578500D01*
X227650Y-25926100D02*
X267650Y-25966100D01*
X267650Y-25926100D02*
X227650Y-25966100D01*
X227650Y-27818400D02*
X267650Y-27858400D01*
X267650Y-27818400D02*
X227650Y-27858400D01*
X227650Y-29736100D02*
X267650Y-29776100D01*
X267650Y-29736100D02*
X227650Y-29776100D01*
X227650Y-31641100D02*
X267650Y-31681100D01*
X267650Y-31641100D02*
X227650Y-31681100D01*
X227650Y-33533400D02*
X267650Y-33573400D01*
X267650Y-33533400D02*
X227650Y-33573400D01*
X480000Y-34330000D02*
X520000Y-34370000D01*
X520000Y-34330000D02*
X480000Y-34370000D01*
X3412810Y-23284500D02*
X3452810Y-23324500D01*
X3452810Y-23284500D02*
X3412810Y-23324500D01*
X3417890Y-25667020D02*
X3457890Y-25707020D01*
X3457890Y-25667020D02*
X3417890Y-25707020D01*
X3417890Y-27572020D02*
X3457890Y-27612020D01*
X3457890Y-27572020D02*
X3417890Y-27612020D01*
X3417890Y-29477020D02*
X3457890Y-29517020D01*
X3457890Y-29477020D02*
X3417890Y-29517020D01*
X3422970Y-31382020D02*
X3462970Y-31422020D01*
X3462970Y-31382020D02*
X3422970Y-31422020D01*
X3422970Y-33287020D02*
X3462970Y-33327020D01*
X3462970Y-33287020D02*
X3422970Y-33327020D01*
X3692210Y-26657620D02*
X3732210Y-26697620D01*
X3732210Y-26657620D02*
X3692210Y-26697620D01*
X3697290Y-24595140D02*
X3737290Y-24635140D01*
X3737290Y-24595140D02*
X3697290Y-24635140D01*
X3697290Y-28567700D02*
X3737290Y-28607700D01*
X3737290Y-28567700D02*
X3697290Y-28607700D01*
X3697290Y-30467620D02*
X3737290Y-30507620D01*
X3737290Y-30467620D02*
X3697290Y-30507620D01*
X3697290Y-32382780D02*
X3737290Y-32422780D01*
X3737290Y-32382780D02*
X3697290Y-32422780D01*
X3697290Y-34123950D02*
X3737290Y-34163950D01*
X3737290Y-34123950D02*
X3697290Y-34163950D01*
X4123375Y-23906800D02*
X4163375Y-23946800D01*
X4163375Y-23906800D02*
X4123375Y-23946800D01*
X4180000Y-22980000D02*
X4220000Y-23020000D01*
X4220000Y-22980000D02*
X4180000Y-23020000D01*
X4745675Y-23538500D02*
X4785675Y-23578500D01*
X4785675Y-23538500D02*
X4745675Y-23578500D01*
X4986975Y-33546100D02*
X5026975Y-33586100D01*
X5026975Y-33546100D02*
X4986975Y-33586100D01*
X5621975Y-29736100D02*
X5661975Y-29776100D01*
X5661975Y-29736100D02*
X5621975Y-29776100D01*
X5698175Y-31641100D02*
X5738175Y-31681100D01*
X5738175Y-31641100D02*
X5698175Y-31681100D01*
X5748975Y-25926100D02*
X5788975Y-25966100D01*
X5788975Y-25926100D02*
X5748975Y-25966100D01*
X5799775Y-27818400D02*
X5839775Y-27858400D01*
X5839775Y-27818400D02*
X5799775Y-27858400D01*
X6558837Y-30241162D02*
X6598837Y-30281162D01*
X6598837Y-30241162D02*
X6558837Y-30281162D01*
X6663375Y-23805200D02*
X6703375Y-23845200D01*
X6703375Y-23805200D02*
X6663375Y-23845200D01*
X7035402Y-30028200D02*
X7075402Y-30068200D01*
X7075402Y-30028200D02*
X7035402Y-30068200D01*
X7971475Y-31742700D02*
X8011475Y-31782700D01*
X8011475Y-31742700D02*
X7971475Y-31782700D01*
X8799913Y-31631337D02*
X8839913Y-31671337D01*
X8839913Y-31631337D02*
X8799913Y-31671337D01*
X9038275Y-23373400D02*
X9078275Y-23413400D01*
X9078275Y-23373400D02*
X9038275Y-23413400D01*
X9558975Y-25761000D02*
X9598975Y-25801000D01*
X9598975Y-25761000D02*
X9558975Y-25801000D01*
X10295575Y-27716800D02*
X10335575Y-27756800D01*
X10335575Y-27716800D02*
X10295575Y-27756800D01*
X10371775Y-29672600D02*
X10411775Y-29712600D01*
X10411775Y-29672600D02*
X10371775Y-29712600D01*
X10917875Y-31742700D02*
X10957875Y-31782700D01*
X10957875Y-31742700D02*
X10917875Y-31782700D01*
X10980284Y-33697409D02*
X11020284Y-33737409D01*
X11020284Y-33697409D02*
X10980284Y-33737409D01*
X12505375Y-24364000D02*
X12545375Y-24404000D01*
X12545375Y-24364000D02*
X12505375Y-24404000D01*
X12518075Y-23551200D02*
X12558075Y-23591200D01*
X12558075Y-23551200D02*
X12518075Y-23591200D01*
X12680000Y-34930000D02*
X12720000Y-34970000D01*
X12720000Y-34930000D02*
X12680000Y-34970000D01*
X12768137Y-32133075D02*
X12808137Y-32173075D01*
X12808137Y-32133075D02*
X12768137Y-32173075D01*
X12949875Y-26065800D02*
X12989875Y-26105800D01*
X12989875Y-26065800D02*
X12949875Y-26105800D01*
X12987975Y-26891300D02*
X13027975Y-26931300D01*
X13027975Y-26891300D02*
X12987975Y-26931300D01*
X13051475Y-23919500D02*
X13091475Y-23959500D01*
X13091475Y-23919500D02*
X13051475Y-23959500D01*
X13457875Y-28961400D02*
X13497875Y-29001400D01*
X13497875Y-28961400D02*
X13457875Y-29001400D01*
X13483275Y-28135900D02*
X13523275Y-28175900D01*
X13523275Y-28135900D02*
X13483275Y-28175900D01*
X13495975Y-26446800D02*
X13535975Y-26486800D01*
X13535975Y-26446800D02*
X13495975Y-26486800D01*
X13534075Y-30942600D02*
X13574075Y-30982600D01*
X13574075Y-30942600D02*
X13534075Y-30982600D01*
X13559475Y-30104400D02*
X13599475Y-30144400D01*
X13599475Y-30104400D02*
X13559475Y-30144400D01*
X13965875Y-34485900D02*
X14005875Y-34525900D01*
X14005875Y-34485900D02*
X13965875Y-34525900D01*
X13965875Y-35120900D02*
X14005875Y-35160900D01*
X14005875Y-35120900D02*
X13965875Y-35160900D01*
X14029375Y-28516900D02*
X14069375Y-28556900D01*
X14069375Y-28516900D02*
X14029375Y-28556900D01*
X14080175Y-32161800D02*
X14120175Y-32201800D01*
X14120175Y-32161800D02*
X14080175Y-32201800D01*
X14092875Y-30460000D02*
X14132875Y-30500000D01*
X14132875Y-30460000D02*
X14092875Y-30500000D01*
X14092875Y-33012700D02*
X14132875Y-33052700D01*
X14132875Y-33012700D02*
X14092875Y-33052700D01*
X14245275Y-34397000D02*
X14285275Y-34437000D01*
X14285275Y-34397000D02*
X14245275Y-34437000D01*
X14638975Y-32530100D02*
X14678975Y-32570100D01*
X14678975Y-32530100D02*
X14638975Y-32570100D01*
X15362875Y-26840500D02*
X15402875Y-26880500D01*
X15402875Y-26840500D02*
X15362875Y-26880500D01*
X15388275Y-24414800D02*
X15428275Y-24454800D01*
X15428275Y-24414800D02*
X15388275Y-24454800D01*
X15388275Y-26586500D02*
X15428275Y-26626500D01*
X15428275Y-26586500D02*
X15388275Y-26626500D01*
X15896275Y-28897900D02*
X15936275Y-28937900D01*
X15936275Y-28897900D02*
X15896275Y-28937900D01*
X15959775Y-30866400D02*
X15999775Y-30906400D01*
X15999775Y-30866400D02*
X15959775Y-30906400D01*
X16505875Y-32923800D02*
X16545875Y-32963800D01*
X16545875Y-32923800D02*
X16505875Y-32963800D01*
X17039275Y-34981200D02*
X17079275Y-35021200D01*
X17079275Y-34981200D02*
X17039275Y-35021200D01*
X18461675Y-28796300D02*
X18501675Y-28836300D01*
X18501675Y-28796300D02*
X18461675Y-28836300D01*
X18474375Y-32920625D02*
X18514375Y-32960625D01*
X18514375Y-32920625D02*
X18474375Y-32960625D01*
X18553750Y-23316250D02*
X18593750Y-23356250D01*
X18593750Y-23316250D02*
X18553750Y-23356250D01*
X18553750Y-30777500D02*
X18593750Y-30817500D01*
X18593750Y-30777500D02*
X18553750Y-30817500D01*
X19030000Y-34666875D02*
X19070000Y-34706875D01*
X19070000Y-34666875D02*
X19030000Y-34706875D01*
X19223675Y-27500900D02*
X19263675Y-27540900D01*
X19263675Y-27500900D02*
X19223675Y-27540900D01*
X19249075Y-25100600D02*
X19289075Y-25140600D01*
X19289075Y-25100600D02*
X19249075Y-25140600D01*
X19268125Y-26253125D02*
X19308125Y-26293125D01*
X19308125Y-26253125D02*
X19268125Y-26293125D01*
X19268125Y-35857500D02*
X19308125Y-35897500D01*
X19308125Y-35857500D02*
X19268125Y-35897500D01*
X19316325Y-30002800D02*
X19356325Y-30042800D01*
X19356325Y-30002800D02*
X19316325Y-30042800D01*
X19316325Y-30102750D02*
X19356325Y-30142750D01*
X19356325Y-30102750D02*
X19316325Y-30142750D01*
X19388775Y-29596400D02*
X19428775Y-29636400D01*
X19428775Y-29596400D02*
X19388775Y-29636400D01*
X19896775Y-25100600D02*
X19936775Y-25140600D01*
X19936775Y-25100600D02*
X19896775Y-25140600D01*
X19922175Y-27526300D02*
X19962175Y-27566300D01*
X19962175Y-27526300D02*
X19922175Y-27566300D01*
X20252375Y-31361700D02*
X20292375Y-31401700D01*
X20292375Y-31361700D02*
X20252375Y-31401700D01*
X21115975Y-33127000D02*
X21155975Y-33167000D01*
X21155975Y-33127000D02*
X21115975Y-33167000D01*
X21268375Y-29837700D02*
X21308375Y-29877700D01*
X21308375Y-29837700D02*
X21268375Y-29877700D01*
X21827175Y-25316500D02*
X21867175Y-25356500D01*
X21867175Y-25316500D02*
X21827175Y-25356500D01*
X21827175Y-27780300D02*
X21867175Y-27820300D01*
X21867175Y-27780300D02*
X21827175Y-27820300D01*
X22144675Y-31577600D02*
X22184675Y-31617600D01*
X22184675Y-31577600D02*
X22144675Y-31617600D01*
X22208175Y-34828800D02*
X22248175Y-34868800D01*
X22248175Y-34828800D02*
X22208175Y-34868800D01*
X22335175Y-32606300D02*
X22375175Y-32646300D01*
X22375175Y-32606300D02*
X22335175Y-32646300D01*
X22462175Y-28682000D02*
X22502175Y-28722000D01*
X22502175Y-28682000D02*
X22462175Y-28722000D01*
X22830475Y-33330200D02*
X22870475Y-33370200D01*
X22870475Y-33330200D02*
X22830475Y-33370200D01*
X22982875Y-24186200D02*
X23022875Y-24226200D01*
X23022875Y-24186200D02*
X22982875Y-24226200D01*
X23008275Y-26624600D02*
X23048275Y-26664600D01*
X23048275Y-26624600D02*
X23008275Y-26664600D01*
X23118428Y-28799296D02*
X23158428Y-28839296D01*
X23158428Y-28799296D02*
X23118428Y-28839296D01*
X23325775Y-30434600D02*
X23365775Y-30474600D01*
X23365775Y-30434600D02*
X23325775Y-30474600D01*
X23648414Y-26744039D02*
X23688414Y-26784039D01*
X23688414Y-26744039D02*
X23648414Y-26784039D01*
X23982028Y-30560786D02*
X24022028Y-30600786D01*
X24022028Y-30560786D02*
X23982028Y-30600786D01*
X24089739Y-24213564D02*
X24129739Y-24253564D01*
X24129739Y-24213564D02*
X24089739Y-24253564D01*
X24843088Y-32327356D02*
X24883088Y-32367356D01*
X24883088Y-32327356D02*
X24843088Y-32367356D01*
X24976775Y-28415300D02*
X25016775Y-28455300D01*
X25016775Y-28415300D02*
X24976775Y-28455300D01*
X25522875Y-26345200D02*
X25562875Y-26385200D01*
X25562875Y-26345200D02*
X25522875Y-26385200D01*
X25840375Y-30180600D02*
X25880375Y-30220600D01*
X25880375Y-30180600D02*
X25840375Y-30220600D01*
X25954675Y-23817900D02*
X25994675Y-23857900D01*
X25994675Y-23817900D02*
X25954675Y-23857900D01*
X26183275Y-33990600D02*
X26223275Y-34030600D01*
X26223275Y-33990600D02*
X26183275Y-34030600D01*
X26703975Y-31933200D02*
X26743975Y-31973200D01*
X26743975Y-31933200D02*
X26703975Y-31973200D01*
X28735975Y-28567700D02*
X28775975Y-28607700D01*
X28775975Y-28567700D02*
X28735975Y-28607700D01*
X28799475Y-31641100D02*
X28839475Y-31681100D01*
X28839475Y-31641100D02*
X28799475Y-31681100D01*
X28926475Y-27831100D02*
X28966475Y-27871100D01*
X28966475Y-27831100D02*
X28926475Y-27871100D01*
X29282075Y-26675400D02*
X29322075Y-26715400D01*
X29322075Y-26675400D02*
X29282075Y-26715400D01*
X29459875Y-25926100D02*
X29499875Y-25966100D01*
X29499875Y-25926100D02*
X29459875Y-25966100D01*
X29688475Y-30485400D02*
X29728475Y-30525400D01*
X29728475Y-30485400D02*
X29688475Y-30525400D01*
X29828175Y-29736100D02*
X29868175Y-29776100D01*
X29868175Y-29736100D02*
X29828175Y-29776100D01*
X29840875Y-24122700D02*
X29880875Y-24162700D01*
X29880875Y-24122700D02*
X29840875Y-24162700D01*
X29980575Y-23386100D02*
X30020575Y-23426100D01*
X30020575Y-23386100D02*
X29980575Y-23426100D01*
X30234575Y-27577100D02*
X30274575Y-27617100D01*
X30274575Y-27577100D02*
X30234575Y-27617100D01*
X30755275Y-25672100D02*
X30795275Y-25712100D01*
X30795275Y-25672100D02*
X30755275Y-25712100D01*
X31136275Y-29482100D02*
X31176275Y-29522100D01*
X31176275Y-29482100D02*
X31136275Y-29522100D01*
X31263275Y-23132100D02*
X31303275Y-23172100D01*
X31303275Y-23132100D02*
X31263275Y-23172100D01*
X31793500Y-23030500D02*
X31833500Y-23070500D01*
X31833500Y-23030500D02*
X31793500Y-23070500D01*
X32024600Y-24922300D02*
X32064600Y-24962300D01*
X32064600Y-24922300D02*
X32024600Y-24962300D01*
X32368175Y-31641100D02*
X32408175Y-31681100D01*
X32408175Y-31641100D02*
X32368175Y-31681100D01*
X32430000Y-24780000D02*
X32470000Y-24820000D01*
X32470000Y-24780000D02*
X32430000Y-24820000D01*
X32580900Y-22903500D02*
X32620900Y-22943500D01*
X32620900Y-22903500D02*
X32580900Y-22943500D01*
X33219075Y-27831100D02*
X33259075Y-27871100D01*
X33259075Y-27831100D02*
X33219075Y-27871100D01*
X33244000Y-23538500D02*
X33284000Y-23578500D01*
X33284000Y-23538500D02*
X33244000Y-23578500D01*
X33561975Y-33546100D02*
X33601975Y-33586100D01*
X33601975Y-33546100D02*
X33561975Y-33586100D01*
X33739775Y-26434100D02*
X33779775Y-26474100D01*
X33779775Y-26434100D02*
X33739775Y-26474100D01*
X33828675Y-23551200D02*
X33868675Y-23591200D01*
X33868675Y-23551200D02*
X33828675Y-23591200D01*
X34244600Y-26557703D02*
X34284600Y-26597703D01*
X34284600Y-26557703D02*
X34244600Y-26597703D01*
X34536700Y-23284500D02*
X34576700Y-23324500D01*
X34576700Y-23284500D02*
X34536700Y-23324500D01*
X34567815Y-25665750D02*
X34607815Y-25705750D01*
X34607815Y-25665750D02*
X34567815Y-25705750D01*
X34981200Y-28567354D02*
X35021200Y-28607354D01*
X35021200Y-28567354D02*
X34981200Y-28607354D01*
X34981200Y-28682000D02*
X35021200Y-28722000D01*
X35021200Y-28682000D02*
X34981200Y-28722000D01*
X35095500Y-30434600D02*
X35135500Y-30474600D01*
X35135500Y-30434600D02*
X35095500Y-30474600D01*
X35108200Y-24414201D02*
X35148200Y-24454201D01*
X35148200Y-24414201D02*
X35108200Y-24454201D01*
X35135077Y-26901371D02*
X35175077Y-26941371D01*
X35175077Y-26901371D02*
X35135077Y-26941371D01*
X35171053Y-30327454D02*
X35211053Y-30367454D01*
X35211053Y-30327454D02*
X35171053Y-30367454D01*
X35185889Y-24477085D02*
X35225889Y-24517085D01*
X35225889Y-24477085D02*
X35185889Y-24517085D01*
X35505075Y-27869200D02*
X35545075Y-27909200D01*
X35545075Y-27869200D02*
X35505075Y-27909200D01*
X35565400Y-23576600D02*
X35605400Y-23616600D01*
X35605400Y-23576600D02*
X35565400Y-23616600D01*
X35581275Y-25900700D02*
X35621275Y-25940700D01*
X35621275Y-25900700D02*
X35581275Y-25940700D01*
X36149600Y-23729000D02*
X36189600Y-23769000D01*
X36189600Y-23729000D02*
X36149600Y-23769000D01*
X36200400Y-23957600D02*
X36240400Y-23997600D01*
X36240400Y-23957600D02*
X36200400Y-23997600D01*
X36423225Y-31641100D02*
X36463225Y-31681100D01*
X36463225Y-31641100D02*
X36423225Y-31681100D01*
X36495675Y-27831100D02*
X36535675Y-27871100D01*
X36535675Y-27831100D02*
X36495675Y-27871100D01*
X36495675Y-33533400D02*
X36535675Y-33573400D01*
X36535675Y-33533400D02*
X36495675Y-33573400D01*
X36851275Y-27170700D02*
X36891275Y-27210700D01*
X36891275Y-27170700D02*
X36851275Y-27210700D01*
X37918075Y-24046500D02*
X37958075Y-24086500D01*
X37958075Y-24046500D02*
X37918075Y-24086500D01*
X37918075Y-25646700D02*
X37958075Y-25686700D01*
X37958075Y-25646700D02*
X37918075Y-25686700D01*
X37918075Y-26421400D02*
X37958075Y-26461400D01*
X37958075Y-26421400D02*
X37918075Y-26461400D01*
X38011774Y-28560587D02*
X38051774Y-28600587D01*
X38051774Y-28560587D02*
X38011774Y-28600587D01*
X38059425Y-34492450D02*
X38099425Y-34532450D01*
X38099425Y-34492450D02*
X38059425Y-34532450D01*
X38102431Y-32689844D02*
X38142431Y-32729844D01*
X38142431Y-32689844D02*
X38102431Y-32729844D01*
X38115355Y-28522820D02*
X38155355Y-28562820D01*
X38155355Y-28522820D02*
X38115355Y-28562820D01*
X38159375Y-34420000D02*
X38199375Y-34460000D01*
X38199375Y-34420000D02*
X38159375Y-34460000D01*
X38199289Y-32645354D02*
X38239289Y-32685354D01*
X38239289Y-32645354D02*
X38199289Y-32685354D01*
X38253355Y-34125220D02*
X38293355Y-34165220D01*
X38293355Y-34125220D02*
X38253355Y-34165220D01*
X38400675Y-23538500D02*
X38440675Y-23578500D01*
X38440675Y-23538500D02*
X38400675Y-23578500D01*
X38400675Y-25913400D02*
X38440675Y-25953400D01*
X38440675Y-25913400D02*
X38400675Y-25953400D01*
X38400675Y-27818400D02*
X38440675Y-27858400D01*
X38440675Y-27818400D02*
X38400675Y-27858400D01*
X38400675Y-31641100D02*
X38440675Y-31681100D01*
X38440675Y-31641100D02*
X38400675Y-31681100D01*
X38400675Y-33533400D02*
X38440675Y-33573400D01*
X38440675Y-33533400D02*
X38400675Y-33573400D01*
X38489575Y-24122700D02*
X38529575Y-24162700D01*
X38529575Y-24122700D02*
X38489575Y-24162700D01*
X38489575Y-26497600D02*
X38529575Y-26537600D01*
X38529575Y-26497600D02*
X38489575Y-26537600D01*
X38489575Y-28402600D02*
X38529575Y-28442600D01*
X38529575Y-28402600D02*
X38489575Y-28442600D01*
X39696075Y-23284500D02*
X39736075Y-23324500D01*
X39736075Y-23284500D02*
X39696075Y-23324500D01*
X39696075Y-25672100D02*
X39736075Y-25712100D01*
X39736075Y-25672100D02*
X39696075Y-25712100D01*
X39696075Y-27577100D02*
X39736075Y-27617100D01*
X39736075Y-27577100D02*
X39696075Y-27617100D01*
X39696075Y-33292100D02*
X39736075Y-33332100D01*
X39736075Y-33292100D02*
X39696075Y-33332100D01*
X41030000Y-27180000D02*
X41070000Y-27220000D01*
X41070000Y-27180000D02*
X41030000Y-27220000D01*
X42274175Y-23856000D02*
X42314175Y-23896000D01*
X42314175Y-23856000D02*
X42274175Y-23896000D01*
X42689625Y-25919750D02*
X42729625Y-25959750D01*
X42729625Y-25919750D02*
X42689625Y-25959750D01*
X42689625Y-27824750D02*
X42729625Y-27864750D01*
X42729625Y-27824750D02*
X42689625Y-27864750D01*
X42689625Y-29729750D02*
X42729625Y-29769750D01*
X42729625Y-29729750D02*
X42689625Y-29769750D01*
X42689625Y-31634750D02*
X42729625Y-31674750D01*
X42729625Y-31634750D02*
X42689625Y-31674750D01*
X42691450Y-23536675D02*
X42731450Y-23576675D01*
X42731450Y-23536675D02*
X42691450Y-23576675D01*
X42813925Y-34301750D02*
X42853925Y-34341750D01*
X42853925Y-34301750D02*
X42813925Y-34341750D01*
X43556875Y-33304800D02*
X43596875Y-33344800D01*
X43596875Y-33304800D02*
X43556875Y-33344800D01*
X43645775Y-33533400D02*
X43685775Y-33573400D01*
X43685775Y-33533400D02*
X43645775Y-33573400D01*
X45296775Y-26713500D02*
X45336775Y-26753500D01*
X45336775Y-26713500D02*
X45296775Y-26753500D01*
X45309475Y-24325900D02*
X45349475Y-24365900D01*
X45349475Y-24325900D02*
X45309475Y-24365900D01*
X45309475Y-32403100D02*
X45349475Y-32443100D01*
X45349475Y-32403100D02*
X45309475Y-32443100D01*
X45322175Y-30498100D02*
X45362175Y-30538100D01*
X45362175Y-30498100D02*
X45322175Y-30538100D01*
X45347575Y-34117600D02*
X45387575Y-34157600D01*
X45387575Y-34117600D02*
X45347575Y-34157600D01*
X45779375Y-33393700D02*
X45819375Y-33433700D01*
X45819375Y-33393700D02*
X45779375Y-33433700D01*
X45880975Y-23284500D02*
X45920975Y-23324500D01*
X45920975Y-23284500D02*
X45880975Y-23324500D01*
X45880975Y-25672100D02*
X45920975Y-25712100D01*
X45920975Y-25672100D02*
X45880975Y-25712100D01*
X45880975Y-27577100D02*
X45920975Y-27617100D01*
X45920975Y-27577100D02*
X45880975Y-27617100D01*
X45880975Y-29482100D02*
X45920975Y-29522100D01*
X45920975Y-29482100D02*
X45880975Y-29522100D01*
X45880975Y-31387100D02*
X45920975Y-31427100D01*
X45920975Y-31387100D02*
X45880975Y-31427100D01*
X46160375Y-24275100D02*
X46200375Y-24315100D01*
X46200375Y-24275100D02*
X46160375Y-24315100D01*
X46160375Y-26662700D02*
X46200375Y-26702700D01*
X46200375Y-26662700D02*
X46160375Y-26702700D01*
X46160375Y-28567700D02*
X46200375Y-28607700D01*
X46200375Y-28567700D02*
X46160375Y-28607700D01*
X46160375Y-30472700D02*
X46200375Y-30512700D01*
X46200375Y-30472700D02*
X46160375Y-30512700D01*
X46160375Y-32377700D02*
X46200375Y-32417700D01*
X46200375Y-32377700D02*
X46160375Y-32417700D01*
X46490575Y-23538500D02*
X46530575Y-23578500D01*
X46530575Y-23538500D02*
X46490575Y-23578500D01*
X46490575Y-25913400D02*
X46530575Y-25953400D01*
X46530575Y-25913400D02*
X46490575Y-25953400D01*
X46490575Y-27831100D02*
X46530575Y-27871100D01*
X46530575Y-27831100D02*
X46490575Y-27871100D01*
X46490575Y-31641100D02*
X46530575Y-31681100D01*
X46530575Y-31641100D02*
X46490575Y-31681100D01*
X46503275Y-29723400D02*
X46543275Y-29763400D01*
X46543275Y-29723400D02*
X46503275Y-29763400D01*
X46503275Y-33533400D02*
X46543275Y-33573400D01*
X46543275Y-33533400D02*
X46503275Y-33573400D01*
X47900275Y-33025848D02*
X47940275Y-33065848D01*
X47940275Y-33025848D02*
X47900275Y-33065848D01*
X48065625Y-33326250D02*
X48105625Y-33366250D01*
X48105625Y-33326250D02*
X48065625Y-33366250D01*
X48217775Y-34473200D02*
X48257775Y-34513200D01*
X48257775Y-34473200D02*
X48217775Y-34513200D01*
X48255625Y-33326250D02*
X48295625Y-33366250D01*
X48295625Y-33326250D02*
X48255625Y-33366250D01*
X48598775Y-32250700D02*
X48638775Y-32290700D01*
X48638775Y-32250700D02*
X48598775Y-32290700D01*
D13*
X21113575Y-22955250D02*
G75*
G03*
X21113575Y-22955250I-50000J0D01*
G01*
X21113575Y-23209250D02*
G75*
G03*
X21113575Y-23209250I-50000J0D01*
G01*
X21113575Y-23463250D02*
G75*
G03*
X21113575Y-23463250I-50000J0D01*
G01*
X21113575Y-23717250D02*
G75*
G03*
X21113575Y-23717250I-50000J0D01*
G01*
X32121200Y-23202900D02*
G75*
G03*
X32121200Y-23202900I-50000J0D01*
G01*
X32901200Y-23202900D02*
G75*
G03*
X32901200Y-23202900I-50000J0D01*
G01*
X33772500Y-23112500D02*
G75*
G03*
X33772500Y-23112500I-50000J0D01*
G01*
X33772500Y-24562500D02*
G75*
G03*
X33772500Y-24562500I-50000J0D01*
G01*
X34022500Y-24562500D02*
G75*
G03*
X34022500Y-24562500I-50000J0D01*
G01*
X34272500Y-23112500D02*
G75*
G03*
X34272500Y-23112500I-50000J0D01*
G01*
X34272500Y-24562500D02*
G75*
G03*
X34272500Y-24562500I-50000J0D01*
G01*
X34901975Y-22720300D02*
G75*
G03*
X34901975Y-22720300I-50000J0D01*
G01*
X34901975Y-22974300D02*
G75*
G03*
X34901975Y-22974300I-50000J0D01*
G01*
X34901975Y-23228300D02*
G75*
G03*
X34901975Y-23228300I-50000J0D01*
G01*
X34901975Y-23482300D02*
G75*
G03*
X34901975Y-23482300I-50000J0D01*
G01*
X34901975Y-23736300D02*
G75*
G03*
X34901975Y-23736300I-50000J0D01*
G01*
X34901975Y-23990300D02*
G75*
G03*
X34901975Y-23990300I-50000J0D01*
G01*
X34901975Y-24244300D02*
G75*
G03*
X34901975Y-24244300I-50000J0D01*
G01*
X34901975Y-24498300D02*
G75*
G03*
X34901975Y-24498300I-50000J0D01*
G01*
X34901975Y-24752300D02*
G75*
G03*
X34901975Y-24752300I-50000J0D01*
G01*
X34901975Y-25006300D02*
G75*
G03*
X34901975Y-25006300I-50000J0D01*
G01*
X34901975Y-25260300D02*
G75*
G03*
X34901975Y-25260300I-50000J0D01*
G01*
X34901975Y-25514300D02*
G75*
G03*
X34901975Y-25514300I-50000J0D01*
G01*
X34901975Y-25768300D02*
G75*
G03*
X34901975Y-25768300I-50000J0D01*
G01*
X34901975Y-26022300D02*
G75*
G03*
X34901975Y-26022300I-50000J0D01*
G01*
X34901975Y-26276300D02*
G75*
G03*
X34901975Y-26276300I-50000J0D01*
G01*
X34901975Y-26530300D02*
G75*
G03*
X34901975Y-26530300I-50000J0D01*
G01*
X34901975Y-26784300D02*
G75*
G03*
X34901975Y-26784300I-50000J0D01*
G01*
X34901975Y-27038300D02*
G75*
G03*
X34901975Y-27038300I-50000J0D01*
G01*
X34901975Y-27292300D02*
G75*
G03*
X34901975Y-27292300I-50000J0D01*
G01*
X34901975Y-27546300D02*
G75*
G03*
X34901975Y-27546300I-50000J0D01*
G01*
X35283175Y-27165200D02*
G75*
G03*
X35283175Y-27165200I-50000J0D01*
G01*
X35537175Y-27165200D02*
G75*
G03*
X35537175Y-27165200I-50000J0D01*
G01*
X35791175Y-27165200D02*
G75*
G03*
X35791175Y-27165200I-50000J0D01*
G01*
X36045175Y-27165200D02*
G75*
G03*
X36045175Y-27165200I-50000J0D01*
G01*
X36425975Y-22720300D02*
G75*
G03*
X36425975Y-22720300I-50000J0D01*
G01*
X36425975Y-22974300D02*
G75*
G03*
X36425975Y-22974300I-50000J0D01*
G01*
X36425975Y-23228300D02*
G75*
G03*
X36425975Y-23228300I-50000J0D01*
G01*
X36425975Y-23482300D02*
G75*
G03*
X36425975Y-23482300I-50000J0D01*
G01*
X36425975Y-23736300D02*
G75*
G03*
X36425975Y-23736300I-50000J0D01*
G01*
X36425975Y-23990300D02*
G75*
G03*
X36425975Y-23990300I-50000J0D01*
G01*
X36425975Y-24244300D02*
G75*
G03*
X36425975Y-24244300I-50000J0D01*
G01*
X36425975Y-24498300D02*
G75*
G03*
X36425975Y-24498300I-50000J0D01*
G01*
X36425975Y-24752300D02*
G75*
G03*
X36425975Y-24752300I-50000J0D01*
G01*
X36425975Y-25006300D02*
G75*
G03*
X36425975Y-25006300I-50000J0D01*
G01*
X36425975Y-25260300D02*
G75*
G03*
X36425975Y-25260300I-50000J0D01*
G01*
X36425975Y-25514300D02*
G75*
G03*
X36425975Y-25514300I-50000J0D01*
G01*
X36425975Y-25768300D02*
G75*
G03*
X36425975Y-25768300I-50000J0D01*
G01*
X36425975Y-26022300D02*
G75*
G03*
X36425975Y-26022300I-50000J0D01*
G01*
X36425975Y-26276300D02*
G75*
G03*
X36425975Y-26276300I-50000J0D01*
G01*
X36425975Y-26530300D02*
G75*
G03*
X36425975Y-26530300I-50000J0D01*
G01*
X36425975Y-26784300D02*
G75*
G03*
X36425975Y-26784300I-50000J0D01*
G01*
X36425975Y-27038300D02*
G75*
G03*
X36425975Y-27038300I-50000J0D01*
G01*
X36425975Y-27292300D02*
G75*
G03*
X36425975Y-27292300I-50000J0D01*
G01*
X36425975Y-27546300D02*
G75*
G03*
X36425975Y-27546300I-50000J0D01*
G01*
D14*
X1905000Y-25051875D02*
X1905000Y-25271875D01*
X1795000Y-25161875D02*
X2015000Y-25161875D01*
X1905000Y-32751250D02*
X1905000Y-32971250D01*
X1795000Y-32861250D02*
X2015000Y-32861250D01*
X10001250Y-33624375D02*
X10001250Y-33844375D01*
X9891250Y-33734375D02*
X10111250Y-33734375D01*
X15160625Y-23226250D02*
X15160625Y-23446250D01*
X15050625Y-23336250D02*
X15270625Y-23336250D01*
X19288125Y-35450000D02*
X19288125Y-35670000D01*
X19178125Y-35560000D02*
X19398125Y-35560000D01*
X23415625Y-23226250D02*
X23415625Y-23446250D01*
X23305625Y-23336250D02*
X23525625Y-23336250D01*
X28178125Y-33624375D02*
X28178125Y-33844375D01*
X28068125Y-33734375D02*
X28288125Y-33734375D01*
X37623750Y-25051875D02*
X37623750Y-25271875D01*
X37513750Y-25161875D02*
X37733750Y-25161875D01*
X37782500Y-32671875D02*
X37782500Y-32891875D01*
X37672500Y-32781875D02*
X37892500Y-32781875D01*
X48180625Y-25051875D02*
X48180625Y-25271875D01*
X48070625Y-25161875D02*
X48290625Y-25161875D01*
X48180625Y-32751250D02*
X48180625Y-32971250D01*
X48070625Y-32861250D02*
X48290625Y-32861250D01*
D11*
X302619Y-36840476D02*
X302619Y-36640476D01*
X350238Y-36640476D01*
X378809Y-36650000D01*
X397857Y-36669048D01*
X407381Y-36688095D01*
X416905Y-36726190D01*
X416905Y-36754762D01*
X407381Y-36792857D01*
X397857Y-36811905D01*
X378809Y-36830952D01*
X350238Y-36840476D01*
X302619Y-36840476D01*
X502619Y-36840476D02*
X502619Y-36707143D01*
X502619Y-36745238D02*
X512143Y-36726190D01*
X521667Y-36716667D01*
X540714Y-36707143D01*
X559762Y-36707143D01*
X626429Y-36840476D02*
X626429Y-36707143D01*
X626429Y-36640476D02*
X616905Y-36650000D01*
X626429Y-36659524D01*
X635952Y-36650000D01*
X626429Y-36640476D01*
X626429Y-36659524D01*
X750238Y-36840476D02*
X731190Y-36830952D01*
X721667Y-36811905D01*
X721667Y-36640476D01*
X855000Y-36840476D02*
X835952Y-36830952D01*
X826428Y-36811905D01*
X826428Y-36640476D01*
X1083571Y-36840476D02*
X1083571Y-36640476D01*
X1150238Y-36783333D01*
X1216905Y-36640476D01*
X1216905Y-36840476D01*
X1397857Y-36840476D02*
X1397857Y-36735714D01*
X1388333Y-36716667D01*
X1369286Y-36707143D01*
X1331190Y-36707143D01*
X1312143Y-36716667D01*
X1397857Y-36830952D02*
X1378810Y-36840476D01*
X1331190Y-36840476D01*
X1312143Y-36830952D01*
X1302619Y-36811905D01*
X1302619Y-36792857D01*
X1312143Y-36773810D01*
X1331190Y-36764286D01*
X1378810Y-36764286D01*
X1397857Y-36754762D01*
X1493095Y-36707143D02*
X1493095Y-36907143D01*
X1493095Y-36716667D02*
X1512143Y-36707143D01*
X1550238Y-36707143D01*
X1569286Y-36716667D01*
X1578809Y-36726190D01*
X1588333Y-36745238D01*
X1588333Y-36802381D01*
X1578809Y-36821429D01*
X1569286Y-36830952D01*
X1550238Y-36840476D01*
X1512143Y-36840476D01*
X1493095Y-36830952D01*
X1674048Y-36821429D02*
X1683571Y-36830952D01*
X1674048Y-36840476D01*
X1664524Y-36830952D01*
X1674048Y-36821429D01*
X1674048Y-36840476D01*
X1674048Y-36716667D02*
X1683571Y-36726190D01*
X1674048Y-36735714D01*
X1664524Y-36726190D01*
X1674048Y-36716667D01*
X1674048Y-36735714D01*
D12*
X5000Y-37150000D02*
X45000Y-37190000D01*
X45000Y-37150000D02*
X5000Y-37190000D01*
D11*
X340714Y-37060476D02*
X359762Y-37060476D01*
X378809Y-37070000D01*
X388333Y-37079524D01*
X397857Y-37098571D01*
X407381Y-37136667D01*
X407381Y-37184286D01*
X397857Y-37222381D01*
X388333Y-37241429D01*
X378809Y-37250952D01*
X359762Y-37260476D01*
X340714Y-37260476D01*
X321667Y-37250952D01*
X312143Y-37241429D01*
X302619Y-37222381D01*
X293095Y-37184286D01*
X293095Y-37136667D01*
X302619Y-37098571D01*
X312143Y-37079524D01*
X321667Y-37070000D01*
X340714Y-37060476D01*
X493095Y-37241429D02*
X502619Y-37250952D01*
X493095Y-37260476D01*
X483571Y-37250952D01*
X493095Y-37241429D01*
X493095Y-37260476D01*
X674048Y-37127143D02*
X674048Y-37260476D01*
X626429Y-37050952D02*
X578810Y-37193810D01*
X702619Y-37193810D01*
X816905Y-37060476D02*
X835952Y-37060476D01*
X855000Y-37070000D01*
X864524Y-37079524D01*
X874048Y-37098571D01*
X883571Y-37136667D01*
X883571Y-37184286D01*
X874048Y-37222381D01*
X864524Y-37241429D01*
X855000Y-37250952D01*
X835952Y-37260476D01*
X816905Y-37260476D01*
X797857Y-37250952D01*
X788333Y-37241429D01*
X778809Y-37222381D01*
X769286Y-37184286D01*
X769286Y-37136667D01*
X778809Y-37098571D01*
X788333Y-37079524D01*
X797857Y-37070000D01*
X816905Y-37060476D01*
X1007381Y-37060476D02*
X1026428Y-37060476D01*
X1045476Y-37070000D01*
X1055000Y-37079524D01*
X1064524Y-37098571D01*
X1074048Y-37136667D01*
X1074048Y-37184286D01*
X1064524Y-37222381D01*
X1055000Y-37241429D01*
X1045476Y-37250952D01*
X1026428Y-37260476D01*
X1007381Y-37260476D01*
X988333Y-37250952D01*
X978809Y-37241429D01*
X969286Y-37222381D01*
X959762Y-37184286D01*
X959762Y-37136667D01*
X969286Y-37098571D01*
X978809Y-37079524D01*
X988333Y-37070000D01*
X1007381Y-37060476D01*
X1159762Y-37260476D02*
X1159762Y-37127143D01*
X1159762Y-37146190D02*
X1169286Y-37136667D01*
X1188333Y-37127143D01*
X1216905Y-37127143D01*
X1235952Y-37136667D01*
X1245476Y-37155714D01*
X1245476Y-37260476D01*
X1245476Y-37155714D02*
X1255000Y-37136667D01*
X1274048Y-37127143D01*
X1302619Y-37127143D01*
X1321667Y-37136667D01*
X1331190Y-37155714D01*
X1331190Y-37260476D01*
X1426428Y-37260476D02*
X1426428Y-37127143D01*
X1426428Y-37146190D02*
X1435952Y-37136667D01*
X1455000Y-37127143D01*
X1483571Y-37127143D01*
X1502619Y-37136667D01*
X1512143Y-37155714D01*
X1512143Y-37260476D01*
X1512143Y-37155714D02*
X1521667Y-37136667D01*
X1540714Y-37127143D01*
X1569286Y-37127143D01*
X1588333Y-37136667D01*
X1597857Y-37155714D01*
X1597857Y-37260476D01*
X1988333Y-37050952D02*
X1816905Y-37308095D01*
X2245476Y-37060476D02*
X2264524Y-37060476D01*
X2283571Y-37070000D01*
X2293095Y-37079524D01*
X2302619Y-37098571D01*
X2312143Y-37136667D01*
X2312143Y-37184286D01*
X2302619Y-37222381D01*
X2293095Y-37241429D01*
X2283571Y-37250952D01*
X2264524Y-37260476D01*
X2245476Y-37260476D01*
X2226429Y-37250952D01*
X2216905Y-37241429D01*
X2207381Y-37222381D01*
X2197857Y-37184286D01*
X2197857Y-37136667D01*
X2207381Y-37098571D01*
X2216905Y-37079524D01*
X2226429Y-37070000D01*
X2245476Y-37060476D01*
X2397857Y-37241429D02*
X2407381Y-37250952D01*
X2397857Y-37260476D01*
X2388333Y-37250952D01*
X2397857Y-37241429D01*
X2397857Y-37260476D01*
X2531190Y-37060476D02*
X2550238Y-37060476D01*
X2569286Y-37070000D01*
X2578810Y-37079524D01*
X2588333Y-37098571D01*
X2597857Y-37136667D01*
X2597857Y-37184286D01*
X2588333Y-37222381D01*
X2578810Y-37241429D01*
X2569286Y-37250952D01*
X2550238Y-37260476D01*
X2531190Y-37260476D01*
X2512143Y-37250952D01*
X2502619Y-37241429D01*
X2493095Y-37222381D01*
X2483571Y-37184286D01*
X2483571Y-37136667D01*
X2493095Y-37098571D01*
X2502619Y-37079524D01*
X2512143Y-37070000D01*
X2531190Y-37060476D01*
X2788333Y-37260476D02*
X2674048Y-37260476D01*
X2731190Y-37260476D02*
X2731190Y-37060476D01*
X2712143Y-37089048D01*
X2693095Y-37108095D01*
X2674048Y-37117619D01*
X2969286Y-37060476D02*
X2874048Y-37060476D01*
X2864524Y-37155714D01*
X2874048Y-37146190D01*
X2893095Y-37136667D01*
X2940714Y-37136667D01*
X2959762Y-37146190D01*
X2969286Y-37155714D01*
X2978809Y-37174762D01*
X2978809Y-37222381D01*
X2969286Y-37241429D01*
X2959762Y-37250952D01*
X2940714Y-37260476D01*
X2893095Y-37260476D01*
X2874048Y-37250952D01*
X2864524Y-37241429D01*
X3045476Y-37060476D02*
X3178809Y-37060476D01*
X3093095Y-37260476D01*
X3245476Y-37060476D02*
X3245476Y-37098571D01*
X3321667Y-37060476D02*
X3321667Y-37098571D01*
X3616905Y-37336667D02*
X3607381Y-37327143D01*
X3588333Y-37298571D01*
X3578809Y-37279524D01*
X3569286Y-37250952D01*
X3559762Y-37203333D01*
X3559762Y-37165238D01*
X3569286Y-37117619D01*
X3578809Y-37089048D01*
X3588333Y-37070000D01*
X3607381Y-37041429D01*
X3616905Y-37031905D01*
X3683571Y-37079524D02*
X3693095Y-37070000D01*
X3712143Y-37060476D01*
X3759762Y-37060476D01*
X3778809Y-37070000D01*
X3788333Y-37079524D01*
X3797857Y-37098571D01*
X3797857Y-37117619D01*
X3788333Y-37146190D01*
X3674048Y-37260476D01*
X3797857Y-37260476D01*
X3921667Y-37060476D02*
X3940714Y-37060476D01*
X3959762Y-37070000D01*
X3969286Y-37079524D01*
X3978809Y-37098571D01*
X3988333Y-37136667D01*
X3988333Y-37184286D01*
X3978809Y-37222381D01*
X3969286Y-37241429D01*
X3959762Y-37250952D01*
X3940714Y-37260476D01*
X3921667Y-37260476D01*
X3902619Y-37250952D01*
X3893095Y-37241429D01*
X3883571Y-37222381D01*
X3874048Y-37184286D01*
X3874048Y-37136667D01*
X3883571Y-37098571D01*
X3893095Y-37079524D01*
X3902619Y-37070000D01*
X3921667Y-37060476D01*
X4159762Y-37127143D02*
X4159762Y-37260476D01*
X4112143Y-37050952D02*
X4064524Y-37193810D01*
X4188333Y-37193810D01*
X4416905Y-37260476D02*
X4416905Y-37060476D01*
X4502619Y-37260476D02*
X4502619Y-37155714D01*
X4493095Y-37136667D01*
X4474048Y-37127143D01*
X4445476Y-37127143D01*
X4426429Y-37136667D01*
X4416905Y-37146190D01*
X4626429Y-37260476D02*
X4607381Y-37250952D01*
X4597857Y-37241429D01*
X4588333Y-37222381D01*
X4588333Y-37165238D01*
X4597857Y-37146190D01*
X4607381Y-37136667D01*
X4626429Y-37127143D01*
X4655000Y-37127143D01*
X4674048Y-37136667D01*
X4683571Y-37146190D01*
X4693095Y-37165238D01*
X4693095Y-37222381D01*
X4683571Y-37241429D01*
X4674048Y-37250952D01*
X4655000Y-37260476D01*
X4626429Y-37260476D01*
X4807381Y-37260476D02*
X4788333Y-37250952D01*
X4778810Y-37231905D01*
X4778810Y-37060476D01*
X4959762Y-37250952D02*
X4940714Y-37260476D01*
X4902619Y-37260476D01*
X4883571Y-37250952D01*
X4874048Y-37231905D01*
X4874048Y-37155714D01*
X4883571Y-37136667D01*
X4902619Y-37127143D01*
X4940714Y-37127143D01*
X4959762Y-37136667D01*
X4969286Y-37155714D01*
X4969286Y-37174762D01*
X4874048Y-37193810D01*
X5045476Y-37250952D02*
X5064524Y-37260476D01*
X5102619Y-37260476D01*
X5121667Y-37250952D01*
X5131190Y-37231905D01*
X5131190Y-37222381D01*
X5121667Y-37203333D01*
X5102619Y-37193810D01*
X5074048Y-37193810D01*
X5055000Y-37184286D01*
X5045476Y-37165238D01*
X5045476Y-37155714D01*
X5055000Y-37136667D01*
X5074048Y-37127143D01*
X5102619Y-37127143D01*
X5121667Y-37136667D01*
X5197857Y-37336667D02*
X5207381Y-37327143D01*
X5226429Y-37298571D01*
X5235952Y-37279524D01*
X5245476Y-37250952D01*
X5255000Y-37203333D01*
X5255000Y-37165238D01*
X5245476Y-37117619D01*
X5235952Y-37089048D01*
X5226429Y-37070000D01*
X5207381Y-37041429D01*
X5197857Y-37031905D01*
D13*
X45000Y-37434000D02*
G75*
G03*
X45000Y-37434000I-50000J0D01*
G01*
D11*
X407381Y-37524476D02*
X293095Y-37524476D01*
X350238Y-37524476D02*
X350238Y-37324476D01*
X331190Y-37353048D01*
X312143Y-37372095D01*
X293095Y-37381619D01*
X493095Y-37505429D02*
X502619Y-37514952D01*
X493095Y-37524476D01*
X483571Y-37514952D01*
X493095Y-37505429D01*
X493095Y-37524476D01*
X626429Y-37324476D02*
X645476Y-37324476D01*
X664524Y-37334000D01*
X674048Y-37343524D01*
X683571Y-37362571D01*
X693095Y-37400667D01*
X693095Y-37448286D01*
X683571Y-37486381D01*
X674048Y-37505429D01*
X664524Y-37514952D01*
X645476Y-37524476D01*
X626429Y-37524476D01*
X607381Y-37514952D01*
X597857Y-37505429D01*
X588333Y-37486381D01*
X578810Y-37448286D01*
X578810Y-37400667D01*
X588333Y-37362571D01*
X597857Y-37343524D01*
X607381Y-37334000D01*
X626429Y-37324476D01*
X816905Y-37324476D02*
X835952Y-37324476D01*
X855000Y-37334000D01*
X864524Y-37343524D01*
X874048Y-37362571D01*
X883571Y-37400667D01*
X883571Y-37448286D01*
X874048Y-37486381D01*
X864524Y-37505429D01*
X855000Y-37514952D01*
X835952Y-37524476D01*
X816905Y-37524476D01*
X797857Y-37514952D01*
X788333Y-37505429D01*
X778809Y-37486381D01*
X769286Y-37448286D01*
X769286Y-37400667D01*
X778809Y-37362571D01*
X788333Y-37343524D01*
X797857Y-37334000D01*
X816905Y-37324476D01*
X1007381Y-37324476D02*
X1026428Y-37324476D01*
X1045476Y-37334000D01*
X1055000Y-37343524D01*
X1064524Y-37362571D01*
X1074048Y-37400667D01*
X1074048Y-37448286D01*
X1064524Y-37486381D01*
X1055000Y-37505429D01*
X1045476Y-37514952D01*
X1026428Y-37524476D01*
X1007381Y-37524476D01*
X988333Y-37514952D01*
X978809Y-37505429D01*
X969286Y-37486381D01*
X959762Y-37448286D01*
X959762Y-37400667D01*
X969286Y-37362571D01*
X978809Y-37343524D01*
X988333Y-37334000D01*
X1007381Y-37324476D01*
X1159762Y-37524476D02*
X1159762Y-37391143D01*
X1159762Y-37410190D02*
X1169286Y-37400667D01*
X1188333Y-37391143D01*
X1216905Y-37391143D01*
X1235952Y-37400667D01*
X1245476Y-37419714D01*
X1245476Y-37524476D01*
X1245476Y-37419714D02*
X1255000Y-37400667D01*
X1274048Y-37391143D01*
X1302619Y-37391143D01*
X1321667Y-37400667D01*
X1331190Y-37419714D01*
X1331190Y-37524476D01*
X1426428Y-37524476D02*
X1426428Y-37391143D01*
X1426428Y-37410190D02*
X1435952Y-37400667D01*
X1455000Y-37391143D01*
X1483571Y-37391143D01*
X1502619Y-37400667D01*
X1512143Y-37419714D01*
X1512143Y-37524476D01*
X1512143Y-37419714D02*
X1521667Y-37400667D01*
X1540714Y-37391143D01*
X1569286Y-37391143D01*
X1588333Y-37400667D01*
X1597857Y-37419714D01*
X1597857Y-37524476D01*
X1988333Y-37314952D02*
X1816905Y-37572095D01*
X2245476Y-37324476D02*
X2264524Y-37324476D01*
X2283571Y-37334000D01*
X2293095Y-37343524D01*
X2302619Y-37362571D01*
X2312143Y-37400667D01*
X2312143Y-37448286D01*
X2302619Y-37486381D01*
X2293095Y-37505429D01*
X2283571Y-37514952D01*
X2264524Y-37524476D01*
X2245476Y-37524476D01*
X2226429Y-37514952D01*
X2216905Y-37505429D01*
X2207381Y-37486381D01*
X2197857Y-37448286D01*
X2197857Y-37400667D01*
X2207381Y-37362571D01*
X2216905Y-37343524D01*
X2226429Y-37334000D01*
X2245476Y-37324476D01*
X2397857Y-37505429D02*
X2407381Y-37514952D01*
X2397857Y-37524476D01*
X2388333Y-37514952D01*
X2397857Y-37505429D01*
X2397857Y-37524476D01*
X2531190Y-37324476D02*
X2550238Y-37324476D01*
X2569286Y-37334000D01*
X2578810Y-37343524D01*
X2588333Y-37362571D01*
X2597857Y-37400667D01*
X2597857Y-37448286D01*
X2588333Y-37486381D01*
X2578810Y-37505429D01*
X2569286Y-37514952D01*
X2550238Y-37524476D01*
X2531190Y-37524476D01*
X2512143Y-37514952D01*
X2502619Y-37505429D01*
X2493095Y-37486381D01*
X2483571Y-37448286D01*
X2483571Y-37400667D01*
X2493095Y-37362571D01*
X2502619Y-37343524D01*
X2512143Y-37334000D01*
X2531190Y-37324476D01*
X2664524Y-37324476D02*
X2788333Y-37324476D01*
X2721667Y-37400667D01*
X2750238Y-37400667D01*
X2769286Y-37410190D01*
X2778810Y-37419714D01*
X2788333Y-37438762D01*
X2788333Y-37486381D01*
X2778810Y-37505429D01*
X2769286Y-37514952D01*
X2750238Y-37524476D01*
X2693095Y-37524476D01*
X2674048Y-37514952D01*
X2664524Y-37505429D01*
X2883571Y-37524476D02*
X2921667Y-37524476D01*
X2940714Y-37514952D01*
X2950238Y-37505429D01*
X2969286Y-37476857D01*
X2978809Y-37438762D01*
X2978809Y-37362571D01*
X2969286Y-37343524D01*
X2959762Y-37334000D01*
X2940714Y-37324476D01*
X2902619Y-37324476D01*
X2883571Y-37334000D01*
X2874048Y-37343524D01*
X2864524Y-37362571D01*
X2864524Y-37410190D01*
X2874048Y-37429238D01*
X2883571Y-37438762D01*
X2902619Y-37448286D01*
X2940714Y-37448286D01*
X2959762Y-37438762D01*
X2969286Y-37429238D01*
X2978809Y-37410190D01*
X3150238Y-37391143D02*
X3150238Y-37524476D01*
X3102619Y-37314952D02*
X3055000Y-37457810D01*
X3178809Y-37457810D01*
X3245476Y-37324476D02*
X3245476Y-37362571D01*
X3321667Y-37324476D02*
X3321667Y-37362571D01*
X3616905Y-37600667D02*
X3607381Y-37591143D01*
X3588333Y-37562571D01*
X3578809Y-37543524D01*
X3569286Y-37514952D01*
X3559762Y-37467333D01*
X3559762Y-37429238D01*
X3569286Y-37381619D01*
X3578809Y-37353048D01*
X3588333Y-37334000D01*
X3607381Y-37305429D01*
X3616905Y-37295905D01*
X3788333Y-37324476D02*
X3693095Y-37324476D01*
X3683571Y-37419714D01*
X3693095Y-37410190D01*
X3712143Y-37400667D01*
X3759762Y-37400667D01*
X3778809Y-37410190D01*
X3788333Y-37419714D01*
X3797857Y-37438762D01*
X3797857Y-37486381D01*
X3788333Y-37505429D01*
X3778809Y-37514952D01*
X3759762Y-37524476D01*
X3712143Y-37524476D01*
X3693095Y-37514952D01*
X3683571Y-37505429D01*
X3978809Y-37324476D02*
X3883571Y-37324476D01*
X3874048Y-37419714D01*
X3883571Y-37410190D01*
X3902619Y-37400667D01*
X3950238Y-37400667D01*
X3969286Y-37410190D01*
X3978809Y-37419714D01*
X3988333Y-37438762D01*
X3988333Y-37486381D01*
X3978809Y-37505429D01*
X3969286Y-37514952D01*
X3950238Y-37524476D01*
X3902619Y-37524476D01*
X3883571Y-37514952D01*
X3874048Y-37505429D01*
X4226429Y-37524476D02*
X4226429Y-37324476D01*
X4312143Y-37524476D02*
X4312143Y-37419714D01*
X4302619Y-37400667D01*
X4283571Y-37391143D01*
X4255000Y-37391143D01*
X4235952Y-37400667D01*
X4226429Y-37410190D01*
X4435952Y-37524476D02*
X4416905Y-37514952D01*
X4407381Y-37505429D01*
X4397857Y-37486381D01*
X4397857Y-37429238D01*
X4407381Y-37410190D01*
X4416905Y-37400667D01*
X4435952Y-37391143D01*
X4464524Y-37391143D01*
X4483571Y-37400667D01*
X4493095Y-37410190D01*
X4502619Y-37429238D01*
X4502619Y-37486381D01*
X4493095Y-37505429D01*
X4483571Y-37514952D01*
X4464524Y-37524476D01*
X4435952Y-37524476D01*
X4616905Y-37524476D02*
X4597857Y-37514952D01*
X4588333Y-37495905D01*
X4588333Y-37324476D01*
X4769286Y-37514952D02*
X4750238Y-37524476D01*
X4712143Y-37524476D01*
X4693095Y-37514952D01*
X4683571Y-37495905D01*
X4683571Y-37419714D01*
X4693095Y-37400667D01*
X4712143Y-37391143D01*
X4750238Y-37391143D01*
X4769286Y-37400667D01*
X4778810Y-37419714D01*
X4778810Y-37438762D01*
X4683571Y-37457810D01*
X4855000Y-37514952D02*
X4874048Y-37524476D01*
X4912143Y-37524476D01*
X4931190Y-37514952D01*
X4940714Y-37495905D01*
X4940714Y-37486381D01*
X4931190Y-37467333D01*
X4912143Y-37457810D01*
X4883571Y-37457810D01*
X4864524Y-37448286D01*
X4855000Y-37429238D01*
X4855000Y-37419714D01*
X4864524Y-37400667D01*
X4883571Y-37391143D01*
X4912143Y-37391143D01*
X4931190Y-37400667D01*
X5007381Y-37600667D02*
X5016905Y-37591143D01*
X5035952Y-37562571D01*
X5045476Y-37543524D01*
X5055000Y-37514952D01*
X5064524Y-37467333D01*
X5064524Y-37429238D01*
X5055000Y-37381619D01*
X5045476Y-37353048D01*
X5035952Y-37334000D01*
X5016905Y-37305429D01*
X5007381Y-37295905D01*
X-55000Y-37598000D02*
X-55000Y-37798000D01*
X-155000Y-37698000D02*
X45000Y-37698000D01*
X293095Y-37607524D02*
X302619Y-37598000D01*
X321667Y-37588476D01*
X369286Y-37588476D01*
X388333Y-37598000D01*
X397857Y-37607524D01*
X407381Y-37626571D01*
X407381Y-37645619D01*
X397857Y-37674190D01*
X283571Y-37788476D01*
X407381Y-37788476D01*
X493095Y-37769429D02*
X502619Y-37778952D01*
X493095Y-37788476D01*
X483571Y-37778952D01*
X493095Y-37769429D01*
X493095Y-37788476D01*
X578810Y-37607524D02*
X588333Y-37598000D01*
X607381Y-37588476D01*
X655000Y-37588476D01*
X674048Y-37598000D01*
X683571Y-37607524D01*
X693095Y-37626571D01*
X693095Y-37645619D01*
X683571Y-37674190D01*
X569286Y-37788476D01*
X693095Y-37788476D01*
X816905Y-37588476D02*
X835952Y-37588476D01*
X855000Y-37598000D01*
X864524Y-37607524D01*
X874048Y-37626571D01*
X883571Y-37664667D01*
X883571Y-37712286D01*
X874048Y-37750381D01*
X864524Y-37769429D01*
X855000Y-37778952D01*
X835952Y-37788476D01*
X816905Y-37788476D01*
X797857Y-37778952D01*
X788333Y-37769429D01*
X778809Y-37750381D01*
X769286Y-37712286D01*
X769286Y-37664667D01*
X778809Y-37626571D01*
X788333Y-37607524D01*
X797857Y-37598000D01*
X816905Y-37588476D01*
X1007381Y-37588476D02*
X1026428Y-37588476D01*
X1045476Y-37598000D01*
X1055000Y-37607524D01*
X1064524Y-37626571D01*
X1074048Y-37664667D01*
X1074048Y-37712286D01*
X1064524Y-37750381D01*
X1055000Y-37769429D01*
X1045476Y-37778952D01*
X1026428Y-37788476D01*
X1007381Y-37788476D01*
X988333Y-37778952D01*
X978809Y-37769429D01*
X969286Y-37750381D01*
X959762Y-37712286D01*
X959762Y-37664667D01*
X969286Y-37626571D01*
X978809Y-37607524D01*
X988333Y-37598000D01*
X1007381Y-37588476D01*
X1159762Y-37788476D02*
X1159762Y-37655143D01*
X1159762Y-37674190D02*
X1169286Y-37664667D01*
X1188333Y-37655143D01*
X1216905Y-37655143D01*
X1235952Y-37664667D01*
X1245476Y-37683714D01*
X1245476Y-37788476D01*
X1245476Y-37683714D02*
X1255000Y-37664667D01*
X1274048Y-37655143D01*
X1302619Y-37655143D01*
X1321667Y-37664667D01*
X1331190Y-37683714D01*
X1331190Y-37788476D01*
X1426428Y-37788476D02*
X1426428Y-37655143D01*
X1426428Y-37674190D02*
X1435952Y-37664667D01*
X1455000Y-37655143D01*
X1483571Y-37655143D01*
X1502619Y-37664667D01*
X1512143Y-37683714D01*
X1512143Y-37788476D01*
X1512143Y-37683714D02*
X1521667Y-37664667D01*
X1540714Y-37655143D01*
X1569286Y-37655143D01*
X1588333Y-37664667D01*
X1597857Y-37683714D01*
X1597857Y-37788476D01*
X1988333Y-37578952D02*
X1816905Y-37836095D01*
X2245476Y-37588476D02*
X2264524Y-37588476D01*
X2283571Y-37598000D01*
X2293095Y-37607524D01*
X2302619Y-37626571D01*
X2312143Y-37664667D01*
X2312143Y-37712286D01*
X2302619Y-37750381D01*
X2293095Y-37769429D01*
X2283571Y-37778952D01*
X2264524Y-37788476D01*
X2245476Y-37788476D01*
X2226429Y-37778952D01*
X2216905Y-37769429D01*
X2207381Y-37750381D01*
X2197857Y-37712286D01*
X2197857Y-37664667D01*
X2207381Y-37626571D01*
X2216905Y-37607524D01*
X2226429Y-37598000D01*
X2245476Y-37588476D01*
X2397857Y-37769429D02*
X2407381Y-37778952D01*
X2397857Y-37788476D01*
X2388333Y-37778952D01*
X2397857Y-37769429D01*
X2397857Y-37788476D01*
X2531190Y-37588476D02*
X2550238Y-37588476D01*
X2569286Y-37598000D01*
X2578810Y-37607524D01*
X2588333Y-37626571D01*
X2597857Y-37664667D01*
X2597857Y-37712286D01*
X2588333Y-37750381D01*
X2578810Y-37769429D01*
X2569286Y-37778952D01*
X2550238Y-37788476D01*
X2531190Y-37788476D01*
X2512143Y-37778952D01*
X2502619Y-37769429D01*
X2493095Y-37750381D01*
X2483571Y-37712286D01*
X2483571Y-37664667D01*
X2493095Y-37626571D01*
X2502619Y-37607524D01*
X2512143Y-37598000D01*
X2531190Y-37588476D01*
X2712143Y-37674190D02*
X2693095Y-37664667D01*
X2683571Y-37655143D01*
X2674048Y-37636095D01*
X2674048Y-37626571D01*
X2683571Y-37607524D01*
X2693095Y-37598000D01*
X2712143Y-37588476D01*
X2750238Y-37588476D01*
X2769286Y-37598000D01*
X2778810Y-37607524D01*
X2788333Y-37626571D01*
X2788333Y-37636095D01*
X2778810Y-37655143D01*
X2769286Y-37664667D01*
X2750238Y-37674190D01*
X2712143Y-37674190D01*
X2693095Y-37683714D01*
X2683571Y-37693238D01*
X2674048Y-37712286D01*
X2674048Y-37750381D01*
X2683571Y-37769429D01*
X2693095Y-37778952D01*
X2712143Y-37788476D01*
X2750238Y-37788476D01*
X2769286Y-37778952D01*
X2778810Y-37769429D01*
X2788333Y-37750381D01*
X2788333Y-37712286D01*
X2778810Y-37693238D01*
X2769286Y-37683714D01*
X2750238Y-37674190D01*
X2959762Y-37588476D02*
X2921667Y-37588476D01*
X2902619Y-37598000D01*
X2893095Y-37607524D01*
X2874048Y-37636095D01*
X2864524Y-37674190D01*
X2864524Y-37750381D01*
X2874048Y-37769429D01*
X2883571Y-37778952D01*
X2902619Y-37788476D01*
X2940714Y-37788476D01*
X2959762Y-37778952D01*
X2969286Y-37769429D01*
X2978809Y-37750381D01*
X2978809Y-37702762D01*
X2969286Y-37683714D01*
X2959762Y-37674190D01*
X2940714Y-37664667D01*
X2902619Y-37664667D01*
X2883571Y-37674190D01*
X2874048Y-37683714D01*
X2864524Y-37702762D01*
X3150238Y-37588476D02*
X3112143Y-37588476D01*
X3093095Y-37598000D01*
X3083571Y-37607524D01*
X3064524Y-37636095D01*
X3055000Y-37674190D01*
X3055000Y-37750381D01*
X3064524Y-37769429D01*
X3074048Y-37778952D01*
X3093095Y-37788476D01*
X3131190Y-37788476D01*
X3150238Y-37778952D01*
X3159762Y-37769429D01*
X3169286Y-37750381D01*
X3169286Y-37702762D01*
X3159762Y-37683714D01*
X3150238Y-37674190D01*
X3131190Y-37664667D01*
X3093095Y-37664667D01*
X3074048Y-37674190D01*
X3064524Y-37683714D01*
X3055000Y-37702762D01*
X3245476Y-37588476D02*
X3245476Y-37626571D01*
X3321667Y-37588476D02*
X3321667Y-37626571D01*
X3616905Y-37864667D02*
X3607381Y-37855143D01*
X3588333Y-37826571D01*
X3578809Y-37807524D01*
X3569286Y-37778952D01*
X3559762Y-37731333D01*
X3559762Y-37693238D01*
X3569286Y-37645619D01*
X3578809Y-37617048D01*
X3588333Y-37598000D01*
X3607381Y-37569429D01*
X3616905Y-37559905D01*
X3797857Y-37788476D02*
X3683571Y-37788476D01*
X3740714Y-37788476D02*
X3740714Y-37588476D01*
X3721667Y-37617048D01*
X3702619Y-37636095D01*
X3683571Y-37645619D01*
X3988333Y-37788476D02*
X3874048Y-37788476D01*
X3931190Y-37788476D02*
X3931190Y-37588476D01*
X3912143Y-37617048D01*
X3893095Y-37636095D01*
X3874048Y-37645619D01*
X4226429Y-37788476D02*
X4226429Y-37588476D01*
X4312143Y-37788476D02*
X4312143Y-37683714D01*
X4302619Y-37664667D01*
X4283571Y-37655143D01*
X4255000Y-37655143D01*
X4235952Y-37664667D01*
X4226429Y-37674190D01*
X4435952Y-37788476D02*
X4416905Y-37778952D01*
X4407381Y-37769429D01*
X4397857Y-37750381D01*
X4397857Y-37693238D01*
X4407381Y-37674190D01*
X4416905Y-37664667D01*
X4435952Y-37655143D01*
X4464524Y-37655143D01*
X4483571Y-37664667D01*
X4493095Y-37674190D01*
X4502619Y-37693238D01*
X4502619Y-37750381D01*
X4493095Y-37769429D01*
X4483571Y-37778952D01*
X4464524Y-37788476D01*
X4435952Y-37788476D01*
X4616905Y-37788476D02*
X4597857Y-37778952D01*
X4588333Y-37759905D01*
X4588333Y-37588476D01*
X4769286Y-37778952D02*
X4750238Y-37788476D01*
X4712143Y-37788476D01*
X4693095Y-37778952D01*
X4683571Y-37759905D01*
X4683571Y-37683714D01*
X4693095Y-37664667D01*
X4712143Y-37655143D01*
X4750238Y-37655143D01*
X4769286Y-37664667D01*
X4778810Y-37683714D01*
X4778810Y-37702762D01*
X4683571Y-37721810D01*
X4855000Y-37778952D02*
X4874048Y-37788476D01*
X4912143Y-37788476D01*
X4931190Y-37778952D01*
X4940714Y-37759905D01*
X4940714Y-37750381D01*
X4931190Y-37731333D01*
X4912143Y-37721810D01*
X4883571Y-37721810D01*
X4864524Y-37712286D01*
X4855000Y-37693238D01*
X4855000Y-37683714D01*
X4864524Y-37664667D01*
X4883571Y-37655143D01*
X4912143Y-37655143D01*
X4931190Y-37664667D01*
X5007381Y-37864667D02*
X5016905Y-37855143D01*
X5035952Y-37826571D01*
X5045476Y-37807524D01*
X5055000Y-37778952D01*
X5064524Y-37731333D01*
X5064524Y-37693238D01*
X5055000Y-37645619D01*
X5045476Y-37617048D01*
X5035952Y-37598000D01*
X5016905Y-37569429D01*
X5007381Y-37559905D01*
M02*
