G04 #@! TF.GenerationSoftware,KiCad,Pcbnew,(6.0.1-0)*
G04 #@! TF.CreationDate,2022-07-20T07:32:25-07:00*
G04 #@! TF.ProjectId,adelheid-xt,6164656c-6865-4696-942d-78742e6b6963,rev?*
G04 #@! TF.SameCoordinates,Original*
G04 #@! TF.FileFunction,Paste,Bot*
G04 #@! TF.FilePolarity,Positive*
%FSLAX46Y46*%
G04 Gerber Fmt 4.6, Leading zero omitted, Abs format (unit mm)*
G04 Created by KiCad (PCBNEW (6.0.1-0)) date 2022-07-20 07:32:25*
%MOMM*%
%LPD*%
G01*
G04 APERTURE LIST*
G04 Aperture macros list*
%AMRotRect*
0 Rectangle, with rotation*
0 The origin of the aperture is its center*
0 $1 length*
0 $2 width*
0 $3 Rotation angle, in degrees counterclockwise*
0 Add horizontal line*
21,1,$1,$2,0,0,$3*%
G04 Aperture macros list end*
%ADD10R,2.550000X2.500000*%
%ADD11RotRect,2.550000X2.500000X12.000000*%
%ADD12RotRect,2.550000X2.500000X348.000000*%
%ADD13R,2.500000X2.550000*%
%ADD14RotRect,2.550000X2.500000X168.000000*%
%ADD15R,0.800000X1.900000*%
G04 APERTURE END LIST*
D10*
X365183750Y-335597500D03*
X378110750Y-333057500D03*
X294863850Y-259397500D03*
X307790850Y-256857500D03*
X332640000Y-235585000D03*
X345567000Y-233045000D03*
X465196250Y-235585000D03*
X478123250Y-233045000D03*
X95740550Y-257810000D03*
X108667550Y-255270000D03*
X65822500Y-302577500D03*
X52895500Y-305117500D03*
D11*
X261915079Y-340123259D03*
X274031497Y-334951090D03*
D10*
X484246250Y-235585000D03*
X497173250Y-233045000D03*
X436621250Y-335597500D03*
X449548250Y-333057500D03*
D12*
X153789370Y-268622551D03*
X166961980Y-268825730D03*
X135145770Y-264660151D03*
X148318380Y-264863330D03*
D10*
X337608850Y-264477500D03*
X324681850Y-267017500D03*
D12*
X140479770Y-285284951D03*
X153652380Y-285488130D03*
D10*
X379353750Y-240665000D03*
X366426750Y-243205000D03*
D12*
X159796470Y-308830751D03*
X172969080Y-309033930D03*
X130789670Y-239374451D03*
X143962280Y-239577630D03*
X109974370Y-337202551D03*
X123146980Y-337405730D03*
D13*
X488791250Y-297597500D03*
X486251250Y-284670500D03*
D10*
X465196250Y-278447500D03*
X478123250Y-275907500D03*
X384233750Y-335597500D03*
X397160750Y-333057500D03*
X299943850Y-233997500D03*
X312870850Y-231457500D03*
X427096250Y-259397500D03*
X440023250Y-256857500D03*
X465196250Y-297497500D03*
X478123250Y-294957500D03*
D11*
X199494579Y-275505659D03*
X211610997Y-270333490D03*
D10*
X275826550Y-257886200D03*
X288753550Y-255346200D03*
D11*
X230012679Y-327435959D03*
X242129097Y-322263790D03*
D10*
X332366950Y-278447500D03*
X345293950Y-275907500D03*
X465196250Y-316547500D03*
X478123250Y-314007500D03*
X289517150Y-278447500D03*
X302444150Y-275907500D03*
X484246250Y-259397500D03*
X497173250Y-256857500D03*
X460316250Y-340677500D03*
X447389250Y-343217500D03*
X2440000Y-316547500D03*
X15367000Y-314007500D03*
X329465000Y-297497500D03*
X342392000Y-294957500D03*
D11*
X258625779Y-301870859D03*
X270742197Y-296698690D03*
D13*
X493871250Y-292952500D03*
X496411250Y-305879500D03*
D10*
X2440000Y-335597500D03*
X15367000Y-333057500D03*
D11*
X236743679Y-267580859D03*
X248860097Y-262408690D03*
D10*
X21490000Y-278447500D03*
X34417000Y-275907500D03*
X427096250Y-316547500D03*
X440023250Y-314007500D03*
D12*
X122560070Y-300944051D03*
X135732680Y-301147230D03*
D11*
X259743379Y-238358159D03*
X271859797Y-233185990D03*
D10*
X82049950Y-278447500D03*
X94976950Y-275907500D03*
X446146250Y-316547500D03*
X459073250Y-314007500D03*
X465196250Y-259397500D03*
X478123250Y-256857500D03*
X2440000Y-297497500D03*
X15367000Y-294957500D03*
X403283750Y-335597500D03*
X416210750Y-333057500D03*
D11*
X212766079Y-292142659D03*
X224882497Y-286970490D03*
D10*
X446146250Y-278447500D03*
X459073250Y-275907500D03*
D12*
X141152870Y-304868351D03*
X154325480Y-305071530D03*
D10*
X441266250Y-340677500D03*
X428339250Y-343217500D03*
D11*
X222329179Y-348530659D03*
X234445597Y-343358490D03*
X192734809Y-335365208D03*
X204851227Y-330193039D03*
D10*
X279458750Y-297497500D03*
X292385750Y-294957500D03*
D12*
X142575270Y-344136751D03*
X155747880Y-344339930D03*
X146524970Y-325493151D03*
X159697580Y-325696330D03*
D10*
X57640550Y-259397500D03*
X70567550Y-256857500D03*
D13*
X493871250Y-312002500D03*
X496411250Y-324929500D03*
D10*
X308554450Y-278447500D03*
X321481450Y-275907500D03*
D11*
X199202479Y-251235959D03*
X211318897Y-246063790D03*
D10*
X90546250Y-233997500D03*
X103473250Y-231457500D03*
D12*
X170527970Y-350067651D03*
X183700580Y-350270830D03*
X165155870Y-329442851D03*
X178328480Y-329646030D03*
D13*
X493871250Y-331052500D03*
X496411250Y-343979500D03*
D10*
X427096250Y-235585000D03*
X440023250Y-233045000D03*
D11*
X248630879Y-323473559D03*
X260747297Y-318301390D03*
X250015179Y-284230559D03*
X262131597Y-279058390D03*
D10*
X76695218Y-259397500D03*
X89622218Y-256857500D03*
X446146250Y-235585000D03*
X459073250Y-233045000D03*
D11*
X218138179Y-271555959D03*
X230254597Y-266383790D03*
D10*
X26135000Y-240665000D03*
X13208000Y-243205000D03*
D12*
X121861570Y-281309851D03*
X135034180Y-281513030D03*
X103230670Y-277347451D03*
X116403280Y-277550630D03*
X127881370Y-321530751D03*
X141053980Y-321733930D03*
D11*
X268646079Y-280280859D03*
X280762497Y-275108690D03*
D14*
X153057870Y-351556549D03*
X139885260Y-351353370D03*
D11*
X202758479Y-313758059D03*
X214874897Y-308585890D03*
D10*
X21490000Y-259397500D03*
X34417000Y-256857500D03*
D11*
X240020279Y-305807859D03*
X252136697Y-300635690D03*
D13*
X493871250Y-273902500D03*
X496411250Y-286829500D03*
D10*
X21490000Y-235585000D03*
X34417000Y-233045000D03*
X56415000Y-297497500D03*
X69342000Y-294957500D03*
X21490000Y-316547500D03*
X34417000Y-314007500D03*
X50065000Y-335597500D03*
X62992000Y-333057500D03*
D11*
X217833379Y-247273559D03*
X229949797Y-242101390D03*
X221389379Y-309782959D03*
X233505797Y-304610790D03*
D10*
X82608750Y-297497500D03*
X95535750Y-294957500D03*
X465196250Y-335597500D03*
X478123250Y-333057500D03*
D11*
X255399979Y-263643859D03*
X267516397Y-258471690D03*
D13*
X488791250Y-335697500D03*
X486251250Y-322770500D03*
D10*
X71496250Y-233997500D03*
X84423250Y-231457500D03*
D11*
X267274479Y-319511159D03*
X279390897Y-314338990D03*
D10*
X403283750Y-235585000D03*
X416210750Y-233045000D03*
X88165000Y-316547500D03*
X101092000Y-314007500D03*
X47683750Y-235585000D03*
X60610750Y-233045000D03*
X403283750Y-278447500D03*
X416210750Y-275907500D03*
X335815000Y-335597500D03*
X348742000Y-333057500D03*
X403283750Y-259397500D03*
X416210750Y-256857500D03*
D11*
X194147879Y-296117759D03*
X206264297Y-290945590D03*
D10*
X2440000Y-278447500D03*
X15367000Y-275907500D03*
D11*
X241112479Y-242320559D03*
X253228897Y-237148390D03*
D10*
X58237450Y-278434800D03*
X71164450Y-275894800D03*
D12*
X112171470Y-235424751D03*
X125344080Y-235627930D03*
D11*
X211369079Y-331411059D03*
X223485497Y-326238890D03*
X231384279Y-288192959D03*
X243500697Y-283020790D03*
D10*
X384233750Y-316547500D03*
X397160750Y-314007500D03*
X298546850Y-297497500D03*
X311473850Y-294957500D03*
D12*
X154056070Y-244340151D03*
X167228680Y-244543330D03*
D10*
X21490000Y-297497500D03*
X34417000Y-294957500D03*
X427096250Y-297497500D03*
X440023250Y-294957500D03*
D12*
X172432970Y-272559551D03*
X185605580Y-272762730D03*
X116514870Y-260685051D03*
X129687480Y-260888230D03*
X103929170Y-296981651D03*
X117101780Y-297184830D03*
D10*
X427096250Y-278447500D03*
X440023250Y-275907500D03*
X313913850Y-259397500D03*
X326840850Y-256857500D03*
X2440000Y-259397500D03*
X15367000Y-256857500D03*
X288190000Y-316547500D03*
X301117000Y-314007500D03*
X384233750Y-235585000D03*
X397160750Y-233045000D03*
X446146250Y-259397500D03*
X459073250Y-256857500D03*
D12*
X159123370Y-289196551D03*
X172295980Y-289399730D03*
D10*
X2440000Y-235585000D03*
X15367000Y-233045000D03*
X21490000Y-335597500D03*
X34417000Y-333057500D03*
X365183750Y-278447500D03*
X378110750Y-275907500D03*
D12*
X172674270Y-248302551D03*
X185846880Y-248505730D03*
D10*
X280881150Y-233997500D03*
X293808150Y-231457500D03*
D14*
X120441730Y-344617269D03*
X107269120Y-344414090D03*
D10*
X384233750Y-278447500D03*
X397160750Y-275907500D03*
X384233750Y-259397500D03*
X397160750Y-256857500D03*
D12*
X109263170Y-317581051D03*
X122435780Y-317784230D03*
D10*
X57208750Y-316547500D03*
X70135750Y-314007500D03*
X323908750Y-316547500D03*
X336835750Y-314007500D03*
X446146250Y-297497500D03*
X459073250Y-294957500D03*
X332951150Y-259397500D03*
X345878150Y-256857500D03*
X379353750Y-264477500D03*
X366426750Y-267017500D03*
D15*
X442756250Y-265200000D03*
X444656250Y-265200000D03*
X443706250Y-268200000D03*
X135575000Y-309650000D03*
X137475000Y-309650000D03*
X136525000Y-312650000D03*
X37150000Y-341400000D03*
X39050000Y-341400000D03*
X38100000Y-344400000D03*
X442756250Y-322350000D03*
X444656250Y-322350000D03*
X443706250Y-325350000D03*
X117318750Y-305681250D03*
X119218750Y-305681250D03*
X118268750Y-308681250D03*
X219712500Y-316000000D03*
X221612500Y-316000000D03*
X220662500Y-319000000D03*
X314168750Y-303300000D03*
X316068750Y-303300000D03*
X315118750Y-306300000D03*
X116525000Y-285837500D03*
X118425000Y-285837500D03*
X117475000Y-288837500D03*
X18100000Y-265200000D03*
X20000000Y-265200000D03*
X19050000Y-268200000D03*
X37150000Y-246150000D03*
X39050000Y-246150000D03*
X38100000Y-249150000D03*
X18100000Y-303300000D03*
X20000000Y-303300000D03*
X19050000Y-306300000D03*
X463393750Y-341400000D03*
X465293750Y-341400000D03*
X464343750Y-344400000D03*
X461806250Y-323937500D03*
X463706250Y-323937500D03*
X462756250Y-326937500D03*
X383225000Y-241387500D03*
X385125000Y-241387500D03*
X384175000Y-244387500D03*
X291150000Y-266875000D03*
X293050000Y-266875000D03*
X292100000Y-269875000D03*
X209393750Y-337431250D03*
X211293750Y-337431250D03*
X210343750Y-340431250D03*
X110968750Y-262818750D03*
X112868750Y-262818750D03*
X111918750Y-265818750D03*
X461806250Y-242975000D03*
X463706250Y-242975000D03*
X462756250Y-245975000D03*
X461806250Y-285837500D03*
X463706250Y-285837500D03*
X462756250Y-288837500D03*
X37150000Y-266787500D03*
X39050000Y-266787500D03*
X38100000Y-269787500D03*
X106206250Y-239800000D03*
X108106250Y-239800000D03*
X107156250Y-242800000D03*
X134781250Y-289806250D03*
X136681250Y-289806250D03*
X135731250Y-292806250D03*
X399893750Y-242975000D03*
X401793750Y-242975000D03*
X400843750Y-245975000D03*
X141131250Y-330287500D03*
X143031250Y-330287500D03*
X142081250Y-333287500D03*
X234793750Y-249325000D03*
X236693750Y-249325000D03*
X235743750Y-252325000D03*
X383256750Y-324128000D03*
X385156750Y-324128000D03*
X384206750Y-327128000D03*
X295118750Y-304975000D03*
X297018750Y-304975000D03*
X296068750Y-307975000D03*
X284006250Y-321556250D03*
X285906250Y-321556250D03*
X284956250Y-324556250D03*
X442756250Y-241387500D03*
X444656250Y-241387500D03*
X443706250Y-244387500D03*
X399893750Y-285837500D03*
X401793750Y-285837500D03*
X400843750Y-288837500D03*
X216537500Y-277900000D03*
X218437500Y-277900000D03*
X217487500Y-280900000D03*
X315756250Y-239800000D03*
X317656250Y-239800000D03*
X316706250Y-242800000D03*
X237968750Y-312031250D03*
X239868750Y-312031250D03*
X238918750Y-315031250D03*
X37150000Y-323937500D03*
X39050000Y-323937500D03*
X38100000Y-326937500D03*
X285593750Y-285837500D03*
X287493750Y-285837500D03*
X286543750Y-288837500D03*
X461806250Y-266787500D03*
X463706250Y-266787500D03*
X462756250Y-269787500D03*
X216537500Y-253293750D03*
X218437500Y-253293750D03*
X217487500Y-256293750D03*
X380843750Y-341400000D03*
X382743750Y-341400000D03*
X381793750Y-344400000D03*
X22068750Y-246943750D03*
X23968750Y-246943750D03*
X23018750Y-249943750D03*
X383225000Y-265200000D03*
X385125000Y-265200000D03*
X384175000Y-268200000D03*
X18100000Y-320762500D03*
X20000000Y-320762500D03*
X19050000Y-323762500D03*
X125256250Y-243768750D03*
X127156250Y-243768750D03*
X126206250Y-246768750D03*
X480856250Y-333462500D03*
X482756250Y-333462500D03*
X481806250Y-336462500D03*
X230031250Y-294568750D03*
X231931250Y-294568750D03*
X230981250Y-297568750D03*
X399893750Y-266875000D03*
X401793750Y-266875000D03*
X400843750Y-269875000D03*
X18100000Y-284250000D03*
X20000000Y-284250000D03*
X19050000Y-287250000D03*
X442756250Y-303300000D03*
X444656250Y-303300000D03*
X443706250Y-306300000D03*
X296706250Y-241387500D03*
X298606250Y-241387500D03*
X297656250Y-244387500D03*
X244318750Y-344575000D03*
X246218750Y-344575000D03*
X245268750Y-347575000D03*
X228443750Y-333462500D03*
X230343750Y-333462500D03*
X229393750Y-336462500D03*
X164150000Y-352512500D03*
X166050000Y-352512500D03*
X165100000Y-355512500D03*
X122081250Y-326318750D03*
X123981250Y-326318750D03*
X123031250Y-329318750D03*
X310200000Y-265200000D03*
X312100000Y-265200000D03*
X311150000Y-268200000D03*
X210981250Y-298537500D03*
X212881250Y-298537500D03*
X211931250Y-301537500D03*
X130018750Y-269168750D03*
X131918750Y-269168750D03*
X130968750Y-272168750D03*
X37150000Y-304887500D03*
X39050000Y-304887500D03*
X38100000Y-307887500D03*
X442756250Y-284250000D03*
X444656250Y-284250000D03*
X443706250Y-287250000D03*
X234793750Y-273931250D03*
X236693750Y-273931250D03*
X235743750Y-276931250D03*
X18100000Y-339812500D03*
X20000000Y-339812500D03*
X19050000Y-342812500D03*
X461806250Y-304887500D03*
X463706250Y-304887500D03*
X462756250Y-307887500D03*
X399893750Y-341400000D03*
X401793750Y-341400000D03*
X400843750Y-344400000D03*
X383225000Y-284250000D03*
X385125000Y-284250000D03*
X384175000Y-287250000D03*
X37150000Y-285837500D03*
X39050000Y-285837500D03*
X38100000Y-288837500D03*
X304643750Y-284250000D03*
X306543750Y-284250000D03*
X305593750Y-287250000D03*
M02*
