%FSLAX45Y45*%
G04 Gerber Fmt 4.5, Leading zero omitted, Abs format (unit mm)*
G04 Created by KiCad (PCBNEW (6.0.1-0)) date 2022-07-20 07:32:31*
%MOMM*%
%LPD*%
G01*
G04 APERTURE LIST*
%TA.AperFunction,Profile*%
%ADD10C,0.100000*%
%TD*%
%ADD11C,0.200000*%
%ADD12C,0.150000*%
%ADD13C,0.175000*%
%ADD14C,0.300000*%
%ADD15C,0.304800*%
%ADD16C,0.398780*%
G04 APERTURE END LIST*
D10*
X208750Y-34716250D02*
X10140000Y-34716250D01*
X36779200Y-22592500D02*
G75*
G03*
X36699825Y-22513125I-79375J0D01*
G01*
X50035625Y-22989375D02*
G75*
G03*
X49797500Y-22751250I-238125J0D01*
G01*
X34448750Y-22671875D02*
X34448750Y-22592500D01*
X18620000Y-36525000D02*
X19950000Y-36525000D01*
X10140000Y-34716250D02*
X18620000Y-36525000D01*
X50035625Y-22989375D02*
X50035625Y-34557500D01*
X49876875Y-34716250D02*
X28470000Y-34716250D01*
X36779200Y-22671875D02*
G75*
G03*
X36858575Y-22751250I79375J0D01*
G01*
X208750Y-22751250D02*
X34369375Y-22751250D01*
X49876875Y-34716250D02*
G75*
G03*
X50035625Y-34557500I0J158750D01*
G01*
X34528125Y-22513125D02*
G75*
G03*
X34448750Y-22592500I0J-79375D01*
G01*
X208750Y-22751250D02*
G75*
G03*
X50000Y-22910000I0J-158750D01*
G01*
X34528125Y-22513125D02*
X36699825Y-22513125D01*
X50000Y-34557500D02*
G75*
G03*
X208750Y-34716250I158750J0D01*
G01*
X28470000Y-34716250D02*
X19950000Y-36525000D01*
X34369375Y-22751250D02*
G75*
G03*
X34448750Y-22671875I0J79375D01*
G01*
X36779200Y-22592500D02*
X36779200Y-22671875D01*
X36858575Y-22751250D02*
X49797500Y-22751250D01*
X50000Y-34557500D02*
X50000Y-22910000D01*
D11*
D12*
X33337500Y-23737500D02*
X33487500Y-23887500D01*
X33487500Y-23737500D02*
X33337500Y-23887500D01*
D11*
X33477500Y-23877500D02*
X33477500Y-23747500D01*
X33347500Y-23877500D02*
X33347500Y-23747500D01*
X33477500Y-23747500D02*
G75*
G03*
X33347500Y-23747500I-65000J0D01*
G01*
X33347500Y-23877500D02*
G75*
G03*
X33477500Y-23877500I65000J0D01*
G01*
D12*
X34457500Y-23737500D02*
X34607500Y-23887500D01*
X34607500Y-23737500D02*
X34457500Y-23887500D01*
D11*
X34597500Y-23877500D02*
X34597500Y-23747500D01*
X34467500Y-23877500D02*
X34467500Y-23747500D01*
X34597500Y-23747500D02*
G75*
G03*
X34467500Y-23747500I-65000J0D01*
G01*
X34467500Y-23877500D02*
G75*
G03*
X34597500Y-23877500I65000J0D01*
G01*
D13*
X532000Y-23812500D02*
G75*
G03*
X532000Y-23812500I-87500J0D01*
G01*
X532000Y-26193750D02*
G75*
G03*
X532000Y-26193750I-87500J0D01*
G01*
X532000Y-28098750D02*
G75*
G03*
X532000Y-28098750I-87500J0D01*
G01*
X532000Y-30003750D02*
G75*
G03*
X532000Y-30003750I-87500J0D01*
G01*
X532000Y-31908750D02*
G75*
G03*
X532000Y-31908750I-87500J0D01*
G01*
X532000Y-33813750D02*
G75*
G03*
X532000Y-33813750I-87500J0D01*
G01*
X1484500Y-23812500D02*
G75*
G03*
X1484500Y-23812500I-87500J0D01*
G01*
X1548000Y-23812500D02*
G75*
G03*
X1548000Y-23812500I-87500J0D01*
G01*
X1548000Y-26193750D02*
G75*
G03*
X1548000Y-26193750I-87500J0D01*
G01*
X1548000Y-28098750D02*
G75*
G03*
X1548000Y-28098750I-87500J0D01*
G01*
X1548000Y-30003750D02*
G75*
G03*
X1548000Y-30003750I-87500J0D01*
G01*
X1548000Y-31908750D02*
G75*
G03*
X1548000Y-31908750I-87500J0D01*
G01*
X1548000Y-33813750D02*
G75*
G03*
X1548000Y-33813750I-87500J0D01*
G01*
X2437000Y-23812500D02*
G75*
G03*
X2437000Y-23812500I-87500J0D01*
G01*
X2437000Y-26193750D02*
G75*
G03*
X2437000Y-26193750I-87500J0D01*
G01*
X2437000Y-28098750D02*
G75*
G03*
X2437000Y-28098750I-87500J0D01*
G01*
X2437000Y-30003750D02*
G75*
G03*
X2437000Y-30003750I-87500J0D01*
G01*
X2437000Y-31908750D02*
G75*
G03*
X2437000Y-31908750I-87500J0D01*
G01*
X2437000Y-33813750D02*
G75*
G03*
X2437000Y-33813750I-87500J0D01*
G01*
X2500500Y-23812500D02*
G75*
G03*
X2500500Y-23812500I-87500J0D01*
G01*
X3453000Y-23812500D02*
G75*
G03*
X3453000Y-23812500I-87500J0D01*
G01*
X3453000Y-26193750D02*
G75*
G03*
X3453000Y-26193750I-87500J0D01*
G01*
X3453000Y-28098750D02*
G75*
G03*
X3453000Y-28098750I-87500J0D01*
G01*
X3453000Y-30003750D02*
G75*
G03*
X3453000Y-30003750I-87500J0D01*
G01*
X3453000Y-31908750D02*
G75*
G03*
X3453000Y-31908750I-87500J0D01*
G01*
X3453000Y-33813750D02*
G75*
G03*
X3453000Y-33813750I-87500J0D01*
G01*
X5056375Y-23812500D02*
G75*
G03*
X5056375Y-23812500I-87500J0D01*
G01*
X5294500Y-33813750D02*
G75*
G03*
X5294500Y-33813750I-87500J0D01*
G01*
X5453250Y-30003750D02*
G75*
G03*
X5453250Y-30003750I-87500J0D01*
G01*
X5929500Y-30003750D02*
G75*
G03*
X5929500Y-30003750I-87500J0D01*
G01*
X6008875Y-31908750D02*
G75*
G03*
X6008875Y-31908750I-87500J0D01*
G01*
X6052055Y-26193750D02*
G75*
G03*
X6052055Y-26193750I-87500J0D01*
G01*
X6072375Y-23812500D02*
G75*
G03*
X6072375Y-23812500I-87500J0D01*
G01*
X6111745Y-28097480D02*
G75*
G03*
X6111745Y-28097480I-87500J0D01*
G01*
X6310500Y-33813750D02*
G75*
G03*
X6310500Y-33813750I-87500J0D01*
G01*
X6469250Y-30003750D02*
G75*
G03*
X6469250Y-30003750I-87500J0D01*
G01*
X6945500Y-30003750D02*
G75*
G03*
X6945500Y-30003750I-87500J0D01*
G01*
X7024875Y-31908750D02*
G75*
G03*
X7024875Y-31908750I-87500J0D01*
G01*
X7068055Y-26193750D02*
G75*
G03*
X7068055Y-26193750I-87500J0D01*
G01*
X7127745Y-28097480D02*
G75*
G03*
X7127745Y-28097480I-87500J0D01*
G01*
X7437625Y-23653750D02*
G75*
G03*
X7437625Y-23653750I-87500J0D01*
G01*
X7957522Y-26193750D02*
G75*
G03*
X7957522Y-26193750I-87500J0D01*
G01*
X8453625Y-23653750D02*
G75*
G03*
X8453625Y-23653750I-87500J0D01*
G01*
X8492995Y-28098750D02*
G75*
G03*
X8492995Y-28098750I-87500J0D01*
G01*
X8548875Y-30003750D02*
G75*
G03*
X8548875Y-30003750I-87500J0D01*
G01*
X8973522Y-26193750D02*
G75*
G03*
X8973522Y-26193750I-87500J0D01*
G01*
X9104500Y-31908750D02*
G75*
G03*
X9104500Y-31908750I-87500J0D01*
G01*
X9342625Y-23653750D02*
G75*
G03*
X9342625Y-23653750I-87500J0D01*
G01*
X9508995Y-28098750D02*
G75*
G03*
X9508995Y-28098750I-87500J0D01*
G01*
X9564875Y-30003750D02*
G75*
G03*
X9564875Y-30003750I-87500J0D01*
G01*
X9862055Y-26035000D02*
G75*
G03*
X9862055Y-26035000I-87500J0D01*
G01*
X10120500Y-31908750D02*
G75*
G03*
X10120500Y-31908750I-87500J0D01*
G01*
X10358625Y-23653750D02*
G75*
G03*
X10358625Y-23653750I-87500J0D01*
G01*
X10553876Y-28024881D02*
G75*
G03*
X10553876Y-28024881I-87500J0D01*
G01*
X10623726Y-29988301D02*
G75*
G03*
X10623726Y-29988301I-87500J0D01*
G01*
X10878055Y-26035000D02*
G75*
G03*
X10878055Y-26035000I-87500J0D01*
G01*
X10994566Y-33960353D02*
G75*
G03*
X10994566Y-33960353I-87500J0D01*
G01*
X11157126Y-32048241D02*
G75*
G03*
X11157126Y-32048241I-87500J0D01*
G01*
X11228246Y-34010391D02*
G75*
G03*
X11228246Y-34010391I-87500J0D01*
G01*
X11447956Y-23832611D02*
G75*
G03*
X11447956Y-23832611I-87500J0D01*
G01*
X11547674Y-28236119D02*
G75*
G03*
X11547674Y-28236119I-87500J0D01*
G01*
X11617524Y-30199539D02*
G75*
G03*
X11617524Y-30199539I-87500J0D01*
G01*
X11882296Y-26358641D02*
G75*
G03*
X11882296Y-26358641I-87500J0D01*
G01*
X11988364Y-34171591D02*
G75*
G03*
X11988364Y-34171591I-87500J0D01*
G01*
X12150924Y-32259479D02*
G75*
G03*
X12150924Y-32259479I-87500J0D01*
G01*
X12222044Y-34221629D02*
G75*
G03*
X12222044Y-34221629I-87500J0D01*
G01*
X12416966Y-28421121D02*
G75*
G03*
X12416966Y-28421121I-87500J0D01*
G01*
X12441754Y-24043849D02*
G75*
G03*
X12441754Y-24043849I-87500J0D01*
G01*
X12486816Y-30384541D02*
G75*
G03*
X12486816Y-30384541I-87500J0D01*
G01*
X12876094Y-26569879D02*
G75*
G03*
X12876094Y-26569879I-87500J0D01*
G01*
X13018946Y-32443211D02*
G75*
G03*
X13018946Y-32443211I-87500J0D01*
G01*
X13309776Y-24227581D02*
G75*
G03*
X13309776Y-24227581I-87500J0D01*
G01*
X13410764Y-28632359D02*
G75*
G03*
X13410764Y-28632359I-87500J0D01*
G01*
X13480614Y-30595779D02*
G75*
G03*
X13480614Y-30595779I-87500J0D01*
G01*
X13745386Y-26756151D02*
G75*
G03*
X13745386Y-26756151I-87500J0D01*
G01*
X14012744Y-32654449D02*
G75*
G03*
X14012744Y-32654449I-87500J0D01*
G01*
X14256180Y-34654281D02*
G75*
G03*
X14256180Y-34654281I-87500J0D01*
G01*
X14278786Y-28818631D02*
G75*
G03*
X14278786Y-28818631I-87500J0D01*
G01*
X14303574Y-24438819D02*
G75*
G03*
X14303574Y-24438819I-87500J0D01*
G01*
X14346096Y-30776971D02*
G75*
G03*
X14346096Y-30776971I-87500J0D01*
G01*
X14488336Y-34703811D02*
G75*
G03*
X14488336Y-34703811I-87500J0D01*
G01*
X14739184Y-26967389D02*
G75*
G03*
X14739184Y-26967389I-87500J0D01*
G01*
X14883306Y-32839451D02*
G75*
G03*
X14883306Y-32839451I-87500J0D01*
G01*
X15249978Y-34865519D02*
G75*
G03*
X15249978Y-34865519I-87500J0D01*
G01*
X15272584Y-29029869D02*
G75*
G03*
X15272584Y-29029869I-87500J0D01*
G01*
X15339894Y-30988209D02*
G75*
G03*
X15339894Y-30988209I-87500J0D01*
G01*
X15482134Y-34915049D02*
G75*
G03*
X15482134Y-34915049I-87500J0D01*
G01*
X15609746Y-27152391D02*
G75*
G03*
X15609746Y-27152391I-87500J0D01*
G01*
X15636416Y-24724151D02*
G75*
G03*
X15636416Y-24724151I-87500J0D01*
G01*
X15877104Y-33050689D02*
G75*
G03*
X15877104Y-33050689I-87500J0D01*
G01*
X16143146Y-29209791D02*
G75*
G03*
X16143146Y-29209791I-87500J0D01*
G01*
X16210456Y-31173211D02*
G75*
G03*
X16210456Y-31173211I-87500J0D01*
G01*
X16603544Y-27363629D02*
G75*
G03*
X16603544Y-27363629I-87500J0D01*
G01*
X16630214Y-24935389D02*
G75*
G03*
X16630214Y-24935389I-87500J0D01*
G01*
X16746396Y-33234421D02*
G75*
G03*
X16746396Y-33234421I-87500J0D01*
G01*
X17136944Y-29421029D02*
G75*
G03*
X17136944Y-29421029I-87500J0D01*
G01*
X17204254Y-31384449D02*
G75*
G03*
X17204254Y-31384449I-87500J0D01*
G01*
X17283606Y-35296901D02*
G75*
G03*
X17283606Y-35296901I-87500J0D01*
G01*
X17474106Y-27546091D02*
G75*
G03*
X17474106Y-27546091I-87500J0D01*
G01*
X17498236Y-25120391D02*
G75*
G03*
X17498236Y-25120391I-87500J0D01*
G01*
X17740194Y-33445659D02*
G75*
G03*
X17740194Y-33445659I-87500J0D01*
G01*
X18277404Y-35508139D02*
G75*
G03*
X18277404Y-35508139I-87500J0D01*
G01*
X18467904Y-27757329D02*
G75*
G03*
X18467904Y-27757329I-87500J0D01*
G01*
X18492034Y-25331629D02*
G75*
G03*
X18492034Y-25331629I-87500J0D01*
G01*
X19609909Y-33743284D02*
G75*
G03*
X19609909Y-33743284I-87500J0D01*
G01*
X19751216Y-29818539D02*
G75*
G03*
X19751216Y-29818539I-87500J0D01*
G01*
X20256676Y-25330359D02*
G75*
G03*
X20256676Y-25330359I-87500J0D01*
G01*
X20285886Y-27757329D02*
G75*
G03*
X20285886Y-27757329I-87500J0D01*
G01*
X20603707Y-33532046D02*
G75*
G03*
X20603707Y-33532046I-87500J0D01*
G01*
X20612276Y-31582569D02*
G75*
G03*
X20612276Y-31582569I-87500J0D01*
G01*
X20745014Y-29607301D02*
G75*
G03*
X20745014Y-29607301I-87500J0D01*
G01*
X21250474Y-25119121D02*
G75*
G03*
X21250474Y-25119121I-87500J0D01*
G01*
X21279684Y-27546091D02*
G75*
G03*
X21279684Y-27546091I-87500J0D01*
G01*
X21473336Y-33347869D02*
G75*
G03*
X21473336Y-33347869I-87500J0D01*
G01*
X21606074Y-31371331D02*
G75*
G03*
X21606074Y-31371331I-87500J0D01*
G01*
X21613036Y-29421029D02*
G75*
G03*
X21613036Y-29421029I-87500J0D01*
G01*
X22119766Y-24934119D02*
G75*
G03*
X22119766Y-24934119I-87500J0D01*
G01*
X22150246Y-27362359D02*
G75*
G03*
X22150246Y-27362359I-87500J0D01*
G01*
X22467134Y-33136631D02*
G75*
G03*
X22467134Y-33136631I-87500J0D01*
G01*
X22475366Y-31185059D02*
G75*
G03*
X22475366Y-31185059I-87500J0D01*
G01*
X22569346Y-35059829D02*
G75*
G03*
X22569346Y-35059829I-87500J0D01*
G01*
X22606834Y-29209791D02*
G75*
G03*
X22606834Y-29209791I-87500J0D01*
G01*
X23113564Y-24722881D02*
G75*
G03*
X23113564Y-24722881I-87500J0D01*
G01*
X23144044Y-27151121D02*
G75*
G03*
X23144044Y-27151121I-87500J0D01*
G01*
X23337696Y-32950359D02*
G75*
G03*
X23337696Y-32950359I-87500J0D01*
G01*
X23469164Y-30973821D02*
G75*
G03*
X23469164Y-30973821I-87500J0D01*
G01*
X23474856Y-29026059D02*
G75*
G03*
X23474856Y-29026059I-87500J0D01*
G01*
X23563144Y-34848591D02*
G75*
G03*
X23563144Y-34848591I-87500J0D01*
G01*
X24010796Y-26964849D02*
G75*
G03*
X24010796Y-26964849I-87500J0D01*
G01*
X24331494Y-32739121D02*
G75*
G03*
X24331494Y-32739121I-87500J0D01*
G01*
X24338456Y-30787549D02*
G75*
G03*
X24338456Y-30787549I-87500J0D01*
G01*
X24447676Y-24438819D02*
G75*
G03*
X24447676Y-24438819I-87500J0D01*
G01*
X24468654Y-28814821D02*
G75*
G03*
X24468654Y-28814821I-87500J0D01*
G01*
X25004594Y-26753611D02*
G75*
G03*
X25004594Y-26753611I-87500J0D01*
G01*
X25199516Y-32554119D02*
G75*
G03*
X25199516Y-32554119I-87500J0D01*
G01*
X25332254Y-30576311D02*
G75*
G03*
X25332254Y-30576311I-87500J0D01*
G01*
X25337946Y-28629819D02*
G75*
G03*
X25337946Y-28629819I-87500J0D01*
G01*
X25441474Y-24227581D02*
G75*
G03*
X25441474Y-24227581I-87500J0D01*
G01*
X25876426Y-26571149D02*
G75*
G03*
X25876426Y-26571149I-87500J0D01*
G01*
X26193314Y-32342881D02*
G75*
G03*
X26193314Y-32342881I-87500J0D01*
G01*
X26199006Y-30393849D02*
G75*
G03*
X26199006Y-30393849I-87500J0D01*
G01*
X26310766Y-24042579D02*
G75*
G03*
X26310766Y-24042579I-87500J0D01*
G01*
X26331744Y-28418581D02*
G75*
G03*
X26331744Y-28418581I-87500J0D01*
G01*
X26527936Y-34219089D02*
G75*
G03*
X26527936Y-34219089I-87500J0D01*
G01*
X26870224Y-26359911D02*
G75*
G03*
X26870224Y-26359911I-87500J0D01*
G01*
X27063876Y-32157879D02*
G75*
G03*
X27063876Y-32157879I-87500J0D01*
G01*
X27192804Y-30182611D02*
G75*
G03*
X27192804Y-30182611I-87500J0D01*
G01*
X27201036Y-28234849D02*
G75*
G03*
X27201036Y-28234849I-87500J0D01*
G01*
X27304564Y-23831341D02*
G75*
G03*
X27304564Y-23831341I-87500J0D01*
G01*
X27521734Y-34007851D02*
G75*
G03*
X27521734Y-34007851I-87500J0D01*
G01*
X27870655Y-26042620D02*
G75*
G03*
X27870655Y-26042620I-87500J0D01*
G01*
X28057674Y-31946641D02*
G75*
G03*
X28057674Y-31946641I-87500J0D01*
G01*
X28194834Y-28023611D02*
G75*
G03*
X28194834Y-28023611I-87500J0D01*
G01*
X28233875Y-30003750D02*
G75*
G03*
X28233875Y-30003750I-87500J0D01*
G01*
X28376115Y-23653750D02*
G75*
G03*
X28376115Y-23653750I-87500J0D01*
G01*
X28886655Y-26042620D02*
G75*
G03*
X28886655Y-26042620I-87500J0D01*
G01*
X29107000Y-31908750D02*
G75*
G03*
X29107000Y-31908750I-87500J0D01*
G01*
X29239715Y-28098750D02*
G75*
G03*
X29239715Y-28098750I-87500J0D01*
G01*
X29249875Y-30003750D02*
G75*
G03*
X29249875Y-30003750I-87500J0D01*
G01*
X29392115Y-23653750D02*
G75*
G03*
X29392115Y-23653750I-87500J0D01*
G01*
X29774385Y-26193750D02*
G75*
G03*
X29774385Y-26193750I-87500J0D01*
G01*
X30123000Y-31908750D02*
G75*
G03*
X30123000Y-31908750I-87500J0D01*
G01*
X30142685Y-30003750D02*
G75*
G03*
X30142685Y-30003750I-87500J0D01*
G01*
X30255715Y-28098750D02*
G75*
G03*
X30255715Y-28098750I-87500J0D01*
G01*
X30282385Y-23653750D02*
G75*
G03*
X30282385Y-23653750I-87500J0D01*
G01*
X30790385Y-26193750D02*
G75*
G03*
X30790385Y-26193750I-87500J0D01*
G01*
X31143445Y-28098750D02*
G75*
G03*
X31143445Y-28098750I-87500J0D01*
G01*
X31158685Y-30003750D02*
G75*
G03*
X31158685Y-30003750I-87500J0D01*
G01*
X31298385Y-23653750D02*
G75*
G03*
X31298385Y-23653750I-87500J0D01*
G01*
X31679385Y-26193750D02*
G75*
G03*
X31679385Y-26193750I-87500J0D01*
G01*
X32159445Y-28098750D02*
G75*
G03*
X32159445Y-28098750I-87500J0D01*
G01*
X32631885Y-26193750D02*
G75*
G03*
X32631885Y-26193750I-87500J0D01*
G01*
X32678875Y-31908750D02*
G75*
G03*
X32678875Y-31908750I-87500J0D01*
G01*
X32695385Y-26193750D02*
G75*
G03*
X32695385Y-26193750I-87500J0D01*
G01*
X33234500Y-30003750D02*
G75*
G03*
X33234500Y-30003750I-87500J0D01*
G01*
X33524695Y-28098750D02*
G75*
G03*
X33524695Y-28098750I-87500J0D01*
G01*
X33552000Y-23812500D02*
G75*
G03*
X33552000Y-23812500I-87500J0D01*
G01*
X33583115Y-26193750D02*
G75*
G03*
X33583115Y-26193750I-87500J0D01*
G01*
X33647885Y-26193750D02*
G75*
G03*
X33647885Y-26193750I-87500J0D01*
G01*
X33694875Y-31908750D02*
G75*
G03*
X33694875Y-31908750I-87500J0D01*
G01*
X33869500Y-33813750D02*
G75*
G03*
X33869500Y-33813750I-87500J0D01*
G01*
X34250500Y-30003750D02*
G75*
G03*
X34250500Y-30003750I-87500J0D01*
G01*
X34540695Y-28098750D02*
G75*
G03*
X34540695Y-28098750I-87500J0D01*
G01*
X34568000Y-23812500D02*
G75*
G03*
X34568000Y-23812500I-87500J0D01*
G01*
X34599115Y-26193750D02*
G75*
G03*
X34599115Y-26193750I-87500J0D01*
G01*
X34885500Y-33813750D02*
G75*
G03*
X34885500Y-33813750I-87500J0D01*
G01*
X36806375Y-23812500D02*
G75*
G03*
X36806375Y-23812500I-87500J0D01*
G01*
X36806375Y-26193750D02*
G75*
G03*
X36806375Y-26193750I-87500J0D01*
G01*
X36806375Y-28098750D02*
G75*
G03*
X36806375Y-28098750I-87500J0D01*
G01*
X36806375Y-33813750D02*
G75*
G03*
X36806375Y-33813750I-87500J0D01*
G01*
X37822375Y-23812500D02*
G75*
G03*
X37822375Y-23812500I-87500J0D01*
G01*
X37822375Y-26193750D02*
G75*
G03*
X37822375Y-26193750I-87500J0D01*
G01*
X37822375Y-28098750D02*
G75*
G03*
X37822375Y-28098750I-87500J0D01*
G01*
X37822375Y-33813750D02*
G75*
G03*
X37822375Y-33813750I-87500J0D01*
G01*
X38711375Y-23812500D02*
G75*
G03*
X38711375Y-23812500I-87500J0D01*
G01*
X38711375Y-26193750D02*
G75*
G03*
X38711375Y-26193750I-87500J0D01*
G01*
X38711375Y-28098750D02*
G75*
G03*
X38711375Y-28098750I-87500J0D01*
G01*
X38711375Y-31908750D02*
G75*
G03*
X38711375Y-31908750I-87500J0D01*
G01*
X38711375Y-33813750D02*
G75*
G03*
X38711375Y-33813750I-87500J0D01*
G01*
X39727375Y-23812500D02*
G75*
G03*
X39727375Y-23812500I-87500J0D01*
G01*
X39727375Y-26193750D02*
G75*
G03*
X39727375Y-26193750I-87500J0D01*
G01*
X39727375Y-28098750D02*
G75*
G03*
X39727375Y-28098750I-87500J0D01*
G01*
X39727375Y-31908750D02*
G75*
G03*
X39727375Y-31908750I-87500J0D01*
G01*
X39727375Y-33813750D02*
G75*
G03*
X39727375Y-33813750I-87500J0D01*
G01*
X40616375Y-23812500D02*
G75*
G03*
X40616375Y-23812500I-87500J0D01*
G01*
X40616375Y-26193750D02*
G75*
G03*
X40616375Y-26193750I-87500J0D01*
G01*
X40616375Y-28098750D02*
G75*
G03*
X40616375Y-28098750I-87500J0D01*
G01*
X40616375Y-33813750D02*
G75*
G03*
X40616375Y-33813750I-87500J0D01*
G01*
X41632375Y-23812500D02*
G75*
G03*
X41632375Y-23812500I-87500J0D01*
G01*
X41632375Y-26193750D02*
G75*
G03*
X41632375Y-26193750I-87500J0D01*
G01*
X41632375Y-28098750D02*
G75*
G03*
X41632375Y-28098750I-87500J0D01*
G01*
X41632375Y-33813750D02*
G75*
G03*
X41632375Y-33813750I-87500J0D01*
G01*
X42997625Y-23812500D02*
G75*
G03*
X42997625Y-23812500I-87500J0D01*
G01*
X42997625Y-26193750D02*
G75*
G03*
X42997625Y-26193750I-87500J0D01*
G01*
X42997625Y-28098750D02*
G75*
G03*
X42997625Y-28098750I-87500J0D01*
G01*
X42997625Y-30003750D02*
G75*
G03*
X42997625Y-30003750I-87500J0D01*
G01*
X42997625Y-31908750D02*
G75*
G03*
X42997625Y-31908750I-87500J0D01*
G01*
X42997625Y-33813750D02*
G75*
G03*
X42997625Y-33813750I-87500J0D01*
G01*
X43950125Y-33813750D02*
G75*
G03*
X43950125Y-33813750I-87500J0D01*
G01*
X44013625Y-23812500D02*
G75*
G03*
X44013625Y-23812500I-87500J0D01*
G01*
X44013625Y-26193750D02*
G75*
G03*
X44013625Y-26193750I-87500J0D01*
G01*
X44013625Y-28098750D02*
G75*
G03*
X44013625Y-28098750I-87500J0D01*
G01*
X44013625Y-30003750D02*
G75*
G03*
X44013625Y-30003750I-87500J0D01*
G01*
X44013625Y-31908750D02*
G75*
G03*
X44013625Y-31908750I-87500J0D01*
G01*
X44013625Y-33813750D02*
G75*
G03*
X44013625Y-33813750I-87500J0D01*
G01*
X44902625Y-23812500D02*
G75*
G03*
X44902625Y-23812500I-87500J0D01*
G01*
X44902625Y-26193750D02*
G75*
G03*
X44902625Y-26193750I-87500J0D01*
G01*
X44902625Y-28098750D02*
G75*
G03*
X44902625Y-28098750I-87500J0D01*
G01*
X44902625Y-30003750D02*
G75*
G03*
X44902625Y-30003750I-87500J0D01*
G01*
X44902625Y-31908750D02*
G75*
G03*
X44902625Y-31908750I-87500J0D01*
G01*
X44902625Y-33813750D02*
G75*
G03*
X44902625Y-33813750I-87500J0D01*
G01*
X44966125Y-33813750D02*
G75*
G03*
X44966125Y-33813750I-87500J0D01*
G01*
X45918625Y-23812500D02*
G75*
G03*
X45918625Y-23812500I-87500J0D01*
G01*
X45918625Y-26193750D02*
G75*
G03*
X45918625Y-26193750I-87500J0D01*
G01*
X45918625Y-28098750D02*
G75*
G03*
X45918625Y-28098750I-87500J0D01*
G01*
X45918625Y-30003750D02*
G75*
G03*
X45918625Y-30003750I-87500J0D01*
G01*
X45918625Y-31908750D02*
G75*
G03*
X45918625Y-31908750I-87500J0D01*
G01*
X45918625Y-33813750D02*
G75*
G03*
X45918625Y-33813750I-87500J0D01*
G01*
X46807625Y-23812500D02*
G75*
G03*
X46807625Y-23812500I-87500J0D01*
G01*
X46807625Y-26193750D02*
G75*
G03*
X46807625Y-26193750I-87500J0D01*
G01*
X46807625Y-28098750D02*
G75*
G03*
X46807625Y-28098750I-87500J0D01*
G01*
X46807625Y-30003750D02*
G75*
G03*
X46807625Y-30003750I-87500J0D01*
G01*
X46807625Y-31908750D02*
G75*
G03*
X46807625Y-31908750I-87500J0D01*
G01*
X46807625Y-33813750D02*
G75*
G03*
X46807625Y-33813750I-87500J0D01*
G01*
X47823625Y-23812500D02*
G75*
G03*
X47823625Y-23812500I-87500J0D01*
G01*
X47823625Y-26193750D02*
G75*
G03*
X47823625Y-26193750I-87500J0D01*
G01*
X47823625Y-28098750D02*
G75*
G03*
X47823625Y-28098750I-87500J0D01*
G01*
X47823625Y-30003750D02*
G75*
G03*
X47823625Y-30003750I-87500J0D01*
G01*
X47823625Y-31908750D02*
G75*
G03*
X47823625Y-31908750I-87500J0D01*
G01*
X47823625Y-33813750D02*
G75*
G03*
X47823625Y-33813750I-87500J0D01*
G01*
X48712625Y-23812500D02*
G75*
G03*
X48712625Y-23812500I-87500J0D01*
G01*
X48712625Y-26193750D02*
G75*
G03*
X48712625Y-26193750I-87500J0D01*
G01*
X49220625Y-27590750D02*
G75*
G03*
X49220625Y-27590750I-87500J0D01*
G01*
X49220625Y-28543250D02*
G75*
G03*
X49220625Y-28543250I-87500J0D01*
G01*
X49220625Y-28606750D02*
G75*
G03*
X49220625Y-28606750I-87500J0D01*
G01*
X49220625Y-29495750D02*
G75*
G03*
X49220625Y-29495750I-87500J0D01*
G01*
X49220625Y-29559250D02*
G75*
G03*
X49220625Y-29559250I-87500J0D01*
G01*
X49220625Y-30511750D02*
G75*
G03*
X49220625Y-30511750I-87500J0D01*
G01*
X49220625Y-31400750D02*
G75*
G03*
X49220625Y-31400750I-87500J0D01*
G01*
X49220625Y-32353250D02*
G75*
G03*
X49220625Y-32353250I-87500J0D01*
G01*
X49220625Y-32416750D02*
G75*
G03*
X49220625Y-32416750I-87500J0D01*
G01*
X49220625Y-33305750D02*
G75*
G03*
X49220625Y-33305750I-87500J0D01*
G01*
X49220625Y-33369250D02*
G75*
G03*
X49220625Y-33369250I-87500J0D01*
G01*
X49220625Y-34321750D02*
G75*
G03*
X49220625Y-34321750I-87500J0D01*
G01*
X49728625Y-23812500D02*
G75*
G03*
X49728625Y-23812500I-87500J0D01*
G01*
X49728625Y-26193750D02*
G75*
G03*
X49728625Y-26193750I-87500J0D01*
G01*
D14*
X571500Y-23408500D02*
X571500Y-23708500D01*
X421500Y-23558500D02*
X721500Y-23558500D01*
X571500Y-25789750D02*
X571500Y-26089750D01*
X421500Y-25939750D02*
X721500Y-25939750D01*
X571500Y-27694750D02*
X571500Y-27994750D01*
X421500Y-27844750D02*
X721500Y-27844750D01*
X571500Y-29599750D02*
X571500Y-29899750D01*
X421500Y-29749750D02*
X721500Y-29749750D01*
X571500Y-31504750D02*
X571500Y-31804750D01*
X421500Y-31654750D02*
X721500Y-31654750D01*
X571500Y-33409750D02*
X571500Y-33709750D01*
X421500Y-33559750D02*
X721500Y-33559750D01*
X1206500Y-23154500D02*
X1206500Y-23454500D01*
X1056500Y-23304500D02*
X1356500Y-23304500D01*
X1206500Y-25535750D02*
X1206500Y-25835750D01*
X1056500Y-25685750D02*
X1356500Y-25685750D01*
X1206500Y-27440750D02*
X1206500Y-27740750D01*
X1056500Y-27590750D02*
X1356500Y-27590750D01*
X1206500Y-29345750D02*
X1206500Y-29645750D01*
X1056500Y-29495750D02*
X1356500Y-29495750D01*
X1206500Y-31250750D02*
X1206500Y-31550750D01*
X1056500Y-31400750D02*
X1356500Y-31400750D01*
X1206500Y-33155750D02*
X1206500Y-33455750D01*
X1056500Y-33305750D02*
X1356500Y-33305750D01*
X1651000Y-24170500D02*
X1651000Y-24470500D01*
X1501000Y-24320500D02*
X1801000Y-24320500D01*
X2286000Y-23916500D02*
X2286000Y-24216500D01*
X2136000Y-24066500D02*
X2436000Y-24066500D01*
X2476500Y-23408500D02*
X2476500Y-23708500D01*
X2326500Y-23558500D02*
X2626500Y-23558500D01*
X2476500Y-25789750D02*
X2476500Y-26089750D01*
X2326500Y-25939750D02*
X2626500Y-25939750D01*
X2476500Y-27694750D02*
X2476500Y-27994750D01*
X2326500Y-27844750D02*
X2626500Y-27844750D01*
X2476500Y-29599750D02*
X2476500Y-29899750D01*
X2326500Y-29749750D02*
X2626500Y-29749750D01*
X2476500Y-31504750D02*
X2476500Y-31804750D01*
X2326500Y-31654750D02*
X2626500Y-31654750D01*
X2476500Y-33409750D02*
X2476500Y-33709750D01*
X2326500Y-33559750D02*
X2626500Y-33559750D01*
X3111500Y-23154500D02*
X3111500Y-23454500D01*
X2961500Y-23304500D02*
X3261500Y-23304500D01*
X3111500Y-25535750D02*
X3111500Y-25835750D01*
X2961500Y-25685750D02*
X3261500Y-25685750D01*
X3111500Y-27440750D02*
X3111500Y-27740750D01*
X2961500Y-27590750D02*
X3261500Y-27590750D01*
X3111500Y-29345750D02*
X3111500Y-29645750D01*
X2961500Y-29495750D02*
X3261500Y-29495750D01*
X3111500Y-31250750D02*
X3111500Y-31550750D01*
X2961500Y-31400750D02*
X3261500Y-31400750D01*
X3111500Y-33155750D02*
X3111500Y-33455750D01*
X2961500Y-33305750D02*
X3261500Y-33305750D01*
X5095875Y-23408500D02*
X5095875Y-23708500D01*
X4945875Y-23558500D02*
X5245875Y-23558500D01*
X5334000Y-33409750D02*
X5334000Y-33709750D01*
X5184000Y-33559750D02*
X5484000Y-33559750D01*
X5619750Y-30361750D02*
X5619750Y-30661750D01*
X5469750Y-30511750D02*
X5769750Y-30511750D01*
X5730875Y-23154500D02*
X5730875Y-23454500D01*
X5580875Y-23304500D02*
X5880875Y-23304500D01*
X5969000Y-29599750D02*
X5969000Y-29899750D01*
X5819000Y-29749750D02*
X6119000Y-29749750D01*
X5969000Y-33155750D02*
X5969000Y-33455750D01*
X5819000Y-33305750D02*
X6119000Y-33305750D01*
X6048375Y-31504750D02*
X6048375Y-31804750D01*
X5898375Y-31654750D02*
X6198375Y-31654750D01*
X6091555Y-25789750D02*
X6091555Y-26089750D01*
X5941555Y-25939750D02*
X6241555Y-25939750D01*
X6151245Y-27693480D02*
X6151245Y-27993480D01*
X6001245Y-27843480D02*
X6301245Y-27843480D01*
X6254750Y-30107750D02*
X6254750Y-30407750D01*
X6104750Y-30257750D02*
X6404750Y-30257750D01*
X6604000Y-29345750D02*
X6604000Y-29645750D01*
X6454000Y-29495750D02*
X6754000Y-29495750D01*
X6683375Y-31250750D02*
X6683375Y-31550750D01*
X6533375Y-31400750D02*
X6833375Y-31400750D01*
X6726555Y-25535750D02*
X6726555Y-25835750D01*
X6576555Y-25685750D02*
X6876555Y-25685750D01*
X6786245Y-27439480D02*
X6786245Y-27739480D01*
X6636245Y-27589480D02*
X6936245Y-27589480D01*
X7477125Y-23249750D02*
X7477125Y-23549750D01*
X7327125Y-23399750D02*
X7627125Y-23399750D01*
X7997022Y-25789750D02*
X7997022Y-26089750D01*
X7847022Y-25939750D02*
X8147022Y-25939750D01*
X8112125Y-22995750D02*
X8112125Y-23295750D01*
X7962125Y-23145750D02*
X8262125Y-23145750D01*
X8532495Y-27694750D02*
X8532495Y-27994750D01*
X8382495Y-27844750D02*
X8682495Y-27844750D01*
X8588375Y-29599750D02*
X8588375Y-29899750D01*
X8438375Y-29749750D02*
X8738375Y-29749750D01*
X8632022Y-25535750D02*
X8632022Y-25835750D01*
X8482022Y-25685750D02*
X8782022Y-25685750D01*
X9144000Y-31504750D02*
X9144000Y-31804750D01*
X8994000Y-31654750D02*
X9294000Y-31654750D01*
X9167495Y-27440750D02*
X9167495Y-27740750D01*
X9017495Y-27590750D02*
X9317495Y-27590750D01*
X9223375Y-29345750D02*
X9223375Y-29645750D01*
X9073375Y-29495750D02*
X9373375Y-29495750D01*
X9382125Y-23249750D02*
X9382125Y-23549750D01*
X9232125Y-23399750D02*
X9532125Y-23399750D01*
X9779000Y-31250750D02*
X9779000Y-31550750D01*
X9629000Y-31400750D02*
X9929000Y-31400750D01*
X9901555Y-25631000D02*
X9901555Y-25931000D01*
X9751555Y-25781000D02*
X10051555Y-25781000D01*
X10017125Y-22995750D02*
X10017125Y-23295750D01*
X9867125Y-23145750D02*
X10167125Y-23145750D01*
X10536555Y-25377000D02*
X10536555Y-25677000D01*
X10386555Y-25527000D02*
X10686555Y-25527000D01*
X10643410Y-27652836D02*
X10643410Y-27952836D01*
X10493410Y-27802836D02*
X10793410Y-27802836D01*
X10713260Y-29616256D02*
X10713260Y-29916256D01*
X10563260Y-29766256D02*
X10863260Y-29766256D01*
X11049896Y-34360061D02*
X11049896Y-34660061D01*
X10899896Y-34510061D02*
X11199896Y-34510061D01*
X11246660Y-31676196D02*
X11246660Y-31976196D01*
X11096660Y-31826196D02*
X11396660Y-31826196D01*
X11317344Y-27536411D02*
X11317344Y-27836411D01*
X11167344Y-27686411D02*
X11467344Y-27686411D01*
X11317780Y-33638346D02*
X11317780Y-33938346D01*
X11167780Y-33788346D02*
X11467780Y-33788346D01*
X11387194Y-29499831D02*
X11387194Y-29799831D01*
X11237194Y-29649831D02*
X11537194Y-29649831D01*
X11537490Y-23460566D02*
X11537490Y-23760566D01*
X11387490Y-23610566D02*
X11687490Y-23610566D01*
X11723830Y-34243636D02*
X11723830Y-34543636D01*
X11573830Y-34393636D02*
X11873830Y-34393636D01*
X11920594Y-31559771D02*
X11920594Y-31859771D01*
X11770594Y-31709771D02*
X12070594Y-31709771D01*
X11971830Y-25986596D02*
X11971830Y-26286596D01*
X11821830Y-26136596D02*
X12121830Y-26136596D01*
X11991714Y-33521921D02*
X11991714Y-33821921D01*
X11841714Y-33671921D02*
X12141714Y-33671921D01*
X12211424Y-23344141D02*
X12211424Y-23644141D01*
X12061424Y-23494141D02*
X12361424Y-23494141D01*
X12506500Y-28049076D02*
X12506500Y-28349076D01*
X12356500Y-28199076D02*
X12656500Y-28199076D01*
X12576350Y-30012496D02*
X12576350Y-30312496D01*
X12426350Y-30162496D02*
X12726350Y-30162496D01*
X12645764Y-25870171D02*
X12645764Y-26170171D01*
X12495764Y-26020171D02*
X12795764Y-26020171D01*
X13108480Y-32071166D02*
X13108480Y-32371166D01*
X12958480Y-32221166D02*
X13258480Y-32221166D01*
X13180434Y-27932651D02*
X13180434Y-28232651D01*
X13030434Y-28082651D02*
X13330434Y-28082651D01*
X13250284Y-29896071D02*
X13250284Y-30196071D01*
X13100284Y-30046071D02*
X13400284Y-30046071D01*
X13399310Y-23855536D02*
X13399310Y-24155536D01*
X13249310Y-24005536D02*
X13549310Y-24005536D01*
X13782414Y-31954741D02*
X13782414Y-32254741D01*
X13632414Y-32104741D02*
X13932414Y-32104741D01*
X13834920Y-26384106D02*
X13834920Y-26684106D01*
X13684920Y-26534106D02*
X13984920Y-26534106D01*
X14073244Y-23739111D02*
X14073244Y-24039111D01*
X13923244Y-23889111D02*
X14223244Y-23889111D01*
X14311510Y-35053989D02*
X14311510Y-35353989D01*
X14161510Y-35203989D02*
X14461510Y-35203989D01*
X14368320Y-28446586D02*
X14368320Y-28746586D01*
X14218320Y-28596586D02*
X14518320Y-28596586D01*
X14435630Y-30404926D02*
X14435630Y-30704926D01*
X14285630Y-30554926D02*
X14585630Y-30554926D01*
X14508854Y-26267681D02*
X14508854Y-26567681D01*
X14358854Y-26417681D02*
X14658854Y-26417681D01*
X14577870Y-34331766D02*
X14577870Y-34631766D01*
X14427870Y-34481766D02*
X14727870Y-34481766D01*
X14972840Y-32467406D02*
X14972840Y-32767406D01*
X14822840Y-32617406D02*
X15122840Y-32617406D01*
X14985444Y-34937564D02*
X14985444Y-35237564D01*
X14835444Y-35087564D02*
X15135444Y-35087564D01*
X15042254Y-28330161D02*
X15042254Y-28630161D01*
X14892254Y-28480161D02*
X15192254Y-28480161D01*
X15109564Y-30288501D02*
X15109564Y-30588501D01*
X14959564Y-30438501D02*
X15259564Y-30438501D01*
X15251804Y-34215341D02*
X15251804Y-34515341D01*
X15101804Y-34365341D02*
X15401804Y-34365341D01*
X15646774Y-32350981D02*
X15646774Y-32650981D01*
X15496774Y-32500981D02*
X15796774Y-32500981D01*
X15699280Y-26780346D02*
X15699280Y-27080346D01*
X15549280Y-26930346D02*
X15849280Y-26930346D01*
X15725950Y-24352106D02*
X15725950Y-24652106D01*
X15575950Y-24502106D02*
X15875950Y-24502106D01*
X16232680Y-28837746D02*
X16232680Y-29137746D01*
X16082680Y-28987746D02*
X16382680Y-28987746D01*
X16299990Y-30801166D02*
X16299990Y-31101166D01*
X16149990Y-30951166D02*
X16449990Y-30951166D01*
X16373214Y-26663921D02*
X16373214Y-26963921D01*
X16223214Y-26813921D02*
X16523214Y-26813921D01*
X16399884Y-24235681D02*
X16399884Y-24535681D01*
X16249884Y-24385681D02*
X16549884Y-24385681D01*
X16835930Y-32862376D02*
X16835930Y-33162376D01*
X16685930Y-33012376D02*
X16985930Y-33012376D01*
X16906614Y-28721321D02*
X16906614Y-29021321D01*
X16756614Y-28871321D02*
X17056614Y-28871321D01*
X16973924Y-30684741D02*
X16973924Y-30984741D01*
X16823924Y-30834741D02*
X17123924Y-30834741D01*
X17373140Y-34924856D02*
X17373140Y-35224856D01*
X17223140Y-35074856D02*
X17523140Y-35074856D01*
X17509864Y-32745951D02*
X17509864Y-33045951D01*
X17359864Y-32895951D02*
X17659864Y-32895951D01*
X17563640Y-27174046D02*
X17563640Y-27474046D01*
X17413640Y-27324046D02*
X17713640Y-27324046D01*
X17587770Y-24748346D02*
X17587770Y-25048346D01*
X17437770Y-24898346D02*
X17737770Y-24898346D01*
X18047074Y-34808431D02*
X18047074Y-35108431D01*
X17897074Y-34958431D02*
X18197074Y-34958431D01*
X18237574Y-27057621D02*
X18237574Y-27357621D01*
X18087574Y-27207621D02*
X18387574Y-27207621D01*
X18261704Y-24631921D02*
X18261704Y-24931921D01*
X18111704Y-24781921D02*
X18411704Y-24781921D01*
X19593824Y-33318430D02*
X19593824Y-33618430D01*
X19443824Y-33468430D02*
X19743824Y-33468430D01*
X19735131Y-29393685D02*
X19735131Y-29693685D01*
X19585131Y-29543685D02*
X19885131Y-29543685D01*
X20162138Y-32937956D02*
X20162138Y-33237956D01*
X20012138Y-33087956D02*
X20312138Y-33087956D01*
X20240591Y-24905505D02*
X20240591Y-25205505D01*
X20090591Y-25055505D02*
X20390591Y-25055505D01*
X20269801Y-27332475D02*
X20269801Y-27632475D01*
X20119801Y-27482475D02*
X20419801Y-27482475D01*
X20303445Y-29013211D02*
X20303445Y-29313211D01*
X20153445Y-29163211D02*
X20453445Y-29163211D01*
X20596191Y-31157715D02*
X20596191Y-31457715D01*
X20446191Y-31307715D02*
X20746191Y-31307715D01*
X20808905Y-24525031D02*
X20808905Y-24825031D01*
X20658905Y-24675031D02*
X20958905Y-24675031D01*
X20838115Y-26952001D02*
X20838115Y-27252001D01*
X20688115Y-27102001D02*
X20988115Y-27102001D01*
X21164505Y-30777241D02*
X21164505Y-31077241D01*
X21014505Y-30927241D02*
X21314505Y-30927241D01*
X21457251Y-32923015D02*
X21457251Y-33223015D01*
X21307251Y-33073015D02*
X21607251Y-33073015D01*
X21596951Y-28996175D02*
X21596951Y-29296175D01*
X21446951Y-29146175D02*
X21746951Y-29146175D01*
X22025565Y-32542541D02*
X22025565Y-32842541D01*
X21875565Y-32692541D02*
X22175565Y-32692541D01*
X22103681Y-24509265D02*
X22103681Y-24809265D01*
X21953681Y-24659265D02*
X22253681Y-24659265D01*
X22134161Y-26937505D02*
X22134161Y-27237505D01*
X21984161Y-27087505D02*
X22284161Y-27087505D01*
X22165265Y-28615701D02*
X22165265Y-28915701D01*
X22015265Y-28765701D02*
X22315265Y-28765701D01*
X22459281Y-30760205D02*
X22459281Y-31060205D01*
X22309281Y-30910205D02*
X22609281Y-30910205D01*
X22553261Y-34634975D02*
X22553261Y-34934975D01*
X22403261Y-34784975D02*
X22703261Y-34784975D01*
X22671995Y-24128791D02*
X22671995Y-24428791D01*
X22521995Y-24278791D02*
X22821995Y-24278791D01*
X22702475Y-26557031D02*
X22702475Y-26857031D01*
X22552475Y-26707031D02*
X22852475Y-26707031D01*
X23027595Y-30379731D02*
X23027595Y-30679731D01*
X22877595Y-30529731D02*
X23177595Y-30529731D01*
X23121575Y-34254501D02*
X23121575Y-34554501D01*
X22971575Y-34404501D02*
X23271575Y-34404501D01*
X23321611Y-32525505D02*
X23321611Y-32825505D01*
X23171611Y-32675505D02*
X23471611Y-32675505D01*
X23458771Y-28601205D02*
X23458771Y-28901205D01*
X23308771Y-28751205D02*
X23608771Y-28751205D01*
X23889925Y-32145031D02*
X23889925Y-32445031D01*
X23739925Y-32295031D02*
X24039925Y-32295031D01*
X23994711Y-26539995D02*
X23994711Y-26839995D01*
X23844711Y-26689995D02*
X24144711Y-26689995D01*
X24027085Y-28220731D02*
X24027085Y-28520731D01*
X23877085Y-28370731D02*
X24177085Y-28370731D01*
X24322371Y-30362695D02*
X24322371Y-30662695D01*
X24172371Y-30512695D02*
X24472371Y-30512695D01*
X24431591Y-24013965D02*
X24431591Y-24313965D01*
X24281591Y-24163965D02*
X24581591Y-24163965D01*
X24563025Y-26159521D02*
X24563025Y-26459521D01*
X24413025Y-26309521D02*
X24713025Y-26309521D01*
X24890685Y-29982221D02*
X24890685Y-30282221D01*
X24740685Y-30132221D02*
X25040685Y-30132221D01*
X24999905Y-23633491D02*
X24999905Y-23933491D01*
X24849905Y-23783491D02*
X25149905Y-23783491D01*
X25183431Y-32129265D02*
X25183431Y-32429265D01*
X25033431Y-32279265D02*
X25333431Y-32279265D01*
X25321861Y-28204965D02*
X25321861Y-28504965D01*
X25171861Y-28354965D02*
X25471861Y-28354965D01*
X25751745Y-31748791D02*
X25751745Y-32048791D01*
X25601745Y-31898791D02*
X25901745Y-31898791D01*
X25860341Y-26146295D02*
X25860341Y-26446295D01*
X25710341Y-26296295D02*
X26010341Y-26296295D01*
X25890175Y-27824491D02*
X25890175Y-28124491D01*
X25740175Y-27974491D02*
X26040175Y-27974491D01*
X26182921Y-29968995D02*
X26182921Y-30268995D01*
X26032921Y-30118995D02*
X26332921Y-30118995D01*
X26294681Y-23617725D02*
X26294681Y-23917725D01*
X26144681Y-23767725D02*
X26444681Y-23767725D01*
X26428655Y-25765821D02*
X26428655Y-26065821D01*
X26278655Y-25915821D02*
X26578655Y-25915821D01*
X26511851Y-33794235D02*
X26511851Y-34094235D01*
X26361851Y-33944235D02*
X26661851Y-33944235D01*
X26751235Y-29588521D02*
X26751235Y-29888521D01*
X26601235Y-29738521D02*
X26901235Y-29738521D01*
X26862995Y-23237251D02*
X26862995Y-23537251D01*
X26712995Y-23387251D02*
X27012995Y-23387251D01*
X27047791Y-31733025D02*
X27047791Y-32033025D01*
X26897791Y-31883025D02*
X27197791Y-31883025D01*
X27080165Y-33413761D02*
X27080165Y-33713761D01*
X26930165Y-33563761D02*
X27230165Y-33563761D01*
X27184951Y-27809995D02*
X27184951Y-28109995D01*
X27034951Y-27959995D02*
X27334951Y-27959995D01*
X27616105Y-31352551D02*
X27616105Y-31652551D01*
X27466105Y-31502551D02*
X27766105Y-31502551D01*
X27753265Y-27429521D02*
X27753265Y-27729521D01*
X27603265Y-27579521D02*
X27903265Y-27579521D01*
X27910155Y-25638620D02*
X27910155Y-25938620D01*
X27760155Y-25788620D02*
X28060155Y-25788620D01*
X28273375Y-29599750D02*
X28273375Y-29899750D01*
X28123375Y-29749750D02*
X28423375Y-29749750D01*
X28415615Y-23249750D02*
X28415615Y-23549750D01*
X28265615Y-23399750D02*
X28565615Y-23399750D01*
X28545155Y-25384620D02*
X28545155Y-25684620D01*
X28395155Y-25534620D02*
X28695155Y-25534620D01*
X28908375Y-29345750D02*
X28908375Y-29645750D01*
X28758375Y-29495750D02*
X29058375Y-29495750D01*
X29050615Y-22995750D02*
X29050615Y-23295750D01*
X28900615Y-23145750D02*
X29200615Y-23145750D01*
X29146500Y-31504750D02*
X29146500Y-31804750D01*
X28996500Y-31654750D02*
X29296500Y-31654750D01*
X29279215Y-27694750D02*
X29279215Y-27994750D01*
X29129215Y-27844750D02*
X29429215Y-27844750D01*
X29781500Y-31250750D02*
X29781500Y-31550750D01*
X29631500Y-31400750D02*
X29931500Y-31400750D01*
X29813885Y-25789750D02*
X29813885Y-26089750D01*
X29663885Y-25939750D02*
X29963885Y-25939750D01*
X29914215Y-27440750D02*
X29914215Y-27740750D01*
X29764215Y-27590750D02*
X30064215Y-27590750D01*
X30182185Y-29599750D02*
X30182185Y-29899750D01*
X30032185Y-29749750D02*
X30332185Y-29749750D01*
X30321885Y-23249750D02*
X30321885Y-23549750D01*
X30171885Y-23399750D02*
X30471885Y-23399750D01*
X30448885Y-25535750D02*
X30448885Y-25835750D01*
X30298885Y-25685750D02*
X30598885Y-25685750D01*
X30817185Y-29345750D02*
X30817185Y-29645750D01*
X30667185Y-29495750D02*
X30967185Y-29495750D01*
X30956885Y-22995750D02*
X30956885Y-23295750D01*
X30806885Y-23145750D02*
X31106885Y-23145750D01*
X31182945Y-27694750D02*
X31182945Y-27994750D01*
X31032945Y-27844750D02*
X31332945Y-27844750D01*
X31718885Y-25789750D02*
X31718885Y-26089750D01*
X31568885Y-25939750D02*
X31868885Y-25939750D01*
X31817945Y-27440750D02*
X31817945Y-27740750D01*
X31667945Y-27590750D02*
X31967945Y-27590750D01*
X32353885Y-25535750D02*
X32353885Y-25835750D01*
X32203885Y-25685750D02*
X32503885Y-25685750D01*
X32718375Y-31504750D02*
X32718375Y-31804750D01*
X32568375Y-31654750D02*
X32868375Y-31654750D01*
X32798385Y-26551750D02*
X32798385Y-26851750D01*
X32648385Y-26701750D02*
X32948385Y-26701750D01*
X33274000Y-29599750D02*
X33274000Y-29899750D01*
X33124000Y-29749750D02*
X33424000Y-29749750D01*
X33353375Y-31250750D02*
X33353375Y-31550750D01*
X33203375Y-31400750D02*
X33503375Y-31400750D01*
X33433385Y-26297750D02*
X33433385Y-26597750D01*
X33283385Y-26447750D02*
X33583385Y-26447750D01*
X33564195Y-27694750D02*
X33564195Y-27994750D01*
X33414195Y-27844750D02*
X33714195Y-27844750D01*
X33591500Y-23408500D02*
X33591500Y-23708500D01*
X33441500Y-23558500D02*
X33741500Y-23558500D01*
X33622615Y-25789750D02*
X33622615Y-26089750D01*
X33472615Y-25939750D02*
X33772615Y-25939750D01*
X33909000Y-29345750D02*
X33909000Y-29645750D01*
X33759000Y-29495750D02*
X34059000Y-29495750D01*
X33909000Y-33409750D02*
X33909000Y-33709750D01*
X33759000Y-33559750D02*
X34059000Y-33559750D01*
X34199195Y-27440750D02*
X34199195Y-27740750D01*
X34049195Y-27590750D02*
X34349195Y-27590750D01*
X34226500Y-23154500D02*
X34226500Y-23454500D01*
X34076500Y-23304500D02*
X34376500Y-23304500D01*
X34257615Y-25535750D02*
X34257615Y-25835750D01*
X34107615Y-25685750D02*
X34407615Y-25685750D01*
X34544000Y-33155750D02*
X34544000Y-33455750D01*
X34394000Y-33305750D02*
X34694000Y-33305750D01*
X36845875Y-27694750D02*
X36845875Y-27994750D01*
X36695875Y-27844750D02*
X36995875Y-27844750D01*
X36845875Y-33409750D02*
X36845875Y-33709750D01*
X36695875Y-33559750D02*
X36995875Y-33559750D01*
X36972875Y-24170500D02*
X36972875Y-24470500D01*
X36822875Y-24320500D02*
X37122875Y-24320500D01*
X36972875Y-26551750D02*
X36972875Y-26851750D01*
X36822875Y-26701750D02*
X37122875Y-26701750D01*
X37480875Y-27440750D02*
X37480875Y-27740750D01*
X37330875Y-27590750D02*
X37630875Y-27590750D01*
X37480875Y-33155750D02*
X37480875Y-33455750D01*
X37330875Y-33305750D02*
X37630875Y-33305750D01*
X37607875Y-23916500D02*
X37607875Y-24216500D01*
X37457875Y-24066500D02*
X37757875Y-24066500D01*
X37607875Y-26297750D02*
X37607875Y-26597750D01*
X37457875Y-26447750D02*
X37757875Y-26447750D01*
X38750875Y-23408500D02*
X38750875Y-23708500D01*
X38600875Y-23558500D02*
X38900875Y-23558500D01*
X38750875Y-25789750D02*
X38750875Y-26089750D01*
X38600875Y-25939750D02*
X38900875Y-25939750D01*
X38750875Y-27694750D02*
X38750875Y-27994750D01*
X38600875Y-27844750D02*
X38900875Y-27844750D01*
X38750875Y-31504750D02*
X38750875Y-31804750D01*
X38600875Y-31654750D02*
X38900875Y-31654750D01*
X38750875Y-33409750D02*
X38750875Y-33709750D01*
X38600875Y-33559750D02*
X38900875Y-33559750D01*
X39385875Y-23154500D02*
X39385875Y-23454500D01*
X39235875Y-23304500D02*
X39535875Y-23304500D01*
X39385875Y-25535750D02*
X39385875Y-25835750D01*
X39235875Y-25685750D02*
X39535875Y-25685750D01*
X39385875Y-27440750D02*
X39385875Y-27740750D01*
X39235875Y-27590750D02*
X39535875Y-27590750D01*
X39385875Y-31250750D02*
X39385875Y-31550750D01*
X39235875Y-31400750D02*
X39535875Y-31400750D01*
X39385875Y-33155750D02*
X39385875Y-33455750D01*
X39235875Y-33305750D02*
X39535875Y-33305750D01*
X40655875Y-23408500D02*
X40655875Y-23708500D01*
X40505875Y-23558500D02*
X40805875Y-23558500D01*
X40655875Y-25789750D02*
X40655875Y-26089750D01*
X40505875Y-25939750D02*
X40805875Y-25939750D01*
X40655875Y-27694750D02*
X40655875Y-27994750D01*
X40505875Y-27844750D02*
X40805875Y-27844750D01*
X40655875Y-33409750D02*
X40655875Y-33709750D01*
X40505875Y-33559750D02*
X40805875Y-33559750D01*
X41290875Y-23154500D02*
X41290875Y-23454500D01*
X41140875Y-23304500D02*
X41440875Y-23304500D01*
X41290875Y-25535750D02*
X41290875Y-25835750D01*
X41140875Y-25685750D02*
X41440875Y-25685750D01*
X41290875Y-27440750D02*
X41290875Y-27740750D01*
X41140875Y-27590750D02*
X41440875Y-27590750D01*
X41290875Y-33155750D02*
X41290875Y-33455750D01*
X41140875Y-33305750D02*
X41440875Y-33305750D01*
X43037125Y-23408500D02*
X43037125Y-23708500D01*
X42887125Y-23558500D02*
X43187125Y-23558500D01*
X43037125Y-25789750D02*
X43037125Y-26089750D01*
X42887125Y-25939750D02*
X43187125Y-25939750D01*
X43037125Y-27694750D02*
X43037125Y-27994750D01*
X42887125Y-27844750D02*
X43187125Y-27844750D01*
X43037125Y-29599750D02*
X43037125Y-29899750D01*
X42887125Y-29749750D02*
X43187125Y-29749750D01*
X43037125Y-31504750D02*
X43037125Y-31804750D01*
X42887125Y-31654750D02*
X43187125Y-31654750D01*
X43164125Y-34171750D02*
X43164125Y-34471750D01*
X43014125Y-34321750D02*
X43314125Y-34321750D01*
X43672125Y-23154500D02*
X43672125Y-23454500D01*
X43522125Y-23304500D02*
X43822125Y-23304500D01*
X43672125Y-25535750D02*
X43672125Y-25835750D01*
X43522125Y-25685750D02*
X43822125Y-25685750D01*
X43672125Y-27440750D02*
X43672125Y-27740750D01*
X43522125Y-27590750D02*
X43822125Y-27590750D01*
X43672125Y-29345750D02*
X43672125Y-29645750D01*
X43522125Y-29495750D02*
X43822125Y-29495750D01*
X43672125Y-31250750D02*
X43672125Y-31550750D01*
X43522125Y-31400750D02*
X43822125Y-31400750D01*
X43799125Y-33917750D02*
X43799125Y-34217750D01*
X43649125Y-34067750D02*
X43949125Y-34067750D01*
X43989625Y-33409750D02*
X43989625Y-33709750D01*
X43839625Y-33559750D02*
X44139625Y-33559750D01*
X44624625Y-33155750D02*
X44624625Y-33455750D01*
X44474625Y-33305750D02*
X44774625Y-33305750D01*
X44942125Y-23408500D02*
X44942125Y-23708500D01*
X44792125Y-23558500D02*
X45092125Y-23558500D01*
X44942125Y-25789750D02*
X44942125Y-26089750D01*
X44792125Y-25939750D02*
X45092125Y-25939750D01*
X44942125Y-27694750D02*
X44942125Y-27994750D01*
X44792125Y-27844750D02*
X45092125Y-27844750D01*
X44942125Y-29599750D02*
X44942125Y-29899750D01*
X44792125Y-29749750D02*
X45092125Y-29749750D01*
X44942125Y-31504750D02*
X44942125Y-31804750D01*
X44792125Y-31654750D02*
X45092125Y-31654750D01*
X45069125Y-34171750D02*
X45069125Y-34471750D01*
X44919125Y-34321750D02*
X45219125Y-34321750D01*
X45577125Y-23154500D02*
X45577125Y-23454500D01*
X45427125Y-23304500D02*
X45727125Y-23304500D01*
X45577125Y-25535750D02*
X45577125Y-25835750D01*
X45427125Y-25685750D02*
X45727125Y-25685750D01*
X45577125Y-27440750D02*
X45577125Y-27740750D01*
X45427125Y-27590750D02*
X45727125Y-27590750D01*
X45577125Y-29345750D02*
X45577125Y-29645750D01*
X45427125Y-29495750D02*
X45727125Y-29495750D01*
X45577125Y-31250750D02*
X45577125Y-31550750D01*
X45427125Y-31400750D02*
X45727125Y-31400750D01*
X45704125Y-33917750D02*
X45704125Y-34217750D01*
X45554125Y-34067750D02*
X45854125Y-34067750D01*
X46847125Y-23408500D02*
X46847125Y-23708500D01*
X46697125Y-23558500D02*
X46997125Y-23558500D01*
X46847125Y-25789750D02*
X46847125Y-26089750D01*
X46697125Y-25939750D02*
X46997125Y-25939750D01*
X46847125Y-27694750D02*
X46847125Y-27994750D01*
X46697125Y-27844750D02*
X46997125Y-27844750D01*
X46847125Y-29599750D02*
X46847125Y-29899750D01*
X46697125Y-29749750D02*
X46997125Y-29749750D01*
X46847125Y-31504750D02*
X46847125Y-31804750D01*
X46697125Y-31654750D02*
X46997125Y-31654750D01*
X46847125Y-33409750D02*
X46847125Y-33709750D01*
X46697125Y-33559750D02*
X46997125Y-33559750D01*
X47482125Y-23154500D02*
X47482125Y-23454500D01*
X47332125Y-23304500D02*
X47632125Y-23304500D01*
X47482125Y-25535750D02*
X47482125Y-25835750D01*
X47332125Y-25685750D02*
X47632125Y-25685750D01*
X47482125Y-27440750D02*
X47482125Y-27740750D01*
X47332125Y-27590750D02*
X47632125Y-27590750D01*
X47482125Y-29345750D02*
X47482125Y-29645750D01*
X47332125Y-29495750D02*
X47632125Y-29495750D01*
X47482125Y-31250750D02*
X47482125Y-31550750D01*
X47332125Y-31400750D02*
X47632125Y-31400750D01*
X47482125Y-33155750D02*
X47482125Y-33455750D01*
X47332125Y-33305750D02*
X47632125Y-33305750D01*
X48625125Y-28647250D02*
X48625125Y-28947250D01*
X48475125Y-28797250D02*
X48775125Y-28797250D01*
X48625125Y-32457250D02*
X48625125Y-32757250D01*
X48475125Y-32607250D02*
X48775125Y-32607250D01*
X48752125Y-23408500D02*
X48752125Y-23708500D01*
X48602125Y-23558500D02*
X48902125Y-23558500D01*
X48752125Y-25789750D02*
X48752125Y-26089750D01*
X48602125Y-25939750D02*
X48902125Y-25939750D01*
X48879125Y-29282250D02*
X48879125Y-29582250D01*
X48729125Y-29432250D02*
X49029125Y-29432250D01*
X48879125Y-33092250D02*
X48879125Y-33392250D01*
X48729125Y-33242250D02*
X49029125Y-33242250D01*
X49387125Y-23154500D02*
X49387125Y-23454500D01*
X49237125Y-23304500D02*
X49537125Y-23304500D01*
X49387125Y-25535750D02*
X49387125Y-25835750D01*
X49237125Y-25685750D02*
X49537125Y-25685750D01*
X49387125Y-27567750D02*
X49387125Y-27867750D01*
X49237125Y-27717750D02*
X49537125Y-27717750D01*
X49387125Y-29472750D02*
X49387125Y-29772750D01*
X49237125Y-29622750D02*
X49537125Y-29622750D01*
X49387125Y-31377750D02*
X49387125Y-31677750D01*
X49237125Y-31527750D02*
X49537125Y-31527750D01*
X49387125Y-33282750D02*
X49387125Y-33582750D01*
X49237125Y-33432750D02*
X49537125Y-33432750D01*
X49641125Y-28202750D02*
X49641125Y-28502750D01*
X49491125Y-28352750D02*
X49791125Y-28352750D01*
X49641125Y-30107750D02*
X49641125Y-30407750D01*
X49491125Y-30257750D02*
X49791125Y-30257750D01*
X49641125Y-32012750D02*
X49641125Y-32312750D01*
X49491125Y-32162750D02*
X49791125Y-32162750D01*
X49641125Y-33917750D02*
X49641125Y-34217750D01*
X49491125Y-34067750D02*
X49791125Y-34067750D01*
D15*
X818964Y-23221764D02*
X818964Y-23006236D01*
X603436Y-23006236D01*
X603436Y-23221764D01*
X818964Y-23221764D01*
X3206564Y-23221764D02*
X3206564Y-23006236D01*
X2991036Y-23006236D01*
X2991036Y-23221764D01*
X3206564Y-23221764D01*
X5343339Y-31318014D02*
X5343339Y-31102486D01*
X5127811Y-31102486D01*
X5127811Y-31318014D01*
X5343339Y-31318014D01*
X7730939Y-31318014D02*
X7730939Y-31102486D01*
X7515411Y-31102486D01*
X7515411Y-31318014D01*
X7730939Y-31318014D01*
X13460404Y-35302695D02*
X13460404Y-35087167D01*
X13244876Y-35087167D01*
X13244876Y-35302695D01*
X13460404Y-35302695D01*
X13692560Y-35352225D02*
X13692560Y-35136697D01*
X13477032Y-35136697D01*
X13477032Y-35352225D01*
X13692560Y-35352225D01*
X15795829Y-35799105D02*
X15795829Y-35583577D01*
X15580301Y-35583577D01*
X15580301Y-35799105D01*
X15795829Y-35799105D01*
X16027985Y-35848635D02*
X16027985Y-35633107D01*
X15812457Y-35633107D01*
X15812457Y-35848635D01*
X16027985Y-35848635D01*
X22064023Y-35993415D02*
X22064023Y-35777887D01*
X21848495Y-35777887D01*
X21848495Y-35993415D01*
X22064023Y-35993415D01*
X24399448Y-35497005D02*
X24399448Y-35281477D01*
X24183920Y-35281477D01*
X24183920Y-35497005D01*
X24399448Y-35497005D01*
X31966349Y-25603014D02*
X31966349Y-25387486D01*
X31750821Y-25387486D01*
X31750821Y-25603014D01*
X31966349Y-25603014D01*
X32013339Y-31318014D02*
X32013339Y-31102486D01*
X31797811Y-31102486D01*
X31797811Y-31318014D01*
X32013339Y-31318014D01*
X32568964Y-29413014D02*
X32568964Y-29197486D01*
X32353436Y-29197486D01*
X32353436Y-29413014D01*
X32568964Y-29413014D01*
X34353949Y-25603014D02*
X34353949Y-25387486D01*
X34138421Y-25387486D01*
X34138421Y-25603014D01*
X34353949Y-25603014D01*
X34400939Y-31318014D02*
X34400939Y-31102486D01*
X34185411Y-31102486D01*
X34185411Y-31318014D01*
X34400939Y-31318014D01*
X34956564Y-29413014D02*
X34956564Y-29197486D01*
X34741036Y-29197486D01*
X34741036Y-29413014D01*
X34956564Y-29413014D01*
X43284589Y-34620014D02*
X43284589Y-34404486D01*
X43069061Y-34404486D01*
X43069061Y-34620014D01*
X43284589Y-34620014D01*
X45672189Y-34620014D02*
X45672189Y-34404486D01*
X45456661Y-34404486D01*
X45456661Y-34620014D01*
X45672189Y-34620014D01*
X49939389Y-27965214D02*
X49939389Y-27749686D01*
X49723861Y-27749686D01*
X49723861Y-27965214D01*
X49939389Y-27965214D01*
X49939389Y-30352814D02*
X49939389Y-30137286D01*
X49723861Y-30137286D01*
X49723861Y-30352814D01*
X49939389Y-30352814D01*
X49939389Y-31775214D02*
X49939389Y-31559686D01*
X49723861Y-31559686D01*
X49723861Y-31775214D01*
X49939389Y-31775214D01*
X49939389Y-34162814D02*
X49939389Y-33947286D01*
X49723861Y-33947286D01*
X49723861Y-34162814D01*
X49939389Y-34162814D01*
D16*
X711200Y-24837390D02*
X910590Y-24638000D01*
X711200Y-24438610D01*
X511810Y-24638000D01*
X711200Y-24837390D01*
X952500Y-24011890D02*
X1151890Y-23812500D01*
X952500Y-23613110D01*
X753110Y-23812500D01*
X952500Y-24011890D01*
X952500Y-26393140D02*
X1151890Y-26193750D01*
X952500Y-25994360D01*
X753110Y-26193750D01*
X952500Y-26393140D01*
X952500Y-28298140D02*
X1151890Y-28098750D01*
X952500Y-27899360D01*
X753110Y-28098750D01*
X952500Y-28298140D01*
X952500Y-30203140D02*
X1151890Y-30003750D01*
X952500Y-29804360D01*
X753110Y-30003750D01*
X952500Y-30203140D01*
X952500Y-32108140D02*
X1151890Y-31908750D01*
X952500Y-31709360D01*
X753110Y-31908750D01*
X952500Y-32108140D01*
X952500Y-34013140D02*
X1151890Y-33813750D01*
X952500Y-33614360D01*
X753110Y-33813750D01*
X952500Y-34013140D01*
X1905000Y-24011890D02*
X2104390Y-23812500D01*
X1905000Y-23613110D01*
X1705610Y-23812500D01*
X1905000Y-24011890D01*
X2857500Y-24011890D02*
X3056890Y-23812500D01*
X2857500Y-23613110D01*
X2658110Y-23812500D01*
X2857500Y-24011890D01*
X2857500Y-26393140D02*
X3056890Y-26193750D01*
X2857500Y-25994360D01*
X2658110Y-26193750D01*
X2857500Y-26393140D01*
X2857500Y-28298140D02*
X3056890Y-28098750D01*
X2857500Y-27899360D01*
X2658110Y-28098750D01*
X2857500Y-28298140D01*
X2857500Y-30203140D02*
X3056890Y-30003750D01*
X2857500Y-29804360D01*
X2658110Y-30003750D01*
X2857500Y-30203140D01*
X2857500Y-32108140D02*
X3056890Y-31908750D01*
X2857500Y-31709360D01*
X2658110Y-31908750D01*
X2857500Y-32108140D01*
X2857500Y-34013140D02*
X3056890Y-33813750D01*
X2857500Y-33614360D01*
X2658110Y-33813750D01*
X2857500Y-34013140D01*
X3098800Y-24837390D02*
X3298190Y-24638000D01*
X3098800Y-24438610D01*
X2899410Y-24638000D01*
X3098800Y-24837390D01*
X5235575Y-32933640D02*
X5434965Y-32734250D01*
X5235575Y-32534860D01*
X5036185Y-32734250D01*
X5235575Y-32933640D01*
X5476875Y-24011890D02*
X5676265Y-23812500D01*
X5476875Y-23613110D01*
X5277485Y-23812500D01*
X5476875Y-24011890D01*
X5715000Y-34013140D02*
X5914390Y-33813750D01*
X5715000Y-33614360D01*
X5515610Y-33813750D01*
X5715000Y-34013140D01*
X5873750Y-30203140D02*
X6073140Y-30003750D01*
X5873750Y-29804360D01*
X5674360Y-30003750D01*
X5873750Y-30203140D01*
X6350000Y-30203140D02*
X6549390Y-30003750D01*
X6350000Y-29804360D01*
X6150610Y-30003750D01*
X6350000Y-30203140D01*
X6429375Y-32108140D02*
X6628765Y-31908750D01*
X6429375Y-31709360D01*
X6229985Y-31908750D01*
X6429375Y-32108140D01*
X6472555Y-26393140D02*
X6671945Y-26193750D01*
X6472555Y-25994360D01*
X6273165Y-26193750D01*
X6472555Y-26393140D01*
X6532245Y-28296870D02*
X6731635Y-28097480D01*
X6532245Y-27898090D01*
X6332855Y-28097480D01*
X6532245Y-28296870D01*
X7623175Y-32933640D02*
X7822565Y-32734250D01*
X7623175Y-32534860D01*
X7423785Y-32734250D01*
X7623175Y-32933640D01*
X7858125Y-23853140D02*
X8057515Y-23653750D01*
X7858125Y-23454360D01*
X7658735Y-23653750D01*
X7858125Y-23853140D01*
X8378022Y-26393140D02*
X8577412Y-26193750D01*
X8378022Y-25994360D01*
X8178632Y-26193750D01*
X8378022Y-26393140D01*
X8913495Y-28298140D02*
X9112885Y-28098750D01*
X8913495Y-27899360D01*
X8714105Y-28098750D01*
X8913495Y-28298140D01*
X8969375Y-30203140D02*
X9168765Y-30003750D01*
X8969375Y-29804360D01*
X8769985Y-30003750D01*
X8969375Y-30203140D01*
X9525000Y-32108140D02*
X9724390Y-31908750D01*
X9525000Y-31709360D01*
X9325610Y-31908750D01*
X9525000Y-32108140D01*
X9763125Y-23853140D02*
X9962515Y-23653750D01*
X9763125Y-23454360D01*
X9563735Y-23653750D01*
X9763125Y-23853140D01*
X10282555Y-26234390D02*
X10481945Y-26035000D01*
X10282555Y-25835610D01*
X10083165Y-26035000D01*
X10282555Y-26234390D01*
X10963275Y-28329890D02*
X11162665Y-28130500D01*
X10963275Y-27931110D01*
X10763885Y-28130500D01*
X10963275Y-28329890D01*
X11033125Y-30293310D02*
X11232515Y-30093920D01*
X11033125Y-29894530D01*
X10833735Y-30093920D01*
X11033125Y-30293310D01*
X11403965Y-34265362D02*
X11603355Y-34065972D01*
X11403965Y-33866582D01*
X11204575Y-34065972D01*
X11403965Y-34265362D01*
X11566525Y-32353250D02*
X11765915Y-32153860D01*
X11566525Y-31954470D01*
X11367135Y-32153860D01*
X11566525Y-32353250D01*
X11637645Y-34315400D02*
X11837035Y-34116010D01*
X11637645Y-33916620D01*
X11438255Y-34116010D01*
X11637645Y-34315400D01*
X11857355Y-24137620D02*
X12056745Y-23938230D01*
X11857355Y-23738840D01*
X11657965Y-23938230D01*
X11857355Y-24137620D01*
X12291695Y-26663650D02*
X12491085Y-26464260D01*
X12291695Y-26264870D01*
X12092305Y-26464260D01*
X12291695Y-26663650D01*
X12826365Y-28726130D02*
X13025755Y-28526740D01*
X12826365Y-28327350D01*
X12626975Y-28526740D01*
X12826365Y-28726130D01*
X12896215Y-30689550D02*
X13095605Y-30490160D01*
X12896215Y-30290770D01*
X12696825Y-30490160D01*
X12896215Y-30689550D01*
X13428345Y-32748220D02*
X13627735Y-32548830D01*
X13428345Y-32349440D01*
X13228955Y-32548830D01*
X13428345Y-32748220D01*
X13669497Y-33903624D02*
X13868887Y-33704234D01*
X13669497Y-33504844D01*
X13470107Y-33704234D01*
X13669497Y-33903624D01*
X13719175Y-24532590D02*
X13918565Y-24333200D01*
X13719175Y-24133810D01*
X13519785Y-24333200D01*
X13719175Y-24532590D01*
X13901653Y-33953154D02*
X14101043Y-33753764D01*
X13901653Y-33554374D01*
X13702263Y-33753764D01*
X13901653Y-33953154D01*
X14154785Y-27061160D02*
X14354175Y-26861770D01*
X14154785Y-26662380D01*
X13955395Y-26861770D01*
X14154785Y-27061160D01*
X14665579Y-34959290D02*
X14864969Y-34759900D01*
X14665579Y-34560510D01*
X14466189Y-34759900D01*
X14665579Y-34959290D01*
X14688185Y-29123640D02*
X14887575Y-28924250D01*
X14688185Y-28724860D01*
X14488795Y-28924250D01*
X14688185Y-29123640D01*
X14755495Y-31081980D02*
X14954885Y-30882590D01*
X14755495Y-30683200D01*
X14556105Y-30882590D01*
X14755495Y-31081980D01*
X14897735Y-35008820D02*
X15097125Y-34809430D01*
X14897735Y-34610040D01*
X14698345Y-34809430D01*
X14897735Y-35008820D01*
X15292705Y-33144460D02*
X15492095Y-32945070D01*
X15292705Y-32745680D01*
X15093315Y-32945070D01*
X15292705Y-33144460D01*
X16004923Y-34400034D02*
X16204313Y-34200644D01*
X16004923Y-34001254D01*
X15805533Y-34200644D01*
X16004923Y-34400034D01*
X16019145Y-27457400D02*
X16218535Y-27258010D01*
X16019145Y-27058620D01*
X15819755Y-27258010D01*
X16019145Y-27457400D01*
X16045815Y-25029160D02*
X16245205Y-24829770D01*
X16045815Y-24630380D01*
X15846425Y-24829770D01*
X16045815Y-25029160D01*
X16237079Y-34449564D02*
X16436469Y-34250174D01*
X16237079Y-34050784D01*
X16037689Y-34250174D01*
X16237079Y-34449564D01*
X16552545Y-29514800D02*
X16751935Y-29315410D01*
X16552545Y-29116020D01*
X16353155Y-29315410D01*
X16552545Y-29514800D01*
X16619855Y-31478220D02*
X16819245Y-31278830D01*
X16619855Y-31079440D01*
X16420465Y-31278830D01*
X16619855Y-31478220D01*
X17155795Y-33539430D02*
X17355185Y-33340040D01*
X17155795Y-33140650D01*
X16956405Y-33340040D01*
X17155795Y-33539430D01*
X17693005Y-35601910D02*
X17892395Y-35402520D01*
X17693005Y-35203130D01*
X17493615Y-35402520D01*
X17693005Y-35601910D01*
X17883505Y-27851100D02*
X18082895Y-27651710D01*
X17883505Y-27452320D01*
X17684115Y-27651710D01*
X17883505Y-27851100D01*
X17907635Y-25425400D02*
X18107025Y-25226010D01*
X17907635Y-25026620D01*
X17708245Y-25226010D01*
X17907635Y-25425400D01*
X20019308Y-33837055D02*
X20218698Y-33637665D01*
X20019308Y-33438275D01*
X19819918Y-33637665D01*
X20019308Y-33837055D01*
X20160615Y-29912310D02*
X20360005Y-29712920D01*
X20160615Y-29513530D01*
X19961225Y-29712920D01*
X20160615Y-29912310D01*
X20666075Y-25424130D02*
X20865465Y-25224740D01*
X20666075Y-25025350D01*
X20466685Y-25224740D01*
X20666075Y-25424130D01*
X20695285Y-27851100D02*
X20894675Y-27651710D01*
X20695285Y-27452320D01*
X20495895Y-27651710D01*
X20695285Y-27851100D01*
X21021675Y-31676340D02*
X21221065Y-31476950D01*
X21021675Y-31277560D01*
X20822285Y-31476950D01*
X21021675Y-31676340D01*
X21639401Y-34594344D02*
X21838791Y-34394954D01*
X21639401Y-34195564D01*
X21440011Y-34394954D01*
X21639401Y-34594344D01*
X21882735Y-33441640D02*
X22082125Y-33242250D01*
X21882735Y-33042860D01*
X21683345Y-33242250D01*
X21882735Y-33441640D01*
X22022435Y-29514800D02*
X22221825Y-29315410D01*
X22022435Y-29116020D01*
X21823045Y-29315410D01*
X22022435Y-29514800D01*
X22529165Y-25027890D02*
X22728555Y-24828500D01*
X22529165Y-24629110D01*
X22329775Y-24828500D01*
X22529165Y-25027890D01*
X22559645Y-27456130D02*
X22759035Y-27256740D01*
X22559645Y-27057350D01*
X22360255Y-27256740D01*
X22559645Y-27456130D01*
X22884765Y-31278830D02*
X23084155Y-31079440D01*
X22884765Y-30880050D01*
X22685375Y-31079440D01*
X22884765Y-31278830D01*
X22978745Y-35153600D02*
X23178135Y-34954210D01*
X22978745Y-34754820D01*
X22779355Y-34954210D01*
X22978745Y-35153600D01*
X23747095Y-33044130D02*
X23946485Y-32844740D01*
X23747095Y-32645350D01*
X23547705Y-32844740D01*
X23747095Y-33044130D01*
X23884255Y-29119830D02*
X24083645Y-28920440D01*
X23884255Y-28721050D01*
X23684865Y-28920440D01*
X23884255Y-29119830D01*
X23974826Y-34097934D02*
X24174216Y-33898544D01*
X23974826Y-33699154D01*
X23775436Y-33898544D01*
X23974826Y-34097934D01*
X24420195Y-27058620D02*
X24619585Y-26859230D01*
X24420195Y-26659840D01*
X24220805Y-26859230D01*
X24420195Y-27058620D01*
X24747855Y-30881320D02*
X24947245Y-30681930D01*
X24747855Y-30482540D01*
X24548465Y-30681930D01*
X24747855Y-30881320D01*
X24857075Y-24532590D02*
X25056465Y-24333200D01*
X24857075Y-24133810D01*
X24657685Y-24333200D01*
X24857075Y-24532590D01*
X25608915Y-32647890D02*
X25808305Y-32448500D01*
X25608915Y-32249110D01*
X25409525Y-32448500D01*
X25608915Y-32647890D01*
X25747345Y-28723590D02*
X25946735Y-28524200D01*
X25747345Y-28324810D01*
X25547955Y-28524200D01*
X25747345Y-28723590D01*
X26285825Y-26664920D02*
X26485215Y-26465530D01*
X26285825Y-26266140D01*
X26086435Y-26465530D01*
X26285825Y-26664920D01*
X26608405Y-30487620D02*
X26807795Y-30288230D01*
X26608405Y-30088840D01*
X26409015Y-30288230D01*
X26608405Y-30487620D01*
X26720165Y-24136350D02*
X26919555Y-23936960D01*
X26720165Y-23737570D01*
X26520775Y-23936960D01*
X26720165Y-24136350D01*
X26937335Y-34312860D02*
X27136725Y-34113470D01*
X26937335Y-33914080D01*
X26737945Y-34113470D01*
X26937335Y-34312860D01*
X27473275Y-32251650D02*
X27672665Y-32052260D01*
X27473275Y-31852870D01*
X27273885Y-32052260D01*
X27473275Y-32251650D01*
X27610435Y-28328620D02*
X27809825Y-28129230D01*
X27610435Y-27929840D01*
X27411045Y-28129230D01*
X27610435Y-28328620D01*
X28291155Y-26242010D02*
X28490545Y-26042620D01*
X28291155Y-25843230D01*
X28091765Y-26042620D01*
X28291155Y-26242010D01*
X28654375Y-30203140D02*
X28853765Y-30003750D01*
X28654375Y-29804360D01*
X28454985Y-30003750D01*
X28654375Y-30203140D01*
X28796615Y-23853140D02*
X28996005Y-23653750D01*
X28796615Y-23454360D01*
X28597225Y-23653750D01*
X28796615Y-23853140D01*
X29527500Y-32108140D02*
X29726890Y-31908750D01*
X29527500Y-31709360D01*
X29328110Y-31908750D01*
X29527500Y-32108140D01*
X29660215Y-28298140D02*
X29859605Y-28098750D01*
X29660215Y-27899360D01*
X29460825Y-28098750D01*
X29660215Y-28298140D01*
X30194885Y-26393140D02*
X30394275Y-26193750D01*
X30194885Y-25994360D01*
X29995495Y-26193750D01*
X30194885Y-26393140D01*
X30563185Y-30203140D02*
X30762575Y-30003750D01*
X30563185Y-29804360D01*
X30363795Y-30003750D01*
X30563185Y-30203140D01*
X30702885Y-23853140D02*
X30902275Y-23653750D01*
X30702885Y-23454360D01*
X30503495Y-23653750D01*
X30702885Y-23853140D01*
X31563945Y-28298140D02*
X31763335Y-28098750D01*
X31563945Y-27899360D01*
X31364555Y-28098750D01*
X31563945Y-28298140D01*
X31858585Y-27218640D02*
X32057975Y-27019250D01*
X31858585Y-26819860D01*
X31659195Y-27019250D01*
X31858585Y-27218640D01*
X31905575Y-32933640D02*
X32104965Y-32734250D01*
X31905575Y-32534860D01*
X31706185Y-32734250D01*
X31905575Y-32933640D01*
X32099885Y-26393140D02*
X32299275Y-26193750D01*
X32099885Y-25994360D01*
X31900495Y-26193750D01*
X32099885Y-26393140D01*
X32461200Y-31028640D02*
X32660590Y-30829250D01*
X32461200Y-30629860D01*
X32261810Y-30829250D01*
X32461200Y-31028640D01*
X33052385Y-26393140D02*
X33251775Y-26193750D01*
X33052385Y-25994360D01*
X32852995Y-26193750D01*
X33052385Y-26393140D01*
X33099375Y-32108140D02*
X33298765Y-31908750D01*
X33099375Y-31709360D01*
X32899985Y-31908750D01*
X33099375Y-32108140D01*
X33655000Y-30203140D02*
X33854390Y-30003750D01*
X33655000Y-29804360D01*
X33455610Y-30003750D01*
X33655000Y-30203140D01*
X33945195Y-28298140D02*
X34144585Y-28098750D01*
X33945195Y-27899360D01*
X33745805Y-28098750D01*
X33945195Y-28298140D01*
X33972500Y-24011890D02*
X34171890Y-23812500D01*
X33972500Y-23613110D01*
X33773110Y-23812500D01*
X33972500Y-24011890D01*
X34003615Y-26393140D02*
X34203005Y-26193750D01*
X34003615Y-25994360D01*
X33804225Y-26193750D01*
X34003615Y-26393140D01*
X34246185Y-27218640D02*
X34445575Y-27019250D01*
X34246185Y-26819860D01*
X34046795Y-27019250D01*
X34246185Y-27218640D01*
X34290000Y-34013140D02*
X34489390Y-33813750D01*
X34290000Y-33614360D01*
X34090610Y-33813750D01*
X34290000Y-34013140D01*
X34293175Y-32933640D02*
X34492565Y-32734250D01*
X34293175Y-32534860D01*
X34093785Y-32734250D01*
X34293175Y-32933640D01*
X34848800Y-31028640D02*
X35048190Y-30829250D01*
X34848800Y-30629860D01*
X34649410Y-30829250D01*
X34848800Y-31028640D01*
X37226875Y-24011890D02*
X37426265Y-23812500D01*
X37226875Y-23613110D01*
X37027485Y-23812500D01*
X37226875Y-24011890D01*
X37226875Y-26393140D02*
X37426265Y-26193750D01*
X37226875Y-25994360D01*
X37027485Y-26193750D01*
X37226875Y-26393140D01*
X37226875Y-28298140D02*
X37426265Y-28098750D01*
X37226875Y-27899360D01*
X37027485Y-28098750D01*
X37226875Y-28298140D01*
X37226875Y-34013140D02*
X37426265Y-33813750D01*
X37226875Y-33614360D01*
X37027485Y-33813750D01*
X37226875Y-34013140D01*
X39131875Y-24011890D02*
X39331265Y-23812500D01*
X39131875Y-23613110D01*
X38932485Y-23812500D01*
X39131875Y-24011890D01*
X39131875Y-26393140D02*
X39331265Y-26193750D01*
X39131875Y-25994360D01*
X38932485Y-26193750D01*
X39131875Y-26393140D01*
X39131875Y-28298140D02*
X39331265Y-28098750D01*
X39131875Y-27899360D01*
X38932485Y-28098750D01*
X39131875Y-28298140D01*
X39131875Y-32108140D02*
X39331265Y-31908750D01*
X39131875Y-31709360D01*
X38932485Y-31908750D01*
X39131875Y-32108140D01*
X39131875Y-34013140D02*
X39331265Y-33813750D01*
X39131875Y-33614360D01*
X38932485Y-33813750D01*
X39131875Y-34013140D01*
X41036875Y-24011890D02*
X41236265Y-23812500D01*
X41036875Y-23613110D01*
X40837485Y-23812500D01*
X41036875Y-24011890D01*
X41036875Y-26393140D02*
X41236265Y-26193750D01*
X41036875Y-25994360D01*
X40837485Y-26193750D01*
X41036875Y-26393140D01*
X41036875Y-28298140D02*
X41236265Y-28098750D01*
X41036875Y-27899360D01*
X40837485Y-28098750D01*
X41036875Y-28298140D01*
X41036875Y-34013140D02*
X41236265Y-33813750D01*
X41036875Y-33614360D01*
X40837485Y-33813750D01*
X41036875Y-34013140D01*
X43176825Y-33187640D02*
X43376215Y-32988250D01*
X43176825Y-32788860D01*
X42977435Y-32988250D01*
X43176825Y-33187640D01*
X43418125Y-24011890D02*
X43617515Y-23812500D01*
X43418125Y-23613110D01*
X43218735Y-23812500D01*
X43418125Y-24011890D01*
X43418125Y-26393140D02*
X43617515Y-26193750D01*
X43418125Y-25994360D01*
X43218735Y-26193750D01*
X43418125Y-26393140D01*
X43418125Y-28298140D02*
X43617515Y-28098750D01*
X43418125Y-27899360D01*
X43218735Y-28098750D01*
X43418125Y-28298140D01*
X43418125Y-30203140D02*
X43617515Y-30003750D01*
X43418125Y-29804360D01*
X43218735Y-30003750D01*
X43418125Y-30203140D01*
X43418125Y-32108140D02*
X43617515Y-31908750D01*
X43418125Y-31709360D01*
X43218735Y-31908750D01*
X43418125Y-32108140D01*
X43418125Y-34013140D02*
X43617515Y-33813750D01*
X43418125Y-33614360D01*
X43218735Y-33813750D01*
X43418125Y-34013140D01*
X44370625Y-34013140D02*
X44570015Y-33813750D01*
X44370625Y-33614360D01*
X44171235Y-33813750D01*
X44370625Y-34013140D01*
X45323125Y-24011890D02*
X45522515Y-23812500D01*
X45323125Y-23613110D01*
X45123735Y-23812500D01*
X45323125Y-24011890D01*
X45323125Y-26393140D02*
X45522515Y-26193750D01*
X45323125Y-25994360D01*
X45123735Y-26193750D01*
X45323125Y-26393140D01*
X45323125Y-28298140D02*
X45522515Y-28098750D01*
X45323125Y-27899360D01*
X45123735Y-28098750D01*
X45323125Y-28298140D01*
X45323125Y-30203140D02*
X45522515Y-30003750D01*
X45323125Y-29804360D01*
X45123735Y-30003750D01*
X45323125Y-30203140D01*
X45323125Y-32108140D02*
X45522515Y-31908750D01*
X45323125Y-31709360D01*
X45123735Y-31908750D01*
X45323125Y-32108140D01*
X45323125Y-34013140D02*
X45522515Y-33813750D01*
X45323125Y-33614360D01*
X45123735Y-33813750D01*
X45323125Y-34013140D01*
X45564425Y-33187640D02*
X45763815Y-32988250D01*
X45564425Y-32788860D01*
X45365035Y-32988250D01*
X45564425Y-33187640D01*
X47228125Y-24011890D02*
X47427515Y-23812500D01*
X47228125Y-23613110D01*
X47028735Y-23812500D01*
X47228125Y-24011890D01*
X47228125Y-26393140D02*
X47427515Y-26193750D01*
X47228125Y-25994360D01*
X47028735Y-26193750D01*
X47228125Y-26393140D01*
X47228125Y-28298140D02*
X47427515Y-28098750D01*
X47228125Y-27899360D01*
X47028735Y-28098750D01*
X47228125Y-28298140D01*
X47228125Y-30203140D02*
X47427515Y-30003750D01*
X47228125Y-29804360D01*
X47028735Y-30003750D01*
X47228125Y-30203140D01*
X47228125Y-32108140D02*
X47427515Y-31908750D01*
X47228125Y-31709360D01*
X47028735Y-31908750D01*
X47228125Y-32108140D01*
X47228125Y-34013140D02*
X47427515Y-33813750D01*
X47228125Y-33614360D01*
X47028735Y-33813750D01*
X47228125Y-34013140D01*
X48307625Y-28056840D02*
X48507015Y-27857450D01*
X48307625Y-27658060D01*
X48108235Y-27857450D01*
X48307625Y-28056840D01*
X48307625Y-30444440D02*
X48507015Y-30245050D01*
X48307625Y-30045660D01*
X48108235Y-30245050D01*
X48307625Y-30444440D01*
X48307625Y-31866840D02*
X48507015Y-31667450D01*
X48307625Y-31468060D01*
X48108235Y-31667450D01*
X48307625Y-31866840D01*
X48307625Y-34254440D02*
X48507015Y-34055050D01*
X48307625Y-33855660D01*
X48108235Y-34055050D01*
X48307625Y-34254440D01*
X49133125Y-24011890D02*
X49332515Y-23812500D01*
X49133125Y-23613110D01*
X48933735Y-23812500D01*
X49133125Y-24011890D01*
X49133125Y-26393140D02*
X49332515Y-26193750D01*
X49133125Y-25994360D01*
X48933735Y-26193750D01*
X49133125Y-26393140D01*
X49133125Y-28298140D02*
X49332515Y-28098750D01*
X49133125Y-27899360D01*
X48933735Y-28098750D01*
X49133125Y-28298140D01*
X49133125Y-29250640D02*
X49332515Y-29051250D01*
X49133125Y-28851860D01*
X48933735Y-29051250D01*
X49133125Y-29250640D01*
X49133125Y-30203140D02*
X49332515Y-30003750D01*
X49133125Y-29804360D01*
X48933735Y-30003750D01*
X49133125Y-30203140D01*
X49133125Y-32108140D02*
X49332515Y-31908750D01*
X49133125Y-31709360D01*
X48933735Y-31908750D01*
X49133125Y-32108140D01*
X49133125Y-33060640D02*
X49332515Y-32861250D01*
X49133125Y-32661860D01*
X48933735Y-32861250D01*
X49133125Y-33060640D01*
X49133125Y-34013140D02*
X49332515Y-33813750D01*
X49133125Y-33614360D01*
X48933735Y-33813750D01*
X49133125Y-34013140D01*
D11*
X302619Y-36840476D02*
X302619Y-36640476D01*
X350238Y-36640476D01*
X378809Y-36650000D01*
X397857Y-36669048D01*
X407381Y-36688095D01*
X416905Y-36726190D01*
X416905Y-36754762D01*
X407381Y-36792857D01*
X397857Y-36811905D01*
X378809Y-36830952D01*
X350238Y-36840476D01*
X302619Y-36840476D01*
X502619Y-36840476D02*
X502619Y-36707143D01*
X502619Y-36745238D02*
X512143Y-36726190D01*
X521667Y-36716667D01*
X540714Y-36707143D01*
X559762Y-36707143D01*
X626429Y-36840476D02*
X626429Y-36707143D01*
X626429Y-36640476D02*
X616905Y-36650000D01*
X626429Y-36659524D01*
X635952Y-36650000D01*
X626429Y-36640476D01*
X626429Y-36659524D01*
X750238Y-36840476D02*
X731190Y-36830952D01*
X721667Y-36811905D01*
X721667Y-36640476D01*
X855000Y-36840476D02*
X835952Y-36830952D01*
X826428Y-36811905D01*
X826428Y-36640476D01*
X1083571Y-36840476D02*
X1083571Y-36640476D01*
X1150238Y-36783333D01*
X1216905Y-36640476D01*
X1216905Y-36840476D01*
X1397857Y-36840476D02*
X1397857Y-36735714D01*
X1388333Y-36716667D01*
X1369286Y-36707143D01*
X1331190Y-36707143D01*
X1312143Y-36716667D01*
X1397857Y-36830952D02*
X1378810Y-36840476D01*
X1331190Y-36840476D01*
X1312143Y-36830952D01*
X1302619Y-36811905D01*
X1302619Y-36792857D01*
X1312143Y-36773810D01*
X1331190Y-36764286D01*
X1378810Y-36764286D01*
X1397857Y-36754762D01*
X1493095Y-36707143D02*
X1493095Y-36907143D01*
X1493095Y-36716667D02*
X1512143Y-36707143D01*
X1550238Y-36707143D01*
X1569286Y-36716667D01*
X1578809Y-36726190D01*
X1588333Y-36745238D01*
X1588333Y-36802381D01*
X1578809Y-36821429D01*
X1569286Y-36830952D01*
X1550238Y-36840476D01*
X1512143Y-36840476D01*
X1493095Y-36830952D01*
X1674048Y-36821429D02*
X1683571Y-36830952D01*
X1674048Y-36840476D01*
X1664524Y-36830952D01*
X1674048Y-36821429D01*
X1674048Y-36840476D01*
X1674048Y-36716667D02*
X1683571Y-36726190D01*
X1674048Y-36735714D01*
X1664524Y-36726190D01*
X1674048Y-36716667D01*
X1674048Y-36735714D01*
D12*
X-105000Y-37095000D02*
X45000Y-37245000D01*
X45000Y-37095000D02*
X-105000Y-37245000D01*
D11*
X407381Y-37260476D02*
X293095Y-37260476D01*
X350238Y-37260476D02*
X350238Y-37060476D01*
X331190Y-37089048D01*
X312143Y-37108095D01*
X293095Y-37117619D01*
X493095Y-37241429D02*
X502619Y-37250952D01*
X493095Y-37260476D01*
X483571Y-37250952D01*
X493095Y-37241429D01*
X493095Y-37260476D01*
X683571Y-37060476D02*
X588333Y-37060476D01*
X578810Y-37155714D01*
X588333Y-37146190D01*
X607381Y-37136667D01*
X655000Y-37136667D01*
X674048Y-37146190D01*
X683571Y-37155714D01*
X693095Y-37174762D01*
X693095Y-37222381D01*
X683571Y-37241429D01*
X674048Y-37250952D01*
X655000Y-37260476D01*
X607381Y-37260476D01*
X588333Y-37250952D01*
X578810Y-37241429D01*
X816905Y-37060476D02*
X835952Y-37060476D01*
X855000Y-37070000D01*
X864524Y-37079524D01*
X874048Y-37098571D01*
X883571Y-37136667D01*
X883571Y-37184286D01*
X874048Y-37222381D01*
X864524Y-37241429D01*
X855000Y-37250952D01*
X835952Y-37260476D01*
X816905Y-37260476D01*
X797857Y-37250952D01*
X788333Y-37241429D01*
X778809Y-37222381D01*
X769286Y-37184286D01*
X769286Y-37136667D01*
X778809Y-37098571D01*
X788333Y-37079524D01*
X797857Y-37070000D01*
X816905Y-37060476D01*
X1007381Y-37060476D02*
X1026428Y-37060476D01*
X1045476Y-37070000D01*
X1055000Y-37079524D01*
X1064524Y-37098571D01*
X1074048Y-37136667D01*
X1074048Y-37184286D01*
X1064524Y-37222381D01*
X1055000Y-37241429D01*
X1045476Y-37250952D01*
X1026428Y-37260476D01*
X1007381Y-37260476D01*
X988333Y-37250952D01*
X978809Y-37241429D01*
X969286Y-37222381D01*
X959762Y-37184286D01*
X959762Y-37136667D01*
X969286Y-37098571D01*
X978809Y-37079524D01*
X988333Y-37070000D01*
X1007381Y-37060476D01*
X1159762Y-37260476D02*
X1159762Y-37127143D01*
X1159762Y-37146190D02*
X1169286Y-37136667D01*
X1188333Y-37127143D01*
X1216905Y-37127143D01*
X1235952Y-37136667D01*
X1245476Y-37155714D01*
X1245476Y-37260476D01*
X1245476Y-37155714D02*
X1255000Y-37136667D01*
X1274048Y-37127143D01*
X1302619Y-37127143D01*
X1321667Y-37136667D01*
X1331190Y-37155714D01*
X1331190Y-37260476D01*
X1426428Y-37260476D02*
X1426428Y-37127143D01*
X1426428Y-37146190D02*
X1435952Y-37136667D01*
X1455000Y-37127143D01*
X1483571Y-37127143D01*
X1502619Y-37136667D01*
X1512143Y-37155714D01*
X1512143Y-37260476D01*
X1512143Y-37155714D02*
X1521667Y-37136667D01*
X1540714Y-37127143D01*
X1569286Y-37127143D01*
X1588333Y-37136667D01*
X1597857Y-37155714D01*
X1597857Y-37260476D01*
X1988333Y-37050952D02*
X1816905Y-37308095D01*
X2245476Y-37060476D02*
X2264524Y-37060476D01*
X2283571Y-37070000D01*
X2293095Y-37079524D01*
X2302619Y-37098571D01*
X2312143Y-37136667D01*
X2312143Y-37184286D01*
X2302619Y-37222381D01*
X2293095Y-37241429D01*
X2283571Y-37250952D01*
X2264524Y-37260476D01*
X2245476Y-37260476D01*
X2226429Y-37250952D01*
X2216905Y-37241429D01*
X2207381Y-37222381D01*
X2197857Y-37184286D01*
X2197857Y-37136667D01*
X2207381Y-37098571D01*
X2216905Y-37079524D01*
X2226429Y-37070000D01*
X2245476Y-37060476D01*
X2397857Y-37241429D02*
X2407381Y-37250952D01*
X2397857Y-37260476D01*
X2388333Y-37250952D01*
X2397857Y-37241429D01*
X2397857Y-37260476D01*
X2531190Y-37060476D02*
X2550238Y-37060476D01*
X2569286Y-37070000D01*
X2578810Y-37079524D01*
X2588333Y-37098571D01*
X2597857Y-37136667D01*
X2597857Y-37184286D01*
X2588333Y-37222381D01*
X2578810Y-37241429D01*
X2569286Y-37250952D01*
X2550238Y-37260476D01*
X2531190Y-37260476D01*
X2512143Y-37250952D01*
X2502619Y-37241429D01*
X2493095Y-37222381D01*
X2483571Y-37184286D01*
X2483571Y-37136667D01*
X2493095Y-37098571D01*
X2502619Y-37079524D01*
X2512143Y-37070000D01*
X2531190Y-37060476D01*
X2778810Y-37060476D02*
X2683571Y-37060476D01*
X2674048Y-37155714D01*
X2683571Y-37146190D01*
X2702619Y-37136667D01*
X2750238Y-37136667D01*
X2769286Y-37146190D01*
X2778810Y-37155714D01*
X2788333Y-37174762D01*
X2788333Y-37222381D01*
X2778810Y-37241429D01*
X2769286Y-37250952D01*
X2750238Y-37260476D01*
X2702619Y-37260476D01*
X2683571Y-37250952D01*
X2674048Y-37241429D01*
X2883571Y-37260476D02*
X2921667Y-37260476D01*
X2940714Y-37250952D01*
X2950238Y-37241429D01*
X2969286Y-37212857D01*
X2978809Y-37174762D01*
X2978809Y-37098571D01*
X2969286Y-37079524D01*
X2959762Y-37070000D01*
X2940714Y-37060476D01*
X2902619Y-37060476D01*
X2883571Y-37070000D01*
X2874048Y-37079524D01*
X2864524Y-37098571D01*
X2864524Y-37146190D01*
X2874048Y-37165238D01*
X2883571Y-37174762D01*
X2902619Y-37184286D01*
X2940714Y-37184286D01*
X2959762Y-37174762D01*
X2969286Y-37165238D01*
X2978809Y-37146190D01*
X3169286Y-37260476D02*
X3055000Y-37260476D01*
X3112143Y-37260476D02*
X3112143Y-37060476D01*
X3093095Y-37089048D01*
X3074048Y-37108095D01*
X3055000Y-37117619D01*
X3245476Y-37060476D02*
X3245476Y-37098571D01*
X3321667Y-37060476D02*
X3321667Y-37098571D01*
X3616905Y-37336667D02*
X3607381Y-37327143D01*
X3588333Y-37298571D01*
X3578809Y-37279524D01*
X3569286Y-37250952D01*
X3559762Y-37203333D01*
X3559762Y-37165238D01*
X3569286Y-37117619D01*
X3578809Y-37089048D01*
X3588333Y-37070000D01*
X3607381Y-37041429D01*
X3616905Y-37031905D01*
X3731190Y-37060476D02*
X3750238Y-37060476D01*
X3769286Y-37070000D01*
X3778809Y-37079524D01*
X3788333Y-37098571D01*
X3797857Y-37136667D01*
X3797857Y-37184286D01*
X3788333Y-37222381D01*
X3778809Y-37241429D01*
X3769286Y-37250952D01*
X3750238Y-37260476D01*
X3731190Y-37260476D01*
X3712143Y-37250952D01*
X3702619Y-37241429D01*
X3693095Y-37222381D01*
X3683571Y-37184286D01*
X3683571Y-37136667D01*
X3693095Y-37098571D01*
X3702619Y-37079524D01*
X3712143Y-37070000D01*
X3731190Y-37060476D01*
X4035952Y-37260476D02*
X4035952Y-37060476D01*
X4121667Y-37260476D02*
X4121667Y-37155714D01*
X4112143Y-37136667D01*
X4093095Y-37127143D01*
X4064524Y-37127143D01*
X4045476Y-37136667D01*
X4035952Y-37146190D01*
X4245476Y-37260476D02*
X4226429Y-37250952D01*
X4216905Y-37241429D01*
X4207381Y-37222381D01*
X4207381Y-37165238D01*
X4216905Y-37146190D01*
X4226429Y-37136667D01*
X4245476Y-37127143D01*
X4274048Y-37127143D01*
X4293095Y-37136667D01*
X4302619Y-37146190D01*
X4312143Y-37165238D01*
X4312143Y-37222381D01*
X4302619Y-37241429D01*
X4293095Y-37250952D01*
X4274048Y-37260476D01*
X4245476Y-37260476D01*
X4426429Y-37260476D02*
X4407381Y-37250952D01*
X4397857Y-37231905D01*
X4397857Y-37060476D01*
X4578810Y-37250952D02*
X4559762Y-37260476D01*
X4521667Y-37260476D01*
X4502619Y-37250952D01*
X4493095Y-37231905D01*
X4493095Y-37155714D01*
X4502619Y-37136667D01*
X4521667Y-37127143D01*
X4559762Y-37127143D01*
X4578810Y-37136667D01*
X4588333Y-37155714D01*
X4588333Y-37174762D01*
X4493095Y-37193810D01*
X4664524Y-37250952D02*
X4683571Y-37260476D01*
X4721667Y-37260476D01*
X4740714Y-37250952D01*
X4750238Y-37231905D01*
X4750238Y-37222381D01*
X4740714Y-37203333D01*
X4721667Y-37193810D01*
X4693095Y-37193810D01*
X4674048Y-37184286D01*
X4664524Y-37165238D01*
X4664524Y-37155714D01*
X4674048Y-37136667D01*
X4693095Y-37127143D01*
X4721667Y-37127143D01*
X4740714Y-37136667D01*
X4988333Y-37184286D02*
X5140714Y-37184286D01*
X5064524Y-37260476D02*
X5064524Y-37108095D01*
X5378810Y-37079524D02*
X5388333Y-37070000D01*
X5407381Y-37060476D01*
X5455000Y-37060476D01*
X5474048Y-37070000D01*
X5483571Y-37079524D01*
X5493095Y-37098571D01*
X5493095Y-37117619D01*
X5483571Y-37146190D01*
X5369286Y-37260476D01*
X5493095Y-37260476D01*
X5721667Y-37250952D02*
X5740714Y-37260476D01*
X5778809Y-37260476D01*
X5797857Y-37250952D01*
X5807381Y-37231905D01*
X5807381Y-37222381D01*
X5797857Y-37203333D01*
X5778809Y-37193810D01*
X5750238Y-37193810D01*
X5731190Y-37184286D01*
X5721667Y-37165238D01*
X5721667Y-37155714D01*
X5731190Y-37136667D01*
X5750238Y-37127143D01*
X5778809Y-37127143D01*
X5797857Y-37136667D01*
X5921667Y-37260476D02*
X5902619Y-37250952D01*
X5893095Y-37231905D01*
X5893095Y-37060476D01*
X6026428Y-37260476D02*
X6007381Y-37250952D01*
X5997857Y-37241429D01*
X5988333Y-37222381D01*
X5988333Y-37165238D01*
X5997857Y-37146190D01*
X6007381Y-37136667D01*
X6026428Y-37127143D01*
X6055000Y-37127143D01*
X6074048Y-37136667D01*
X6083571Y-37146190D01*
X6093095Y-37165238D01*
X6093095Y-37222381D01*
X6083571Y-37241429D01*
X6074048Y-37250952D01*
X6055000Y-37260476D01*
X6026428Y-37260476D01*
X6150238Y-37127143D02*
X6226428Y-37127143D01*
X6178809Y-37060476D02*
X6178809Y-37231905D01*
X6188333Y-37250952D01*
X6207381Y-37260476D01*
X6226428Y-37260476D01*
X6283571Y-37250952D02*
X6302619Y-37260476D01*
X6340714Y-37260476D01*
X6359762Y-37250952D01*
X6369286Y-37231905D01*
X6369286Y-37222381D01*
X6359762Y-37203333D01*
X6340714Y-37193810D01*
X6312143Y-37193810D01*
X6293095Y-37184286D01*
X6283571Y-37165238D01*
X6283571Y-37155714D01*
X6293095Y-37136667D01*
X6312143Y-37127143D01*
X6340714Y-37127143D01*
X6359762Y-37136667D01*
X6435952Y-37336667D02*
X6445476Y-37327143D01*
X6464524Y-37298571D01*
X6474048Y-37279524D01*
X6483571Y-37250952D01*
X6493095Y-37203333D01*
X6493095Y-37165238D01*
X6483571Y-37117619D01*
X6474048Y-37089048D01*
X6464524Y-37070000D01*
X6445476Y-37041429D01*
X6435952Y-37031905D01*
X6797857Y-37336667D02*
X6788333Y-37327143D01*
X6769286Y-37298571D01*
X6759762Y-37279524D01*
X6750238Y-37250952D01*
X6740714Y-37203333D01*
X6740714Y-37165238D01*
X6750238Y-37117619D01*
X6759762Y-37089048D01*
X6769286Y-37070000D01*
X6788333Y-37041429D01*
X6797857Y-37031905D01*
X6874048Y-37127143D02*
X6874048Y-37260476D01*
X6874048Y-37146190D02*
X6883571Y-37136667D01*
X6902619Y-37127143D01*
X6931190Y-37127143D01*
X6950238Y-37136667D01*
X6959762Y-37155714D01*
X6959762Y-37260476D01*
X7083571Y-37260476D02*
X7064524Y-37250952D01*
X7055000Y-37241429D01*
X7045476Y-37222381D01*
X7045476Y-37165238D01*
X7055000Y-37146190D01*
X7064524Y-37136667D01*
X7083571Y-37127143D01*
X7112143Y-37127143D01*
X7131190Y-37136667D01*
X7140714Y-37146190D01*
X7150238Y-37165238D01*
X7150238Y-37222381D01*
X7140714Y-37241429D01*
X7131190Y-37250952D01*
X7112143Y-37260476D01*
X7083571Y-37260476D01*
X7207381Y-37127143D02*
X7283571Y-37127143D01*
X7235952Y-37060476D02*
X7235952Y-37231905D01*
X7245476Y-37250952D01*
X7264524Y-37260476D01*
X7283571Y-37260476D01*
X7502619Y-37127143D02*
X7502619Y-37327143D01*
X7502619Y-37136667D02*
X7521667Y-37127143D01*
X7559762Y-37127143D01*
X7578809Y-37136667D01*
X7588333Y-37146190D01*
X7597857Y-37165238D01*
X7597857Y-37222381D01*
X7588333Y-37241429D01*
X7578809Y-37250952D01*
X7559762Y-37260476D01*
X7521667Y-37260476D01*
X7502619Y-37250952D01*
X7712143Y-37260476D02*
X7693095Y-37250952D01*
X7683571Y-37231905D01*
X7683571Y-37060476D01*
X7874048Y-37260476D02*
X7874048Y-37155714D01*
X7864524Y-37136667D01*
X7845476Y-37127143D01*
X7807381Y-37127143D01*
X7788333Y-37136667D01*
X7874048Y-37250952D02*
X7855000Y-37260476D01*
X7807381Y-37260476D01*
X7788333Y-37250952D01*
X7778809Y-37231905D01*
X7778809Y-37212857D01*
X7788333Y-37193810D01*
X7807381Y-37184286D01*
X7855000Y-37184286D01*
X7874048Y-37174762D01*
X7940714Y-37127143D02*
X8016905Y-37127143D01*
X7969286Y-37060476D02*
X7969286Y-37231905D01*
X7978809Y-37250952D01*
X7997857Y-37260476D01*
X8016905Y-37260476D01*
X8159762Y-37250952D02*
X8140714Y-37260476D01*
X8102619Y-37260476D01*
X8083571Y-37250952D01*
X8074048Y-37231905D01*
X8074048Y-37155714D01*
X8083571Y-37136667D01*
X8102619Y-37127143D01*
X8140714Y-37127143D01*
X8159762Y-37136667D01*
X8169286Y-37155714D01*
X8169286Y-37174762D01*
X8074048Y-37193810D01*
X8340714Y-37260476D02*
X8340714Y-37060476D01*
X8340714Y-37250952D02*
X8321667Y-37260476D01*
X8283571Y-37260476D01*
X8264524Y-37250952D01*
X8255000Y-37241429D01*
X8245476Y-37222381D01*
X8245476Y-37165238D01*
X8255000Y-37146190D01*
X8264524Y-37136667D01*
X8283571Y-37127143D01*
X8321667Y-37127143D01*
X8340714Y-37136667D01*
X8416905Y-37336667D02*
X8426429Y-37327143D01*
X8445476Y-37298571D01*
X8455000Y-37279524D01*
X8464524Y-37250952D01*
X8474048Y-37203333D01*
X8474048Y-37165238D01*
X8464524Y-37117619D01*
X8455000Y-37089048D01*
X8445476Y-37070000D01*
X8426429Y-37041429D01*
X8416905Y-37031905D01*
D13*
X45000Y-37440000D02*
G75*
G03*
X45000Y-37440000I-87500J0D01*
G01*
D11*
X407381Y-37530476D02*
X293095Y-37530476D01*
X350238Y-37530476D02*
X350238Y-37330476D01*
X331190Y-37359048D01*
X312143Y-37378095D01*
X293095Y-37387619D01*
X493095Y-37511429D02*
X502619Y-37520952D01*
X493095Y-37530476D01*
X483571Y-37520952D01*
X493095Y-37511429D01*
X493095Y-37530476D01*
X569286Y-37330476D02*
X702619Y-37330476D01*
X616905Y-37530476D01*
X874048Y-37330476D02*
X778809Y-37330476D01*
X769286Y-37425714D01*
X778809Y-37416190D01*
X797857Y-37406667D01*
X845476Y-37406667D01*
X864524Y-37416190D01*
X874048Y-37425714D01*
X883571Y-37444762D01*
X883571Y-37492381D01*
X874048Y-37511429D01*
X864524Y-37520952D01*
X845476Y-37530476D01*
X797857Y-37530476D01*
X778809Y-37520952D01*
X769286Y-37511429D01*
X1007381Y-37330476D02*
X1026428Y-37330476D01*
X1045476Y-37340000D01*
X1055000Y-37349524D01*
X1064524Y-37368571D01*
X1074048Y-37406667D01*
X1074048Y-37454286D01*
X1064524Y-37492381D01*
X1055000Y-37511429D01*
X1045476Y-37520952D01*
X1026428Y-37530476D01*
X1007381Y-37530476D01*
X988333Y-37520952D01*
X978809Y-37511429D01*
X969286Y-37492381D01*
X959762Y-37454286D01*
X959762Y-37406667D01*
X969286Y-37368571D01*
X978809Y-37349524D01*
X988333Y-37340000D01*
X1007381Y-37330476D01*
X1159762Y-37530476D02*
X1159762Y-37397143D01*
X1159762Y-37416190D02*
X1169286Y-37406667D01*
X1188333Y-37397143D01*
X1216905Y-37397143D01*
X1235952Y-37406667D01*
X1245476Y-37425714D01*
X1245476Y-37530476D01*
X1245476Y-37425714D02*
X1255000Y-37406667D01*
X1274048Y-37397143D01*
X1302619Y-37397143D01*
X1321667Y-37406667D01*
X1331190Y-37425714D01*
X1331190Y-37530476D01*
X1426428Y-37530476D02*
X1426428Y-37397143D01*
X1426428Y-37416190D02*
X1435952Y-37406667D01*
X1455000Y-37397143D01*
X1483571Y-37397143D01*
X1502619Y-37406667D01*
X1512143Y-37425714D01*
X1512143Y-37530476D01*
X1512143Y-37425714D02*
X1521667Y-37406667D01*
X1540714Y-37397143D01*
X1569286Y-37397143D01*
X1588333Y-37406667D01*
X1597857Y-37425714D01*
X1597857Y-37530476D01*
X1988333Y-37320952D02*
X1816905Y-37578095D01*
X2245476Y-37330476D02*
X2264524Y-37330476D01*
X2283571Y-37340000D01*
X2293095Y-37349524D01*
X2302619Y-37368571D01*
X2312143Y-37406667D01*
X2312143Y-37454286D01*
X2302619Y-37492381D01*
X2293095Y-37511429D01*
X2283571Y-37520952D01*
X2264524Y-37530476D01*
X2245476Y-37530476D01*
X2226429Y-37520952D01*
X2216905Y-37511429D01*
X2207381Y-37492381D01*
X2197857Y-37454286D01*
X2197857Y-37406667D01*
X2207381Y-37368571D01*
X2216905Y-37349524D01*
X2226429Y-37340000D01*
X2245476Y-37330476D01*
X2397857Y-37511429D02*
X2407381Y-37520952D01*
X2397857Y-37530476D01*
X2388333Y-37520952D01*
X2397857Y-37511429D01*
X2397857Y-37530476D01*
X2531190Y-37330476D02*
X2550238Y-37330476D01*
X2569286Y-37340000D01*
X2578810Y-37349524D01*
X2588333Y-37368571D01*
X2597857Y-37406667D01*
X2597857Y-37454286D01*
X2588333Y-37492381D01*
X2578810Y-37511429D01*
X2569286Y-37520952D01*
X2550238Y-37530476D01*
X2531190Y-37530476D01*
X2512143Y-37520952D01*
X2502619Y-37511429D01*
X2493095Y-37492381D01*
X2483571Y-37454286D01*
X2483571Y-37406667D01*
X2493095Y-37368571D01*
X2502619Y-37349524D01*
X2512143Y-37340000D01*
X2531190Y-37330476D01*
X2769286Y-37330476D02*
X2731190Y-37330476D01*
X2712143Y-37340000D01*
X2702619Y-37349524D01*
X2683571Y-37378095D01*
X2674048Y-37416190D01*
X2674048Y-37492381D01*
X2683571Y-37511429D01*
X2693095Y-37520952D01*
X2712143Y-37530476D01*
X2750238Y-37530476D01*
X2769286Y-37520952D01*
X2778810Y-37511429D01*
X2788333Y-37492381D01*
X2788333Y-37444762D01*
X2778810Y-37425714D01*
X2769286Y-37416190D01*
X2750238Y-37406667D01*
X2712143Y-37406667D01*
X2693095Y-37416190D01*
X2683571Y-37425714D01*
X2674048Y-37444762D01*
X2902619Y-37416190D02*
X2883571Y-37406667D01*
X2874048Y-37397143D01*
X2864524Y-37378095D01*
X2864524Y-37368571D01*
X2874048Y-37349524D01*
X2883571Y-37340000D01*
X2902619Y-37330476D01*
X2940714Y-37330476D01*
X2959762Y-37340000D01*
X2969286Y-37349524D01*
X2978809Y-37368571D01*
X2978809Y-37378095D01*
X2969286Y-37397143D01*
X2959762Y-37406667D01*
X2940714Y-37416190D01*
X2902619Y-37416190D01*
X2883571Y-37425714D01*
X2874048Y-37435238D01*
X2864524Y-37454286D01*
X2864524Y-37492381D01*
X2874048Y-37511429D01*
X2883571Y-37520952D01*
X2902619Y-37530476D01*
X2940714Y-37530476D01*
X2959762Y-37520952D01*
X2969286Y-37511429D01*
X2978809Y-37492381D01*
X2978809Y-37454286D01*
X2969286Y-37435238D01*
X2959762Y-37425714D01*
X2940714Y-37416190D01*
X3074048Y-37530476D02*
X3112143Y-37530476D01*
X3131190Y-37520952D01*
X3140714Y-37511429D01*
X3159762Y-37482857D01*
X3169286Y-37444762D01*
X3169286Y-37368571D01*
X3159762Y-37349524D01*
X3150238Y-37340000D01*
X3131190Y-37330476D01*
X3093095Y-37330476D01*
X3074048Y-37340000D01*
X3064524Y-37349524D01*
X3055000Y-37368571D01*
X3055000Y-37416190D01*
X3064524Y-37435238D01*
X3074048Y-37444762D01*
X3093095Y-37454286D01*
X3131190Y-37454286D01*
X3150238Y-37444762D01*
X3159762Y-37435238D01*
X3169286Y-37416190D01*
X3245476Y-37330476D02*
X3245476Y-37368571D01*
X3321667Y-37330476D02*
X3321667Y-37368571D01*
X3616905Y-37606667D02*
X3607381Y-37597143D01*
X3588333Y-37568571D01*
X3578809Y-37549524D01*
X3569286Y-37520952D01*
X3559762Y-37473333D01*
X3559762Y-37435238D01*
X3569286Y-37387619D01*
X3578809Y-37359048D01*
X3588333Y-37340000D01*
X3607381Y-37311429D01*
X3616905Y-37301905D01*
X3683571Y-37349524D02*
X3693095Y-37340000D01*
X3712143Y-37330476D01*
X3759762Y-37330476D01*
X3778809Y-37340000D01*
X3788333Y-37349524D01*
X3797857Y-37368571D01*
X3797857Y-37387619D01*
X3788333Y-37416190D01*
X3674048Y-37530476D01*
X3797857Y-37530476D01*
X3969286Y-37330476D02*
X3931190Y-37330476D01*
X3912143Y-37340000D01*
X3902619Y-37349524D01*
X3883571Y-37378095D01*
X3874048Y-37416190D01*
X3874048Y-37492381D01*
X3883571Y-37511429D01*
X3893095Y-37520952D01*
X3912143Y-37530476D01*
X3950238Y-37530476D01*
X3969286Y-37520952D01*
X3978809Y-37511429D01*
X3988333Y-37492381D01*
X3988333Y-37444762D01*
X3978809Y-37425714D01*
X3969286Y-37416190D01*
X3950238Y-37406667D01*
X3912143Y-37406667D01*
X3893095Y-37416190D01*
X3883571Y-37425714D01*
X3874048Y-37444762D01*
X4159762Y-37330476D02*
X4121667Y-37330476D01*
X4102619Y-37340000D01*
X4093095Y-37349524D01*
X4074048Y-37378095D01*
X4064524Y-37416190D01*
X4064524Y-37492381D01*
X4074048Y-37511429D01*
X4083571Y-37520952D01*
X4102619Y-37530476D01*
X4140714Y-37530476D01*
X4159762Y-37520952D01*
X4169286Y-37511429D01*
X4178809Y-37492381D01*
X4178809Y-37444762D01*
X4169286Y-37425714D01*
X4159762Y-37416190D01*
X4140714Y-37406667D01*
X4102619Y-37406667D01*
X4083571Y-37416190D01*
X4074048Y-37425714D01*
X4064524Y-37444762D01*
X4416905Y-37530476D02*
X4416905Y-37330476D01*
X4502619Y-37530476D02*
X4502619Y-37425714D01*
X4493095Y-37406667D01*
X4474048Y-37397143D01*
X4445476Y-37397143D01*
X4426429Y-37406667D01*
X4416905Y-37416190D01*
X4626429Y-37530476D02*
X4607381Y-37520952D01*
X4597857Y-37511429D01*
X4588333Y-37492381D01*
X4588333Y-37435238D01*
X4597857Y-37416190D01*
X4607381Y-37406667D01*
X4626429Y-37397143D01*
X4655000Y-37397143D01*
X4674048Y-37406667D01*
X4683571Y-37416190D01*
X4693095Y-37435238D01*
X4693095Y-37492381D01*
X4683571Y-37511429D01*
X4674048Y-37520952D01*
X4655000Y-37530476D01*
X4626429Y-37530476D01*
X4807381Y-37530476D02*
X4788333Y-37520952D01*
X4778810Y-37501905D01*
X4778810Y-37330476D01*
X4959762Y-37520952D02*
X4940714Y-37530476D01*
X4902619Y-37530476D01*
X4883571Y-37520952D01*
X4874048Y-37501905D01*
X4874048Y-37425714D01*
X4883571Y-37406667D01*
X4902619Y-37397143D01*
X4940714Y-37397143D01*
X4959762Y-37406667D01*
X4969286Y-37425714D01*
X4969286Y-37444762D01*
X4874048Y-37463810D01*
X5045476Y-37520952D02*
X5064524Y-37530476D01*
X5102619Y-37530476D01*
X5121667Y-37520952D01*
X5131190Y-37501905D01*
X5131190Y-37492381D01*
X5121667Y-37473333D01*
X5102619Y-37463810D01*
X5074048Y-37463810D01*
X5055000Y-37454286D01*
X5045476Y-37435238D01*
X5045476Y-37425714D01*
X5055000Y-37406667D01*
X5074048Y-37397143D01*
X5102619Y-37397143D01*
X5121667Y-37406667D01*
X5197857Y-37606667D02*
X5207381Y-37597143D01*
X5226429Y-37568571D01*
X5235952Y-37549524D01*
X5245476Y-37520952D01*
X5255000Y-37473333D01*
X5255000Y-37435238D01*
X5245476Y-37387619D01*
X5235952Y-37359048D01*
X5226429Y-37340000D01*
X5207381Y-37311429D01*
X5197857Y-37301905D01*
X5559762Y-37606667D02*
X5550238Y-37597143D01*
X5531190Y-37568571D01*
X5521667Y-37549524D01*
X5512143Y-37520952D01*
X5502619Y-37473333D01*
X5502619Y-37435238D01*
X5512143Y-37387619D01*
X5521667Y-37359048D01*
X5531190Y-37340000D01*
X5550238Y-37311429D01*
X5559762Y-37301905D01*
X5635952Y-37397143D02*
X5635952Y-37530476D01*
X5635952Y-37416190D02*
X5645476Y-37406667D01*
X5664524Y-37397143D01*
X5693095Y-37397143D01*
X5712143Y-37406667D01*
X5721667Y-37425714D01*
X5721667Y-37530476D01*
X5845476Y-37530476D02*
X5826428Y-37520952D01*
X5816905Y-37511429D01*
X5807381Y-37492381D01*
X5807381Y-37435238D01*
X5816905Y-37416190D01*
X5826428Y-37406667D01*
X5845476Y-37397143D01*
X5874048Y-37397143D01*
X5893095Y-37406667D01*
X5902619Y-37416190D01*
X5912143Y-37435238D01*
X5912143Y-37492381D01*
X5902619Y-37511429D01*
X5893095Y-37520952D01*
X5874048Y-37530476D01*
X5845476Y-37530476D01*
X5969286Y-37397143D02*
X6045476Y-37397143D01*
X5997857Y-37330476D02*
X5997857Y-37501905D01*
X6007381Y-37520952D01*
X6026428Y-37530476D01*
X6045476Y-37530476D01*
X6264524Y-37397143D02*
X6264524Y-37597143D01*
X6264524Y-37406667D02*
X6283571Y-37397143D01*
X6321667Y-37397143D01*
X6340714Y-37406667D01*
X6350238Y-37416190D01*
X6359762Y-37435238D01*
X6359762Y-37492381D01*
X6350238Y-37511429D01*
X6340714Y-37520952D01*
X6321667Y-37530476D01*
X6283571Y-37530476D01*
X6264524Y-37520952D01*
X6474048Y-37530476D02*
X6455000Y-37520952D01*
X6445476Y-37501905D01*
X6445476Y-37330476D01*
X6635952Y-37530476D02*
X6635952Y-37425714D01*
X6626428Y-37406667D01*
X6607381Y-37397143D01*
X6569286Y-37397143D01*
X6550238Y-37406667D01*
X6635952Y-37520952D02*
X6616905Y-37530476D01*
X6569286Y-37530476D01*
X6550238Y-37520952D01*
X6540714Y-37501905D01*
X6540714Y-37482857D01*
X6550238Y-37463810D01*
X6569286Y-37454286D01*
X6616905Y-37454286D01*
X6635952Y-37444762D01*
X6702619Y-37397143D02*
X6778809Y-37397143D01*
X6731190Y-37330476D02*
X6731190Y-37501905D01*
X6740714Y-37520952D01*
X6759762Y-37530476D01*
X6778809Y-37530476D01*
X6921667Y-37520952D02*
X6902619Y-37530476D01*
X6864524Y-37530476D01*
X6845476Y-37520952D01*
X6835952Y-37501905D01*
X6835952Y-37425714D01*
X6845476Y-37406667D01*
X6864524Y-37397143D01*
X6902619Y-37397143D01*
X6921667Y-37406667D01*
X6931190Y-37425714D01*
X6931190Y-37444762D01*
X6835952Y-37463810D01*
X7102619Y-37530476D02*
X7102619Y-37330476D01*
X7102619Y-37520952D02*
X7083571Y-37530476D01*
X7045476Y-37530476D01*
X7026428Y-37520952D01*
X7016905Y-37511429D01*
X7007381Y-37492381D01*
X7007381Y-37435238D01*
X7016905Y-37416190D01*
X7026428Y-37406667D01*
X7045476Y-37397143D01*
X7083571Y-37397143D01*
X7102619Y-37406667D01*
X7178809Y-37606667D02*
X7188333Y-37597143D01*
X7207381Y-37568571D01*
X7216905Y-37549524D01*
X7226428Y-37520952D01*
X7235952Y-37473333D01*
X7235952Y-37435238D01*
X7226428Y-37387619D01*
X7216905Y-37359048D01*
X7207381Y-37340000D01*
X7188333Y-37311429D01*
X7178809Y-37301905D01*
X-55000Y-37635000D02*
X-55000Y-37835000D01*
X-155000Y-37735000D02*
X45000Y-37735000D01*
X283571Y-37625476D02*
X407381Y-37625476D01*
X340714Y-37701667D01*
X369286Y-37701667D01*
X388333Y-37711190D01*
X397857Y-37720714D01*
X407381Y-37739762D01*
X407381Y-37787381D01*
X397857Y-37806429D01*
X388333Y-37815952D01*
X369286Y-37825476D01*
X312143Y-37825476D01*
X293095Y-37815952D01*
X283571Y-37806429D01*
X493095Y-37806429D02*
X502619Y-37815952D01*
X493095Y-37825476D01*
X483571Y-37815952D01*
X493095Y-37806429D01*
X493095Y-37825476D01*
X626429Y-37625476D02*
X645476Y-37625476D01*
X664524Y-37635000D01*
X674048Y-37644524D01*
X683571Y-37663571D01*
X693095Y-37701667D01*
X693095Y-37749286D01*
X683571Y-37787381D01*
X674048Y-37806429D01*
X664524Y-37815952D01*
X645476Y-37825476D01*
X626429Y-37825476D01*
X607381Y-37815952D01*
X597857Y-37806429D01*
X588333Y-37787381D01*
X578810Y-37749286D01*
X578810Y-37701667D01*
X588333Y-37663571D01*
X597857Y-37644524D01*
X607381Y-37635000D01*
X626429Y-37625476D01*
X816905Y-37625476D02*
X835952Y-37625476D01*
X855000Y-37635000D01*
X864524Y-37644524D01*
X874048Y-37663571D01*
X883571Y-37701667D01*
X883571Y-37749286D01*
X874048Y-37787381D01*
X864524Y-37806429D01*
X855000Y-37815952D01*
X835952Y-37825476D01*
X816905Y-37825476D01*
X797857Y-37815952D01*
X788333Y-37806429D01*
X778809Y-37787381D01*
X769286Y-37749286D01*
X769286Y-37701667D01*
X778809Y-37663571D01*
X788333Y-37644524D01*
X797857Y-37635000D01*
X816905Y-37625476D01*
X1007381Y-37625476D02*
X1026428Y-37625476D01*
X1045476Y-37635000D01*
X1055000Y-37644524D01*
X1064524Y-37663571D01*
X1074048Y-37701667D01*
X1074048Y-37749286D01*
X1064524Y-37787381D01*
X1055000Y-37806429D01*
X1045476Y-37815952D01*
X1026428Y-37825476D01*
X1007381Y-37825476D01*
X988333Y-37815952D01*
X978809Y-37806429D01*
X969286Y-37787381D01*
X959762Y-37749286D01*
X959762Y-37701667D01*
X969286Y-37663571D01*
X978809Y-37644524D01*
X988333Y-37635000D01*
X1007381Y-37625476D01*
X1159762Y-37825476D02*
X1159762Y-37692143D01*
X1159762Y-37711190D02*
X1169286Y-37701667D01*
X1188333Y-37692143D01*
X1216905Y-37692143D01*
X1235952Y-37701667D01*
X1245476Y-37720714D01*
X1245476Y-37825476D01*
X1245476Y-37720714D02*
X1255000Y-37701667D01*
X1274048Y-37692143D01*
X1302619Y-37692143D01*
X1321667Y-37701667D01*
X1331190Y-37720714D01*
X1331190Y-37825476D01*
X1426428Y-37825476D02*
X1426428Y-37692143D01*
X1426428Y-37711190D02*
X1435952Y-37701667D01*
X1455000Y-37692143D01*
X1483571Y-37692143D01*
X1502619Y-37701667D01*
X1512143Y-37720714D01*
X1512143Y-37825476D01*
X1512143Y-37720714D02*
X1521667Y-37701667D01*
X1540714Y-37692143D01*
X1569286Y-37692143D01*
X1588333Y-37701667D01*
X1597857Y-37720714D01*
X1597857Y-37825476D01*
X1988333Y-37615952D02*
X1816905Y-37873095D01*
X2245476Y-37625476D02*
X2264524Y-37625476D01*
X2283571Y-37635000D01*
X2293095Y-37644524D01*
X2302619Y-37663571D01*
X2312143Y-37701667D01*
X2312143Y-37749286D01*
X2302619Y-37787381D01*
X2293095Y-37806429D01*
X2283571Y-37815952D01*
X2264524Y-37825476D01*
X2245476Y-37825476D01*
X2226429Y-37815952D01*
X2216905Y-37806429D01*
X2207381Y-37787381D01*
X2197857Y-37749286D01*
X2197857Y-37701667D01*
X2207381Y-37663571D01*
X2216905Y-37644524D01*
X2226429Y-37635000D01*
X2245476Y-37625476D01*
X2397857Y-37806429D02*
X2407381Y-37815952D01*
X2397857Y-37825476D01*
X2388333Y-37815952D01*
X2397857Y-37806429D01*
X2397857Y-37825476D01*
X2597857Y-37825476D02*
X2483571Y-37825476D01*
X2540714Y-37825476D02*
X2540714Y-37625476D01*
X2521667Y-37654048D01*
X2502619Y-37673095D01*
X2483571Y-37682619D01*
X2788333Y-37825476D02*
X2674048Y-37825476D01*
X2731190Y-37825476D02*
X2731190Y-37625476D01*
X2712143Y-37654048D01*
X2693095Y-37673095D01*
X2674048Y-37682619D01*
X2902619Y-37711190D02*
X2883571Y-37701667D01*
X2874048Y-37692143D01*
X2864524Y-37673095D01*
X2864524Y-37663571D01*
X2874048Y-37644524D01*
X2883571Y-37635000D01*
X2902619Y-37625476D01*
X2940714Y-37625476D01*
X2959762Y-37635000D01*
X2969286Y-37644524D01*
X2978809Y-37663571D01*
X2978809Y-37673095D01*
X2969286Y-37692143D01*
X2959762Y-37701667D01*
X2940714Y-37711190D01*
X2902619Y-37711190D01*
X2883571Y-37720714D01*
X2874048Y-37730238D01*
X2864524Y-37749286D01*
X2864524Y-37787381D01*
X2874048Y-37806429D01*
X2883571Y-37815952D01*
X2902619Y-37825476D01*
X2940714Y-37825476D01*
X2959762Y-37815952D01*
X2969286Y-37806429D01*
X2978809Y-37787381D01*
X2978809Y-37749286D01*
X2969286Y-37730238D01*
X2959762Y-37720714D01*
X2940714Y-37711190D01*
X3169286Y-37825476D02*
X3055000Y-37825476D01*
X3112143Y-37825476D02*
X3112143Y-37625476D01*
X3093095Y-37654048D01*
X3074048Y-37673095D01*
X3055000Y-37682619D01*
X3245476Y-37625476D02*
X3245476Y-37663571D01*
X3321667Y-37625476D02*
X3321667Y-37663571D01*
X3616905Y-37901667D02*
X3607381Y-37892143D01*
X3588333Y-37863571D01*
X3578809Y-37844524D01*
X3569286Y-37815952D01*
X3559762Y-37768333D01*
X3559762Y-37730238D01*
X3569286Y-37682619D01*
X3578809Y-37654048D01*
X3588333Y-37635000D01*
X3607381Y-37606429D01*
X3616905Y-37596905D01*
X3683571Y-37644524D02*
X3693095Y-37635000D01*
X3712143Y-37625476D01*
X3759762Y-37625476D01*
X3778809Y-37635000D01*
X3788333Y-37644524D01*
X3797857Y-37663571D01*
X3797857Y-37682619D01*
X3788333Y-37711190D01*
X3674048Y-37825476D01*
X3797857Y-37825476D01*
X3969286Y-37625476D02*
X3931190Y-37625476D01*
X3912143Y-37635000D01*
X3902619Y-37644524D01*
X3883571Y-37673095D01*
X3874048Y-37711190D01*
X3874048Y-37787381D01*
X3883571Y-37806429D01*
X3893095Y-37815952D01*
X3912143Y-37825476D01*
X3950238Y-37825476D01*
X3969286Y-37815952D01*
X3978809Y-37806429D01*
X3988333Y-37787381D01*
X3988333Y-37739762D01*
X3978809Y-37720714D01*
X3969286Y-37711190D01*
X3950238Y-37701667D01*
X3912143Y-37701667D01*
X3893095Y-37711190D01*
X3883571Y-37720714D01*
X3874048Y-37739762D01*
X4159762Y-37625476D02*
X4121667Y-37625476D01*
X4102619Y-37635000D01*
X4093095Y-37644524D01*
X4074048Y-37673095D01*
X4064524Y-37711190D01*
X4064524Y-37787381D01*
X4074048Y-37806429D01*
X4083571Y-37815952D01*
X4102619Y-37825476D01*
X4140714Y-37825476D01*
X4159762Y-37815952D01*
X4169286Y-37806429D01*
X4178809Y-37787381D01*
X4178809Y-37739762D01*
X4169286Y-37720714D01*
X4159762Y-37711190D01*
X4140714Y-37701667D01*
X4102619Y-37701667D01*
X4083571Y-37711190D01*
X4074048Y-37720714D01*
X4064524Y-37739762D01*
X4416905Y-37825476D02*
X4416905Y-37625476D01*
X4502619Y-37825476D02*
X4502619Y-37720714D01*
X4493095Y-37701667D01*
X4474048Y-37692143D01*
X4445476Y-37692143D01*
X4426429Y-37701667D01*
X4416905Y-37711190D01*
X4626429Y-37825476D02*
X4607381Y-37815952D01*
X4597857Y-37806429D01*
X4588333Y-37787381D01*
X4588333Y-37730238D01*
X4597857Y-37711190D01*
X4607381Y-37701667D01*
X4626429Y-37692143D01*
X4655000Y-37692143D01*
X4674048Y-37701667D01*
X4683571Y-37711190D01*
X4693095Y-37730238D01*
X4693095Y-37787381D01*
X4683571Y-37806429D01*
X4674048Y-37815952D01*
X4655000Y-37825476D01*
X4626429Y-37825476D01*
X4807381Y-37825476D02*
X4788333Y-37815952D01*
X4778810Y-37796905D01*
X4778810Y-37625476D01*
X4959762Y-37815952D02*
X4940714Y-37825476D01*
X4902619Y-37825476D01*
X4883571Y-37815952D01*
X4874048Y-37796905D01*
X4874048Y-37720714D01*
X4883571Y-37701667D01*
X4902619Y-37692143D01*
X4940714Y-37692143D01*
X4959762Y-37701667D01*
X4969286Y-37720714D01*
X4969286Y-37739762D01*
X4874048Y-37758810D01*
X5045476Y-37815952D02*
X5064524Y-37825476D01*
X5102619Y-37825476D01*
X5121667Y-37815952D01*
X5131190Y-37796905D01*
X5131190Y-37787381D01*
X5121667Y-37768333D01*
X5102619Y-37758810D01*
X5074048Y-37758810D01*
X5055000Y-37749286D01*
X5045476Y-37730238D01*
X5045476Y-37720714D01*
X5055000Y-37701667D01*
X5074048Y-37692143D01*
X5102619Y-37692143D01*
X5121667Y-37701667D01*
X5197857Y-37901667D02*
X5207381Y-37892143D01*
X5226429Y-37863571D01*
X5235952Y-37844524D01*
X5245476Y-37815952D01*
X5255000Y-37768333D01*
X5255000Y-37730238D01*
X5245476Y-37682619D01*
X5235952Y-37654048D01*
X5226429Y-37635000D01*
X5207381Y-37606429D01*
X5197857Y-37596905D01*
X5559762Y-37901667D02*
X5550238Y-37892143D01*
X5531190Y-37863571D01*
X5521667Y-37844524D01*
X5512143Y-37815952D01*
X5502619Y-37768333D01*
X5502619Y-37730238D01*
X5512143Y-37682619D01*
X5521667Y-37654048D01*
X5531190Y-37635000D01*
X5550238Y-37606429D01*
X5559762Y-37596905D01*
X5635952Y-37692143D02*
X5635952Y-37825476D01*
X5635952Y-37711190D02*
X5645476Y-37701667D01*
X5664524Y-37692143D01*
X5693095Y-37692143D01*
X5712143Y-37701667D01*
X5721667Y-37720714D01*
X5721667Y-37825476D01*
X5845476Y-37825476D02*
X5826428Y-37815952D01*
X5816905Y-37806429D01*
X5807381Y-37787381D01*
X5807381Y-37730238D01*
X5816905Y-37711190D01*
X5826428Y-37701667D01*
X5845476Y-37692143D01*
X5874048Y-37692143D01*
X5893095Y-37701667D01*
X5902619Y-37711190D01*
X5912143Y-37730238D01*
X5912143Y-37787381D01*
X5902619Y-37806429D01*
X5893095Y-37815952D01*
X5874048Y-37825476D01*
X5845476Y-37825476D01*
X5969286Y-37692143D02*
X6045476Y-37692143D01*
X5997857Y-37625476D02*
X5997857Y-37796905D01*
X6007381Y-37815952D01*
X6026428Y-37825476D01*
X6045476Y-37825476D01*
X6264524Y-37692143D02*
X6264524Y-37892143D01*
X6264524Y-37701667D02*
X6283571Y-37692143D01*
X6321667Y-37692143D01*
X6340714Y-37701667D01*
X6350238Y-37711190D01*
X6359762Y-37730238D01*
X6359762Y-37787381D01*
X6350238Y-37806429D01*
X6340714Y-37815952D01*
X6321667Y-37825476D01*
X6283571Y-37825476D01*
X6264524Y-37815952D01*
X6474048Y-37825476D02*
X6455000Y-37815952D01*
X6445476Y-37796905D01*
X6445476Y-37625476D01*
X6635952Y-37825476D02*
X6635952Y-37720714D01*
X6626428Y-37701667D01*
X6607381Y-37692143D01*
X6569286Y-37692143D01*
X6550238Y-37701667D01*
X6635952Y-37815952D02*
X6616905Y-37825476D01*
X6569286Y-37825476D01*
X6550238Y-37815952D01*
X6540714Y-37796905D01*
X6540714Y-37777857D01*
X6550238Y-37758810D01*
X6569286Y-37749286D01*
X6616905Y-37749286D01*
X6635952Y-37739762D01*
X6702619Y-37692143D02*
X6778809Y-37692143D01*
X6731190Y-37625476D02*
X6731190Y-37796905D01*
X6740714Y-37815952D01*
X6759762Y-37825476D01*
X6778809Y-37825476D01*
X6921667Y-37815952D02*
X6902619Y-37825476D01*
X6864524Y-37825476D01*
X6845476Y-37815952D01*
X6835952Y-37796905D01*
X6835952Y-37720714D01*
X6845476Y-37701667D01*
X6864524Y-37692143D01*
X6902619Y-37692143D01*
X6921667Y-37701667D01*
X6931190Y-37720714D01*
X6931190Y-37739762D01*
X6835952Y-37758810D01*
X7102619Y-37825476D02*
X7102619Y-37625476D01*
X7102619Y-37815952D02*
X7083571Y-37825476D01*
X7045476Y-37825476D01*
X7026428Y-37815952D01*
X7016905Y-37806429D01*
X7007381Y-37787381D01*
X7007381Y-37730238D01*
X7016905Y-37711190D01*
X7026428Y-37701667D01*
X7045476Y-37692143D01*
X7083571Y-37692143D01*
X7102619Y-37701667D01*
X7178809Y-37901667D02*
X7188333Y-37892143D01*
X7207381Y-37863571D01*
X7216905Y-37844524D01*
X7226428Y-37815952D01*
X7235952Y-37768333D01*
X7235952Y-37730238D01*
X7226428Y-37682619D01*
X7216905Y-37654048D01*
X7207381Y-37635000D01*
X7188333Y-37606429D01*
X7178809Y-37596905D01*
X15711Y-38125711D02*
X15711Y-37984289D01*
X-125711Y-37984289D01*
X-125711Y-38125711D01*
X15711Y-38125711D01*
X283571Y-37945476D02*
X407381Y-37945476D01*
X340714Y-38021667D01*
X369286Y-38021667D01*
X388333Y-38031190D01*
X397857Y-38040714D01*
X407381Y-38059762D01*
X407381Y-38107381D01*
X397857Y-38126429D01*
X388333Y-38135952D01*
X369286Y-38145476D01*
X312143Y-38145476D01*
X293095Y-38135952D01*
X283571Y-38126429D01*
X493095Y-38126429D02*
X502619Y-38135952D01*
X493095Y-38145476D01*
X483571Y-38135952D01*
X493095Y-38126429D01*
X493095Y-38145476D01*
X626429Y-37945476D02*
X645476Y-37945476D01*
X664524Y-37955000D01*
X674048Y-37964524D01*
X683571Y-37983571D01*
X693095Y-38021667D01*
X693095Y-38069286D01*
X683571Y-38107381D01*
X674048Y-38126429D01*
X664524Y-38135952D01*
X645476Y-38145476D01*
X626429Y-38145476D01*
X607381Y-38135952D01*
X597857Y-38126429D01*
X588333Y-38107381D01*
X578810Y-38069286D01*
X578810Y-38021667D01*
X588333Y-37983571D01*
X597857Y-37964524D01*
X607381Y-37955000D01*
X626429Y-37945476D01*
X864524Y-38012143D02*
X864524Y-38145476D01*
X816905Y-37935952D02*
X769286Y-38078810D01*
X893095Y-38078810D01*
X997857Y-38031190D02*
X978809Y-38021667D01*
X969286Y-38012143D01*
X959762Y-37993095D01*
X959762Y-37983571D01*
X969286Y-37964524D01*
X978809Y-37955000D01*
X997857Y-37945476D01*
X1035952Y-37945476D01*
X1055000Y-37955000D01*
X1064524Y-37964524D01*
X1074048Y-37983571D01*
X1074048Y-37993095D01*
X1064524Y-38012143D01*
X1055000Y-38021667D01*
X1035952Y-38031190D01*
X997857Y-38031190D01*
X978809Y-38040714D01*
X969286Y-38050238D01*
X959762Y-38069286D01*
X959762Y-38107381D01*
X969286Y-38126429D01*
X978809Y-38135952D01*
X997857Y-38145476D01*
X1035952Y-38145476D01*
X1055000Y-38135952D01*
X1064524Y-38126429D01*
X1074048Y-38107381D01*
X1074048Y-38069286D01*
X1064524Y-38050238D01*
X1055000Y-38040714D01*
X1035952Y-38031190D01*
X1159762Y-38145476D02*
X1159762Y-38012143D01*
X1159762Y-38031190D02*
X1169286Y-38021667D01*
X1188333Y-38012143D01*
X1216905Y-38012143D01*
X1235952Y-38021667D01*
X1245476Y-38040714D01*
X1245476Y-38145476D01*
X1245476Y-38040714D02*
X1255000Y-38021667D01*
X1274048Y-38012143D01*
X1302619Y-38012143D01*
X1321667Y-38021667D01*
X1331190Y-38040714D01*
X1331190Y-38145476D01*
X1426428Y-38145476D02*
X1426428Y-38012143D01*
X1426428Y-38031190D02*
X1435952Y-38021667D01*
X1455000Y-38012143D01*
X1483571Y-38012143D01*
X1502619Y-38021667D01*
X1512143Y-38040714D01*
X1512143Y-38145476D01*
X1512143Y-38040714D02*
X1521667Y-38021667D01*
X1540714Y-38012143D01*
X1569286Y-38012143D01*
X1588333Y-38021667D01*
X1597857Y-38040714D01*
X1597857Y-38145476D01*
X1988333Y-37935952D02*
X1816905Y-38193095D01*
X2245476Y-37945476D02*
X2264524Y-37945476D01*
X2283571Y-37955000D01*
X2293095Y-37964524D01*
X2302619Y-37983571D01*
X2312143Y-38021667D01*
X2312143Y-38069286D01*
X2302619Y-38107381D01*
X2293095Y-38126429D01*
X2283571Y-38135952D01*
X2264524Y-38145476D01*
X2245476Y-38145476D01*
X2226429Y-38135952D01*
X2216905Y-38126429D01*
X2207381Y-38107381D01*
X2197857Y-38069286D01*
X2197857Y-38021667D01*
X2207381Y-37983571D01*
X2216905Y-37964524D01*
X2226429Y-37955000D01*
X2245476Y-37945476D01*
X2397857Y-38126429D02*
X2407381Y-38135952D01*
X2397857Y-38145476D01*
X2388333Y-38135952D01*
X2397857Y-38126429D01*
X2397857Y-38145476D01*
X2597857Y-38145476D02*
X2483571Y-38145476D01*
X2540714Y-38145476D02*
X2540714Y-37945476D01*
X2521667Y-37974048D01*
X2502619Y-37993095D01*
X2483571Y-38002619D01*
X2674048Y-37964524D02*
X2683571Y-37955000D01*
X2702619Y-37945476D01*
X2750238Y-37945476D01*
X2769286Y-37955000D01*
X2778810Y-37964524D01*
X2788333Y-37983571D01*
X2788333Y-38002619D01*
X2778810Y-38031190D01*
X2664524Y-38145476D01*
X2788333Y-38145476D01*
X2912143Y-37945476D02*
X2931190Y-37945476D01*
X2950238Y-37955000D01*
X2959762Y-37964524D01*
X2969286Y-37983571D01*
X2978809Y-38021667D01*
X2978809Y-38069286D01*
X2969286Y-38107381D01*
X2959762Y-38126429D01*
X2950238Y-38135952D01*
X2931190Y-38145476D01*
X2912143Y-38145476D01*
X2893095Y-38135952D01*
X2883571Y-38126429D01*
X2874048Y-38107381D01*
X2864524Y-38069286D01*
X2864524Y-38021667D01*
X2874048Y-37983571D01*
X2883571Y-37964524D01*
X2893095Y-37955000D01*
X2912143Y-37945476D01*
X3102619Y-37945476D02*
X3121667Y-37945476D01*
X3140714Y-37955000D01*
X3150238Y-37964524D01*
X3159762Y-37983571D01*
X3169286Y-38021667D01*
X3169286Y-38069286D01*
X3159762Y-38107381D01*
X3150238Y-38126429D01*
X3140714Y-38135952D01*
X3121667Y-38145476D01*
X3102619Y-38145476D01*
X3083571Y-38135952D01*
X3074048Y-38126429D01*
X3064524Y-38107381D01*
X3055000Y-38069286D01*
X3055000Y-38021667D01*
X3064524Y-37983571D01*
X3074048Y-37964524D01*
X3083571Y-37955000D01*
X3102619Y-37945476D01*
X3245476Y-37945476D02*
X3245476Y-37983571D01*
X3321667Y-37945476D02*
X3321667Y-37983571D01*
X3616905Y-38221667D02*
X3607381Y-38212143D01*
X3588333Y-38183571D01*
X3578809Y-38164524D01*
X3569286Y-38135952D01*
X3559762Y-38088333D01*
X3559762Y-38050238D01*
X3569286Y-38002619D01*
X3578809Y-37974048D01*
X3588333Y-37955000D01*
X3607381Y-37926429D01*
X3616905Y-37916905D01*
X3683571Y-37964524D02*
X3693095Y-37955000D01*
X3712143Y-37945476D01*
X3759762Y-37945476D01*
X3778809Y-37955000D01*
X3788333Y-37964524D01*
X3797857Y-37983571D01*
X3797857Y-38002619D01*
X3788333Y-38031190D01*
X3674048Y-38145476D01*
X3797857Y-38145476D01*
X3874048Y-37964524D02*
X3883571Y-37955000D01*
X3902619Y-37945476D01*
X3950238Y-37945476D01*
X3969286Y-37955000D01*
X3978809Y-37964524D01*
X3988333Y-37983571D01*
X3988333Y-38002619D01*
X3978809Y-38031190D01*
X3864524Y-38145476D01*
X3988333Y-38145476D01*
X4226429Y-38145476D02*
X4226429Y-37945476D01*
X4312143Y-38145476D02*
X4312143Y-38040714D01*
X4302619Y-38021667D01*
X4283571Y-38012143D01*
X4255000Y-38012143D01*
X4235952Y-38021667D01*
X4226429Y-38031190D01*
X4435952Y-38145476D02*
X4416905Y-38135952D01*
X4407381Y-38126429D01*
X4397857Y-38107381D01*
X4397857Y-38050238D01*
X4407381Y-38031190D01*
X4416905Y-38021667D01*
X4435952Y-38012143D01*
X4464524Y-38012143D01*
X4483571Y-38021667D01*
X4493095Y-38031190D01*
X4502619Y-38050238D01*
X4502619Y-38107381D01*
X4493095Y-38126429D01*
X4483571Y-38135952D01*
X4464524Y-38145476D01*
X4435952Y-38145476D01*
X4616905Y-38145476D02*
X4597857Y-38135952D01*
X4588333Y-38116905D01*
X4588333Y-37945476D01*
X4769286Y-38135952D02*
X4750238Y-38145476D01*
X4712143Y-38145476D01*
X4693095Y-38135952D01*
X4683571Y-38116905D01*
X4683571Y-38040714D01*
X4693095Y-38021667D01*
X4712143Y-38012143D01*
X4750238Y-38012143D01*
X4769286Y-38021667D01*
X4778810Y-38040714D01*
X4778810Y-38059762D01*
X4683571Y-38078810D01*
X4855000Y-38135952D02*
X4874048Y-38145476D01*
X4912143Y-38145476D01*
X4931190Y-38135952D01*
X4940714Y-38116905D01*
X4940714Y-38107381D01*
X4931190Y-38088333D01*
X4912143Y-38078810D01*
X4883571Y-38078810D01*
X4864524Y-38069286D01*
X4855000Y-38050238D01*
X4855000Y-38040714D01*
X4864524Y-38021667D01*
X4883571Y-38012143D01*
X4912143Y-38012143D01*
X4931190Y-38021667D01*
X5007381Y-38221667D02*
X5016905Y-38212143D01*
X5035952Y-38183571D01*
X5045476Y-38164524D01*
X5055000Y-38135952D01*
X5064524Y-38088333D01*
X5064524Y-38050238D01*
X5055000Y-38002619D01*
X5045476Y-37974048D01*
X5035952Y-37955000D01*
X5016905Y-37926429D01*
X5007381Y-37916905D01*
X5369286Y-38221667D02*
X5359762Y-38212143D01*
X5340714Y-38183571D01*
X5331190Y-38164524D01*
X5321667Y-38135952D01*
X5312143Y-38088333D01*
X5312143Y-38050238D01*
X5321667Y-38002619D01*
X5331190Y-37974048D01*
X5340714Y-37955000D01*
X5359762Y-37926429D01*
X5369286Y-37916905D01*
X5445476Y-38012143D02*
X5445476Y-38145476D01*
X5445476Y-38031190D02*
X5455000Y-38021667D01*
X5474048Y-38012143D01*
X5502619Y-38012143D01*
X5521667Y-38021667D01*
X5531190Y-38040714D01*
X5531190Y-38145476D01*
X5655000Y-38145476D02*
X5635952Y-38135952D01*
X5626428Y-38126429D01*
X5616905Y-38107381D01*
X5616905Y-38050238D01*
X5626428Y-38031190D01*
X5635952Y-38021667D01*
X5655000Y-38012143D01*
X5683571Y-38012143D01*
X5702619Y-38021667D01*
X5712143Y-38031190D01*
X5721667Y-38050238D01*
X5721667Y-38107381D01*
X5712143Y-38126429D01*
X5702619Y-38135952D01*
X5683571Y-38145476D01*
X5655000Y-38145476D01*
X5778809Y-38012143D02*
X5855000Y-38012143D01*
X5807381Y-37945476D02*
X5807381Y-38116905D01*
X5816905Y-38135952D01*
X5835952Y-38145476D01*
X5855000Y-38145476D01*
X6074048Y-38012143D02*
X6074048Y-38212143D01*
X6074048Y-38021667D02*
X6093095Y-38012143D01*
X6131190Y-38012143D01*
X6150238Y-38021667D01*
X6159762Y-38031190D01*
X6169286Y-38050238D01*
X6169286Y-38107381D01*
X6159762Y-38126429D01*
X6150238Y-38135952D01*
X6131190Y-38145476D01*
X6093095Y-38145476D01*
X6074048Y-38135952D01*
X6283571Y-38145476D02*
X6264524Y-38135952D01*
X6255000Y-38116905D01*
X6255000Y-37945476D01*
X6445476Y-38145476D02*
X6445476Y-38040714D01*
X6435952Y-38021667D01*
X6416905Y-38012143D01*
X6378809Y-38012143D01*
X6359762Y-38021667D01*
X6445476Y-38135952D02*
X6426428Y-38145476D01*
X6378809Y-38145476D01*
X6359762Y-38135952D01*
X6350238Y-38116905D01*
X6350238Y-38097857D01*
X6359762Y-38078810D01*
X6378809Y-38069286D01*
X6426428Y-38069286D01*
X6445476Y-38059762D01*
X6512143Y-38012143D02*
X6588333Y-38012143D01*
X6540714Y-37945476D02*
X6540714Y-38116905D01*
X6550238Y-38135952D01*
X6569286Y-38145476D01*
X6588333Y-38145476D01*
X6731190Y-38135952D02*
X6712143Y-38145476D01*
X6674048Y-38145476D01*
X6655000Y-38135952D01*
X6645476Y-38116905D01*
X6645476Y-38040714D01*
X6655000Y-38021667D01*
X6674048Y-38012143D01*
X6712143Y-38012143D01*
X6731190Y-38021667D01*
X6740714Y-38040714D01*
X6740714Y-38059762D01*
X6645476Y-38078810D01*
X6912143Y-38145476D02*
X6912143Y-37945476D01*
X6912143Y-38135952D02*
X6893095Y-38145476D01*
X6855000Y-38145476D01*
X6835952Y-38135952D01*
X6826428Y-38126429D01*
X6816905Y-38107381D01*
X6816905Y-38050238D01*
X6826428Y-38031190D01*
X6835952Y-38021667D01*
X6855000Y-38012143D01*
X6893095Y-38012143D01*
X6912143Y-38021667D01*
X6988333Y-38221667D02*
X6997857Y-38212143D01*
X7016905Y-38183571D01*
X7026428Y-38164524D01*
X7035952Y-38135952D01*
X7045476Y-38088333D01*
X7045476Y-38050238D01*
X7035952Y-38002619D01*
X7026428Y-37974048D01*
X7016905Y-37955000D01*
X6997857Y-37926429D01*
X6988333Y-37916905D01*
X-55000Y-38475000D02*
X45000Y-38375000D01*
X-55000Y-38275000D01*
X-155000Y-38375000D01*
X-55000Y-38475000D01*
X283571Y-38265476D02*
X407381Y-38265476D01*
X340714Y-38341667D01*
X369286Y-38341667D01*
X388333Y-38351190D01*
X397857Y-38360714D01*
X407381Y-38379762D01*
X407381Y-38427381D01*
X397857Y-38446429D01*
X388333Y-38455952D01*
X369286Y-38465476D01*
X312143Y-38465476D01*
X293095Y-38455952D01*
X283571Y-38446429D01*
X493095Y-38446429D02*
X502619Y-38455952D01*
X493095Y-38465476D01*
X483571Y-38455952D01*
X493095Y-38446429D01*
X493095Y-38465476D01*
X597857Y-38465476D02*
X635952Y-38465476D01*
X655000Y-38455952D01*
X664524Y-38446429D01*
X683571Y-38417857D01*
X693095Y-38379762D01*
X693095Y-38303571D01*
X683571Y-38284524D01*
X674048Y-38275000D01*
X655000Y-38265476D01*
X616905Y-38265476D01*
X597857Y-38275000D01*
X588333Y-38284524D01*
X578810Y-38303571D01*
X578810Y-38351190D01*
X588333Y-38370238D01*
X597857Y-38379762D01*
X616905Y-38389286D01*
X655000Y-38389286D01*
X674048Y-38379762D01*
X683571Y-38370238D01*
X693095Y-38351190D01*
X807381Y-38351190D02*
X788333Y-38341667D01*
X778809Y-38332143D01*
X769286Y-38313095D01*
X769286Y-38303571D01*
X778809Y-38284524D01*
X788333Y-38275000D01*
X807381Y-38265476D01*
X845476Y-38265476D01*
X864524Y-38275000D01*
X874048Y-38284524D01*
X883571Y-38303571D01*
X883571Y-38313095D01*
X874048Y-38332143D01*
X864524Y-38341667D01*
X845476Y-38351190D01*
X807381Y-38351190D01*
X788333Y-38360714D01*
X778809Y-38370238D01*
X769286Y-38389286D01*
X769286Y-38427381D01*
X778809Y-38446429D01*
X788333Y-38455952D01*
X807381Y-38465476D01*
X845476Y-38465476D01*
X864524Y-38455952D01*
X874048Y-38446429D01*
X883571Y-38427381D01*
X883571Y-38389286D01*
X874048Y-38370238D01*
X864524Y-38360714D01*
X845476Y-38351190D01*
X997857Y-38351190D02*
X978809Y-38341667D01*
X969286Y-38332143D01*
X959762Y-38313095D01*
X959762Y-38303571D01*
X969286Y-38284524D01*
X978809Y-38275000D01*
X997857Y-38265476D01*
X1035952Y-38265476D01*
X1055000Y-38275000D01*
X1064524Y-38284524D01*
X1074048Y-38303571D01*
X1074048Y-38313095D01*
X1064524Y-38332143D01*
X1055000Y-38341667D01*
X1035952Y-38351190D01*
X997857Y-38351190D01*
X978809Y-38360714D01*
X969286Y-38370238D01*
X959762Y-38389286D01*
X959762Y-38427381D01*
X969286Y-38446429D01*
X978809Y-38455952D01*
X997857Y-38465476D01*
X1035952Y-38465476D01*
X1055000Y-38455952D01*
X1064524Y-38446429D01*
X1074048Y-38427381D01*
X1074048Y-38389286D01*
X1064524Y-38370238D01*
X1055000Y-38360714D01*
X1035952Y-38351190D01*
X1159762Y-38465476D02*
X1159762Y-38332143D01*
X1159762Y-38351190D02*
X1169286Y-38341667D01*
X1188333Y-38332143D01*
X1216905Y-38332143D01*
X1235952Y-38341667D01*
X1245476Y-38360714D01*
X1245476Y-38465476D01*
X1245476Y-38360714D02*
X1255000Y-38341667D01*
X1274048Y-38332143D01*
X1302619Y-38332143D01*
X1321667Y-38341667D01*
X1331190Y-38360714D01*
X1331190Y-38465476D01*
X1426428Y-38465476D02*
X1426428Y-38332143D01*
X1426428Y-38351190D02*
X1435952Y-38341667D01*
X1455000Y-38332143D01*
X1483571Y-38332143D01*
X1502619Y-38341667D01*
X1512143Y-38360714D01*
X1512143Y-38465476D01*
X1512143Y-38360714D02*
X1521667Y-38341667D01*
X1540714Y-38332143D01*
X1569286Y-38332143D01*
X1588333Y-38341667D01*
X1597857Y-38360714D01*
X1597857Y-38465476D01*
X1988333Y-38255952D02*
X1816905Y-38513095D01*
X2245476Y-38265476D02*
X2264524Y-38265476D01*
X2283571Y-38275000D01*
X2293095Y-38284524D01*
X2302619Y-38303571D01*
X2312143Y-38341667D01*
X2312143Y-38389286D01*
X2302619Y-38427381D01*
X2293095Y-38446429D01*
X2283571Y-38455952D01*
X2264524Y-38465476D01*
X2245476Y-38465476D01*
X2226429Y-38455952D01*
X2216905Y-38446429D01*
X2207381Y-38427381D01*
X2197857Y-38389286D01*
X2197857Y-38341667D01*
X2207381Y-38303571D01*
X2216905Y-38284524D01*
X2226429Y-38275000D01*
X2245476Y-38265476D01*
X2397857Y-38446429D02*
X2407381Y-38455952D01*
X2397857Y-38465476D01*
X2388333Y-38455952D01*
X2397857Y-38446429D01*
X2397857Y-38465476D01*
X2597857Y-38465476D02*
X2483571Y-38465476D01*
X2540714Y-38465476D02*
X2540714Y-38265476D01*
X2521667Y-38294048D01*
X2502619Y-38313095D01*
X2483571Y-38322619D01*
X2778810Y-38265476D02*
X2683571Y-38265476D01*
X2674048Y-38360714D01*
X2683571Y-38351190D01*
X2702619Y-38341667D01*
X2750238Y-38341667D01*
X2769286Y-38351190D01*
X2778810Y-38360714D01*
X2788333Y-38379762D01*
X2788333Y-38427381D01*
X2778810Y-38446429D01*
X2769286Y-38455952D01*
X2750238Y-38465476D01*
X2702619Y-38465476D01*
X2683571Y-38455952D01*
X2674048Y-38446429D01*
X2855000Y-38265476D02*
X2988333Y-38265476D01*
X2902619Y-38465476D01*
X3102619Y-38265476D02*
X3121667Y-38265476D01*
X3140714Y-38275000D01*
X3150238Y-38284524D01*
X3159762Y-38303571D01*
X3169286Y-38341667D01*
X3169286Y-38389286D01*
X3159762Y-38427381D01*
X3150238Y-38446429D01*
X3140714Y-38455952D01*
X3121667Y-38465476D01*
X3102619Y-38465476D01*
X3083571Y-38455952D01*
X3074048Y-38446429D01*
X3064524Y-38427381D01*
X3055000Y-38389286D01*
X3055000Y-38341667D01*
X3064524Y-38303571D01*
X3074048Y-38284524D01*
X3083571Y-38275000D01*
X3102619Y-38265476D01*
X3245476Y-38265476D02*
X3245476Y-38303571D01*
X3321667Y-38265476D02*
X3321667Y-38303571D01*
X3616905Y-38541667D02*
X3607381Y-38532143D01*
X3588333Y-38503571D01*
X3578809Y-38484524D01*
X3569286Y-38455952D01*
X3559762Y-38408333D01*
X3559762Y-38370238D01*
X3569286Y-38322619D01*
X3578809Y-38294048D01*
X3588333Y-38275000D01*
X3607381Y-38246429D01*
X3616905Y-38236905D01*
X3797857Y-38465476D02*
X3683571Y-38465476D01*
X3740714Y-38465476D02*
X3740714Y-38265476D01*
X3721667Y-38294048D01*
X3702619Y-38313095D01*
X3683571Y-38322619D01*
X3978809Y-38265476D02*
X3883571Y-38265476D01*
X3874048Y-38360714D01*
X3883571Y-38351190D01*
X3902619Y-38341667D01*
X3950238Y-38341667D01*
X3969286Y-38351190D01*
X3978809Y-38360714D01*
X3988333Y-38379762D01*
X3988333Y-38427381D01*
X3978809Y-38446429D01*
X3969286Y-38455952D01*
X3950238Y-38465476D01*
X3902619Y-38465476D01*
X3883571Y-38455952D01*
X3874048Y-38446429D01*
X4169286Y-38265476D02*
X4074048Y-38265476D01*
X4064524Y-38360714D01*
X4074048Y-38351190D01*
X4093095Y-38341667D01*
X4140714Y-38341667D01*
X4159762Y-38351190D01*
X4169286Y-38360714D01*
X4178809Y-38379762D01*
X4178809Y-38427381D01*
X4169286Y-38446429D01*
X4159762Y-38455952D01*
X4140714Y-38465476D01*
X4093095Y-38465476D01*
X4074048Y-38455952D01*
X4064524Y-38446429D01*
X4416905Y-38465476D02*
X4416905Y-38265476D01*
X4502619Y-38465476D02*
X4502619Y-38360714D01*
X4493095Y-38341667D01*
X4474048Y-38332143D01*
X4445476Y-38332143D01*
X4426429Y-38341667D01*
X4416905Y-38351190D01*
X4626429Y-38465476D02*
X4607381Y-38455952D01*
X4597857Y-38446429D01*
X4588333Y-38427381D01*
X4588333Y-38370238D01*
X4597857Y-38351190D01*
X4607381Y-38341667D01*
X4626429Y-38332143D01*
X4655000Y-38332143D01*
X4674048Y-38341667D01*
X4683571Y-38351190D01*
X4693095Y-38370238D01*
X4693095Y-38427381D01*
X4683571Y-38446429D01*
X4674048Y-38455952D01*
X4655000Y-38465476D01*
X4626429Y-38465476D01*
X4807381Y-38465476D02*
X4788333Y-38455952D01*
X4778810Y-38436905D01*
X4778810Y-38265476D01*
X4959762Y-38455952D02*
X4940714Y-38465476D01*
X4902619Y-38465476D01*
X4883571Y-38455952D01*
X4874048Y-38436905D01*
X4874048Y-38360714D01*
X4883571Y-38341667D01*
X4902619Y-38332143D01*
X4940714Y-38332143D01*
X4959762Y-38341667D01*
X4969286Y-38360714D01*
X4969286Y-38379762D01*
X4874048Y-38398810D01*
X5045476Y-38455952D02*
X5064524Y-38465476D01*
X5102619Y-38465476D01*
X5121667Y-38455952D01*
X5131190Y-38436905D01*
X5131190Y-38427381D01*
X5121667Y-38408333D01*
X5102619Y-38398810D01*
X5074048Y-38398810D01*
X5055000Y-38389286D01*
X5045476Y-38370238D01*
X5045476Y-38360714D01*
X5055000Y-38341667D01*
X5074048Y-38332143D01*
X5102619Y-38332143D01*
X5121667Y-38341667D01*
X5197857Y-38541667D02*
X5207381Y-38532143D01*
X5226429Y-38503571D01*
X5235952Y-38484524D01*
X5245476Y-38455952D01*
X5255000Y-38408333D01*
X5255000Y-38370238D01*
X5245476Y-38322619D01*
X5235952Y-38294048D01*
X5226429Y-38275000D01*
X5207381Y-38246429D01*
X5197857Y-38236905D01*
X5559762Y-38541667D02*
X5550238Y-38532143D01*
X5531190Y-38503571D01*
X5521667Y-38484524D01*
X5512143Y-38455952D01*
X5502619Y-38408333D01*
X5502619Y-38370238D01*
X5512143Y-38322619D01*
X5521667Y-38294048D01*
X5531190Y-38275000D01*
X5550238Y-38246429D01*
X5559762Y-38236905D01*
X5635952Y-38332143D02*
X5635952Y-38465476D01*
X5635952Y-38351190D02*
X5645476Y-38341667D01*
X5664524Y-38332143D01*
X5693095Y-38332143D01*
X5712143Y-38341667D01*
X5721667Y-38360714D01*
X5721667Y-38465476D01*
X5845476Y-38465476D02*
X5826428Y-38455952D01*
X5816905Y-38446429D01*
X5807381Y-38427381D01*
X5807381Y-38370238D01*
X5816905Y-38351190D01*
X5826428Y-38341667D01*
X5845476Y-38332143D01*
X5874048Y-38332143D01*
X5893095Y-38341667D01*
X5902619Y-38351190D01*
X5912143Y-38370238D01*
X5912143Y-38427381D01*
X5902619Y-38446429D01*
X5893095Y-38455952D01*
X5874048Y-38465476D01*
X5845476Y-38465476D01*
X5969286Y-38332143D02*
X6045476Y-38332143D01*
X5997857Y-38265476D02*
X5997857Y-38436905D01*
X6007381Y-38455952D01*
X6026428Y-38465476D01*
X6045476Y-38465476D01*
X6264524Y-38332143D02*
X6264524Y-38532143D01*
X6264524Y-38341667D02*
X6283571Y-38332143D01*
X6321667Y-38332143D01*
X6340714Y-38341667D01*
X6350238Y-38351190D01*
X6359762Y-38370238D01*
X6359762Y-38427381D01*
X6350238Y-38446429D01*
X6340714Y-38455952D01*
X6321667Y-38465476D01*
X6283571Y-38465476D01*
X6264524Y-38455952D01*
X6474048Y-38465476D02*
X6455000Y-38455952D01*
X6445476Y-38436905D01*
X6445476Y-38265476D01*
X6635952Y-38465476D02*
X6635952Y-38360714D01*
X6626428Y-38341667D01*
X6607381Y-38332143D01*
X6569286Y-38332143D01*
X6550238Y-38341667D01*
X6635952Y-38455952D02*
X6616905Y-38465476D01*
X6569286Y-38465476D01*
X6550238Y-38455952D01*
X6540714Y-38436905D01*
X6540714Y-38417857D01*
X6550238Y-38398810D01*
X6569286Y-38389286D01*
X6616905Y-38389286D01*
X6635952Y-38379762D01*
X6702619Y-38332143D02*
X6778809Y-38332143D01*
X6731190Y-38265476D02*
X6731190Y-38436905D01*
X6740714Y-38455952D01*
X6759762Y-38465476D01*
X6778809Y-38465476D01*
X6921667Y-38455952D02*
X6902619Y-38465476D01*
X6864524Y-38465476D01*
X6845476Y-38455952D01*
X6835952Y-38436905D01*
X6835952Y-38360714D01*
X6845476Y-38341667D01*
X6864524Y-38332143D01*
X6902619Y-38332143D01*
X6921667Y-38341667D01*
X6931190Y-38360714D01*
X6931190Y-38379762D01*
X6835952Y-38398810D01*
X7102619Y-38465476D02*
X7102619Y-38265476D01*
X7102619Y-38455952D02*
X7083571Y-38465476D01*
X7045476Y-38465476D01*
X7026428Y-38455952D01*
X7016905Y-38446429D01*
X7007381Y-38427381D01*
X7007381Y-38370238D01*
X7016905Y-38351190D01*
X7026428Y-38341667D01*
X7045476Y-38332143D01*
X7083571Y-38332143D01*
X7102619Y-38341667D01*
X7178809Y-38541667D02*
X7188333Y-38532143D01*
X7207381Y-38503571D01*
X7216905Y-38484524D01*
X7226428Y-38455952D01*
X7235952Y-38408333D01*
X7235952Y-38370238D01*
X7226428Y-38322619D01*
X7216905Y-38294048D01*
X7207381Y-38275000D01*
X7188333Y-38246429D01*
X7178809Y-38236905D01*
M02*
