G04 #@! TF.GenerationSoftware,KiCad,Pcbnew,(6.0.1-0)*
G04 #@! TF.CreationDate,2022-06-13T17:24:51-07:00*
G04 #@! TF.ProjectId,adelheid-xt,6164656c-6865-4696-942d-78742e6b6963,rev?*
G04 #@! TF.SameCoordinates,Original*
G04 #@! TF.FileFunction,Profile,NP*
%FSLAX46Y46*%
G04 Gerber Fmt 4.6, Leading zero omitted, Abs format (unit mm)*
G04 Created by KiCad (PCBNEW (6.0.1-0)) date 2022-06-13 17:24:51*
%MOMM*%
%LPD*%
G01*
G04 APERTURE LIST*
G04 #@! TA.AperFunction,Profile*
%ADD10C,0.100000*%
G04 #@! TD*
G04 APERTURE END LIST*
D10*
X464637500Y-257968750D02*
X464637500Y-374650000D01*
X463050000Y-376237500D02*
G75*
G03*
X464637500Y-374650000I0J1587500D01*
G01*
X149225000Y-394493750D02*
X164306250Y-394493750D01*
X64293750Y-376237500D02*
X149225000Y-394493750D01*
X250031250Y-376237500D02*
X164306250Y-394493750D01*
X463050000Y-376237500D02*
X250031250Y-376237500D01*
X342106250Y-255587500D02*
X462256250Y-255587500D01*
X464637500Y-257968750D02*
G75*
G03*
X462256250Y-255587500I-2381250J0D01*
G01*
X341312500Y-254000000D02*
X341312500Y-254793750D01*
X309562500Y-253206250D02*
X340518750Y-253206250D01*
X308768750Y-254793750D02*
X308768750Y-254000000D01*
X341312500Y-254793750D02*
G75*
G03*
X342106250Y-255587500I793750J0D01*
G01*
X341312500Y-254000000D02*
G75*
G03*
X340518750Y-253206250I-793750J0D01*
G01*
X309562500Y-253206250D02*
G75*
G03*
X308768750Y-254000000I0J-793750D01*
G01*
X307975000Y-255587500D02*
G75*
G03*
X308768750Y-254793750I0J793750D01*
G01*
X-35218750Y-374650000D02*
X-35218750Y-257175000D01*
X-35218750Y-374650000D02*
G75*
G03*
X-33631250Y-376237500I1587500J0D01*
G01*
X-33631250Y-255587500D02*
G75*
G03*
X-35218750Y-257175000I0J-1587500D01*
G01*
X-33631250Y-376237500D02*
X64293750Y-376237500D01*
X-33631250Y-255587500D02*
X307975000Y-255587500D01*
M02*
