M48
; DRILL file {KiCad (6.0.1-0)} date Tuesday, June 21, 2022 at 10:21:52 AM
; FORMAT={-:-/ absolute / metric / decimal}
; #@! TF.CreationDate,2022-06-21T10:21:52-07:00
; #@! TF.GenerationSoftware,Kicad,Pcbnew,(6.0.1-0)
; #@! TF.FileFunction,NonPlated,1,2,NPTH
FMAT,2
METRIC
; #@! TA.AperFunction,NonPlated,NPTH,ComponentDrill
T1C1.500
; #@! TA.AperFunction,NonPlated,NPTH,ComponentDrill
T2C1.750
; #@! TA.AperFunction,NonPlated,NPTH,ComponentDrill
T3C3.000
; #@! TA.AperFunction,NonPlated,NPTH,ComponentDrill
T4C3.048
; #@! TA.AperFunction,NonPlated,NPTH,ComponentDrill
T5C3.988
%
G90
G05
T2
X4.445Y-238.125
X4.445Y-261.938
X4.445Y-280.988
X4.445Y-300.037
X4.445Y-319.087
X4.445Y-338.137
X13.97Y-238.125
X14.605Y-238.125
X14.605Y-261.938
X14.605Y-280.988
X14.605Y-300.037
X14.605Y-319.087
X14.605Y-338.137
X23.495Y-238.125
X23.495Y-261.938
X23.495Y-280.988
X23.495Y-300.037
X23.495Y-319.087
X23.495Y-338.137
X24.13Y-238.125
X33.655Y-238.125
X33.655Y-261.938
X33.655Y-280.988
X33.655Y-300.037
X33.655Y-319.087
X33.655Y-338.137
X49.689Y-238.125
X52.07Y-338.137
X53.657Y-300.037
X58.42Y-300.037
X59.214Y-319.087
X59.646Y-261.938
X59.849Y-238.125
X60.242Y-280.975
X62.23Y-338.137
X63.817Y-300.037
X68.58Y-300.037
X69.374Y-319.087
X69.806Y-261.938
X70.402Y-280.975
X73.501Y-236.537
X78.7Y-261.938
X83.661Y-236.537
X84.055Y-280.988
X84.614Y-300.037
X88.86Y-261.938
X90.17Y-319.087
X92.551Y-236.537
X94.215Y-280.988
X94.774Y-300.037
X97.746Y-260.35
X100.33Y-319.087
X102.711Y-236.537
X104.664Y-280.249
X105.362Y-299.883
X107.906Y-260.35
X109.071Y-339.604
X110.696Y-320.482
X111.407Y-340.104
X113.605Y-238.326
X114.602Y-282.361
X115.3Y-301.995
X117.948Y-263.586
X119.009Y-341.716
X120.634Y-322.595
X121.345Y-342.216
X123.295Y-284.211
X123.543Y-240.438
X123.993Y-303.845
X127.886Y-265.699
X129.314Y-324.432
X132.223Y-242.276
X133.233Y-286.324
X133.931Y-305.958
X136.579Y-267.562
X139.252Y-326.544
X141.687Y-346.543
X141.913Y-288.186
X142.161Y-244.388
X142.586Y-307.77
X144.008Y-347.038
X146.517Y-269.674
X147.958Y-328.395
X151.625Y-348.655
X151.851Y-290.299
X152.524Y-309.882
X153.946Y-349.15
X155.222Y-271.524
X155.489Y-247.242
X157.896Y-330.507
X160.556Y-292.098
X161.23Y-311.732
X165.16Y-273.636
X165.427Y-249.354
X166.589Y-332.344
X170.494Y-294.21
X171.168Y-313.844
X171.961Y-352.969
X173.866Y-275.461
X174.107Y-251.204
X176.527Y-334.457
X181.899Y-355.081
X183.804Y-277.573
X184.045Y-253.316
X195.224Y-337.433
X196.637Y-298.185
X201.692Y-253.304
X201.984Y-277.573
X205.162Y-335.32
X205.248Y-315.826
X206.575Y-296.073
X211.63Y-251.191
X211.922Y-275.461
X213.858Y-333.479
X215.186Y-313.713
X215.255Y-294.21
X220.323Y-249.341
X220.627Y-273.624
X223.796Y-331.366
X223.879Y-311.851
X224.818Y-350.598
X225.193Y-292.098
X230.261Y-247.229
X230.565Y-271.511
X232.502Y-329.504
X233.817Y-309.738
X233.874Y-290.261
X234.756Y-348.486
X239.233Y-269.648
X242.44Y-327.391
X242.51Y-307.875
X243.602Y-244.388
X243.812Y-288.148
X249.171Y-267.536
X251.12Y-325.541
X252.448Y-305.763
X252.504Y-286.298
X253.54Y-242.276
X257.889Y-265.711
X261.058Y-323.429
X261.115Y-303.938
X262.233Y-240.426
X262.442Y-284.186
X264.404Y-342.191
X267.827Y-263.599
X269.764Y-321.579
X271.053Y-301.826
X271.135Y-282.348
X272.171Y-238.313
X274.342Y-340.079
X277.832Y-260.426
X279.702Y-319.466
X281.073Y-280.236
X281.464Y-300.037
X282.886Y-236.537
X287.992Y-260.426
X290.195Y-319.087
X291.522Y-280.988
X291.624Y-300.037
X293.046Y-236.537
X296.869Y-261.938
X300.355Y-319.087
X300.552Y-300.037
X301.682Y-280.988
X301.949Y-236.537
X307.029Y-261.938
X310.559Y-280.988
X310.712Y-300.037
X312.109Y-236.537
X315.919Y-261.938
X320.719Y-280.988
X325.444Y-261.938
X325.914Y-319.087
X326.079Y-261.938
X331.47Y-300.037
X334.372Y-280.988
X334.645Y-238.125
X334.956Y-261.938
X335.604Y-261.938
X336.074Y-319.087
X337.82Y-338.137
X341.63Y-300.037
X344.532Y-280.988
X344.805Y-238.125
X345.116Y-261.938
X347.98Y-338.137
X367.189Y-238.125
X367.189Y-261.938
X367.189Y-280.988
X367.189Y-338.137
X377.349Y-238.125
X377.349Y-261.938
X377.349Y-280.988
X377.349Y-338.137
X386.239Y-238.125
X386.239Y-261.938
X386.239Y-280.988
X386.239Y-319.087
X386.239Y-338.137
X396.399Y-238.125
X396.399Y-261.938
X396.399Y-280.988
X396.399Y-319.087
X396.399Y-338.137
X405.289Y-238.125
X405.289Y-261.938
X405.289Y-280.988
X405.289Y-338.137
X415.449Y-238.125
X415.449Y-261.938
X415.449Y-280.988
X415.449Y-338.137
X429.101Y-238.125
X429.101Y-261.938
X429.101Y-280.988
X429.101Y-300.037
X429.101Y-319.087
X429.101Y-338.137
X438.626Y-338.137
X439.261Y-238.125
X439.261Y-261.938
X439.261Y-280.988
X439.261Y-300.037
X439.261Y-319.087
X439.261Y-338.137
X448.151Y-238.125
X448.151Y-261.938
X448.151Y-280.988
X448.151Y-300.037
X448.151Y-319.087
X448.151Y-338.137
X448.786Y-338.137
X458.311Y-238.125
X458.311Y-261.938
X458.311Y-280.988
X458.311Y-300.037
X458.311Y-319.087
X458.311Y-338.137
X467.201Y-238.125
X467.201Y-261.938
X467.201Y-280.988
X467.201Y-300.037
X467.201Y-319.087
X467.201Y-338.137
X477.361Y-238.125
X477.361Y-261.938
X477.361Y-280.988
X477.361Y-300.037
X477.361Y-319.087
X477.361Y-338.137
X486.251Y-238.125
X486.251Y-261.938
X491.331Y-275.907
X491.331Y-285.433
X491.331Y-286.067
X491.331Y-294.957
X491.331Y-295.592
X491.331Y-305.118
X491.331Y-314.007
X491.331Y-323.532
X491.331Y-324.167
X491.331Y-333.058
X491.331Y-333.692
X491.331Y-343.217
X496.411Y-238.125
X496.411Y-261.938
T3
X5.715Y-235.585
X5.715Y-259.397
X5.715Y-278.447
X5.715Y-297.498
X5.715Y-316.548
X5.715Y-335.597
X12.065Y-233.045
X12.065Y-256.858
X12.065Y-275.907
X12.065Y-294.957
X12.065Y-314.007
X12.065Y-333.058
X16.51Y-243.205
X22.86Y-240.665
X24.765Y-235.585
X24.765Y-259.397
X24.765Y-278.447
X24.765Y-297.498
X24.765Y-316.548
X24.765Y-335.597
X31.115Y-233.045
X31.115Y-256.858
X31.115Y-275.907
X31.115Y-294.957
X31.115Y-314.007
X31.115Y-333.058
X50.959Y-235.585
X53.34Y-335.597
X56.197Y-305.118
X57.309Y-233.045
X59.69Y-297.498
X59.69Y-333.058
X60.484Y-316.548
X60.916Y-259.397
X61.512Y-278.435
X62.547Y-302.577
X66.04Y-294.957
X66.834Y-314.007
X67.266Y-256.858
X67.862Y-275.895
X74.771Y-233.998
X79.97Y-259.397
X81.121Y-231.457
X85.325Y-278.447
X85.884Y-297.498
X86.32Y-256.858
X91.44Y-316.548
X91.675Y-275.907
X92.234Y-294.957
X93.821Y-233.998
X97.79Y-314.007
X99.016Y-257.81
X100.171Y-231.457
X105.366Y-255.27
X106.434Y-278.028
X107.133Y-297.663
X110.499Y-345.101
X112.467Y-318.262
X113.173Y-276.864
X113.178Y-337.883
X113.872Y-296.498
X115.375Y-236.106
X117.238Y-343.936
X119.206Y-317.098
X119.718Y-261.366
X119.917Y-336.719
X122.114Y-234.941
X125.065Y-281.991
X125.764Y-301.625
X126.458Y-260.202
X131.085Y-322.212
X131.804Y-280.827
X132.503Y-300.461
X133.993Y-240.055
X137.824Y-321.047
X138.349Y-265.341
X140.732Y-238.891
X143.115Y-352.04
X143.683Y-285.966
X144.356Y-305.549
X145.089Y-264.177
X145.779Y-344.818
X149.728Y-326.174
X149.854Y-350.876
X150.423Y-284.802
X151.096Y-304.385
X152.518Y-343.653
X156.468Y-325.01
X156.993Y-269.303
X157.26Y-245.021
X162.327Y-289.877
X163.0Y-309.512
X163.732Y-268.139
X163.999Y-243.857
X168.359Y-330.124
X169.066Y-288.713
X169.739Y-308.347
X173.731Y-350.749
X175.099Y-328.96
X175.636Y-273.24
X175.878Y-248.983
X180.471Y-349.584
X182.376Y-272.076
X182.617Y-247.819
X195.938Y-334.684
X197.351Y-295.437
X201.621Y-330.88
X202.406Y-250.555
X202.698Y-274.825
X203.034Y-291.632
X205.962Y-313.077
X208.089Y-246.75
X208.381Y-271.02
X211.645Y-309.272
X214.573Y-330.73
X215.97Y-291.462
X220.256Y-326.925
X221.037Y-246.593
X221.342Y-270.875
X221.653Y-287.657
X224.593Y-309.102
X225.533Y-347.85
X226.72Y-242.788
X227.025Y-267.07
X230.276Y-305.297
X231.216Y-344.045
X233.216Y-326.755
X234.588Y-287.512
X238.899Y-322.95
X239.947Y-266.9
X240.271Y-283.707
X243.224Y-305.127
X244.316Y-241.64
X245.63Y-263.095
X248.907Y-301.322
X249.999Y-237.835
X251.834Y-322.793
X253.219Y-283.55
X257.517Y-318.988
X258.603Y-262.963
X258.902Y-279.745
X261.829Y-301.19
X262.947Y-237.677
X264.287Y-259.158
X265.119Y-339.442
X267.512Y-297.385
X268.63Y-233.873
X270.478Y-318.83
X270.802Y-335.638
X271.85Y-279.6
X276.161Y-315.026
X277.533Y-275.795
X279.102Y-257.886
X282.734Y-297.498
X284.156Y-233.998
X285.452Y-255.346
X289.084Y-294.957
X290.506Y-231.457
X291.465Y-316.548
X292.792Y-278.447
X297.815Y-314.007
X298.139Y-259.397
X299.142Y-275.907
X301.822Y-297.498
X303.219Y-233.998
X304.489Y-256.858
X308.172Y-294.957
X309.569Y-231.457
X311.829Y-278.447
X317.189Y-259.397
X318.179Y-275.907
X323.539Y-256.858
X327.184Y-316.548
X327.984Y-267.017
X332.74Y-297.498
X333.534Y-314.007
X334.334Y-264.477
X335.642Y-278.447
X335.915Y-235.585
X336.226Y-259.397
X339.09Y-294.957
X339.09Y-335.597
X341.992Y-275.907
X342.265Y-233.045
X342.576Y-256.858
X345.44Y-333.058
X368.459Y-278.447
X368.459Y-335.597
X369.729Y-243.205
X369.729Y-267.017
X374.809Y-275.907
X374.809Y-333.058
X376.079Y-240.665
X376.079Y-264.477
X387.509Y-235.585
X387.509Y-259.397
X387.509Y-278.447
X387.509Y-316.548
X387.509Y-335.597
X393.859Y-233.045
X393.859Y-256.858
X393.859Y-275.907
X393.859Y-314.007
X393.859Y-333.058
X406.559Y-235.585
X406.559Y-259.397
X406.559Y-278.447
X406.559Y-335.597
X412.909Y-233.045
X412.909Y-256.858
X412.909Y-275.907
X412.909Y-333.058
X430.371Y-235.585
X430.371Y-259.397
X430.371Y-278.447
X430.371Y-297.498
X430.371Y-316.548
X431.641Y-343.217
X436.721Y-233.045
X436.721Y-256.858
X436.721Y-275.907
X436.721Y-294.957
X436.721Y-314.007
X437.991Y-340.678
X439.896Y-335.597
X446.246Y-333.058
X449.421Y-235.585
X449.421Y-259.397
X449.421Y-278.447
X449.421Y-297.498
X449.421Y-316.548
X450.691Y-343.217
X455.771Y-233.045
X455.771Y-256.858
X455.771Y-275.907
X455.771Y-294.957
X455.771Y-314.007
X457.041Y-340.678
X468.471Y-235.585
X468.471Y-259.397
X468.471Y-278.447
X468.471Y-297.498
X468.471Y-316.548
X468.471Y-335.597
X474.821Y-233.045
X474.821Y-256.858
X474.821Y-275.907
X474.821Y-294.957
X474.821Y-314.007
X474.821Y-333.058
X486.251Y-287.972
X486.251Y-326.072
X487.521Y-235.585
X487.521Y-259.397
X488.791Y-294.322
X488.791Y-332.422
X493.871Y-233.045
X493.871Y-256.858
X493.871Y-277.178
X493.871Y-296.227
X493.871Y-315.277
X493.871Y-334.327
X496.411Y-283.527
X496.411Y-302.577
X496.411Y-321.627
X496.411Y-340.678
T4
X7.112Y-231.14
X30.988Y-231.14
X52.356Y-312.102
X76.232Y-312.102
X133.526Y-351.949
X135.848Y-352.445
X156.881Y-356.913
X159.202Y-357.409
X219.563Y-358.857
X242.917Y-353.892
X318.586Y-254.952
X319.056Y-312.102
X324.612Y-293.053
X342.462Y-254.952
X342.932Y-312.102
X348.488Y-293.053
X431.768Y-345.123
X455.644Y-345.123
X498.316Y-278.575
X498.316Y-302.45
X498.316Y-316.674
X498.316Y-340.55
T5
X7.112Y-246.38
X9.525Y-238.125
X9.525Y-261.938
X9.525Y-280.988
X9.525Y-300.037
X9.525Y-319.087
X9.525Y-338.137
X19.05Y-238.125
X28.575Y-238.125
X28.575Y-261.938
X28.575Y-280.988
X28.575Y-300.037
X28.575Y-319.087
X28.575Y-338.137
X30.988Y-246.38
X52.356Y-327.342
X54.769Y-238.125
X57.15Y-338.137
X58.737Y-300.037
X63.5Y-300.037
X64.294Y-319.087
X64.726Y-261.938
X65.322Y-280.975
X76.232Y-327.342
X78.581Y-236.537
X83.78Y-261.938
X89.135Y-280.988
X89.694Y-300.037
X95.25Y-319.087
X97.631Y-236.537
X102.826Y-260.35
X109.633Y-281.305
X110.331Y-300.939
X114.04Y-340.66
X115.665Y-321.539
X116.376Y-341.16
X118.574Y-239.382
X122.917Y-264.643
X128.264Y-285.267
X128.962Y-304.902
X134.283Y-325.488
X136.695Y-337.042
X137.192Y-243.332
X139.017Y-337.538
X141.548Y-268.618
X146.656Y-347.599
X146.882Y-289.243
X147.555Y-308.826
X148.977Y-348.094
X152.927Y-329.451
X160.049Y-342.006
X160.191Y-272.58
X160.458Y-248.298
X162.371Y-342.502
X165.525Y-293.154
X166.199Y-312.788
X171.558Y-333.4
X176.93Y-354.025
X178.835Y-276.517
X179.076Y-252.26
X200.193Y-336.377
X201.606Y-297.129
X206.661Y-252.247
X206.953Y-276.517
X210.217Y-314.769
X216.394Y-343.95
X218.827Y-332.422
X220.224Y-293.154
X225.292Y-248.285
X225.596Y-272.567
X228.848Y-310.794
X229.787Y-349.542
X237.471Y-328.447
X238.843Y-289.204
X239.748Y-338.985
X244.202Y-268.592
X247.479Y-306.819
X248.571Y-243.332
X256.089Y-324.485
X257.473Y-285.242
X262.858Y-264.655
X266.084Y-302.882
X267.202Y-239.37
X269.373Y-341.135
X274.733Y-320.523
X276.104Y-281.292
X282.912Y-260.426
X286.544Y-300.037
X287.966Y-236.537
X295.275Y-319.087
X296.602Y-280.988
X301.949Y-261.938
X305.632Y-300.037
X307.029Y-236.537
X315.639Y-280.988
X318.586Y-270.192
X319.056Y-327.342
X320.999Y-261.938
X324.612Y-308.292
X330.524Y-261.938
X330.994Y-319.087
X336.55Y-300.037
X339.452Y-280.988
X339.725Y-238.125
X340.036Y-261.938
X342.462Y-270.192
X342.9Y-338.137
X342.932Y-327.342
X348.488Y-308.292
X372.269Y-238.125
X372.269Y-261.938
X372.269Y-280.988
X372.269Y-338.137
X391.319Y-238.125
X391.319Y-261.938
X391.319Y-280.988
X391.319Y-319.087
X391.319Y-338.137
X410.369Y-238.125
X410.369Y-261.938
X410.369Y-280.988
X410.369Y-338.137
X431.768Y-329.882
X434.181Y-238.125
X434.181Y-261.938
X434.181Y-280.988
X434.181Y-300.037
X434.181Y-319.087
X434.181Y-338.137
X443.706Y-338.137
X453.231Y-238.125
X453.231Y-261.938
X453.231Y-280.988
X453.231Y-300.037
X453.231Y-319.087
X453.231Y-338.137
X455.644Y-329.882
X472.281Y-238.125
X472.281Y-261.938
X472.281Y-280.988
X472.281Y-300.037
X472.281Y-319.087
X472.281Y-338.137
X483.076Y-278.575
X483.076Y-302.45
X483.076Y-316.674
X483.076Y-340.55
X491.331Y-238.125
X491.331Y-261.938
X491.331Y-280.988
X491.331Y-290.512
X491.331Y-300.037
X491.331Y-319.087
X491.331Y-328.613
X491.331Y-338.137
T1
X334.125Y-238.775G85X334.125Y-237.475
G05
X345.325Y-238.775G85X345.325Y-237.475
G05
T0
M30
