G04 #@! TF.GenerationSoftware,KiCad,Pcbnew,(6.0.1-0)*
G04 #@! TF.CreationDate,2022-07-20T07:32:26-07:00*
G04 #@! TF.ProjectId,adelheid-xt,6164656c-6865-4696-942d-78742e6b6963,rev?*
G04 #@! TF.SameCoordinates,Original*
G04 #@! TF.FileFunction,Legend,Top*
G04 #@! TF.FilePolarity,Positive*
%FSLAX46Y46*%
G04 Gerber Fmt 4.6, Leading zero omitted, Abs format (unit mm)*
G04 Created by KiCad (PCBNEW (6.0.1-0)) date 2022-07-20 07:32:26*
%MOMM*%
%LPD*%
G01*
G04 APERTURE LIST*
%ADD10C,0.150000*%
%ADD11C,0.120000*%
%ADD12C,0.500000*%
%ADD13C,1.750000*%
%ADD14C,3.000000*%
%ADD15C,3.987800*%
%ADD16C,4.400000*%
%ADD17C,3.048000*%
%ADD18R,1.700000X1.700000*%
%ADD19O,1.700000X1.700000*%
%ADD20R,2.000000X3.200000*%
%ADD21R,2.000000X2.000000*%
%ADD22C,2.000000*%
%ADD23C,1.700000*%
G04 APERTURE END LIST*
D10*
X206905273Y-235037261D02*
X207048130Y-235084880D01*
X207286226Y-235084880D01*
X207381464Y-235037261D01*
X207429083Y-234989642D01*
X207476702Y-234894404D01*
X207476702Y-234799166D01*
X207429083Y-234703928D01*
X207381464Y-234656309D01*
X207286226Y-234608690D01*
X207095750Y-234561071D01*
X207000511Y-234513452D01*
X206952892Y-234465833D01*
X206905273Y-234370595D01*
X206905273Y-234275357D01*
X206952892Y-234180119D01*
X207000511Y-234132500D01*
X207095750Y-234084880D01*
X207333845Y-234084880D01*
X207476702Y-234132500D01*
X208476702Y-234989642D02*
X208429083Y-235037261D01*
X208286226Y-235084880D01*
X208190988Y-235084880D01*
X208048130Y-235037261D01*
X207952892Y-234942023D01*
X207905273Y-234846785D01*
X207857654Y-234656309D01*
X207857654Y-234513452D01*
X207905273Y-234322976D01*
X207952892Y-234227738D01*
X208048130Y-234132500D01*
X208190988Y-234084880D01*
X208286226Y-234084880D01*
X208429083Y-234132500D01*
X208476702Y-234180119D01*
X209381464Y-235084880D02*
X208905273Y-235084880D01*
X208905273Y-234084880D01*
X206762416Y-231544880D02*
X207095750Y-232544880D01*
X207429083Y-231544880D01*
X208333845Y-232449642D02*
X208286226Y-232497261D01*
X208143369Y-232544880D01*
X208048130Y-232544880D01*
X207905273Y-232497261D01*
X207810035Y-232402023D01*
X207762416Y-232306785D01*
X207714797Y-232116309D01*
X207714797Y-231973452D01*
X207762416Y-231782976D01*
X207810035Y-231687738D01*
X207905273Y-231592500D01*
X208048130Y-231544880D01*
X208143369Y-231544880D01*
X208286226Y-231592500D01*
X208333845Y-231640119D01*
X209333845Y-232449642D02*
X209286226Y-232497261D01*
X209143369Y-232544880D01*
X209048130Y-232544880D01*
X208905273Y-232497261D01*
X208810035Y-232402023D01*
X208762416Y-232306785D01*
X208714797Y-232116309D01*
X208714797Y-231973452D01*
X208762416Y-231782976D01*
X208810035Y-231687738D01*
X208905273Y-231592500D01*
X209048130Y-231544880D01*
X209143369Y-231544880D01*
X209286226Y-231592500D01*
X209333845Y-231640119D01*
X207333845Y-229052500D02*
X207238607Y-229004880D01*
X207095750Y-229004880D01*
X206952892Y-229052500D01*
X206857654Y-229147738D01*
X206810035Y-229242976D01*
X206762416Y-229433452D01*
X206762416Y-229576309D01*
X206810035Y-229766785D01*
X206857654Y-229862023D01*
X206952892Y-229957261D01*
X207095750Y-230004880D01*
X207190988Y-230004880D01*
X207333845Y-229957261D01*
X207381464Y-229909642D01*
X207381464Y-229576309D01*
X207190988Y-229576309D01*
X207810035Y-230004880D02*
X207810035Y-229004880D01*
X208381464Y-230004880D01*
X208381464Y-229004880D01*
X208857654Y-230004880D02*
X208857654Y-229004880D01*
X209095750Y-229004880D01*
X209238607Y-229052500D01*
X209333845Y-229147738D01*
X209381464Y-229242976D01*
X209429083Y-229433452D01*
X209429083Y-229576309D01*
X209381464Y-229766785D01*
X209333845Y-229862023D01*
X209238607Y-229957261D01*
X209095750Y-230004880D01*
X208857654Y-230004880D01*
X206881464Y-237577261D02*
X207024321Y-237624880D01*
X207262416Y-237624880D01*
X207357654Y-237577261D01*
X207405273Y-237529642D01*
X207452892Y-237434404D01*
X207452892Y-237339166D01*
X207405273Y-237243928D01*
X207357654Y-237196309D01*
X207262416Y-237148690D01*
X207071940Y-237101071D01*
X206976702Y-237053452D01*
X206929083Y-237005833D01*
X206881464Y-236910595D01*
X206881464Y-236815357D01*
X206929083Y-236720119D01*
X206976702Y-236672500D01*
X207071940Y-236624880D01*
X207310035Y-236624880D01*
X207452892Y-236672500D01*
X207881464Y-237624880D02*
X207881464Y-236624880D01*
X208119559Y-236624880D01*
X208262416Y-236672500D01*
X208357654Y-236767738D01*
X208405273Y-236862976D01*
X208452892Y-237053452D01*
X208452892Y-237196309D01*
X208405273Y-237386785D01*
X208357654Y-237482023D01*
X208262416Y-237577261D01*
X208119559Y-237624880D01*
X207881464Y-237624880D01*
X208833845Y-237339166D02*
X209310035Y-237339166D01*
X208738607Y-237624880D02*
X209071940Y-236624880D01*
X209405273Y-237624880D01*
G36*
X287144850Y-332968578D02*
G01*
X287335185Y-332985112D01*
X287501368Y-333026081D01*
X287688475Y-333101168D01*
X287841007Y-333172067D01*
X288293085Y-333441213D01*
X288652979Y-333776011D01*
X288921147Y-334177456D01*
X289098046Y-334646542D01*
X289184134Y-335184265D01*
X289179869Y-335791619D01*
X289155941Y-336030460D01*
X289083641Y-336437786D01*
X288967198Y-336785225D01*
X288794490Y-337087605D01*
X288553392Y-337359759D01*
X288231778Y-337616516D01*
X287817524Y-337872706D01*
X287519250Y-338032427D01*
X286950478Y-338324586D01*
X287555731Y-338537566D01*
X287969149Y-338693619D01*
X288289368Y-338841371D01*
X288535818Y-338992663D01*
X288727925Y-339159339D01*
X288878660Y-339343958D01*
X288920635Y-339397062D01*
X288964809Y-339415874D01*
X289029571Y-339390976D01*
X289133311Y-339312948D01*
X289294421Y-339172373D01*
X289401939Y-339075953D01*
X289838303Y-338683859D01*
X289817196Y-336479936D01*
X289810805Y-335877691D01*
X289803311Y-335377010D01*
X289793352Y-334965041D01*
X289779564Y-334628935D01*
X289760582Y-334355840D01*
X289735043Y-334132907D01*
X289701582Y-333947284D01*
X289658837Y-333786122D01*
X289605444Y-333636569D01*
X289540037Y-333485775D01*
X289487708Y-333375356D01*
X289426348Y-333216893D01*
X289413701Y-333108649D01*
X289423451Y-333087644D01*
X289488204Y-333089244D01*
X289575030Y-333181543D01*
X289672824Y-333345740D01*
X289770482Y-333563035D01*
X289856900Y-333814628D01*
X289860846Y-333828185D01*
X289980815Y-334244124D01*
X290185144Y-333970432D01*
X290441946Y-333709805D01*
X290790821Y-333480552D01*
X291211643Y-333291642D01*
X291684286Y-333152041D01*
X292188624Y-333070717D01*
X292208643Y-333068851D01*
X292433508Y-333057868D01*
X292580274Y-333068125D01*
X292640986Y-333093408D01*
X292607690Y-333127501D01*
X292472430Y-333164190D01*
X292354546Y-333182846D01*
X292056931Y-333264996D01*
X291845788Y-333421538D01*
X291719860Y-333653422D01*
X291716628Y-333664105D01*
X291699355Y-333781399D01*
X291685899Y-334004149D01*
X291676233Y-334333948D01*
X291670331Y-334772389D01*
X291668169Y-335321066D01*
X291669721Y-335981571D01*
X291672346Y-336421284D01*
X291676838Y-337028498D01*
X291681268Y-337532006D01*
X291686164Y-337942514D01*
X291692054Y-338270729D01*
X291699466Y-338527357D01*
X291708928Y-338723104D01*
X291720967Y-338868678D01*
X291736111Y-338974784D01*
X291754887Y-339052129D01*
X291777825Y-339111420D01*
X291805450Y-339163363D01*
X291807708Y-339167230D01*
X291939695Y-339329055D01*
X292085276Y-339378348D01*
X292253050Y-339316530D01*
X292336101Y-339254509D01*
X292451289Y-339172267D01*
X292527077Y-339145208D01*
X292537873Y-339151452D01*
X292504755Y-339200545D01*
X292396877Y-339311459D01*
X292226929Y-339472237D01*
X292007601Y-339670926D01*
X291751586Y-339895568D01*
X291708677Y-339932595D01*
X291415082Y-340184437D01*
X291194448Y-340369870D01*
X291033525Y-340497703D01*
X290919061Y-340576749D01*
X290837807Y-340615818D01*
X290776511Y-340623722D01*
X290721923Y-340609271D01*
X290703250Y-340601156D01*
X290371596Y-340392867D01*
X290120752Y-340106041D01*
X289949337Y-339738543D01*
X289856547Y-339293399D01*
X289829168Y-339111047D01*
X289797564Y-338987518D01*
X289770593Y-338950482D01*
X289716039Y-338992500D01*
X289590975Y-339099717D01*
X289409188Y-339259970D01*
X289184464Y-339461096D01*
X288930591Y-339690933D01*
X288908883Y-339710698D01*
X288646958Y-339948511D01*
X288407291Y-340164662D01*
X288205308Y-340345351D01*
X288056438Y-340476780D01*
X287976106Y-340545149D01*
X287974987Y-340546026D01*
X287914547Y-340585019D01*
X287855759Y-340587903D01*
X287777933Y-340543052D01*
X287660377Y-340438835D01*
X287495168Y-340276358D01*
X287157306Y-339981601D01*
X286812518Y-339758323D01*
X286480046Y-339616893D01*
X286180092Y-339567680D01*
X285883323Y-339619841D01*
X285600568Y-339761676D01*
X285370862Y-339971217D01*
X285309518Y-340057623D01*
X285214218Y-340186549D01*
X285145125Y-340216045D01*
X285121287Y-340200958D01*
X285114648Y-340118467D01*
X285178382Y-339974682D01*
X285299450Y-339786627D01*
X285464814Y-339571323D01*
X285661434Y-339345793D01*
X285876272Y-339127057D01*
X286088012Y-338938890D01*
X286450583Y-338636421D01*
X286731580Y-338380400D01*
X286941306Y-338149090D01*
X287090065Y-337920757D01*
X287188162Y-337673664D01*
X287245900Y-337386077D01*
X287273584Y-337036259D01*
X287281518Y-336602474D01*
X287281523Y-336421284D01*
X287264100Y-335723541D01*
X287214078Y-335129966D01*
X287129466Y-334634484D01*
X287008271Y-334231018D01*
X286848501Y-333913492D01*
X286648164Y-333675829D01*
X286405268Y-333511954D01*
X286314781Y-333472783D01*
X286003931Y-333409282D01*
X285700141Y-333447276D01*
X285428217Y-333578801D01*
X285212968Y-333795891D01*
X285187456Y-333834769D01*
X285102102Y-334065710D01*
X285127150Y-334295821D01*
X285258749Y-334518232D01*
X285493047Y-334726071D01*
X285779390Y-334890632D01*
X286149765Y-335124041D01*
X286427702Y-335424580D01*
X286612194Y-335790593D01*
X286702232Y-336220425D01*
X286711646Y-336421284D01*
X286703582Y-336684628D01*
X286670525Y-336882793D01*
X286602934Y-337063964D01*
X286571865Y-337127374D01*
X286337454Y-337466535D01*
X286015062Y-337736196D01*
X285601913Y-337938482D01*
X285440509Y-337992217D01*
X285332693Y-338011072D01*
X285310595Y-337985558D01*
X285362639Y-337931511D01*
X285477248Y-337864764D01*
X285559345Y-337829674D01*
X285815826Y-337699048D01*
X286012992Y-337533972D01*
X286132361Y-337353879D01*
X286158505Y-337199693D01*
X286133289Y-337088817D01*
X286065092Y-337013257D01*
X285924408Y-336945210D01*
X285864077Y-336922260D01*
X285428500Y-336707161D01*
X285074888Y-336418841D01*
X284809600Y-336066106D01*
X284638994Y-335657761D01*
X284569429Y-335202612D01*
X284568099Y-335127543D01*
X284623316Y-334680216D01*
X284781035Y-334251077D01*
X285029360Y-333856469D01*
X285356394Y-333512737D01*
X285750238Y-333236223D01*
X286046760Y-333096239D01*
X286280245Y-333022837D01*
X286535975Y-332982028D01*
X286857656Y-332967064D01*
X286885289Y-332966799D01*
X287144850Y-332968578D01*
G37*
G36*
X306079206Y-332920653D02*
G01*
X306025211Y-332971589D01*
X305908674Y-333026924D01*
X305838334Y-333048979D01*
X305551199Y-333182150D01*
X305331546Y-333402237D01*
X305191427Y-333696065D01*
X305170290Y-333779251D01*
X305154593Y-333910897D01*
X305141000Y-334139847D01*
X305129521Y-334451370D01*
X305120166Y-334830737D01*
X305112947Y-335263217D01*
X305107873Y-335734081D01*
X305104954Y-336228597D01*
X305104200Y-336732036D01*
X305105623Y-337229668D01*
X305109231Y-337706763D01*
X305115036Y-338148589D01*
X305123047Y-338540418D01*
X305133275Y-338867519D01*
X305145730Y-339115162D01*
X305160422Y-339268617D01*
X305166454Y-339298670D01*
X305258408Y-339487456D01*
X305409445Y-339586005D01*
X305628241Y-339598115D01*
X305783314Y-339568626D01*
X305938511Y-339535457D01*
X306040253Y-339524778D01*
X306058297Y-339528899D01*
X306025326Y-339568086D01*
X305916613Y-339650164D01*
X305754246Y-339758693D01*
X305722397Y-339778906D01*
X305507984Y-339922696D01*
X305251757Y-340107338D01*
X304999216Y-340299744D01*
X304925335Y-340358580D01*
X304734325Y-340508751D01*
X304574917Y-340626606D01*
X304468693Y-340696587D01*
X304439074Y-340709115D01*
X304379275Y-340671124D01*
X304256851Y-340570834D01*
X304091773Y-340425123D01*
X303965510Y-340308861D01*
X303754839Y-340123043D01*
X303543253Y-339955363D01*
X303363228Y-339830810D01*
X303293325Y-339791603D01*
X303121280Y-339694486D01*
X303055166Y-339622746D01*
X303096105Y-339579561D01*
X303214405Y-339567680D01*
X303297609Y-339565596D01*
X303366298Y-339552672D01*
X303421863Y-339518901D01*
X303465696Y-339454276D01*
X303499187Y-339348789D01*
X303523728Y-339192434D01*
X303540710Y-338975203D01*
X303551525Y-338687090D01*
X303557563Y-338318086D01*
X303560216Y-337858185D01*
X303560875Y-337297379D01*
X303560892Y-337075394D01*
X303560502Y-336502966D01*
X303558995Y-336032852D01*
X303555864Y-335652953D01*
X303550600Y-335351172D01*
X303542697Y-335115409D01*
X303531648Y-334933565D01*
X303516945Y-334793543D01*
X303498081Y-334683243D01*
X303474549Y-334590567D01*
X303454037Y-334526814D01*
X303342462Y-334243683D01*
X303201512Y-333943891D01*
X303054160Y-333673797D01*
X302956802Y-333523470D01*
X302908029Y-333422879D01*
X302919157Y-333368396D01*
X302985482Y-333390804D01*
X303090109Y-333502533D01*
X303222167Y-333689595D01*
X303370789Y-333938002D01*
X303393074Y-333978294D01*
X303543348Y-334252646D01*
X303641273Y-333996233D01*
X303774082Y-333745355D01*
X303971220Y-333534580D01*
X304243513Y-333357746D01*
X304601787Y-333208687D01*
X305056869Y-333081240D01*
X305362919Y-333016062D01*
X305595407Y-332970548D01*
X305797784Y-332930428D01*
X305932868Y-332903085D01*
X305949293Y-332899639D01*
X306058089Y-332891031D01*
X306079206Y-332920653D01*
G37*
G36*
X309248280Y-332882549D02*
G01*
X309395828Y-332904156D01*
X309445190Y-332935169D01*
X309391317Y-332971496D01*
X309229158Y-333009045D01*
X309182843Y-333016408D01*
X308855873Y-333101068D01*
X308571119Y-333242431D01*
X308394901Y-333389097D01*
X308358045Y-333436821D01*
X308329674Y-333498246D01*
X308308400Y-333588479D01*
X308292838Y-333722623D01*
X308281601Y-333915785D01*
X308273302Y-334183071D01*
X308266556Y-334539585D01*
X308262232Y-334834534D01*
X308243978Y-336153587D01*
X308405250Y-336047959D01*
X308508298Y-335977519D01*
X308682980Y-335855003D01*
X308908186Y-335695338D01*
X309162809Y-335513450D01*
X309273615Y-335433899D01*
X309524814Y-335254815D01*
X309746617Y-335099571D01*
X309920927Y-334980613D01*
X310029648Y-334910387D01*
X310053485Y-334897540D01*
X310132125Y-334923719D01*
X310248608Y-335030410D01*
X310386519Y-335197392D01*
X310529445Y-335404444D01*
X310660974Y-335631346D01*
X310681270Y-335670938D01*
X310835887Y-335978925D01*
X310829084Y-338015753D01*
X310826030Y-338616297D01*
X310820302Y-339115203D01*
X310810480Y-339525242D01*
X310795143Y-339859183D01*
X310772872Y-340129797D01*
X310742247Y-340349854D01*
X310701849Y-340532124D01*
X310650256Y-340689376D01*
X310586050Y-340834381D01*
X310507809Y-340979909D01*
X310497499Y-340997861D01*
X310226989Y-341378634D01*
X309859619Y-341761347D01*
X309411860Y-342132222D01*
X308900181Y-342477480D01*
X308394901Y-342756785D01*
X308094068Y-342902721D01*
X307882520Y-342994980D01*
X307750442Y-343037063D01*
X307688016Y-343032470D01*
X307679811Y-343011821D01*
X307727419Y-342962268D01*
X307852798Y-342881564D01*
X308029777Y-342786383D01*
X308047178Y-342777758D01*
X308416145Y-342542855D01*
X308744285Y-342232140D01*
X309003596Y-341875316D01*
X309118604Y-341641251D01*
X309151627Y-341555086D01*
X309178721Y-341470182D01*
X309200597Y-341374437D01*
X309217963Y-341255751D01*
X309231526Y-341102021D01*
X309241997Y-340901149D01*
X309250082Y-340641031D01*
X309256491Y-340309568D01*
X309261933Y-339894659D01*
X309267115Y-339384202D01*
X309270161Y-339052816D01*
X309275287Y-338406480D01*
X309277595Y-337864611D01*
X309276534Y-337417280D01*
X309271556Y-337054564D01*
X309262111Y-336766534D01*
X309247650Y-336543265D01*
X309227624Y-336374832D01*
X309201484Y-336251306D01*
X309168680Y-336162763D01*
X309128662Y-336099277D01*
X309105287Y-336073337D01*
X308985694Y-335987658D01*
X308853690Y-335975661D01*
X308684766Y-336040236D01*
X308515812Y-336142832D01*
X308245260Y-336322039D01*
X308262873Y-337892785D01*
X308280487Y-339463532D01*
X308421356Y-339577523D01*
X308607072Y-339665503D01*
X308721694Y-339668108D01*
X308844963Y-339663235D01*
X308867855Y-339700692D01*
X308789305Y-339782372D01*
X308608251Y-339910171D01*
X308573060Y-339932876D01*
X308373227Y-340070716D01*
X308136961Y-340248187D01*
X307913037Y-340428562D01*
X307898238Y-340441065D01*
X307531518Y-340752164D01*
X307216228Y-340460260D01*
X306996254Y-340275752D01*
X306742947Y-340090998D01*
X306548382Y-339968131D01*
X306332363Y-339831898D01*
X306219219Y-339728060D01*
X306210232Y-339658957D01*
X306306687Y-339626926D01*
X306359959Y-339624888D01*
X306443951Y-339624541D01*
X306513453Y-339616932D01*
X306569757Y-339592208D01*
X306614150Y-339540515D01*
X306647923Y-339451999D01*
X306672364Y-339316807D01*
X306688763Y-339125086D01*
X306698410Y-338866982D01*
X306702593Y-338532642D01*
X306702603Y-338112212D01*
X306699728Y-337595839D01*
X306695863Y-337057902D01*
X306678685Y-334676464D01*
X306498186Y-334231319D01*
X306393557Y-333994364D01*
X306281443Y-333773618D01*
X306183375Y-333610953D01*
X306169016Y-333591255D01*
X306089717Y-333466117D01*
X306064595Y-333379859D01*
X306073406Y-333363543D01*
X306141244Y-333386107D01*
X306247916Y-333505561D01*
X306387149Y-333713647D01*
X306537708Y-333974626D01*
X306694074Y-334260564D01*
X306759578Y-334062085D01*
X306917621Y-333757923D01*
X307171803Y-333485370D01*
X307506226Y-333252826D01*
X307904996Y-333068689D01*
X308352214Y-332941356D01*
X308831986Y-332879226D01*
X309007596Y-332874437D01*
X309248280Y-332882549D01*
G37*
G36*
X311944243Y-336443276D02*
G01*
X312040250Y-336261188D01*
X312169210Y-336101467D01*
X312345172Y-335952934D01*
X312582183Y-335804412D01*
X312894292Y-335644721D01*
X313295546Y-335462682D01*
X313459800Y-335391554D01*
X313774021Y-335257485D01*
X314052005Y-335140537D01*
X314276763Y-335047724D01*
X314431303Y-334986057D01*
X314498637Y-334962549D01*
X314499359Y-334962500D01*
X314542226Y-335008174D01*
X314632707Y-335132867D01*
X314758984Y-335318091D01*
X314909233Y-335545354D01*
X315071635Y-335796167D01*
X315234367Y-336052040D01*
X315385610Y-336294481D01*
X315513542Y-336505001D01*
X315606342Y-336665109D01*
X315652189Y-336756316D01*
X315654639Y-336769562D01*
X315603330Y-336808654D01*
X315469083Y-336900376D01*
X315265405Y-337035798D01*
X315005798Y-337205988D01*
X314703768Y-337402017D01*
X314486743Y-337541859D01*
X314125368Y-337774561D01*
X313849362Y-337954654D01*
X313647663Y-338091111D01*
X313509212Y-338192905D01*
X313422947Y-338269007D01*
X313377810Y-338328391D01*
X313362738Y-338380029D01*
X313366673Y-338432894D01*
X313369496Y-338448215D01*
X313418579Y-338600099D01*
X313504456Y-338786634D01*
X313545470Y-338861028D01*
X313780708Y-339159673D01*
X314074003Y-339372180D01*
X314405742Y-339495548D01*
X314756310Y-339526775D01*
X315106094Y-339462862D01*
X315435479Y-339300807D01*
X315594597Y-339174542D01*
X315697743Y-339085707D01*
X315739355Y-339073620D01*
X315737705Y-339133041D01*
X315737615Y-339133529D01*
X315687603Y-339200285D01*
X315558913Y-339324312D01*
X315364511Y-339494384D01*
X315117366Y-339699273D01*
X314830445Y-339927756D01*
X314729863Y-340005939D01*
X314441010Y-340228573D01*
X314184249Y-340425395D01*
X313972767Y-340586385D01*
X313819749Y-340701524D01*
X313738383Y-340760793D01*
X313728737Y-340766614D01*
X313673134Y-340745204D01*
X313542601Y-340692092D01*
X313400532Y-340633356D01*
X312899779Y-340375911D01*
X312490269Y-340054948D01*
X312163049Y-339662193D01*
X311959435Y-339301211D01*
X311825394Y-338919861D01*
X311740304Y-338465281D01*
X311705236Y-337968155D01*
X311721262Y-337459167D01*
X311789453Y-336969004D01*
X311821571Y-336840803D01*
X313228910Y-336840803D01*
X313229968Y-337203497D01*
X313232928Y-337524311D01*
X313237471Y-337786792D01*
X313243278Y-337974486D01*
X313250028Y-338070940D01*
X313252982Y-338080293D01*
X313308865Y-338052283D01*
X313439749Y-337976902D01*
X313623429Y-337867125D01*
X313753545Y-337787812D01*
X313967007Y-337654326D01*
X314148299Y-337536445D01*
X314271674Y-337451132D01*
X314305802Y-337423967D01*
X314323669Y-337382056D01*
X314308663Y-337308135D01*
X314254122Y-337189262D01*
X314153389Y-337012496D01*
X313999803Y-336764894D01*
X313832594Y-336504314D01*
X313653476Y-336228342D01*
X313495690Y-335986764D01*
X313369762Y-335795571D01*
X313286216Y-335670755D01*
X313256265Y-335628669D01*
X313248279Y-335674888D01*
X313241212Y-335819548D01*
X313235424Y-336046674D01*
X313231276Y-336340294D01*
X313229129Y-336684435D01*
X313228910Y-336840803D01*
X311821571Y-336840803D01*
X311867142Y-336658911D01*
X311944243Y-336443276D01*
G37*
G36*
X317883991Y-335222107D02*
G01*
X318095043Y-335419573D01*
X318332506Y-335614583D01*
X318546628Y-335766404D01*
X318555699Y-335772050D01*
X318760579Y-335906791D01*
X318865136Y-335998625D01*
X318872628Y-336053245D01*
X318786309Y-336076344D01*
X318730774Y-336078041D01*
X318553346Y-336129180D01*
X318430436Y-336225553D01*
X318386808Y-336274600D01*
X318353250Y-336327122D01*
X318328218Y-336398113D01*
X318310168Y-336502566D01*
X318297556Y-336655474D01*
X318288839Y-336871830D01*
X318282471Y-337166629D01*
X318276910Y-337554862D01*
X318274572Y-337739061D01*
X318270337Y-338247648D01*
X318272899Y-338654185D01*
X318283903Y-338970924D01*
X318304992Y-339210113D01*
X318337808Y-339384001D01*
X318383995Y-339504839D01*
X318445195Y-339584875D01*
X318523052Y-339636360D01*
X318529454Y-339639341D01*
X318657164Y-339674956D01*
X318782942Y-339641720D01*
X318845840Y-339608195D01*
X318996479Y-339529263D01*
X319055208Y-339518151D01*
X319021999Y-339574906D01*
X318896829Y-339699575D01*
X318706215Y-339869289D01*
X318369632Y-340159545D01*
X318106470Y-340381029D01*
X317904044Y-340540310D01*
X317749668Y-340643956D01*
X317630657Y-340698538D01*
X317534325Y-340710624D01*
X317447988Y-340686784D01*
X317358959Y-340633587D01*
X317305134Y-340594845D01*
X317175877Y-340489110D01*
X317069308Y-340372005D01*
X316983289Y-340231907D01*
X316915681Y-340057195D01*
X316864345Y-339836248D01*
X316827141Y-339557443D01*
X316801931Y-339209160D01*
X316786576Y-338779776D01*
X316778937Y-338257671D01*
X316776907Y-337724761D01*
X316776260Y-337257437D01*
X316774462Y-336891490D01*
X316770592Y-336613882D01*
X316763729Y-336411576D01*
X316752951Y-336271534D01*
X316737338Y-336180719D01*
X316715967Y-336126094D01*
X316687918Y-336094620D01*
X316660509Y-336077595D01*
X316507803Y-336044684D01*
X316333290Y-336074444D01*
X316157856Y-336104793D01*
X316073952Y-336083227D01*
X316088542Y-336022134D01*
X316208590Y-335933900D01*
X316243746Y-335915166D01*
X316468330Y-335780684D01*
X316739245Y-335588146D01*
X317023862Y-335362295D01*
X317289550Y-335127874D01*
X317319703Y-335099299D01*
X317549009Y-334880003D01*
X317883991Y-335222107D01*
G37*
G36*
X293846045Y-336210319D02*
G01*
X294103756Y-336235448D01*
X294366660Y-336217940D01*
X294610177Y-336164921D01*
X294809724Y-336083516D01*
X294940721Y-335980851D01*
X294979811Y-335881679D01*
X294931113Y-335828959D01*
X294802855Y-335750181D01*
X294621794Y-335661569D01*
X294603714Y-335653619D01*
X294283962Y-335480186D01*
X293978144Y-335253262D01*
X293716002Y-334998869D01*
X293527281Y-334743028D01*
X293496592Y-334685076D01*
X293391510Y-334347293D01*
X293393358Y-334009670D01*
X293496163Y-333690916D01*
X293693956Y-333409742D01*
X293974124Y-333188725D01*
X294136445Y-333112038D01*
X294333956Y-333045417D01*
X294545331Y-332992071D01*
X294749244Y-332955210D01*
X294924370Y-332938046D01*
X295049383Y-332943788D01*
X295102957Y-332975647D01*
X295079881Y-333022265D01*
X295007104Y-333049420D01*
X294863866Y-333078019D01*
X294798612Y-333087353D01*
X294506743Y-333151757D01*
X294299186Y-333255245D01*
X294184537Y-333390197D01*
X294171394Y-333548992D01*
X294197748Y-333620037D01*
X294286460Y-333744975D01*
X294431263Y-333862220D01*
X294646982Y-333980202D01*
X294948440Y-334107353D01*
X295245017Y-334215658D01*
X295852948Y-334445450D01*
X296354473Y-334674067D01*
X296757432Y-334906516D01*
X297069665Y-335147799D01*
X297299013Y-335402922D01*
X297420185Y-335603983D01*
X297582739Y-335935023D01*
X297582739Y-337508221D01*
X297581366Y-338011397D01*
X297576887Y-338412140D01*
X297568764Y-338722405D01*
X297556458Y-338954145D01*
X297539431Y-339119313D01*
X297517145Y-339229863D01*
X297503384Y-339269529D01*
X297378576Y-339445821D01*
X297154461Y-339611823D01*
X296825370Y-339771121D01*
X296545857Y-339875024D01*
X296154774Y-340021593D01*
X295851562Y-340169036D01*
X295610460Y-340331592D01*
X295441802Y-340485363D01*
X295316708Y-340609932D01*
X295226049Y-340692185D01*
X295196703Y-340711825D01*
X295145332Y-340673945D01*
X295051648Y-340580740D01*
X295032688Y-340560275D01*
X294845287Y-340393199D01*
X294582952Y-340208546D01*
X294278925Y-340025994D01*
X293966453Y-339865221D01*
X293678778Y-339745907D01*
X293628814Y-339729278D01*
X293381508Y-339639281D01*
X293242609Y-339560714D01*
X293213657Y-339495041D01*
X293296196Y-339443720D01*
X293320113Y-339436870D01*
X293385696Y-339407881D01*
X293437702Y-339351057D01*
X293477648Y-339254440D01*
X293507050Y-339106071D01*
X293513040Y-339043725D01*
X295094225Y-339043725D01*
X295265168Y-339081270D01*
X295398008Y-339139859D01*
X295568911Y-339253728D01*
X295708524Y-339369580D01*
X295850014Y-339498280D01*
X295953545Y-339589542D01*
X295995239Y-339622616D01*
X295998983Y-339568462D01*
X296002361Y-339414509D01*
X296005240Y-339175375D01*
X296007484Y-338865674D01*
X296008961Y-338500024D01*
X296009537Y-338093041D01*
X296009541Y-338060149D01*
X296009267Y-337596011D01*
X296007741Y-337232049D01*
X296003908Y-336954026D01*
X295996711Y-336747704D01*
X295985095Y-336598844D01*
X295968003Y-336493210D01*
X295944379Y-336416562D01*
X295913167Y-336354664D01*
X295879133Y-336301899D01*
X295742992Y-336150009D01*
X295559712Y-336007124D01*
X295368062Y-335898820D01*
X295206810Y-335850671D01*
X295194338Y-335850153D01*
X295164882Y-335856694D01*
X295141821Y-335885181D01*
X295124379Y-335947986D01*
X295111781Y-336057477D01*
X295103250Y-336226025D01*
X295098011Y-336466000D01*
X295095289Y-336789771D01*
X295094306Y-337209709D01*
X295094225Y-337446468D01*
X295094225Y-339043725D01*
X293513040Y-339043725D01*
X293527425Y-338893992D01*
X293540290Y-338606243D01*
X293547160Y-338230868D01*
X293549554Y-337755906D01*
X293549631Y-337627143D01*
X293549631Y-336151711D01*
X293846045Y-336210319D01*
G37*
G36*
X320161361Y-336210319D02*
G01*
X320419071Y-336235448D01*
X320681975Y-336217940D01*
X320925492Y-336164921D01*
X321125039Y-336083516D01*
X321256036Y-335980851D01*
X321295126Y-335881679D01*
X321246428Y-335828959D01*
X321118170Y-335750181D01*
X320937109Y-335661569D01*
X320919030Y-335653619D01*
X320599278Y-335480186D01*
X320293459Y-335253262D01*
X320031317Y-334998869D01*
X319842597Y-334743028D01*
X319811908Y-334685076D01*
X319706826Y-334347293D01*
X319708673Y-334009670D01*
X319811478Y-333690916D01*
X320009271Y-333409742D01*
X320289440Y-333188725D01*
X320451760Y-333112038D01*
X320649271Y-333045417D01*
X320860646Y-332992071D01*
X321064560Y-332955210D01*
X321239686Y-332938046D01*
X321364699Y-332943788D01*
X321418273Y-332975647D01*
X321395196Y-333022265D01*
X321322420Y-333049420D01*
X321179181Y-333078019D01*
X321113927Y-333087353D01*
X320822058Y-333151757D01*
X320614501Y-333255245D01*
X320499853Y-333390197D01*
X320486709Y-333548992D01*
X320513063Y-333620037D01*
X320601775Y-333744975D01*
X320746579Y-333862220D01*
X320962298Y-333980202D01*
X321263756Y-334107353D01*
X321560332Y-334215658D01*
X322168264Y-334445450D01*
X322669789Y-334674067D01*
X323072747Y-334906516D01*
X323384980Y-335147799D01*
X323614328Y-335402922D01*
X323735500Y-335603983D01*
X323898054Y-335935023D01*
X323898054Y-337508221D01*
X323896681Y-338011397D01*
X323892202Y-338412140D01*
X323884079Y-338722405D01*
X323871773Y-338954145D01*
X323854747Y-339119313D01*
X323832460Y-339229863D01*
X323818699Y-339269529D01*
X323693891Y-339445821D01*
X323469776Y-339611823D01*
X323140685Y-339771121D01*
X322861172Y-339875024D01*
X322470089Y-340021593D01*
X322166877Y-340169036D01*
X321925775Y-340331592D01*
X321757118Y-340485363D01*
X321632023Y-340609932D01*
X321541364Y-340692185D01*
X321512018Y-340711825D01*
X321460648Y-340673945D01*
X321366963Y-340580740D01*
X321348004Y-340560275D01*
X321160603Y-340393199D01*
X320898267Y-340208546D01*
X320594241Y-340025994D01*
X320281768Y-339865221D01*
X319994094Y-339745907D01*
X319944129Y-339729278D01*
X319696824Y-339639281D01*
X319557924Y-339560714D01*
X319528972Y-339495041D01*
X319611511Y-339443720D01*
X319635428Y-339436870D01*
X319701011Y-339407881D01*
X319753018Y-339351057D01*
X319792963Y-339254440D01*
X319822366Y-339106071D01*
X319828356Y-339043725D01*
X321409541Y-339043725D01*
X321580483Y-339081270D01*
X321713323Y-339139859D01*
X321884226Y-339253728D01*
X322023839Y-339369580D01*
X322165329Y-339498280D01*
X322268861Y-339589542D01*
X322310554Y-339622616D01*
X322314298Y-339568462D01*
X322317677Y-339414509D01*
X322320555Y-339175375D01*
X322322800Y-338865674D01*
X322324277Y-338500024D01*
X322324853Y-338093041D01*
X322324856Y-338060149D01*
X322324582Y-337596011D01*
X322323057Y-337232049D01*
X322319223Y-336954026D01*
X322312027Y-336747704D01*
X322300410Y-336598844D01*
X322283318Y-336493210D01*
X322259694Y-336416562D01*
X322228483Y-336354664D01*
X322194448Y-336301899D01*
X322058307Y-336150009D01*
X321875027Y-336007124D01*
X321683377Y-335898820D01*
X321522125Y-335850671D01*
X321509653Y-335850153D01*
X321480197Y-335856694D01*
X321457136Y-335885181D01*
X321439694Y-335947986D01*
X321427096Y-336057477D01*
X321418565Y-336226025D01*
X321413327Y-336466000D01*
X321410604Y-336789771D01*
X321409622Y-337209709D01*
X321409541Y-337446468D01*
X321409541Y-339043725D01*
X319828356Y-339043725D01*
X319842741Y-338893992D01*
X319855605Y-338606243D01*
X319862476Y-338230868D01*
X319864869Y-337755906D01*
X319864946Y-337627143D01*
X319864946Y-336151711D01*
X320161361Y-336210319D01*
G37*
G36*
X298786585Y-336443276D02*
G01*
X298882592Y-336261188D01*
X299011552Y-336101467D01*
X299187514Y-335952934D01*
X299424525Y-335804412D01*
X299736634Y-335644721D01*
X300137888Y-335462682D01*
X300302142Y-335391554D01*
X300616363Y-335257485D01*
X300894348Y-335140537D01*
X301119105Y-335047724D01*
X301273646Y-334986057D01*
X301340979Y-334962549D01*
X301341702Y-334962500D01*
X301384568Y-335008174D01*
X301475050Y-335132867D01*
X301601326Y-335318091D01*
X301751575Y-335545354D01*
X301913977Y-335796167D01*
X302076710Y-336052040D01*
X302227953Y-336294481D01*
X302355885Y-336505001D01*
X302448685Y-336665109D01*
X302494532Y-336756316D01*
X302496981Y-336769562D01*
X302445672Y-336808654D01*
X302311426Y-336900376D01*
X302107747Y-337035798D01*
X301848140Y-337205988D01*
X301546110Y-337402017D01*
X301329085Y-337541859D01*
X300967711Y-337774561D01*
X300691704Y-337954654D01*
X300490006Y-338091111D01*
X300351554Y-338192905D01*
X300265290Y-338269007D01*
X300220152Y-338328391D01*
X300205081Y-338380029D01*
X300209015Y-338432894D01*
X300211838Y-338448215D01*
X300260921Y-338600099D01*
X300346799Y-338786634D01*
X300387813Y-338861028D01*
X300623051Y-339159673D01*
X300916346Y-339372180D01*
X301248084Y-339495548D01*
X301598652Y-339526775D01*
X301948436Y-339462862D01*
X302277822Y-339300807D01*
X302436940Y-339174542D01*
X302540085Y-339085707D01*
X302581698Y-339073620D01*
X302580048Y-339133041D01*
X302579958Y-339133529D01*
X302529946Y-339200285D01*
X302401255Y-339324312D01*
X302206854Y-339494384D01*
X301959709Y-339699273D01*
X301672787Y-339927756D01*
X301572205Y-340005939D01*
X301283352Y-340228573D01*
X301026591Y-340425395D01*
X300815109Y-340586385D01*
X300662092Y-340701524D01*
X300580725Y-340760793D01*
X300571079Y-340766614D01*
X300515477Y-340745204D01*
X300384943Y-340692092D01*
X300242874Y-340633356D01*
X299742122Y-340375911D01*
X299332611Y-340054948D01*
X299005391Y-339662193D01*
X298801777Y-339301211D01*
X298667737Y-338919861D01*
X298582647Y-338465281D01*
X298547578Y-337968155D01*
X298563604Y-337459167D01*
X298631795Y-336969004D01*
X298663914Y-336840803D01*
X300071252Y-336840803D01*
X300072310Y-337203497D01*
X300075270Y-337524311D01*
X300079814Y-337786792D01*
X300085620Y-337974486D01*
X300092371Y-338070940D01*
X300095325Y-338080293D01*
X300151207Y-338052283D01*
X300282091Y-337976902D01*
X300465772Y-337867125D01*
X300595888Y-337787812D01*
X300809350Y-337654326D01*
X300990641Y-337536445D01*
X301114016Y-337451132D01*
X301148144Y-337423967D01*
X301166012Y-337382056D01*
X301151005Y-337308135D01*
X301096464Y-337189262D01*
X300995731Y-337012496D01*
X300842145Y-336764894D01*
X300674936Y-336504314D01*
X300495818Y-336228342D01*
X300338033Y-335986764D01*
X300212104Y-335795571D01*
X300128559Y-335670755D01*
X300098608Y-335628669D01*
X300090622Y-335674888D01*
X300083554Y-335819548D01*
X300077767Y-336046674D01*
X300073619Y-336340294D01*
X300071471Y-336684435D01*
X300071252Y-336840803D01*
X298663914Y-336840803D01*
X298709485Y-336658911D01*
X298786585Y-336443276D01*
G37*
G36*
X317897863Y-332975028D02*
G01*
X318082658Y-333135927D01*
X318193805Y-333354683D01*
X318224570Y-333611567D01*
X318168216Y-333886852D01*
X318059337Y-334101830D01*
X317950278Y-334231321D01*
X317797646Y-334369915D01*
X317634327Y-334492188D01*
X317493211Y-334572714D01*
X317427047Y-334590653D01*
X317341426Y-334555273D01*
X317212928Y-334465982D01*
X317153480Y-334416518D01*
X316954122Y-334189430D01*
X316804447Y-333917642D01*
X316725569Y-333643347D01*
X316718550Y-333547251D01*
X316771054Y-333311207D01*
X316914641Y-333113433D01*
X317128418Y-332968693D01*
X317391494Y-332891753D01*
X317646158Y-332891713D01*
X317897863Y-332975028D01*
G37*
D11*
X335625000Y-245925000D02*
X335625000Y-245325000D01*
X335625000Y-245325000D02*
X335925000Y-245625000D01*
X335925000Y-245625000D02*
X335625000Y-245925000D01*
X339225000Y-238125000D02*
X340225000Y-238125000D01*
X339725000Y-238625000D02*
X339725000Y-237625000D01*
%LPC*%
D12*
X324612178Y-338629761D02*
X325945511Y-340629761D01*
X325945511Y-338629761D02*
X324612178Y-340629761D01*
X326421702Y-338629761D02*
X327564559Y-338629761D01*
X326993130Y-340629761D02*
X326993130Y-338629761D01*
D13*
X367188750Y-338137500D03*
D14*
X368458750Y-335597500D03*
D13*
X377348750Y-338137500D03*
D15*
X372268750Y-338137500D03*
D14*
X374808750Y-333057500D03*
X298138850Y-259397500D03*
D15*
X301948850Y-261937500D03*
D13*
X307028850Y-261937500D03*
D14*
X304488850Y-256857500D03*
D13*
X296868850Y-261937500D03*
D16*
X481806250Y-328612500D03*
D13*
X344805000Y-238125000D03*
D14*
X335915000Y-235585000D03*
D15*
X339725000Y-238125000D03*
D13*
X334645000Y-238125000D03*
D14*
X342265000Y-233045000D03*
X468471250Y-235585000D03*
D15*
X472281250Y-238125000D03*
D14*
X474821250Y-233045000D03*
D13*
X467201250Y-238125000D03*
X477361250Y-238125000D03*
X107905550Y-260350000D03*
D14*
X99015550Y-257810000D03*
X105365550Y-255270000D03*
D13*
X97745550Y-260350000D03*
D15*
X102825550Y-260350000D03*
D14*
X56197500Y-305117500D03*
D13*
X63817500Y-300037500D03*
X53657500Y-300037500D03*
D15*
X58737500Y-300037500D03*
D14*
X62547500Y-302577500D03*
X265118512Y-339442349D03*
D15*
X269373350Y-341134700D03*
D13*
X274342340Y-340078509D03*
X264404360Y-342190891D03*
D14*
X270801654Y-335637614D03*
D15*
X491331250Y-238125000D03*
D13*
X486251250Y-238125000D03*
D14*
X493871250Y-233045000D03*
D13*
X496411250Y-238125000D03*
D14*
X487521250Y-235585000D03*
D16*
X19050000Y-251618750D03*
D13*
X448786250Y-338137500D03*
D15*
X443706250Y-338137500D03*
D13*
X438626250Y-338137500D03*
D17*
X431768250Y-345122500D03*
X455644250Y-345122500D03*
D15*
X431768250Y-329882500D03*
X455644250Y-329882500D03*
D14*
X446246250Y-333057500D03*
X439896250Y-335597500D03*
D13*
X165160440Y-273636291D03*
D14*
X156992803Y-269303462D03*
D15*
X160191450Y-272580100D03*
D14*
X163732136Y-268139206D03*
D13*
X155222460Y-271523909D03*
D15*
X141547850Y-268617700D03*
D14*
X138349203Y-265341062D03*
D13*
X146516840Y-269673891D03*
X136578860Y-267561509D03*
D14*
X145088536Y-264176806D03*
D17*
X342461850Y-254952500D03*
D14*
X334333850Y-264477500D03*
D13*
X325443850Y-261937500D03*
D15*
X318585850Y-270192500D03*
D14*
X327983850Y-267017500D03*
D17*
X318585850Y-254952500D03*
D15*
X330523850Y-261937500D03*
X342461850Y-270192500D03*
D13*
X335603850Y-261937500D03*
D14*
X150422536Y-284801606D03*
D15*
X146881850Y-289242500D03*
D14*
X143683203Y-285965862D03*
D13*
X141912860Y-288186309D03*
X151850840Y-290298691D03*
D14*
X376078750Y-240665000D03*
D15*
X372268750Y-238125000D03*
D13*
X377348750Y-238125000D03*
X367188750Y-238125000D03*
D14*
X369728750Y-243205000D03*
D16*
X234156250Y-233362500D03*
D14*
X169739236Y-308347406D03*
X162999903Y-309511662D03*
D13*
X171167540Y-313844491D03*
D15*
X166198550Y-312788300D03*
D13*
X161229560Y-311732109D03*
D14*
X140732436Y-238891106D03*
D13*
X132222760Y-242275809D03*
D15*
X137191750Y-243332000D03*
D14*
X133993103Y-240055362D03*
D13*
X142160740Y-244388191D03*
X111407460Y-340103909D03*
D15*
X116376450Y-341160100D03*
D14*
X113177803Y-337883462D03*
D13*
X121345440Y-342216291D03*
D14*
X119917136Y-336719206D03*
D15*
X483076250Y-278574500D03*
X483076250Y-302450500D03*
D17*
X498316250Y-278574500D03*
X498316250Y-302450500D03*
D15*
X491331250Y-290512500D03*
D13*
X491331250Y-295592500D03*
X491331250Y-285432500D03*
D14*
X486251250Y-287972500D03*
X488791250Y-294322500D03*
X468471250Y-278447500D03*
D13*
X467201250Y-280987500D03*
D15*
X472281250Y-280987500D03*
D14*
X474821250Y-275907500D03*
D13*
X477361250Y-280987500D03*
X386238750Y-338137500D03*
X396398750Y-338137500D03*
D14*
X387508750Y-335597500D03*
D15*
X391318750Y-338137500D03*
D14*
X393858750Y-333057500D03*
D15*
X307028850Y-236537500D03*
D14*
X303218850Y-233997500D03*
D13*
X312108850Y-236537500D03*
D14*
X309568850Y-231457500D03*
D13*
X301948850Y-236537500D03*
D15*
X434181250Y-261937500D03*
D14*
X430371250Y-259397500D03*
D13*
X429101250Y-261937500D03*
X439261250Y-261937500D03*
D14*
X436721250Y-256857500D03*
X474821250Y-294957500D03*
D15*
X472281250Y-300037500D03*
D13*
X477361250Y-300037500D03*
D14*
X468471250Y-297497500D03*
D13*
X467201250Y-300037500D03*
X201983860Y-277573291D03*
D14*
X202698012Y-274824749D03*
X208381154Y-271020014D03*
D15*
X206952850Y-276517100D03*
D13*
X211921840Y-275460909D03*
D14*
X279101550Y-257886200D03*
D15*
X282911550Y-260426200D03*
D14*
X285451550Y-255346200D03*
D13*
X277831550Y-260426200D03*
X287991550Y-260426200D03*
X232501960Y-329503591D03*
D14*
X238899254Y-322950314D03*
D15*
X237470950Y-328447400D03*
D14*
X233216112Y-326755049D03*
D13*
X242439940Y-327391209D03*
D14*
X335641950Y-278447500D03*
D13*
X334371950Y-280987500D03*
X344531950Y-280987500D03*
D15*
X339451950Y-280987500D03*
D14*
X341991950Y-275907500D03*
D13*
X477361250Y-319087500D03*
D15*
X472281250Y-319087500D03*
D14*
X468471250Y-316547500D03*
D13*
X467201250Y-319087500D03*
D14*
X474821250Y-314007500D03*
D15*
X296602150Y-280987500D03*
D14*
X299142150Y-275907500D03*
X292792150Y-278447500D03*
D13*
X301682150Y-280987500D03*
X291522150Y-280987500D03*
D14*
X493871250Y-256857500D03*
D13*
X496411250Y-261937500D03*
X486251250Y-261937500D03*
D15*
X491331250Y-261937500D03*
D14*
X487521250Y-259397500D03*
X450691250Y-343217500D03*
D15*
X453231250Y-338137500D03*
D14*
X457041250Y-340677500D03*
D13*
X458311250Y-338137500D03*
X448151250Y-338137500D03*
D14*
X5715000Y-316547500D03*
D15*
X9525000Y-319087500D03*
D13*
X14605000Y-319087500D03*
D14*
X12065000Y-314007500D03*
D13*
X4445000Y-319087500D03*
D16*
X281781250Y-337343750D03*
D17*
X324612000Y-293052500D03*
D15*
X336550000Y-300037500D03*
D17*
X348488000Y-293052500D03*
D15*
X324612000Y-308292500D03*
D14*
X339090000Y-294957500D03*
X332740000Y-297497500D03*
D15*
X348488000Y-308292500D03*
D13*
X331470000Y-300037500D03*
X341630000Y-300037500D03*
D15*
X266084050Y-302882300D03*
D14*
X261829212Y-301189949D03*
X267512354Y-297385214D03*
D13*
X271053040Y-301826109D03*
X261115060Y-303938491D03*
D15*
X491331250Y-300037500D03*
D14*
X493871250Y-296227500D03*
D13*
X491331250Y-294957500D03*
X491331250Y-305117500D03*
D14*
X496411250Y-302577500D03*
D15*
X9525000Y-338137500D03*
D14*
X12065000Y-333057500D03*
D13*
X14605000Y-338137500D03*
X4445000Y-338137500D03*
D14*
X5715000Y-335597500D03*
D13*
X249170940Y-267536109D03*
X239232960Y-269648491D03*
D14*
X239947112Y-266899949D03*
D15*
X244201950Y-268592300D03*
D14*
X245630254Y-263095214D03*
D13*
X23495000Y-280987500D03*
D15*
X28575000Y-280987500D03*
D13*
X33655000Y-280987500D03*
D14*
X31115000Y-275907500D03*
X24765000Y-278447500D03*
D13*
X429101250Y-319087500D03*
D14*
X430371250Y-316547500D03*
D15*
X434181250Y-319087500D03*
D14*
X436721250Y-314007500D03*
D13*
X439261250Y-319087500D03*
D14*
X125763503Y-301624962D03*
D13*
X133931140Y-305957791D03*
D14*
X132502836Y-300460706D03*
D15*
X128962150Y-304901600D03*
D13*
X123993160Y-303845409D03*
D14*
X262946812Y-237677249D03*
X268629954Y-233872514D03*
D15*
X267201650Y-239369600D03*
D13*
X272170640Y-238313409D03*
X262232660Y-240425791D03*
X84054950Y-280987500D03*
D15*
X89134950Y-280987500D03*
D14*
X91674950Y-275907500D03*
D13*
X94214950Y-280987500D03*
D14*
X85324950Y-278447500D03*
D15*
X453231250Y-319087500D03*
D14*
X455771250Y-314007500D03*
X449421250Y-316547500D03*
D13*
X458311250Y-319087500D03*
X448151250Y-319087500D03*
D14*
X468471250Y-259397500D03*
D13*
X467201250Y-261937500D03*
X477361250Y-261937500D03*
D15*
X472281250Y-261937500D03*
D14*
X474821250Y-256857500D03*
X5715000Y-297497500D03*
X12065000Y-294957500D03*
D15*
X9525000Y-300037500D03*
D13*
X14605000Y-300037500D03*
X4445000Y-300037500D03*
D18*
X210635750Y-229552500D03*
D19*
X210635750Y-232092500D03*
X210635750Y-234632500D03*
X210635750Y-237172500D03*
D14*
X406558750Y-335597500D03*
X412908750Y-333057500D03*
D13*
X415448750Y-338137500D03*
D15*
X410368750Y-338137500D03*
D13*
X405288750Y-338137500D03*
D14*
X221652654Y-287657014D03*
D13*
X215255360Y-294210291D03*
D15*
X220224350Y-293154100D03*
D14*
X215969512Y-291461749D03*
D13*
X225193340Y-292097909D03*
D15*
X453231250Y-280987500D03*
D13*
X448151250Y-280987500D03*
D14*
X455771250Y-275907500D03*
X449421250Y-278447500D03*
D13*
X458311250Y-280987500D03*
X142585960Y-307769709D03*
D14*
X144356303Y-305549262D03*
D13*
X152523940Y-309882091D03*
D14*
X151095636Y-304385006D03*
D15*
X147554950Y-308825900D03*
D13*
X429101250Y-338137500D03*
X439261250Y-338137500D03*
D14*
X437991250Y-340677500D03*
X431641250Y-343217500D03*
D15*
X434181250Y-338137500D03*
D13*
X224818460Y-350598291D03*
D17*
X219562587Y-358856511D03*
D13*
X234756440Y-348485909D03*
D14*
X225532612Y-347849749D03*
D15*
X216394013Y-343949541D03*
X229787450Y-349542100D03*
D14*
X231215754Y-344045014D03*
D15*
X239748265Y-338985442D03*
D17*
X242916839Y-353892411D03*
D13*
X205162070Y-335320458D03*
D14*
X195938242Y-334684298D03*
X201621384Y-330879563D03*
D15*
X200193080Y-336376649D03*
D13*
X195224090Y-337432840D03*
D16*
X481806250Y-251618750D03*
D14*
X289083750Y-294957500D03*
D13*
X291623750Y-300037500D03*
X281463750Y-300037500D03*
D14*
X282733750Y-297497500D03*
D15*
X286543750Y-300037500D03*
D14*
X152518036Y-343653406D03*
X145778703Y-344817662D03*
D15*
X139016535Y-337537642D03*
D13*
X153946340Y-349150491D03*
D15*
X162370787Y-342501741D03*
D13*
X144008360Y-347038109D03*
D17*
X135847961Y-352444611D03*
X159202213Y-357408711D03*
D15*
X148977350Y-348094300D03*
D14*
X156467736Y-325009806D03*
D15*
X152927050Y-329450700D03*
D13*
X147958060Y-328394509D03*
X157896040Y-330506891D03*
D14*
X149728403Y-326174062D03*
D15*
X64725550Y-261937500D03*
D13*
X59645550Y-261937500D03*
D14*
X67265550Y-256857500D03*
D13*
X69805550Y-261937500D03*
D14*
X60915550Y-259397500D03*
D13*
X491331250Y-324167500D03*
D15*
X491331250Y-319087500D03*
D13*
X491331250Y-314007500D03*
D14*
X496411250Y-321627500D03*
X493871250Y-315277500D03*
D13*
X320719450Y-280987500D03*
D14*
X318179450Y-275907500D03*
D15*
X315639450Y-280987500D03*
D14*
X311829450Y-278447500D03*
D13*
X310559450Y-280987500D03*
X211629740Y-251191209D03*
D14*
X202405912Y-250555049D03*
X208089054Y-246750314D03*
D15*
X206660750Y-252247400D03*
D13*
X201691760Y-253303591D03*
X92551250Y-236537500D03*
D15*
X97631250Y-236537500D03*
D14*
X93821250Y-233997500D03*
D13*
X102711250Y-236537500D03*
D14*
X100171250Y-231457500D03*
X173731403Y-350748562D03*
D15*
X176930050Y-354025200D03*
D13*
X171961060Y-352969009D03*
X181899040Y-355081391D03*
D14*
X180470736Y-349584306D03*
D16*
X377825000Y-327818750D03*
X100012500Y-337343750D03*
D14*
X168359303Y-330123762D03*
D15*
X171557950Y-333400400D03*
D13*
X166588960Y-332344209D03*
D14*
X175098636Y-328959506D03*
D13*
X176526940Y-334456591D03*
D15*
X491331250Y-338137500D03*
D14*
X493871250Y-334327500D03*
D13*
X491331250Y-343217500D03*
D14*
X496411250Y-340677500D03*
D13*
X491331250Y-333057500D03*
X439261250Y-238125000D03*
D15*
X434181250Y-238125000D03*
D14*
X436721250Y-233045000D03*
D13*
X429101250Y-238125000D03*
D14*
X430371250Y-235585000D03*
D15*
X256089150Y-324485000D03*
D13*
X261058140Y-323428809D03*
X251120160Y-325541191D03*
D14*
X251834312Y-322792649D03*
X257517454Y-318987914D03*
D13*
X252504460Y-286298191D03*
X262442440Y-284185809D03*
D14*
X258901754Y-279744914D03*
D15*
X257473450Y-285242000D03*
D14*
X253218612Y-283549649D03*
D13*
X78700218Y-261937500D03*
D14*
X79970218Y-259397500D03*
D15*
X83780218Y-261937500D03*
D13*
X88860218Y-261937500D03*
D14*
X86320218Y-256857500D03*
D13*
X448151250Y-238125000D03*
X458311250Y-238125000D03*
D14*
X455771250Y-233045000D03*
D15*
X453231250Y-238125000D03*
D14*
X449421250Y-235585000D03*
X227024754Y-267070314D03*
X221341612Y-270875049D03*
D13*
X220627460Y-273623591D03*
D15*
X225596450Y-272567400D03*
D13*
X230565440Y-271511209D03*
D17*
X30988000Y-231140000D03*
X7112000Y-231140000D03*
D13*
X13970000Y-238125000D03*
X24130000Y-238125000D03*
D15*
X19050000Y-238125000D03*
D14*
X16510000Y-243205000D03*
X22860000Y-240665000D03*
D15*
X30988000Y-246380000D03*
X7112000Y-246380000D03*
X128263650Y-285267400D03*
D13*
X123294660Y-284211209D03*
X133232640Y-286323591D03*
D14*
X131804336Y-280826506D03*
X125065003Y-281990762D03*
D20*
X334125000Y-238125000D03*
X345325000Y-238125000D03*
D21*
X337225000Y-245625000D03*
D22*
X342225000Y-245625000D03*
X339725000Y-245625000D03*
X342225000Y-231125000D03*
X337225000Y-231125000D03*
D14*
X113173436Y-276864106D03*
D13*
X104663760Y-280248809D03*
D15*
X109632750Y-281305000D03*
D14*
X106434103Y-278028362D03*
D13*
X114601740Y-282361191D03*
X129314460Y-324432109D03*
D15*
X134283450Y-325488300D03*
D13*
X139252440Y-326544491D03*
D14*
X131084803Y-322211662D03*
X137824136Y-321047406D03*
D15*
X276104350Y-281292300D03*
D14*
X277532654Y-275795214D03*
D13*
X271135360Y-282348491D03*
D14*
X271849512Y-279599949D03*
D13*
X281073340Y-280236109D03*
D15*
X136694975Y-337042342D03*
D13*
X151624780Y-348655191D03*
D14*
X143115104Y-352039894D03*
X149854437Y-350875638D03*
D15*
X160049227Y-342006441D03*
X146655790Y-347599000D03*
D17*
X156880653Y-356913411D03*
X133526401Y-351949311D03*
D13*
X141686800Y-346542809D03*
D15*
X210216750Y-314769500D03*
D14*
X211645054Y-309272414D03*
X205961912Y-313077149D03*
D13*
X215185740Y-313713309D03*
X205247760Y-315825691D03*
D14*
X31115000Y-256857500D03*
D13*
X33655000Y-261937500D03*
D14*
X24765000Y-259397500D03*
D13*
X23495000Y-261937500D03*
D15*
X28575000Y-261937500D03*
D16*
X19050000Y-328612500D03*
D14*
X248906854Y-301322214D03*
D13*
X252447540Y-305763109D03*
D14*
X243223712Y-305126949D03*
D13*
X242509560Y-307875491D03*
D15*
X247478550Y-306819300D03*
D14*
X496411250Y-283527500D03*
X493871250Y-277177500D03*
D13*
X491331250Y-286067500D03*
X491331250Y-275907500D03*
D15*
X491331250Y-280987500D03*
D14*
X31115000Y-233045000D03*
D13*
X23495000Y-238125000D03*
D14*
X24765000Y-235585000D03*
D15*
X28575000Y-238125000D03*
D13*
X33655000Y-238125000D03*
D14*
X66040000Y-294957500D03*
D13*
X58420000Y-300037500D03*
D15*
X63500000Y-300037500D03*
D14*
X59690000Y-297497500D03*
D13*
X68580000Y-300037500D03*
D14*
X24765000Y-316547500D03*
D15*
X28575000Y-319087500D03*
D13*
X33655000Y-319087500D03*
D14*
X31115000Y-314007500D03*
D13*
X23495000Y-319087500D03*
X52070000Y-338137500D03*
D14*
X59690000Y-333057500D03*
X53340000Y-335597500D03*
D13*
X62230000Y-338137500D03*
D15*
X57150000Y-338137500D03*
D13*
X230260640Y-247228809D03*
D15*
X225291650Y-248285000D03*
D13*
X220322660Y-249341191D03*
D14*
X226719954Y-242787914D03*
X221036812Y-246592649D03*
X224592812Y-309102049D03*
D15*
X228847650Y-310794400D03*
D13*
X233816640Y-309738209D03*
D14*
X230275954Y-305297314D03*
D13*
X223878660Y-311850591D03*
D15*
X89693750Y-300037500D03*
D13*
X94773750Y-300037500D03*
X84613750Y-300037500D03*
D14*
X92233750Y-294957500D03*
X85883750Y-297497500D03*
X474821250Y-333057500D03*
D13*
X467201250Y-338137500D03*
D15*
X472281250Y-338137500D03*
D14*
X468471250Y-335597500D03*
D13*
X477361250Y-338137500D03*
X257889260Y-265711491D03*
D15*
X262858250Y-264655300D03*
D14*
X258603412Y-262962949D03*
D13*
X267827240Y-263599109D03*
D14*
X264286554Y-259158214D03*
D16*
X151606250Y-233362500D03*
D13*
X491331250Y-323532500D03*
D14*
X488791250Y-332422500D03*
D13*
X491331250Y-333692500D03*
D15*
X483076250Y-316674500D03*
X491331250Y-328612500D03*
D17*
X498316250Y-316674500D03*
D15*
X483076250Y-340550500D03*
D14*
X486251250Y-326072500D03*
D17*
X498316250Y-340550500D03*
D13*
X83661250Y-236537500D03*
D15*
X78581250Y-236537500D03*
D14*
X81121250Y-231457500D03*
D13*
X73501250Y-236537500D03*
D14*
X74771250Y-233997500D03*
D13*
X269763760Y-321578791D03*
D15*
X274732750Y-320522600D03*
D14*
X270477912Y-318830249D03*
D13*
X279701740Y-319466409D03*
D14*
X276161054Y-315025514D03*
D13*
X415448750Y-238125000D03*
X405288750Y-238125000D03*
D14*
X406558750Y-235585000D03*
D15*
X410368750Y-238125000D03*
D14*
X412908750Y-233045000D03*
X97790000Y-314007500D03*
D13*
X90170000Y-319087500D03*
X100330000Y-319087500D03*
D15*
X95250000Y-319087500D03*
D14*
X91440000Y-316547500D03*
X50958750Y-235585000D03*
X57308750Y-233045000D03*
D13*
X59848750Y-238125000D03*
D15*
X54768750Y-238125000D03*
D13*
X49688750Y-238125000D03*
X415448750Y-280987500D03*
D14*
X406558750Y-278447500D03*
D15*
X410368750Y-280987500D03*
D13*
X405288750Y-280987500D03*
D14*
X412908750Y-275907500D03*
X339090000Y-335597500D03*
D13*
X347980000Y-338137500D03*
D14*
X345440000Y-333057500D03*
D15*
X342900000Y-338137500D03*
D13*
X337820000Y-338137500D03*
X405288750Y-261937500D03*
D15*
X410368750Y-261937500D03*
D13*
X415448750Y-261937500D03*
D14*
X406558750Y-259397500D03*
X412908750Y-256857500D03*
D13*
X196637160Y-298185391D03*
D14*
X197351312Y-295436849D03*
X203034454Y-291632114D03*
D13*
X206575140Y-296073009D03*
D15*
X201606150Y-297129200D03*
D14*
X5715000Y-278447500D03*
D13*
X14605000Y-280987500D03*
D14*
X12065000Y-275907500D03*
D13*
X4445000Y-280987500D03*
D15*
X9525000Y-280987500D03*
D14*
X244315912Y-241639649D03*
D13*
X243601760Y-244388191D03*
D15*
X248570750Y-243332000D03*
D14*
X249999054Y-237834914D03*
D13*
X253539740Y-242275809D03*
D14*
X61512450Y-278434800D03*
X67862450Y-275894800D03*
D13*
X70402450Y-280974800D03*
D15*
X65322450Y-280974800D03*
D13*
X60242450Y-280974800D03*
X113604560Y-238326109D03*
D14*
X115374903Y-236105662D03*
X122114236Y-234941406D03*
D15*
X118573550Y-239382300D03*
D13*
X123542540Y-240438491D03*
X213858360Y-333478691D03*
D15*
X218827350Y-332422500D03*
D14*
X220255654Y-326925414D03*
D13*
X223796340Y-331366309D03*
D14*
X214572512Y-330730149D03*
D13*
X243811540Y-288148209D03*
D15*
X238842550Y-289204400D03*
D14*
X234587712Y-287512049D03*
X240270854Y-283707314D03*
D13*
X233873560Y-290260591D03*
D14*
X393858750Y-314007500D03*
D13*
X396398750Y-319087500D03*
D14*
X387508750Y-316547500D03*
D15*
X391318750Y-319087500D03*
D13*
X386238750Y-319087500D03*
D14*
X308171850Y-294957500D03*
D13*
X310711850Y-300037500D03*
D15*
X305631850Y-300037500D03*
D13*
X300551850Y-300037500D03*
D14*
X301821850Y-297497500D03*
D15*
X160458150Y-248297700D03*
D13*
X155489160Y-247241509D03*
D14*
X157259503Y-245021062D03*
D13*
X165427140Y-249353891D03*
D14*
X163998836Y-243856806D03*
X31115000Y-294957500D03*
D13*
X33655000Y-300037500D03*
X23495000Y-300037500D03*
D14*
X24765000Y-297497500D03*
D15*
X28575000Y-300037500D03*
D13*
X439261250Y-300037500D03*
D14*
X436721250Y-294957500D03*
D15*
X434181250Y-300037500D03*
D14*
X430371250Y-297497500D03*
D13*
X429101250Y-300037500D03*
X183804040Y-277573291D03*
D14*
X175636403Y-273240462D03*
X182375736Y-272076206D03*
D15*
X178835050Y-276517100D03*
D13*
X173866060Y-275460909D03*
D14*
X119718303Y-261365962D03*
D13*
X117947960Y-263586409D03*
D15*
X122916950Y-264642600D03*
D13*
X127885940Y-265698791D03*
D14*
X126457636Y-260201706D03*
X113871936Y-296498306D03*
D15*
X110331250Y-300939200D03*
D14*
X107132603Y-297662562D03*
D13*
X115300240Y-301995391D03*
X105362260Y-299883009D03*
D14*
X430371250Y-278447500D03*
D13*
X439261250Y-280987500D03*
D14*
X436721250Y-275907500D03*
D15*
X434181250Y-280987500D03*
D13*
X429101250Y-280987500D03*
D14*
X317188850Y-259397500D03*
D13*
X315918850Y-261937500D03*
X326078850Y-261937500D03*
D15*
X320998850Y-261937500D03*
D14*
X323538850Y-256857500D03*
D13*
X4445000Y-261937500D03*
X14605000Y-261937500D03*
D14*
X12065000Y-256857500D03*
X5715000Y-259397500D03*
D15*
X9525000Y-261937500D03*
X295275000Y-319087500D03*
D13*
X300355000Y-319087500D03*
X290195000Y-319087500D03*
D14*
X297815000Y-314007500D03*
X291465000Y-316547500D03*
D16*
X192881250Y-355600000D03*
D13*
X396398750Y-238125000D03*
D14*
X387508750Y-235585000D03*
D13*
X386238750Y-238125000D03*
D14*
X393858750Y-233045000D03*
D15*
X391318750Y-238125000D03*
D13*
X448151250Y-261937500D03*
D15*
X453231250Y-261937500D03*
D13*
X458311250Y-261937500D03*
D14*
X449421250Y-259397500D03*
X455771250Y-256857500D03*
D13*
X160556460Y-292097909D03*
D15*
X165525450Y-293154100D03*
D14*
X169066136Y-288713206D03*
D13*
X170494440Y-294210291D03*
D14*
X162326803Y-289877462D03*
D13*
X14605000Y-238125000D03*
D14*
X12065000Y-233045000D03*
D15*
X9525000Y-238125000D03*
D14*
X5715000Y-235585000D03*
D13*
X4445000Y-238125000D03*
D15*
X28575000Y-338137500D03*
D13*
X23495000Y-338137500D03*
X33655000Y-338137500D03*
D14*
X31115000Y-333057500D03*
X24765000Y-335597500D03*
X368458750Y-278447500D03*
X374808750Y-275907500D03*
D15*
X372268750Y-280987500D03*
D13*
X367188750Y-280987500D03*
X377348750Y-280987500D03*
D14*
X175877703Y-248983462D03*
X182617036Y-247819206D03*
D13*
X174107360Y-251203909D03*
D15*
X179076350Y-252260100D03*
D13*
X184045340Y-253316291D03*
D16*
X376237500Y-251618750D03*
D14*
X284156150Y-233997500D03*
D13*
X293046150Y-236537500D03*
D14*
X290506150Y-231457500D03*
D13*
X282886150Y-236537500D03*
D15*
X287966150Y-236537500D03*
D13*
X119008640Y-341715911D03*
X109070660Y-339603529D03*
D14*
X110498964Y-345100614D03*
D15*
X114039650Y-340659720D03*
D14*
X117238297Y-343936358D03*
X393858750Y-275907500D03*
X387508750Y-278447500D03*
D15*
X391318750Y-280987500D03*
D13*
X396398750Y-280987500D03*
X386238750Y-280987500D03*
D14*
X393858750Y-256857500D03*
D13*
X396398750Y-261937500D03*
D15*
X391318750Y-261937500D03*
D14*
X387508750Y-259397500D03*
D13*
X386238750Y-261937500D03*
X110696260Y-320482409D03*
D14*
X119205936Y-317097706D03*
D13*
X120634240Y-322594791D03*
D15*
X115665250Y-321538600D03*
D14*
X112466603Y-318261962D03*
X60483750Y-316547500D03*
D17*
X52355750Y-312102500D03*
D13*
X69373750Y-319087500D03*
D15*
X76231750Y-327342500D03*
X64293750Y-319087500D03*
X52355750Y-327342500D03*
D13*
X59213750Y-319087500D03*
D17*
X76231750Y-312102500D03*
D14*
X66833750Y-314007500D03*
D15*
X319055750Y-327342500D03*
D17*
X342931750Y-312102500D03*
D14*
X333533750Y-314007500D03*
D15*
X342931750Y-327342500D03*
D14*
X327183750Y-316547500D03*
D13*
X325913750Y-319087500D03*
D17*
X319055750Y-312102500D03*
D13*
X336073750Y-319087500D03*
D15*
X330993750Y-319087500D03*
D14*
X449421250Y-297497500D03*
D13*
X458311250Y-300037500D03*
D15*
X453231250Y-300037500D03*
D14*
X455771250Y-294957500D03*
D13*
X448151250Y-300037500D03*
D15*
X340036150Y-261937500D03*
D13*
X345116150Y-261937500D03*
D14*
X342576150Y-256857500D03*
D13*
X334956150Y-261937500D03*
D14*
X336226150Y-259397500D03*
D13*
X367188750Y-261937500D03*
X377348750Y-261937500D03*
D15*
X372268750Y-261937500D03*
D14*
X369728750Y-267017500D03*
X376078750Y-264477500D03*
D18*
X363759750Y-227203000D03*
D23*
X363759750Y-229743000D03*
X363759750Y-232283000D03*
X363759750Y-234823000D03*
X363759750Y-237363000D03*
X363759750Y-239903000D03*
X363759750Y-242443000D03*
X363759750Y-244983000D03*
X363759750Y-247523000D03*
X363759750Y-250063000D03*
X363759750Y-252603000D03*
X363759750Y-255143000D03*
X363759750Y-257683000D03*
X363759750Y-260223000D03*
X363759750Y-262763000D03*
X363759750Y-265303000D03*
X363759750Y-267843000D03*
X363759750Y-270383000D03*
X363759750Y-272923000D03*
X363759750Y-275463000D03*
X348519750Y-275463000D03*
X348519750Y-272923000D03*
X348519750Y-270383000D03*
X348519750Y-267843000D03*
X348519750Y-265303000D03*
X348519750Y-262763000D03*
X348519750Y-260223000D03*
X348519750Y-257683000D03*
X348519750Y-255143000D03*
X348519750Y-252603000D03*
X348519750Y-250063000D03*
X348519750Y-247523000D03*
X348519750Y-244983000D03*
X348519750Y-242443000D03*
X348519750Y-239903000D03*
X348519750Y-237363000D03*
X348519750Y-234823000D03*
X348519750Y-232283000D03*
X348519750Y-229743000D03*
X348519750Y-227203000D03*
X352327750Y-271652000D03*
X354867750Y-271652000D03*
X357407750Y-271652000D03*
X359947750Y-271652000D03*
M02*
