M48
; DRILL file {KiCad (6.0.1-0)} date Wednesday, July 20, 2022 at 07:32:32 AM
; FORMAT={-:-/ absolute / metric / decimal}
; #@! TF.CreationDate,2022-07-20T07:32:32-07:00
; #@! TF.GenerationSoftware,Kicad,Pcbnew,(6.0.1-0)
; #@! TF.FileFunction,Plated,1,2,PTH
FMAT,2
METRIC
; #@! TA.AperFunction,Plated,PTH,ViaDrill
T1C0.400
; #@! TA.AperFunction,Plated,PTH,ComponentDrill
T2C1.000
; #@! TA.AperFunction,Plated,PTH,ComponentDrill
T3C2.200
%
G90
G05
T1
X2.476Y-235.585
X2.476Y-259.461
X2.476Y-278.384
X2.476Y-297.561
X2.476Y-316.611
X2.476Y-335.534
X5.0Y-343.5
X34.328Y-233.045
X34.379Y-256.87
X34.379Y-275.92
X34.379Y-294.97
X34.43Y-314.02
X34.43Y-333.07
X37.122Y-266.776
X37.173Y-246.151
X37.173Y-285.877
X37.173Y-304.876
X37.173Y-324.028
X37.173Y-341.44
X41.434Y-239.268
X42.0Y-230.0
X47.657Y-235.585
X50.07Y-335.661
X56.42Y-297.561
X57.182Y-316.611
X57.69Y-259.461
X58.198Y-278.384
X65.788Y-302.612
X66.834Y-238.252
X70.554Y-300.482
X79.915Y-317.627
X88.199Y-316.513
X90.583Y-233.934
X95.79Y-257.81
X103.156Y-277.368
X103.918Y-296.926
X109.379Y-317.627
X110.003Y-337.174
X125.254Y-243.84
X125.381Y-235.712
X127.0Y-349.5
X127.881Y-321.531
X129.699Y-260.858
X130.08Y-269.113
X130.715Y-239.395
X134.779Y-289.814
X135.033Y-281.559
X135.16Y-264.668
X135.541Y-309.626
X135.795Y-301.244
X139.859Y-345.059
X139.859Y-351.409
X140.494Y-285.369
X141.002Y-321.818
X141.129Y-304.8
X141.129Y-330.327
X142.653Y-344.17
X146.59Y-325.501
X153.829Y-268.605
X154.083Y-244.348
X154.083Y-266.065
X159.163Y-289.179
X159.798Y-308.864
X165.259Y-329.438
X170.593Y-350.012
X184.817Y-288.163
X184.944Y-329.406
X185.737Y-233.362
X185.737Y-307.975
X190.5Y-346.869
X192.437Y-275.209
X192.691Y-251.206
X192.881Y-262.731
X192.881Y-358.775
X193.363Y-300.228
X193.363Y-301.228
X194.088Y-296.164
X199.168Y-251.206
X199.422Y-275.463
X202.724Y-313.817
X211.36Y-331.47
X212.884Y-298.577
X218.472Y-253.365
X218.472Y-278.003
X221.647Y-315.976
X222.282Y-348.488
X223.552Y-326.263
X224.822Y-287.02
X228.505Y-333.502
X230.029Y-242.062
X230.283Y-266.446
X231.384Y-288.193
X233.458Y-304.546
X236.684Y-267.64
X240.02Y-305.808
X241.097Y-242.336
X248.631Y-323.474
X249.968Y-284.353
X255.429Y-263.652
X258.604Y-302.006
X259.747Y-238.379
X262.033Y-340.106
X267.24Y-319.532
X287.56Y-285.877
X288.195Y-316.611
X289.465Y-278.511
X293.021Y-266.954
X294.799Y-259.461
X297.085Y-305.054
X298.482Y-297.561
X298.609Y-241.427
X300.006Y-234.061
X302.546Y-275.971
X307.753Y-256.921
X311.563Y-295.021
X312.833Y-231.521
X323.882Y-316.611
X324.5Y-231.5
X324.5Y-248.0
X332.391Y-278.511
X332.64Y-235.585
X335.82Y-335.661
X337.598Y-264.541
X338.487Y-235.712
X344.197Y-252.879
X345.422Y-251.98
X345.472Y-253.111
X346.171Y-251.206
X355.251Y-278.892
X356.013Y-259.207
X362.49Y-286.323
X362.871Y-304.474
X363.533Y-285.874
X364.432Y-303.475
X365.157Y-278.511
X365.157Y-335.534
X368.713Y-271.907
X379.381Y-240.665
X379.381Y-256.667
X379.381Y-264.414
X380.318Y-285.806
X380.794Y-345.125
X381.224Y-327.098
X381.354Y-285.428
X381.794Y-344.4
X381.916Y-237.748
X382.193Y-326.654
X382.734Y-341.452
X383.482Y-237.617
X384.207Y-235.585
X384.207Y-259.334
X384.207Y-278.384
X384.207Y-316.611
X384.207Y-335.534
X385.096Y-241.427
X385.096Y-265.176
X385.096Y-284.226
X397.161Y-233.045
X397.161Y-256.921
X397.161Y-275.971
X397.161Y-333.121
X410.5Y-272.0
X422.942Y-238.76
X427.096Y-259.397
X427.096Y-278.447
X427.096Y-297.498
X427.096Y-316.548
X427.114Y-235.567
X428.339Y-343.217
X435.769Y-333.248
X436.658Y-335.534
X453.168Y-267.335
X453.295Y-243.459
X453.295Y-324.231
X453.422Y-305.181
X453.676Y-341.376
X457.994Y-334.137
X459.01Y-233.045
X459.01Y-256.921
X459.01Y-275.971
X459.01Y-295.021
X459.01Y-314.071
X461.804Y-242.951
X461.804Y-266.827
X461.804Y-285.877
X461.804Y-304.927
X461.804Y-323.977
X465.106Y-235.585
X465.106Y-259.334
X465.106Y-278.511
X465.106Y-316.611
X465.233Y-297.434
X465.233Y-335.534
X479.203Y-330.458
X480.856Y-333.462
X482.378Y-344.932
X482.756Y-333.462
X486.188Y-322.707
T2
X210.636Y-229.552
X210.636Y-232.093
X210.636Y-234.632
X210.636Y-237.172
X337.225Y-231.125
X337.225Y-245.625
X339.725Y-245.625
X342.225Y-231.125
X342.225Y-245.625
X348.52Y-227.203
X348.52Y-229.743
X348.52Y-232.283
X348.52Y-234.823
X348.52Y-237.363
X348.52Y-239.903
X348.52Y-242.443
X348.52Y-244.983
X348.52Y-247.523
X348.52Y-250.063
X348.52Y-252.603
X348.52Y-255.143
X348.52Y-257.683
X348.52Y-260.223
X348.52Y-262.763
X348.52Y-265.303
X348.52Y-267.843
X348.52Y-270.383
X348.52Y-272.923
X348.52Y-275.463
X352.328Y-271.652
X354.868Y-271.652
X357.408Y-271.652
X359.948Y-271.652
X363.76Y-227.203
X363.76Y-229.743
X363.76Y-232.283
X363.76Y-234.823
X363.76Y-237.363
X363.76Y-239.903
X363.76Y-242.443
X363.76Y-244.983
X363.76Y-247.523
X363.76Y-250.063
X363.76Y-252.603
X363.76Y-255.143
X363.76Y-257.683
X363.76Y-260.223
X363.76Y-262.763
X363.76Y-265.303
X363.76Y-267.843
X363.76Y-270.383
X363.76Y-272.923
X363.76Y-275.463
T3
X19.05Y-251.619
X19.05Y-328.613
X100.012Y-337.344
X151.606Y-233.362
X192.881Y-355.6
X234.156Y-233.362
X281.781Y-337.344
X376.238Y-251.619
X377.825Y-327.819
X481.806Y-251.619
X481.806Y-328.613
T0
M30
