M48
; DRILL file {KiCad (6.0.1-0)} date Monday, June 13, 2022 at 05:25:09 PM
; FORMAT={-:-/ absolute / metric / decimal}
; #@! TF.CreationDate,2022-06-13T17:25:09-07:00
; #@! TF.GenerationSoftware,Kicad,Pcbnew,(6.0.1-0)
; #@! TF.FileFunction,NonPlated,1,2,NPTH
FMAT,2
METRIC
; #@! TA.AperFunction,NonPlated,NPTH,ComponentDrill
T1C1.500
; #@! TA.AperFunction,NonPlated,NPTH,ComponentDrill
T2C1.750
; #@! TA.AperFunction,NonPlated,NPTH,ComponentDrill
T3C3.000
; #@! TA.AperFunction,NonPlated,NPTH,ComponentDrill
T4C3.048
; #@! TA.AperFunction,NonPlated,NPTH,ComponentDrill
T5C3.988
%
G90
G05
T2
X-31.274Y-266.7
X-31.274Y-290.512
X-31.274Y-309.562
X-31.274Y-328.613
X-31.274Y-347.662
X-31.274Y-366.712
X-21.749Y-266.7
X-21.114Y-266.7
X-21.114Y-290.512
X-21.114Y-309.562
X-21.114Y-328.613
X-21.114Y-347.662
X-21.114Y-366.712
X-12.224Y-266.7
X-12.224Y-290.512
X-12.224Y-309.562
X-12.224Y-328.613
X-12.224Y-347.662
X-12.224Y-366.712
X-11.589Y-266.7
X-2.064Y-266.7
X-2.064Y-290.512
X-2.064Y-309.562
X-2.064Y-328.613
X-2.064Y-347.662
X-2.064Y-366.712
X13.97Y-266.7
X16.351Y-366.712
X17.939Y-328.613
X22.701Y-328.613
X23.495Y-347.662
X23.927Y-290.512
X24.13Y-266.7
X24.524Y-309.55
X26.511Y-366.712
X28.099Y-328.613
X32.861Y-328.613
X33.655Y-347.662
X34.087Y-290.512
X34.684Y-309.55
X37.782Y-265.113
X42.981Y-290.512
X47.942Y-265.113
X48.336Y-309.562
X48.895Y-328.613
X53.141Y-290.512
X54.451Y-347.662
X56.832Y-265.113
X58.496Y-309.562
X59.055Y-328.613
X62.027Y-288.925
X64.611Y-347.662
X66.992Y-265.113
X68.945Y-308.824
X69.644Y-328.458
X72.187Y-288.925
X73.352Y-368.179
X74.978Y-349.057
X75.689Y-368.679
X77.886Y-266.901
X78.883Y-310.936
X79.581Y-330.57
X82.229Y-292.161
X83.29Y-370.291
X84.915Y-351.17
X85.627Y-370.791
X87.576Y-312.786
X87.824Y-269.013
X88.274Y-332.42
X92.167Y-294.274
X93.596Y-353.007
X96.504Y-270.851
X97.514Y-314.899
X98.212Y-334.533
X100.86Y-296.137
X103.534Y-355.119
X105.968Y-375.118
X106.194Y-316.761
X106.442Y-272.963
X106.867Y-336.345
X108.29Y-375.613
X110.798Y-298.249
X112.239Y-356.97
X115.906Y-377.23
X116.132Y-318.874
X116.805Y-338.457
X118.228Y-377.725
X119.504Y-300.099
X119.77Y-275.817
X122.177Y-359.082
X124.838Y-320.673
X125.511Y-340.307
X129.442Y-302.211
X129.708Y-277.929
X130.87Y-360.919
X134.776Y-322.785
X135.449Y-342.419
X136.242Y-381.544
X138.147Y-304.036
X138.389Y-279.779
X140.808Y-363.032
X146.18Y-383.656
X148.085Y-306.148
X148.327Y-281.891
X159.505Y-366.008
X160.918Y-326.76
X165.973Y-281.879
X166.265Y-306.148
X169.443Y-363.895
X169.529Y-344.401
X170.856Y-324.648
X175.911Y-279.766
X176.203Y-304.036
X178.14Y-362.054
X179.467Y-342.288
X179.537Y-322.785
X184.604Y-277.916
X184.909Y-302.199
X188.078Y-359.941
X188.16Y-340.426
X189.1Y-379.173
X189.475Y-320.673
X194.542Y-275.804
X194.847Y-300.086
X196.783Y-358.079
X198.098Y-338.313
X198.155Y-318.836
X199.038Y-377.061
X203.514Y-298.223
X206.721Y-355.966
X206.791Y-336.45
X207.883Y-272.963
X208.093Y-316.723
X213.452Y-296.111
X215.401Y-354.116
X216.729Y-334.338
X216.786Y-314.873
X217.821Y-270.851
X222.171Y-294.286
X225.339Y-352.004
X225.396Y-332.513
X226.514Y-269.001
X226.724Y-312.761
X228.686Y-370.766
X232.108Y-292.174
X234.045Y-350.154
X235.334Y-330.401
X235.417Y-310.923
X236.452Y-266.888
X238.624Y-368.654
X242.113Y-289.001
X243.983Y-348.041
X245.355Y-308.811
X245.745Y-328.613
X247.167Y-265.113
X252.273Y-289.001
X254.476Y-347.662
X255.803Y-309.562
X255.905Y-328.613
X257.327Y-265.113
X261.15Y-290.512
X264.636Y-347.662
X264.833Y-328.613
X265.963Y-309.562
X266.23Y-265.113
X271.31Y-290.512
X274.841Y-309.562
X274.993Y-328.613
X276.39Y-265.113
X280.2Y-290.512
X285.001Y-309.562
X289.725Y-290.512
X290.195Y-347.662
X290.36Y-290.512
X295.751Y-328.613
X298.653Y-309.562
X298.926Y-266.7
X299.237Y-290.512
X299.885Y-290.512
X300.355Y-347.662
X302.101Y-366.712
X305.911Y-328.613
X308.813Y-309.562
X309.086Y-266.7
X309.397Y-290.512
X312.261Y-366.712
X331.47Y-266.7
X331.47Y-290.512
X331.47Y-309.562
X331.47Y-366.712
X341.63Y-266.7
X341.63Y-290.512
X341.63Y-309.562
X341.63Y-366.712
X350.52Y-266.7
X350.52Y-290.512
X350.52Y-309.562
X350.52Y-347.662
X350.52Y-366.712
X360.68Y-266.7
X360.68Y-290.512
X360.68Y-309.562
X360.68Y-347.662
X360.68Y-366.712
X369.57Y-266.7
X369.57Y-290.512
X369.57Y-309.562
X369.57Y-366.712
X379.73Y-266.7
X379.73Y-290.512
X379.73Y-309.562
X379.73Y-366.712
X393.382Y-266.7
X393.382Y-290.512
X393.382Y-309.562
X393.382Y-328.613
X393.382Y-347.662
X393.382Y-366.712
X402.907Y-366.712
X403.542Y-266.7
X403.542Y-290.512
X403.542Y-309.562
X403.542Y-328.613
X403.542Y-347.662
X403.542Y-366.712
X412.433Y-266.7
X412.433Y-290.512
X412.433Y-309.562
X412.433Y-328.613
X412.433Y-347.662
X412.433Y-366.712
X413.067Y-366.712
X422.592Y-266.7
X422.592Y-290.512
X422.592Y-309.562
X422.592Y-328.613
X422.592Y-347.662
X422.592Y-366.712
X431.482Y-266.7
X431.482Y-290.512
X431.482Y-309.562
X431.482Y-328.613
X431.482Y-347.662
X431.482Y-366.712
X441.642Y-266.7
X441.642Y-290.512
X441.642Y-309.562
X441.642Y-328.613
X441.642Y-347.662
X441.642Y-366.712
X450.532Y-266.7
X450.532Y-290.512
X455.612Y-304.482
X455.612Y-314.007
X455.612Y-314.642
X455.612Y-323.532
X455.612Y-324.167
X455.612Y-333.692
X455.612Y-342.582
X455.612Y-352.107
X455.612Y-352.743
X455.612Y-361.632
X455.612Y-362.267
X455.612Y-371.792
X460.692Y-266.7
X460.692Y-290.512
T3
X-30.004Y-264.16
X-30.004Y-287.972
X-30.004Y-307.022
X-30.004Y-326.072
X-30.004Y-345.123
X-30.004Y-364.172
X-23.654Y-261.62
X-23.654Y-285.433
X-23.654Y-304.482
X-23.654Y-323.532
X-23.654Y-342.582
X-23.654Y-361.632
X-19.209Y-271.78
X-12.859Y-269.24
X-10.954Y-264.16
X-10.954Y-287.972
X-10.954Y-307.022
X-10.954Y-326.072
X-10.954Y-345.123
X-10.954Y-364.172
X-4.604Y-261.62
X-4.604Y-285.433
X-4.604Y-304.482
X-4.604Y-323.532
X-4.604Y-342.582
X-4.604Y-361.632
X15.24Y-264.16
X17.621Y-364.172
X20.479Y-333.692
X21.59Y-261.62
X23.971Y-326.072
X23.971Y-361.632
X24.765Y-345.123
X25.197Y-287.972
X25.794Y-307.01
X26.829Y-331.152
X30.321Y-323.532
X31.115Y-342.582
X31.547Y-285.433
X32.144Y-304.47
X39.052Y-262.572
X44.251Y-287.972
X45.402Y-260.032
X49.606Y-307.022
X50.165Y-326.072
X50.601Y-285.433
X55.721Y-345.123
X55.956Y-304.482
X56.515Y-323.532
X58.102Y-262.572
X62.071Y-342.582
X63.297Y-286.385
X64.453Y-260.032
X69.647Y-283.845
X70.715Y-306.603
X71.414Y-326.238
X74.78Y-373.676
X76.748Y-346.837
X77.455Y-305.439
X77.459Y-366.458
X78.153Y-325.073
X79.656Y-264.681
X81.52Y-372.511
X83.487Y-345.673
X84.0Y-289.941
X84.198Y-365.294
X86.395Y-263.516
X89.346Y-310.566
X90.045Y-330.2
X90.739Y-288.777
X95.366Y-350.787
X96.086Y-309.402
X96.784Y-329.036
X98.274Y-268.63
X102.105Y-349.622
X102.63Y-293.916
X105.014Y-267.466
X107.396Y-380.615
X107.964Y-314.541
X108.638Y-334.124
X109.37Y-292.752
X110.06Y-373.393
X114.01Y-354.749
X114.136Y-379.451
X114.704Y-313.377
X115.377Y-332.96
X116.799Y-372.228
X120.749Y-353.585
X121.274Y-297.878
X121.541Y-273.596
X126.608Y-318.452
X127.281Y-338.087
X128.013Y-296.714
X128.28Y-272.432
X132.641Y-358.699
X133.347Y-317.288
X134.02Y-336.922
X138.013Y-379.324
X139.38Y-357.535
X139.918Y-301.815
X140.159Y-277.558
X144.752Y-378.159
X146.657Y-300.651
X146.898Y-276.394
X160.219Y-363.259
X161.633Y-324.012
X165.903Y-359.455
X166.687Y-279.13
X166.979Y-303.4
X167.316Y-320.207
X170.243Y-341.652
X172.37Y-275.325
X172.662Y-299.595
X175.926Y-337.847
X178.854Y-359.305
X180.251Y-320.037
X184.537Y-355.5
X185.318Y-275.168
X185.623Y-299.45
X185.934Y-316.232
X188.874Y-337.677
X189.814Y-376.425
X191.001Y-271.363
X191.306Y-295.645
X194.557Y-333.872
X195.497Y-372.62
X197.497Y-355.33
X198.869Y-316.087
X203.181Y-351.525
X204.228Y-295.475
X204.552Y-312.282
X207.505Y-333.702
X208.597Y-270.215
X209.912Y-291.67
X213.188Y-329.897
X214.28Y-266.41
X216.116Y-351.368
X217.5Y-312.125
X221.799Y-347.563
X222.885Y-291.538
X223.183Y-308.32
X226.11Y-329.765
X227.228Y-266.252
X228.568Y-287.733
X229.4Y-368.017
X231.794Y-325.96
X232.911Y-262.448
X234.759Y-347.405
X235.083Y-364.213
X236.131Y-308.175
X240.442Y-343.601
X241.814Y-304.37
X243.383Y-286.461
X247.015Y-326.072
X248.437Y-262.572
X249.733Y-283.921
X253.365Y-323.532
X254.787Y-260.032
X255.746Y-345.123
X257.073Y-307.022
X262.096Y-342.582
X262.42Y-287.972
X263.423Y-304.482
X266.103Y-326.072
X267.5Y-262.572
X268.77Y-285.433
X272.453Y-323.532
X273.85Y-260.032
X276.111Y-307.022
X281.47Y-287.972
X282.461Y-304.482
X287.82Y-285.433
X291.465Y-345.123
X292.265Y-295.592
X297.021Y-326.072
X297.815Y-342.582
X298.615Y-293.053
X299.923Y-307.022
X300.196Y-264.16
X300.507Y-287.972
X303.371Y-323.532
X303.371Y-364.172
X306.273Y-304.482
X306.546Y-261.62
X306.857Y-285.433
X309.721Y-361.632
X332.74Y-307.022
X332.74Y-364.172
X334.01Y-271.78
X334.01Y-295.592
X339.09Y-304.482
X339.09Y-361.632
X340.36Y-269.24
X340.36Y-293.053
X351.79Y-264.16
X351.79Y-287.972
X351.79Y-307.022
X351.79Y-345.123
X351.79Y-364.172
X358.14Y-261.62
X358.14Y-285.433
X358.14Y-304.482
X358.14Y-342.582
X358.14Y-361.632
X370.84Y-264.16
X370.84Y-287.972
X370.84Y-307.022
X370.84Y-364.172
X377.19Y-261.62
X377.19Y-285.433
X377.19Y-304.482
X377.19Y-361.632
X394.652Y-264.16
X394.652Y-287.972
X394.652Y-307.022
X394.652Y-326.072
X394.652Y-345.123
X395.922Y-371.792
X401.002Y-261.62
X401.002Y-285.433
X401.002Y-304.482
X401.002Y-323.532
X401.002Y-342.582
X402.272Y-369.252
X404.178Y-364.172
X410.527Y-361.632
X413.702Y-264.16
X413.702Y-287.972
X413.702Y-307.022
X413.702Y-326.072
X413.702Y-345.123
X414.972Y-371.792
X420.053Y-261.62
X420.053Y-285.433
X420.053Y-304.482
X420.053Y-323.532
X420.053Y-342.582
X421.322Y-369.252
X432.752Y-264.16
X432.752Y-287.972
X432.752Y-307.022
X432.752Y-326.072
X432.752Y-345.123
X432.752Y-364.172
X439.102Y-261.62
X439.102Y-285.433
X439.102Y-304.482
X439.102Y-323.532
X439.102Y-342.582
X439.102Y-361.632
X450.532Y-316.548
X450.532Y-354.647
X451.802Y-264.16
X451.802Y-287.972
X453.072Y-322.897
X453.072Y-360.998
X458.152Y-261.62
X458.152Y-285.433
X458.152Y-305.752
X458.152Y-324.803
X458.152Y-343.852
X458.152Y-362.902
X460.692Y-312.102
X460.692Y-331.152
X460.692Y-350.202
X460.692Y-369.252
T4
X-28.607Y-259.715
X-4.731Y-259.715
X16.637Y-340.678
X40.513Y-340.678
X97.808Y-380.524
X100.129Y-381.02
X121.162Y-385.488
X123.483Y-385.984
X183.844Y-387.432
X207.198Y-382.467
X282.867Y-283.527
X283.337Y-340.678
X288.893Y-321.627
X306.743Y-283.527
X307.213Y-340.678
X312.769Y-321.627
X396.049Y-373.697
X419.925Y-373.697
X462.597Y-307.149
X462.597Y-331.025
X462.597Y-345.25
X462.597Y-369.125
T5
X-28.607Y-274.955
X-26.194Y-266.7
X-26.194Y-290.512
X-26.194Y-309.562
X-26.194Y-328.613
X-26.194Y-347.662
X-26.194Y-366.712
X-16.669Y-266.7
X-7.144Y-266.7
X-7.144Y-290.512
X-7.144Y-309.562
X-7.144Y-328.613
X-7.144Y-347.662
X-7.144Y-366.712
X-4.731Y-274.955
X16.637Y-355.917
X19.05Y-266.7
X21.431Y-366.712
X23.019Y-328.613
X27.781Y-328.613
X28.575Y-347.662
X29.007Y-290.512
X29.604Y-309.55
X40.513Y-355.917
X42.862Y-265.113
X48.061Y-290.512
X53.416Y-309.562
X53.975Y-328.613
X59.531Y-347.662
X61.912Y-265.113
X67.107Y-288.925
X73.914Y-309.88
X74.612Y-329.514
X78.321Y-369.235
X79.947Y-350.114
X80.658Y-369.735
X82.855Y-267.957
X87.198Y-293.218
X92.545Y-313.842
X93.243Y-333.477
X98.565Y-354.063
X100.976Y-365.617
X101.473Y-271.907
X103.298Y-366.113
X105.829Y-297.193
X110.937Y-376.174
X111.163Y-317.817
X111.836Y-337.401
X113.259Y-376.669
X117.208Y-358.026
X124.33Y-370.581
X124.473Y-301.155
X124.739Y-276.873
X126.652Y-371.077
X129.807Y-321.729
X130.48Y-341.363
X135.839Y-361.975
X141.211Y-382.6
X143.116Y-305.092
X143.358Y-280.835
X164.474Y-364.952
X165.887Y-325.704
X170.942Y-280.822
X171.234Y-305.092
X174.498Y-343.344
X180.675Y-372.525
X183.109Y-360.998
X184.506Y-321.729
X189.573Y-276.86
X189.878Y-301.142
X193.129Y-339.369
X194.069Y-378.117
X201.752Y-357.022
X203.124Y-317.779
X204.03Y-367.56
X208.483Y-297.167
X211.76Y-335.394
X212.852Y-271.907
X220.37Y-353.06
X221.755Y-313.817
X227.139Y-293.23
X230.365Y-331.457
X231.483Y-267.945
X233.655Y-369.71
X239.014Y-349.098
X240.386Y-309.867
X247.193Y-289.001
X250.825Y-328.613
X252.247Y-265.113
X259.556Y-347.662
X260.883Y-309.562
X266.23Y-290.512
X269.913Y-328.613
X271.31Y-265.113
X279.921Y-309.562
X282.867Y-298.767
X283.337Y-355.917
X285.28Y-290.512
X288.893Y-336.868
X294.805Y-290.512
X295.275Y-347.662
X300.831Y-328.613
X303.733Y-309.562
X304.006Y-266.7
X304.317Y-290.512
X306.743Y-298.767
X307.181Y-366.712
X307.213Y-355.917
X312.769Y-336.868
X336.55Y-266.7
X336.55Y-290.512
X336.55Y-309.562
X336.55Y-366.712
X355.6Y-266.7
X355.6Y-290.512
X355.6Y-309.562
X355.6Y-347.662
X355.6Y-366.712
X374.65Y-266.7
X374.65Y-290.512
X374.65Y-309.562
X374.65Y-366.712
X396.049Y-358.457
X398.462Y-266.7
X398.462Y-290.512
X398.462Y-309.562
X398.462Y-328.613
X398.462Y-347.662
X398.462Y-366.712
X407.987Y-366.712
X417.512Y-266.7
X417.512Y-290.512
X417.512Y-309.562
X417.512Y-328.613
X417.512Y-347.662
X417.512Y-366.712
X419.925Y-358.457
X436.562Y-266.7
X436.562Y-290.512
X436.562Y-309.562
X436.562Y-328.613
X436.562Y-347.662
X436.562Y-366.712
X447.357Y-307.149
X447.357Y-331.025
X447.357Y-345.25
X447.357Y-369.125
X455.612Y-266.7
X455.612Y-290.512
X455.612Y-309.562
X455.612Y-319.087
X455.612Y-328.613
X455.612Y-347.662
X455.612Y-357.188
X455.612Y-366.712
T1
X298.406Y-267.35G85X298.406Y-266.05
G05
X309.606Y-267.35G85X309.606Y-266.05
G05
T0
M30
